%TF.GenerationSoftware,KiCad,Pcbnew,7.0.5*%
%TF.CreationDate,2023-06-08T14:54:28+02:00*%
%TF.ProjectId,verasity_PCB,76657261-7369-4747-995f-5043422e6b69,rev?*%
%TF.SameCoordinates,Original*%
%TF.FileFunction,Soldermask,Bot*%
%TF.FilePolarity,Negative*%
%FSLAX46Y46*%
G04 Gerber Fmt 4.6, Leading zero omitted, Abs format (unit mm)*
G04 Created by KiCad (PCBNEW 7.0.5) date 2023-06-08 14:54:28*
%MOMM*%
%LPD*%
G01*
G04 APERTURE LIST*
G04 Aperture macros list*
%AMRoundRect*
0 Rectangle with rounded corners*
0 $1 Rounding radius*
0 $2 $3 $4 $5 $6 $7 $8 $9 X,Y pos of 4 corners*
0 Add a 4 corners polygon primitive as box body*
4,1,4,$2,$3,$4,$5,$6,$7,$8,$9,$2,$3,0*
0 Add four circle primitives for the rounded corners*
1,1,$1+$1,$2,$3*
1,1,$1+$1,$4,$5*
1,1,$1+$1,$6,$7*
1,1,$1+$1,$8,$9*
0 Add four rect primitives between the rounded corners*
20,1,$1+$1,$2,$3,$4,$5,0*
20,1,$1+$1,$4,$5,$6,$7,0*
20,1,$1+$1,$6,$7,$8,$9,0*
20,1,$1+$1,$8,$9,$2,$3,0*%
G04 Aperture macros list end*
%ADD10R,1.500000X1.250000*%
%ADD11RoundRect,0.500000X1.000000X-1.000000X1.000000X1.000000X-1.000000X1.000000X-1.000000X-1.000000X0*%
%ADD12R,1.250000X1.500000*%
%ADD13RoundRect,0.500000X-1.000000X-1.000000X1.000000X-1.000000X1.000000X1.000000X-1.000000X1.000000X0*%
%ADD14C,3.048000*%
%ADD15C,3.987800*%
%ADD16C,2.100000*%
%ADD17R,1.550000X1.550000*%
%ADD18R,2.500000X0.700000*%
G04 APERTURE END LIST*
D10*
%TO.C,U6*%
X76143485Y94999800D03*
D11*
X76843485Y88749800D03*
D12*
X83343485Y102249800D03*
X83343485Y88249800D03*
X85043485Y102249800D03*
X85043485Y88249800D03*
D11*
X89843485Y88749800D03*
D10*
X90543485Y94999800D03*
D13*
X76843485Y101749800D03*
X89843485Y101749800D03*
D10*
X90543485Y98399800D03*
X76143485Y98399800D03*
X76143485Y96699800D03*
X90543485Y96699800D03*
D12*
X81643485Y102249800D03*
X81643485Y88249800D03*
%TD*%
D10*
%TO.C,U24*%
X85668485Y75949800D03*
D11*
X86368485Y69699800D03*
D12*
X92868485Y83199800D03*
X92868485Y69199800D03*
X94568485Y83199800D03*
X94568485Y69199800D03*
D11*
X99368485Y69699800D03*
D10*
X100068485Y75949800D03*
D13*
X86368485Y82699800D03*
X99368485Y82699800D03*
D10*
X100068485Y79349800D03*
X85668485Y79349800D03*
X85668485Y77649800D03*
X100068485Y77649800D03*
D12*
X91168485Y83199800D03*
X91168485Y69199800D03*
%TD*%
D10*
%TO.C,U63*%
X195205985Y37849800D03*
D11*
X195905985Y31599800D03*
D12*
X202405985Y45099800D03*
X202405985Y31099800D03*
X204105985Y45099800D03*
X204105985Y31099800D03*
D11*
X208905985Y31599800D03*
D10*
X209605985Y37849800D03*
D13*
X195905985Y44599800D03*
X208905985Y44599800D03*
D10*
X209605985Y41249800D03*
X195205985Y41249800D03*
X195205985Y39549800D03*
X209605985Y39549800D03*
D12*
X200705985Y45099800D03*
X200705985Y31099800D03*
%TD*%
D10*
%TO.C,U79*%
X295218485Y18799800D03*
D11*
X295918485Y12549800D03*
D12*
X302418485Y26049800D03*
X302418485Y12049800D03*
X304118485Y26049800D03*
X304118485Y12049800D03*
D11*
X308918485Y12549800D03*
D10*
X309618485Y18799800D03*
D13*
X295918485Y25549800D03*
X308918485Y25549800D03*
D10*
X309618485Y22199800D03*
X295218485Y22199800D03*
X295218485Y20499800D03*
X309618485Y20499800D03*
D12*
X300718485Y26049800D03*
X300718485Y12049800D03*
%TD*%
D10*
%TO.C,U76*%
X204730985Y18799800D03*
D11*
X205430985Y12549800D03*
D12*
X211930985Y26049800D03*
X211930985Y12049800D03*
X213630985Y26049800D03*
X213630985Y12049800D03*
D11*
X218430985Y12549800D03*
D10*
X219130985Y18799800D03*
D13*
X205430985Y25549800D03*
X218430985Y25549800D03*
D10*
X219130985Y22199800D03*
X204730985Y22199800D03*
X204730985Y20499800D03*
X219130985Y20499800D03*
D12*
X210230985Y26049800D03*
X210230985Y12049800D03*
%TD*%
D10*
%TO.C,U82*%
X40424735Y-250200D03*
D11*
X41124735Y-6500200D03*
D12*
X47624735Y6999800D03*
X47624735Y-7000200D03*
X49324735Y6999800D03*
X49324735Y-7000200D03*
D11*
X54124735Y-6500200D03*
D10*
X54824735Y-250200D03*
D13*
X41124735Y6499800D03*
X54124735Y6499800D03*
D10*
X54824735Y3149800D03*
X40424735Y3149800D03*
X40424735Y1449800D03*
X54824735Y1449800D03*
D12*
X45924735Y6999800D03*
X45924735Y-7000200D03*
%TD*%
D10*
%TO.C,U44*%
X152343485Y56899800D03*
D11*
X153043485Y50649800D03*
D12*
X159543485Y64149800D03*
X159543485Y50149800D03*
X161243485Y64149800D03*
X161243485Y50149800D03*
D11*
X166043485Y50649800D03*
D10*
X166743485Y56899800D03*
D13*
X153043485Y63649800D03*
X166043485Y63649800D03*
D10*
X166743485Y60299800D03*
X152343485Y60299800D03*
X152343485Y58599800D03*
X166743485Y58599800D03*
D12*
X157843485Y64149800D03*
X157843485Y50149800D03*
%TD*%
D10*
%TO.C,U90*%
X207112235Y-250200D03*
D11*
X207812235Y-6500200D03*
D12*
X214312235Y6999800D03*
X214312235Y-7000200D03*
X216012235Y6999800D03*
X216012235Y-7000200D03*
D11*
X220812235Y-6500200D03*
D10*
X221512235Y-250200D03*
D13*
X207812235Y6499800D03*
X220812235Y6499800D03*
D10*
X221512235Y3149800D03*
X207112235Y3149800D03*
X207112235Y1449800D03*
X221512235Y1449800D03*
D12*
X212612235Y6999800D03*
X212612235Y-7000200D03*
%TD*%
D10*
%TO.C,U15*%
X257118485Y94999800D03*
D11*
X257818485Y88749800D03*
D12*
X264318485Y102249800D03*
X264318485Y88249800D03*
X266018485Y102249800D03*
X266018485Y88249800D03*
D11*
X270818485Y88749800D03*
D10*
X271518485Y94999800D03*
D13*
X257818485Y101749800D03*
X270818485Y101749800D03*
D10*
X271518485Y98399800D03*
X257118485Y98399800D03*
X257118485Y96699800D03*
X271518485Y96699800D03*
D12*
X262618485Y102249800D03*
X262618485Y88249800D03*
%TD*%
D10*
%TO.C,U19*%
X-9581515Y75949800D03*
D11*
X-8881515Y69699800D03*
D12*
X-2381515Y83199800D03*
X-2381515Y69199800D03*
X-681515Y83199800D03*
X-681515Y69199800D03*
D11*
X4118485Y69699800D03*
D10*
X4818485Y75949800D03*
D13*
X-8881515Y82699800D03*
X4118485Y82699800D03*
D10*
X4818485Y79349800D03*
X-9581515Y79349800D03*
X-9581515Y77649800D03*
X4818485Y77649800D03*
D12*
X-4081515Y83199800D03*
X-4081515Y69199800D03*
%TD*%
D10*
%TO.C,U34*%
X295218485Y75949800D03*
D11*
X295918485Y69699800D03*
D12*
X302418485Y83199800D03*
X302418485Y69199800D03*
X304118485Y83199800D03*
X304118485Y69199800D03*
D11*
X308918485Y69699800D03*
D10*
X309618485Y75949800D03*
D13*
X295918485Y82699800D03*
X308918485Y82699800D03*
D10*
X309618485Y79349800D03*
X295218485Y79349800D03*
X295218485Y77649800D03*
X309618485Y77649800D03*
D12*
X300718485Y83199800D03*
X300718485Y69199800D03*
%TD*%
D14*
%TO.C,U65*%
X240512500Y45085000D03*
D15*
X240512500Y29845000D03*
D10*
X245212500Y37850000D03*
D11*
X245912500Y31600000D03*
D12*
X252412500Y45100000D03*
X252412500Y31100000D03*
X254112500Y45100000D03*
X254112500Y31100000D03*
D11*
X258912500Y31600000D03*
D10*
X259612500Y37850000D03*
D14*
X264312500Y45085000D03*
D15*
X264312500Y29845000D03*
D13*
X245912500Y44600000D03*
X258912500Y44600000D03*
D10*
X259612500Y41250000D03*
X245212500Y41250000D03*
X245212500Y39550000D03*
X259612500Y39550000D03*
D12*
X250712500Y45100000D03*
X250712500Y31100000D03*
%TD*%
D10*
%TO.C,U11*%
X176155985Y94999800D03*
D11*
X176855985Y88749800D03*
D12*
X183355985Y102249800D03*
X183355985Y88249800D03*
X185055985Y102249800D03*
X185055985Y88249800D03*
D11*
X189855985Y88749800D03*
D10*
X190555985Y94999800D03*
D13*
X176855985Y101749800D03*
X189855985Y101749800D03*
D10*
X190555985Y98399800D03*
X176155985Y98399800D03*
X176155985Y96699800D03*
X190555985Y96699800D03*
D12*
X181655985Y102249800D03*
X181655985Y88249800D03*
%TD*%
D10*
%TO.C,U91*%
X230924735Y-250200D03*
D11*
X231624735Y-6500200D03*
D12*
X238124735Y6999800D03*
X238124735Y-7000200D03*
X239824735Y6999800D03*
X239824735Y-7000200D03*
D11*
X244624735Y-6500200D03*
D10*
X245324735Y-250200D03*
D13*
X231624735Y6499800D03*
X244624735Y6499800D03*
D10*
X245324735Y3149800D03*
X230924735Y3149800D03*
X230924735Y1449800D03*
X245324735Y1449800D03*
D12*
X236424735Y6999800D03*
X236424735Y-7000200D03*
%TD*%
D10*
%TO.C,U39*%
X57093485Y56899800D03*
D11*
X57793485Y50649800D03*
D12*
X64293485Y64149800D03*
X64293485Y50149800D03*
X65993485Y64149800D03*
X65993485Y50149800D03*
D11*
X70793485Y50649800D03*
D10*
X71493485Y56899800D03*
D13*
X57793485Y63649800D03*
X70793485Y63649800D03*
D10*
X71493485Y60299800D03*
X57093485Y60299800D03*
X57093485Y58599800D03*
X71493485Y58599800D03*
D12*
X62593485Y64149800D03*
X62593485Y50149800D03*
%TD*%
D10*
%TO.C,U92*%
X254737235Y-250200D03*
D11*
X255437235Y-6500200D03*
D12*
X261937235Y6999800D03*
X261937235Y-7000200D03*
X263637235Y6999800D03*
X263637235Y-7000200D03*
D11*
X268437235Y-6500200D03*
D10*
X269137235Y-250200D03*
D13*
X255437235Y6499800D03*
X268437235Y6499800D03*
D10*
X269137235Y3149800D03*
X254737235Y3149800D03*
X254737235Y1449800D03*
X269137235Y1449800D03*
D12*
X260237235Y6999800D03*
X260237235Y-7000200D03*
%TD*%
D10*
%TO.C,U22*%
X47568485Y75949800D03*
D11*
X48268485Y69699800D03*
D12*
X54768485Y83199800D03*
X54768485Y69199800D03*
X56468485Y83199800D03*
X56468485Y69199800D03*
D11*
X61268485Y69699800D03*
D10*
X61968485Y75949800D03*
D13*
X48268485Y82699800D03*
X61268485Y82699800D03*
D10*
X61968485Y79349800D03*
X47568485Y79349800D03*
X47568485Y77649800D03*
X61968485Y77649800D03*
D12*
X53068485Y83199800D03*
X53068485Y69199800D03*
%TD*%
D10*
%TO.C,U55*%
X42805985Y37849800D03*
D11*
X43505985Y31599800D03*
D12*
X50005985Y45099800D03*
X50005985Y31099800D03*
X51705985Y45099800D03*
X51705985Y31099800D03*
D11*
X56505985Y31599800D03*
D10*
X57205985Y37849800D03*
D13*
X43505985Y44599800D03*
X56505985Y44599800D03*
D10*
X57205985Y41249800D03*
X42805985Y41249800D03*
X42805985Y39549800D03*
X57205985Y39549800D03*
D12*
X48305985Y45099800D03*
X48305985Y31099800D03*
%TD*%
D10*
%TO.C,U7*%
X95193485Y94999800D03*
D11*
X95893485Y88749800D03*
D12*
X102393485Y102249800D03*
X102393485Y88249800D03*
X104093485Y102249800D03*
X104093485Y88249800D03*
D11*
X108893485Y88749800D03*
D10*
X109593485Y94999800D03*
D13*
X95893485Y101749800D03*
X108893485Y101749800D03*
D10*
X109593485Y98399800D03*
X95193485Y98399800D03*
X95193485Y96699800D03*
X109593485Y96699800D03*
D12*
X100693485Y102249800D03*
X100693485Y88249800D03*
%TD*%
D10*
%TO.C,U31*%
X219018485Y75949800D03*
D11*
X219718485Y69699800D03*
D12*
X226218485Y83199800D03*
X226218485Y69199800D03*
X227918485Y83199800D03*
X227918485Y69199800D03*
D11*
X232718485Y69699800D03*
D10*
X233418485Y75949800D03*
D13*
X219718485Y82699800D03*
X232718485Y82699800D03*
D10*
X233418485Y79349800D03*
X219018485Y79349800D03*
X219018485Y77649800D03*
X233418485Y77649800D03*
D12*
X224518485Y83199800D03*
X224518485Y69199800D03*
%TD*%
D16*
%TO.C,H8*%
X140493750Y72628125D03*
%TD*%
%TO.C,H6*%
X-7500000Y106500000D03*
%TD*%
D10*
%TO.C,U12*%
X199968485Y94999800D03*
D11*
X200668485Y88749800D03*
D12*
X207168485Y102249800D03*
X207168485Y88249800D03*
X208868485Y102249800D03*
X208868485Y88249800D03*
D11*
X213668485Y88749800D03*
D10*
X214368485Y94999800D03*
D13*
X200668485Y101749800D03*
X213668485Y101749800D03*
D10*
X214368485Y98399800D03*
X199968485Y98399800D03*
X199968485Y96699800D03*
X214368485Y96699800D03*
D12*
X205468485Y102249800D03*
X205468485Y88249800D03*
%TD*%
D10*
%TO.C,U33*%
X276168485Y75949800D03*
D11*
X276868485Y69699800D03*
D12*
X283368485Y83199800D03*
X283368485Y69199800D03*
X285068485Y83199800D03*
X285068485Y69199800D03*
D11*
X289868485Y69699800D03*
D10*
X290568485Y75949800D03*
D13*
X276868485Y82699800D03*
X289868485Y82699800D03*
D10*
X290568485Y79349800D03*
X276168485Y79349800D03*
X276168485Y77649800D03*
X290568485Y77649800D03*
D12*
X281668485Y83199800D03*
X281668485Y69199800D03*
%TD*%
D10*
%TO.C,U86*%
X135674735Y-250200D03*
D11*
X136374735Y-6500200D03*
D12*
X142874735Y6999800D03*
X142874735Y-7000200D03*
X144574735Y6999800D03*
X144574735Y-7000200D03*
D11*
X149374735Y-6500200D03*
D10*
X150074735Y-250200D03*
D13*
X136374735Y6499800D03*
X149374735Y6499800D03*
D10*
X150074735Y3149800D03*
X135674735Y3149800D03*
X135674735Y1449800D03*
X150074735Y1449800D03*
D12*
X141174735Y6999800D03*
X141174735Y-7000200D03*
%TD*%
D10*
%TO.C,U48*%
X228543485Y56899800D03*
D11*
X229243485Y50649800D03*
D12*
X235743485Y64149800D03*
X235743485Y50149800D03*
X237443485Y64149800D03*
X237443485Y50149800D03*
D11*
X242243485Y50649800D03*
D10*
X242943485Y56899800D03*
D13*
X229243485Y63649800D03*
X242243485Y63649800D03*
D10*
X242943485Y60299800D03*
X228543485Y60299800D03*
X228543485Y58599800D03*
X242943485Y58599800D03*
D12*
X234043485Y64149800D03*
X234043485Y50149800D03*
%TD*%
D10*
%TO.C,U80*%
X-7200265Y-250200D03*
D11*
X-6500265Y-6500200D03*
D12*
X-265Y6999800D03*
X-265Y-7000200D03*
X1699735Y6999800D03*
X1699735Y-7000200D03*
D11*
X6499735Y-6500200D03*
D10*
X7199735Y-250200D03*
D13*
X-6500265Y6499800D03*
X6499735Y6499800D03*
D10*
X7199735Y3149800D03*
X-7200265Y3149800D03*
X-7200265Y1449800D03*
X7199735Y1449800D03*
D12*
X-1700265Y6999800D03*
X-1700265Y-7000200D03*
%TD*%
D10*
%TO.C,U98*%
X314268485Y18799800D03*
D11*
X314968485Y12549800D03*
D12*
X321468485Y26049800D03*
X321468485Y12049800D03*
X323168485Y26049800D03*
X323168485Y12049800D03*
D11*
X327968485Y12549800D03*
D10*
X328668485Y18799800D03*
D13*
X314968485Y25549800D03*
X327968485Y25549800D03*
D10*
X328668485Y22199800D03*
X314268485Y22199800D03*
X314268485Y20499800D03*
X328668485Y20499800D03*
D12*
X319768485Y26049800D03*
X319768485Y12049800D03*
%TD*%
D16*
%TO.C,H2*%
X14287500Y54768750D03*
%TD*%
D10*
%TO.C,U49*%
X252355985Y56899800D03*
D11*
X253055985Y50649800D03*
D12*
X259555985Y64149800D03*
X259555985Y50149800D03*
X261255985Y64149800D03*
X261255985Y50149800D03*
D11*
X266055985Y50649800D03*
D10*
X266755985Y56899800D03*
D13*
X253055985Y63649800D03*
X266055985Y63649800D03*
D10*
X266755985Y60299800D03*
X252355985Y60299800D03*
X252355985Y58599800D03*
X266755985Y58599800D03*
D12*
X257855985Y64149800D03*
X257855985Y50149800D03*
%TD*%
D10*
%TO.C,U69*%
X71380985Y18799800D03*
D11*
X72080985Y12549800D03*
D12*
X78580985Y26049800D03*
X78580985Y12049800D03*
X80280985Y26049800D03*
X80280985Y12049800D03*
D11*
X85080985Y12549800D03*
D10*
X85780985Y18799800D03*
D13*
X72080985Y25549800D03*
X85080985Y25549800D03*
D10*
X85780985Y22199800D03*
X71380985Y22199800D03*
X71380985Y20499800D03*
X85780985Y20499800D03*
D12*
X76880985Y26049800D03*
X76880985Y12049800D03*
%TD*%
D10*
%TO.C,U68*%
X52330985Y18799800D03*
D11*
X53030985Y12549800D03*
D12*
X59530985Y26049800D03*
X59530985Y12049800D03*
X61230985Y26049800D03*
X61230985Y12049800D03*
D11*
X66030985Y12549800D03*
D10*
X66730985Y18799800D03*
D13*
X53030985Y25549800D03*
X66030985Y25549800D03*
D10*
X66730985Y22199800D03*
X52330985Y22199800D03*
X52330985Y20499800D03*
X66730985Y20499800D03*
D12*
X57830985Y26049800D03*
X57830985Y12049800D03*
%TD*%
D10*
%TO.C,U26*%
X123768485Y75949800D03*
D11*
X124468485Y69699800D03*
D12*
X130968485Y83199800D03*
X130968485Y69199800D03*
X132668485Y83199800D03*
X132668485Y69199800D03*
D11*
X137468485Y69699800D03*
D10*
X138168485Y75949800D03*
D13*
X124468485Y82699800D03*
X137468485Y82699800D03*
D10*
X138168485Y79349800D03*
X123768485Y79349800D03*
X123768485Y77649800D03*
X138168485Y77649800D03*
D12*
X129268485Y83199800D03*
X129268485Y69199800D03*
%TD*%
D10*
%TO.C,U75*%
X185680985Y18799800D03*
D11*
X186380985Y12549800D03*
D12*
X192880985Y26049800D03*
X192880985Y12049800D03*
X194580985Y26049800D03*
X194580985Y12049800D03*
D11*
X199380985Y12549800D03*
D10*
X200080985Y18799800D03*
D13*
X186380985Y25549800D03*
X199380985Y25549800D03*
D10*
X200080985Y22199800D03*
X185680985Y22199800D03*
X185680985Y20499800D03*
X200080985Y20499800D03*
D12*
X191180985Y26049800D03*
X191180985Y12049800D03*
%TD*%
D10*
%TO.C,U61*%
X157105985Y37849800D03*
D11*
X157805985Y31599800D03*
D12*
X164305985Y45099800D03*
X164305985Y31099800D03*
X166005985Y45099800D03*
X166005985Y31099800D03*
D11*
X170805985Y31599800D03*
D10*
X171505985Y37849800D03*
D13*
X157805985Y44599800D03*
X170805985Y44599800D03*
D10*
X171505985Y41249800D03*
X157105985Y41249800D03*
X157105985Y39549800D03*
X171505985Y39549800D03*
D12*
X162605985Y45099800D03*
X162605985Y31099800D03*
%TD*%
D10*
%TO.C,U21*%
X28518485Y75949800D03*
D11*
X29218485Y69699800D03*
D12*
X35718485Y83199800D03*
X35718485Y69199800D03*
X37418485Y83199800D03*
X37418485Y69199800D03*
D11*
X42218485Y69699800D03*
D10*
X42918485Y75949800D03*
D13*
X29218485Y82699800D03*
X42218485Y82699800D03*
D10*
X42918485Y79349800D03*
X28518485Y79349800D03*
X28518485Y77649800D03*
X42918485Y77649800D03*
D12*
X34018485Y83199800D03*
X34018485Y69199800D03*
%TD*%
D10*
%TO.C,U50*%
X276168485Y56899800D03*
D11*
X276868485Y50649800D03*
D12*
X283368485Y64149800D03*
X283368485Y50149800D03*
X285068485Y64149800D03*
X285068485Y50149800D03*
D11*
X289868485Y50649800D03*
D10*
X290568485Y56899800D03*
D13*
X276868485Y63649800D03*
X289868485Y63649800D03*
D10*
X290568485Y60299800D03*
X276168485Y60299800D03*
X276168485Y58599800D03*
X290568485Y58599800D03*
D12*
X281668485Y64149800D03*
X281668485Y50149800D03*
%TD*%
D10*
%TO.C,U45*%
X171393485Y56899800D03*
D11*
X172093485Y50649800D03*
D12*
X178593485Y64149800D03*
X178593485Y50149800D03*
X180293485Y64149800D03*
X180293485Y50149800D03*
D11*
X185093485Y50649800D03*
D10*
X185793485Y56899800D03*
D13*
X172093485Y63649800D03*
X185093485Y63649800D03*
D10*
X185793485Y60299800D03*
X171393485Y60299800D03*
X171393485Y58599800D03*
X185793485Y58599800D03*
D12*
X176893485Y64149800D03*
X176893485Y50149800D03*
%TD*%
D10*
%TO.C,U41*%
X95193485Y56899800D03*
D11*
X95893485Y50649800D03*
D12*
X102393485Y64149800D03*
X102393485Y50149800D03*
X104093485Y64149800D03*
X104093485Y50149800D03*
D11*
X108893485Y50649800D03*
D10*
X109593485Y56899800D03*
D13*
X95893485Y63649800D03*
X108893485Y63649800D03*
D10*
X109593485Y60299800D03*
X95193485Y60299800D03*
X95193485Y58599800D03*
X109593485Y58599800D03*
D12*
X100693485Y64149800D03*
X100693485Y50149800D03*
%TD*%
D16*
%TO.C,H1*%
X12700000Y-3000000D03*
%TD*%
D10*
%TO.C,U53*%
X-2437765Y37849800D03*
D11*
X-1737765Y31599800D03*
D12*
X4762235Y45099800D03*
X4762235Y31099800D03*
X6462235Y45099800D03*
X6462235Y31099800D03*
D11*
X11262235Y31599800D03*
D10*
X11962235Y37849800D03*
D13*
X-1737765Y44599800D03*
X11262235Y44599800D03*
D10*
X11962235Y41249800D03*
X-2437765Y41249800D03*
X-2437765Y39549800D03*
X11962235Y39549800D03*
D12*
X3062235Y45099800D03*
X3062235Y31099800D03*
%TD*%
D10*
%TO.C,U27*%
X142818485Y75949800D03*
D11*
X143518485Y69699800D03*
D12*
X150018485Y83199800D03*
X150018485Y69199800D03*
X151718485Y83199800D03*
X151718485Y69199800D03*
D11*
X156518485Y69699800D03*
D10*
X157218485Y75949800D03*
D13*
X143518485Y82699800D03*
X156518485Y82699800D03*
D10*
X157218485Y79349800D03*
X142818485Y79349800D03*
X142818485Y77649800D03*
X157218485Y77649800D03*
D12*
X148318485Y83199800D03*
X148318485Y69199800D03*
%TD*%
D10*
%TO.C,U23*%
X66618485Y75949800D03*
D11*
X67318485Y69699800D03*
D12*
X73818485Y83199800D03*
X73818485Y69199800D03*
X75518485Y83199800D03*
X75518485Y69199800D03*
D11*
X80318485Y69699800D03*
D10*
X81018485Y75949800D03*
D13*
X67318485Y82699800D03*
X80318485Y82699800D03*
D10*
X81018485Y79349800D03*
X66618485Y79349800D03*
X66618485Y77649800D03*
X81018485Y77649800D03*
D12*
X72118485Y83199800D03*
X72118485Y69199800D03*
%TD*%
D16*
%TO.C,H7*%
X271462500Y53578125D03*
%TD*%
D10*
%TO.C,U35*%
X314268485Y75949800D03*
D11*
X314968485Y69699800D03*
D12*
X321468485Y83199800D03*
X321468485Y69199800D03*
X323168485Y83199800D03*
X323168485Y69199800D03*
D11*
X327968485Y69699800D03*
D10*
X328668485Y75949800D03*
D13*
X314968485Y82699800D03*
X327968485Y82699800D03*
D10*
X328668485Y79349800D03*
X314268485Y79349800D03*
X314268485Y77649800D03*
X328668485Y77649800D03*
D12*
X319768485Y83199800D03*
X319768485Y69199800D03*
%TD*%
D10*
%TO.C,U87*%
X159487235Y-250200D03*
D11*
X160187235Y-6500200D03*
D12*
X166687235Y6999800D03*
X166687235Y-7000200D03*
X168387235Y6999800D03*
X168387235Y-7000200D03*
D11*
X173187235Y-6500200D03*
D10*
X173887235Y-250200D03*
D13*
X160187235Y6499800D03*
X173187235Y6499800D03*
D10*
X173887235Y3149800D03*
X159487235Y3149800D03*
X159487235Y1449800D03*
X173887235Y1449800D03*
D12*
X164987235Y6999800D03*
X164987235Y-7000200D03*
%TD*%
D10*
%TO.C,U4*%
X38043485Y94999800D03*
D11*
X38743485Y88749800D03*
D12*
X45243485Y102249800D03*
X45243485Y88249800D03*
X46943485Y102249800D03*
X46943485Y88249800D03*
D11*
X51743485Y88749800D03*
D10*
X52443485Y94999800D03*
D13*
X38743485Y101749800D03*
X51743485Y101749800D03*
D10*
X52443485Y98399800D03*
X38043485Y98399800D03*
X38043485Y96699800D03*
X52443485Y96699800D03*
D12*
X43543485Y102249800D03*
X43543485Y88249800D03*
%TD*%
D10*
%TO.C,U60*%
X138055985Y37849800D03*
D11*
X138755985Y31599800D03*
D12*
X145255985Y45099800D03*
X145255985Y31099800D03*
X146955985Y45099800D03*
X146955985Y31099800D03*
D11*
X151755985Y31599800D03*
D10*
X152455985Y37849800D03*
D13*
X138755985Y44599800D03*
X151755985Y44599800D03*
D10*
X152455985Y41249800D03*
X138055985Y41249800D03*
X138055985Y39549800D03*
X152455985Y39549800D03*
D12*
X143555985Y45099800D03*
X143555985Y31099800D03*
%TD*%
D10*
%TO.C,U16*%
X276168485Y94999800D03*
D11*
X276868485Y88749800D03*
D12*
X283368485Y102249800D03*
X283368485Y88249800D03*
X285068485Y102249800D03*
X285068485Y88249800D03*
D11*
X289868485Y88749800D03*
D10*
X290568485Y94999800D03*
D13*
X276868485Y101749800D03*
X289868485Y101749800D03*
D10*
X290568485Y98399800D03*
X276168485Y98399800D03*
X276168485Y96699800D03*
X290568485Y96699800D03*
D12*
X281668485Y102249800D03*
X281668485Y88249800D03*
%TD*%
D10*
%TO.C,U58*%
X99955985Y37849800D03*
D11*
X100655985Y31599800D03*
D12*
X107155985Y45099800D03*
X107155985Y31099800D03*
X108855985Y45099800D03*
X108855985Y31099800D03*
D11*
X113655985Y31599800D03*
D10*
X114355985Y37849800D03*
D13*
X100655985Y44599800D03*
X113655985Y44599800D03*
D10*
X114355985Y41249800D03*
X99955985Y41249800D03*
X99955985Y39549800D03*
X114355985Y39549800D03*
D12*
X105455985Y45099800D03*
X105455985Y31099800D03*
%TD*%
D10*
%TO.C,U46*%
X190443485Y56899800D03*
D11*
X191143485Y50649800D03*
D12*
X197643485Y64149800D03*
X197643485Y50149800D03*
X199343485Y64149800D03*
X199343485Y50149800D03*
D11*
X204143485Y50649800D03*
D10*
X204843485Y56899800D03*
D13*
X191143485Y63649800D03*
X204143485Y63649800D03*
D10*
X204843485Y60299800D03*
X190443485Y60299800D03*
X190443485Y58599800D03*
X204843485Y58599800D03*
D12*
X195943485Y64149800D03*
X195943485Y50149800D03*
%TD*%
D10*
%TO.C,U36*%
X-4819015Y56899800D03*
D11*
X-4119015Y50649800D03*
D12*
X2380985Y64149800D03*
X2380985Y50149800D03*
X4080985Y64149800D03*
X4080985Y50149800D03*
D11*
X8880985Y50649800D03*
D10*
X9580985Y56899800D03*
D13*
X-4119015Y63649800D03*
X8880985Y63649800D03*
D10*
X9580985Y60299800D03*
X-4819015Y60299800D03*
X-4819015Y58599800D03*
X9580985Y58599800D03*
D12*
X680985Y64149800D03*
X680985Y50149800D03*
%TD*%
D10*
%TO.C,U94*%
X295218485Y-250200D03*
D11*
X295918485Y-6500200D03*
D12*
X302418485Y6999800D03*
X302418485Y-7000200D03*
X304118485Y6999800D03*
X304118485Y-7000200D03*
D11*
X308918485Y-6500200D03*
D10*
X309618485Y-250200D03*
D13*
X295918485Y6499800D03*
X308918485Y6499800D03*
D10*
X309618485Y3149800D03*
X295218485Y3149800D03*
X295218485Y1449800D03*
X309618485Y1449800D03*
D12*
X300718485Y6999800D03*
X300718485Y-7000200D03*
%TD*%
D10*
%TO.C,U40*%
X76143485Y56899800D03*
D11*
X76843485Y50649800D03*
D12*
X83343485Y64149800D03*
X83343485Y50149800D03*
X85043485Y64149800D03*
X85043485Y50149800D03*
D11*
X89843485Y50649800D03*
D10*
X90543485Y56899800D03*
D13*
X76843485Y63649800D03*
X89843485Y63649800D03*
D10*
X90543485Y60299800D03*
X76143485Y60299800D03*
X76143485Y58599800D03*
X90543485Y58599800D03*
D12*
X81643485Y64149800D03*
X81643485Y50149800D03*
%TD*%
D10*
%TO.C,U3*%
X276168485Y37849800D03*
D11*
X276868485Y31599800D03*
D12*
X283368485Y45099800D03*
X283368485Y31099800D03*
X285068485Y45099800D03*
X285068485Y31099800D03*
D11*
X289868485Y31599800D03*
D10*
X290568485Y37849800D03*
D13*
X276868485Y44599800D03*
X289868485Y44599800D03*
D10*
X290568485Y41249800D03*
X276168485Y41249800D03*
X276168485Y39549800D03*
X290568485Y39549800D03*
D12*
X281668485Y45099800D03*
X281668485Y31099800D03*
%TD*%
D10*
%TO.C,U25*%
X104718485Y75949800D03*
D11*
X105418485Y69699800D03*
D12*
X111918485Y83199800D03*
X111918485Y69199800D03*
X113618485Y83199800D03*
X113618485Y69199800D03*
D11*
X118418485Y69699800D03*
D10*
X119118485Y75949800D03*
D13*
X105418485Y82699800D03*
X118418485Y82699800D03*
D10*
X119118485Y79349800D03*
X104718485Y79349800D03*
X104718485Y77649800D03*
X119118485Y77649800D03*
D12*
X110218485Y83199800D03*
X110218485Y69199800D03*
%TD*%
D10*
%TO.C,U43*%
X133293485Y56899800D03*
D11*
X133993485Y50649800D03*
D12*
X140493485Y64149800D03*
X140493485Y50149800D03*
X142193485Y64149800D03*
X142193485Y50149800D03*
D11*
X146993485Y50649800D03*
D10*
X147693485Y56899800D03*
D13*
X133993485Y63649800D03*
X146993485Y63649800D03*
D10*
X147693485Y60299800D03*
X133293485Y60299800D03*
X133293485Y58599800D03*
X147693485Y58599800D03*
D12*
X138793485Y64149800D03*
X138793485Y50149800D03*
%TD*%
D10*
%TO.C,U59*%
X119005985Y37849800D03*
D11*
X119705985Y31599800D03*
D12*
X126205985Y45099800D03*
X126205985Y31099800D03*
X127905985Y45099800D03*
X127905985Y31099800D03*
D11*
X132705985Y31599800D03*
D10*
X133405985Y37849800D03*
D13*
X119705985Y44599800D03*
X132705985Y44599800D03*
D10*
X133405985Y41249800D03*
X119005985Y41249800D03*
X119005985Y39549800D03*
X133405985Y39549800D03*
D12*
X124505985Y45099800D03*
X124505985Y31099800D03*
%TD*%
D10*
%TO.C,U57*%
X80905985Y37849800D03*
D11*
X81605985Y31599800D03*
D12*
X88105985Y45099800D03*
X88105985Y31099800D03*
X89805985Y45099800D03*
X89805985Y31099800D03*
D11*
X94605985Y31599800D03*
D10*
X95305985Y37849800D03*
D13*
X81605985Y44599800D03*
X94605985Y44599800D03*
D10*
X95305985Y41249800D03*
X80905985Y41249800D03*
X80905985Y39549800D03*
X95305985Y39549800D03*
D12*
X86405985Y45099800D03*
X86405985Y31099800D03*
%TD*%
D10*
%TO.C,U17*%
X295218485Y94999800D03*
D11*
X295918485Y88749800D03*
D12*
X302418485Y102249800D03*
X302418485Y88249800D03*
X304118485Y102249800D03*
X304118485Y88249800D03*
D11*
X308918485Y88749800D03*
D10*
X309618485Y94999800D03*
D13*
X295918485Y101749800D03*
X308918485Y101749800D03*
D10*
X309618485Y98399800D03*
X295218485Y98399800D03*
X295218485Y96699800D03*
X309618485Y96699800D03*
D12*
X300718485Y102249800D03*
X300718485Y88249800D03*
%TD*%
D10*
%TO.C,U83*%
X64237235Y-250200D03*
D11*
X64937235Y-6500200D03*
D12*
X71437235Y6999800D03*
X71437235Y-7000200D03*
X73137235Y6999800D03*
X73137235Y-7000200D03*
D11*
X77937235Y-6500200D03*
D10*
X78637235Y-250200D03*
D13*
X64937235Y6499800D03*
X77937235Y6499800D03*
D10*
X78637235Y3149800D03*
X64237235Y3149800D03*
X64237235Y1449800D03*
X78637235Y1449800D03*
D12*
X69737235Y6999800D03*
X69737235Y-7000200D03*
%TD*%
D10*
%TO.C,U56*%
X61855985Y37849800D03*
D11*
X62555985Y31599800D03*
D12*
X69055985Y45099800D03*
X69055985Y31099800D03*
X70755985Y45099800D03*
X70755985Y31099800D03*
D11*
X75555985Y31599800D03*
D10*
X76255985Y37849800D03*
D13*
X62555985Y44599800D03*
X75555985Y44599800D03*
D10*
X76255985Y41249800D03*
X61855985Y41249800D03*
X61855985Y39549800D03*
X76255985Y39549800D03*
D12*
X67355985Y45099800D03*
X67355985Y31099800D03*
%TD*%
D10*
%TO.C,U20*%
X9468485Y75949800D03*
D11*
X10168485Y69699800D03*
D12*
X16668485Y83199800D03*
X16668485Y69199800D03*
X18368485Y83199800D03*
X18368485Y69199800D03*
D11*
X23168485Y69699800D03*
D10*
X23868485Y75949800D03*
D13*
X10168485Y82699800D03*
X23168485Y82699800D03*
D10*
X23868485Y79349800D03*
X9468485Y79349800D03*
X9468485Y77649800D03*
X23868485Y77649800D03*
D12*
X14968485Y83199800D03*
X14968485Y69199800D03*
%TD*%
D10*
%TO.C,U89*%
X183299735Y-250200D03*
D11*
X183999735Y-6500200D03*
D12*
X190499735Y6999800D03*
X190499735Y-7000200D03*
X192199735Y6999800D03*
X192199735Y-7000200D03*
D11*
X196999735Y-6500200D03*
D10*
X197699735Y-250200D03*
D13*
X183999735Y6499800D03*
X196999735Y6499800D03*
D10*
X197699735Y3149800D03*
X183299735Y3149800D03*
X183299735Y1449800D03*
X197699735Y1449800D03*
D12*
X188799735Y6999800D03*
X188799735Y-7000200D03*
%TD*%
D10*
%TO.C,U30*%
X199968485Y75949800D03*
D11*
X200668485Y69699800D03*
D12*
X207168485Y83199800D03*
X207168485Y69199800D03*
X208868485Y83199800D03*
X208868485Y69199800D03*
D11*
X213668485Y69699800D03*
D10*
X214368485Y75949800D03*
D13*
X200668485Y82699800D03*
X213668485Y82699800D03*
D10*
X214368485Y79349800D03*
X199968485Y79349800D03*
X199968485Y77649800D03*
X214368485Y77649800D03*
D12*
X205468485Y83199800D03*
X205468485Y69199800D03*
%TD*%
D14*
%TO.C,U66*%
X-2375000Y26035000D03*
D15*
X-2375000Y10795000D03*
D10*
X2325000Y18800000D03*
D11*
X3025000Y12550000D03*
D12*
X9525000Y26050000D03*
X9525000Y12050000D03*
X11225000Y26050000D03*
X11225000Y12050000D03*
D11*
X16025000Y12550000D03*
D10*
X16725000Y18800000D03*
D14*
X21425000Y26035000D03*
D15*
X21425000Y10795000D03*
D13*
X3025000Y25550000D03*
X16025000Y25550000D03*
D10*
X16725000Y22200000D03*
X2325000Y22200000D03*
X2325000Y20500000D03*
X16725000Y20500000D03*
D12*
X7825000Y26050000D03*
X7825000Y12050000D03*
%TD*%
D10*
%TO.C,U85*%
X111862235Y-250200D03*
D11*
X112562235Y-6500200D03*
D12*
X119062235Y6999800D03*
X119062235Y-7000200D03*
X120762235Y6999800D03*
X120762235Y-7000200D03*
D11*
X125562235Y-6500200D03*
D10*
X126262235Y-250200D03*
D13*
X112562235Y6499800D03*
X125562235Y6499800D03*
D10*
X126262235Y3149800D03*
X111862235Y3149800D03*
X111862235Y1449800D03*
X126262235Y1449800D03*
D12*
X117362235Y6999800D03*
X117362235Y-7000200D03*
%TD*%
D14*
%TO.C,U32*%
X242893750Y83185000D03*
D15*
X242893750Y67945000D03*
D10*
X247593750Y75950000D03*
D11*
X248293750Y69700000D03*
D12*
X254793750Y83200000D03*
X254793750Y69200000D03*
X256493750Y83200000D03*
X256493750Y69200000D03*
D11*
X261293750Y69700000D03*
D10*
X261993750Y75950000D03*
D14*
X266693750Y83185000D03*
D15*
X266693750Y67945000D03*
D13*
X248293750Y82700000D03*
X261293750Y82700000D03*
D10*
X261993750Y79350000D03*
X247593750Y79350000D03*
X247593750Y77650000D03*
X261993750Y77650000D03*
D12*
X253093750Y83200000D03*
X253093750Y69200000D03*
%TD*%
D10*
%TO.C,U67*%
X33280985Y18799800D03*
D11*
X33980985Y12549800D03*
D12*
X40480985Y26049800D03*
X40480985Y12049800D03*
X42180985Y26049800D03*
X42180985Y12049800D03*
D11*
X46980985Y12549800D03*
D10*
X47680985Y18799800D03*
D13*
X33980985Y25549800D03*
X46980985Y25549800D03*
D10*
X47680985Y22199800D03*
X33280985Y22199800D03*
X33280985Y20499800D03*
X47680985Y20499800D03*
D12*
X38780985Y26049800D03*
X38780985Y12049800D03*
%TD*%
D10*
%TO.C,U18*%
X314268485Y94999800D03*
D11*
X314968485Y88749800D03*
D12*
X321468485Y102249800D03*
X321468485Y88249800D03*
X323168485Y102249800D03*
X323168485Y88249800D03*
D11*
X327968485Y88749800D03*
D10*
X328668485Y94999800D03*
D13*
X314968485Y101749800D03*
X327968485Y101749800D03*
D10*
X328668485Y98399800D03*
X314268485Y98399800D03*
X314268485Y96699800D03*
X328668485Y96699800D03*
D12*
X319768485Y102249800D03*
X319768485Y88249800D03*
%TD*%
D10*
%TO.C,U84*%
X88049735Y-250200D03*
D11*
X88749735Y-6500200D03*
D12*
X95249735Y6999800D03*
X95249735Y-7000200D03*
X96949735Y6999800D03*
X96949735Y-7000200D03*
D11*
X101749735Y-6500200D03*
D10*
X102449735Y-250200D03*
D13*
X88749735Y6499800D03*
X101749735Y6499800D03*
D10*
X102449735Y3149800D03*
X88049735Y3149800D03*
X88049735Y1449800D03*
X102449735Y1449800D03*
D12*
X93549735Y6999800D03*
X93549735Y-7000200D03*
%TD*%
D10*
%TO.C,U14*%
X238068485Y94999800D03*
D11*
X238768485Y88749800D03*
D12*
X245268485Y102249800D03*
X245268485Y88249800D03*
X246968485Y102249800D03*
X246968485Y88249800D03*
D11*
X251768485Y88749800D03*
D10*
X252468485Y94999800D03*
D13*
X238768485Y101749800D03*
X251768485Y101749800D03*
D10*
X252468485Y98399800D03*
X238068485Y98399800D03*
X238068485Y96699800D03*
X252468485Y96699800D03*
D12*
X243568485Y102249800D03*
X243568485Y88249800D03*
%TD*%
D10*
%TO.C,U81*%
X16612235Y-250200D03*
D11*
X17312235Y-6500200D03*
D12*
X23812235Y6999800D03*
X23812235Y-7000200D03*
X25512235Y6999800D03*
X25512235Y-7000200D03*
D11*
X30312235Y-6500200D03*
D10*
X31012235Y-250200D03*
D13*
X17312235Y6499800D03*
X30312235Y6499800D03*
D10*
X31012235Y3149800D03*
X16612235Y3149800D03*
X16612235Y1449800D03*
X31012235Y1449800D03*
D12*
X22112235Y6999800D03*
X22112235Y-7000200D03*
%TD*%
D10*
%TO.C,U74*%
X166630985Y18799800D03*
D11*
X167330985Y12549800D03*
D12*
X173830985Y26049800D03*
X173830985Y12049800D03*
X175530985Y26049800D03*
X175530985Y12049800D03*
D11*
X180330985Y12549800D03*
D10*
X181030985Y18799800D03*
D13*
X167330985Y25549800D03*
X180330985Y25549800D03*
D10*
X181030985Y22199800D03*
X166630985Y22199800D03*
X166630985Y20499800D03*
X181030985Y20499800D03*
D12*
X172130985Y26049800D03*
X172130985Y12049800D03*
%TD*%
D10*
%TO.C,U88*%
X295218485Y37849800D03*
D11*
X295918485Y31599800D03*
D12*
X302418485Y45099800D03*
X302418485Y31099800D03*
X304118485Y45099800D03*
X304118485Y31099800D03*
D11*
X308918485Y31599800D03*
D10*
X309618485Y37849800D03*
D13*
X295918485Y44599800D03*
X308918485Y44599800D03*
D10*
X309618485Y41249800D03*
X295218485Y41249800D03*
X295218485Y39549800D03*
X309618485Y39549800D03*
D12*
X300718485Y45099800D03*
X300718485Y31099800D03*
%TD*%
D10*
%TO.C,U51*%
X295218485Y56899800D03*
D11*
X295918485Y50649800D03*
D12*
X302418485Y64149800D03*
X302418485Y50149800D03*
X304118485Y64149800D03*
X304118485Y50149800D03*
D11*
X308918485Y50649800D03*
D10*
X309618485Y56899800D03*
D13*
X295918485Y63649800D03*
X308918485Y63649800D03*
D10*
X309618485Y60299800D03*
X295218485Y60299800D03*
X295218485Y58599800D03*
X309618485Y58599800D03*
D12*
X300718485Y64149800D03*
X300718485Y50149800D03*
%TD*%
D17*
%TO.C,U99*%
X28939000Y107751000D03*
X28939000Y105211000D03*
X10939000Y102671000D03*
X28939000Y102671000D03*
X28939000Y100131000D03*
X10939000Y107751000D03*
X28939000Y97591000D03*
X28939000Y95051000D03*
X28939000Y92511000D03*
X28939000Y89971000D03*
X28939000Y87431000D03*
X25019000Y86141000D03*
X22479000Y86141000D03*
X19939000Y86141000D03*
X17399000Y86141000D03*
X14859000Y86141000D03*
X10939000Y87431000D03*
X10939000Y89971000D03*
D18*
X13959000Y90936000D03*
X13959000Y92206000D03*
X13959000Y93476000D03*
X13959000Y94746000D03*
X13959000Y96016000D03*
X13959000Y97286000D03*
X13959000Y98556000D03*
X13959000Y99826000D03*
X13959000Y101096000D03*
D17*
X10939000Y92511000D03*
X10939000Y95051000D03*
X10939000Y97591000D03*
X10939000Y100131000D03*
X10939000Y105211000D03*
D18*
X13959000Y102366000D03*
%TD*%
D10*
%TO.C,U13*%
X219018485Y94999800D03*
D11*
X219718485Y88749800D03*
D12*
X226218485Y102249800D03*
X226218485Y88249800D03*
X227918485Y102249800D03*
X227918485Y88249800D03*
D11*
X232718485Y88749800D03*
D10*
X233418485Y94999800D03*
D13*
X219718485Y101749800D03*
X232718485Y101749800D03*
D10*
X233418485Y98399800D03*
X219018485Y98399800D03*
X219018485Y96699800D03*
X233418485Y96699800D03*
D12*
X224518485Y102249800D03*
X224518485Y88249800D03*
%TD*%
D16*
%TO.C,H5*%
X130810000Y-3000000D03*
%TD*%
D10*
%TO.C,U28*%
X161868485Y75949800D03*
D11*
X162568485Y69699800D03*
D12*
X169068485Y83199800D03*
X169068485Y69199800D03*
X170768485Y83199800D03*
X170768485Y69199800D03*
D11*
X175568485Y69699800D03*
D10*
X176268485Y75949800D03*
D13*
X162568485Y82699800D03*
X175568485Y82699800D03*
D10*
X176268485Y79349800D03*
X161868485Y79349800D03*
X161868485Y77649800D03*
X176268485Y77649800D03*
D12*
X167368485Y83199800D03*
X167368485Y69199800D03*
%TD*%
D16*
%TO.C,H9*%
X327660000Y106500000D03*
%TD*%
D10*
%TO.C,U10*%
X157105985Y94999800D03*
D11*
X157805985Y88749800D03*
D12*
X164305985Y102249800D03*
X164305985Y88249800D03*
X166005985Y102249800D03*
X166005985Y88249800D03*
D11*
X170805985Y88749800D03*
D10*
X171505985Y94999800D03*
D13*
X157805985Y101749800D03*
X170805985Y101749800D03*
D10*
X171505985Y98399800D03*
X157105985Y98399800D03*
X157105985Y96699800D03*
X171505985Y96699800D03*
D12*
X162605985Y102249800D03*
X162605985Y88249800D03*
%TD*%
D10*
%TO.C,U96*%
X314268485Y37849800D03*
D11*
X314968485Y31599800D03*
D12*
X321468485Y45099800D03*
X321468485Y31099800D03*
X323168485Y45099800D03*
X323168485Y31099800D03*
D11*
X327968485Y31599800D03*
D10*
X328668485Y37849800D03*
D13*
X314968485Y44599800D03*
X327968485Y44599800D03*
D10*
X328668485Y41249800D03*
X314268485Y41249800D03*
X314268485Y39549800D03*
X328668485Y39549800D03*
D12*
X319768485Y45099800D03*
X319768485Y31099800D03*
%TD*%
D16*
%TO.C,H3*%
X78581250Y34528125D03*
%TD*%
D10*
%TO.C,U95*%
X314268485Y-250200D03*
D11*
X314968485Y-6500200D03*
D12*
X321468485Y6999800D03*
X321468485Y-7000200D03*
X323168485Y6999800D03*
X323168485Y-7000200D03*
D11*
X327968485Y-6500200D03*
D10*
X328668485Y-250200D03*
D13*
X314968485Y6499800D03*
X327968485Y6499800D03*
D10*
X328668485Y3149800D03*
X314268485Y3149800D03*
X314268485Y1449800D03*
X328668485Y1449800D03*
D12*
X319768485Y6999800D03*
X319768485Y-7000200D03*
%TD*%
D10*
%TO.C,U2*%
X-9581515Y94999800D03*
D11*
X-8881515Y88749800D03*
D12*
X-2381515Y102249800D03*
X-2381515Y88249800D03*
X-681515Y102249800D03*
X-681515Y88249800D03*
D11*
X4118485Y88749800D03*
D10*
X4818485Y94999800D03*
D13*
X-8881515Y101749800D03*
X4118485Y101749800D03*
D10*
X4818485Y98399800D03*
X-9581515Y98399800D03*
X-9581515Y96699800D03*
X4818485Y96699800D03*
D12*
X-4081515Y102249800D03*
X-4081515Y88249800D03*
%TD*%
D10*
%TO.C,U54*%
X23755985Y37849800D03*
D11*
X24455985Y31599800D03*
D12*
X30955985Y45099800D03*
X30955985Y31099800D03*
X32655985Y45099800D03*
X32655985Y31099800D03*
D11*
X37455985Y31599800D03*
D10*
X38155985Y37849800D03*
D13*
X24455985Y44599800D03*
X37455985Y44599800D03*
D10*
X38155985Y41249800D03*
X23755985Y41249800D03*
X23755985Y39549800D03*
X38155985Y39549800D03*
D12*
X29255985Y45099800D03*
X29255985Y31099800D03*
%TD*%
D10*
%TO.C,U70*%
X90430985Y18799800D03*
D11*
X91130985Y12549800D03*
D12*
X97630985Y26049800D03*
X97630985Y12049800D03*
X99330985Y26049800D03*
X99330985Y12049800D03*
D11*
X104130985Y12549800D03*
D10*
X104830985Y18799800D03*
D13*
X91130985Y25549800D03*
X104130985Y25549800D03*
D10*
X104830985Y22199800D03*
X90430985Y22199800D03*
X90430985Y20499800D03*
X104830985Y20499800D03*
D12*
X95930985Y26049800D03*
X95930985Y12049800D03*
%TD*%
D10*
%TO.C,U8*%
X119005985Y94999800D03*
D11*
X119705985Y88749800D03*
D12*
X126205985Y102249800D03*
X126205985Y88249800D03*
X127905985Y102249800D03*
X127905985Y88249800D03*
D11*
X132705985Y88749800D03*
D10*
X133405985Y94999800D03*
D13*
X119705985Y101749800D03*
X132705985Y101749800D03*
D10*
X133405985Y98399800D03*
X119005985Y98399800D03*
X119005985Y96699800D03*
X133405985Y96699800D03*
D12*
X124505985Y102249800D03*
X124505985Y88249800D03*
%TD*%
D10*
%TO.C,U29*%
X180918485Y75949800D03*
D11*
X181618485Y69699800D03*
D12*
X188118485Y83199800D03*
X188118485Y69199800D03*
X189818485Y83199800D03*
X189818485Y69199800D03*
D11*
X194618485Y69699800D03*
D10*
X195318485Y75949800D03*
D13*
X181618485Y82699800D03*
X194618485Y82699800D03*
D10*
X195318485Y79349800D03*
X180918485Y79349800D03*
X180918485Y77649800D03*
X195318485Y77649800D03*
D12*
X186418485Y83199800D03*
X186418485Y69199800D03*
%TD*%
D10*
%TO.C,U52*%
X314268485Y56899800D03*
D11*
X314968485Y50649800D03*
D12*
X321468485Y64149800D03*
X321468485Y50149800D03*
X323168485Y64149800D03*
X323168485Y50149800D03*
D11*
X327968485Y50649800D03*
D10*
X328668485Y56899800D03*
D13*
X314968485Y63649800D03*
X327968485Y63649800D03*
D10*
X328668485Y60299800D03*
X314268485Y60299800D03*
X314268485Y58599800D03*
X328668485Y58599800D03*
D12*
X319768485Y64149800D03*
X319768485Y50149800D03*
%TD*%
D16*
%TO.C,H4*%
X273050000Y-3000000D03*
%TD*%
D10*
%TO.C,U5*%
X57093485Y94999800D03*
D11*
X57793485Y88749800D03*
D12*
X64293485Y102249800D03*
X64293485Y88249800D03*
X65993485Y102249800D03*
X65993485Y88249800D03*
D11*
X70793485Y88749800D03*
D10*
X71493485Y94999800D03*
D13*
X57793485Y101749800D03*
X70793485Y101749800D03*
D10*
X71493485Y98399800D03*
X57093485Y98399800D03*
X57093485Y96699800D03*
X71493485Y96699800D03*
D12*
X62593485Y102249800D03*
X62593485Y88249800D03*
%TD*%
D10*
%TO.C,U78*%
X249974735Y18799800D03*
D11*
X250674735Y12549800D03*
D12*
X257174735Y26049800D03*
X257174735Y12049800D03*
X258874735Y26049800D03*
X258874735Y12049800D03*
D11*
X263674735Y12549800D03*
D10*
X264374735Y18799800D03*
D13*
X250674735Y25549800D03*
X263674735Y25549800D03*
D10*
X264374735Y22199800D03*
X249974735Y22199800D03*
X249974735Y20499800D03*
X264374735Y20499800D03*
D12*
X255474735Y26049800D03*
X255474735Y12049800D03*
%TD*%
D10*
%TO.C,U37*%
X18993485Y56899800D03*
D11*
X19693485Y50649800D03*
D12*
X26193485Y64149800D03*
X26193485Y50149800D03*
X27893485Y64149800D03*
X27893485Y50149800D03*
D11*
X32693485Y50649800D03*
D10*
X33393485Y56899800D03*
D13*
X19693485Y63649800D03*
X32693485Y63649800D03*
D10*
X33393485Y60299800D03*
X18993485Y60299800D03*
X18993485Y58599800D03*
X33393485Y58599800D03*
D12*
X24493485Y64149800D03*
X24493485Y50149800D03*
%TD*%
D10*
%TO.C,U97*%
X276168485Y18799800D03*
D11*
X276868485Y12549800D03*
D12*
X283368485Y26049800D03*
X283368485Y12049800D03*
X285068485Y26049800D03*
X285068485Y12049800D03*
D11*
X289868485Y12549800D03*
D10*
X290568485Y18799800D03*
D13*
X276868485Y25549800D03*
X289868485Y25549800D03*
D10*
X290568485Y22199800D03*
X276168485Y22199800D03*
X276168485Y20499800D03*
X290568485Y20499800D03*
D12*
X281668485Y26049800D03*
X281668485Y12049800D03*
%TD*%
D10*
%TO.C,U77*%
X223780985Y18799800D03*
D11*
X224480985Y12549800D03*
D12*
X230980985Y26049800D03*
X230980985Y12049800D03*
X232680985Y26049800D03*
X232680985Y12049800D03*
D11*
X237480985Y12549800D03*
D10*
X238180985Y18799800D03*
D13*
X224480985Y25549800D03*
X237480985Y25549800D03*
D10*
X238180985Y22199800D03*
X223780985Y22199800D03*
X223780985Y20499800D03*
X238180985Y20499800D03*
D12*
X229280985Y26049800D03*
X229280985Y12049800D03*
%TD*%
D10*
%TO.C,U42*%
X114243485Y56899800D03*
D11*
X114943485Y50649800D03*
D12*
X121443485Y64149800D03*
X121443485Y50149800D03*
X123143485Y64149800D03*
X123143485Y50149800D03*
D11*
X127943485Y50649800D03*
D10*
X128643485Y56899800D03*
D13*
X114943485Y63649800D03*
X127943485Y63649800D03*
D10*
X128643485Y60299800D03*
X114243485Y60299800D03*
X114243485Y58599800D03*
X128643485Y58599800D03*
D12*
X119743485Y64149800D03*
X119743485Y50149800D03*
%TD*%
D10*
%TO.C,U71*%
X109480985Y18799800D03*
D11*
X110180985Y12549800D03*
D12*
X116680985Y26049800D03*
X116680985Y12049800D03*
X118380985Y26049800D03*
X118380985Y12049800D03*
D11*
X123180985Y12549800D03*
D10*
X123880985Y18799800D03*
D13*
X110180985Y25549800D03*
X123180985Y25549800D03*
D10*
X123880985Y22199800D03*
X109480985Y22199800D03*
X109480985Y20499800D03*
X123880985Y20499800D03*
D12*
X114980985Y26049800D03*
X114980985Y12049800D03*
%TD*%
D10*
%TO.C,U47*%
X209493485Y56899800D03*
D11*
X210193485Y50649800D03*
D12*
X216693485Y64149800D03*
X216693485Y50149800D03*
X218393485Y64149800D03*
X218393485Y50149800D03*
D11*
X223193485Y50649800D03*
D10*
X223893485Y56899800D03*
D13*
X210193485Y63649800D03*
X223193485Y63649800D03*
D10*
X223893485Y60299800D03*
X209493485Y60299800D03*
X209493485Y58599800D03*
X223893485Y58599800D03*
D12*
X214993485Y64149800D03*
X214993485Y50149800D03*
%TD*%
D10*
%TO.C,U64*%
X215208485Y38008550D03*
D11*
X215908485Y31758550D03*
D12*
X222408485Y45258550D03*
X222408485Y31258550D03*
X224108485Y45258550D03*
X224108485Y31258550D03*
D11*
X228908485Y31758550D03*
D10*
X229608485Y38008550D03*
D13*
X215908485Y44758550D03*
X228908485Y44758550D03*
D10*
X229608485Y41408550D03*
X215208485Y41408550D03*
X215208485Y39708550D03*
X229608485Y39708550D03*
D12*
X220708485Y45258550D03*
X220708485Y31258550D03*
%TD*%
D10*
%TO.C,U38*%
X38043485Y56899800D03*
D11*
X38743485Y50649800D03*
D12*
X45243485Y64149800D03*
X45243485Y50149800D03*
X46943485Y64149800D03*
X46943485Y50149800D03*
D11*
X51743485Y50649800D03*
D10*
X52443485Y56899800D03*
D13*
X38743485Y63649800D03*
X51743485Y63649800D03*
D10*
X52443485Y60299800D03*
X38043485Y60299800D03*
X38043485Y58599800D03*
X52443485Y58599800D03*
D12*
X43543485Y64149800D03*
X43543485Y50149800D03*
%TD*%
D10*
%TO.C,U72*%
X128530985Y18799800D03*
D11*
X129230985Y12549800D03*
D12*
X135730985Y26049800D03*
X135730985Y12049800D03*
X137430985Y26049800D03*
X137430985Y12049800D03*
D11*
X142230985Y12549800D03*
D10*
X142930985Y18799800D03*
D13*
X129230985Y25549800D03*
X142230985Y25549800D03*
D10*
X142930985Y22199800D03*
X128530985Y22199800D03*
X128530985Y20499800D03*
X142930985Y20499800D03*
D12*
X134030985Y26049800D03*
X134030985Y12049800D03*
%TD*%
D10*
%TO.C,U9*%
X138055985Y94999800D03*
D11*
X138755985Y88749800D03*
D12*
X145255985Y102249800D03*
X145255985Y88249800D03*
X146955985Y102249800D03*
X146955985Y88249800D03*
D11*
X151755985Y88749800D03*
D10*
X152455985Y94999800D03*
D13*
X138755985Y101749800D03*
X151755985Y101749800D03*
D10*
X152455985Y98399800D03*
X138055985Y98399800D03*
X138055985Y96699800D03*
X152455985Y96699800D03*
D12*
X143555985Y102249800D03*
X143555985Y88249800D03*
%TD*%
D10*
%TO.C,U62*%
X176155985Y37849800D03*
D11*
X176855985Y31599800D03*
D12*
X183355985Y45099800D03*
X183355985Y31099800D03*
X185055985Y45099800D03*
X185055985Y31099800D03*
D11*
X189855985Y31599800D03*
D10*
X190555985Y37849800D03*
D13*
X176855985Y44599800D03*
X189855985Y44599800D03*
D10*
X190555985Y41249800D03*
X176155985Y41249800D03*
X176155985Y39549800D03*
X190555985Y39549800D03*
D12*
X181655985Y45099800D03*
X181655985Y31099800D03*
%TD*%
D10*
%TO.C,U93*%
X276168485Y-250200D03*
D11*
X276868485Y-6500200D03*
D12*
X283368485Y6999800D03*
X283368485Y-7000200D03*
X285068485Y6999800D03*
X285068485Y-7000200D03*
D11*
X289868485Y-6500200D03*
D10*
X290568485Y-250200D03*
D13*
X276868485Y6499800D03*
X289868485Y6499800D03*
D10*
X290568485Y3149800D03*
X276168485Y3149800D03*
X276168485Y1449800D03*
X290568485Y1449800D03*
D12*
X281668485Y6999800D03*
X281668485Y-7000200D03*
%TD*%
D10*
%TO.C,U73*%
X147580985Y18799800D03*
D11*
X148280985Y12549800D03*
D12*
X154780985Y26049800D03*
X154780985Y12049800D03*
X156480985Y26049800D03*
X156480985Y12049800D03*
D11*
X161280985Y12549800D03*
D10*
X161980985Y18799800D03*
D13*
X148280985Y25549800D03*
X161280985Y25549800D03*
D10*
X161980985Y22199800D03*
X147580985Y22199800D03*
X147580985Y20499800D03*
X161980985Y20499800D03*
D12*
X153080985Y26049800D03*
X153080985Y12049800D03*
%TD*%
M02*
