%TF.GenerationSoftware,KiCad,Pcbnew,7.0.5*%
%TF.CreationDate,2023-06-08T14:54:28+02:00*%
%TF.ProjectId,verasity_PCB,76657261-7369-4747-995f-5043422e6b69,rev?*%
%TF.SameCoordinates,Original*%
%TF.FileFunction,Legend,Top*%
%TF.FilePolarity,Positive*%
%FSLAX46Y46*%
G04 Gerber Fmt 4.6, Leading zero omitted, Abs format (unit mm)*
G04 Created by KiCad (PCBNEW 7.0.5) date 2023-06-08 14:54:28*
%MOMM*%
%LPD*%
G01*
G04 APERTURE LIST*
G04 Aperture macros list*
%AMRoundRect*
0 Rectangle with rounded corners*
0 $1 Rounding radius*
0 $2 $3 $4 $5 $6 $7 $8 $9 X,Y pos of 4 corners*
0 Add a 4 corners polygon primitive as box body*
4,1,4,$2,$3,$4,$5,$6,$7,$8,$9,$2,$3,0*
0 Add four circle primitives for the rounded corners*
1,1,$1+$1,$2,$3*
1,1,$1+$1,$4,$5*
1,1,$1+$1,$6,$7*
1,1,$1+$1,$8,$9*
0 Add four rect primitives between the rounded corners*
20,1,$1+$1,$2,$3,$4,$5,0*
20,1,$1+$1,$4,$5,$6,$7,0*
20,1,$1+$1,$6,$7,$8,$9,0*
20,1,$1+$1,$8,$9,$2,$3,0*%
G04 Aperture macros list end*
%ADD10C,0.085000*%
%ADD11C,0.200000*%
%ADD12C,0.150000*%
%ADD13R,1.500000X1.250000*%
%ADD14RoundRect,0.500000X1.000000X-1.000000X1.000000X1.000000X-1.000000X1.000000X-1.000000X-1.000000X0*%
%ADD15R,1.250000X1.500000*%
%ADD16RoundRect,0.500000X-1.000000X-1.000000X1.000000X-1.000000X1.000000X1.000000X-1.000000X1.000000X0*%
%ADD17C,3.048000*%
%ADD18C,3.987800*%
%ADD19C,2.100000*%
%ADD20R,1.550000X1.550000*%
%ADD21R,2.500000X0.700000*%
G04 APERTURE END LIST*
D10*
X309996206Y106790800D02*
X309996206Y106076515D01*
X309996206Y106076515D02*
X309967635Y105933658D01*
X309967635Y105933658D02*
X309910492Y105838420D01*
X309910492Y105838420D02*
X309824778Y105790800D01*
X309824778Y105790800D02*
X309767635Y105790800D01*
X310567635Y105790800D02*
X310281921Y105790800D01*
X310281921Y105790800D02*
X310281921Y106790800D01*
X311110492Y105886039D02*
X311081920Y105838420D01*
X311081920Y105838420D02*
X310996206Y105790800D01*
X310996206Y105790800D02*
X310939063Y105790800D01*
X310939063Y105790800D02*
X310853349Y105838420D01*
X310853349Y105838420D02*
X310796206Y105933658D01*
X310796206Y105933658D02*
X310767635Y106028896D01*
X310767635Y106028896D02*
X310739063Y106219372D01*
X310739063Y106219372D02*
X310739063Y106362229D01*
X310739063Y106362229D02*
X310767635Y106552705D01*
X310767635Y106552705D02*
X310796206Y106647943D01*
X310796206Y106647943D02*
X310853349Y106743181D01*
X310853349Y106743181D02*
X310939063Y106790800D01*
X310939063Y106790800D02*
X310996206Y106790800D01*
X310996206Y106790800D02*
X311081920Y106743181D01*
X311081920Y106743181D02*
X311110492Y106695562D01*
X311539063Y106790800D02*
X311539063Y106076515D01*
X311539063Y106076515D02*
X311510492Y105933658D01*
X311510492Y105933658D02*
X311453349Y105838420D01*
X311453349Y105838420D02*
X311367635Y105790800D01*
X311367635Y105790800D02*
X311310492Y105790800D01*
X312110492Y105790800D02*
X311824778Y105790800D01*
X311824778Y105790800D02*
X311824778Y106790800D01*
X312653349Y105886039D02*
X312624777Y105838420D01*
X312624777Y105838420D02*
X312539063Y105790800D01*
X312539063Y105790800D02*
X312481920Y105790800D01*
X312481920Y105790800D02*
X312396206Y105838420D01*
X312396206Y105838420D02*
X312339063Y105933658D01*
X312339063Y105933658D02*
X312310492Y106028896D01*
X312310492Y106028896D02*
X312281920Y106219372D01*
X312281920Y106219372D02*
X312281920Y106362229D01*
X312281920Y106362229D02*
X312310492Y106552705D01*
X312310492Y106552705D02*
X312339063Y106647943D01*
X312339063Y106647943D02*
X312396206Y106743181D01*
X312396206Y106743181D02*
X312481920Y106790800D01*
X312481920Y106790800D02*
X312539063Y106790800D01*
X312539063Y106790800D02*
X312624777Y106743181D01*
X312624777Y106743181D02*
X312653349Y106695562D01*
X313081920Y106790800D02*
X313081920Y106076515D01*
X313081920Y106076515D02*
X313053349Y105933658D01*
X313053349Y105933658D02*
X312996206Y105838420D01*
X312996206Y105838420D02*
X312910492Y105790800D01*
X312910492Y105790800D02*
X312853349Y105790800D01*
X313653349Y105790800D02*
X313367635Y105790800D01*
X313367635Y105790800D02*
X313367635Y106790800D01*
X314196206Y105886039D02*
X314167634Y105838420D01*
X314167634Y105838420D02*
X314081920Y105790800D01*
X314081920Y105790800D02*
X314024777Y105790800D01*
X314024777Y105790800D02*
X313939063Y105838420D01*
X313939063Y105838420D02*
X313881920Y105933658D01*
X313881920Y105933658D02*
X313853349Y106028896D01*
X313853349Y106028896D02*
X313824777Y106219372D01*
X313824777Y106219372D02*
X313824777Y106362229D01*
X313824777Y106362229D02*
X313853349Y106552705D01*
X313853349Y106552705D02*
X313881920Y106647943D01*
X313881920Y106647943D02*
X313939063Y106743181D01*
X313939063Y106743181D02*
X314024777Y106790800D01*
X314024777Y106790800D02*
X314081920Y106790800D01*
X314081920Y106790800D02*
X314167634Y106743181D01*
X314167634Y106743181D02*
X314196206Y106695562D01*
X314624777Y106790800D02*
X314624777Y106076515D01*
X314624777Y106076515D02*
X314596206Y105933658D01*
X314596206Y105933658D02*
X314539063Y105838420D01*
X314539063Y105838420D02*
X314453349Y105790800D01*
X314453349Y105790800D02*
X314396206Y105790800D01*
X315196206Y105790800D02*
X314910492Y105790800D01*
X314910492Y105790800D02*
X314910492Y106790800D01*
X315739063Y105886039D02*
X315710491Y105838420D01*
X315710491Y105838420D02*
X315624777Y105790800D01*
X315624777Y105790800D02*
X315567634Y105790800D01*
X315567634Y105790800D02*
X315481920Y105838420D01*
X315481920Y105838420D02*
X315424777Y105933658D01*
X315424777Y105933658D02*
X315396206Y106028896D01*
X315396206Y106028896D02*
X315367634Y106219372D01*
X315367634Y106219372D02*
X315367634Y106362229D01*
X315367634Y106362229D02*
X315396206Y106552705D01*
X315396206Y106552705D02*
X315424777Y106647943D01*
X315424777Y106647943D02*
X315481920Y106743181D01*
X315481920Y106743181D02*
X315567634Y106790800D01*
X315567634Y106790800D02*
X315624777Y106790800D01*
X315624777Y106790800D02*
X315710491Y106743181D01*
X315710491Y106743181D02*
X315739063Y106695562D01*
D11*
X137672530Y107517542D02*
X139005863Y104517542D01*
X139005863Y104517542D02*
X140339197Y107517542D01*
X143196339Y104660400D02*
X142815387Y104517542D01*
X142815387Y104517542D02*
X142053482Y104517542D01*
X142053482Y104517542D02*
X141672529Y104660400D01*
X141672529Y104660400D02*
X141482053Y104946114D01*
X141482053Y104946114D02*
X141482053Y106088971D01*
X141482053Y106088971D02*
X141672529Y106374685D01*
X141672529Y106374685D02*
X142053482Y106517542D01*
X142053482Y106517542D02*
X142815387Y106517542D01*
X142815387Y106517542D02*
X143196339Y106374685D01*
X143196339Y106374685D02*
X143386815Y106088971D01*
X143386815Y106088971D02*
X143386815Y105803257D01*
X143386815Y105803257D02*
X141482053Y105517542D01*
X145101100Y104517542D02*
X145101100Y106517542D01*
X145101100Y105946114D02*
X145291577Y106231828D01*
X145291577Y106231828D02*
X145482053Y106374685D01*
X145482053Y106374685D02*
X145863005Y106517542D01*
X145863005Y106517542D02*
X146243958Y106517542D01*
X149291576Y104517542D02*
X149291576Y106088971D01*
X149291576Y106088971D02*
X149101100Y106374685D01*
X149101100Y106374685D02*
X148720148Y106517542D01*
X148720148Y106517542D02*
X147958243Y106517542D01*
X147958243Y106517542D02*
X147577290Y106374685D01*
X149291576Y104660400D02*
X148910624Y104517542D01*
X148910624Y104517542D02*
X147958243Y104517542D01*
X147958243Y104517542D02*
X147577290Y104660400D01*
X147577290Y104660400D02*
X147386814Y104946114D01*
X147386814Y104946114D02*
X147386814Y105231828D01*
X147386814Y105231828D02*
X147577290Y105517542D01*
X147577290Y105517542D02*
X147958243Y105660400D01*
X147958243Y105660400D02*
X148910624Y105660400D01*
X148910624Y105660400D02*
X149291576Y105803257D01*
X151005862Y104660400D02*
X151386815Y104517542D01*
X151386815Y104517542D02*
X152148719Y104517542D01*
X152148719Y104517542D02*
X152529672Y104660400D01*
X152529672Y104660400D02*
X152720148Y104946114D01*
X152720148Y104946114D02*
X152720148Y105088971D01*
X152720148Y105088971D02*
X152529672Y105374685D01*
X152529672Y105374685D02*
X152148719Y105517542D01*
X152148719Y105517542D02*
X151577291Y105517542D01*
X151577291Y105517542D02*
X151196338Y105660400D01*
X151196338Y105660400D02*
X151005862Y105946114D01*
X151005862Y105946114D02*
X151005862Y106088971D01*
X151005862Y106088971D02*
X151196338Y106374685D01*
X151196338Y106374685D02*
X151577291Y106517542D01*
X151577291Y106517542D02*
X152148719Y106517542D01*
X152148719Y106517542D02*
X152529672Y106374685D01*
X154434433Y104517542D02*
X154434433Y106517542D01*
X154434433Y107517542D02*
X154243957Y107374685D01*
X154243957Y107374685D02*
X154434433Y107231828D01*
X154434433Y107231828D02*
X154624910Y107374685D01*
X154624910Y107374685D02*
X154434433Y107517542D01*
X154434433Y107517542D02*
X154434433Y107231828D01*
X155767767Y106517542D02*
X157291576Y106517542D01*
X156339195Y107517542D02*
X156339195Y104946114D01*
X156339195Y104946114D02*
X156529672Y104660400D01*
X156529672Y104660400D02*
X156910624Y104517542D01*
X156910624Y104517542D02*
X157291576Y104517542D01*
X158243957Y106517542D02*
X159196338Y104517542D01*
X160148719Y106517542D02*
X159196338Y104517542D01*
X159196338Y104517542D02*
X158815386Y103803257D01*
X158815386Y103803257D02*
X158624909Y103660400D01*
X158624909Y103660400D02*
X158243957Y103517542D01*
X164529671Y107231828D02*
X164720147Y107374685D01*
X164720147Y107374685D02*
X165101100Y107517542D01*
X165101100Y107517542D02*
X166053481Y107517542D01*
X166053481Y107517542D02*
X166434433Y107374685D01*
X166434433Y107374685D02*
X166624909Y107231828D01*
X166624909Y107231828D02*
X166815386Y106946114D01*
X166815386Y106946114D02*
X166815386Y106660400D01*
X166815386Y106660400D02*
X166624909Y106231828D01*
X166624909Y106231828D02*
X164339195Y104517542D01*
X164339195Y104517542D02*
X166815386Y104517542D01*
X168529671Y104803257D02*
X168720148Y104660400D01*
X168720148Y104660400D02*
X168529671Y104517542D01*
X168529671Y104517542D02*
X168339195Y104660400D01*
X168339195Y104660400D02*
X168529671Y104803257D01*
X168529671Y104803257D02*
X168529671Y104517542D01*
X172529672Y104517542D02*
X170243957Y104517542D01*
X171386814Y104517542D02*
X171386814Y107517542D01*
X171386814Y107517542D02*
X171005862Y107088971D01*
X171005862Y107088971D02*
X170624910Y106803257D01*
X170624910Y106803257D02*
X170243957Y106660400D01*
D12*
%TO.C,U6*%
X82990416Y86668990D02*
X82657083Y86668990D01*
X82657083Y86145180D02*
X82657083Y87145180D01*
X82657083Y87145180D02*
X83133273Y87145180D01*
X83418988Y87145180D02*
X84038035Y87145180D01*
X84038035Y87145180D02*
X83704702Y86764228D01*
X83704702Y86764228D02*
X83847559Y86764228D01*
X83847559Y86764228D02*
X83942797Y86716609D01*
X83942797Y86716609D02*
X83990416Y86668990D01*
X83990416Y86668990D02*
X84038035Y86573752D01*
X84038035Y86573752D02*
X84038035Y86335657D01*
X84038035Y86335657D02*
X83990416Y86240419D01*
X83990416Y86240419D02*
X83942797Y86192800D01*
X83942797Y86192800D02*
X83847559Y86145180D01*
X83847559Y86145180D02*
X83561845Y86145180D01*
X83561845Y86145180D02*
X83466607Y86192800D01*
X83466607Y86192800D02*
X83418988Y86240419D01*
%TO.C,U24*%
X93086845Y68095180D02*
X92610655Y68095180D01*
X92610655Y68095180D02*
X92563036Y67618990D01*
X92563036Y67618990D02*
X92610655Y67666609D01*
X92610655Y67666609D02*
X92705893Y67714228D01*
X92705893Y67714228D02*
X92943988Y67714228D01*
X92943988Y67714228D02*
X93039226Y67666609D01*
X93039226Y67666609D02*
X93086845Y67618990D01*
X93086845Y67618990D02*
X93134464Y67523752D01*
X93134464Y67523752D02*
X93134464Y67285657D01*
X93134464Y67285657D02*
X93086845Y67190419D01*
X93086845Y67190419D02*
X93039226Y67142800D01*
X93039226Y67142800D02*
X92943988Y67095180D01*
X92943988Y67095180D02*
X92705893Y67095180D01*
X92705893Y67095180D02*
X92610655Y67142800D01*
X92610655Y67142800D02*
X92563036Y67190419D01*
%TO.C,U63*%
X202433869Y29042800D02*
X202433869Y28995180D01*
X202433869Y28995180D02*
X202386250Y28899942D01*
X202386250Y28899942D02*
X202338631Y28852323D01*
X202386250Y29614228D02*
X202433869Y29566609D01*
X202433869Y29566609D02*
X202386250Y29518990D01*
X202386250Y29518990D02*
X202338631Y29566609D01*
X202338631Y29566609D02*
X202386250Y29614228D01*
X202386250Y29614228D02*
X202386250Y29518990D01*
%TO.C,U79*%
X300874940Y10230895D02*
X301351130Y10230895D01*
X300779702Y9945180D02*
X301113035Y10945180D01*
X301113035Y10945180D02*
X301446368Y9945180D01*
X301779702Y9945180D02*
X301779702Y10611847D01*
X301779702Y10421371D02*
X301827321Y10516609D01*
X301827321Y10516609D02*
X301874940Y10564228D01*
X301874940Y10564228D02*
X301970178Y10611847D01*
X301970178Y10611847D02*
X302065416Y10611847D01*
X302398750Y10945180D02*
X302398750Y10135657D01*
X302398750Y10135657D02*
X302446369Y10040419D01*
X302446369Y10040419D02*
X302493988Y9992800D01*
X302493988Y9992800D02*
X302589226Y9945180D01*
X302589226Y9945180D02*
X302779702Y9945180D01*
X302779702Y9945180D02*
X302874940Y9992800D01*
X302874940Y9992800D02*
X302922559Y10040419D01*
X302922559Y10040419D02*
X302970178Y10135657D01*
X302970178Y10135657D02*
X302970178Y10945180D01*
X303446369Y10611847D02*
X303446369Y9611847D01*
X303446369Y10564228D02*
X303541607Y10611847D01*
X303541607Y10611847D02*
X303732083Y10611847D01*
X303732083Y10611847D02*
X303827321Y10564228D01*
X303827321Y10564228D02*
X303874940Y10516609D01*
X303874940Y10516609D02*
X303922559Y10421371D01*
X303922559Y10421371D02*
X303922559Y10135657D01*
X303922559Y10135657D02*
X303874940Y10040419D01*
X303874940Y10040419D02*
X303827321Y9992800D01*
X303827321Y9992800D02*
X303732083Y9945180D01*
X303732083Y9945180D02*
X303541607Y9945180D01*
X303541607Y9945180D02*
X303446369Y9992800D01*
%TO.C,U76*%
X211863631Y10040419D02*
X211911250Y9992800D01*
X211911250Y9992800D02*
X211863631Y9945180D01*
X211863631Y9945180D02*
X211816012Y9992800D01*
X211816012Y9992800D02*
X211863631Y10040419D01*
X211863631Y10040419D02*
X211863631Y9945180D01*
X211673155Y10897561D02*
X211768393Y10945180D01*
X211768393Y10945180D02*
X212006488Y10945180D01*
X212006488Y10945180D02*
X212101726Y10897561D01*
X212101726Y10897561D02*
X212149345Y10802323D01*
X212149345Y10802323D02*
X212149345Y10707085D01*
X212149345Y10707085D02*
X212101726Y10611847D01*
X212101726Y10611847D02*
X212054107Y10564228D01*
X212054107Y10564228D02*
X211958869Y10516609D01*
X211958869Y10516609D02*
X211911250Y10468990D01*
X211911250Y10468990D02*
X211863631Y10373752D01*
X211863631Y10373752D02*
X211863631Y10326133D01*
%TO.C,U82*%
X46938332Y-9104819D02*
X46462142Y-9104819D01*
X46462142Y-9104819D02*
X46462142Y-8104819D01*
X47224047Y-8819104D02*
X47700237Y-8819104D01*
X47128809Y-9104819D02*
X47462142Y-8104819D01*
X47462142Y-8104819D02*
X47795475Y-9104819D01*
X48271666Y-9104819D02*
X48176428Y-9057200D01*
X48176428Y-9057200D02*
X48128809Y-8961961D01*
X48128809Y-8961961D02*
X48128809Y-8104819D01*
X48509762Y-8438152D02*
X48890714Y-8438152D01*
X48652619Y-8104819D02*
X48652619Y-8961961D01*
X48652619Y-8961961D02*
X48700238Y-9057200D01*
X48700238Y-9057200D02*
X48795476Y-9104819D01*
X48795476Y-9104819D02*
X48890714Y-9104819D01*
%TO.C,U44*%
X159523750Y48045180D02*
X159523750Y49045180D01*
%TO.C,U90*%
X212482975Y-9104819D02*
X212149642Y-8628628D01*
X211911547Y-9104819D02*
X211911547Y-8104819D01*
X211911547Y-8104819D02*
X212292499Y-8104819D01*
X212292499Y-8104819D02*
X212387737Y-8152438D01*
X212387737Y-8152438D02*
X212435356Y-8200057D01*
X212435356Y-8200057D02*
X212482975Y-8295295D01*
X212482975Y-8295295D02*
X212482975Y-8438152D01*
X212482975Y-8438152D02*
X212435356Y-8533390D01*
X212435356Y-8533390D02*
X212387737Y-8581009D01*
X212387737Y-8581009D02*
X212292499Y-8628628D01*
X212292499Y-8628628D02*
X211911547Y-8628628D01*
X212863928Y-9057200D02*
X213006785Y-9104819D01*
X213006785Y-9104819D02*
X213244880Y-9104819D01*
X213244880Y-9104819D02*
X213340118Y-9057200D01*
X213340118Y-9057200D02*
X213387737Y-9009580D01*
X213387737Y-9009580D02*
X213435356Y-8914342D01*
X213435356Y-8914342D02*
X213435356Y-8819104D01*
X213435356Y-8819104D02*
X213387737Y-8723866D01*
X213387737Y-8723866D02*
X213340118Y-8676247D01*
X213340118Y-8676247D02*
X213244880Y-8628628D01*
X213244880Y-8628628D02*
X213054404Y-8581009D01*
X213054404Y-8581009D02*
X212959166Y-8533390D01*
X212959166Y-8533390D02*
X212911547Y-8485771D01*
X212911547Y-8485771D02*
X212863928Y-8390533D01*
X212863928Y-8390533D02*
X212863928Y-8295295D01*
X212863928Y-8295295D02*
X212911547Y-8200057D01*
X212911547Y-8200057D02*
X212959166Y-8152438D01*
X212959166Y-8152438D02*
X213054404Y-8104819D01*
X213054404Y-8104819D02*
X213292499Y-8104819D01*
X213292499Y-8104819D02*
X213435356Y-8152438D01*
X214292499Y-8438152D02*
X214292499Y-9104819D01*
X213863928Y-8438152D02*
X213863928Y-8961961D01*
X213863928Y-8961961D02*
X213911547Y-9057200D01*
X213911547Y-9057200D02*
X214006785Y-9104819D01*
X214006785Y-9104819D02*
X214149642Y-9104819D01*
X214149642Y-9104819D02*
X214244880Y-9057200D01*
X214244880Y-9057200D02*
X214292499Y-9009580D01*
X214768690Y-8438152D02*
X214768690Y-9438152D01*
X214768690Y-8485771D02*
X214863928Y-8438152D01*
X214863928Y-8438152D02*
X215054404Y-8438152D01*
X215054404Y-8438152D02*
X215149642Y-8485771D01*
X215149642Y-8485771D02*
X215197261Y-8533390D01*
X215197261Y-8533390D02*
X215244880Y-8628628D01*
X215244880Y-8628628D02*
X215244880Y-8914342D01*
X215244880Y-8914342D02*
X215197261Y-9009580D01*
X215197261Y-9009580D02*
X215149642Y-9057200D01*
X215149642Y-9057200D02*
X215054404Y-9104819D01*
X215054404Y-9104819D02*
X214863928Y-9104819D01*
X214863928Y-9104819D02*
X214768690Y-9057200D01*
X216054404Y-9057200D02*
X215959166Y-9104819D01*
X215959166Y-9104819D02*
X215768690Y-9104819D01*
X215768690Y-9104819D02*
X215673452Y-9057200D01*
X215673452Y-9057200D02*
X215625833Y-8961961D01*
X215625833Y-8961961D02*
X215625833Y-8581009D01*
X215625833Y-8581009D02*
X215673452Y-8485771D01*
X215673452Y-8485771D02*
X215768690Y-8438152D01*
X215768690Y-8438152D02*
X215959166Y-8438152D01*
X215959166Y-8438152D02*
X216054404Y-8485771D01*
X216054404Y-8485771D02*
X216102023Y-8581009D01*
X216102023Y-8581009D02*
X216102023Y-8676247D01*
X216102023Y-8676247D02*
X215625833Y-8771485D01*
X216530595Y-9104819D02*
X216530595Y-8438152D01*
X216530595Y-8628628D02*
X216578214Y-8533390D01*
X216578214Y-8533390D02*
X216625833Y-8485771D01*
X216625833Y-8485771D02*
X216721071Y-8438152D01*
X216721071Y-8438152D02*
X216816309Y-8438152D01*
%TO.C,U15*%
X263489226Y86668990D02*
X263155893Y86668990D01*
X263155893Y86145180D02*
X263155893Y87145180D01*
X263155893Y87145180D02*
X263632083Y87145180D01*
X264536845Y86145180D02*
X263965417Y86145180D01*
X264251131Y86145180D02*
X264251131Y87145180D01*
X264251131Y87145180D02*
X264155893Y87002323D01*
X264155893Y87002323D02*
X264060655Y86907085D01*
X264060655Y86907085D02*
X263965417Y86859466D01*
X264917798Y87049942D02*
X264965417Y87097561D01*
X264965417Y87097561D02*
X265060655Y87145180D01*
X265060655Y87145180D02*
X265298750Y87145180D01*
X265298750Y87145180D02*
X265393988Y87097561D01*
X265393988Y87097561D02*
X265441607Y87049942D01*
X265441607Y87049942D02*
X265489226Y86954704D01*
X265489226Y86954704D02*
X265489226Y86859466D01*
X265489226Y86859466D02*
X265441607Y86716609D01*
X265441607Y86716609D02*
X264870179Y86145180D01*
X264870179Y86145180D02*
X265489226Y86145180D01*
%TO.C,U19*%
X-2496487Y68142800D02*
X-2353630Y67999942D01*
%TO.C,U34*%
X300565417Y67095180D02*
X300565417Y68095180D01*
X300565417Y67618990D02*
X301136845Y67618990D01*
X301136845Y67095180D02*
X301136845Y68095180D01*
X301755893Y67095180D02*
X301660655Y67142800D01*
X301660655Y67142800D02*
X301613036Y67190419D01*
X301613036Y67190419D02*
X301565417Y67285657D01*
X301565417Y67285657D02*
X301565417Y67571371D01*
X301565417Y67571371D02*
X301613036Y67666609D01*
X301613036Y67666609D02*
X301660655Y67714228D01*
X301660655Y67714228D02*
X301755893Y67761847D01*
X301755893Y67761847D02*
X301898750Y67761847D01*
X301898750Y67761847D02*
X301993988Y67714228D01*
X301993988Y67714228D02*
X302041607Y67666609D01*
X302041607Y67666609D02*
X302089226Y67571371D01*
X302089226Y67571371D02*
X302089226Y67285657D01*
X302089226Y67285657D02*
X302041607Y67190419D01*
X302041607Y67190419D02*
X301993988Y67142800D01*
X301993988Y67142800D02*
X301898750Y67095180D01*
X301898750Y67095180D02*
X301755893Y67095180D01*
X302517798Y67095180D02*
X302517798Y67761847D01*
X302517798Y67666609D02*
X302565417Y67714228D01*
X302565417Y67714228D02*
X302660655Y67761847D01*
X302660655Y67761847D02*
X302803512Y67761847D01*
X302803512Y67761847D02*
X302898750Y67714228D01*
X302898750Y67714228D02*
X302946369Y67618990D01*
X302946369Y67618990D02*
X302946369Y67095180D01*
X302946369Y67618990D02*
X302993988Y67714228D01*
X302993988Y67714228D02*
X303089226Y67761847D01*
X303089226Y67761847D02*
X303232083Y67761847D01*
X303232083Y67761847D02*
X303327322Y67714228D01*
X303327322Y67714228D02*
X303374941Y67618990D01*
X303374941Y67618990D02*
X303374941Y67095180D01*
X304232083Y67142800D02*
X304136845Y67095180D01*
X304136845Y67095180D02*
X303946369Y67095180D01*
X303946369Y67095180D02*
X303851131Y67142800D01*
X303851131Y67142800D02*
X303803512Y67238038D01*
X303803512Y67238038D02*
X303803512Y67618990D01*
X303803512Y67618990D02*
X303851131Y67714228D01*
X303851131Y67714228D02*
X303946369Y67761847D01*
X303946369Y67761847D02*
X304136845Y67761847D01*
X304136845Y67761847D02*
X304232083Y67714228D01*
X304232083Y67714228D02*
X304279702Y67618990D01*
X304279702Y67618990D02*
X304279702Y67523752D01*
X304279702Y67523752D02*
X303803512Y67428514D01*
%TO.C,U65*%
X251440119Y29518990D02*
X251773452Y29518990D01*
X251916309Y28995180D02*
X251440119Y28995180D01*
X251440119Y28995180D02*
X251440119Y29995180D01*
X251440119Y29995180D02*
X251916309Y29995180D01*
X252344881Y29661847D02*
X252344881Y28995180D01*
X252344881Y29566609D02*
X252392500Y29614228D01*
X252392500Y29614228D02*
X252487738Y29661847D01*
X252487738Y29661847D02*
X252630595Y29661847D01*
X252630595Y29661847D02*
X252725833Y29614228D01*
X252725833Y29614228D02*
X252773452Y29518990D01*
X252773452Y29518990D02*
X252773452Y28995180D01*
X253106786Y29661847D02*
X253487738Y29661847D01*
X253249643Y29995180D02*
X253249643Y29138038D01*
X253249643Y29138038D02*
X253297262Y29042800D01*
X253297262Y29042800D02*
X253392500Y28995180D01*
X253392500Y28995180D02*
X253487738Y28995180D01*
%TO.C,U11*%
X183002916Y86668990D02*
X182669583Y86668990D01*
X182669583Y86145180D02*
X182669583Y87145180D01*
X182669583Y87145180D02*
X183145773Y87145180D01*
X183669583Y86716609D02*
X183574345Y86764228D01*
X183574345Y86764228D02*
X183526726Y86811847D01*
X183526726Y86811847D02*
X183479107Y86907085D01*
X183479107Y86907085D02*
X183479107Y86954704D01*
X183479107Y86954704D02*
X183526726Y87049942D01*
X183526726Y87049942D02*
X183574345Y87097561D01*
X183574345Y87097561D02*
X183669583Y87145180D01*
X183669583Y87145180D02*
X183860059Y87145180D01*
X183860059Y87145180D02*
X183955297Y87097561D01*
X183955297Y87097561D02*
X184002916Y87049942D01*
X184002916Y87049942D02*
X184050535Y86954704D01*
X184050535Y86954704D02*
X184050535Y86907085D01*
X184050535Y86907085D02*
X184002916Y86811847D01*
X184002916Y86811847D02*
X183955297Y86764228D01*
X183955297Y86764228D02*
X183860059Y86716609D01*
X183860059Y86716609D02*
X183669583Y86716609D01*
X183669583Y86716609D02*
X183574345Y86668990D01*
X183574345Y86668990D02*
X183526726Y86621371D01*
X183526726Y86621371D02*
X183479107Y86526133D01*
X183479107Y86526133D02*
X183479107Y86335657D01*
X183479107Y86335657D02*
X183526726Y86240419D01*
X183526726Y86240419D02*
X183574345Y86192800D01*
X183574345Y86192800D02*
X183669583Y86145180D01*
X183669583Y86145180D02*
X183860059Y86145180D01*
X183860059Y86145180D02*
X183955297Y86192800D01*
X183955297Y86192800D02*
X184002916Y86240419D01*
X184002916Y86240419D02*
X184050535Y86335657D01*
X184050535Y86335657D02*
X184050535Y86526133D01*
X184050535Y86526133D02*
X184002916Y86621371D01*
X184002916Y86621371D02*
X183955297Y86668990D01*
X183955297Y86668990D02*
X183860059Y86716609D01*
%TO.C,U91*%
X237795476Y-8581009D02*
X237462143Y-8581009D01*
X237462143Y-9104819D02*
X237462143Y-8104819D01*
X237462143Y-8104819D02*
X237938333Y-8104819D01*
X238319286Y-8438152D02*
X238319286Y-9104819D01*
X238319286Y-8533390D02*
X238366905Y-8485771D01*
X238366905Y-8485771D02*
X238462143Y-8438152D01*
X238462143Y-8438152D02*
X238605000Y-8438152D01*
X238605000Y-8438152D02*
X238700238Y-8485771D01*
X238700238Y-8485771D02*
X238747857Y-8581009D01*
X238747857Y-8581009D02*
X238747857Y-9104819D01*
%TO.C,U39*%
X64059464Y48568990D02*
X64392797Y48568990D01*
X64535654Y48045180D02*
X64059464Y48045180D01*
X64059464Y48045180D02*
X64059464Y49045180D01*
X64059464Y49045180D02*
X64535654Y49045180D01*
%TO.C,U92*%
X260869880Y-9104819D02*
X260536547Y-8628628D01*
X260298452Y-9104819D02*
X260298452Y-8104819D01*
X260298452Y-8104819D02*
X260679404Y-8104819D01*
X260679404Y-8104819D02*
X260774642Y-8152438D01*
X260774642Y-8152438D02*
X260822261Y-8200057D01*
X260822261Y-8200057D02*
X260869880Y-8295295D01*
X260869880Y-8295295D02*
X260869880Y-8438152D01*
X260869880Y-8438152D02*
X260822261Y-8533390D01*
X260822261Y-8533390D02*
X260774642Y-8581009D01*
X260774642Y-8581009D02*
X260679404Y-8628628D01*
X260679404Y-8628628D02*
X260298452Y-8628628D01*
X261869880Y-9009580D02*
X261822261Y-9057200D01*
X261822261Y-9057200D02*
X261679404Y-9104819D01*
X261679404Y-9104819D02*
X261584166Y-9104819D01*
X261584166Y-9104819D02*
X261441309Y-9057200D01*
X261441309Y-9057200D02*
X261346071Y-8961961D01*
X261346071Y-8961961D02*
X261298452Y-8866723D01*
X261298452Y-8866723D02*
X261250833Y-8676247D01*
X261250833Y-8676247D02*
X261250833Y-8533390D01*
X261250833Y-8533390D02*
X261298452Y-8342914D01*
X261298452Y-8342914D02*
X261346071Y-8247676D01*
X261346071Y-8247676D02*
X261441309Y-8152438D01*
X261441309Y-8152438D02*
X261584166Y-8104819D01*
X261584166Y-8104819D02*
X261679404Y-8104819D01*
X261679404Y-8104819D02*
X261822261Y-8152438D01*
X261822261Y-8152438D02*
X261869880Y-8200057D01*
X262155595Y-8438152D02*
X262536547Y-8438152D01*
X262298452Y-8104819D02*
X262298452Y-8961961D01*
X262298452Y-8961961D02*
X262346071Y-9057200D01*
X262346071Y-9057200D02*
X262441309Y-9104819D01*
X262441309Y-9104819D02*
X262536547Y-9104819D01*
X262869881Y-9104819D02*
X262869881Y-8438152D01*
X262869881Y-8628628D02*
X262917500Y-8533390D01*
X262917500Y-8533390D02*
X262965119Y-8485771D01*
X262965119Y-8485771D02*
X263060357Y-8438152D01*
X263060357Y-8438152D02*
X263155595Y-8438152D01*
X263631786Y-9104819D02*
X263536548Y-9057200D01*
X263536548Y-9057200D02*
X263488929Y-8961961D01*
X263488929Y-8961961D02*
X263488929Y-8104819D01*
%TO.C,U22*%
X54415417Y68095180D02*
X55034464Y68095180D01*
X55034464Y68095180D02*
X54701131Y67714228D01*
X54701131Y67714228D02*
X54843988Y67714228D01*
X54843988Y67714228D02*
X54939226Y67666609D01*
X54939226Y67666609D02*
X54986845Y67618990D01*
X54986845Y67618990D02*
X55034464Y67523752D01*
X55034464Y67523752D02*
X55034464Y67285657D01*
X55034464Y67285657D02*
X54986845Y67190419D01*
X54986845Y67190419D02*
X54939226Y67142800D01*
X54939226Y67142800D02*
X54843988Y67095180D01*
X54843988Y67095180D02*
X54558274Y67095180D01*
X54558274Y67095180D02*
X54463036Y67142800D01*
X54463036Y67142800D02*
X54415417Y67190419D01*
%TO.C,U55*%
X49700536Y29042800D02*
X49843393Y28995180D01*
X49843393Y28995180D02*
X50081488Y28995180D01*
X50081488Y28995180D02*
X50176726Y29042800D01*
X50176726Y29042800D02*
X50224345Y29090419D01*
X50224345Y29090419D02*
X50271964Y29185657D01*
X50271964Y29185657D02*
X50271964Y29280895D01*
X50271964Y29280895D02*
X50224345Y29376133D01*
X50224345Y29376133D02*
X50176726Y29423752D01*
X50176726Y29423752D02*
X50081488Y29471371D01*
X50081488Y29471371D02*
X49891012Y29518990D01*
X49891012Y29518990D02*
X49795774Y29566609D01*
X49795774Y29566609D02*
X49748155Y29614228D01*
X49748155Y29614228D02*
X49700536Y29709466D01*
X49700536Y29709466D02*
X49700536Y29804704D01*
X49700536Y29804704D02*
X49748155Y29899942D01*
X49748155Y29899942D02*
X49795774Y29947561D01*
X49795774Y29947561D02*
X49891012Y29995180D01*
X49891012Y29995180D02*
X50129107Y29995180D01*
X50129107Y29995180D02*
X50271964Y29947561D01*
%TO.C,U7*%
X102040416Y86668990D02*
X101707083Y86668990D01*
X101707083Y86145180D02*
X101707083Y87145180D01*
X101707083Y87145180D02*
X102183273Y87145180D01*
X102992797Y86811847D02*
X102992797Y86145180D01*
X102754702Y87192800D02*
X102516607Y86478514D01*
X102516607Y86478514D02*
X103135654Y86478514D01*
%TO.C,U31*%
X225817798Y67618990D02*
X226579703Y67618990D01*
X226579703Y67333276D02*
X225817798Y67333276D01*
%TO.C,H8*%
X139731845Y75373305D02*
X139731845Y76373305D01*
X139731845Y75897115D02*
X140303273Y75897115D01*
X140303273Y75373305D02*
X140303273Y76373305D01*
X140922321Y75944734D02*
X140827083Y75992353D01*
X140827083Y75992353D02*
X140779464Y76039972D01*
X140779464Y76039972D02*
X140731845Y76135210D01*
X140731845Y76135210D02*
X140731845Y76182829D01*
X140731845Y76182829D02*
X140779464Y76278067D01*
X140779464Y76278067D02*
X140827083Y76325686D01*
X140827083Y76325686D02*
X140922321Y76373305D01*
X140922321Y76373305D02*
X141112797Y76373305D01*
X141112797Y76373305D02*
X141208035Y76325686D01*
X141208035Y76325686D02*
X141255654Y76278067D01*
X141255654Y76278067D02*
X141303273Y76182829D01*
X141303273Y76182829D02*
X141303273Y76135210D01*
X141303273Y76135210D02*
X141255654Y76039972D01*
X141255654Y76039972D02*
X141208035Y75992353D01*
X141208035Y75992353D02*
X141112797Y75944734D01*
X141112797Y75944734D02*
X140922321Y75944734D01*
X140922321Y75944734D02*
X140827083Y75897115D01*
X140827083Y75897115D02*
X140779464Y75849496D01*
X140779464Y75849496D02*
X140731845Y75754258D01*
X140731845Y75754258D02*
X140731845Y75563782D01*
X140731845Y75563782D02*
X140779464Y75468544D01*
X140779464Y75468544D02*
X140827083Y75420925D01*
X140827083Y75420925D02*
X140922321Y75373305D01*
X140922321Y75373305D02*
X141112797Y75373305D01*
X141112797Y75373305D02*
X141208035Y75420925D01*
X141208035Y75420925D02*
X141255654Y75468544D01*
X141255654Y75468544D02*
X141303273Y75563782D01*
X141303273Y75563782D02*
X141303273Y75754258D01*
X141303273Y75754258D02*
X141255654Y75849496D01*
X141255654Y75849496D02*
X141208035Y75897115D01*
X141208035Y75897115D02*
X141112797Y75944734D01*
%TO.C,H6*%
X-8261904Y109245180D02*
X-8261904Y110245180D01*
X-8261904Y109768990D02*
X-7690476Y109768990D01*
X-7690476Y109245180D02*
X-7690476Y110245180D01*
X-6785714Y110245180D02*
X-6976190Y110245180D01*
X-6976190Y110245180D02*
X-7071428Y110197561D01*
X-7071428Y110197561D02*
X-7119047Y110149942D01*
X-7119047Y110149942D02*
X-7214285Y110007085D01*
X-7214285Y110007085D02*
X-7261904Y109816609D01*
X-7261904Y109816609D02*
X-7261904Y109435657D01*
X-7261904Y109435657D02*
X-7214285Y109340419D01*
X-7214285Y109340419D02*
X-7166666Y109292800D01*
X-7166666Y109292800D02*
X-7071428Y109245180D01*
X-7071428Y109245180D02*
X-6880952Y109245180D01*
X-6880952Y109245180D02*
X-6785714Y109292800D01*
X-6785714Y109292800D02*
X-6738095Y109340419D01*
X-6738095Y109340419D02*
X-6690476Y109435657D01*
X-6690476Y109435657D02*
X-6690476Y109673752D01*
X-6690476Y109673752D02*
X-6738095Y109768990D01*
X-6738095Y109768990D02*
X-6785714Y109816609D01*
X-6785714Y109816609D02*
X-6880952Y109864228D01*
X-6880952Y109864228D02*
X-7071428Y109864228D01*
X-7071428Y109864228D02*
X-7166666Y109816609D01*
X-7166666Y109816609D02*
X-7214285Y109768990D01*
X-7214285Y109768990D02*
X-7261904Y109673752D01*
%TO.C,U12*%
X206815416Y86668990D02*
X206482083Y86668990D01*
X206482083Y86145180D02*
X206482083Y87145180D01*
X206482083Y87145180D02*
X206958273Y87145180D01*
X207386845Y86145180D02*
X207577321Y86145180D01*
X207577321Y86145180D02*
X207672559Y86192800D01*
X207672559Y86192800D02*
X207720178Y86240419D01*
X207720178Y86240419D02*
X207815416Y86383276D01*
X207815416Y86383276D02*
X207863035Y86573752D01*
X207863035Y86573752D02*
X207863035Y86954704D01*
X207863035Y86954704D02*
X207815416Y87049942D01*
X207815416Y87049942D02*
X207767797Y87097561D01*
X207767797Y87097561D02*
X207672559Y87145180D01*
X207672559Y87145180D02*
X207482083Y87145180D01*
X207482083Y87145180D02*
X207386845Y87097561D01*
X207386845Y87097561D02*
X207339226Y87049942D01*
X207339226Y87049942D02*
X207291607Y86954704D01*
X207291607Y86954704D02*
X207291607Y86716609D01*
X207291607Y86716609D02*
X207339226Y86621371D01*
X207339226Y86621371D02*
X207386845Y86573752D01*
X207386845Y86573752D02*
X207482083Y86526133D01*
X207482083Y86526133D02*
X207672559Y86526133D01*
X207672559Y86526133D02*
X207767797Y86573752D01*
X207767797Y86573752D02*
X207815416Y86621371D01*
X207815416Y86621371D02*
X207863035Y86716609D01*
%TO.C,U33*%
X282491607Y67095180D02*
X282491607Y68095180D01*
X282967797Y67761847D02*
X282967797Y67095180D01*
X282967797Y67666609D02*
X283015416Y67714228D01*
X283015416Y67714228D02*
X283110654Y67761847D01*
X283110654Y67761847D02*
X283253511Y67761847D01*
X283253511Y67761847D02*
X283348749Y67714228D01*
X283348749Y67714228D02*
X283396368Y67618990D01*
X283396368Y67618990D02*
X283396368Y67095180D01*
X283824940Y67142800D02*
X283920178Y67095180D01*
X283920178Y67095180D02*
X284110654Y67095180D01*
X284110654Y67095180D02*
X284205892Y67142800D01*
X284205892Y67142800D02*
X284253511Y67238038D01*
X284253511Y67238038D02*
X284253511Y67285657D01*
X284253511Y67285657D02*
X284205892Y67380895D01*
X284205892Y67380895D02*
X284110654Y67428514D01*
X284110654Y67428514D02*
X283967797Y67428514D01*
X283967797Y67428514D02*
X283872559Y67476133D01*
X283872559Y67476133D02*
X283824940Y67571371D01*
X283824940Y67571371D02*
X283824940Y67618990D01*
X283824940Y67618990D02*
X283872559Y67714228D01*
X283872559Y67714228D02*
X283967797Y67761847D01*
X283967797Y67761847D02*
X284110654Y67761847D01*
X284110654Y67761847D02*
X284205892Y67714228D01*
%TO.C,U86*%
X140331190Y-9057200D02*
X140474047Y-9104819D01*
X140474047Y-9104819D02*
X140712142Y-9104819D01*
X140712142Y-9104819D02*
X140807380Y-9057200D01*
X140807380Y-9057200D02*
X140854999Y-9009580D01*
X140854999Y-9009580D02*
X140902618Y-8914342D01*
X140902618Y-8914342D02*
X140902618Y-8819104D01*
X140902618Y-8819104D02*
X140854999Y-8723866D01*
X140854999Y-8723866D02*
X140807380Y-8676247D01*
X140807380Y-8676247D02*
X140712142Y-8628628D01*
X140712142Y-8628628D02*
X140521666Y-8581009D01*
X140521666Y-8581009D02*
X140426428Y-8533390D01*
X140426428Y-8533390D02*
X140378809Y-8485771D01*
X140378809Y-8485771D02*
X140331190Y-8390533D01*
X140331190Y-8390533D02*
X140331190Y-8295295D01*
X140331190Y-8295295D02*
X140378809Y-8200057D01*
X140378809Y-8200057D02*
X140426428Y-8152438D01*
X140426428Y-8152438D02*
X140521666Y-8104819D01*
X140521666Y-8104819D02*
X140759761Y-8104819D01*
X140759761Y-8104819D02*
X140902618Y-8152438D01*
X141331190Y-8438152D02*
X141331190Y-9438152D01*
X141331190Y-8485771D02*
X141426428Y-8438152D01*
X141426428Y-8438152D02*
X141616904Y-8438152D01*
X141616904Y-8438152D02*
X141712142Y-8485771D01*
X141712142Y-8485771D02*
X141759761Y-8533390D01*
X141759761Y-8533390D02*
X141807380Y-8628628D01*
X141807380Y-8628628D02*
X141807380Y-8914342D01*
X141807380Y-8914342D02*
X141759761Y-9009580D01*
X141759761Y-9009580D02*
X141712142Y-9057200D01*
X141712142Y-9057200D02*
X141616904Y-9104819D01*
X141616904Y-9104819D02*
X141426428Y-9104819D01*
X141426428Y-9104819D02*
X141331190Y-9057200D01*
X142664523Y-9104819D02*
X142664523Y-8581009D01*
X142664523Y-8581009D02*
X142616904Y-8485771D01*
X142616904Y-8485771D02*
X142521666Y-8438152D01*
X142521666Y-8438152D02*
X142331190Y-8438152D01*
X142331190Y-8438152D02*
X142235952Y-8485771D01*
X142664523Y-9057200D02*
X142569285Y-9104819D01*
X142569285Y-9104819D02*
X142331190Y-9104819D01*
X142331190Y-9104819D02*
X142235952Y-9057200D01*
X142235952Y-9057200D02*
X142188333Y-8961961D01*
X142188333Y-8961961D02*
X142188333Y-8866723D01*
X142188333Y-8866723D02*
X142235952Y-8771485D01*
X142235952Y-8771485D02*
X142331190Y-8723866D01*
X142331190Y-8723866D02*
X142569285Y-8723866D01*
X142569285Y-8723866D02*
X142664523Y-8676247D01*
X143569285Y-9057200D02*
X143474047Y-9104819D01*
X143474047Y-9104819D02*
X143283571Y-9104819D01*
X143283571Y-9104819D02*
X143188333Y-9057200D01*
X143188333Y-9057200D02*
X143140714Y-9009580D01*
X143140714Y-9009580D02*
X143093095Y-8914342D01*
X143093095Y-8914342D02*
X143093095Y-8628628D01*
X143093095Y-8628628D02*
X143140714Y-8533390D01*
X143140714Y-8533390D02*
X143188333Y-8485771D01*
X143188333Y-8485771D02*
X143283571Y-8438152D01*
X143283571Y-8438152D02*
X143474047Y-8438152D01*
X143474047Y-8438152D02*
X143569285Y-8485771D01*
X144378809Y-9057200D02*
X144283571Y-9104819D01*
X144283571Y-9104819D02*
X144093095Y-9104819D01*
X144093095Y-9104819D02*
X143997857Y-9057200D01*
X143997857Y-9057200D02*
X143950238Y-8961961D01*
X143950238Y-8961961D02*
X143950238Y-8581009D01*
X143950238Y-8581009D02*
X143997857Y-8485771D01*
X143997857Y-8485771D02*
X144093095Y-8438152D01*
X144093095Y-8438152D02*
X144283571Y-8438152D01*
X144283571Y-8438152D02*
X144378809Y-8485771D01*
X144378809Y-8485771D02*
X144426428Y-8581009D01*
X144426428Y-8581009D02*
X144426428Y-8676247D01*
X144426428Y-8676247D02*
X143950238Y-8771485D01*
X145283571Y-8438152D02*
X145283571Y-9104819D01*
X145045476Y-8057200D02*
X144807381Y-8771485D01*
X144807381Y-8771485D02*
X145426428Y-8771485D01*
%TO.C,U48*%
X235533274Y47711847D02*
X235771369Y47711847D01*
X235771369Y47711847D02*
X235771369Y49140419D01*
X235771369Y49140419D02*
X235533274Y49140419D01*
%TO.C,U80*%
X-1067619Y-9104819D02*
X-1543809Y-9104819D01*
X-1543809Y-9104819D02*
X-1543809Y-8104819D01*
X-162857Y-9009580D02*
X-210476Y-9057200D01*
X-210476Y-9057200D02*
X-353333Y-9104819D01*
X-353333Y-9104819D02*
X-448571Y-9104819D01*
X-448571Y-9104819D02*
X-591428Y-9057200D01*
X-591428Y-9057200D02*
X-686666Y-8961961D01*
X-686666Y-8961961D02*
X-734285Y-8866723D01*
X-734285Y-8866723D02*
X-781904Y-8676247D01*
X-781904Y-8676247D02*
X-781904Y-8533390D01*
X-781904Y-8533390D02*
X-734285Y-8342914D01*
X-734285Y-8342914D02*
X-686666Y-8247676D01*
X-686666Y-8247676D02*
X-591428Y-8152438D01*
X-591428Y-8152438D02*
X-448571Y-8104819D01*
X-448571Y-8104819D02*
X-353333Y-8104819D01*
X-353333Y-8104819D02*
X-210476Y-8152438D01*
X-210476Y-8152438D02*
X-162857Y-8200057D01*
X265714Y-9104819D02*
X265714Y-8438152D01*
X265714Y-8628628D02*
X313333Y-8533390D01*
X313333Y-8533390D02*
X360952Y-8485771D01*
X360952Y-8485771D02*
X456190Y-8438152D01*
X456190Y-8438152D02*
X551428Y-8438152D01*
X741905Y-8438152D02*
X1122857Y-8438152D01*
X884762Y-8104819D02*
X884762Y-8961961D01*
X884762Y-8961961D02*
X932381Y-9057200D01*
X932381Y-9057200D02*
X1027619Y-9104819D01*
X1027619Y-9104819D02*
X1122857Y-9104819D01*
X1599048Y-9104819D02*
X1503810Y-9057200D01*
X1503810Y-9057200D02*
X1456191Y-8961961D01*
X1456191Y-8961961D02*
X1456191Y-8104819D01*
%TO.C,U98*%
X318948749Y9992800D02*
X318853511Y9945180D01*
X318853511Y9945180D02*
X318663035Y9945180D01*
X318663035Y9945180D02*
X318567797Y9992800D01*
X318567797Y9992800D02*
X318520178Y10040419D01*
X318520178Y10040419D02*
X318472559Y10135657D01*
X318472559Y10135657D02*
X318472559Y10421371D01*
X318472559Y10421371D02*
X318520178Y10516609D01*
X318520178Y10516609D02*
X318567797Y10564228D01*
X318567797Y10564228D02*
X318663035Y10611847D01*
X318663035Y10611847D02*
X318853511Y10611847D01*
X318853511Y10611847D02*
X318948749Y10564228D01*
X319805892Y10611847D02*
X319805892Y9945180D01*
X319377321Y10611847D02*
X319377321Y10088038D01*
X319377321Y10088038D02*
X319424940Y9992800D01*
X319424940Y9992800D02*
X319520178Y9945180D01*
X319520178Y9945180D02*
X319663035Y9945180D01*
X319663035Y9945180D02*
X319758273Y9992800D01*
X319758273Y9992800D02*
X319805892Y10040419D01*
X320234464Y9992800D02*
X320329702Y9945180D01*
X320329702Y9945180D02*
X320520178Y9945180D01*
X320520178Y9945180D02*
X320615416Y9992800D01*
X320615416Y9992800D02*
X320663035Y10088038D01*
X320663035Y10088038D02*
X320663035Y10135657D01*
X320663035Y10135657D02*
X320615416Y10230895D01*
X320615416Y10230895D02*
X320520178Y10278514D01*
X320520178Y10278514D02*
X320377321Y10278514D01*
X320377321Y10278514D02*
X320282083Y10326133D01*
X320282083Y10326133D02*
X320234464Y10421371D01*
X320234464Y10421371D02*
X320234464Y10468990D01*
X320234464Y10468990D02*
X320282083Y10564228D01*
X320282083Y10564228D02*
X320377321Y10611847D01*
X320377321Y10611847D02*
X320520178Y10611847D01*
X320520178Y10611847D02*
X320615416Y10564228D01*
X320948750Y10611847D02*
X321329702Y10611847D01*
X321091607Y10945180D02*
X321091607Y10088038D01*
X321091607Y10088038D02*
X321139226Y9992800D01*
X321139226Y9992800D02*
X321234464Y9945180D01*
X321234464Y9945180D02*
X321329702Y9945180D01*
X321805893Y9945180D02*
X321710655Y9992800D01*
X321710655Y9992800D02*
X321663036Y10040419D01*
X321663036Y10040419D02*
X321615417Y10135657D01*
X321615417Y10135657D02*
X321615417Y10421371D01*
X321615417Y10421371D02*
X321663036Y10516609D01*
X321663036Y10516609D02*
X321710655Y10564228D01*
X321710655Y10564228D02*
X321805893Y10611847D01*
X321805893Y10611847D02*
X321948750Y10611847D01*
X321948750Y10611847D02*
X322043988Y10564228D01*
X322043988Y10564228D02*
X322091607Y10516609D01*
X322091607Y10516609D02*
X322139226Y10421371D01*
X322139226Y10421371D02*
X322139226Y10135657D01*
X322139226Y10135657D02*
X322091607Y10040419D01*
X322091607Y10040419D02*
X322043988Y9992800D01*
X322043988Y9992800D02*
X321948750Y9945180D01*
X321948750Y9945180D02*
X321805893Y9945180D01*
X322567798Y9945180D02*
X322567798Y10611847D01*
X322567798Y10516609D02*
X322615417Y10564228D01*
X322615417Y10564228D02*
X322710655Y10611847D01*
X322710655Y10611847D02*
X322853512Y10611847D01*
X322853512Y10611847D02*
X322948750Y10564228D01*
X322948750Y10564228D02*
X322996369Y10468990D01*
X322996369Y10468990D02*
X322996369Y9945180D01*
X322996369Y10468990D02*
X323043988Y10564228D01*
X323043988Y10564228D02*
X323139226Y10611847D01*
X323139226Y10611847D02*
X323282083Y10611847D01*
X323282083Y10611847D02*
X323377322Y10564228D01*
X323377322Y10564228D02*
X323424941Y10468990D01*
X323424941Y10468990D02*
X323424941Y9945180D01*
X324377321Y10945180D02*
X323901131Y10945180D01*
X323901131Y10945180D02*
X323853512Y10468990D01*
X323853512Y10468990D02*
X323901131Y10516609D01*
X323901131Y10516609D02*
X323996369Y10564228D01*
X323996369Y10564228D02*
X324234464Y10564228D01*
X324234464Y10564228D02*
X324329702Y10516609D01*
X324329702Y10516609D02*
X324377321Y10468990D01*
X324377321Y10468990D02*
X324424940Y10373752D01*
X324424940Y10373752D02*
X324424940Y10135657D01*
X324424940Y10135657D02*
X324377321Y10040419D01*
X324377321Y10040419D02*
X324329702Y9992800D01*
X324329702Y9992800D02*
X324234464Y9945180D01*
X324234464Y9945180D02*
X323996369Y9945180D01*
X323996369Y9945180D02*
X323901131Y9992800D01*
X323901131Y9992800D02*
X323853512Y10040419D01*
%TO.C,H2*%
X13525595Y57513930D02*
X13525595Y58513930D01*
X13525595Y58037740D02*
X14097023Y58037740D01*
X14097023Y57513930D02*
X14097023Y58513930D01*
X14525595Y58418692D02*
X14573214Y58466311D01*
X14573214Y58466311D02*
X14668452Y58513930D01*
X14668452Y58513930D02*
X14906547Y58513930D01*
X14906547Y58513930D02*
X15001785Y58466311D01*
X15001785Y58466311D02*
X15049404Y58418692D01*
X15049404Y58418692D02*
X15097023Y58323454D01*
X15097023Y58323454D02*
X15097023Y58228216D01*
X15097023Y58228216D02*
X15049404Y58085359D01*
X15049404Y58085359D02*
X14477976Y57513930D01*
X14477976Y57513930D02*
X15097023Y57513930D01*
%TO.C,U49*%
X259107678Y49140419D02*
X259964821Y47854704D01*
%TO.C,U69*%
X78870773Y10040419D02*
X78823154Y9992800D01*
X78823154Y9992800D02*
X78680297Y9945180D01*
X78680297Y9945180D02*
X78585059Y9945180D01*
X78585059Y9945180D02*
X78442202Y9992800D01*
X78442202Y9992800D02*
X78346964Y10088038D01*
X78346964Y10088038D02*
X78299345Y10183276D01*
X78299345Y10183276D02*
X78251726Y10373752D01*
X78251726Y10373752D02*
X78251726Y10516609D01*
X78251726Y10516609D02*
X78299345Y10707085D01*
X78299345Y10707085D02*
X78346964Y10802323D01*
X78346964Y10802323D02*
X78442202Y10897561D01*
X78442202Y10897561D02*
X78585059Y10945180D01*
X78585059Y10945180D02*
X78680297Y10945180D01*
X78680297Y10945180D02*
X78823154Y10897561D01*
X78823154Y10897561D02*
X78870773Y10849942D01*
%TO.C,U68*%
X59177917Y10945180D02*
X59844583Y9945180D01*
X59844583Y10945180D02*
X59177917Y9945180D01*
%TO.C,U26*%
X130615417Y68095180D02*
X131282083Y68095180D01*
X131282083Y68095180D02*
X130853512Y67095180D01*
%TO.C,U75*%
X192480298Y10611847D02*
X193242203Y10326133D01*
X193242203Y10326133D02*
X192480298Y10040419D01*
%TO.C,U61*%
X164024345Y28995180D02*
X164024345Y29995180D01*
X164595773Y28995180D02*
X164167202Y29566609D01*
X164595773Y29995180D02*
X164024345Y29423752D01*
%TO.C,U21*%
X35413036Y67999942D02*
X35460655Y68047561D01*
X35460655Y68047561D02*
X35555893Y68095180D01*
X35555893Y68095180D02*
X35793988Y68095180D01*
X35793988Y68095180D02*
X35889226Y68047561D01*
X35889226Y68047561D02*
X35936845Y67999942D01*
X35936845Y67999942D02*
X35984464Y67904704D01*
X35984464Y67904704D02*
X35984464Y67809466D01*
X35984464Y67809466D02*
X35936845Y67666609D01*
X35936845Y67666609D02*
X35365417Y67095180D01*
X35365417Y67095180D02*
X35984464Y67095180D01*
%TO.C,U50*%
X282396369Y48045180D02*
X282396369Y49045180D01*
X282396369Y49045180D02*
X282634464Y49045180D01*
X282634464Y49045180D02*
X282777321Y48997561D01*
X282777321Y48997561D02*
X282872559Y48902323D01*
X282872559Y48902323D02*
X282920178Y48807085D01*
X282920178Y48807085D02*
X282967797Y48616609D01*
X282967797Y48616609D02*
X282967797Y48473752D01*
X282967797Y48473752D02*
X282920178Y48283276D01*
X282920178Y48283276D02*
X282872559Y48188038D01*
X282872559Y48188038D02*
X282777321Y48092800D01*
X282777321Y48092800D02*
X282634464Y48045180D01*
X282634464Y48045180D02*
X282396369Y48045180D01*
X283777321Y48092800D02*
X283682083Y48045180D01*
X283682083Y48045180D02*
X283491607Y48045180D01*
X283491607Y48045180D02*
X283396369Y48092800D01*
X283396369Y48092800D02*
X283348750Y48188038D01*
X283348750Y48188038D02*
X283348750Y48568990D01*
X283348750Y48568990D02*
X283396369Y48664228D01*
X283396369Y48664228D02*
X283491607Y48711847D01*
X283491607Y48711847D02*
X283682083Y48711847D01*
X283682083Y48711847D02*
X283777321Y48664228D01*
X283777321Y48664228D02*
X283824940Y48568990D01*
X283824940Y48568990D02*
X283824940Y48473752D01*
X283824940Y48473752D02*
X283348750Y48378514D01*
X284396369Y48045180D02*
X284301131Y48092800D01*
X284301131Y48092800D02*
X284253512Y48188038D01*
X284253512Y48188038D02*
X284253512Y49045180D01*
%TO.C,U45*%
X178478512Y49045180D02*
X178668988Y49045180D01*
X178668988Y49045180D02*
X178764226Y48997561D01*
X178764226Y48997561D02*
X178859464Y48902323D01*
X178859464Y48902323D02*
X178907083Y48711847D01*
X178907083Y48711847D02*
X178907083Y48378514D01*
X178907083Y48378514D02*
X178859464Y48188038D01*
X178859464Y48188038D02*
X178764226Y48092800D01*
X178764226Y48092800D02*
X178668988Y48045180D01*
X178668988Y48045180D02*
X178478512Y48045180D01*
X178478512Y48045180D02*
X178383274Y48092800D01*
X178383274Y48092800D02*
X178288036Y48188038D01*
X178288036Y48188038D02*
X178240417Y48378514D01*
X178240417Y48378514D02*
X178240417Y48711847D01*
X178240417Y48711847D02*
X178288036Y48902323D01*
X178288036Y48902323D02*
X178383274Y48997561D01*
X178383274Y48997561D02*
X178478512Y49045180D01*
%TO.C,U41*%
X102088036Y49045180D02*
X102659464Y49045180D01*
X102373750Y48045180D02*
X102373750Y49045180D01*
%TO.C,H1*%
X11938095Y-254819D02*
X11938095Y745180D01*
X11938095Y268990D02*
X12509523Y268990D01*
X12509523Y-254819D02*
X12509523Y745180D01*
X13509523Y-254819D02*
X12938095Y-254819D01*
X13223809Y-254819D02*
X13223809Y745180D01*
X13223809Y745180D02*
X13128571Y602323D01*
X13128571Y602323D02*
X13033333Y507085D01*
X13033333Y507085D02*
X12938095Y459466D01*
%TO.C,U53*%
X3742499Y29090419D02*
X3694880Y29042800D01*
X3694880Y29042800D02*
X3552023Y28995180D01*
X3552023Y28995180D02*
X3456785Y28995180D01*
X3456785Y28995180D02*
X3313928Y29042800D01*
X3313928Y29042800D02*
X3218690Y29138038D01*
X3218690Y29138038D02*
X3171071Y29233276D01*
X3171071Y29233276D02*
X3123452Y29423752D01*
X3123452Y29423752D02*
X3123452Y29566609D01*
X3123452Y29566609D02*
X3171071Y29757085D01*
X3171071Y29757085D02*
X3218690Y29852323D01*
X3218690Y29852323D02*
X3313928Y29947561D01*
X3313928Y29947561D02*
X3456785Y29995180D01*
X3456785Y29995180D02*
X3552023Y29995180D01*
X3552023Y29995180D02*
X3694880Y29947561D01*
X3694880Y29947561D02*
X3742499Y29899942D01*
X4599642Y28995180D02*
X4599642Y29518990D01*
X4599642Y29518990D02*
X4552023Y29614228D01*
X4552023Y29614228D02*
X4456785Y29661847D01*
X4456785Y29661847D02*
X4266309Y29661847D01*
X4266309Y29661847D02*
X4171071Y29614228D01*
X4599642Y29042800D02*
X4504404Y28995180D01*
X4504404Y28995180D02*
X4266309Y28995180D01*
X4266309Y28995180D02*
X4171071Y29042800D01*
X4171071Y29042800D02*
X4123452Y29138038D01*
X4123452Y29138038D02*
X4123452Y29233276D01*
X4123452Y29233276D02*
X4171071Y29328514D01*
X4171071Y29328514D02*
X4266309Y29376133D01*
X4266309Y29376133D02*
X4504404Y29376133D01*
X4504404Y29376133D02*
X4599642Y29423752D01*
X5075833Y29661847D02*
X5075833Y28661847D01*
X5075833Y29614228D02*
X5171071Y29661847D01*
X5171071Y29661847D02*
X5361547Y29661847D01*
X5361547Y29661847D02*
X5456785Y29614228D01*
X5456785Y29614228D02*
X5504404Y29566609D01*
X5504404Y29566609D02*
X5552023Y29471371D01*
X5552023Y29471371D02*
X5552023Y29185657D01*
X5552023Y29185657D02*
X5504404Y29090419D01*
X5504404Y29090419D02*
X5456785Y29042800D01*
X5456785Y29042800D02*
X5361547Y28995180D01*
X5361547Y28995180D02*
X5171071Y28995180D01*
X5171071Y28995180D02*
X5075833Y29042800D01*
X5932976Y29042800D02*
X6028214Y28995180D01*
X6028214Y28995180D02*
X6218690Y28995180D01*
X6218690Y28995180D02*
X6313928Y29042800D01*
X6313928Y29042800D02*
X6361547Y29138038D01*
X6361547Y29138038D02*
X6361547Y29185657D01*
X6361547Y29185657D02*
X6313928Y29280895D01*
X6313928Y29280895D02*
X6218690Y29328514D01*
X6218690Y29328514D02*
X6075833Y29328514D01*
X6075833Y29328514D02*
X5980595Y29376133D01*
X5980595Y29376133D02*
X5932976Y29471371D01*
X5932976Y29471371D02*
X5932976Y29518990D01*
X5932976Y29518990D02*
X5980595Y29614228D01*
X5980595Y29614228D02*
X6075833Y29661847D01*
X6075833Y29661847D02*
X6218690Y29661847D01*
X6218690Y29661847D02*
X6313928Y29614228D01*
%TO.C,U27*%
X149903512Y67666609D02*
X149808274Y67714228D01*
X149808274Y67714228D02*
X149760655Y67761847D01*
X149760655Y67761847D02*
X149713036Y67857085D01*
X149713036Y67857085D02*
X149713036Y67904704D01*
X149713036Y67904704D02*
X149760655Y67999942D01*
X149760655Y67999942D02*
X149808274Y68047561D01*
X149808274Y68047561D02*
X149903512Y68095180D01*
X149903512Y68095180D02*
X150093988Y68095180D01*
X150093988Y68095180D02*
X150189226Y68047561D01*
X150189226Y68047561D02*
X150236845Y67999942D01*
X150236845Y67999942D02*
X150284464Y67904704D01*
X150284464Y67904704D02*
X150284464Y67857085D01*
X150284464Y67857085D02*
X150236845Y67761847D01*
X150236845Y67761847D02*
X150189226Y67714228D01*
X150189226Y67714228D02*
X150093988Y67666609D01*
X150093988Y67666609D02*
X149903512Y67666609D01*
X149903512Y67666609D02*
X149808274Y67618990D01*
X149808274Y67618990D02*
X149760655Y67571371D01*
X149760655Y67571371D02*
X149713036Y67476133D01*
X149713036Y67476133D02*
X149713036Y67285657D01*
X149713036Y67285657D02*
X149760655Y67190419D01*
X149760655Y67190419D02*
X149808274Y67142800D01*
X149808274Y67142800D02*
X149903512Y67095180D01*
X149903512Y67095180D02*
X150093988Y67095180D01*
X150093988Y67095180D02*
X150189226Y67142800D01*
X150189226Y67142800D02*
X150236845Y67190419D01*
X150236845Y67190419D02*
X150284464Y67285657D01*
X150284464Y67285657D02*
X150284464Y67476133D01*
X150284464Y67476133D02*
X150236845Y67571371D01*
X150236845Y67571371D02*
X150189226Y67618990D01*
X150189226Y67618990D02*
X150093988Y67666609D01*
%TO.C,U23*%
X73989226Y67761847D02*
X73989226Y67095180D01*
X73751131Y68142800D02*
X73513036Y67428514D01*
X73513036Y67428514D02*
X74132083Y67428514D01*
%TO.C,H7*%
X270700595Y56323305D02*
X270700595Y57323305D01*
X270700595Y56847115D02*
X271272023Y56847115D01*
X271272023Y56323305D02*
X271272023Y57323305D01*
X271652976Y57323305D02*
X272319642Y57323305D01*
X272319642Y57323305D02*
X271891071Y56323305D01*
%TO.C,U35*%
X319758274Y67095180D02*
X319758274Y68095180D01*
X319758274Y68095180D02*
X320139226Y68095180D01*
X320139226Y68095180D02*
X320234464Y68047561D01*
X320234464Y68047561D02*
X320282083Y67999942D01*
X320282083Y67999942D02*
X320329702Y67904704D01*
X320329702Y67904704D02*
X320329702Y67761847D01*
X320329702Y67761847D02*
X320282083Y67666609D01*
X320282083Y67666609D02*
X320234464Y67618990D01*
X320234464Y67618990D02*
X320139226Y67571371D01*
X320139226Y67571371D02*
X319758274Y67571371D01*
X321186845Y67095180D02*
X321186845Y67618990D01*
X321186845Y67618990D02*
X321139226Y67714228D01*
X321139226Y67714228D02*
X321043988Y67761847D01*
X321043988Y67761847D02*
X320853512Y67761847D01*
X320853512Y67761847D02*
X320758274Y67714228D01*
X321186845Y67142800D02*
X321091607Y67095180D01*
X321091607Y67095180D02*
X320853512Y67095180D01*
X320853512Y67095180D02*
X320758274Y67142800D01*
X320758274Y67142800D02*
X320710655Y67238038D01*
X320710655Y67238038D02*
X320710655Y67333276D01*
X320710655Y67333276D02*
X320758274Y67428514D01*
X320758274Y67428514D02*
X320853512Y67476133D01*
X320853512Y67476133D02*
X321091607Y67476133D01*
X321091607Y67476133D02*
X321186845Y67523752D01*
X321663036Y68095180D02*
X321663036Y67285657D01*
X321663036Y67285657D02*
X321710655Y67190419D01*
X321710655Y67190419D02*
X321758274Y67142800D01*
X321758274Y67142800D02*
X321853512Y67095180D01*
X321853512Y67095180D02*
X322043988Y67095180D01*
X322043988Y67095180D02*
X322139226Y67142800D01*
X322139226Y67142800D02*
X322186845Y67190419D01*
X322186845Y67190419D02*
X322234464Y67285657D01*
X322234464Y67285657D02*
X322234464Y68095180D01*
X322710655Y67761847D02*
X322710655Y66761847D01*
X322710655Y67714228D02*
X322805893Y67761847D01*
X322805893Y67761847D02*
X322996369Y67761847D01*
X322996369Y67761847D02*
X323091607Y67714228D01*
X323091607Y67714228D02*
X323139226Y67666609D01*
X323139226Y67666609D02*
X323186845Y67571371D01*
X323186845Y67571371D02*
X323186845Y67285657D01*
X323186845Y67285657D02*
X323139226Y67190419D01*
X323139226Y67190419D02*
X323091607Y67142800D01*
X323091607Y67142800D02*
X322996369Y67095180D01*
X322996369Y67095180D02*
X322805893Y67095180D01*
X322805893Y67095180D02*
X322710655Y67142800D01*
%TO.C,U87*%
X164143690Y-9057200D02*
X164286547Y-9104819D01*
X164286547Y-9104819D02*
X164524642Y-9104819D01*
X164524642Y-9104819D02*
X164619880Y-9057200D01*
X164619880Y-9057200D02*
X164667499Y-9009580D01*
X164667499Y-9009580D02*
X164715118Y-8914342D01*
X164715118Y-8914342D02*
X164715118Y-8819104D01*
X164715118Y-8819104D02*
X164667499Y-8723866D01*
X164667499Y-8723866D02*
X164619880Y-8676247D01*
X164619880Y-8676247D02*
X164524642Y-8628628D01*
X164524642Y-8628628D02*
X164334166Y-8581009D01*
X164334166Y-8581009D02*
X164238928Y-8533390D01*
X164238928Y-8533390D02*
X164191309Y-8485771D01*
X164191309Y-8485771D02*
X164143690Y-8390533D01*
X164143690Y-8390533D02*
X164143690Y-8295295D01*
X164143690Y-8295295D02*
X164191309Y-8200057D01*
X164191309Y-8200057D02*
X164238928Y-8152438D01*
X164238928Y-8152438D02*
X164334166Y-8104819D01*
X164334166Y-8104819D02*
X164572261Y-8104819D01*
X164572261Y-8104819D02*
X164715118Y-8152438D01*
X165143690Y-8438152D02*
X165143690Y-9438152D01*
X165143690Y-8485771D02*
X165238928Y-8438152D01*
X165238928Y-8438152D02*
X165429404Y-8438152D01*
X165429404Y-8438152D02*
X165524642Y-8485771D01*
X165524642Y-8485771D02*
X165572261Y-8533390D01*
X165572261Y-8533390D02*
X165619880Y-8628628D01*
X165619880Y-8628628D02*
X165619880Y-8914342D01*
X165619880Y-8914342D02*
X165572261Y-9009580D01*
X165572261Y-9009580D02*
X165524642Y-9057200D01*
X165524642Y-9057200D02*
X165429404Y-9104819D01*
X165429404Y-9104819D02*
X165238928Y-9104819D01*
X165238928Y-9104819D02*
X165143690Y-9057200D01*
X166477023Y-9104819D02*
X166477023Y-8581009D01*
X166477023Y-8581009D02*
X166429404Y-8485771D01*
X166429404Y-8485771D02*
X166334166Y-8438152D01*
X166334166Y-8438152D02*
X166143690Y-8438152D01*
X166143690Y-8438152D02*
X166048452Y-8485771D01*
X166477023Y-9057200D02*
X166381785Y-9104819D01*
X166381785Y-9104819D02*
X166143690Y-9104819D01*
X166143690Y-9104819D02*
X166048452Y-9057200D01*
X166048452Y-9057200D02*
X166000833Y-8961961D01*
X166000833Y-8961961D02*
X166000833Y-8866723D01*
X166000833Y-8866723D02*
X166048452Y-8771485D01*
X166048452Y-8771485D02*
X166143690Y-8723866D01*
X166143690Y-8723866D02*
X166381785Y-8723866D01*
X166381785Y-8723866D02*
X166477023Y-8676247D01*
X167381785Y-9057200D02*
X167286547Y-9104819D01*
X167286547Y-9104819D02*
X167096071Y-9104819D01*
X167096071Y-9104819D02*
X167000833Y-9057200D01*
X167000833Y-9057200D02*
X166953214Y-9009580D01*
X166953214Y-9009580D02*
X166905595Y-8914342D01*
X166905595Y-8914342D02*
X166905595Y-8628628D01*
X166905595Y-8628628D02*
X166953214Y-8533390D01*
X166953214Y-8533390D02*
X167000833Y-8485771D01*
X167000833Y-8485771D02*
X167096071Y-8438152D01*
X167096071Y-8438152D02*
X167286547Y-8438152D01*
X167286547Y-8438152D02*
X167381785Y-8485771D01*
X168191309Y-9057200D02*
X168096071Y-9104819D01*
X168096071Y-9104819D02*
X167905595Y-9104819D01*
X167905595Y-9104819D02*
X167810357Y-9057200D01*
X167810357Y-9057200D02*
X167762738Y-8961961D01*
X167762738Y-8961961D02*
X167762738Y-8581009D01*
X167762738Y-8581009D02*
X167810357Y-8485771D01*
X167810357Y-8485771D02*
X167905595Y-8438152D01*
X167905595Y-8438152D02*
X168096071Y-8438152D01*
X168096071Y-8438152D02*
X168191309Y-8485771D01*
X168191309Y-8485771D02*
X168238928Y-8581009D01*
X168238928Y-8581009D02*
X168238928Y-8676247D01*
X168238928Y-8676247D02*
X167762738Y-8771485D01*
X169143690Y-8104819D02*
X168667500Y-8104819D01*
X168667500Y-8104819D02*
X168619881Y-8581009D01*
X168619881Y-8581009D02*
X168667500Y-8533390D01*
X168667500Y-8533390D02*
X168762738Y-8485771D01*
X168762738Y-8485771D02*
X169000833Y-8485771D01*
X169000833Y-8485771D02*
X169096071Y-8533390D01*
X169096071Y-8533390D02*
X169143690Y-8581009D01*
X169143690Y-8581009D02*
X169191309Y-8676247D01*
X169191309Y-8676247D02*
X169191309Y-8914342D01*
X169191309Y-8914342D02*
X169143690Y-9009580D01*
X169143690Y-9009580D02*
X169096071Y-9057200D01*
X169096071Y-9057200D02*
X169000833Y-9104819D01*
X169000833Y-9104819D02*
X168762738Y-9104819D01*
X168762738Y-9104819D02*
X168667500Y-9057200D01*
X168667500Y-9057200D02*
X168619881Y-9009580D01*
%TO.C,U4*%
X44890416Y86668990D02*
X44557083Y86668990D01*
X44557083Y86145180D02*
X44557083Y87145180D01*
X44557083Y87145180D02*
X45033273Y87145180D01*
X45938035Y86145180D02*
X45366607Y86145180D01*
X45652321Y86145180D02*
X45652321Y87145180D01*
X45652321Y87145180D02*
X45557083Y87002323D01*
X45557083Y87002323D02*
X45461845Y86907085D01*
X45461845Y86907085D02*
X45366607Y86859466D01*
%TO.C,U60*%
X145379107Y29995180D02*
X145379107Y29280895D01*
X145379107Y29280895D02*
X145331488Y29138038D01*
X145331488Y29138038D02*
X145236250Y29042800D01*
X145236250Y29042800D02*
X145093393Y28995180D01*
X145093393Y28995180D02*
X144998155Y28995180D01*
%TO.C,U16*%
X281229702Y86145180D02*
X281229702Y87145180D01*
X281229702Y87145180D02*
X281610654Y87145180D01*
X281610654Y87145180D02*
X281705892Y87097561D01*
X281705892Y87097561D02*
X281753511Y87049942D01*
X281753511Y87049942D02*
X281801130Y86954704D01*
X281801130Y86954704D02*
X281801130Y86811847D01*
X281801130Y86811847D02*
X281753511Y86716609D01*
X281753511Y86716609D02*
X281705892Y86668990D01*
X281705892Y86668990D02*
X281610654Y86621371D01*
X281610654Y86621371D02*
X281229702Y86621371D01*
X282801130Y86145180D02*
X282467797Y86621371D01*
X282229702Y86145180D02*
X282229702Y87145180D01*
X282229702Y87145180D02*
X282610654Y87145180D01*
X282610654Y87145180D02*
X282705892Y87097561D01*
X282705892Y87097561D02*
X282753511Y87049942D01*
X282753511Y87049942D02*
X282801130Y86954704D01*
X282801130Y86954704D02*
X282801130Y86811847D01*
X282801130Y86811847D02*
X282753511Y86716609D01*
X282753511Y86716609D02*
X282705892Y86668990D01*
X282705892Y86668990D02*
X282610654Y86621371D01*
X282610654Y86621371D02*
X282229702Y86621371D01*
X282991607Y86049942D02*
X283753511Y86049942D01*
X283943988Y86192800D02*
X284086845Y86145180D01*
X284086845Y86145180D02*
X284324940Y86145180D01*
X284324940Y86145180D02*
X284420178Y86192800D01*
X284420178Y86192800D02*
X284467797Y86240419D01*
X284467797Y86240419D02*
X284515416Y86335657D01*
X284515416Y86335657D02*
X284515416Y86430895D01*
X284515416Y86430895D02*
X284467797Y86526133D01*
X284467797Y86526133D02*
X284420178Y86573752D01*
X284420178Y86573752D02*
X284324940Y86621371D01*
X284324940Y86621371D02*
X284134464Y86668990D01*
X284134464Y86668990D02*
X284039226Y86716609D01*
X284039226Y86716609D02*
X283991607Y86764228D01*
X283991607Y86764228D02*
X283943988Y86859466D01*
X283943988Y86859466D02*
X283943988Y86954704D01*
X283943988Y86954704D02*
X283991607Y87049942D01*
X283991607Y87049942D02*
X284039226Y87097561D01*
X284039226Y87097561D02*
X284134464Y87145180D01*
X284134464Y87145180D02*
X284372559Y87145180D01*
X284372559Y87145180D02*
X284515416Y87097561D01*
X285515416Y86240419D02*
X285467797Y86192800D01*
X285467797Y86192800D02*
X285324940Y86145180D01*
X285324940Y86145180D02*
X285229702Y86145180D01*
X285229702Y86145180D02*
X285086845Y86192800D01*
X285086845Y86192800D02*
X284991607Y86288038D01*
X284991607Y86288038D02*
X284943988Y86383276D01*
X284943988Y86383276D02*
X284896369Y86573752D01*
X284896369Y86573752D02*
X284896369Y86716609D01*
X284896369Y86716609D02*
X284943988Y86907085D01*
X284943988Y86907085D02*
X284991607Y87002323D01*
X284991607Y87002323D02*
X285086845Y87097561D01*
X285086845Y87097561D02*
X285229702Y87145180D01*
X285229702Y87145180D02*
X285324940Y87145180D01*
X285324940Y87145180D02*
X285467797Y87097561D01*
X285467797Y87097561D02*
X285515416Y87049942D01*
%TO.C,U58*%
X107398154Y29947561D02*
X107302916Y29995180D01*
X107302916Y29995180D02*
X107160059Y29995180D01*
X107160059Y29995180D02*
X107017202Y29947561D01*
X107017202Y29947561D02*
X106921964Y29852323D01*
X106921964Y29852323D02*
X106874345Y29757085D01*
X106874345Y29757085D02*
X106826726Y29566609D01*
X106826726Y29566609D02*
X106826726Y29423752D01*
X106826726Y29423752D02*
X106874345Y29233276D01*
X106874345Y29233276D02*
X106921964Y29138038D01*
X106921964Y29138038D02*
X107017202Y29042800D01*
X107017202Y29042800D02*
X107160059Y28995180D01*
X107160059Y28995180D02*
X107255297Y28995180D01*
X107255297Y28995180D02*
X107398154Y29042800D01*
X107398154Y29042800D02*
X107445773Y29090419D01*
X107445773Y29090419D02*
X107445773Y29423752D01*
X107445773Y29423752D02*
X107255297Y29423752D01*
%TO.C,U46*%
X197361845Y48045180D02*
X197361845Y49045180D01*
X197361845Y49045180D02*
X197742797Y49045180D01*
X197742797Y49045180D02*
X197838035Y48997561D01*
X197838035Y48997561D02*
X197885654Y48949942D01*
X197885654Y48949942D02*
X197933273Y48854704D01*
X197933273Y48854704D02*
X197933273Y48711847D01*
X197933273Y48711847D02*
X197885654Y48616609D01*
X197885654Y48616609D02*
X197838035Y48568990D01*
X197838035Y48568990D02*
X197742797Y48521371D01*
X197742797Y48521371D02*
X197361845Y48521371D01*
%TO.C,U36*%
X1170774Y49045180D02*
X1742202Y49045180D01*
X1456488Y48045180D02*
X1456488Y49045180D01*
X2504107Y48045180D02*
X2504107Y48568990D01*
X2504107Y48568990D02*
X2456488Y48664228D01*
X2456488Y48664228D02*
X2361250Y48711847D01*
X2361250Y48711847D02*
X2170774Y48711847D01*
X2170774Y48711847D02*
X2075536Y48664228D01*
X2504107Y48092800D02*
X2408869Y48045180D01*
X2408869Y48045180D02*
X2170774Y48045180D01*
X2170774Y48045180D02*
X2075536Y48092800D01*
X2075536Y48092800D02*
X2027917Y48188038D01*
X2027917Y48188038D02*
X2027917Y48283276D01*
X2027917Y48283276D02*
X2075536Y48378514D01*
X2075536Y48378514D02*
X2170774Y48426133D01*
X2170774Y48426133D02*
X2408869Y48426133D01*
X2408869Y48426133D02*
X2504107Y48473752D01*
X2980298Y48045180D02*
X2980298Y49045180D01*
X2980298Y48664228D02*
X3075536Y48711847D01*
X3075536Y48711847D02*
X3266012Y48711847D01*
X3266012Y48711847D02*
X3361250Y48664228D01*
X3361250Y48664228D02*
X3408869Y48616609D01*
X3408869Y48616609D02*
X3456488Y48521371D01*
X3456488Y48521371D02*
X3456488Y48235657D01*
X3456488Y48235657D02*
X3408869Y48140419D01*
X3408869Y48140419D02*
X3361250Y48092800D01*
X3361250Y48092800D02*
X3266012Y48045180D01*
X3266012Y48045180D02*
X3075536Y48045180D01*
X3075536Y48045180D02*
X2980298Y48092800D01*
%TO.C,U94*%
X300827321Y-8819104D02*
X301303511Y-8819104D01*
X300732083Y-9104819D02*
X301065416Y-8104819D01*
X301065416Y-8104819D02*
X301398749Y-9104819D01*
X301732083Y-9104819D02*
X301732083Y-8438152D01*
X301732083Y-8628628D02*
X301779702Y-8533390D01*
X301779702Y-8533390D02*
X301827321Y-8485771D01*
X301827321Y-8485771D02*
X301922559Y-8438152D01*
X301922559Y-8438152D02*
X302017797Y-8438152D01*
X302351131Y-9104819D02*
X302351131Y-8104819D01*
X302351131Y-8104819D02*
X302589226Y-8104819D01*
X302589226Y-8104819D02*
X302732083Y-8152438D01*
X302732083Y-8152438D02*
X302827321Y-8247676D01*
X302827321Y-8247676D02*
X302874940Y-8342914D01*
X302874940Y-8342914D02*
X302922559Y-8533390D01*
X302922559Y-8533390D02*
X302922559Y-8676247D01*
X302922559Y-8676247D02*
X302874940Y-8866723D01*
X302874940Y-8866723D02*
X302827321Y-8961961D01*
X302827321Y-8961961D02*
X302732083Y-9057200D01*
X302732083Y-9057200D02*
X302589226Y-9104819D01*
X302589226Y-9104819D02*
X302351131Y-9104819D01*
X303255893Y-8438152D02*
X303446369Y-9104819D01*
X303446369Y-9104819D02*
X303636845Y-8628628D01*
X303636845Y-8628628D02*
X303827321Y-9104819D01*
X303827321Y-9104819D02*
X304017797Y-8438152D01*
%TO.C,U40*%
X83633273Y48045180D02*
X83299940Y48521371D01*
X83061845Y48045180D02*
X83061845Y49045180D01*
X83061845Y49045180D02*
X83442797Y49045180D01*
X83442797Y49045180D02*
X83538035Y48997561D01*
X83538035Y48997561D02*
X83585654Y48949942D01*
X83585654Y48949942D02*
X83633273Y48854704D01*
X83633273Y48854704D02*
X83633273Y48711847D01*
X83633273Y48711847D02*
X83585654Y48616609D01*
X83585654Y48616609D02*
X83538035Y48568990D01*
X83538035Y48568990D02*
X83442797Y48521371D01*
X83442797Y48521371D02*
X83061845Y48521371D01*
%TO.C,U3*%
X280848749Y29042800D02*
X280753511Y28995180D01*
X280753511Y28995180D02*
X280563035Y28995180D01*
X280563035Y28995180D02*
X280467797Y29042800D01*
X280467797Y29042800D02*
X280420178Y29090419D01*
X280420178Y29090419D02*
X280372559Y29185657D01*
X280372559Y29185657D02*
X280372559Y29471371D01*
X280372559Y29471371D02*
X280420178Y29566609D01*
X280420178Y29566609D02*
X280467797Y29614228D01*
X280467797Y29614228D02*
X280563035Y29661847D01*
X280563035Y29661847D02*
X280753511Y29661847D01*
X280753511Y29661847D02*
X280848749Y29614228D01*
X281705892Y29661847D02*
X281705892Y28995180D01*
X281277321Y29661847D02*
X281277321Y29138038D01*
X281277321Y29138038D02*
X281324940Y29042800D01*
X281324940Y29042800D02*
X281420178Y28995180D01*
X281420178Y28995180D02*
X281563035Y28995180D01*
X281563035Y28995180D02*
X281658273Y29042800D01*
X281658273Y29042800D02*
X281705892Y29090419D01*
X282134464Y29042800D02*
X282229702Y28995180D01*
X282229702Y28995180D02*
X282420178Y28995180D01*
X282420178Y28995180D02*
X282515416Y29042800D01*
X282515416Y29042800D02*
X282563035Y29138038D01*
X282563035Y29138038D02*
X282563035Y29185657D01*
X282563035Y29185657D02*
X282515416Y29280895D01*
X282515416Y29280895D02*
X282420178Y29328514D01*
X282420178Y29328514D02*
X282277321Y29328514D01*
X282277321Y29328514D02*
X282182083Y29376133D01*
X282182083Y29376133D02*
X282134464Y29471371D01*
X282134464Y29471371D02*
X282134464Y29518990D01*
X282134464Y29518990D02*
X282182083Y29614228D01*
X282182083Y29614228D02*
X282277321Y29661847D01*
X282277321Y29661847D02*
X282420178Y29661847D01*
X282420178Y29661847D02*
X282515416Y29614228D01*
X282848750Y29661847D02*
X283229702Y29661847D01*
X282991607Y29995180D02*
X282991607Y29138038D01*
X282991607Y29138038D02*
X283039226Y29042800D01*
X283039226Y29042800D02*
X283134464Y28995180D01*
X283134464Y28995180D02*
X283229702Y28995180D01*
X283705893Y28995180D02*
X283610655Y29042800D01*
X283610655Y29042800D02*
X283563036Y29090419D01*
X283563036Y29090419D02*
X283515417Y29185657D01*
X283515417Y29185657D02*
X283515417Y29471371D01*
X283515417Y29471371D02*
X283563036Y29566609D01*
X283563036Y29566609D02*
X283610655Y29614228D01*
X283610655Y29614228D02*
X283705893Y29661847D01*
X283705893Y29661847D02*
X283848750Y29661847D01*
X283848750Y29661847D02*
X283943988Y29614228D01*
X283943988Y29614228D02*
X283991607Y29566609D01*
X283991607Y29566609D02*
X284039226Y29471371D01*
X284039226Y29471371D02*
X284039226Y29185657D01*
X284039226Y29185657D02*
X283991607Y29090419D01*
X283991607Y29090419D02*
X283943988Y29042800D01*
X283943988Y29042800D02*
X283848750Y28995180D01*
X283848750Y28995180D02*
X283705893Y28995180D01*
X284467798Y28995180D02*
X284467798Y29661847D01*
X284467798Y29566609D02*
X284515417Y29614228D01*
X284515417Y29614228D02*
X284610655Y29661847D01*
X284610655Y29661847D02*
X284753512Y29661847D01*
X284753512Y29661847D02*
X284848750Y29614228D01*
X284848750Y29614228D02*
X284896369Y29518990D01*
X284896369Y29518990D02*
X284896369Y28995180D01*
X284896369Y29518990D02*
X284943988Y29614228D01*
X284943988Y29614228D02*
X285039226Y29661847D01*
X285039226Y29661847D02*
X285182083Y29661847D01*
X285182083Y29661847D02*
X285277322Y29614228D01*
X285277322Y29614228D02*
X285324941Y29518990D01*
X285324941Y29518990D02*
X285324941Y28995180D01*
X286324940Y28995180D02*
X285753512Y28995180D01*
X286039226Y28995180D02*
X286039226Y29995180D01*
X286039226Y29995180D02*
X285943988Y29852323D01*
X285943988Y29852323D02*
X285848750Y29757085D01*
X285848750Y29757085D02*
X285753512Y29709466D01*
%TO.C,U25*%
X112089226Y68095180D02*
X111898750Y68095180D01*
X111898750Y68095180D02*
X111803512Y68047561D01*
X111803512Y68047561D02*
X111755893Y67999942D01*
X111755893Y67999942D02*
X111660655Y67857085D01*
X111660655Y67857085D02*
X111613036Y67666609D01*
X111613036Y67666609D02*
X111613036Y67285657D01*
X111613036Y67285657D02*
X111660655Y67190419D01*
X111660655Y67190419D02*
X111708274Y67142800D01*
X111708274Y67142800D02*
X111803512Y67095180D01*
X111803512Y67095180D02*
X111993988Y67095180D01*
X111993988Y67095180D02*
X112089226Y67142800D01*
X112089226Y67142800D02*
X112136845Y67190419D01*
X112136845Y67190419D02*
X112184464Y67285657D01*
X112184464Y67285657D02*
X112184464Y67523752D01*
X112184464Y67523752D02*
X112136845Y67618990D01*
X112136845Y67618990D02*
X112089226Y67666609D01*
X112089226Y67666609D02*
X111993988Y67714228D01*
X111993988Y67714228D02*
X111803512Y67714228D01*
X111803512Y67714228D02*
X111708274Y67666609D01*
X111708274Y67666609D02*
X111660655Y67618990D01*
X111660655Y67618990D02*
X111613036Y67523752D01*
%TO.C,U43*%
X140188036Y49045180D02*
X140188036Y48235657D01*
X140188036Y48235657D02*
X140235655Y48140419D01*
X140235655Y48140419D02*
X140283274Y48092800D01*
X140283274Y48092800D02*
X140378512Y48045180D01*
X140378512Y48045180D02*
X140568988Y48045180D01*
X140568988Y48045180D02*
X140664226Y48092800D01*
X140664226Y48092800D02*
X140711845Y48140419D01*
X140711845Y48140419D02*
X140759464Y48235657D01*
X140759464Y48235657D02*
X140759464Y49045180D01*
%TO.C,U59*%
X125900536Y28995180D02*
X125900536Y29995180D01*
X125900536Y29518990D02*
X126471964Y29518990D01*
X126471964Y28995180D02*
X126471964Y29995180D01*
%TO.C,U57*%
X88229107Y29518990D02*
X87895774Y29518990D01*
X87895774Y28995180D02*
X87895774Y29995180D01*
X87895774Y29995180D02*
X88371964Y29995180D01*
%TO.C,U17*%
X300208274Y86192800D02*
X300351131Y86145180D01*
X300351131Y86145180D02*
X300589226Y86145180D01*
X300589226Y86145180D02*
X300684464Y86192800D01*
X300684464Y86192800D02*
X300732083Y86240419D01*
X300732083Y86240419D02*
X300779702Y86335657D01*
X300779702Y86335657D02*
X300779702Y86430895D01*
X300779702Y86430895D02*
X300732083Y86526133D01*
X300732083Y86526133D02*
X300684464Y86573752D01*
X300684464Y86573752D02*
X300589226Y86621371D01*
X300589226Y86621371D02*
X300398750Y86668990D01*
X300398750Y86668990D02*
X300303512Y86716609D01*
X300303512Y86716609D02*
X300255893Y86764228D01*
X300255893Y86764228D02*
X300208274Y86859466D01*
X300208274Y86859466D02*
X300208274Y86954704D01*
X300208274Y86954704D02*
X300255893Y87049942D01*
X300255893Y87049942D02*
X300303512Y87097561D01*
X300303512Y87097561D02*
X300398750Y87145180D01*
X300398750Y87145180D02*
X300636845Y87145180D01*
X300636845Y87145180D02*
X300779702Y87097561D01*
X301779702Y86240419D02*
X301732083Y86192800D01*
X301732083Y86192800D02*
X301589226Y86145180D01*
X301589226Y86145180D02*
X301493988Y86145180D01*
X301493988Y86145180D02*
X301351131Y86192800D01*
X301351131Y86192800D02*
X301255893Y86288038D01*
X301255893Y86288038D02*
X301208274Y86383276D01*
X301208274Y86383276D02*
X301160655Y86573752D01*
X301160655Y86573752D02*
X301160655Y86716609D01*
X301160655Y86716609D02*
X301208274Y86907085D01*
X301208274Y86907085D02*
X301255893Y87002323D01*
X301255893Y87002323D02*
X301351131Y87097561D01*
X301351131Y87097561D02*
X301493988Y87145180D01*
X301493988Y87145180D02*
X301589226Y87145180D01*
X301589226Y87145180D02*
X301732083Y87097561D01*
X301732083Y87097561D02*
X301779702Y87049942D01*
X302779702Y86145180D02*
X302446369Y86621371D01*
X302208274Y86145180D02*
X302208274Y87145180D01*
X302208274Y87145180D02*
X302589226Y87145180D01*
X302589226Y87145180D02*
X302684464Y87097561D01*
X302684464Y87097561D02*
X302732083Y87049942D01*
X302732083Y87049942D02*
X302779702Y86954704D01*
X302779702Y86954704D02*
X302779702Y86811847D01*
X302779702Y86811847D02*
X302732083Y86716609D01*
X302732083Y86716609D02*
X302684464Y86668990D01*
X302684464Y86668990D02*
X302589226Y86621371D01*
X302589226Y86621371D02*
X302208274Y86621371D01*
X303684464Y86145180D02*
X303208274Y86145180D01*
X303208274Y86145180D02*
X303208274Y87145180D01*
X304589226Y86240419D02*
X304541607Y86192800D01*
X304541607Y86192800D02*
X304398750Y86145180D01*
X304398750Y86145180D02*
X304303512Y86145180D01*
X304303512Y86145180D02*
X304160655Y86192800D01*
X304160655Y86192800D02*
X304065417Y86288038D01*
X304065417Y86288038D02*
X304017798Y86383276D01*
X304017798Y86383276D02*
X303970179Y86573752D01*
X303970179Y86573752D02*
X303970179Y86716609D01*
X303970179Y86716609D02*
X304017798Y86907085D01*
X304017798Y86907085D02*
X304065417Y87002323D01*
X304065417Y87002323D02*
X304160655Y87097561D01*
X304160655Y87097561D02*
X304303512Y87145180D01*
X304303512Y87145180D02*
X304398750Y87145180D01*
X304398750Y87145180D02*
X304541607Y87097561D01*
X304541607Y87097561D02*
X304589226Y87049942D01*
%TO.C,U83*%
X68893690Y-9057200D02*
X69036547Y-9104819D01*
X69036547Y-9104819D02*
X69274642Y-9104819D01*
X69274642Y-9104819D02*
X69369880Y-9057200D01*
X69369880Y-9057200D02*
X69417499Y-9009580D01*
X69417499Y-9009580D02*
X69465118Y-8914342D01*
X69465118Y-8914342D02*
X69465118Y-8819104D01*
X69465118Y-8819104D02*
X69417499Y-8723866D01*
X69417499Y-8723866D02*
X69369880Y-8676247D01*
X69369880Y-8676247D02*
X69274642Y-8628628D01*
X69274642Y-8628628D02*
X69084166Y-8581009D01*
X69084166Y-8581009D02*
X68988928Y-8533390D01*
X68988928Y-8533390D02*
X68941309Y-8485771D01*
X68941309Y-8485771D02*
X68893690Y-8390533D01*
X68893690Y-8390533D02*
X68893690Y-8295295D01*
X68893690Y-8295295D02*
X68941309Y-8200057D01*
X68941309Y-8200057D02*
X68988928Y-8152438D01*
X68988928Y-8152438D02*
X69084166Y-8104819D01*
X69084166Y-8104819D02*
X69322261Y-8104819D01*
X69322261Y-8104819D02*
X69465118Y-8152438D01*
X69893690Y-8438152D02*
X69893690Y-9438152D01*
X69893690Y-8485771D02*
X69988928Y-8438152D01*
X69988928Y-8438152D02*
X70179404Y-8438152D01*
X70179404Y-8438152D02*
X70274642Y-8485771D01*
X70274642Y-8485771D02*
X70322261Y-8533390D01*
X70322261Y-8533390D02*
X70369880Y-8628628D01*
X70369880Y-8628628D02*
X70369880Y-8914342D01*
X70369880Y-8914342D02*
X70322261Y-9009580D01*
X70322261Y-9009580D02*
X70274642Y-9057200D01*
X70274642Y-9057200D02*
X70179404Y-9104819D01*
X70179404Y-9104819D02*
X69988928Y-9104819D01*
X69988928Y-9104819D02*
X69893690Y-9057200D01*
X71227023Y-9104819D02*
X71227023Y-8581009D01*
X71227023Y-8581009D02*
X71179404Y-8485771D01*
X71179404Y-8485771D02*
X71084166Y-8438152D01*
X71084166Y-8438152D02*
X70893690Y-8438152D01*
X70893690Y-8438152D02*
X70798452Y-8485771D01*
X71227023Y-9057200D02*
X71131785Y-9104819D01*
X71131785Y-9104819D02*
X70893690Y-9104819D01*
X70893690Y-9104819D02*
X70798452Y-9057200D01*
X70798452Y-9057200D02*
X70750833Y-8961961D01*
X70750833Y-8961961D02*
X70750833Y-8866723D01*
X70750833Y-8866723D02*
X70798452Y-8771485D01*
X70798452Y-8771485D02*
X70893690Y-8723866D01*
X70893690Y-8723866D02*
X71131785Y-8723866D01*
X71131785Y-8723866D02*
X71227023Y-8676247D01*
X72131785Y-9057200D02*
X72036547Y-9104819D01*
X72036547Y-9104819D02*
X71846071Y-9104819D01*
X71846071Y-9104819D02*
X71750833Y-9057200D01*
X71750833Y-9057200D02*
X71703214Y-9009580D01*
X71703214Y-9009580D02*
X71655595Y-8914342D01*
X71655595Y-8914342D02*
X71655595Y-8628628D01*
X71655595Y-8628628D02*
X71703214Y-8533390D01*
X71703214Y-8533390D02*
X71750833Y-8485771D01*
X71750833Y-8485771D02*
X71846071Y-8438152D01*
X71846071Y-8438152D02*
X72036547Y-8438152D01*
X72036547Y-8438152D02*
X72131785Y-8485771D01*
X72941309Y-9057200D02*
X72846071Y-9104819D01*
X72846071Y-9104819D02*
X72655595Y-9104819D01*
X72655595Y-9104819D02*
X72560357Y-9057200D01*
X72560357Y-9057200D02*
X72512738Y-8961961D01*
X72512738Y-8961961D02*
X72512738Y-8581009D01*
X72512738Y-8581009D02*
X72560357Y-8485771D01*
X72560357Y-8485771D02*
X72655595Y-8438152D01*
X72655595Y-8438152D02*
X72846071Y-8438152D01*
X72846071Y-8438152D02*
X72941309Y-8485771D01*
X72941309Y-8485771D02*
X72988928Y-8581009D01*
X72988928Y-8581009D02*
X72988928Y-8676247D01*
X72988928Y-8676247D02*
X72512738Y-8771485D01*
X73941309Y-9104819D02*
X73369881Y-9104819D01*
X73655595Y-9104819D02*
X73655595Y-8104819D01*
X73655595Y-8104819D02*
X73560357Y-8247676D01*
X73560357Y-8247676D02*
X73465119Y-8342914D01*
X73465119Y-8342914D02*
X73369881Y-8390533D01*
%TO.C,U56*%
X68774345Y28995180D02*
X68774345Y29995180D01*
X68774345Y29995180D02*
X69012440Y29995180D01*
X69012440Y29995180D02*
X69155297Y29947561D01*
X69155297Y29947561D02*
X69250535Y29852323D01*
X69250535Y29852323D02*
X69298154Y29757085D01*
X69298154Y29757085D02*
X69345773Y29566609D01*
X69345773Y29566609D02*
X69345773Y29423752D01*
X69345773Y29423752D02*
X69298154Y29233276D01*
X69298154Y29233276D02*
X69250535Y29138038D01*
X69250535Y29138038D02*
X69155297Y29042800D01*
X69155297Y29042800D02*
X69012440Y28995180D01*
X69012440Y28995180D02*
X68774345Y28995180D01*
%TO.C,U20*%
X16934464Y67095180D02*
X16363036Y67095180D01*
X16648750Y67095180D02*
X16648750Y68095180D01*
X16648750Y68095180D02*
X16553512Y67952323D01*
X16553512Y67952323D02*
X16458274Y67857085D01*
X16458274Y67857085D02*
X16363036Y67809466D01*
%TO.C,U89*%
X189813332Y-9104819D02*
X189479999Y-8628628D01*
X189241904Y-9104819D02*
X189241904Y-8104819D01*
X189241904Y-8104819D02*
X189622856Y-8104819D01*
X189622856Y-8104819D02*
X189718094Y-8152438D01*
X189718094Y-8152438D02*
X189765713Y-8200057D01*
X189765713Y-8200057D02*
X189813332Y-8295295D01*
X189813332Y-8295295D02*
X189813332Y-8438152D01*
X189813332Y-8438152D02*
X189765713Y-8533390D01*
X189765713Y-8533390D02*
X189718094Y-8581009D01*
X189718094Y-8581009D02*
X189622856Y-8628628D01*
X189622856Y-8628628D02*
X189241904Y-8628628D01*
X190194285Y-8819104D02*
X190670475Y-8819104D01*
X190099047Y-9104819D02*
X190432380Y-8104819D01*
X190432380Y-8104819D02*
X190765713Y-9104819D01*
X191241904Y-9104819D02*
X191146666Y-9057200D01*
X191146666Y-9057200D02*
X191099047Y-8961961D01*
X191099047Y-8961961D02*
X191099047Y-8104819D01*
X191480000Y-8438152D02*
X191860952Y-8438152D01*
X191622857Y-8104819D02*
X191622857Y-8961961D01*
X191622857Y-8961961D02*
X191670476Y-9057200D01*
X191670476Y-9057200D02*
X191765714Y-9104819D01*
X191765714Y-9104819D02*
X191860952Y-9104819D01*
%TO.C,U30*%
X206767798Y67476133D02*
X207529703Y67476133D01*
%TO.C,U66*%
X8362142Y9945180D02*
X7885952Y9945180D01*
X7885952Y9945180D02*
X7885952Y10945180D01*
X8647857Y9992800D02*
X8790714Y9945180D01*
X8790714Y9945180D02*
X9028809Y9945180D01*
X9028809Y9945180D02*
X9124047Y9992800D01*
X9124047Y9992800D02*
X9171666Y10040419D01*
X9171666Y10040419D02*
X9219285Y10135657D01*
X9219285Y10135657D02*
X9219285Y10230895D01*
X9219285Y10230895D02*
X9171666Y10326133D01*
X9171666Y10326133D02*
X9124047Y10373752D01*
X9124047Y10373752D02*
X9028809Y10421371D01*
X9028809Y10421371D02*
X8838333Y10468990D01*
X8838333Y10468990D02*
X8743095Y10516609D01*
X8743095Y10516609D02*
X8695476Y10564228D01*
X8695476Y10564228D02*
X8647857Y10659466D01*
X8647857Y10659466D02*
X8647857Y10754704D01*
X8647857Y10754704D02*
X8695476Y10849942D01*
X8695476Y10849942D02*
X8743095Y10897561D01*
X8743095Y10897561D02*
X8838333Y10945180D01*
X8838333Y10945180D02*
X9076428Y10945180D01*
X9076428Y10945180D02*
X9219285Y10897561D01*
X9647857Y9945180D02*
X9647857Y10945180D01*
X10076428Y9945180D02*
X10076428Y10468990D01*
X10076428Y10468990D02*
X10028809Y10564228D01*
X10028809Y10564228D02*
X9933571Y10611847D01*
X9933571Y10611847D02*
X9790714Y10611847D01*
X9790714Y10611847D02*
X9695476Y10564228D01*
X9695476Y10564228D02*
X9647857Y10516609D01*
X10552619Y9945180D02*
X10552619Y10611847D01*
X10552619Y10945180D02*
X10505000Y10897561D01*
X10505000Y10897561D02*
X10552619Y10849942D01*
X10552619Y10849942D02*
X10600238Y10897561D01*
X10600238Y10897561D02*
X10552619Y10945180D01*
X10552619Y10945180D02*
X10552619Y10849942D01*
X10885952Y10611847D02*
X11266904Y10611847D01*
X11028809Y9945180D02*
X11028809Y10802323D01*
X11028809Y10802323D02*
X11076428Y10897561D01*
X11076428Y10897561D02*
X11171666Y10945180D01*
X11171666Y10945180D02*
X11266904Y10945180D01*
%TO.C,U85*%
X116518690Y-9057200D02*
X116661547Y-9104819D01*
X116661547Y-9104819D02*
X116899642Y-9104819D01*
X116899642Y-9104819D02*
X116994880Y-9057200D01*
X116994880Y-9057200D02*
X117042499Y-9009580D01*
X117042499Y-9009580D02*
X117090118Y-8914342D01*
X117090118Y-8914342D02*
X117090118Y-8819104D01*
X117090118Y-8819104D02*
X117042499Y-8723866D01*
X117042499Y-8723866D02*
X116994880Y-8676247D01*
X116994880Y-8676247D02*
X116899642Y-8628628D01*
X116899642Y-8628628D02*
X116709166Y-8581009D01*
X116709166Y-8581009D02*
X116613928Y-8533390D01*
X116613928Y-8533390D02*
X116566309Y-8485771D01*
X116566309Y-8485771D02*
X116518690Y-8390533D01*
X116518690Y-8390533D02*
X116518690Y-8295295D01*
X116518690Y-8295295D02*
X116566309Y-8200057D01*
X116566309Y-8200057D02*
X116613928Y-8152438D01*
X116613928Y-8152438D02*
X116709166Y-8104819D01*
X116709166Y-8104819D02*
X116947261Y-8104819D01*
X116947261Y-8104819D02*
X117090118Y-8152438D01*
X117518690Y-8438152D02*
X117518690Y-9438152D01*
X117518690Y-8485771D02*
X117613928Y-8438152D01*
X117613928Y-8438152D02*
X117804404Y-8438152D01*
X117804404Y-8438152D02*
X117899642Y-8485771D01*
X117899642Y-8485771D02*
X117947261Y-8533390D01*
X117947261Y-8533390D02*
X117994880Y-8628628D01*
X117994880Y-8628628D02*
X117994880Y-8914342D01*
X117994880Y-8914342D02*
X117947261Y-9009580D01*
X117947261Y-9009580D02*
X117899642Y-9057200D01*
X117899642Y-9057200D02*
X117804404Y-9104819D01*
X117804404Y-9104819D02*
X117613928Y-9104819D01*
X117613928Y-9104819D02*
X117518690Y-9057200D01*
X118852023Y-9104819D02*
X118852023Y-8581009D01*
X118852023Y-8581009D02*
X118804404Y-8485771D01*
X118804404Y-8485771D02*
X118709166Y-8438152D01*
X118709166Y-8438152D02*
X118518690Y-8438152D01*
X118518690Y-8438152D02*
X118423452Y-8485771D01*
X118852023Y-9057200D02*
X118756785Y-9104819D01*
X118756785Y-9104819D02*
X118518690Y-9104819D01*
X118518690Y-9104819D02*
X118423452Y-9057200D01*
X118423452Y-9057200D02*
X118375833Y-8961961D01*
X118375833Y-8961961D02*
X118375833Y-8866723D01*
X118375833Y-8866723D02*
X118423452Y-8771485D01*
X118423452Y-8771485D02*
X118518690Y-8723866D01*
X118518690Y-8723866D02*
X118756785Y-8723866D01*
X118756785Y-8723866D02*
X118852023Y-8676247D01*
X119756785Y-9057200D02*
X119661547Y-9104819D01*
X119661547Y-9104819D02*
X119471071Y-9104819D01*
X119471071Y-9104819D02*
X119375833Y-9057200D01*
X119375833Y-9057200D02*
X119328214Y-9009580D01*
X119328214Y-9009580D02*
X119280595Y-8914342D01*
X119280595Y-8914342D02*
X119280595Y-8628628D01*
X119280595Y-8628628D02*
X119328214Y-8533390D01*
X119328214Y-8533390D02*
X119375833Y-8485771D01*
X119375833Y-8485771D02*
X119471071Y-8438152D01*
X119471071Y-8438152D02*
X119661547Y-8438152D01*
X119661547Y-8438152D02*
X119756785Y-8485771D01*
X120566309Y-9057200D02*
X120471071Y-9104819D01*
X120471071Y-9104819D02*
X120280595Y-9104819D01*
X120280595Y-9104819D02*
X120185357Y-9057200D01*
X120185357Y-9057200D02*
X120137738Y-8961961D01*
X120137738Y-8961961D02*
X120137738Y-8581009D01*
X120137738Y-8581009D02*
X120185357Y-8485771D01*
X120185357Y-8485771D02*
X120280595Y-8438152D01*
X120280595Y-8438152D02*
X120471071Y-8438152D01*
X120471071Y-8438152D02*
X120566309Y-8485771D01*
X120566309Y-8485771D02*
X120613928Y-8581009D01*
X120613928Y-8581009D02*
X120613928Y-8676247D01*
X120613928Y-8676247D02*
X120137738Y-8771485D01*
X120947262Y-8104819D02*
X121566309Y-8104819D01*
X121566309Y-8104819D02*
X121232976Y-8485771D01*
X121232976Y-8485771D02*
X121375833Y-8485771D01*
X121375833Y-8485771D02*
X121471071Y-8533390D01*
X121471071Y-8533390D02*
X121518690Y-8581009D01*
X121518690Y-8581009D02*
X121566309Y-8676247D01*
X121566309Y-8676247D02*
X121566309Y-8914342D01*
X121566309Y-8914342D02*
X121518690Y-9009580D01*
X121518690Y-9009580D02*
X121471071Y-9057200D01*
X121471071Y-9057200D02*
X121375833Y-9104819D01*
X121375833Y-9104819D02*
X121090119Y-9104819D01*
X121090119Y-9104819D02*
X120994881Y-9057200D01*
X120994881Y-9057200D02*
X120947262Y-9009580D01*
%TO.C,U32*%
X252630892Y67618990D02*
X252773749Y67571371D01*
X252773749Y67571371D02*
X252821368Y67523752D01*
X252821368Y67523752D02*
X252868987Y67428514D01*
X252868987Y67428514D02*
X252868987Y67285657D01*
X252868987Y67285657D02*
X252821368Y67190419D01*
X252821368Y67190419D02*
X252773749Y67142800D01*
X252773749Y67142800D02*
X252678511Y67095180D01*
X252678511Y67095180D02*
X252297559Y67095180D01*
X252297559Y67095180D02*
X252297559Y68095180D01*
X252297559Y68095180D02*
X252630892Y68095180D01*
X252630892Y68095180D02*
X252726130Y68047561D01*
X252726130Y68047561D02*
X252773749Y67999942D01*
X252773749Y67999942D02*
X252821368Y67904704D01*
X252821368Y67904704D02*
X252821368Y67809466D01*
X252821368Y67809466D02*
X252773749Y67714228D01*
X252773749Y67714228D02*
X252726130Y67666609D01*
X252726130Y67666609D02*
X252630892Y67618990D01*
X252630892Y67618990D02*
X252297559Y67618990D01*
X253726130Y67095180D02*
X253726130Y67618990D01*
X253726130Y67618990D02*
X253678511Y67714228D01*
X253678511Y67714228D02*
X253583273Y67761847D01*
X253583273Y67761847D02*
X253392797Y67761847D01*
X253392797Y67761847D02*
X253297559Y67714228D01*
X253726130Y67142800D02*
X253630892Y67095180D01*
X253630892Y67095180D02*
X253392797Y67095180D01*
X253392797Y67095180D02*
X253297559Y67142800D01*
X253297559Y67142800D02*
X253249940Y67238038D01*
X253249940Y67238038D02*
X253249940Y67333276D01*
X253249940Y67333276D02*
X253297559Y67428514D01*
X253297559Y67428514D02*
X253392797Y67476133D01*
X253392797Y67476133D02*
X253630892Y67476133D01*
X253630892Y67476133D02*
X253726130Y67523752D01*
X254630892Y67142800D02*
X254535654Y67095180D01*
X254535654Y67095180D02*
X254345178Y67095180D01*
X254345178Y67095180D02*
X254249940Y67142800D01*
X254249940Y67142800D02*
X254202321Y67190419D01*
X254202321Y67190419D02*
X254154702Y67285657D01*
X254154702Y67285657D02*
X254154702Y67571371D01*
X254154702Y67571371D02*
X254202321Y67666609D01*
X254202321Y67666609D02*
X254249940Y67714228D01*
X254249940Y67714228D02*
X254345178Y67761847D01*
X254345178Y67761847D02*
X254535654Y67761847D01*
X254535654Y67761847D02*
X254630892Y67714228D01*
X255059464Y67095180D02*
X255059464Y68095180D01*
X255154702Y67476133D02*
X255440416Y67095180D01*
X255440416Y67761847D02*
X255059464Y67380895D01*
X255821369Y67142800D02*
X255964226Y67095180D01*
X255964226Y67095180D02*
X256202321Y67095180D01*
X256202321Y67095180D02*
X256297559Y67142800D01*
X256297559Y67142800D02*
X256345178Y67190419D01*
X256345178Y67190419D02*
X256392797Y67285657D01*
X256392797Y67285657D02*
X256392797Y67380895D01*
X256392797Y67380895D02*
X256345178Y67476133D01*
X256345178Y67476133D02*
X256297559Y67523752D01*
X256297559Y67523752D02*
X256202321Y67571371D01*
X256202321Y67571371D02*
X256011845Y67618990D01*
X256011845Y67618990D02*
X255916607Y67666609D01*
X255916607Y67666609D02*
X255868988Y67714228D01*
X255868988Y67714228D02*
X255821369Y67809466D01*
X255821369Y67809466D02*
X255821369Y67904704D01*
X255821369Y67904704D02*
X255868988Y67999942D01*
X255868988Y67999942D02*
X255916607Y68047561D01*
X255916607Y68047561D02*
X256011845Y68095180D01*
X256011845Y68095180D02*
X256249940Y68095180D01*
X256249940Y68095180D02*
X256392797Y68047561D01*
X256821369Y67761847D02*
X256821369Y66761847D01*
X256821369Y67714228D02*
X256916607Y67761847D01*
X256916607Y67761847D02*
X257107083Y67761847D01*
X257107083Y67761847D02*
X257202321Y67714228D01*
X257202321Y67714228D02*
X257249940Y67666609D01*
X257249940Y67666609D02*
X257297559Y67571371D01*
X257297559Y67571371D02*
X257297559Y67285657D01*
X257297559Y67285657D02*
X257249940Y67190419D01*
X257249940Y67190419D02*
X257202321Y67142800D01*
X257202321Y67142800D02*
X257107083Y67095180D01*
X257107083Y67095180D02*
X256916607Y67095180D01*
X256916607Y67095180D02*
X256821369Y67142800D01*
%TO.C,U67*%
X40127917Y10945180D02*
X40794583Y10945180D01*
X40794583Y10945180D02*
X40127917Y9945180D01*
X40127917Y9945180D02*
X40794583Y9945180D01*
%TO.C,U18*%
X319924940Y86145180D02*
X319924940Y87145180D01*
X319924940Y87145180D02*
X320305892Y87145180D01*
X320305892Y87145180D02*
X320401130Y87097561D01*
X320401130Y87097561D02*
X320448749Y87049942D01*
X320448749Y87049942D02*
X320496368Y86954704D01*
X320496368Y86954704D02*
X320496368Y86811847D01*
X320496368Y86811847D02*
X320448749Y86716609D01*
X320448749Y86716609D02*
X320401130Y86668990D01*
X320401130Y86668990D02*
X320305892Y86621371D01*
X320305892Y86621371D02*
X319924940Y86621371D01*
X321067797Y86145180D02*
X320972559Y86192800D01*
X320972559Y86192800D02*
X320924940Y86240419D01*
X320924940Y86240419D02*
X320877321Y86335657D01*
X320877321Y86335657D02*
X320877321Y86621371D01*
X320877321Y86621371D02*
X320924940Y86716609D01*
X320924940Y86716609D02*
X320972559Y86764228D01*
X320972559Y86764228D02*
X321067797Y86811847D01*
X321067797Y86811847D02*
X321210654Y86811847D01*
X321210654Y86811847D02*
X321305892Y86764228D01*
X321305892Y86764228D02*
X321353511Y86716609D01*
X321353511Y86716609D02*
X321401130Y86621371D01*
X321401130Y86621371D02*
X321401130Y86335657D01*
X321401130Y86335657D02*
X321353511Y86240419D01*
X321353511Y86240419D02*
X321305892Y86192800D01*
X321305892Y86192800D02*
X321210654Y86145180D01*
X321210654Y86145180D02*
X321067797Y86145180D01*
X322163035Y86668990D02*
X322305892Y86621371D01*
X322305892Y86621371D02*
X322353511Y86573752D01*
X322353511Y86573752D02*
X322401130Y86478514D01*
X322401130Y86478514D02*
X322401130Y86335657D01*
X322401130Y86335657D02*
X322353511Y86240419D01*
X322353511Y86240419D02*
X322305892Y86192800D01*
X322305892Y86192800D02*
X322210654Y86145180D01*
X322210654Y86145180D02*
X321829702Y86145180D01*
X321829702Y86145180D02*
X321829702Y87145180D01*
X321829702Y87145180D02*
X322163035Y87145180D01*
X322163035Y87145180D02*
X322258273Y87097561D01*
X322258273Y87097561D02*
X322305892Y87049942D01*
X322305892Y87049942D02*
X322353511Y86954704D01*
X322353511Y86954704D02*
X322353511Y86859466D01*
X322353511Y86859466D02*
X322305892Y86764228D01*
X322305892Y86764228D02*
X322258273Y86716609D01*
X322258273Y86716609D02*
X322163035Y86668990D01*
X322163035Y86668990D02*
X321829702Y86668990D01*
X322829702Y86145180D02*
X322829702Y86811847D01*
X322829702Y86621371D02*
X322877321Y86716609D01*
X322877321Y86716609D02*
X322924940Y86764228D01*
X322924940Y86764228D02*
X323020178Y86811847D01*
X323020178Y86811847D02*
X323115416Y86811847D01*
%TO.C,U84*%
X92706190Y-9057200D02*
X92849047Y-9104819D01*
X92849047Y-9104819D02*
X93087142Y-9104819D01*
X93087142Y-9104819D02*
X93182380Y-9057200D01*
X93182380Y-9057200D02*
X93229999Y-9009580D01*
X93229999Y-9009580D02*
X93277618Y-8914342D01*
X93277618Y-8914342D02*
X93277618Y-8819104D01*
X93277618Y-8819104D02*
X93229999Y-8723866D01*
X93229999Y-8723866D02*
X93182380Y-8676247D01*
X93182380Y-8676247D02*
X93087142Y-8628628D01*
X93087142Y-8628628D02*
X92896666Y-8581009D01*
X92896666Y-8581009D02*
X92801428Y-8533390D01*
X92801428Y-8533390D02*
X92753809Y-8485771D01*
X92753809Y-8485771D02*
X92706190Y-8390533D01*
X92706190Y-8390533D02*
X92706190Y-8295295D01*
X92706190Y-8295295D02*
X92753809Y-8200057D01*
X92753809Y-8200057D02*
X92801428Y-8152438D01*
X92801428Y-8152438D02*
X92896666Y-8104819D01*
X92896666Y-8104819D02*
X93134761Y-8104819D01*
X93134761Y-8104819D02*
X93277618Y-8152438D01*
X93706190Y-8438152D02*
X93706190Y-9438152D01*
X93706190Y-8485771D02*
X93801428Y-8438152D01*
X93801428Y-8438152D02*
X93991904Y-8438152D01*
X93991904Y-8438152D02*
X94087142Y-8485771D01*
X94087142Y-8485771D02*
X94134761Y-8533390D01*
X94134761Y-8533390D02*
X94182380Y-8628628D01*
X94182380Y-8628628D02*
X94182380Y-8914342D01*
X94182380Y-8914342D02*
X94134761Y-9009580D01*
X94134761Y-9009580D02*
X94087142Y-9057200D01*
X94087142Y-9057200D02*
X93991904Y-9104819D01*
X93991904Y-9104819D02*
X93801428Y-9104819D01*
X93801428Y-9104819D02*
X93706190Y-9057200D01*
X95039523Y-9104819D02*
X95039523Y-8581009D01*
X95039523Y-8581009D02*
X94991904Y-8485771D01*
X94991904Y-8485771D02*
X94896666Y-8438152D01*
X94896666Y-8438152D02*
X94706190Y-8438152D01*
X94706190Y-8438152D02*
X94610952Y-8485771D01*
X95039523Y-9057200D02*
X94944285Y-9104819D01*
X94944285Y-9104819D02*
X94706190Y-9104819D01*
X94706190Y-9104819D02*
X94610952Y-9057200D01*
X94610952Y-9057200D02*
X94563333Y-8961961D01*
X94563333Y-8961961D02*
X94563333Y-8866723D01*
X94563333Y-8866723D02*
X94610952Y-8771485D01*
X94610952Y-8771485D02*
X94706190Y-8723866D01*
X94706190Y-8723866D02*
X94944285Y-8723866D01*
X94944285Y-8723866D02*
X95039523Y-8676247D01*
X95944285Y-9057200D02*
X95849047Y-9104819D01*
X95849047Y-9104819D02*
X95658571Y-9104819D01*
X95658571Y-9104819D02*
X95563333Y-9057200D01*
X95563333Y-9057200D02*
X95515714Y-9009580D01*
X95515714Y-9009580D02*
X95468095Y-8914342D01*
X95468095Y-8914342D02*
X95468095Y-8628628D01*
X95468095Y-8628628D02*
X95515714Y-8533390D01*
X95515714Y-8533390D02*
X95563333Y-8485771D01*
X95563333Y-8485771D02*
X95658571Y-8438152D01*
X95658571Y-8438152D02*
X95849047Y-8438152D01*
X95849047Y-8438152D02*
X95944285Y-8485771D01*
X96753809Y-9057200D02*
X96658571Y-9104819D01*
X96658571Y-9104819D02*
X96468095Y-9104819D01*
X96468095Y-9104819D02*
X96372857Y-9057200D01*
X96372857Y-9057200D02*
X96325238Y-8961961D01*
X96325238Y-8961961D02*
X96325238Y-8581009D01*
X96325238Y-8581009D02*
X96372857Y-8485771D01*
X96372857Y-8485771D02*
X96468095Y-8438152D01*
X96468095Y-8438152D02*
X96658571Y-8438152D01*
X96658571Y-8438152D02*
X96753809Y-8485771D01*
X96753809Y-8485771D02*
X96801428Y-8581009D01*
X96801428Y-8581009D02*
X96801428Y-8676247D01*
X96801428Y-8676247D02*
X96325238Y-8771485D01*
X97182381Y-8200057D02*
X97230000Y-8152438D01*
X97230000Y-8152438D02*
X97325238Y-8104819D01*
X97325238Y-8104819D02*
X97563333Y-8104819D01*
X97563333Y-8104819D02*
X97658571Y-8152438D01*
X97658571Y-8152438D02*
X97706190Y-8200057D01*
X97706190Y-8200057D02*
X97753809Y-8295295D01*
X97753809Y-8295295D02*
X97753809Y-8390533D01*
X97753809Y-8390533D02*
X97706190Y-8533390D01*
X97706190Y-8533390D02*
X97134762Y-9104819D01*
X97134762Y-9104819D02*
X97753809Y-9104819D01*
%TO.C,U14*%
X244439226Y86668990D02*
X244105893Y86668990D01*
X244105893Y86145180D02*
X244105893Y87145180D01*
X244105893Y87145180D02*
X244582083Y87145180D01*
X245486845Y86145180D02*
X244915417Y86145180D01*
X245201131Y86145180D02*
X245201131Y87145180D01*
X245201131Y87145180D02*
X245105893Y87002323D01*
X245105893Y87002323D02*
X245010655Y86907085D01*
X245010655Y86907085D02*
X244915417Y86859466D01*
X246439226Y86145180D02*
X245867798Y86145180D01*
X246153512Y86145180D02*
X246153512Y87145180D01*
X246153512Y87145180D02*
X246058274Y87002323D01*
X246058274Y87002323D02*
X245963036Y86907085D01*
X245963036Y86907085D02*
X245867798Y86859466D01*
%TO.C,U81*%
X21982975Y-9104819D02*
X21506785Y-9104819D01*
X21506785Y-9104819D02*
X21506785Y-8104819D01*
X22268690Y-9057200D02*
X22411547Y-9104819D01*
X22411547Y-9104819D02*
X22649642Y-9104819D01*
X22649642Y-9104819D02*
X22744880Y-9057200D01*
X22744880Y-9057200D02*
X22792499Y-9009580D01*
X22792499Y-9009580D02*
X22840118Y-8914342D01*
X22840118Y-8914342D02*
X22840118Y-8819104D01*
X22840118Y-8819104D02*
X22792499Y-8723866D01*
X22792499Y-8723866D02*
X22744880Y-8676247D01*
X22744880Y-8676247D02*
X22649642Y-8628628D01*
X22649642Y-8628628D02*
X22459166Y-8581009D01*
X22459166Y-8581009D02*
X22363928Y-8533390D01*
X22363928Y-8533390D02*
X22316309Y-8485771D01*
X22316309Y-8485771D02*
X22268690Y-8390533D01*
X22268690Y-8390533D02*
X22268690Y-8295295D01*
X22268690Y-8295295D02*
X22316309Y-8200057D01*
X22316309Y-8200057D02*
X22363928Y-8152438D01*
X22363928Y-8152438D02*
X22459166Y-8104819D01*
X22459166Y-8104819D02*
X22697261Y-8104819D01*
X22697261Y-8104819D02*
X22840118Y-8152438D01*
X23697261Y-8438152D02*
X23697261Y-9104819D01*
X23268690Y-8438152D02*
X23268690Y-8961961D01*
X23268690Y-8961961D02*
X23316309Y-9057200D01*
X23316309Y-9057200D02*
X23411547Y-9104819D01*
X23411547Y-9104819D02*
X23554404Y-9104819D01*
X23554404Y-9104819D02*
X23649642Y-9057200D01*
X23649642Y-9057200D02*
X23697261Y-9009580D01*
X24173452Y-8438152D02*
X24173452Y-9438152D01*
X24173452Y-8485771D02*
X24268690Y-8438152D01*
X24268690Y-8438152D02*
X24459166Y-8438152D01*
X24459166Y-8438152D02*
X24554404Y-8485771D01*
X24554404Y-8485771D02*
X24602023Y-8533390D01*
X24602023Y-8533390D02*
X24649642Y-8628628D01*
X24649642Y-8628628D02*
X24649642Y-8914342D01*
X24649642Y-8914342D02*
X24602023Y-9009580D01*
X24602023Y-9009580D02*
X24554404Y-9057200D01*
X24554404Y-9057200D02*
X24459166Y-9104819D01*
X24459166Y-9104819D02*
X24268690Y-9104819D01*
X24268690Y-9104819D02*
X24173452Y-9057200D01*
X25459166Y-9057200D02*
X25363928Y-9104819D01*
X25363928Y-9104819D02*
X25173452Y-9104819D01*
X25173452Y-9104819D02*
X25078214Y-9057200D01*
X25078214Y-9057200D02*
X25030595Y-8961961D01*
X25030595Y-8961961D02*
X25030595Y-8581009D01*
X25030595Y-8581009D02*
X25078214Y-8485771D01*
X25078214Y-8485771D02*
X25173452Y-8438152D01*
X25173452Y-8438152D02*
X25363928Y-8438152D01*
X25363928Y-8438152D02*
X25459166Y-8485771D01*
X25459166Y-8485771D02*
X25506785Y-8581009D01*
X25506785Y-8581009D02*
X25506785Y-8676247D01*
X25506785Y-8676247D02*
X25030595Y-8771485D01*
X25935357Y-9104819D02*
X25935357Y-8438152D01*
X25935357Y-8628628D02*
X25982976Y-8533390D01*
X25982976Y-8533390D02*
X26030595Y-8485771D01*
X26030595Y-8485771D02*
X26125833Y-8438152D01*
X26125833Y-8438152D02*
X26221071Y-8438152D01*
%TO.C,U74*%
X174192203Y10611847D02*
X173430298Y10326133D01*
X173430298Y10326133D02*
X174192203Y10040419D01*
%TO.C,U88*%
X299898749Y29042800D02*
X299803511Y28995180D01*
X299803511Y28995180D02*
X299613035Y28995180D01*
X299613035Y28995180D02*
X299517797Y29042800D01*
X299517797Y29042800D02*
X299470178Y29090419D01*
X299470178Y29090419D02*
X299422559Y29185657D01*
X299422559Y29185657D02*
X299422559Y29471371D01*
X299422559Y29471371D02*
X299470178Y29566609D01*
X299470178Y29566609D02*
X299517797Y29614228D01*
X299517797Y29614228D02*
X299613035Y29661847D01*
X299613035Y29661847D02*
X299803511Y29661847D01*
X299803511Y29661847D02*
X299898749Y29614228D01*
X300755892Y29661847D02*
X300755892Y28995180D01*
X300327321Y29661847D02*
X300327321Y29138038D01*
X300327321Y29138038D02*
X300374940Y29042800D01*
X300374940Y29042800D02*
X300470178Y28995180D01*
X300470178Y28995180D02*
X300613035Y28995180D01*
X300613035Y28995180D02*
X300708273Y29042800D01*
X300708273Y29042800D02*
X300755892Y29090419D01*
X301184464Y29042800D02*
X301279702Y28995180D01*
X301279702Y28995180D02*
X301470178Y28995180D01*
X301470178Y28995180D02*
X301565416Y29042800D01*
X301565416Y29042800D02*
X301613035Y29138038D01*
X301613035Y29138038D02*
X301613035Y29185657D01*
X301613035Y29185657D02*
X301565416Y29280895D01*
X301565416Y29280895D02*
X301470178Y29328514D01*
X301470178Y29328514D02*
X301327321Y29328514D01*
X301327321Y29328514D02*
X301232083Y29376133D01*
X301232083Y29376133D02*
X301184464Y29471371D01*
X301184464Y29471371D02*
X301184464Y29518990D01*
X301184464Y29518990D02*
X301232083Y29614228D01*
X301232083Y29614228D02*
X301327321Y29661847D01*
X301327321Y29661847D02*
X301470178Y29661847D01*
X301470178Y29661847D02*
X301565416Y29614228D01*
X301898750Y29661847D02*
X302279702Y29661847D01*
X302041607Y29995180D02*
X302041607Y29138038D01*
X302041607Y29138038D02*
X302089226Y29042800D01*
X302089226Y29042800D02*
X302184464Y28995180D01*
X302184464Y28995180D02*
X302279702Y28995180D01*
X302755893Y28995180D02*
X302660655Y29042800D01*
X302660655Y29042800D02*
X302613036Y29090419D01*
X302613036Y29090419D02*
X302565417Y29185657D01*
X302565417Y29185657D02*
X302565417Y29471371D01*
X302565417Y29471371D02*
X302613036Y29566609D01*
X302613036Y29566609D02*
X302660655Y29614228D01*
X302660655Y29614228D02*
X302755893Y29661847D01*
X302755893Y29661847D02*
X302898750Y29661847D01*
X302898750Y29661847D02*
X302993988Y29614228D01*
X302993988Y29614228D02*
X303041607Y29566609D01*
X303041607Y29566609D02*
X303089226Y29471371D01*
X303089226Y29471371D02*
X303089226Y29185657D01*
X303089226Y29185657D02*
X303041607Y29090419D01*
X303041607Y29090419D02*
X302993988Y29042800D01*
X302993988Y29042800D02*
X302898750Y28995180D01*
X302898750Y28995180D02*
X302755893Y28995180D01*
X303517798Y28995180D02*
X303517798Y29661847D01*
X303517798Y29566609D02*
X303565417Y29614228D01*
X303565417Y29614228D02*
X303660655Y29661847D01*
X303660655Y29661847D02*
X303803512Y29661847D01*
X303803512Y29661847D02*
X303898750Y29614228D01*
X303898750Y29614228D02*
X303946369Y29518990D01*
X303946369Y29518990D02*
X303946369Y28995180D01*
X303946369Y29518990D02*
X303993988Y29614228D01*
X303993988Y29614228D02*
X304089226Y29661847D01*
X304089226Y29661847D02*
X304232083Y29661847D01*
X304232083Y29661847D02*
X304327322Y29614228D01*
X304327322Y29614228D02*
X304374941Y29518990D01*
X304374941Y29518990D02*
X304374941Y28995180D01*
X304803512Y29899942D02*
X304851131Y29947561D01*
X304851131Y29947561D02*
X304946369Y29995180D01*
X304946369Y29995180D02*
X305184464Y29995180D01*
X305184464Y29995180D02*
X305279702Y29947561D01*
X305279702Y29947561D02*
X305327321Y29899942D01*
X305327321Y29899942D02*
X305374940Y29804704D01*
X305374940Y29804704D02*
X305374940Y29709466D01*
X305374940Y29709466D02*
X305327321Y29566609D01*
X305327321Y29566609D02*
X304755893Y28995180D01*
X304755893Y28995180D02*
X305374940Y28995180D01*
%TO.C,U51*%
X301279702Y48568990D02*
X301613035Y48568990D01*
X301755892Y48045180D02*
X301279702Y48045180D01*
X301279702Y48045180D02*
X301279702Y49045180D01*
X301279702Y49045180D02*
X301755892Y49045180D01*
X302184464Y48711847D02*
X302184464Y48045180D01*
X302184464Y48616609D02*
X302232083Y48664228D01*
X302232083Y48664228D02*
X302327321Y48711847D01*
X302327321Y48711847D02*
X302470178Y48711847D01*
X302470178Y48711847D02*
X302565416Y48664228D01*
X302565416Y48664228D02*
X302613035Y48568990D01*
X302613035Y48568990D02*
X302613035Y48045180D01*
X303517797Y48045180D02*
X303517797Y49045180D01*
X303517797Y48092800D02*
X303422559Y48045180D01*
X303422559Y48045180D02*
X303232083Y48045180D01*
X303232083Y48045180D02*
X303136845Y48092800D01*
X303136845Y48092800D02*
X303089226Y48140419D01*
X303089226Y48140419D02*
X303041607Y48235657D01*
X303041607Y48235657D02*
X303041607Y48521371D01*
X303041607Y48521371D02*
X303089226Y48616609D01*
X303089226Y48616609D02*
X303136845Y48664228D01*
X303136845Y48664228D02*
X303232083Y48711847D01*
X303232083Y48711847D02*
X303422559Y48711847D01*
X303422559Y48711847D02*
X303517797Y48664228D01*
%TO.C,U13*%
X225389226Y86668990D02*
X225055893Y86668990D01*
X225055893Y86145180D02*
X225055893Y87145180D01*
X225055893Y87145180D02*
X225532083Y87145180D01*
X226436845Y86145180D02*
X225865417Y86145180D01*
X226151131Y86145180D02*
X226151131Y87145180D01*
X226151131Y87145180D02*
X226055893Y87002323D01*
X226055893Y87002323D02*
X225960655Y86907085D01*
X225960655Y86907085D02*
X225865417Y86859466D01*
X227055893Y87145180D02*
X227151131Y87145180D01*
X227151131Y87145180D02*
X227246369Y87097561D01*
X227246369Y87097561D02*
X227293988Y87049942D01*
X227293988Y87049942D02*
X227341607Y86954704D01*
X227341607Y86954704D02*
X227389226Y86764228D01*
X227389226Y86764228D02*
X227389226Y86526133D01*
X227389226Y86526133D02*
X227341607Y86335657D01*
X227341607Y86335657D02*
X227293988Y86240419D01*
X227293988Y86240419D02*
X227246369Y86192800D01*
X227246369Y86192800D02*
X227151131Y86145180D01*
X227151131Y86145180D02*
X227055893Y86145180D01*
X227055893Y86145180D02*
X226960655Y86192800D01*
X226960655Y86192800D02*
X226913036Y86240419D01*
X226913036Y86240419D02*
X226865417Y86335657D01*
X226865417Y86335657D02*
X226817798Y86526133D01*
X226817798Y86526133D02*
X226817798Y86764228D01*
X226817798Y86764228D02*
X226865417Y86954704D01*
X226865417Y86954704D02*
X226913036Y87049942D01*
X226913036Y87049942D02*
X226960655Y87097561D01*
X226960655Y87097561D02*
X227055893Y87145180D01*
%TO.C,H5*%
X130048095Y-254819D02*
X130048095Y745180D01*
X130048095Y268990D02*
X130619523Y268990D01*
X130619523Y-254819D02*
X130619523Y745180D01*
X131571904Y745180D02*
X131095714Y745180D01*
X131095714Y745180D02*
X131048095Y268990D01*
X131048095Y268990D02*
X131095714Y316609D01*
X131095714Y316609D02*
X131190952Y364228D01*
X131190952Y364228D02*
X131429047Y364228D01*
X131429047Y364228D02*
X131524285Y316609D01*
X131524285Y316609D02*
X131571904Y268990D01*
X131571904Y268990D02*
X131619523Y173752D01*
X131619523Y173752D02*
X131619523Y-64342D01*
X131619523Y-64342D02*
X131571904Y-159580D01*
X131571904Y-159580D02*
X131524285Y-207200D01*
X131524285Y-207200D02*
X131429047Y-254819D01*
X131429047Y-254819D02*
X131190952Y-254819D01*
X131190952Y-254819D02*
X131095714Y-207200D01*
X131095714Y-207200D02*
X131048095Y-159580D01*
%TO.C,U28*%
X168858274Y67095180D02*
X169048750Y67095180D01*
X169048750Y67095180D02*
X169143988Y67142800D01*
X169143988Y67142800D02*
X169191607Y67190419D01*
X169191607Y67190419D02*
X169286845Y67333276D01*
X169286845Y67333276D02*
X169334464Y67523752D01*
X169334464Y67523752D02*
X169334464Y67904704D01*
X169334464Y67904704D02*
X169286845Y67999942D01*
X169286845Y67999942D02*
X169239226Y68047561D01*
X169239226Y68047561D02*
X169143988Y68095180D01*
X169143988Y68095180D02*
X168953512Y68095180D01*
X168953512Y68095180D02*
X168858274Y68047561D01*
X168858274Y68047561D02*
X168810655Y67999942D01*
X168810655Y67999942D02*
X168763036Y67904704D01*
X168763036Y67904704D02*
X168763036Y67666609D01*
X168763036Y67666609D02*
X168810655Y67571371D01*
X168810655Y67571371D02*
X168858274Y67523752D01*
X168858274Y67523752D02*
X168953512Y67476133D01*
X168953512Y67476133D02*
X169143988Y67476133D01*
X169143988Y67476133D02*
X169239226Y67523752D01*
X169239226Y67523752D02*
X169286845Y67571371D01*
X169286845Y67571371D02*
X169334464Y67666609D01*
%TO.C,H9*%
X326898095Y109245180D02*
X326898095Y110245180D01*
X326898095Y109768990D02*
X327469523Y109768990D01*
X327469523Y109245180D02*
X327469523Y110245180D01*
X327993333Y109245180D02*
X328183809Y109245180D01*
X328183809Y109245180D02*
X328279047Y109292800D01*
X328279047Y109292800D02*
X328326666Y109340419D01*
X328326666Y109340419D02*
X328421904Y109483276D01*
X328421904Y109483276D02*
X328469523Y109673752D01*
X328469523Y109673752D02*
X328469523Y110054704D01*
X328469523Y110054704D02*
X328421904Y110149942D01*
X328421904Y110149942D02*
X328374285Y110197561D01*
X328374285Y110197561D02*
X328279047Y110245180D01*
X328279047Y110245180D02*
X328088571Y110245180D01*
X328088571Y110245180D02*
X327993333Y110197561D01*
X327993333Y110197561D02*
X327945714Y110149942D01*
X327945714Y110149942D02*
X327898095Y110054704D01*
X327898095Y110054704D02*
X327898095Y109816609D01*
X327898095Y109816609D02*
X327945714Y109721371D01*
X327945714Y109721371D02*
X327993333Y109673752D01*
X327993333Y109673752D02*
X328088571Y109626133D01*
X328088571Y109626133D02*
X328279047Y109626133D01*
X328279047Y109626133D02*
X328374285Y109673752D01*
X328374285Y109673752D02*
X328421904Y109721371D01*
X328421904Y109721371D02*
X328469523Y109816609D01*
%TO.C,U10*%
X163952916Y86668990D02*
X163619583Y86668990D01*
X163619583Y86145180D02*
X163619583Y87145180D01*
X163619583Y87145180D02*
X164095773Y87145180D01*
X164381488Y87145180D02*
X165048154Y87145180D01*
X165048154Y87145180D02*
X164619583Y86145180D01*
%TO.C,U96*%
X318948749Y29042800D02*
X318853511Y28995180D01*
X318853511Y28995180D02*
X318663035Y28995180D01*
X318663035Y28995180D02*
X318567797Y29042800D01*
X318567797Y29042800D02*
X318520178Y29090419D01*
X318520178Y29090419D02*
X318472559Y29185657D01*
X318472559Y29185657D02*
X318472559Y29471371D01*
X318472559Y29471371D02*
X318520178Y29566609D01*
X318520178Y29566609D02*
X318567797Y29614228D01*
X318567797Y29614228D02*
X318663035Y29661847D01*
X318663035Y29661847D02*
X318853511Y29661847D01*
X318853511Y29661847D02*
X318948749Y29614228D01*
X319805892Y29661847D02*
X319805892Y28995180D01*
X319377321Y29661847D02*
X319377321Y29138038D01*
X319377321Y29138038D02*
X319424940Y29042800D01*
X319424940Y29042800D02*
X319520178Y28995180D01*
X319520178Y28995180D02*
X319663035Y28995180D01*
X319663035Y28995180D02*
X319758273Y29042800D01*
X319758273Y29042800D02*
X319805892Y29090419D01*
X320234464Y29042800D02*
X320329702Y28995180D01*
X320329702Y28995180D02*
X320520178Y28995180D01*
X320520178Y28995180D02*
X320615416Y29042800D01*
X320615416Y29042800D02*
X320663035Y29138038D01*
X320663035Y29138038D02*
X320663035Y29185657D01*
X320663035Y29185657D02*
X320615416Y29280895D01*
X320615416Y29280895D02*
X320520178Y29328514D01*
X320520178Y29328514D02*
X320377321Y29328514D01*
X320377321Y29328514D02*
X320282083Y29376133D01*
X320282083Y29376133D02*
X320234464Y29471371D01*
X320234464Y29471371D02*
X320234464Y29518990D01*
X320234464Y29518990D02*
X320282083Y29614228D01*
X320282083Y29614228D02*
X320377321Y29661847D01*
X320377321Y29661847D02*
X320520178Y29661847D01*
X320520178Y29661847D02*
X320615416Y29614228D01*
X320948750Y29661847D02*
X321329702Y29661847D01*
X321091607Y29995180D02*
X321091607Y29138038D01*
X321091607Y29138038D02*
X321139226Y29042800D01*
X321139226Y29042800D02*
X321234464Y28995180D01*
X321234464Y28995180D02*
X321329702Y28995180D01*
X321805893Y28995180D02*
X321710655Y29042800D01*
X321710655Y29042800D02*
X321663036Y29090419D01*
X321663036Y29090419D02*
X321615417Y29185657D01*
X321615417Y29185657D02*
X321615417Y29471371D01*
X321615417Y29471371D02*
X321663036Y29566609D01*
X321663036Y29566609D02*
X321710655Y29614228D01*
X321710655Y29614228D02*
X321805893Y29661847D01*
X321805893Y29661847D02*
X321948750Y29661847D01*
X321948750Y29661847D02*
X322043988Y29614228D01*
X322043988Y29614228D02*
X322091607Y29566609D01*
X322091607Y29566609D02*
X322139226Y29471371D01*
X322139226Y29471371D02*
X322139226Y29185657D01*
X322139226Y29185657D02*
X322091607Y29090419D01*
X322091607Y29090419D02*
X322043988Y29042800D01*
X322043988Y29042800D02*
X321948750Y28995180D01*
X321948750Y28995180D02*
X321805893Y28995180D01*
X322567798Y28995180D02*
X322567798Y29661847D01*
X322567798Y29566609D02*
X322615417Y29614228D01*
X322615417Y29614228D02*
X322710655Y29661847D01*
X322710655Y29661847D02*
X322853512Y29661847D01*
X322853512Y29661847D02*
X322948750Y29614228D01*
X322948750Y29614228D02*
X322996369Y29518990D01*
X322996369Y29518990D02*
X322996369Y28995180D01*
X322996369Y29518990D02*
X323043988Y29614228D01*
X323043988Y29614228D02*
X323139226Y29661847D01*
X323139226Y29661847D02*
X323282083Y29661847D01*
X323282083Y29661847D02*
X323377322Y29614228D01*
X323377322Y29614228D02*
X323424941Y29518990D01*
X323424941Y29518990D02*
X323424941Y28995180D01*
X323805893Y29995180D02*
X324424940Y29995180D01*
X324424940Y29995180D02*
X324091607Y29614228D01*
X324091607Y29614228D02*
X324234464Y29614228D01*
X324234464Y29614228D02*
X324329702Y29566609D01*
X324329702Y29566609D02*
X324377321Y29518990D01*
X324377321Y29518990D02*
X324424940Y29423752D01*
X324424940Y29423752D02*
X324424940Y29185657D01*
X324424940Y29185657D02*
X324377321Y29090419D01*
X324377321Y29090419D02*
X324329702Y29042800D01*
X324329702Y29042800D02*
X324234464Y28995180D01*
X324234464Y28995180D02*
X323948750Y28995180D01*
X323948750Y28995180D02*
X323853512Y29042800D01*
X323853512Y29042800D02*
X323805893Y29090419D01*
%TO.C,H3*%
X77819345Y37273305D02*
X77819345Y38273305D01*
X77819345Y37797115D02*
X78390773Y37797115D01*
X78390773Y37273305D02*
X78390773Y38273305D01*
X78771726Y38273305D02*
X79390773Y38273305D01*
X79390773Y38273305D02*
X79057440Y37892353D01*
X79057440Y37892353D02*
X79200297Y37892353D01*
X79200297Y37892353D02*
X79295535Y37844734D01*
X79295535Y37844734D02*
X79343154Y37797115D01*
X79343154Y37797115D02*
X79390773Y37701877D01*
X79390773Y37701877D02*
X79390773Y37463782D01*
X79390773Y37463782D02*
X79343154Y37368544D01*
X79343154Y37368544D02*
X79295535Y37320925D01*
X79295535Y37320925D02*
X79200297Y37273305D01*
X79200297Y37273305D02*
X78914583Y37273305D01*
X78914583Y37273305D02*
X78819345Y37320925D01*
X78819345Y37320925D02*
X78771726Y37368544D01*
%TO.C,U95*%
X320163036Y-8819104D02*
X320639226Y-8819104D01*
X320067798Y-9104819D02*
X320401131Y-8104819D01*
X320401131Y-8104819D02*
X320734464Y-9104819D01*
X321067798Y-9104819D02*
X321067798Y-8438152D01*
X321067798Y-8628628D02*
X321115417Y-8533390D01*
X321115417Y-8533390D02*
X321163036Y-8485771D01*
X321163036Y-8485771D02*
X321258274Y-8438152D01*
X321258274Y-8438152D02*
X321353512Y-8438152D01*
X322258274Y-9104819D02*
X321924941Y-8628628D01*
X321686846Y-9104819D02*
X321686846Y-8104819D01*
X321686846Y-8104819D02*
X322067798Y-8104819D01*
X322067798Y-8104819D02*
X322163036Y-8152438D01*
X322163036Y-8152438D02*
X322210655Y-8200057D01*
X322210655Y-8200057D02*
X322258274Y-8295295D01*
X322258274Y-8295295D02*
X322258274Y-8438152D01*
X322258274Y-8438152D02*
X322210655Y-8533390D01*
X322210655Y-8533390D02*
X322163036Y-8581009D01*
X322163036Y-8581009D02*
X322067798Y-8628628D01*
X322067798Y-8628628D02*
X321686846Y-8628628D01*
X322686846Y-9104819D02*
X322686846Y-8438152D01*
X322686846Y-8104819D02*
X322639227Y-8152438D01*
X322639227Y-8152438D02*
X322686846Y-8200057D01*
X322686846Y-8200057D02*
X322734465Y-8152438D01*
X322734465Y-8152438D02*
X322686846Y-8104819D01*
X322686846Y-8104819D02*
X322686846Y-8200057D01*
%TO.C,U2*%
X-3591725Y86668990D02*
X-3258392Y86668990D01*
X-3115535Y86145180D02*
X-3591725Y86145180D01*
X-3591725Y86145180D02*
X-3591725Y87145180D01*
X-3591725Y87145180D02*
X-3115535Y87145180D01*
X-2734582Y86192800D02*
X-2591725Y86145180D01*
X-2591725Y86145180D02*
X-2353630Y86145180D01*
X-2353630Y86145180D02*
X-2258392Y86192800D01*
X-2258392Y86192800D02*
X-2210773Y86240419D01*
X-2210773Y86240419D02*
X-2163154Y86335657D01*
X-2163154Y86335657D02*
X-2163154Y86430895D01*
X-2163154Y86430895D02*
X-2210773Y86526133D01*
X-2210773Y86526133D02*
X-2258392Y86573752D01*
X-2258392Y86573752D02*
X-2353630Y86621371D01*
X-2353630Y86621371D02*
X-2544106Y86668990D01*
X-2544106Y86668990D02*
X-2639344Y86716609D01*
X-2639344Y86716609D02*
X-2686963Y86764228D01*
X-2686963Y86764228D02*
X-2734582Y86859466D01*
X-2734582Y86859466D02*
X-2734582Y86954704D01*
X-2734582Y86954704D02*
X-2686963Y87049942D01*
X-2686963Y87049942D02*
X-2639344Y87097561D01*
X-2639344Y87097561D02*
X-2544106Y87145180D01*
X-2544106Y87145180D02*
X-2306011Y87145180D01*
X-2306011Y87145180D02*
X-2163154Y87097561D01*
X-1163154Y86240419D02*
X-1210773Y86192800D01*
X-1210773Y86192800D02*
X-1353630Y86145180D01*
X-1353630Y86145180D02*
X-1448868Y86145180D01*
X-1448868Y86145180D02*
X-1591725Y86192800D01*
X-1591725Y86192800D02*
X-1686963Y86288038D01*
X-1686963Y86288038D02*
X-1734582Y86383276D01*
X-1734582Y86383276D02*
X-1782201Y86573752D01*
X-1782201Y86573752D02*
X-1782201Y86716609D01*
X-1782201Y86716609D02*
X-1734582Y86907085D01*
X-1734582Y86907085D02*
X-1686963Y87002323D01*
X-1686963Y87002323D02*
X-1591725Y87097561D01*
X-1591725Y87097561D02*
X-1448868Y87145180D01*
X-1448868Y87145180D02*
X-1353630Y87145180D01*
X-1353630Y87145180D02*
X-1210773Y87097561D01*
X-1210773Y87097561D02*
X-1163154Y87049942D01*
%TO.C,U54*%
X30698155Y29280895D02*
X31174345Y29280895D01*
X30602917Y28995180D02*
X30936250Y29995180D01*
X30936250Y29995180D02*
X31269583Y28995180D01*
%TO.C,U70*%
X97277917Y10945180D02*
X97611250Y9945180D01*
X97611250Y9945180D02*
X97944583Y10945180D01*
%TO.C,U8*%
X125852916Y86668990D02*
X125519583Y86668990D01*
X125519583Y86145180D02*
X125519583Y87145180D01*
X125519583Y87145180D02*
X125995773Y87145180D01*
X126852916Y87145180D02*
X126376726Y87145180D01*
X126376726Y87145180D02*
X126329107Y86668990D01*
X126329107Y86668990D02*
X126376726Y86716609D01*
X126376726Y86716609D02*
X126471964Y86764228D01*
X126471964Y86764228D02*
X126710059Y86764228D01*
X126710059Y86764228D02*
X126805297Y86716609D01*
X126805297Y86716609D02*
X126852916Y86668990D01*
X126852916Y86668990D02*
X126900535Y86573752D01*
X126900535Y86573752D02*
X126900535Y86335657D01*
X126900535Y86335657D02*
X126852916Y86240419D01*
X126852916Y86240419D02*
X126805297Y86192800D01*
X126805297Y86192800D02*
X126710059Y86145180D01*
X126710059Y86145180D02*
X126471964Y86145180D01*
X126471964Y86145180D02*
X126376726Y86192800D01*
X126376726Y86192800D02*
X126329107Y86240419D01*
%TO.C,U29*%
X188051131Y68095180D02*
X188146369Y68095180D01*
X188146369Y68095180D02*
X188241607Y68047561D01*
X188241607Y68047561D02*
X188289226Y67999942D01*
X188289226Y67999942D02*
X188336845Y67904704D01*
X188336845Y67904704D02*
X188384464Y67714228D01*
X188384464Y67714228D02*
X188384464Y67476133D01*
X188384464Y67476133D02*
X188336845Y67285657D01*
X188336845Y67285657D02*
X188289226Y67190419D01*
X188289226Y67190419D02*
X188241607Y67142800D01*
X188241607Y67142800D02*
X188146369Y67095180D01*
X188146369Y67095180D02*
X188051131Y67095180D01*
X188051131Y67095180D02*
X187955893Y67142800D01*
X187955893Y67142800D02*
X187908274Y67190419D01*
X187908274Y67190419D02*
X187860655Y67285657D01*
X187860655Y67285657D02*
X187813036Y67476133D01*
X187813036Y67476133D02*
X187813036Y67714228D01*
X187813036Y67714228D02*
X187860655Y67904704D01*
X187860655Y67904704D02*
X187908274Y67999942D01*
X187908274Y67999942D02*
X187955893Y68047561D01*
X187955893Y68047561D02*
X188051131Y68095180D01*
%TO.C,U52*%
X319782083Y48045180D02*
X319782083Y49045180D01*
X319782083Y49045180D02*
X320163035Y49045180D01*
X320163035Y49045180D02*
X320258273Y48997561D01*
X320258273Y48997561D02*
X320305892Y48949942D01*
X320305892Y48949942D02*
X320353511Y48854704D01*
X320353511Y48854704D02*
X320353511Y48711847D01*
X320353511Y48711847D02*
X320305892Y48616609D01*
X320305892Y48616609D02*
X320258273Y48568990D01*
X320258273Y48568990D02*
X320163035Y48521371D01*
X320163035Y48521371D02*
X319782083Y48521371D01*
X321210654Y48045180D02*
X321210654Y48568990D01*
X321210654Y48568990D02*
X321163035Y48664228D01*
X321163035Y48664228D02*
X321067797Y48711847D01*
X321067797Y48711847D02*
X320877321Y48711847D01*
X320877321Y48711847D02*
X320782083Y48664228D01*
X321210654Y48092800D02*
X321115416Y48045180D01*
X321115416Y48045180D02*
X320877321Y48045180D01*
X320877321Y48045180D02*
X320782083Y48092800D01*
X320782083Y48092800D02*
X320734464Y48188038D01*
X320734464Y48188038D02*
X320734464Y48283276D01*
X320734464Y48283276D02*
X320782083Y48378514D01*
X320782083Y48378514D02*
X320877321Y48426133D01*
X320877321Y48426133D02*
X321115416Y48426133D01*
X321115416Y48426133D02*
X321210654Y48473752D01*
X321686845Y48045180D02*
X321686845Y49045180D01*
X321686845Y49045180D02*
X321924940Y49045180D01*
X321924940Y49045180D02*
X322067797Y48997561D01*
X322067797Y48997561D02*
X322163035Y48902323D01*
X322163035Y48902323D02*
X322210654Y48807085D01*
X322210654Y48807085D02*
X322258273Y48616609D01*
X322258273Y48616609D02*
X322258273Y48473752D01*
X322258273Y48473752D02*
X322210654Y48283276D01*
X322210654Y48283276D02*
X322163035Y48188038D01*
X322163035Y48188038D02*
X322067797Y48092800D01*
X322067797Y48092800D02*
X321924940Y48045180D01*
X321924940Y48045180D02*
X321686845Y48045180D01*
X322829702Y48045180D02*
X322734464Y48092800D01*
X322734464Y48092800D02*
X322686845Y48140419D01*
X322686845Y48140419D02*
X322639226Y48235657D01*
X322639226Y48235657D02*
X322639226Y48521371D01*
X322639226Y48521371D02*
X322686845Y48616609D01*
X322686845Y48616609D02*
X322734464Y48664228D01*
X322734464Y48664228D02*
X322829702Y48711847D01*
X322829702Y48711847D02*
X322972559Y48711847D01*
X322972559Y48711847D02*
X323067797Y48664228D01*
X323067797Y48664228D02*
X323115416Y48616609D01*
X323115416Y48616609D02*
X323163035Y48521371D01*
X323163035Y48521371D02*
X323163035Y48235657D01*
X323163035Y48235657D02*
X323115416Y48140419D01*
X323115416Y48140419D02*
X323067797Y48092800D01*
X323067797Y48092800D02*
X322972559Y48045180D01*
X322972559Y48045180D02*
X322829702Y48045180D01*
%TO.C,H4*%
X272288095Y-254819D02*
X272288095Y745180D01*
X272288095Y268990D02*
X272859523Y268990D01*
X272859523Y-254819D02*
X272859523Y745180D01*
X273764285Y411847D02*
X273764285Y-254819D01*
X273526190Y792800D02*
X273288095Y78514D01*
X273288095Y78514D02*
X273907142Y78514D01*
%TO.C,U5*%
X63940416Y86668990D02*
X63607083Y86668990D01*
X63607083Y86145180D02*
X63607083Y87145180D01*
X63607083Y87145180D02*
X64083273Y87145180D01*
X64416607Y87049942D02*
X64464226Y87097561D01*
X64464226Y87097561D02*
X64559464Y87145180D01*
X64559464Y87145180D02*
X64797559Y87145180D01*
X64797559Y87145180D02*
X64892797Y87097561D01*
X64892797Y87097561D02*
X64940416Y87049942D01*
X64940416Y87049942D02*
X64988035Y86954704D01*
X64988035Y86954704D02*
X64988035Y86859466D01*
X64988035Y86859466D02*
X64940416Y86716609D01*
X64940416Y86716609D02*
X64368988Y86145180D01*
X64368988Y86145180D02*
X64988035Y86145180D01*
%TO.C,U78*%
X256012142Y9945180D02*
X255678809Y10421371D01*
X255440714Y9945180D02*
X255440714Y10945180D01*
X255440714Y10945180D02*
X255821666Y10945180D01*
X255821666Y10945180D02*
X255916904Y10897561D01*
X255916904Y10897561D02*
X255964523Y10849942D01*
X255964523Y10849942D02*
X256012142Y10754704D01*
X256012142Y10754704D02*
X256012142Y10611847D01*
X256012142Y10611847D02*
X255964523Y10516609D01*
X255964523Y10516609D02*
X255916904Y10468990D01*
X255916904Y10468990D02*
X255821666Y10421371D01*
X255821666Y10421371D02*
X255440714Y10421371D01*
X256393095Y9992800D02*
X256535952Y9945180D01*
X256535952Y9945180D02*
X256774047Y9945180D01*
X256774047Y9945180D02*
X256869285Y9992800D01*
X256869285Y9992800D02*
X256916904Y10040419D01*
X256916904Y10040419D02*
X256964523Y10135657D01*
X256964523Y10135657D02*
X256964523Y10230895D01*
X256964523Y10230895D02*
X256916904Y10326133D01*
X256916904Y10326133D02*
X256869285Y10373752D01*
X256869285Y10373752D02*
X256774047Y10421371D01*
X256774047Y10421371D02*
X256583571Y10468990D01*
X256583571Y10468990D02*
X256488333Y10516609D01*
X256488333Y10516609D02*
X256440714Y10564228D01*
X256440714Y10564228D02*
X256393095Y10659466D01*
X256393095Y10659466D02*
X256393095Y10754704D01*
X256393095Y10754704D02*
X256440714Y10849942D01*
X256440714Y10849942D02*
X256488333Y10897561D01*
X256488333Y10897561D02*
X256583571Y10945180D01*
X256583571Y10945180D02*
X256821666Y10945180D01*
X256821666Y10945180D02*
X256964523Y10897561D01*
X257393095Y9945180D02*
X257393095Y10945180D01*
X257821666Y9945180D02*
X257821666Y10468990D01*
X257821666Y10468990D02*
X257774047Y10564228D01*
X257774047Y10564228D02*
X257678809Y10611847D01*
X257678809Y10611847D02*
X257535952Y10611847D01*
X257535952Y10611847D02*
X257440714Y10564228D01*
X257440714Y10564228D02*
X257393095Y10516609D01*
X258297857Y9945180D02*
X258297857Y10611847D01*
X258297857Y10945180D02*
X258250238Y10897561D01*
X258250238Y10897561D02*
X258297857Y10849942D01*
X258297857Y10849942D02*
X258345476Y10897561D01*
X258345476Y10897561D02*
X258297857Y10945180D01*
X258297857Y10945180D02*
X258297857Y10849942D01*
X258631190Y10611847D02*
X259012142Y10611847D01*
X258774047Y9945180D02*
X258774047Y10802323D01*
X258774047Y10802323D02*
X258821666Y10897561D01*
X258821666Y10897561D02*
X258916904Y10945180D01*
X258916904Y10945180D02*
X259012142Y10945180D01*
%TO.C,U37*%
X26554702Y47949942D02*
X26459464Y47997561D01*
X26459464Y47997561D02*
X26364226Y48092800D01*
X26364226Y48092800D02*
X26221369Y48235657D01*
X26221369Y48235657D02*
X26126131Y48283276D01*
X26126131Y48283276D02*
X26030893Y48283276D01*
X26078512Y48045180D02*
X25983274Y48092800D01*
X25983274Y48092800D02*
X25888036Y48188038D01*
X25888036Y48188038D02*
X25840417Y48378514D01*
X25840417Y48378514D02*
X25840417Y48711847D01*
X25840417Y48711847D02*
X25888036Y48902323D01*
X25888036Y48902323D02*
X25983274Y48997561D01*
X25983274Y48997561D02*
X26078512Y49045180D01*
X26078512Y49045180D02*
X26268988Y49045180D01*
X26268988Y49045180D02*
X26364226Y48997561D01*
X26364226Y48997561D02*
X26459464Y48902323D01*
X26459464Y48902323D02*
X26507083Y48711847D01*
X26507083Y48711847D02*
X26507083Y48378514D01*
X26507083Y48378514D02*
X26459464Y48188038D01*
X26459464Y48188038D02*
X26364226Y48092800D01*
X26364226Y48092800D02*
X26268988Y48045180D01*
X26268988Y48045180D02*
X26078512Y48045180D01*
%TO.C,U97*%
X280848749Y9992800D02*
X280753511Y9945180D01*
X280753511Y9945180D02*
X280563035Y9945180D01*
X280563035Y9945180D02*
X280467797Y9992800D01*
X280467797Y9992800D02*
X280420178Y10040419D01*
X280420178Y10040419D02*
X280372559Y10135657D01*
X280372559Y10135657D02*
X280372559Y10421371D01*
X280372559Y10421371D02*
X280420178Y10516609D01*
X280420178Y10516609D02*
X280467797Y10564228D01*
X280467797Y10564228D02*
X280563035Y10611847D01*
X280563035Y10611847D02*
X280753511Y10611847D01*
X280753511Y10611847D02*
X280848749Y10564228D01*
X281705892Y10611847D02*
X281705892Y9945180D01*
X281277321Y10611847D02*
X281277321Y10088038D01*
X281277321Y10088038D02*
X281324940Y9992800D01*
X281324940Y9992800D02*
X281420178Y9945180D01*
X281420178Y9945180D02*
X281563035Y9945180D01*
X281563035Y9945180D02*
X281658273Y9992800D01*
X281658273Y9992800D02*
X281705892Y10040419D01*
X282134464Y9992800D02*
X282229702Y9945180D01*
X282229702Y9945180D02*
X282420178Y9945180D01*
X282420178Y9945180D02*
X282515416Y9992800D01*
X282515416Y9992800D02*
X282563035Y10088038D01*
X282563035Y10088038D02*
X282563035Y10135657D01*
X282563035Y10135657D02*
X282515416Y10230895D01*
X282515416Y10230895D02*
X282420178Y10278514D01*
X282420178Y10278514D02*
X282277321Y10278514D01*
X282277321Y10278514D02*
X282182083Y10326133D01*
X282182083Y10326133D02*
X282134464Y10421371D01*
X282134464Y10421371D02*
X282134464Y10468990D01*
X282134464Y10468990D02*
X282182083Y10564228D01*
X282182083Y10564228D02*
X282277321Y10611847D01*
X282277321Y10611847D02*
X282420178Y10611847D01*
X282420178Y10611847D02*
X282515416Y10564228D01*
X282848750Y10611847D02*
X283229702Y10611847D01*
X282991607Y10945180D02*
X282991607Y10088038D01*
X282991607Y10088038D02*
X283039226Y9992800D01*
X283039226Y9992800D02*
X283134464Y9945180D01*
X283134464Y9945180D02*
X283229702Y9945180D01*
X283705893Y9945180D02*
X283610655Y9992800D01*
X283610655Y9992800D02*
X283563036Y10040419D01*
X283563036Y10040419D02*
X283515417Y10135657D01*
X283515417Y10135657D02*
X283515417Y10421371D01*
X283515417Y10421371D02*
X283563036Y10516609D01*
X283563036Y10516609D02*
X283610655Y10564228D01*
X283610655Y10564228D02*
X283705893Y10611847D01*
X283705893Y10611847D02*
X283848750Y10611847D01*
X283848750Y10611847D02*
X283943988Y10564228D01*
X283943988Y10564228D02*
X283991607Y10516609D01*
X283991607Y10516609D02*
X284039226Y10421371D01*
X284039226Y10421371D02*
X284039226Y10135657D01*
X284039226Y10135657D02*
X283991607Y10040419D01*
X283991607Y10040419D02*
X283943988Y9992800D01*
X283943988Y9992800D02*
X283848750Y9945180D01*
X283848750Y9945180D02*
X283705893Y9945180D01*
X284467798Y9945180D02*
X284467798Y10611847D01*
X284467798Y10516609D02*
X284515417Y10564228D01*
X284515417Y10564228D02*
X284610655Y10611847D01*
X284610655Y10611847D02*
X284753512Y10611847D01*
X284753512Y10611847D02*
X284848750Y10564228D01*
X284848750Y10564228D02*
X284896369Y10468990D01*
X284896369Y10468990D02*
X284896369Y9945180D01*
X284896369Y10468990D02*
X284943988Y10564228D01*
X284943988Y10564228D02*
X285039226Y10611847D01*
X285039226Y10611847D02*
X285182083Y10611847D01*
X285182083Y10611847D02*
X285277322Y10564228D01*
X285277322Y10564228D02*
X285324941Y10468990D01*
X285324941Y10468990D02*
X285324941Y9945180D01*
X286229702Y10611847D02*
X286229702Y9945180D01*
X285991607Y10992800D02*
X285753512Y10278514D01*
X285753512Y10278514D02*
X286372559Y10278514D01*
%TO.C,U77*%
X229008868Y10040419D02*
X228961249Y9992800D01*
X228961249Y9992800D02*
X228818392Y9945180D01*
X228818392Y9945180D02*
X228723154Y9945180D01*
X228723154Y9945180D02*
X228580297Y9992800D01*
X228580297Y9992800D02*
X228485059Y10088038D01*
X228485059Y10088038D02*
X228437440Y10183276D01*
X228437440Y10183276D02*
X228389821Y10373752D01*
X228389821Y10373752D02*
X228389821Y10516609D01*
X228389821Y10516609D02*
X228437440Y10707085D01*
X228437440Y10707085D02*
X228485059Y10802323D01*
X228485059Y10802323D02*
X228580297Y10897561D01*
X228580297Y10897561D02*
X228723154Y10945180D01*
X228723154Y10945180D02*
X228818392Y10945180D01*
X228818392Y10945180D02*
X228961249Y10897561D01*
X228961249Y10897561D02*
X229008868Y10849942D01*
X229866011Y10611847D02*
X229866011Y9945180D01*
X229437440Y10611847D02*
X229437440Y10088038D01*
X229437440Y10088038D02*
X229485059Y9992800D01*
X229485059Y9992800D02*
X229580297Y9945180D01*
X229580297Y9945180D02*
X229723154Y9945180D01*
X229723154Y9945180D02*
X229818392Y9992800D01*
X229818392Y9992800D02*
X229866011Y10040419D01*
X230294583Y9992800D02*
X230389821Y9945180D01*
X230389821Y9945180D02*
X230580297Y9945180D01*
X230580297Y9945180D02*
X230675535Y9992800D01*
X230675535Y9992800D02*
X230723154Y10088038D01*
X230723154Y10088038D02*
X230723154Y10135657D01*
X230723154Y10135657D02*
X230675535Y10230895D01*
X230675535Y10230895D02*
X230580297Y10278514D01*
X230580297Y10278514D02*
X230437440Y10278514D01*
X230437440Y10278514D02*
X230342202Y10326133D01*
X230342202Y10326133D02*
X230294583Y10421371D01*
X230294583Y10421371D02*
X230294583Y10468990D01*
X230294583Y10468990D02*
X230342202Y10564228D01*
X230342202Y10564228D02*
X230437440Y10611847D01*
X230437440Y10611847D02*
X230580297Y10611847D01*
X230580297Y10611847D02*
X230675535Y10564228D01*
X231008869Y10611847D02*
X231389821Y10611847D01*
X231151726Y10945180D02*
X231151726Y10088038D01*
X231151726Y10088038D02*
X231199345Y9992800D01*
X231199345Y9992800D02*
X231294583Y9945180D01*
X231294583Y9945180D02*
X231389821Y9945180D01*
X231866012Y9945180D02*
X231770774Y9992800D01*
X231770774Y9992800D02*
X231723155Y10040419D01*
X231723155Y10040419D02*
X231675536Y10135657D01*
X231675536Y10135657D02*
X231675536Y10421371D01*
X231675536Y10421371D02*
X231723155Y10516609D01*
X231723155Y10516609D02*
X231770774Y10564228D01*
X231770774Y10564228D02*
X231866012Y10611847D01*
X231866012Y10611847D02*
X232008869Y10611847D01*
X232008869Y10611847D02*
X232104107Y10564228D01*
X232104107Y10564228D02*
X232151726Y10516609D01*
X232151726Y10516609D02*
X232199345Y10421371D01*
X232199345Y10421371D02*
X232199345Y10135657D01*
X232199345Y10135657D02*
X232151726Y10040419D01*
X232151726Y10040419D02*
X232104107Y9992800D01*
X232104107Y9992800D02*
X232008869Y9945180D01*
X232008869Y9945180D02*
X231866012Y9945180D01*
X232627917Y9945180D02*
X232627917Y10611847D01*
X232627917Y10516609D02*
X232675536Y10564228D01*
X232675536Y10564228D02*
X232770774Y10611847D01*
X232770774Y10611847D02*
X232913631Y10611847D01*
X232913631Y10611847D02*
X233008869Y10564228D01*
X233008869Y10564228D02*
X233056488Y10468990D01*
X233056488Y10468990D02*
X233056488Y9945180D01*
X233056488Y10468990D02*
X233104107Y10564228D01*
X233104107Y10564228D02*
X233199345Y10611847D01*
X233199345Y10611847D02*
X233342202Y10611847D01*
X233342202Y10611847D02*
X233437441Y10564228D01*
X233437441Y10564228D02*
X233485060Y10468990D01*
X233485060Y10468990D02*
X233485060Y9945180D01*
%TO.C,U42*%
X121423750Y48521371D02*
X121423750Y48045180D01*
X121090417Y49045180D02*
X121423750Y48521371D01*
X121423750Y48521371D02*
X121757083Y49045180D01*
%TO.C,U71*%
X116732678Y10468990D02*
X116875535Y10421371D01*
X116875535Y10421371D02*
X116923154Y10373752D01*
X116923154Y10373752D02*
X116970773Y10278514D01*
X116970773Y10278514D02*
X116970773Y10135657D01*
X116970773Y10135657D02*
X116923154Y10040419D01*
X116923154Y10040419D02*
X116875535Y9992800D01*
X116875535Y9992800D02*
X116780297Y9945180D01*
X116780297Y9945180D02*
X116399345Y9945180D01*
X116399345Y9945180D02*
X116399345Y10945180D01*
X116399345Y10945180D02*
X116732678Y10945180D01*
X116732678Y10945180D02*
X116827916Y10897561D01*
X116827916Y10897561D02*
X116875535Y10849942D01*
X116875535Y10849942D02*
X116923154Y10754704D01*
X116923154Y10754704D02*
X116923154Y10659466D01*
X116923154Y10659466D02*
X116875535Y10564228D01*
X116875535Y10564228D02*
X116827916Y10516609D01*
X116827916Y10516609D02*
X116732678Y10468990D01*
X116732678Y10468990D02*
X116399345Y10468990D01*
%TO.C,U47*%
X216864226Y47711847D02*
X216626131Y47711847D01*
X216626131Y47711847D02*
X216626131Y49140419D01*
X216626131Y49140419D02*
X216864226Y49140419D01*
%TO.C,U64*%
X222198274Y30153930D02*
X222198274Y29963454D01*
X222579226Y30153930D02*
X222579226Y29963454D01*
%TO.C,U38*%
X44795179Y49045180D02*
X45033274Y48045180D01*
X45033274Y48045180D02*
X45223750Y48759466D01*
X45223750Y48759466D02*
X45414226Y48045180D01*
X45414226Y48045180D02*
X45652322Y49045180D01*
%TO.C,U72*%
X135425536Y9945180D02*
X135425536Y10945180D01*
X135425536Y10945180D02*
X135996964Y9945180D01*
X135996964Y9945180D02*
X135996964Y10945180D01*
%TO.C,U9*%
X144902916Y86668990D02*
X144569583Y86668990D01*
X144569583Y86145180D02*
X144569583Y87145180D01*
X144569583Y87145180D02*
X145045773Y87145180D01*
X145855297Y87145180D02*
X145664821Y87145180D01*
X145664821Y87145180D02*
X145569583Y87097561D01*
X145569583Y87097561D02*
X145521964Y87049942D01*
X145521964Y87049942D02*
X145426726Y86907085D01*
X145426726Y86907085D02*
X145379107Y86716609D01*
X145379107Y86716609D02*
X145379107Y86335657D01*
X145379107Y86335657D02*
X145426726Y86240419D01*
X145426726Y86240419D02*
X145474345Y86192800D01*
X145474345Y86192800D02*
X145569583Y86145180D01*
X145569583Y86145180D02*
X145760059Y86145180D01*
X145760059Y86145180D02*
X145855297Y86192800D01*
X145855297Y86192800D02*
X145902916Y86240419D01*
X145902916Y86240419D02*
X145950535Y86335657D01*
X145950535Y86335657D02*
X145950535Y86573752D01*
X145950535Y86573752D02*
X145902916Y86668990D01*
X145902916Y86668990D02*
X145855297Y86716609D01*
X145855297Y86716609D02*
X145760059Y86764228D01*
X145760059Y86764228D02*
X145569583Y86764228D01*
X145569583Y86764228D02*
X145474345Y86716609D01*
X145474345Y86716609D02*
X145426726Y86668990D01*
X145426726Y86668990D02*
X145379107Y86573752D01*
%TO.C,U62*%
X183645773Y28995180D02*
X183169583Y28995180D01*
X183169583Y28995180D02*
X183169583Y29995180D01*
%TO.C,U93*%
X281967797Y-8819104D02*
X282443987Y-8819104D01*
X281872559Y-9104819D02*
X282205892Y-8104819D01*
X282205892Y-8104819D02*
X282539225Y-9104819D01*
X282872559Y-9104819D02*
X282872559Y-8438152D01*
X282872559Y-8628628D02*
X282920178Y-8533390D01*
X282920178Y-8533390D02*
X282967797Y-8485771D01*
X282967797Y-8485771D02*
X283063035Y-8438152D01*
X283063035Y-8438152D02*
X283158273Y-8438152D01*
X283967797Y-9104819D02*
X283491607Y-9104819D01*
X283491607Y-9104819D02*
X283491607Y-8104819D01*
X284682083Y-9057200D02*
X284586845Y-9104819D01*
X284586845Y-9104819D02*
X284396369Y-9104819D01*
X284396369Y-9104819D02*
X284301131Y-9057200D01*
X284301131Y-9057200D02*
X284253512Y-8961961D01*
X284253512Y-8961961D02*
X284253512Y-8581009D01*
X284253512Y-8581009D02*
X284301131Y-8485771D01*
X284301131Y-8485771D02*
X284396369Y-8438152D01*
X284396369Y-8438152D02*
X284586845Y-8438152D01*
X284586845Y-8438152D02*
X284682083Y-8485771D01*
X284682083Y-8485771D02*
X284729702Y-8581009D01*
X284729702Y-8581009D02*
X284729702Y-8676247D01*
X284729702Y-8676247D02*
X284253512Y-8771485D01*
%TO.C,U73*%
X154427917Y9945180D02*
X154427917Y10945180D01*
X154427917Y10945180D02*
X154761250Y10230895D01*
X154761250Y10230895D02*
X155094583Y10945180D01*
X155094583Y10945180D02*
X155094583Y9945180D01*
%TD*%
%LPC*%
D13*
%TO.C,U6*%
X76143485Y94999800D03*
D14*
X76843485Y88749800D03*
D15*
X83343485Y102249800D03*
X83343485Y88249800D03*
X85043485Y102249800D03*
X85043485Y88249800D03*
D14*
X89843485Y88749800D03*
D13*
X90543485Y94999800D03*
D16*
X76843485Y101749800D03*
X89843485Y101749800D03*
D13*
X90543485Y98399800D03*
X76143485Y98399800D03*
X76143485Y96699800D03*
X90543485Y96699800D03*
D15*
X81643485Y102249800D03*
X81643485Y88249800D03*
%TD*%
D13*
%TO.C,U24*%
X85668485Y75949800D03*
D14*
X86368485Y69699800D03*
D15*
X92868485Y83199800D03*
X92868485Y69199800D03*
X94568485Y83199800D03*
X94568485Y69199800D03*
D14*
X99368485Y69699800D03*
D13*
X100068485Y75949800D03*
D16*
X86368485Y82699800D03*
X99368485Y82699800D03*
D13*
X100068485Y79349800D03*
X85668485Y79349800D03*
X85668485Y77649800D03*
X100068485Y77649800D03*
D15*
X91168485Y83199800D03*
X91168485Y69199800D03*
%TD*%
D13*
%TO.C,U63*%
X195205985Y37849800D03*
D14*
X195905985Y31599800D03*
D15*
X202405985Y45099800D03*
X202405985Y31099800D03*
X204105985Y45099800D03*
X204105985Y31099800D03*
D14*
X208905985Y31599800D03*
D13*
X209605985Y37849800D03*
D16*
X195905985Y44599800D03*
X208905985Y44599800D03*
D13*
X209605985Y41249800D03*
X195205985Y41249800D03*
X195205985Y39549800D03*
X209605985Y39549800D03*
D15*
X200705985Y45099800D03*
X200705985Y31099800D03*
%TD*%
D13*
%TO.C,U79*%
X295218485Y18799800D03*
D14*
X295918485Y12549800D03*
D15*
X302418485Y26049800D03*
X302418485Y12049800D03*
X304118485Y26049800D03*
X304118485Y12049800D03*
D14*
X308918485Y12549800D03*
D13*
X309618485Y18799800D03*
D16*
X295918485Y25549800D03*
X308918485Y25549800D03*
D13*
X309618485Y22199800D03*
X295218485Y22199800D03*
X295218485Y20499800D03*
X309618485Y20499800D03*
D15*
X300718485Y26049800D03*
X300718485Y12049800D03*
%TD*%
D13*
%TO.C,U76*%
X204730985Y18799800D03*
D14*
X205430985Y12549800D03*
D15*
X211930985Y26049800D03*
X211930985Y12049800D03*
X213630985Y26049800D03*
X213630985Y12049800D03*
D14*
X218430985Y12549800D03*
D13*
X219130985Y18799800D03*
D16*
X205430985Y25549800D03*
X218430985Y25549800D03*
D13*
X219130985Y22199800D03*
X204730985Y22199800D03*
X204730985Y20499800D03*
X219130985Y20499800D03*
D15*
X210230985Y26049800D03*
X210230985Y12049800D03*
%TD*%
D13*
%TO.C,U82*%
X40424735Y-250200D03*
D14*
X41124735Y-6500200D03*
D15*
X47624735Y6999800D03*
X47624735Y-7000200D03*
X49324735Y6999800D03*
X49324735Y-7000200D03*
D14*
X54124735Y-6500200D03*
D13*
X54824735Y-250200D03*
D16*
X41124735Y6499800D03*
X54124735Y6499800D03*
D13*
X54824735Y3149800D03*
X40424735Y3149800D03*
X40424735Y1449800D03*
X54824735Y1449800D03*
D15*
X45924735Y6999800D03*
X45924735Y-7000200D03*
%TD*%
D13*
%TO.C,U44*%
X152343485Y56899800D03*
D14*
X153043485Y50649800D03*
D15*
X159543485Y64149800D03*
X159543485Y50149800D03*
X161243485Y64149800D03*
X161243485Y50149800D03*
D14*
X166043485Y50649800D03*
D13*
X166743485Y56899800D03*
D16*
X153043485Y63649800D03*
X166043485Y63649800D03*
D13*
X166743485Y60299800D03*
X152343485Y60299800D03*
X152343485Y58599800D03*
X166743485Y58599800D03*
D15*
X157843485Y64149800D03*
X157843485Y50149800D03*
%TD*%
D13*
%TO.C,U90*%
X207112235Y-250200D03*
D14*
X207812235Y-6500200D03*
D15*
X214312235Y6999800D03*
X214312235Y-7000200D03*
X216012235Y6999800D03*
X216012235Y-7000200D03*
D14*
X220812235Y-6500200D03*
D13*
X221512235Y-250200D03*
D16*
X207812235Y6499800D03*
X220812235Y6499800D03*
D13*
X221512235Y3149800D03*
X207112235Y3149800D03*
X207112235Y1449800D03*
X221512235Y1449800D03*
D15*
X212612235Y6999800D03*
X212612235Y-7000200D03*
%TD*%
D13*
%TO.C,U15*%
X257118485Y94999800D03*
D14*
X257818485Y88749800D03*
D15*
X264318485Y102249800D03*
X264318485Y88249800D03*
X266018485Y102249800D03*
X266018485Y88249800D03*
D14*
X270818485Y88749800D03*
D13*
X271518485Y94999800D03*
D16*
X257818485Y101749800D03*
X270818485Y101749800D03*
D13*
X271518485Y98399800D03*
X257118485Y98399800D03*
X257118485Y96699800D03*
X271518485Y96699800D03*
D15*
X262618485Y102249800D03*
X262618485Y88249800D03*
%TD*%
D13*
%TO.C,U19*%
X-9581515Y75949800D03*
D14*
X-8881515Y69699800D03*
D15*
X-2381515Y83199800D03*
X-2381515Y69199800D03*
X-681515Y83199800D03*
X-681515Y69199800D03*
D14*
X4118485Y69699800D03*
D13*
X4818485Y75949800D03*
D16*
X-8881515Y82699800D03*
X4118485Y82699800D03*
D13*
X4818485Y79349800D03*
X-9581515Y79349800D03*
X-9581515Y77649800D03*
X4818485Y77649800D03*
D15*
X-4081515Y83199800D03*
X-4081515Y69199800D03*
%TD*%
D13*
%TO.C,U34*%
X295218485Y75949800D03*
D14*
X295918485Y69699800D03*
D15*
X302418485Y83199800D03*
X302418485Y69199800D03*
X304118485Y83199800D03*
X304118485Y69199800D03*
D14*
X308918485Y69699800D03*
D13*
X309618485Y75949800D03*
D16*
X295918485Y82699800D03*
X308918485Y82699800D03*
D13*
X309618485Y79349800D03*
X295218485Y79349800D03*
X295218485Y77649800D03*
X309618485Y77649800D03*
D15*
X300718485Y83199800D03*
X300718485Y69199800D03*
%TD*%
D17*
%TO.C,U65*%
X240512500Y45085000D03*
D18*
X240512500Y29845000D03*
D13*
X245212500Y37850000D03*
D14*
X245912500Y31600000D03*
D15*
X252412500Y45100000D03*
X252412500Y31100000D03*
X254112500Y45100000D03*
X254112500Y31100000D03*
D14*
X258912500Y31600000D03*
D13*
X259612500Y37850000D03*
D17*
X264312500Y45085000D03*
D18*
X264312500Y29845000D03*
D16*
X245912500Y44600000D03*
X258912500Y44600000D03*
D13*
X259612500Y41250000D03*
X245212500Y41250000D03*
X245212500Y39550000D03*
X259612500Y39550000D03*
D15*
X250712500Y45100000D03*
X250712500Y31100000D03*
%TD*%
D13*
%TO.C,U11*%
X176155985Y94999800D03*
D14*
X176855985Y88749800D03*
D15*
X183355985Y102249800D03*
X183355985Y88249800D03*
X185055985Y102249800D03*
X185055985Y88249800D03*
D14*
X189855985Y88749800D03*
D13*
X190555985Y94999800D03*
D16*
X176855985Y101749800D03*
X189855985Y101749800D03*
D13*
X190555985Y98399800D03*
X176155985Y98399800D03*
X176155985Y96699800D03*
X190555985Y96699800D03*
D15*
X181655985Y102249800D03*
X181655985Y88249800D03*
%TD*%
D13*
%TO.C,U91*%
X230924735Y-250200D03*
D14*
X231624735Y-6500200D03*
D15*
X238124735Y6999800D03*
X238124735Y-7000200D03*
X239824735Y6999800D03*
X239824735Y-7000200D03*
D14*
X244624735Y-6500200D03*
D13*
X245324735Y-250200D03*
D16*
X231624735Y6499800D03*
X244624735Y6499800D03*
D13*
X245324735Y3149800D03*
X230924735Y3149800D03*
X230924735Y1449800D03*
X245324735Y1449800D03*
D15*
X236424735Y6999800D03*
X236424735Y-7000200D03*
%TD*%
D13*
%TO.C,U39*%
X57093485Y56899800D03*
D14*
X57793485Y50649800D03*
D15*
X64293485Y64149800D03*
X64293485Y50149800D03*
X65993485Y64149800D03*
X65993485Y50149800D03*
D14*
X70793485Y50649800D03*
D13*
X71493485Y56899800D03*
D16*
X57793485Y63649800D03*
X70793485Y63649800D03*
D13*
X71493485Y60299800D03*
X57093485Y60299800D03*
X57093485Y58599800D03*
X71493485Y58599800D03*
D15*
X62593485Y64149800D03*
X62593485Y50149800D03*
%TD*%
D13*
%TO.C,U92*%
X254737235Y-250200D03*
D14*
X255437235Y-6500200D03*
D15*
X261937235Y6999800D03*
X261937235Y-7000200D03*
X263637235Y6999800D03*
X263637235Y-7000200D03*
D14*
X268437235Y-6500200D03*
D13*
X269137235Y-250200D03*
D16*
X255437235Y6499800D03*
X268437235Y6499800D03*
D13*
X269137235Y3149800D03*
X254737235Y3149800D03*
X254737235Y1449800D03*
X269137235Y1449800D03*
D15*
X260237235Y6999800D03*
X260237235Y-7000200D03*
%TD*%
D13*
%TO.C,U22*%
X47568485Y75949800D03*
D14*
X48268485Y69699800D03*
D15*
X54768485Y83199800D03*
X54768485Y69199800D03*
X56468485Y83199800D03*
X56468485Y69199800D03*
D14*
X61268485Y69699800D03*
D13*
X61968485Y75949800D03*
D16*
X48268485Y82699800D03*
X61268485Y82699800D03*
D13*
X61968485Y79349800D03*
X47568485Y79349800D03*
X47568485Y77649800D03*
X61968485Y77649800D03*
D15*
X53068485Y83199800D03*
X53068485Y69199800D03*
%TD*%
D13*
%TO.C,U55*%
X42805985Y37849800D03*
D14*
X43505985Y31599800D03*
D15*
X50005985Y45099800D03*
X50005985Y31099800D03*
X51705985Y45099800D03*
X51705985Y31099800D03*
D14*
X56505985Y31599800D03*
D13*
X57205985Y37849800D03*
D16*
X43505985Y44599800D03*
X56505985Y44599800D03*
D13*
X57205985Y41249800D03*
X42805985Y41249800D03*
X42805985Y39549800D03*
X57205985Y39549800D03*
D15*
X48305985Y45099800D03*
X48305985Y31099800D03*
%TD*%
D13*
%TO.C,U7*%
X95193485Y94999800D03*
D14*
X95893485Y88749800D03*
D15*
X102393485Y102249800D03*
X102393485Y88249800D03*
X104093485Y102249800D03*
X104093485Y88249800D03*
D14*
X108893485Y88749800D03*
D13*
X109593485Y94999800D03*
D16*
X95893485Y101749800D03*
X108893485Y101749800D03*
D13*
X109593485Y98399800D03*
X95193485Y98399800D03*
X95193485Y96699800D03*
X109593485Y96699800D03*
D15*
X100693485Y102249800D03*
X100693485Y88249800D03*
%TD*%
D13*
%TO.C,U31*%
X219018485Y75949800D03*
D14*
X219718485Y69699800D03*
D15*
X226218485Y83199800D03*
X226218485Y69199800D03*
X227918485Y83199800D03*
X227918485Y69199800D03*
D14*
X232718485Y69699800D03*
D13*
X233418485Y75949800D03*
D16*
X219718485Y82699800D03*
X232718485Y82699800D03*
D13*
X233418485Y79349800D03*
X219018485Y79349800D03*
X219018485Y77649800D03*
X233418485Y77649800D03*
D15*
X224518485Y83199800D03*
X224518485Y69199800D03*
%TD*%
D19*
%TO.C,H8*%
X140493750Y72628125D03*
%TD*%
%TO.C,H6*%
X-7500000Y106500000D03*
%TD*%
D13*
%TO.C,U12*%
X199968485Y94999800D03*
D14*
X200668485Y88749800D03*
D15*
X207168485Y102249800D03*
X207168485Y88249800D03*
X208868485Y102249800D03*
X208868485Y88249800D03*
D14*
X213668485Y88749800D03*
D13*
X214368485Y94999800D03*
D16*
X200668485Y101749800D03*
X213668485Y101749800D03*
D13*
X214368485Y98399800D03*
X199968485Y98399800D03*
X199968485Y96699800D03*
X214368485Y96699800D03*
D15*
X205468485Y102249800D03*
X205468485Y88249800D03*
%TD*%
D13*
%TO.C,U33*%
X276168485Y75949800D03*
D14*
X276868485Y69699800D03*
D15*
X283368485Y83199800D03*
X283368485Y69199800D03*
X285068485Y83199800D03*
X285068485Y69199800D03*
D14*
X289868485Y69699800D03*
D13*
X290568485Y75949800D03*
D16*
X276868485Y82699800D03*
X289868485Y82699800D03*
D13*
X290568485Y79349800D03*
X276168485Y79349800D03*
X276168485Y77649800D03*
X290568485Y77649800D03*
D15*
X281668485Y83199800D03*
X281668485Y69199800D03*
%TD*%
D13*
%TO.C,U86*%
X135674735Y-250200D03*
D14*
X136374735Y-6500200D03*
D15*
X142874735Y6999800D03*
X142874735Y-7000200D03*
X144574735Y6999800D03*
X144574735Y-7000200D03*
D14*
X149374735Y-6500200D03*
D13*
X150074735Y-250200D03*
D16*
X136374735Y6499800D03*
X149374735Y6499800D03*
D13*
X150074735Y3149800D03*
X135674735Y3149800D03*
X135674735Y1449800D03*
X150074735Y1449800D03*
D15*
X141174735Y6999800D03*
X141174735Y-7000200D03*
%TD*%
D13*
%TO.C,U48*%
X228543485Y56899800D03*
D14*
X229243485Y50649800D03*
D15*
X235743485Y64149800D03*
X235743485Y50149800D03*
X237443485Y64149800D03*
X237443485Y50149800D03*
D14*
X242243485Y50649800D03*
D13*
X242943485Y56899800D03*
D16*
X229243485Y63649800D03*
X242243485Y63649800D03*
D13*
X242943485Y60299800D03*
X228543485Y60299800D03*
X228543485Y58599800D03*
X242943485Y58599800D03*
D15*
X234043485Y64149800D03*
X234043485Y50149800D03*
%TD*%
D13*
%TO.C,U80*%
X-7200265Y-250200D03*
D14*
X-6500265Y-6500200D03*
D15*
X-265Y6999800D03*
X-265Y-7000200D03*
X1699735Y6999800D03*
X1699735Y-7000200D03*
D14*
X6499735Y-6500200D03*
D13*
X7199735Y-250200D03*
D16*
X-6500265Y6499800D03*
X6499735Y6499800D03*
D13*
X7199735Y3149800D03*
X-7200265Y3149800D03*
X-7200265Y1449800D03*
X7199735Y1449800D03*
D15*
X-1700265Y6999800D03*
X-1700265Y-7000200D03*
%TD*%
D13*
%TO.C,U98*%
X314268485Y18799800D03*
D14*
X314968485Y12549800D03*
D15*
X321468485Y26049800D03*
X321468485Y12049800D03*
X323168485Y26049800D03*
X323168485Y12049800D03*
D14*
X327968485Y12549800D03*
D13*
X328668485Y18799800D03*
D16*
X314968485Y25549800D03*
X327968485Y25549800D03*
D13*
X328668485Y22199800D03*
X314268485Y22199800D03*
X314268485Y20499800D03*
X328668485Y20499800D03*
D15*
X319768485Y26049800D03*
X319768485Y12049800D03*
%TD*%
D19*
%TO.C,H2*%
X14287500Y54768750D03*
%TD*%
D13*
%TO.C,U49*%
X252355985Y56899800D03*
D14*
X253055985Y50649800D03*
D15*
X259555985Y64149800D03*
X259555985Y50149800D03*
X261255985Y64149800D03*
X261255985Y50149800D03*
D14*
X266055985Y50649800D03*
D13*
X266755985Y56899800D03*
D16*
X253055985Y63649800D03*
X266055985Y63649800D03*
D13*
X266755985Y60299800D03*
X252355985Y60299800D03*
X252355985Y58599800D03*
X266755985Y58599800D03*
D15*
X257855985Y64149800D03*
X257855985Y50149800D03*
%TD*%
D13*
%TO.C,U69*%
X71380985Y18799800D03*
D14*
X72080985Y12549800D03*
D15*
X78580985Y26049800D03*
X78580985Y12049800D03*
X80280985Y26049800D03*
X80280985Y12049800D03*
D14*
X85080985Y12549800D03*
D13*
X85780985Y18799800D03*
D16*
X72080985Y25549800D03*
X85080985Y25549800D03*
D13*
X85780985Y22199800D03*
X71380985Y22199800D03*
X71380985Y20499800D03*
X85780985Y20499800D03*
D15*
X76880985Y26049800D03*
X76880985Y12049800D03*
%TD*%
D13*
%TO.C,U68*%
X52330985Y18799800D03*
D14*
X53030985Y12549800D03*
D15*
X59530985Y26049800D03*
X59530985Y12049800D03*
X61230985Y26049800D03*
X61230985Y12049800D03*
D14*
X66030985Y12549800D03*
D13*
X66730985Y18799800D03*
D16*
X53030985Y25549800D03*
X66030985Y25549800D03*
D13*
X66730985Y22199800D03*
X52330985Y22199800D03*
X52330985Y20499800D03*
X66730985Y20499800D03*
D15*
X57830985Y26049800D03*
X57830985Y12049800D03*
%TD*%
D13*
%TO.C,U26*%
X123768485Y75949800D03*
D14*
X124468485Y69699800D03*
D15*
X130968485Y83199800D03*
X130968485Y69199800D03*
X132668485Y83199800D03*
X132668485Y69199800D03*
D14*
X137468485Y69699800D03*
D13*
X138168485Y75949800D03*
D16*
X124468485Y82699800D03*
X137468485Y82699800D03*
D13*
X138168485Y79349800D03*
X123768485Y79349800D03*
X123768485Y77649800D03*
X138168485Y77649800D03*
D15*
X129268485Y83199800D03*
X129268485Y69199800D03*
%TD*%
D13*
%TO.C,U75*%
X185680985Y18799800D03*
D14*
X186380985Y12549800D03*
D15*
X192880985Y26049800D03*
X192880985Y12049800D03*
X194580985Y26049800D03*
X194580985Y12049800D03*
D14*
X199380985Y12549800D03*
D13*
X200080985Y18799800D03*
D16*
X186380985Y25549800D03*
X199380985Y25549800D03*
D13*
X200080985Y22199800D03*
X185680985Y22199800D03*
X185680985Y20499800D03*
X200080985Y20499800D03*
D15*
X191180985Y26049800D03*
X191180985Y12049800D03*
%TD*%
D13*
%TO.C,U61*%
X157105985Y37849800D03*
D14*
X157805985Y31599800D03*
D15*
X164305985Y45099800D03*
X164305985Y31099800D03*
X166005985Y45099800D03*
X166005985Y31099800D03*
D14*
X170805985Y31599800D03*
D13*
X171505985Y37849800D03*
D16*
X157805985Y44599800D03*
X170805985Y44599800D03*
D13*
X171505985Y41249800D03*
X157105985Y41249800D03*
X157105985Y39549800D03*
X171505985Y39549800D03*
D15*
X162605985Y45099800D03*
X162605985Y31099800D03*
%TD*%
D13*
%TO.C,U21*%
X28518485Y75949800D03*
D14*
X29218485Y69699800D03*
D15*
X35718485Y83199800D03*
X35718485Y69199800D03*
X37418485Y83199800D03*
X37418485Y69199800D03*
D14*
X42218485Y69699800D03*
D13*
X42918485Y75949800D03*
D16*
X29218485Y82699800D03*
X42218485Y82699800D03*
D13*
X42918485Y79349800D03*
X28518485Y79349800D03*
X28518485Y77649800D03*
X42918485Y77649800D03*
D15*
X34018485Y83199800D03*
X34018485Y69199800D03*
%TD*%
D13*
%TO.C,U50*%
X276168485Y56899800D03*
D14*
X276868485Y50649800D03*
D15*
X283368485Y64149800D03*
X283368485Y50149800D03*
X285068485Y64149800D03*
X285068485Y50149800D03*
D14*
X289868485Y50649800D03*
D13*
X290568485Y56899800D03*
D16*
X276868485Y63649800D03*
X289868485Y63649800D03*
D13*
X290568485Y60299800D03*
X276168485Y60299800D03*
X276168485Y58599800D03*
X290568485Y58599800D03*
D15*
X281668485Y64149800D03*
X281668485Y50149800D03*
%TD*%
D13*
%TO.C,U45*%
X171393485Y56899800D03*
D14*
X172093485Y50649800D03*
D15*
X178593485Y64149800D03*
X178593485Y50149800D03*
X180293485Y64149800D03*
X180293485Y50149800D03*
D14*
X185093485Y50649800D03*
D13*
X185793485Y56899800D03*
D16*
X172093485Y63649800D03*
X185093485Y63649800D03*
D13*
X185793485Y60299800D03*
X171393485Y60299800D03*
X171393485Y58599800D03*
X185793485Y58599800D03*
D15*
X176893485Y64149800D03*
X176893485Y50149800D03*
%TD*%
D13*
%TO.C,U41*%
X95193485Y56899800D03*
D14*
X95893485Y50649800D03*
D15*
X102393485Y64149800D03*
X102393485Y50149800D03*
X104093485Y64149800D03*
X104093485Y50149800D03*
D14*
X108893485Y50649800D03*
D13*
X109593485Y56899800D03*
D16*
X95893485Y63649800D03*
X108893485Y63649800D03*
D13*
X109593485Y60299800D03*
X95193485Y60299800D03*
X95193485Y58599800D03*
X109593485Y58599800D03*
D15*
X100693485Y64149800D03*
X100693485Y50149800D03*
%TD*%
D19*
%TO.C,H1*%
X12700000Y-3000000D03*
%TD*%
D13*
%TO.C,U53*%
X-2437765Y37849800D03*
D14*
X-1737765Y31599800D03*
D15*
X4762235Y45099800D03*
X4762235Y31099800D03*
X6462235Y45099800D03*
X6462235Y31099800D03*
D14*
X11262235Y31599800D03*
D13*
X11962235Y37849800D03*
D16*
X-1737765Y44599800D03*
X11262235Y44599800D03*
D13*
X11962235Y41249800D03*
X-2437765Y41249800D03*
X-2437765Y39549800D03*
X11962235Y39549800D03*
D15*
X3062235Y45099800D03*
X3062235Y31099800D03*
%TD*%
D13*
%TO.C,U27*%
X142818485Y75949800D03*
D14*
X143518485Y69699800D03*
D15*
X150018485Y83199800D03*
X150018485Y69199800D03*
X151718485Y83199800D03*
X151718485Y69199800D03*
D14*
X156518485Y69699800D03*
D13*
X157218485Y75949800D03*
D16*
X143518485Y82699800D03*
X156518485Y82699800D03*
D13*
X157218485Y79349800D03*
X142818485Y79349800D03*
X142818485Y77649800D03*
X157218485Y77649800D03*
D15*
X148318485Y83199800D03*
X148318485Y69199800D03*
%TD*%
D13*
%TO.C,U23*%
X66618485Y75949800D03*
D14*
X67318485Y69699800D03*
D15*
X73818485Y83199800D03*
X73818485Y69199800D03*
X75518485Y83199800D03*
X75518485Y69199800D03*
D14*
X80318485Y69699800D03*
D13*
X81018485Y75949800D03*
D16*
X67318485Y82699800D03*
X80318485Y82699800D03*
D13*
X81018485Y79349800D03*
X66618485Y79349800D03*
X66618485Y77649800D03*
X81018485Y77649800D03*
D15*
X72118485Y83199800D03*
X72118485Y69199800D03*
%TD*%
D19*
%TO.C,H7*%
X271462500Y53578125D03*
%TD*%
D13*
%TO.C,U35*%
X314268485Y75949800D03*
D14*
X314968485Y69699800D03*
D15*
X321468485Y83199800D03*
X321468485Y69199800D03*
X323168485Y83199800D03*
X323168485Y69199800D03*
D14*
X327968485Y69699800D03*
D13*
X328668485Y75949800D03*
D16*
X314968485Y82699800D03*
X327968485Y82699800D03*
D13*
X328668485Y79349800D03*
X314268485Y79349800D03*
X314268485Y77649800D03*
X328668485Y77649800D03*
D15*
X319768485Y83199800D03*
X319768485Y69199800D03*
%TD*%
D13*
%TO.C,U87*%
X159487235Y-250200D03*
D14*
X160187235Y-6500200D03*
D15*
X166687235Y6999800D03*
X166687235Y-7000200D03*
X168387235Y6999800D03*
X168387235Y-7000200D03*
D14*
X173187235Y-6500200D03*
D13*
X173887235Y-250200D03*
D16*
X160187235Y6499800D03*
X173187235Y6499800D03*
D13*
X173887235Y3149800D03*
X159487235Y3149800D03*
X159487235Y1449800D03*
X173887235Y1449800D03*
D15*
X164987235Y6999800D03*
X164987235Y-7000200D03*
%TD*%
D13*
%TO.C,U4*%
X38043485Y94999800D03*
D14*
X38743485Y88749800D03*
D15*
X45243485Y102249800D03*
X45243485Y88249800D03*
X46943485Y102249800D03*
X46943485Y88249800D03*
D14*
X51743485Y88749800D03*
D13*
X52443485Y94999800D03*
D16*
X38743485Y101749800D03*
X51743485Y101749800D03*
D13*
X52443485Y98399800D03*
X38043485Y98399800D03*
X38043485Y96699800D03*
X52443485Y96699800D03*
D15*
X43543485Y102249800D03*
X43543485Y88249800D03*
%TD*%
D13*
%TO.C,U60*%
X138055985Y37849800D03*
D14*
X138755985Y31599800D03*
D15*
X145255985Y45099800D03*
X145255985Y31099800D03*
X146955985Y45099800D03*
X146955985Y31099800D03*
D14*
X151755985Y31599800D03*
D13*
X152455985Y37849800D03*
D16*
X138755985Y44599800D03*
X151755985Y44599800D03*
D13*
X152455985Y41249800D03*
X138055985Y41249800D03*
X138055985Y39549800D03*
X152455985Y39549800D03*
D15*
X143555985Y45099800D03*
X143555985Y31099800D03*
%TD*%
D13*
%TO.C,U16*%
X276168485Y94999800D03*
D14*
X276868485Y88749800D03*
D15*
X283368485Y102249800D03*
X283368485Y88249800D03*
X285068485Y102249800D03*
X285068485Y88249800D03*
D14*
X289868485Y88749800D03*
D13*
X290568485Y94999800D03*
D16*
X276868485Y101749800D03*
X289868485Y101749800D03*
D13*
X290568485Y98399800D03*
X276168485Y98399800D03*
X276168485Y96699800D03*
X290568485Y96699800D03*
D15*
X281668485Y102249800D03*
X281668485Y88249800D03*
%TD*%
D13*
%TO.C,U58*%
X99955985Y37849800D03*
D14*
X100655985Y31599800D03*
D15*
X107155985Y45099800D03*
X107155985Y31099800D03*
X108855985Y45099800D03*
X108855985Y31099800D03*
D14*
X113655985Y31599800D03*
D13*
X114355985Y37849800D03*
D16*
X100655985Y44599800D03*
X113655985Y44599800D03*
D13*
X114355985Y41249800D03*
X99955985Y41249800D03*
X99955985Y39549800D03*
X114355985Y39549800D03*
D15*
X105455985Y45099800D03*
X105455985Y31099800D03*
%TD*%
D13*
%TO.C,U46*%
X190443485Y56899800D03*
D14*
X191143485Y50649800D03*
D15*
X197643485Y64149800D03*
X197643485Y50149800D03*
X199343485Y64149800D03*
X199343485Y50149800D03*
D14*
X204143485Y50649800D03*
D13*
X204843485Y56899800D03*
D16*
X191143485Y63649800D03*
X204143485Y63649800D03*
D13*
X204843485Y60299800D03*
X190443485Y60299800D03*
X190443485Y58599800D03*
X204843485Y58599800D03*
D15*
X195943485Y64149800D03*
X195943485Y50149800D03*
%TD*%
D13*
%TO.C,U36*%
X-4819015Y56899800D03*
D14*
X-4119015Y50649800D03*
D15*
X2380985Y64149800D03*
X2380985Y50149800D03*
X4080985Y64149800D03*
X4080985Y50149800D03*
D14*
X8880985Y50649800D03*
D13*
X9580985Y56899800D03*
D16*
X-4119015Y63649800D03*
X8880985Y63649800D03*
D13*
X9580985Y60299800D03*
X-4819015Y60299800D03*
X-4819015Y58599800D03*
X9580985Y58599800D03*
D15*
X680985Y64149800D03*
X680985Y50149800D03*
%TD*%
D13*
%TO.C,U94*%
X295218485Y-250200D03*
D14*
X295918485Y-6500200D03*
D15*
X302418485Y6999800D03*
X302418485Y-7000200D03*
X304118485Y6999800D03*
X304118485Y-7000200D03*
D14*
X308918485Y-6500200D03*
D13*
X309618485Y-250200D03*
D16*
X295918485Y6499800D03*
X308918485Y6499800D03*
D13*
X309618485Y3149800D03*
X295218485Y3149800D03*
X295218485Y1449800D03*
X309618485Y1449800D03*
D15*
X300718485Y6999800D03*
X300718485Y-7000200D03*
%TD*%
D13*
%TO.C,U40*%
X76143485Y56899800D03*
D14*
X76843485Y50649800D03*
D15*
X83343485Y64149800D03*
X83343485Y50149800D03*
X85043485Y64149800D03*
X85043485Y50149800D03*
D14*
X89843485Y50649800D03*
D13*
X90543485Y56899800D03*
D16*
X76843485Y63649800D03*
X89843485Y63649800D03*
D13*
X90543485Y60299800D03*
X76143485Y60299800D03*
X76143485Y58599800D03*
X90543485Y58599800D03*
D15*
X81643485Y64149800D03*
X81643485Y50149800D03*
%TD*%
D13*
%TO.C,U3*%
X276168485Y37849800D03*
D14*
X276868485Y31599800D03*
D15*
X283368485Y45099800D03*
X283368485Y31099800D03*
X285068485Y45099800D03*
X285068485Y31099800D03*
D14*
X289868485Y31599800D03*
D13*
X290568485Y37849800D03*
D16*
X276868485Y44599800D03*
X289868485Y44599800D03*
D13*
X290568485Y41249800D03*
X276168485Y41249800D03*
X276168485Y39549800D03*
X290568485Y39549800D03*
D15*
X281668485Y45099800D03*
X281668485Y31099800D03*
%TD*%
D13*
%TO.C,U25*%
X104718485Y75949800D03*
D14*
X105418485Y69699800D03*
D15*
X111918485Y83199800D03*
X111918485Y69199800D03*
X113618485Y83199800D03*
X113618485Y69199800D03*
D14*
X118418485Y69699800D03*
D13*
X119118485Y75949800D03*
D16*
X105418485Y82699800D03*
X118418485Y82699800D03*
D13*
X119118485Y79349800D03*
X104718485Y79349800D03*
X104718485Y77649800D03*
X119118485Y77649800D03*
D15*
X110218485Y83199800D03*
X110218485Y69199800D03*
%TD*%
D13*
%TO.C,U43*%
X133293485Y56899800D03*
D14*
X133993485Y50649800D03*
D15*
X140493485Y64149800D03*
X140493485Y50149800D03*
X142193485Y64149800D03*
X142193485Y50149800D03*
D14*
X146993485Y50649800D03*
D13*
X147693485Y56899800D03*
D16*
X133993485Y63649800D03*
X146993485Y63649800D03*
D13*
X147693485Y60299800D03*
X133293485Y60299800D03*
X133293485Y58599800D03*
X147693485Y58599800D03*
D15*
X138793485Y64149800D03*
X138793485Y50149800D03*
%TD*%
D13*
%TO.C,U59*%
X119005985Y37849800D03*
D14*
X119705985Y31599800D03*
D15*
X126205985Y45099800D03*
X126205985Y31099800D03*
X127905985Y45099800D03*
X127905985Y31099800D03*
D14*
X132705985Y31599800D03*
D13*
X133405985Y37849800D03*
D16*
X119705985Y44599800D03*
X132705985Y44599800D03*
D13*
X133405985Y41249800D03*
X119005985Y41249800D03*
X119005985Y39549800D03*
X133405985Y39549800D03*
D15*
X124505985Y45099800D03*
X124505985Y31099800D03*
%TD*%
D13*
%TO.C,U57*%
X80905985Y37849800D03*
D14*
X81605985Y31599800D03*
D15*
X88105985Y45099800D03*
X88105985Y31099800D03*
X89805985Y45099800D03*
X89805985Y31099800D03*
D14*
X94605985Y31599800D03*
D13*
X95305985Y37849800D03*
D16*
X81605985Y44599800D03*
X94605985Y44599800D03*
D13*
X95305985Y41249800D03*
X80905985Y41249800D03*
X80905985Y39549800D03*
X95305985Y39549800D03*
D15*
X86405985Y45099800D03*
X86405985Y31099800D03*
%TD*%
D13*
%TO.C,U17*%
X295218485Y94999800D03*
D14*
X295918485Y88749800D03*
D15*
X302418485Y102249800D03*
X302418485Y88249800D03*
X304118485Y102249800D03*
X304118485Y88249800D03*
D14*
X308918485Y88749800D03*
D13*
X309618485Y94999800D03*
D16*
X295918485Y101749800D03*
X308918485Y101749800D03*
D13*
X309618485Y98399800D03*
X295218485Y98399800D03*
X295218485Y96699800D03*
X309618485Y96699800D03*
D15*
X300718485Y102249800D03*
X300718485Y88249800D03*
%TD*%
D13*
%TO.C,U83*%
X64237235Y-250200D03*
D14*
X64937235Y-6500200D03*
D15*
X71437235Y6999800D03*
X71437235Y-7000200D03*
X73137235Y6999800D03*
X73137235Y-7000200D03*
D14*
X77937235Y-6500200D03*
D13*
X78637235Y-250200D03*
D16*
X64937235Y6499800D03*
X77937235Y6499800D03*
D13*
X78637235Y3149800D03*
X64237235Y3149800D03*
X64237235Y1449800D03*
X78637235Y1449800D03*
D15*
X69737235Y6999800D03*
X69737235Y-7000200D03*
%TD*%
D13*
%TO.C,U56*%
X61855985Y37849800D03*
D14*
X62555985Y31599800D03*
D15*
X69055985Y45099800D03*
X69055985Y31099800D03*
X70755985Y45099800D03*
X70755985Y31099800D03*
D14*
X75555985Y31599800D03*
D13*
X76255985Y37849800D03*
D16*
X62555985Y44599800D03*
X75555985Y44599800D03*
D13*
X76255985Y41249800D03*
X61855985Y41249800D03*
X61855985Y39549800D03*
X76255985Y39549800D03*
D15*
X67355985Y45099800D03*
X67355985Y31099800D03*
%TD*%
D13*
%TO.C,U20*%
X9468485Y75949800D03*
D14*
X10168485Y69699800D03*
D15*
X16668485Y83199800D03*
X16668485Y69199800D03*
X18368485Y83199800D03*
X18368485Y69199800D03*
D14*
X23168485Y69699800D03*
D13*
X23868485Y75949800D03*
D16*
X10168485Y82699800D03*
X23168485Y82699800D03*
D13*
X23868485Y79349800D03*
X9468485Y79349800D03*
X9468485Y77649800D03*
X23868485Y77649800D03*
D15*
X14968485Y83199800D03*
X14968485Y69199800D03*
%TD*%
D13*
%TO.C,U89*%
X183299735Y-250200D03*
D14*
X183999735Y-6500200D03*
D15*
X190499735Y6999800D03*
X190499735Y-7000200D03*
X192199735Y6999800D03*
X192199735Y-7000200D03*
D14*
X196999735Y-6500200D03*
D13*
X197699735Y-250200D03*
D16*
X183999735Y6499800D03*
X196999735Y6499800D03*
D13*
X197699735Y3149800D03*
X183299735Y3149800D03*
X183299735Y1449800D03*
X197699735Y1449800D03*
D15*
X188799735Y6999800D03*
X188799735Y-7000200D03*
%TD*%
D13*
%TO.C,U30*%
X199968485Y75949800D03*
D14*
X200668485Y69699800D03*
D15*
X207168485Y83199800D03*
X207168485Y69199800D03*
X208868485Y83199800D03*
X208868485Y69199800D03*
D14*
X213668485Y69699800D03*
D13*
X214368485Y75949800D03*
D16*
X200668485Y82699800D03*
X213668485Y82699800D03*
D13*
X214368485Y79349800D03*
X199968485Y79349800D03*
X199968485Y77649800D03*
X214368485Y77649800D03*
D15*
X205468485Y83199800D03*
X205468485Y69199800D03*
%TD*%
D17*
%TO.C,U66*%
X-2375000Y26035000D03*
D18*
X-2375000Y10795000D03*
D13*
X2325000Y18800000D03*
D14*
X3025000Y12550000D03*
D15*
X9525000Y26050000D03*
X9525000Y12050000D03*
X11225000Y26050000D03*
X11225000Y12050000D03*
D14*
X16025000Y12550000D03*
D13*
X16725000Y18800000D03*
D17*
X21425000Y26035000D03*
D18*
X21425000Y10795000D03*
D16*
X3025000Y25550000D03*
X16025000Y25550000D03*
D13*
X16725000Y22200000D03*
X2325000Y22200000D03*
X2325000Y20500000D03*
X16725000Y20500000D03*
D15*
X7825000Y26050000D03*
X7825000Y12050000D03*
%TD*%
D13*
%TO.C,U85*%
X111862235Y-250200D03*
D14*
X112562235Y-6500200D03*
D15*
X119062235Y6999800D03*
X119062235Y-7000200D03*
X120762235Y6999800D03*
X120762235Y-7000200D03*
D14*
X125562235Y-6500200D03*
D13*
X126262235Y-250200D03*
D16*
X112562235Y6499800D03*
X125562235Y6499800D03*
D13*
X126262235Y3149800D03*
X111862235Y3149800D03*
X111862235Y1449800D03*
X126262235Y1449800D03*
D15*
X117362235Y6999800D03*
X117362235Y-7000200D03*
%TD*%
D17*
%TO.C,U32*%
X242893750Y83185000D03*
D18*
X242893750Y67945000D03*
D13*
X247593750Y75950000D03*
D14*
X248293750Y69700000D03*
D15*
X254793750Y83200000D03*
X254793750Y69200000D03*
X256493750Y83200000D03*
X256493750Y69200000D03*
D14*
X261293750Y69700000D03*
D13*
X261993750Y75950000D03*
D17*
X266693750Y83185000D03*
D18*
X266693750Y67945000D03*
D16*
X248293750Y82700000D03*
X261293750Y82700000D03*
D13*
X261993750Y79350000D03*
X247593750Y79350000D03*
X247593750Y77650000D03*
X261993750Y77650000D03*
D15*
X253093750Y83200000D03*
X253093750Y69200000D03*
%TD*%
D13*
%TO.C,U67*%
X33280985Y18799800D03*
D14*
X33980985Y12549800D03*
D15*
X40480985Y26049800D03*
X40480985Y12049800D03*
X42180985Y26049800D03*
X42180985Y12049800D03*
D14*
X46980985Y12549800D03*
D13*
X47680985Y18799800D03*
D16*
X33980985Y25549800D03*
X46980985Y25549800D03*
D13*
X47680985Y22199800D03*
X33280985Y22199800D03*
X33280985Y20499800D03*
X47680985Y20499800D03*
D15*
X38780985Y26049800D03*
X38780985Y12049800D03*
%TD*%
D13*
%TO.C,U18*%
X314268485Y94999800D03*
D14*
X314968485Y88749800D03*
D15*
X321468485Y102249800D03*
X321468485Y88249800D03*
X323168485Y102249800D03*
X323168485Y88249800D03*
D14*
X327968485Y88749800D03*
D13*
X328668485Y94999800D03*
D16*
X314968485Y101749800D03*
X327968485Y101749800D03*
D13*
X328668485Y98399800D03*
X314268485Y98399800D03*
X314268485Y96699800D03*
X328668485Y96699800D03*
D15*
X319768485Y102249800D03*
X319768485Y88249800D03*
%TD*%
D13*
%TO.C,U84*%
X88049735Y-250200D03*
D14*
X88749735Y-6500200D03*
D15*
X95249735Y6999800D03*
X95249735Y-7000200D03*
X96949735Y6999800D03*
X96949735Y-7000200D03*
D14*
X101749735Y-6500200D03*
D13*
X102449735Y-250200D03*
D16*
X88749735Y6499800D03*
X101749735Y6499800D03*
D13*
X102449735Y3149800D03*
X88049735Y3149800D03*
X88049735Y1449800D03*
X102449735Y1449800D03*
D15*
X93549735Y6999800D03*
X93549735Y-7000200D03*
%TD*%
D13*
%TO.C,U14*%
X238068485Y94999800D03*
D14*
X238768485Y88749800D03*
D15*
X245268485Y102249800D03*
X245268485Y88249800D03*
X246968485Y102249800D03*
X246968485Y88249800D03*
D14*
X251768485Y88749800D03*
D13*
X252468485Y94999800D03*
D16*
X238768485Y101749800D03*
X251768485Y101749800D03*
D13*
X252468485Y98399800D03*
X238068485Y98399800D03*
X238068485Y96699800D03*
X252468485Y96699800D03*
D15*
X243568485Y102249800D03*
X243568485Y88249800D03*
%TD*%
D13*
%TO.C,U81*%
X16612235Y-250200D03*
D14*
X17312235Y-6500200D03*
D15*
X23812235Y6999800D03*
X23812235Y-7000200D03*
X25512235Y6999800D03*
X25512235Y-7000200D03*
D14*
X30312235Y-6500200D03*
D13*
X31012235Y-250200D03*
D16*
X17312235Y6499800D03*
X30312235Y6499800D03*
D13*
X31012235Y3149800D03*
X16612235Y3149800D03*
X16612235Y1449800D03*
X31012235Y1449800D03*
D15*
X22112235Y6999800D03*
X22112235Y-7000200D03*
%TD*%
D13*
%TO.C,U74*%
X166630985Y18799800D03*
D14*
X167330985Y12549800D03*
D15*
X173830985Y26049800D03*
X173830985Y12049800D03*
X175530985Y26049800D03*
X175530985Y12049800D03*
D14*
X180330985Y12549800D03*
D13*
X181030985Y18799800D03*
D16*
X167330985Y25549800D03*
X180330985Y25549800D03*
D13*
X181030985Y22199800D03*
X166630985Y22199800D03*
X166630985Y20499800D03*
X181030985Y20499800D03*
D15*
X172130985Y26049800D03*
X172130985Y12049800D03*
%TD*%
D13*
%TO.C,U88*%
X295218485Y37849800D03*
D14*
X295918485Y31599800D03*
D15*
X302418485Y45099800D03*
X302418485Y31099800D03*
X304118485Y45099800D03*
X304118485Y31099800D03*
D14*
X308918485Y31599800D03*
D13*
X309618485Y37849800D03*
D16*
X295918485Y44599800D03*
X308918485Y44599800D03*
D13*
X309618485Y41249800D03*
X295218485Y41249800D03*
X295218485Y39549800D03*
X309618485Y39549800D03*
D15*
X300718485Y45099800D03*
X300718485Y31099800D03*
%TD*%
D13*
%TO.C,U51*%
X295218485Y56899800D03*
D14*
X295918485Y50649800D03*
D15*
X302418485Y64149800D03*
X302418485Y50149800D03*
X304118485Y64149800D03*
X304118485Y50149800D03*
D14*
X308918485Y50649800D03*
D13*
X309618485Y56899800D03*
D16*
X295918485Y63649800D03*
X308918485Y63649800D03*
D13*
X309618485Y60299800D03*
X295218485Y60299800D03*
X295218485Y58599800D03*
X309618485Y58599800D03*
D15*
X300718485Y64149800D03*
X300718485Y50149800D03*
%TD*%
D20*
%TO.C,U99*%
X28939000Y107751000D03*
X28939000Y105211000D03*
X10939000Y102671000D03*
X28939000Y102671000D03*
X28939000Y100131000D03*
X10939000Y107751000D03*
X28939000Y97591000D03*
X28939000Y95051000D03*
X28939000Y92511000D03*
X28939000Y89971000D03*
X28939000Y87431000D03*
X25019000Y86141000D03*
X22479000Y86141000D03*
X19939000Y86141000D03*
X17399000Y86141000D03*
X14859000Y86141000D03*
X10939000Y87431000D03*
X10939000Y89971000D03*
D21*
X13959000Y90936000D03*
X13959000Y92206000D03*
X13959000Y93476000D03*
X13959000Y94746000D03*
X13959000Y96016000D03*
X13959000Y97286000D03*
X13959000Y98556000D03*
X13959000Y99826000D03*
X13959000Y101096000D03*
D20*
X10939000Y92511000D03*
X10939000Y95051000D03*
X10939000Y97591000D03*
X10939000Y100131000D03*
X10939000Y105211000D03*
D21*
X13959000Y102366000D03*
%TD*%
D13*
%TO.C,U13*%
X219018485Y94999800D03*
D14*
X219718485Y88749800D03*
D15*
X226218485Y102249800D03*
X226218485Y88249800D03*
X227918485Y102249800D03*
X227918485Y88249800D03*
D14*
X232718485Y88749800D03*
D13*
X233418485Y94999800D03*
D16*
X219718485Y101749800D03*
X232718485Y101749800D03*
D13*
X233418485Y98399800D03*
X219018485Y98399800D03*
X219018485Y96699800D03*
X233418485Y96699800D03*
D15*
X224518485Y102249800D03*
X224518485Y88249800D03*
%TD*%
D19*
%TO.C,H5*%
X130810000Y-3000000D03*
%TD*%
D13*
%TO.C,U28*%
X161868485Y75949800D03*
D14*
X162568485Y69699800D03*
D15*
X169068485Y83199800D03*
X169068485Y69199800D03*
X170768485Y83199800D03*
X170768485Y69199800D03*
D14*
X175568485Y69699800D03*
D13*
X176268485Y75949800D03*
D16*
X162568485Y82699800D03*
X175568485Y82699800D03*
D13*
X176268485Y79349800D03*
X161868485Y79349800D03*
X161868485Y77649800D03*
X176268485Y77649800D03*
D15*
X167368485Y83199800D03*
X167368485Y69199800D03*
%TD*%
D19*
%TO.C,H9*%
X327660000Y106500000D03*
%TD*%
D13*
%TO.C,U10*%
X157105985Y94999800D03*
D14*
X157805985Y88749800D03*
D15*
X164305985Y102249800D03*
X164305985Y88249800D03*
X166005985Y102249800D03*
X166005985Y88249800D03*
D14*
X170805985Y88749800D03*
D13*
X171505985Y94999800D03*
D16*
X157805985Y101749800D03*
X170805985Y101749800D03*
D13*
X171505985Y98399800D03*
X157105985Y98399800D03*
X157105985Y96699800D03*
X171505985Y96699800D03*
D15*
X162605985Y102249800D03*
X162605985Y88249800D03*
%TD*%
D13*
%TO.C,U96*%
X314268485Y37849800D03*
D14*
X314968485Y31599800D03*
D15*
X321468485Y45099800D03*
X321468485Y31099800D03*
X323168485Y45099800D03*
X323168485Y31099800D03*
D14*
X327968485Y31599800D03*
D13*
X328668485Y37849800D03*
D16*
X314968485Y44599800D03*
X327968485Y44599800D03*
D13*
X328668485Y41249800D03*
X314268485Y41249800D03*
X314268485Y39549800D03*
X328668485Y39549800D03*
D15*
X319768485Y45099800D03*
X319768485Y31099800D03*
%TD*%
D19*
%TO.C,H3*%
X78581250Y34528125D03*
%TD*%
D13*
%TO.C,U95*%
X314268485Y-250200D03*
D14*
X314968485Y-6500200D03*
D15*
X321468485Y6999800D03*
X321468485Y-7000200D03*
X323168485Y6999800D03*
X323168485Y-7000200D03*
D14*
X327968485Y-6500200D03*
D13*
X328668485Y-250200D03*
D16*
X314968485Y6499800D03*
X327968485Y6499800D03*
D13*
X328668485Y3149800D03*
X314268485Y3149800D03*
X314268485Y1449800D03*
X328668485Y1449800D03*
D15*
X319768485Y6999800D03*
X319768485Y-7000200D03*
%TD*%
D13*
%TO.C,U2*%
X-9581515Y94999800D03*
D14*
X-8881515Y88749800D03*
D15*
X-2381515Y102249800D03*
X-2381515Y88249800D03*
X-681515Y102249800D03*
X-681515Y88249800D03*
D14*
X4118485Y88749800D03*
D13*
X4818485Y94999800D03*
D16*
X-8881515Y101749800D03*
X4118485Y101749800D03*
D13*
X4818485Y98399800D03*
X-9581515Y98399800D03*
X-9581515Y96699800D03*
X4818485Y96699800D03*
D15*
X-4081515Y102249800D03*
X-4081515Y88249800D03*
%TD*%
D13*
%TO.C,U54*%
X23755985Y37849800D03*
D14*
X24455985Y31599800D03*
D15*
X30955985Y45099800D03*
X30955985Y31099800D03*
X32655985Y45099800D03*
X32655985Y31099800D03*
D14*
X37455985Y31599800D03*
D13*
X38155985Y37849800D03*
D16*
X24455985Y44599800D03*
X37455985Y44599800D03*
D13*
X38155985Y41249800D03*
X23755985Y41249800D03*
X23755985Y39549800D03*
X38155985Y39549800D03*
D15*
X29255985Y45099800D03*
X29255985Y31099800D03*
%TD*%
D13*
%TO.C,U70*%
X90430985Y18799800D03*
D14*
X91130985Y12549800D03*
D15*
X97630985Y26049800D03*
X97630985Y12049800D03*
X99330985Y26049800D03*
X99330985Y12049800D03*
D14*
X104130985Y12549800D03*
D13*
X104830985Y18799800D03*
D16*
X91130985Y25549800D03*
X104130985Y25549800D03*
D13*
X104830985Y22199800D03*
X90430985Y22199800D03*
X90430985Y20499800D03*
X104830985Y20499800D03*
D15*
X95930985Y26049800D03*
X95930985Y12049800D03*
%TD*%
D13*
%TO.C,U8*%
X119005985Y94999800D03*
D14*
X119705985Y88749800D03*
D15*
X126205985Y102249800D03*
X126205985Y88249800D03*
X127905985Y102249800D03*
X127905985Y88249800D03*
D14*
X132705985Y88749800D03*
D13*
X133405985Y94999800D03*
D16*
X119705985Y101749800D03*
X132705985Y101749800D03*
D13*
X133405985Y98399800D03*
X119005985Y98399800D03*
X119005985Y96699800D03*
X133405985Y96699800D03*
D15*
X124505985Y102249800D03*
X124505985Y88249800D03*
%TD*%
D13*
%TO.C,U29*%
X180918485Y75949800D03*
D14*
X181618485Y69699800D03*
D15*
X188118485Y83199800D03*
X188118485Y69199800D03*
X189818485Y83199800D03*
X189818485Y69199800D03*
D14*
X194618485Y69699800D03*
D13*
X195318485Y75949800D03*
D16*
X181618485Y82699800D03*
X194618485Y82699800D03*
D13*
X195318485Y79349800D03*
X180918485Y79349800D03*
X180918485Y77649800D03*
X195318485Y77649800D03*
D15*
X186418485Y83199800D03*
X186418485Y69199800D03*
%TD*%
D13*
%TO.C,U52*%
X314268485Y56899800D03*
D14*
X314968485Y50649800D03*
D15*
X321468485Y64149800D03*
X321468485Y50149800D03*
X323168485Y64149800D03*
X323168485Y50149800D03*
D14*
X327968485Y50649800D03*
D13*
X328668485Y56899800D03*
D16*
X314968485Y63649800D03*
X327968485Y63649800D03*
D13*
X328668485Y60299800D03*
X314268485Y60299800D03*
X314268485Y58599800D03*
X328668485Y58599800D03*
D15*
X319768485Y64149800D03*
X319768485Y50149800D03*
%TD*%
D19*
%TO.C,H4*%
X273050000Y-3000000D03*
%TD*%
D13*
%TO.C,U5*%
X57093485Y94999800D03*
D14*
X57793485Y88749800D03*
D15*
X64293485Y102249800D03*
X64293485Y88249800D03*
X65993485Y102249800D03*
X65993485Y88249800D03*
D14*
X70793485Y88749800D03*
D13*
X71493485Y94999800D03*
D16*
X57793485Y101749800D03*
X70793485Y101749800D03*
D13*
X71493485Y98399800D03*
X57093485Y98399800D03*
X57093485Y96699800D03*
X71493485Y96699800D03*
D15*
X62593485Y102249800D03*
X62593485Y88249800D03*
%TD*%
D13*
%TO.C,U78*%
X249974735Y18799800D03*
D14*
X250674735Y12549800D03*
D15*
X257174735Y26049800D03*
X257174735Y12049800D03*
X258874735Y26049800D03*
X258874735Y12049800D03*
D14*
X263674735Y12549800D03*
D13*
X264374735Y18799800D03*
D16*
X250674735Y25549800D03*
X263674735Y25549800D03*
D13*
X264374735Y22199800D03*
X249974735Y22199800D03*
X249974735Y20499800D03*
X264374735Y20499800D03*
D15*
X255474735Y26049800D03*
X255474735Y12049800D03*
%TD*%
D13*
%TO.C,U37*%
X18993485Y56899800D03*
D14*
X19693485Y50649800D03*
D15*
X26193485Y64149800D03*
X26193485Y50149800D03*
X27893485Y64149800D03*
X27893485Y50149800D03*
D14*
X32693485Y50649800D03*
D13*
X33393485Y56899800D03*
D16*
X19693485Y63649800D03*
X32693485Y63649800D03*
D13*
X33393485Y60299800D03*
X18993485Y60299800D03*
X18993485Y58599800D03*
X33393485Y58599800D03*
D15*
X24493485Y64149800D03*
X24493485Y50149800D03*
%TD*%
D13*
%TO.C,U97*%
X276168485Y18799800D03*
D14*
X276868485Y12549800D03*
D15*
X283368485Y26049800D03*
X283368485Y12049800D03*
X285068485Y26049800D03*
X285068485Y12049800D03*
D14*
X289868485Y12549800D03*
D13*
X290568485Y18799800D03*
D16*
X276868485Y25549800D03*
X289868485Y25549800D03*
D13*
X290568485Y22199800D03*
X276168485Y22199800D03*
X276168485Y20499800D03*
X290568485Y20499800D03*
D15*
X281668485Y26049800D03*
X281668485Y12049800D03*
%TD*%
D13*
%TO.C,U77*%
X223780985Y18799800D03*
D14*
X224480985Y12549800D03*
D15*
X230980985Y26049800D03*
X230980985Y12049800D03*
X232680985Y26049800D03*
X232680985Y12049800D03*
D14*
X237480985Y12549800D03*
D13*
X238180985Y18799800D03*
D16*
X224480985Y25549800D03*
X237480985Y25549800D03*
D13*
X238180985Y22199800D03*
X223780985Y22199800D03*
X223780985Y20499800D03*
X238180985Y20499800D03*
D15*
X229280985Y26049800D03*
X229280985Y12049800D03*
%TD*%
D13*
%TO.C,U42*%
X114243485Y56899800D03*
D14*
X114943485Y50649800D03*
D15*
X121443485Y64149800D03*
X121443485Y50149800D03*
X123143485Y64149800D03*
X123143485Y50149800D03*
D14*
X127943485Y50649800D03*
D13*
X128643485Y56899800D03*
D16*
X114943485Y63649800D03*
X127943485Y63649800D03*
D13*
X128643485Y60299800D03*
X114243485Y60299800D03*
X114243485Y58599800D03*
X128643485Y58599800D03*
D15*
X119743485Y64149800D03*
X119743485Y50149800D03*
%TD*%
D13*
%TO.C,U71*%
X109480985Y18799800D03*
D14*
X110180985Y12549800D03*
D15*
X116680985Y26049800D03*
X116680985Y12049800D03*
X118380985Y26049800D03*
X118380985Y12049800D03*
D14*
X123180985Y12549800D03*
D13*
X123880985Y18799800D03*
D16*
X110180985Y25549800D03*
X123180985Y25549800D03*
D13*
X123880985Y22199800D03*
X109480985Y22199800D03*
X109480985Y20499800D03*
X123880985Y20499800D03*
D15*
X114980985Y26049800D03*
X114980985Y12049800D03*
%TD*%
D13*
%TO.C,U47*%
X209493485Y56899800D03*
D14*
X210193485Y50649800D03*
D15*
X216693485Y64149800D03*
X216693485Y50149800D03*
X218393485Y64149800D03*
X218393485Y50149800D03*
D14*
X223193485Y50649800D03*
D13*
X223893485Y56899800D03*
D16*
X210193485Y63649800D03*
X223193485Y63649800D03*
D13*
X223893485Y60299800D03*
X209493485Y60299800D03*
X209493485Y58599800D03*
X223893485Y58599800D03*
D15*
X214993485Y64149800D03*
X214993485Y50149800D03*
%TD*%
D13*
%TO.C,U64*%
X215208485Y38008550D03*
D14*
X215908485Y31758550D03*
D15*
X222408485Y45258550D03*
X222408485Y31258550D03*
X224108485Y45258550D03*
X224108485Y31258550D03*
D14*
X228908485Y31758550D03*
D13*
X229608485Y38008550D03*
D16*
X215908485Y44758550D03*
X228908485Y44758550D03*
D13*
X229608485Y41408550D03*
X215208485Y41408550D03*
X215208485Y39708550D03*
X229608485Y39708550D03*
D15*
X220708485Y45258550D03*
X220708485Y31258550D03*
%TD*%
D13*
%TO.C,U38*%
X38043485Y56899800D03*
D14*
X38743485Y50649800D03*
D15*
X45243485Y64149800D03*
X45243485Y50149800D03*
X46943485Y64149800D03*
X46943485Y50149800D03*
D14*
X51743485Y50649800D03*
D13*
X52443485Y56899800D03*
D16*
X38743485Y63649800D03*
X51743485Y63649800D03*
D13*
X52443485Y60299800D03*
X38043485Y60299800D03*
X38043485Y58599800D03*
X52443485Y58599800D03*
D15*
X43543485Y64149800D03*
X43543485Y50149800D03*
%TD*%
D13*
%TO.C,U72*%
X128530985Y18799800D03*
D14*
X129230985Y12549800D03*
D15*
X135730985Y26049800D03*
X135730985Y12049800D03*
X137430985Y26049800D03*
X137430985Y12049800D03*
D14*
X142230985Y12549800D03*
D13*
X142930985Y18799800D03*
D16*
X129230985Y25549800D03*
X142230985Y25549800D03*
D13*
X142930985Y22199800D03*
X128530985Y22199800D03*
X128530985Y20499800D03*
X142930985Y20499800D03*
D15*
X134030985Y26049800D03*
X134030985Y12049800D03*
%TD*%
D13*
%TO.C,U9*%
X138055985Y94999800D03*
D14*
X138755985Y88749800D03*
D15*
X145255985Y102249800D03*
X145255985Y88249800D03*
X146955985Y102249800D03*
X146955985Y88249800D03*
D14*
X151755985Y88749800D03*
D13*
X152455985Y94999800D03*
D16*
X138755985Y101749800D03*
X151755985Y101749800D03*
D13*
X152455985Y98399800D03*
X138055985Y98399800D03*
X138055985Y96699800D03*
X152455985Y96699800D03*
D15*
X143555985Y102249800D03*
X143555985Y88249800D03*
%TD*%
D13*
%TO.C,U62*%
X176155985Y37849800D03*
D14*
X176855985Y31599800D03*
D15*
X183355985Y45099800D03*
X183355985Y31099800D03*
X185055985Y45099800D03*
X185055985Y31099800D03*
D14*
X189855985Y31599800D03*
D13*
X190555985Y37849800D03*
D16*
X176855985Y44599800D03*
X189855985Y44599800D03*
D13*
X190555985Y41249800D03*
X176155985Y41249800D03*
X176155985Y39549800D03*
X190555985Y39549800D03*
D15*
X181655985Y45099800D03*
X181655985Y31099800D03*
%TD*%
D13*
%TO.C,U93*%
X276168485Y-250200D03*
D14*
X276868485Y-6500200D03*
D15*
X283368485Y6999800D03*
X283368485Y-7000200D03*
X285068485Y6999800D03*
X285068485Y-7000200D03*
D14*
X289868485Y-6500200D03*
D13*
X290568485Y-250200D03*
D16*
X276868485Y6499800D03*
X289868485Y6499800D03*
D13*
X290568485Y3149800D03*
X276168485Y3149800D03*
X276168485Y1449800D03*
X290568485Y1449800D03*
D15*
X281668485Y6999800D03*
X281668485Y-7000200D03*
%TD*%
D13*
%TO.C,U73*%
X147580985Y18799800D03*
D14*
X148280985Y12549800D03*
D15*
X154780985Y26049800D03*
X154780985Y12049800D03*
X156480985Y26049800D03*
X156480985Y12049800D03*
D14*
X161280985Y12549800D03*
D13*
X161980985Y18799800D03*
D16*
X148280985Y25549800D03*
X161280985Y25549800D03*
D13*
X161980985Y22199800D03*
X147580985Y22199800D03*
X147580985Y20499800D03*
X161980985Y20499800D03*
D15*
X153080985Y26049800D03*
X153080985Y12049800D03*
%TD*%
%LPD*%
M02*
