M48
; DRILL file {KiCad 7.0.5} date Thu 08 Jun 2023 02:54:28 PM CEST
; FORMAT={-:-/ absolute / inch / decimal}
; #@! TF.CreationDate,2023-06-08T14:54:28+02:00
; #@! TF.GenerationSoftware,Kicad,Pcbnew,7.0.5
; #@! TF.FileFunction,NonPlated,1,2,NPTH
FMAT,2
INCH
; #@! TA.AperFunction,NonPlated,NPTH,ComponentDrill
T1C0.0827
; #@! TA.AperFunction,NonPlated,NPTH,ComponentDrill
T2C0.1200
; #@! TA.AperFunction,NonPlated,NPTH,ComponentDrill
T3C0.1570
%
G90
G05
T1
X-0.2953Y4.1929
X0.5Y-0.1181
X0.5625Y2.1562
X3.0938Y1.3594
X5.15Y-0.1181
X5.5312Y2.8594
X10.6875Y2.1094
X10.75Y-0.1181
X12.9Y4.1929
T2
X-0.0935Y1.025
X0.8435Y1.025
X9.469Y1.775
X9.5627Y3.275
X10.406Y1.775
X10.4998Y3.275
T3
X-0.0935Y0.425
X0.8435Y0.425
X9.469Y1.175
X9.5627Y2.675
X10.406Y1.175
X10.4998Y2.675
T0
M30
