M48
; DRILL file {KiCad 7.0.5} date Thu 08 Jun 2023 02:54:28 PM CEST
; FORMAT={-:-/ absolute / inch / decimal}
; #@! TF.CreationDate,2023-06-08T14:54:28+02:00
; #@! TF.GenerationSoftware,Kicad,Pcbnew,7.0.5
; #@! TF.FileFunction,Plated,1,2,PTH
FMAT,2
INCH
; #@! TA.AperFunction,Plated,PTH,ComponentDrill
T1C0.0118
; #@! TA.AperFunction,Plated,PTH,ViaDrill
T2C0.0157
; #@! TA.AperFunction,Plated,PTH,ComponentDrill
T3C0.0197
; #@! TA.AperFunction,Plated,PTH,ComponentDrill
T4C0.0394
%
G90
G05
T1
X-0.3969Y3.874
X-0.3969Y3.8071
X-0.3969Y3.7401
X-0.3969Y3.124
X-0.3969Y3.0571
X-0.3969Y2.9901
X-0.3032Y0.124
X-0.3032Y0.0571
X-0.3032Y-0.0099
X-0.2094Y2.374
X-0.2094Y2.3071
X-0.2094Y2.2401
X-0.1607Y4.0453
X-0.1607Y3.4547
X-0.1607Y3.2953
X-0.1607Y2.7047
X-0.1157Y1.624
X-0.1157Y1.5571
X-0.1157Y1.4901
X-0.0938Y4.0453
X-0.0938Y3.4547
X-0.0938Y3.2953
X-0.0938Y2.7047
X-0.0669Y0.2953
X-0.0669Y-0.2953
X-0.0268Y4.0453
X-0.0268Y3.4547
X-0.0268Y3.2953
X-0.0268Y2.7047
X-0.0Y0.2953
X-0.0Y-0.2953
X0.0268Y2.5453
X0.0268Y1.9547
X0.0669Y0.2953
X0.0669Y-0.2953
X0.0719Y0.874
X0.0719Y0.8071
X0.0719Y0.7402
X0.0937Y2.5453
X0.0937Y1.9547
X0.1206Y1.7953
X0.1206Y1.2047
X0.1607Y2.5453
X0.1607Y1.9547
X0.1875Y1.7953
X0.1875Y1.2047
X0.2094Y3.874
X0.2094Y3.8071
X0.2094Y3.7401
X0.2094Y3.124
X0.2094Y3.0571
X0.2094Y2.9901
X0.2544Y1.7953
X0.2544Y1.2047
X0.3031Y0.124
X0.3031Y0.0571
X0.3031Y-0.0099
X0.3081Y1.0453
X0.3081Y0.4547
X0.3531Y3.124
X0.3531Y3.0571
X0.3531Y2.9901
X0.375Y1.0453
X0.375Y0.4547
X0.3969Y2.374
X0.3969Y2.3071
X0.3969Y2.2401
X0.4419Y1.0453
X0.4419Y0.4547
X0.4906Y1.624
X0.4906Y1.5571
X0.4906Y1.4901
X0.5893Y3.2953
X0.5893Y2.7047
X0.6343Y0.124
X0.6343Y0.0571
X0.6343Y-0.0099
X0.6562Y3.2953
X0.6562Y2.7047
X0.6781Y0.874
X0.6781Y0.8071
X0.6781Y0.7402
X0.7232Y3.2953
X0.7232Y2.7047
X0.7281Y2.374
X0.7281Y2.3071
X0.7281Y2.2401
X0.8706Y0.2953
X0.8706Y-0.2953
X0.9156Y1.624
X0.9156Y1.5571
X0.9156Y1.4901
X0.9375Y0.2953
X0.9375Y-0.2953
X0.9594Y3.124
X0.9594Y3.0571
X0.9594Y2.9901
X0.9643Y2.5453
X0.9643Y1.9547
X1.0044Y0.2953
X1.0044Y-0.2953
X1.0312Y2.5453
X1.0312Y1.9547
X1.0982Y2.5453
X1.0982Y1.9547
X1.1031Y3.124
X1.1031Y3.0571
X1.1031Y2.9901
X1.1518Y1.7953
X1.1518Y1.2047
X1.2187Y1.7953
X1.2187Y1.2047
X1.2406Y0.124
X1.2406Y0.0571
X1.2406Y-0.0099
X1.2857Y1.7953
X1.2857Y1.2047
X1.2906Y0.874
X1.2906Y0.8071
X1.2906Y0.7401
X1.3344Y2.374
X1.3344Y2.3071
X1.3344Y2.2401
X1.3393Y3.2953
X1.3393Y2.7047
X1.4062Y3.2953
X1.4062Y2.7047
X1.4732Y3.2953
X1.4732Y2.7047
X1.4781Y3.874
X1.4781Y3.8071
X1.4781Y3.7401
X1.4781Y2.374
X1.4781Y2.3071
X1.4781Y2.2401
X1.5219Y1.624
X1.5219Y1.5571
X1.5219Y1.4901
X1.5268Y1.0453
X1.5268Y0.4547
X1.5718Y0.124
X1.5718Y0.0571
X1.5718Y-0.0099
X1.5937Y1.0453
X1.5937Y0.4547
X1.6607Y1.0453
X1.6607Y0.4547
X1.6656Y1.624
X1.6656Y1.5571
X1.6656Y1.4901
X1.7094Y3.124
X1.7094Y3.0571
X1.7094Y2.9901
X1.7143Y4.0453
X1.7143Y3.4547
X1.7143Y2.5453
X1.7143Y1.9547
X1.7812Y4.0453
X1.7812Y3.4547
X1.7812Y2.5453
X1.7812Y1.9547
X1.8081Y0.2953
X1.8081Y-0.2953
X1.8482Y4.0453
X1.8482Y3.4547
X1.8482Y2.5453
X1.8482Y1.9547
X1.8531Y3.124
X1.8531Y3.0571
X1.8531Y2.9901
X1.875Y0.2953
X1.875Y-0.2953
X1.8969Y0.874
X1.8969Y0.8071
X1.8969Y0.7401
X1.9018Y1.7953
X1.9018Y1.2047
X1.9419Y0.2953
X1.9419Y-0.2953
X1.9687Y1.7953
X1.9687Y1.2047
X2.0357Y1.7953
X2.0357Y1.2047
X2.0406Y0.874
X2.0406Y0.8071
X2.0406Y0.7401
X2.0844Y3.874
X2.0844Y3.8071
X2.0844Y3.7401
X2.0844Y2.374
X2.0844Y2.3071
X2.0844Y2.2401
X2.0893Y3.2953
X2.0893Y2.7047
X2.1562Y3.2953
X2.1562Y2.7047
X2.1781Y0.124
X2.1781Y0.0571
X2.1781Y-0.0099
X2.2232Y3.2953
X2.2232Y2.7047
X2.2281Y3.874
X2.2281Y3.8071
X2.2281Y3.7401
X2.2281Y2.374
X2.2281Y2.3071
X2.2281Y2.2401
X2.2719Y1.624
X2.2719Y1.5571
X2.2719Y1.4901
X2.2768Y1.0453
X2.2768Y0.4547
X2.3437Y1.0453
X2.3437Y0.4547
X2.4107Y1.0453
X2.4107Y0.4547
X2.4156Y1.624
X2.4156Y1.5571
X2.4156Y1.4901
X2.4594Y3.124
X2.4594Y3.0571
X2.4594Y2.9901
X2.4643Y4.0453
X2.4643Y3.4547
X2.4643Y2.5453
X2.4643Y1.9547
X2.5093Y0.124
X2.5093Y0.0571
X2.5093Y-0.0099
X2.5312Y4.0453
X2.5312Y3.4547
X2.5312Y2.5453
X2.5312Y1.9547
X2.5982Y4.0453
X2.5982Y3.4547
X2.5982Y2.5453
X2.5982Y1.9547
X2.6031Y3.124
X2.6031Y3.0571
X2.6031Y2.9901
X2.6469Y0.874
X2.6469Y0.8071
X2.6469Y0.7401
X2.6518Y1.7953
X2.6518Y1.2047
X2.7187Y1.7953
X2.7187Y1.2047
X2.7456Y0.2953
X2.7456Y-0.2953
X2.7857Y1.7953
X2.7857Y1.2047
X2.7906Y0.874
X2.7906Y0.8071
X2.7906Y0.7401
X2.8125Y0.2953
X2.8125Y-0.2953
X2.8344Y3.874
X2.8344Y3.8071
X2.8344Y3.7401
X2.8344Y2.374
X2.8344Y2.3071
X2.8344Y2.2401
X2.8393Y3.2953
X2.8393Y2.7047
X2.8794Y0.2953
X2.8794Y-0.2953
X2.9062Y3.2953
X2.9062Y2.7047
X2.9732Y3.2953
X2.9732Y2.7047
X2.9781Y3.874
X2.9781Y3.8071
X2.9781Y3.7401
X2.9781Y2.374
X2.9781Y2.3071
X2.9781Y2.2401
X3.0219Y1.624
X3.0219Y1.5571
X3.0219Y1.4901
X3.0268Y1.0453
X3.0268Y0.4547
X3.0937Y1.0453
X3.0937Y0.4547
X3.1156Y0.124
X3.1156Y0.0571
X3.1156Y-0.0099
X3.1607Y1.0453
X3.1607Y0.4547
X3.1656Y1.624
X3.1656Y1.5571
X3.1656Y1.4901
X3.2094Y3.124
X3.2094Y3.0571
X3.2094Y2.9901
X3.2143Y4.0453
X3.2143Y3.4547
X3.2143Y2.5453
X3.2143Y1.9547
X3.2812Y4.0453
X3.2812Y3.4547
X3.2812Y2.5453
X3.2812Y1.9547
X3.3482Y4.0453
X3.3482Y3.4547
X3.3482Y2.5453
X3.3482Y1.9547
X3.3531Y3.124
X3.3531Y3.0571
X3.3531Y2.9901
X3.3969Y0.874
X3.3969Y0.8071
X3.3969Y0.7401
X3.4018Y1.7953
X3.4018Y1.2047
X3.4468Y0.124
X3.4468Y0.0571
X3.4468Y-0.0099
X3.4687Y1.7953
X3.4687Y1.2047
X3.5357Y1.7953
X3.5357Y1.2047
X3.5406Y0.874
X3.5406Y0.8071
X3.5406Y0.7401
X3.5844Y3.874
X3.5844Y3.8071
X3.5844Y3.7401
X3.5844Y2.374
X3.5844Y2.3071
X3.5844Y2.2401
X3.5893Y3.2953
X3.5893Y2.7047
X3.6562Y3.2953
X3.6562Y2.7047
X3.6831Y0.2953
X3.6831Y-0.2953
X3.7232Y3.2953
X3.7232Y2.7047
X3.7281Y3.874
X3.7281Y3.8071
X3.7281Y3.7401
X3.7281Y2.374
X3.7281Y2.3071
X3.7281Y2.2401
X3.75Y0.2953
X3.75Y-0.2953
X3.7719Y1.624
X3.7719Y1.5571
X3.7719Y1.4901
X3.7768Y1.0453
X3.7768Y0.4547
X3.8169Y0.2953
X3.8169Y-0.2953
X3.8437Y1.0453
X3.8437Y0.4547
X3.9107Y1.0453
X3.9107Y0.4547
X3.9156Y1.624
X3.9156Y1.5571
X3.9156Y1.4901
X3.9594Y3.124
X3.9594Y3.0571
X3.9594Y2.9901
X3.9643Y4.0453
X3.9643Y3.4547
X3.9643Y2.5453
X3.9643Y1.9547
X4.0312Y4.0453
X4.0312Y3.4547
X4.0312Y2.5453
X4.0312Y1.9547
X4.0531Y0.124
X4.0531Y0.0571
X4.0531Y-0.0099
X4.0982Y4.0453
X4.0982Y3.4547
X4.0982Y2.5453
X4.0982Y1.9547
X4.1031Y3.124
X4.1031Y3.0571
X4.1031Y2.9901
X4.1469Y0.874
X4.1469Y0.8071
X4.1469Y0.7401
X4.1518Y1.7953
X4.1518Y1.2047
X4.2187Y1.7953
X4.2187Y1.2047
X4.2857Y1.7953
X4.2857Y1.2047
X4.2906Y0.874
X4.2906Y0.8071
X4.2906Y0.7401
X4.3344Y3.874
X4.3344Y3.8071
X4.3344Y3.7401
X4.3344Y2.374
X4.3344Y2.3071
X4.3344Y2.2401
X4.3393Y3.2953
X4.3393Y2.7047
X4.3843Y0.124
X4.3843Y0.0571
X4.3843Y-0.0099
X4.4062Y3.2953
X4.4062Y2.7047
X4.4732Y3.2953
X4.4732Y2.7047
X4.4781Y2.374
X4.4781Y2.3071
X4.4781Y2.2401
X4.5219Y1.624
X4.5219Y1.5571
X4.5219Y1.4901
X4.5268Y1.0453
X4.5268Y0.4547
X4.5937Y1.0453
X4.5937Y0.4547
X4.6206Y0.2953
X4.6206Y-0.2953
X4.6607Y1.0453
X4.6607Y0.4547
X4.6656Y3.874
X4.6656Y3.8071
X4.6656Y3.7401
X4.6656Y1.624
X4.6656Y1.5571
X4.6656Y1.4901
X4.6875Y0.2953
X4.6875Y-0.2953
X4.7094Y3.124
X4.7094Y3.0571
X4.7094Y2.9901
X4.7143Y2.5453
X4.7143Y1.9547
X4.7544Y0.2953
X4.7544Y-0.2953
X4.7812Y2.5453
X4.7812Y1.9547
X4.8482Y2.5453
X4.8482Y1.9547
X4.8531Y3.124
X4.8531Y3.0571
X4.8531Y2.9901
X4.8969Y0.874
X4.8969Y0.8071
X4.8969Y0.7401
X4.9018Y4.0453
X4.9018Y3.4547
X4.9018Y1.7953
X4.9018Y1.2047
X4.9687Y4.0453
X4.9687Y3.4547
X4.9687Y1.7953
X4.9687Y1.2047
X4.9906Y0.124
X4.9906Y0.0571
X4.9906Y-0.0099
X5.0357Y4.0453
X5.0357Y3.4547
X5.0357Y1.7953
X5.0357Y1.2047
X5.0406Y0.874
X5.0406Y0.8071
X5.0406Y0.7401
X5.0844Y2.374
X5.0844Y2.3071
X5.0844Y2.2401
X5.0893Y3.2953
X5.0893Y2.7047
X5.1562Y3.2953
X5.1562Y2.7047
X5.2232Y3.2953
X5.2232Y2.7047
X5.2281Y2.374
X5.2281Y2.3071
X5.2281Y2.2401
X5.2719Y3.874
X5.2719Y3.8071
X5.2719Y3.7401
X5.2719Y1.624
X5.2719Y1.5571
X5.2719Y1.4901
X5.2768Y1.0453
X5.2768Y0.4547
X5.3218Y0.124
X5.3218Y0.0571
X5.3218Y-0.0099
X5.3437Y1.0453
X5.3437Y0.4547
X5.4107Y1.0453
X5.4107Y0.4547
X5.4156Y3.874
X5.4156Y3.8071
X5.4156Y3.7401
X5.4156Y1.624
X5.4156Y1.5571
X5.4156Y1.4901
X5.4594Y3.124
X5.4594Y3.0571
X5.4594Y2.9901
X5.4643Y2.5453
X5.4643Y1.9547
X5.5312Y2.5453
X5.5312Y1.9547
X5.5581Y0.2953
X5.5581Y-0.2953
X5.5982Y2.5453
X5.5982Y1.9547
X5.6031Y3.124
X5.6031Y3.0571
X5.6031Y2.9901
X5.625Y0.2953
X5.625Y-0.2953
X5.6469Y0.874
X5.6469Y0.8071
X5.6469Y0.7401
X5.6518Y4.0453
X5.6518Y3.4547
X5.6518Y1.7953
X5.6518Y1.2047
X5.6919Y0.2953
X5.6919Y-0.2953
X5.7187Y4.0453
X5.7187Y3.4547
X5.7187Y1.7953
X5.7187Y1.2047
X5.7857Y4.0453
X5.7857Y3.4547
X5.7857Y1.7953
X5.7857Y1.2047
X5.7906Y0.874
X5.7906Y0.8071
X5.7906Y0.7401
X5.8344Y2.374
X5.8344Y2.3071
X5.8344Y2.2401
X5.8393Y3.2953
X5.8393Y2.7047
X5.9062Y3.2953
X5.9062Y2.7047
X5.9281Y0.124
X5.9281Y0.0571
X5.9281Y-0.0099
X5.9732Y3.2953
X5.9732Y2.7047
X5.9781Y2.374
X5.9781Y2.3071
X5.9781Y2.2401
X6.0219Y3.874
X6.0219Y3.8071
X6.0219Y3.7401
X6.0219Y1.624
X6.0219Y1.5571
X6.0219Y1.4901
X6.0268Y1.0453
X6.0268Y0.4547
X6.0937Y1.0453
X6.0937Y0.4547
X6.1607Y1.0453
X6.1607Y0.4547
X6.1656Y3.874
X6.1656Y3.8071
X6.1656Y3.7401
X6.1656Y1.624
X6.1656Y1.5571
X6.1656Y1.4901
X6.2094Y3.124
X6.2094Y3.0571
X6.2094Y2.9901
X6.2143Y2.5453
X6.2143Y1.9547
X6.2593Y0.124
X6.2593Y0.0571
X6.2593Y-0.0099
X6.2812Y2.5453
X6.2812Y1.9547
X6.3482Y2.5453
X6.3482Y1.9547
X6.3531Y3.124
X6.3531Y3.0571
X6.3531Y2.9901
X6.3969Y0.874
X6.3969Y0.8071
X6.3969Y0.7401
X6.4018Y4.0453
X6.4018Y3.4547
X6.4018Y1.7953
X6.4018Y1.2047
X6.4687Y4.0453
X6.4687Y3.4547
X6.4687Y1.7953
X6.4687Y1.2047
X6.4956Y0.2953
X6.4956Y-0.2953
X6.5357Y4.0453
X6.5357Y3.4547
X6.5357Y1.7953
X6.5357Y1.2047
X6.5406Y0.874
X6.5406Y0.8071
X6.5406Y0.7401
X6.5625Y0.2953
X6.5625Y-0.2953
X6.5844Y2.374
X6.5844Y2.3071
X6.5844Y2.2401
X6.5893Y3.2953
X6.5893Y2.7047
X6.6294Y0.2953
X6.6294Y-0.2953
X6.6562Y3.2953
X6.6562Y2.7047
X6.7232Y3.2953
X6.7232Y2.7047
X6.7281Y2.374
X6.7281Y2.3071
X6.7281Y2.2401
X6.7719Y3.874
X6.7719Y3.8071
X6.7719Y3.7401
X6.7719Y1.624
X6.7719Y1.5571
X6.7719Y1.4901
X6.7768Y1.0453
X6.7768Y0.4547
X6.8437Y1.0453
X6.8437Y0.4547
X6.8656Y0.124
X6.8656Y0.0571
X6.8656Y-0.0099
X6.9107Y1.0453
X6.9107Y0.4547
X6.9156Y3.874
X6.9156Y3.8071
X6.9156Y3.7401
X6.9156Y1.624
X6.9156Y1.5571
X6.9156Y1.4901
X6.9594Y3.124
X6.9594Y3.0571
X6.9594Y2.9901
X6.9643Y2.5453
X6.9643Y1.9547
X7.0312Y2.5453
X7.0312Y1.9547
X7.0982Y2.5453
X7.0982Y1.9547
X7.1031Y3.124
X7.1031Y3.0571
X7.1031Y2.9901
X7.1469Y0.874
X7.1469Y0.8071
X7.1469Y0.7401
X7.1518Y4.0453
X7.1518Y3.4547
X7.1518Y1.7953
X7.1518Y1.2047
X7.1968Y0.124
X7.1968Y0.0571
X7.1968Y-0.0099
X7.2187Y4.0453
X7.2187Y3.4547
X7.2187Y1.7953
X7.2187Y1.2047
X7.2857Y4.0453
X7.2857Y3.4547
X7.2857Y1.7953
X7.2857Y1.2047
X7.2906Y0.874
X7.2906Y0.8071
X7.2906Y0.7401
X7.3344Y2.374
X7.3344Y2.3071
X7.3344Y2.2401
X7.3393Y3.2953
X7.3393Y2.7047
X7.4062Y3.2953
X7.4062Y2.7047
X7.4331Y0.2953
X7.4331Y-0.2953
X7.4732Y3.2953
X7.4732Y2.7047
X7.4781Y2.374
X7.4781Y2.3071
X7.4781Y2.2401
X7.5Y0.2953
X7.5Y-0.2953
X7.5219Y3.874
X7.5219Y3.8071
X7.5219Y3.7401
X7.5219Y1.624
X7.5219Y1.5571
X7.5219Y1.4901
X7.5268Y1.0453
X7.5268Y0.4547
X7.5669Y0.2953
X7.5669Y-0.2953
X7.5937Y1.0453
X7.5937Y0.4547
X7.6607Y1.0453
X7.6607Y0.4547
X7.6656Y1.624
X7.6656Y1.5571
X7.6656Y1.4901
X7.7094Y3.124
X7.7094Y3.0571
X7.7094Y2.9901
X7.7143Y2.5453
X7.7143Y1.9547
X7.7812Y2.5453
X7.7812Y1.9547
X7.8031Y0.124
X7.8031Y0.0571
X7.8031Y-0.0099
X7.8482Y2.5453
X7.8482Y1.9547
X7.8531Y3.874
X7.8531Y3.8071
X7.8531Y3.7401
X7.8531Y3.124
X7.8531Y3.0571
X7.8531Y2.9901
X7.8969Y0.874
X7.8969Y0.8071
X7.8969Y0.7401
X7.9018Y1.7953
X7.9018Y1.2047
X7.9687Y1.7953
X7.9687Y1.2047
X8.0357Y1.7953
X8.0357Y1.2047
X8.0406Y0.874
X8.0406Y0.8071
X8.0406Y0.7401
X8.0844Y2.374
X8.0844Y2.3071
X8.0844Y2.2401
X8.0893Y4.0453
X8.0893Y3.4547
X8.0893Y3.2953
X8.0893Y2.7047
X8.1343Y0.124
X8.1343Y0.0571
X8.1343Y-0.0099
X8.1562Y4.0453
X8.1562Y3.4547
X8.1562Y3.2953
X8.1562Y2.7047
X8.2232Y4.0453
X8.2232Y3.4547
X8.2232Y3.2953
X8.2232Y2.7047
X8.2281Y2.374
X8.2281Y2.3071
X8.2281Y2.2401
X8.2719Y1.624
X8.2719Y1.5571
X8.2719Y1.4901
X8.2768Y1.0453
X8.2768Y0.4547
X8.3437Y1.0453
X8.3437Y0.4547
X8.3706Y0.2953
X8.3706Y-0.2953
X8.4107Y1.0453
X8.4107Y0.4547
X8.4375Y0.2953
X8.4375Y-0.2953
X8.4531Y1.6303
X8.4531Y1.5633
X8.4531Y1.4964
X8.4594Y3.874
X8.4594Y3.8071
X8.4594Y3.7401
X8.4594Y3.124
X8.4594Y3.0571
X8.4594Y2.9901
X8.4643Y2.5453
X8.4643Y1.9547
X8.5044Y0.2953
X8.5044Y-0.2953
X8.5312Y2.5453
X8.5312Y1.9547
X8.5982Y2.5453
X8.5982Y1.9547
X8.6031Y3.874
X8.6031Y3.8071
X8.6031Y3.7401
X8.6031Y3.124
X8.6031Y3.0571
X8.6031Y2.9901
X8.6469Y0.874
X8.6469Y0.8071
X8.6469Y0.7401
X8.6893Y1.8015
X8.6893Y1.211
X8.7406Y0.124
X8.7406Y0.0571
X8.7406Y-0.0099
X8.7562Y1.8015
X8.7562Y1.211
X8.7906Y0.874
X8.7906Y0.8071
X8.7906Y0.7401
X8.8232Y1.8015
X8.8232Y1.211
X8.8344Y2.374
X8.8344Y2.3071
X8.8344Y2.2401
X8.8393Y4.0453
X8.8393Y3.4547
X8.8393Y3.2953
X8.8393Y2.7047
X8.9062Y4.0453
X8.9062Y3.4547
X8.9062Y3.2953
X8.9062Y2.7047
X8.9732Y4.0453
X8.9732Y3.4547
X8.9732Y3.2953
X8.9732Y2.7047
X8.9781Y2.374
X8.9781Y2.3071
X8.9781Y2.2401
X9.0268Y1.0453
X9.0268Y0.4547
X9.0594Y1.6303
X9.0594Y1.5633
X9.0594Y1.4964
X9.0718Y0.124
X9.0718Y0.0571
X9.0718Y-0.0099
X9.0937Y1.0453
X9.0937Y0.4547
X9.1607Y1.0453
X9.1607Y0.4547
X9.2094Y3.874
X9.2094Y3.8071
X9.2094Y3.7401
X9.2094Y3.124
X9.2094Y3.0571
X9.2094Y2.9901
X9.2143Y2.5453
X9.2143Y1.9547
X9.2812Y2.5453
X9.2812Y1.9547
X9.3081Y0.2953
X9.3081Y-0.2953
X9.3482Y2.5453
X9.3482Y1.9547
X9.3531Y3.874
X9.3531Y3.8071
X9.3531Y3.7401
X9.375Y0.2953
X9.375Y-0.2953
X9.3969Y0.874
X9.3969Y0.8071
X9.3969Y0.7401
X9.4419Y0.2953
X9.4419Y-0.2953
X9.5844Y2.374
X9.5844Y2.3071
X9.5844Y2.2401
X9.5893Y4.0453
X9.5893Y3.4547
X9.6344Y1.624
X9.6344Y1.5571
X9.6344Y1.4902
X9.6562Y4.0453
X9.6562Y3.4547
X9.6781Y0.124
X9.6781Y0.0571
X9.6781Y-0.0099
X9.7232Y4.0453
X9.7232Y3.4547
X9.7281Y3.124
X9.7281Y3.0571
X9.7281Y2.9902
X9.8218Y0.874
X9.8218Y0.8071
X9.8218Y0.7401
X9.8706Y1.7953
X9.8706Y1.2047
X9.9156Y2.374
X9.9156Y2.3071
X9.9156Y2.2401
X9.9375Y1.7953
X9.9375Y1.2047
X9.9594Y3.874
X9.9594Y3.8071
X9.9594Y3.7401
X9.9643Y3.2953
X9.9643Y2.7047
X10.0044Y1.7953
X10.0044Y1.2047
X10.0093Y0.124
X10.0093Y0.0571
X10.0093Y-0.0099
X10.0312Y3.2953
X10.0312Y2.7047
X10.0581Y1.0453
X10.0581Y0.4547
X10.0982Y3.2953
X10.0982Y2.7047
X10.1031Y3.874
X10.1031Y3.8071
X10.1031Y3.7401
X10.125Y1.0453
X10.125Y0.4547
X10.1518Y2.5453
X10.1518Y1.9547
X10.1919Y1.0453
X10.1919Y0.4547
X10.2187Y2.5453
X10.2187Y1.9547
X10.2406Y1.624
X10.2406Y1.5571
X10.2406Y1.4902
X10.2456Y0.2953
X10.2456Y-0.2953
X10.2857Y2.5453
X10.2857Y1.9547
X10.3125Y0.2953
X10.3125Y-0.2953
X10.3344Y3.124
X10.3344Y3.0571
X10.3344Y2.9902
X10.3393Y4.0453
X10.3393Y3.4547
X10.3794Y0.2953
X10.3794Y-0.2953
X10.4062Y4.0453
X10.4062Y3.4547
X10.4281Y0.874
X10.4281Y0.8071
X10.4281Y0.7401
X10.4732Y4.0453
X10.4732Y3.4547
X10.5219Y2.374
X10.5219Y2.3071
X10.5219Y2.2401
X10.6156Y0.124
X10.6156Y0.0571
X10.6156Y-0.0099
X10.7094Y3.874
X10.7094Y3.8071
X10.7094Y3.7401
X10.8531Y3.874
X10.8531Y3.8071
X10.8531Y3.7401
X10.8531Y3.124
X10.8531Y3.0571
X10.8531Y2.9901
X10.8531Y2.374
X10.8531Y2.3071
X10.8531Y2.2401
X10.8531Y1.624
X10.8531Y1.5571
X10.8531Y1.4901
X10.8531Y0.874
X10.8531Y0.8071
X10.8531Y0.7401
X10.8531Y0.124
X10.8531Y0.0571
X10.8531Y-0.0099
X11.0893Y4.0453
X11.0893Y3.4547
X11.0893Y3.2953
X11.0893Y2.7047
X11.0893Y2.5453
X11.0893Y1.9547
X11.0893Y1.7953
X11.0893Y1.2047
X11.0893Y1.0453
X11.0893Y0.4547
X11.0893Y0.2953
X11.0893Y-0.2953
X11.1562Y4.0453
X11.1562Y3.4547
X11.1562Y3.2953
X11.1562Y2.7047
X11.1562Y2.5453
X11.1562Y1.9547
X11.1562Y1.7953
X11.1562Y1.2047
X11.1562Y1.0453
X11.1562Y0.4547
X11.1562Y0.2953
X11.1562Y-0.2953
X11.2232Y4.0453
X11.2232Y3.4547
X11.2232Y3.2953
X11.2232Y2.7047
X11.2232Y2.5453
X11.2232Y1.9547
X11.2232Y1.7953
X11.2232Y1.2047
X11.2232Y1.0453
X11.2232Y0.4547
X11.2232Y0.2953
X11.2232Y-0.2953
X11.4594Y3.874
X11.4594Y3.8071
X11.4594Y3.7401
X11.4594Y3.124
X11.4594Y3.0571
X11.4594Y2.9901
X11.4594Y2.374
X11.4594Y2.3071
X11.4594Y2.2401
X11.4594Y1.624
X11.4594Y1.5571
X11.4594Y1.4901
X11.4594Y0.874
X11.4594Y0.8071
X11.4594Y0.7401
X11.4594Y0.124
X11.4594Y0.0571
X11.4594Y-0.0099
X11.6031Y3.874
X11.6031Y3.8071
X11.6031Y3.7401
X11.6031Y3.124
X11.6031Y3.0571
X11.6031Y2.9901
X11.6031Y2.374
X11.6031Y2.3071
X11.6031Y2.2401
X11.6031Y1.624
X11.6031Y1.5571
X11.6031Y1.4901
X11.6031Y0.874
X11.6031Y0.8071
X11.6031Y0.7401
X11.6031Y0.124
X11.6031Y0.0571
X11.6031Y-0.0099
X11.8393Y4.0453
X11.8393Y3.4547
X11.8393Y3.2953
X11.8393Y2.7047
X11.8393Y2.5453
X11.8393Y1.9547
X11.8393Y1.7953
X11.8393Y1.2047
X11.8393Y1.0453
X11.8393Y0.4547
X11.8393Y0.2953
X11.8393Y-0.2953
X11.9062Y4.0453
X11.9062Y3.4547
X11.9062Y3.2953
X11.9062Y2.7047
X11.9062Y2.5453
X11.9062Y1.9547
X11.9062Y1.7953
X11.9062Y1.2047
X11.9062Y1.0453
X11.9062Y0.4547
X11.9062Y0.2953
X11.9062Y-0.2953
X11.9732Y4.0453
X11.9732Y3.4547
X11.9732Y3.2953
X11.9732Y2.7047
X11.9732Y2.5453
X11.9732Y1.9547
X11.9732Y1.7953
X11.9732Y1.2047
X11.9732Y1.0453
X11.9732Y0.4547
X11.9732Y0.2953
X11.9732Y-0.2953
X12.2094Y3.874
X12.2094Y3.8071
X12.2094Y3.7401
X12.2094Y3.124
X12.2094Y3.0571
X12.2094Y2.9901
X12.2094Y2.374
X12.2094Y2.3071
X12.2094Y2.2401
X12.2094Y1.624
X12.2094Y1.5571
X12.2094Y1.4901
X12.2094Y0.874
X12.2094Y0.8071
X12.2094Y0.7401
X12.2094Y0.124
X12.2094Y0.0571
X12.2094Y-0.0099
X12.3531Y3.874
X12.3531Y3.8071
X12.3531Y3.7401
X12.3531Y3.124
X12.3531Y3.0571
X12.3531Y2.9901
X12.3531Y2.374
X12.3531Y2.3071
X12.3531Y2.2401
X12.3531Y1.624
X12.3531Y1.5571
X12.3531Y1.4901
X12.3531Y0.874
X12.3531Y0.8071
X12.3531Y0.7401
X12.3531Y0.124
X12.3531Y0.0571
X12.3531Y-0.0099
X12.5893Y4.0453
X12.5893Y3.4547
X12.5893Y3.2953
X12.5893Y2.7047
X12.5893Y2.5453
X12.5893Y1.9547
X12.5893Y1.7953
X12.5893Y1.2047
X12.5893Y1.0453
X12.5893Y0.4547
X12.5893Y0.2953
X12.5893Y-0.2953
X12.6562Y4.0453
X12.6562Y3.4547
X12.6562Y3.2953
X12.6562Y2.7047
X12.6562Y2.5453
X12.6562Y1.9547
X12.6562Y1.7953
X12.6562Y1.2047
X12.6562Y1.0453
X12.6562Y0.4547
X12.6562Y0.2953
X12.6562Y-0.2953
X12.7232Y4.0453
X12.7232Y3.4547
X12.7232Y3.2953
X12.7232Y2.7047
X12.7232Y2.5453
X12.7232Y1.9547
X12.7232Y1.7953
X12.7232Y1.2047
X12.7232Y1.0453
X12.7232Y0.4547
X12.7232Y0.2953
X12.7232Y-0.2953
X12.9594Y3.874
X12.9594Y3.8071
X12.9594Y3.7401
X12.9594Y3.124
X12.9594Y3.0571
X12.9594Y2.9901
X12.9594Y2.374
X12.9594Y2.3071
X12.9594Y2.2401
X12.9594Y1.624
X12.9594Y1.5571
X12.9594Y1.4901
X12.9594Y0.874
X12.9594Y0.8071
X12.9594Y0.7401
X12.9594Y0.124
X12.9594Y0.0571
X12.9594Y-0.0099
T2
X0.24Y3.67
X0.38Y3.59
X0.44Y3.38
X0.61Y2.48
X0.67Y2.58
X1.38Y2.6
T3
X0.4307Y4.2422
X0.4307Y4.1422
X0.4307Y4.0422
X0.4307Y3.9422
X0.4307Y3.8422
X0.4307Y3.7422
X0.4307Y3.6422
X0.4307Y3.5422
X0.4307Y3.4422
X0.585Y3.3914
X0.685Y3.3914
X0.785Y3.3914
X0.885Y3.3914
X0.985Y3.3914
X1.1393Y4.2422
X1.1393Y4.1422
X1.1393Y4.0422
X1.1393Y3.9422
X1.1393Y3.8422
X1.1393Y3.7422
X1.1393Y3.6422
X1.1393Y3.5422
X1.1393Y3.4422
T4
X-0.3792Y4.0354
X-0.3792Y3.4646
X-0.3792Y3.2854
X-0.3792Y2.7146
X-0.2854Y0.2854
X-0.2854Y-0.2854
X-0.1917Y2.5354
X-0.1917Y1.9646
X-0.0979Y1.7854
X-0.0979Y1.2146
X0.0896Y1.0354
X0.0896Y0.4646
X0.1917Y4.0354
X0.1917Y3.4646
X0.1917Y3.2854
X0.1917Y2.7146
X0.2854Y0.2854
X0.2854Y-0.2854
X0.3708Y3.2854
X0.3708Y2.7146
X0.3792Y2.5354
X0.3792Y1.9646
X0.4729Y1.7854
X0.4729Y1.2146
X0.6521Y0.2854
X0.6521Y-0.2854
X0.6604Y1.0354
X0.6604Y0.4646
X0.7458Y2.5354
X0.7458Y1.9646
X0.9333Y1.7854
X0.9333Y1.2146
X0.9417Y3.2854
X0.9417Y2.7146
X1.1208Y3.2854
X1.1208Y2.7146
X1.2229Y0.2854
X1.2229Y-0.2854
X1.3083Y1.0354
X1.3083Y0.4646
X1.3167Y2.5354
X1.3167Y1.9646
X1.4958Y4.0354
X1.4958Y3.4646
X1.4958Y2.5354
X1.4958Y1.9646
X1.5042Y1.7854
X1.5042Y1.2146
X1.5896Y0.2854
X1.5896Y-0.2854
X1.6833Y1.7854
X1.6833Y1.2146
X1.6917Y3.2854
X1.6917Y2.7146
X1.8708Y3.2854
X1.8708Y2.7146
X1.8792Y1.0354
X1.8792Y0.4646
X2.0583Y1.0354
X2.0583Y0.4646
X2.0667Y4.0354
X2.0667Y3.4646
X2.0667Y2.5354
X2.0667Y1.9646
X2.1604Y0.2854
X2.1604Y-0.2854
X2.2458Y4.0354
X2.2458Y3.4646
X2.2458Y2.5354
X2.2458Y1.9646
X2.2542Y1.7854
X2.2542Y1.2146
X2.4333Y1.7854
X2.4333Y1.2146
X2.4417Y3.2854
X2.4417Y2.7146
X2.5271Y0.2854
X2.5271Y-0.2854
X2.6208Y3.2854
X2.6208Y2.7146
X2.6292Y1.0354
X2.6292Y0.4646
X2.8083Y1.0354
X2.8083Y0.4646
X2.8167Y4.0354
X2.8167Y3.4646
X2.8167Y2.5354
X2.8167Y1.9646
X2.9958Y4.0354
X2.9958Y3.4646
X2.9958Y2.5354
X2.9958Y1.9646
X3.0042Y1.7854
X3.0042Y1.2146
X3.0979Y0.2854
X3.0979Y-0.2854
X3.1833Y1.7854
X3.1833Y1.2146
X3.1917Y3.2854
X3.1917Y2.7146
X3.3708Y3.2854
X3.3708Y2.7146
X3.3792Y1.0354
X3.3792Y0.4646
X3.4646Y0.2854
X3.4646Y-0.2854
X3.5583Y1.0354
X3.5583Y0.4646
X3.5667Y4.0354
X3.5667Y3.4646
X3.5667Y2.5354
X3.5667Y1.9646
X3.7458Y4.0354
X3.7458Y3.4646
X3.7458Y2.5354
X3.7458Y1.9646
X3.7542Y1.7854
X3.7542Y1.2146
X3.9333Y1.7854
X3.9333Y1.2146
X3.9417Y3.2854
X3.9417Y2.7146
X4.0354Y0.2854
X4.0354Y-0.2854
X4.1208Y3.2854
X4.1208Y2.7146
X4.1292Y1.0354
X4.1292Y0.4646
X4.3083Y1.0354
X4.3083Y0.4646
X4.3167Y4.0354
X4.3167Y3.4646
X4.3167Y2.5354
X4.3167Y1.9646
X4.4021Y0.2854
X4.4021Y-0.2854
X4.4958Y2.5354
X4.4958Y1.9646
X4.5042Y1.7854
X4.5042Y1.2146
X4.6833Y4.0354
X4.6833Y3.4646
X4.6833Y1.7854
X4.6833Y1.2146
X4.6917Y3.2854
X4.6917Y2.7146
X4.8708Y3.2854
X4.8708Y2.7146
X4.8792Y1.0354
X4.8792Y0.4646
X4.9729Y0.2854
X4.9729Y-0.2854
X5.0583Y1.0354
X5.0583Y0.4646
X5.0667Y2.5354
X5.0667Y1.9646
X5.2458Y2.5354
X5.2458Y1.9646
X5.2542Y4.0354
X5.2542Y3.4646
X5.2542Y1.7854
X5.2542Y1.2146
X5.3396Y0.2854
X5.3396Y-0.2854
X5.4333Y4.0354
X5.4333Y3.4646
X5.4333Y1.7854
X5.4333Y1.2146
X5.4417Y3.2854
X5.4417Y2.7146
X5.6208Y3.2854
X5.6208Y2.7146
X5.6292Y1.0354
X5.6292Y0.4646
X5.8083Y1.0354
X5.8083Y0.4646
X5.8167Y2.5354
X5.8167Y1.9646
X5.9104Y0.2854
X5.9104Y-0.2854
X5.9958Y2.5354
X5.9958Y1.9646
X6.0042Y4.0354
X6.0042Y3.4646
X6.0042Y1.7854
X6.0042Y1.2146
X6.1833Y4.0354
X6.1833Y3.4646
X6.1833Y1.7854
X6.1833Y1.2146
X6.1917Y3.2854
X6.1917Y2.7146
X6.2771Y0.2854
X6.2771Y-0.2854
X6.3708Y3.2854
X6.3708Y2.7146
X6.3792Y1.0354
X6.3792Y0.4646
X6.5583Y1.0354
X6.5583Y0.4646
X6.5667Y2.5354
X6.5667Y1.9646
X6.7458Y2.5354
X6.7458Y1.9646
X6.7542Y4.0354
X6.7542Y3.4646
X6.7542Y1.7854
X6.7542Y1.2146
X6.8479Y0.2854
X6.8479Y-0.2854
X6.9333Y4.0354
X6.9333Y3.4646
X6.9333Y1.7854
X6.9333Y1.2146
X6.9417Y3.2854
X6.9417Y2.7146
X7.1208Y3.2854
X7.1208Y2.7146
X7.1292Y1.0354
X7.1292Y0.4646
X7.2146Y0.2854
X7.2146Y-0.2854
X7.3083Y1.0354
X7.3083Y0.4646
X7.3167Y2.5354
X7.3167Y1.9646
X7.4958Y2.5354
X7.4958Y1.9646
X7.5042Y4.0354
X7.5042Y3.4646
X7.5042Y1.7854
X7.5042Y1.2146
X7.6833Y1.7854
X7.6833Y1.2146
X7.6917Y3.2854
X7.6917Y2.7146
X7.7854Y0.2854
X7.7854Y-0.2854
X7.8708Y4.0354
X7.8708Y3.4646
X7.8708Y3.2854
X7.8708Y2.7146
X7.8792Y1.0354
X7.8792Y0.4646
X8.0583Y1.0354
X8.0583Y0.4646
X8.0667Y2.5354
X8.0667Y1.9646
X8.1521Y0.2854
X8.1521Y-0.2854
X8.2458Y2.5354
X8.2458Y1.9646
X8.2542Y1.7854
X8.2542Y1.2146
X8.4417Y4.0354
X8.4417Y3.4646
X8.4417Y3.2854
X8.4417Y2.7146
X8.4708Y1.7917
X8.4708Y1.2208
X8.6208Y4.0354
X8.6208Y3.4646
X8.6208Y3.2854
X8.6208Y2.7146
X8.6292Y1.0354
X8.6292Y0.4646
X8.7229Y0.2854
X8.7229Y-0.2854
X8.8083Y1.0354
X8.8083Y0.4646
X8.8167Y2.5354
X8.8167Y1.9646
X8.9958Y2.5354
X8.9958Y1.9646
X9.0417Y1.7917
X9.0417Y1.2208
X9.0896Y0.2854
X9.0896Y-0.2854
X9.1917Y4.0354
X9.1917Y3.4646
X9.1917Y3.2854
X9.1917Y2.7146
X9.3708Y4.0354
X9.3708Y3.4646
X9.3792Y1.0354
X9.3792Y0.4646
X9.5667Y2.5354
X9.5667Y1.9646
X9.6521Y1.7854
X9.6521Y1.2146
X9.6604Y0.2854
X9.6604Y-0.2854
X9.7458Y3.2854
X9.7458Y2.7146
X9.8396Y1.0354
X9.8396Y0.4646
X9.9333Y2.5354
X9.9333Y1.9646
X9.9417Y4.0354
X9.9417Y3.4646
X10.0271Y0.2854
X10.0271Y-0.2854
X10.1208Y4.0354
X10.1208Y3.4646
X10.2229Y1.7854
X10.2229Y1.2146
X10.3167Y3.2854
X10.3167Y2.7146
X10.4104Y1.0354
X10.4104Y0.4646
X10.5042Y2.5354
X10.5042Y1.9646
X10.5979Y0.2854
X10.5979Y-0.2854
X10.6917Y4.0354
X10.6917Y3.4646
X10.8708Y4.0354
X10.8708Y3.4646
X10.8708Y3.2854
X10.8708Y2.7146
X10.8708Y2.5354
X10.8708Y1.9646
X10.8708Y1.7854
X10.8708Y1.2146
X10.8708Y1.0354
X10.8708Y0.4646
X10.8708Y0.2854
X10.8708Y-0.2854
X11.4417Y4.0354
X11.4417Y3.4646
X11.4417Y3.2854
X11.4417Y2.7146
X11.4417Y2.5354
X11.4417Y1.9646
X11.4417Y1.7854
X11.4417Y1.2146
X11.4417Y1.0354
X11.4417Y0.4646
X11.4417Y0.2854
X11.4417Y-0.2854
X11.6208Y4.0354
X11.6208Y3.4646
X11.6208Y3.2854
X11.6208Y2.7146
X11.6208Y2.5354
X11.6208Y1.9646
X11.6208Y1.7854
X11.6208Y1.2146
X11.6208Y1.0354
X11.6208Y0.4646
X11.6208Y0.2854
X11.6208Y-0.2854
X12.1917Y4.0354
X12.1917Y3.4646
X12.1917Y3.2854
X12.1917Y2.7146
X12.1917Y2.5354
X12.1917Y1.9646
X12.1917Y1.7854
X12.1917Y1.2146
X12.1917Y1.0354
X12.1917Y0.4646
X12.1917Y0.2854
X12.1917Y-0.2854
X12.3708Y4.0354
X12.3708Y3.4646
X12.3708Y3.2854
X12.3708Y2.7146
X12.3708Y2.5354
X12.3708Y1.9646
X12.3708Y1.7854
X12.3708Y1.2146
X12.3708Y1.0354
X12.3708Y0.4646
X12.3708Y0.2854
X12.3708Y-0.2854
X12.9417Y4.0354
X12.9417Y3.4646
X12.9417Y3.2854
X12.9417Y2.7146
X12.9417Y2.5354
X12.9417Y1.9646
X12.9417Y1.7854
X12.9417Y1.2146
X12.9417Y1.0354
X12.9417Y0.4646
X12.9417Y0.2854
X12.9417Y-0.2854
T3
G00X0.5496Y4.0302
M15
G01X0.5299Y4.0302
M16
G05
G00X0.5496Y3.9802
M15
G01X0.5299Y3.9802
M16
G05
G00X0.5496Y3.9302
M15
G01X0.5299Y3.9302
M16
G05
G00X0.5496Y3.8802
M15
G01X0.5299Y3.8802
M16
G05
G00X0.5496Y3.8302
M15
G01X0.5299Y3.8302
M16
G05
G00X0.5496Y3.7802
M15
G01X0.5299Y3.7802
M16
G05
G00X0.5496Y3.7302
M15
G01X0.5299Y3.7302
M16
G05
G00X0.5496Y3.6802
M15
G01X0.5299Y3.6802
M16
G05
G00X0.5496Y3.6302
M15
G01X0.5299Y3.6302
M16
G05
G00X0.5496Y3.5802
M15
G01X0.5299Y3.5802
M16
G05
T0
M30
