M48
; DRILL file {KiCad 7.0.2} date Mon 08 May 2023 08:33:35 PM CEST
; FORMAT={-:-/ absolute / metric / decimal}
; #@! TF.CreationDate,2023-05-08T20:33:35+02:00
; #@! TF.GenerationSoftware,Kicad,Pcbnew,7.0.2
; #@! TF.FileFunction,Plated,1,2,PTH
FMAT,2
METRIC
; #@! TA.AperFunction,Plated,PTH,ViaDrill
T1C0.400
; #@! TA.AperFunction,Plated,PTH,ComponentDrill
T2C1.000
; #@! TA.AperFunction,Plated,PTH,ComponentDrill
T3C1.500
%
G90
G05
T1
X-8.52Y67.1
X-7.747Y62.103
X-6.514Y28.6
X27.051Y67.056
X60.071Y86.995
X64.516Y83.312
X70.612Y28.194
T2
X-9.581Y98.4
X-9.581Y96.7
X-9.581Y95.0
X-9.581Y79.35
X-9.581Y77.65
X-9.581Y75.95
X-7.2Y3.15
X-7.2Y1.45
X-7.2Y-0.25
X-4.819Y60.3
X-4.819Y58.6
X-4.819Y56.9
X-4.081Y102.25
X-4.081Y88.25
X-4.081Y83.2
X-4.081Y69.2
X-2.438Y41.25
X-2.438Y39.55
X-2.438Y37.85
X-2.381Y102.25
X-2.381Y88.25
X-2.381Y83.2
X-2.381Y69.2
X-1.7Y7.0
X-1.7Y-7.0
X-0.681Y102.25
X-0.681Y88.25
X-0.681Y83.2
X-0.681Y69.2
X0.0Y7.0
X0.0Y-7.0
X0.681Y64.15
X0.681Y50.15
X1.7Y7.0
X1.7Y-7.0
X2.325Y22.2
X2.325Y20.5
X2.325Y18.8
X2.381Y64.15
X2.381Y50.15
X3.062Y45.1
X3.062Y31.1
X4.081Y64.15
X4.081Y50.15
X4.763Y45.1
X4.763Y31.1
X4.819Y98.4
X4.819Y96.7
X4.819Y95.0
X4.819Y79.35
X4.819Y77.65
X4.819Y75.95
X6.462Y45.1
X6.462Y31.1
X7.2Y3.15
X7.2Y1.45
X7.2Y-0.25
X7.825Y26.05
X7.825Y12.05
X9.469Y79.35
X9.469Y77.65
X9.469Y75.95
X9.525Y26.05
X9.525Y12.05
X9.581Y60.3
X9.581Y58.6
X9.581Y56.9
X10.696Y107.303
X10.696Y104.763
X10.696Y102.224
X10.696Y99.683
X10.696Y97.143
X10.696Y94.603
X10.696Y92.063
X10.696Y89.523
X10.696Y86.983
X11.225Y26.05
X11.225Y12.05
X11.962Y41.25
X11.962Y39.55
X11.962Y37.85
X14.859Y85.15
X14.969Y83.2
X14.969Y69.2
X16.613Y3.15
X16.613Y1.45
X16.613Y-0.25
X16.669Y83.2
X16.669Y69.2
X16.725Y22.2
X16.725Y20.5
X16.725Y18.8
X17.399Y85.15
X18.369Y83.2
X18.369Y69.2
X18.994Y60.3
X18.994Y58.6
X18.994Y56.9
X19.939Y85.15
X22.113Y7.0
X22.113Y-7.0
X22.479Y85.15
X23.756Y41.25
X23.756Y39.55
X23.756Y37.85
X23.812Y7.0
X23.812Y-7.0
X23.869Y79.35
X23.869Y77.65
X23.869Y75.95
X24.494Y64.15
X24.494Y50.15
X25.019Y85.15
X25.512Y7.0
X25.512Y-7.0
X26.194Y64.15
X26.194Y50.15
X27.894Y64.15
X27.894Y50.15
X28.519Y79.35
X28.519Y77.65
X28.519Y75.95
X29.182Y107.303
X29.182Y104.763
X29.182Y102.224
X29.182Y99.683
X29.182Y97.143
X29.182Y94.603
X29.182Y92.063
X29.182Y89.523
X29.182Y86.983
X29.256Y45.1
X29.256Y31.1
X30.956Y45.1
X30.956Y31.1
X31.012Y3.15
X31.012Y1.45
X31.012Y-0.25
X32.656Y45.1
X32.656Y31.1
X33.281Y22.2
X33.281Y20.5
X33.281Y18.8
X33.394Y60.3
X33.394Y58.6
X33.394Y56.9
X34.019Y83.2
X34.019Y69.2
X35.719Y83.2
X35.719Y69.2
X37.419Y83.2
X37.419Y69.2
X38.044Y98.4
X38.044Y96.7
X38.044Y95.0
X38.044Y60.3
X38.044Y58.6
X38.044Y56.9
X38.156Y41.25
X38.156Y39.55
X38.156Y37.85
X38.781Y26.05
X38.781Y12.05
X40.425Y3.15
X40.425Y1.45
X40.425Y-0.25
X40.481Y26.05
X40.481Y12.05
X42.181Y26.05
X42.181Y12.05
X42.806Y41.25
X42.806Y39.55
X42.806Y37.85
X42.919Y79.35
X42.919Y77.65
X42.919Y75.95
X43.544Y102.25
X43.544Y88.25
X43.544Y64.15
X43.544Y50.15
X45.244Y102.25
X45.244Y88.25
X45.244Y64.15
X45.244Y50.15
X45.925Y7.0
X45.925Y-7.0
X46.944Y102.25
X46.944Y88.25
X46.944Y64.15
X46.944Y50.15
X47.569Y79.35
X47.569Y77.65
X47.569Y75.95
X47.625Y7.0
X47.625Y-7.0
X47.681Y22.2
X47.681Y20.5
X47.681Y18.8
X48.306Y45.1
X48.306Y31.1
X49.325Y7.0
X49.325Y-7.0
X50.006Y45.1
X50.006Y31.1
X51.706Y45.1
X51.706Y31.1
X52.331Y22.2
X52.331Y20.5
X52.331Y18.8
X52.444Y98.4
X52.444Y96.7
X52.444Y95.0
X52.444Y60.3
X52.444Y58.6
X52.444Y56.9
X53.069Y83.2
X53.069Y69.2
X54.769Y83.2
X54.769Y69.2
X54.825Y3.15
X54.825Y1.45
X54.825Y-0.25
X56.469Y83.2
X56.469Y69.2
X57.094Y98.4
X57.094Y96.7
X57.094Y95.0
X57.094Y60.3
X57.094Y58.6
X57.094Y56.9
X57.206Y41.25
X57.206Y39.55
X57.206Y37.85
X57.831Y26.05
X57.831Y12.05
X59.531Y26.05
X59.531Y12.05
X61.231Y26.05
X61.231Y12.05
X61.856Y41.25
X61.856Y39.55
X61.856Y37.85
X61.969Y79.35
X61.969Y77.65
X61.969Y75.95
X62.594Y102.25
X62.594Y88.25
X62.594Y64.15
X62.594Y50.15
X64.237Y3.15
X64.237Y1.45
X64.237Y-0.25
X64.294Y102.25
X64.294Y88.25
X64.294Y64.15
X64.294Y50.15
X65.994Y102.25
X65.994Y88.25
X65.994Y64.15
X65.994Y50.15
X66.619Y79.35
X66.619Y77.65
X66.619Y75.95
X66.731Y22.2
X66.731Y20.5
X66.731Y18.8
X67.356Y45.1
X67.356Y31.1
X69.056Y45.1
X69.056Y31.1
X69.737Y7.0
X69.737Y-7.0
X70.756Y45.1
X70.756Y31.1
X71.381Y22.2
X71.381Y20.5
X71.381Y18.8
X71.438Y7.0
X71.438Y-7.0
X71.494Y98.4
X71.494Y96.7
X71.494Y95.0
X71.494Y60.3
X71.494Y58.6
X71.494Y56.9
X72.119Y83.2
X72.119Y69.2
X73.138Y7.0
X73.138Y-7.0
X73.819Y83.2
X73.819Y69.2
X75.519Y83.2
X75.519Y69.2
X76.144Y98.4
X76.144Y96.7
X76.144Y95.0
X76.144Y60.3
X76.144Y58.6
X76.144Y56.9
X76.256Y41.25
X76.256Y39.55
X76.256Y37.85
X76.881Y26.05
X76.881Y12.05
X78.581Y26.05
X78.581Y12.05
X78.638Y3.15
X78.638Y1.45
X78.638Y-0.25
X80.281Y26.05
X80.281Y12.05
X80.906Y41.25
X80.906Y39.55
X80.906Y37.85
X81.019Y79.35
X81.019Y77.65
X81.019Y75.95
X81.644Y102.25
X81.644Y88.25
X81.644Y64.15
X81.644Y50.15
X83.344Y102.25
X83.344Y88.25
X83.344Y64.15
X83.344Y50.15
X85.044Y102.25
X85.044Y88.25
X85.044Y64.15
X85.044Y50.15
X85.669Y79.35
X85.669Y77.65
X85.669Y75.95
X85.781Y22.2
X85.781Y20.5
X85.781Y18.8
X86.406Y45.1
X86.406Y31.1
X88.05Y3.15
X88.05Y1.45
X88.05Y-0.25
X88.106Y45.1
X88.106Y31.1
X89.806Y45.1
X89.806Y31.1
X90.431Y22.2
X90.431Y20.5
X90.431Y18.8
X90.544Y98.4
X90.544Y96.7
X90.544Y95.0
X90.544Y60.3
X90.544Y58.6
X90.544Y56.9
X91.169Y83.2
X91.169Y69.2
X92.869Y83.2
X92.869Y69.2
X93.55Y7.0
X93.55Y-7.0
X94.569Y83.2
X94.569Y69.2
X95.194Y98.4
X95.194Y96.7
X95.194Y95.0
X95.194Y60.3
X95.194Y58.6
X95.194Y56.9
X95.25Y7.0
X95.25Y-7.0
X95.306Y41.25
X95.306Y39.55
X95.306Y37.85
X95.931Y26.05
X95.931Y12.05
X96.95Y7.0
X96.95Y-7.0
X97.631Y26.05
X97.631Y12.05
X99.331Y26.05
X99.331Y12.05
X99.956Y41.25
X99.956Y39.55
X99.956Y37.85
X100.069Y79.35
X100.069Y77.65
X100.069Y75.95
X100.694Y102.25
X100.694Y88.25
X100.694Y64.15
X100.694Y50.15
X102.394Y102.25
X102.394Y88.25
X102.394Y64.15
X102.394Y50.15
X102.45Y3.15
X102.45Y1.45
X102.45Y-0.25
X104.094Y102.25
X104.094Y88.25
X104.094Y64.15
X104.094Y50.15
X104.719Y79.35
X104.719Y77.65
X104.719Y75.95
X104.831Y22.2
X104.831Y20.5
X104.831Y18.8
X105.456Y45.1
X105.456Y31.1
X107.156Y45.1
X107.156Y31.1
X108.856Y45.1
X108.856Y31.1
X109.481Y22.2
X109.481Y20.5
X109.481Y18.8
X109.594Y98.4
X109.594Y96.7
X109.594Y95.0
X109.594Y60.3
X109.594Y58.6
X109.594Y56.9
X110.219Y83.2
X110.219Y69.2
X111.862Y3.15
X111.862Y1.45
X111.862Y-0.25
X111.919Y83.2
X111.919Y69.2
X113.619Y83.2
X113.619Y69.2
X114.244Y60.3
X114.244Y58.6
X114.244Y56.9
X114.356Y41.25
X114.356Y39.55
X114.356Y37.85
X114.981Y26.05
X114.981Y12.05
X116.681Y26.05
X116.681Y12.05
X117.362Y7.0
X117.362Y-7.0
X118.381Y26.05
X118.381Y12.05
X119.006Y98.4
X119.006Y96.7
X119.006Y95.0
X119.006Y41.25
X119.006Y39.55
X119.006Y37.85
X119.062Y7.0
X119.062Y-7.0
X119.119Y79.35
X119.119Y77.65
X119.119Y75.95
X119.744Y64.15
X119.744Y50.15
X120.762Y7.0
X120.762Y-7.0
X121.444Y64.15
X121.444Y50.15
X123.144Y64.15
X123.144Y50.15
X123.769Y79.35
X123.769Y77.65
X123.769Y75.95
X123.881Y22.2
X123.881Y20.5
X123.881Y18.8
X124.506Y102.25
X124.506Y88.25
X124.506Y45.1
X124.506Y31.1
X126.206Y102.25
X126.206Y88.25
X126.206Y45.1
X126.206Y31.1
X126.262Y3.15
X126.262Y1.45
X126.262Y-0.25
X127.906Y102.25
X127.906Y88.25
X127.906Y45.1
X127.906Y31.1
X128.531Y22.2
X128.531Y20.5
X128.531Y18.8
X128.644Y60.3
X128.644Y58.6
X128.644Y56.9
X129.269Y83.2
X129.269Y69.2
X130.969Y83.2
X130.969Y69.2
X132.669Y83.2
X132.669Y69.2
X133.294Y60.3
X133.294Y58.6
X133.294Y56.9
X133.406Y98.4
X133.406Y96.7
X133.406Y95.0
X133.406Y41.25
X133.406Y39.55
X133.406Y37.85
X134.031Y26.05
X134.031Y12.05
X135.675Y3.15
X135.675Y1.45
X135.675Y-0.25
X135.731Y26.05
X135.731Y12.05
X137.431Y26.05
X137.431Y12.05
X138.056Y98.4
X138.056Y96.7
X138.056Y95.0
X138.056Y41.25
X138.056Y39.55
X138.056Y37.85
X138.169Y79.35
X138.169Y77.65
X138.169Y75.95
X138.794Y64.15
X138.794Y50.15
X140.494Y64.15
X140.494Y50.15
X141.175Y7.0
X141.175Y-7.0
X142.194Y64.15
X142.194Y50.15
X142.819Y79.35
X142.819Y77.65
X142.819Y75.95
X142.875Y7.0
X142.875Y-7.0
X142.931Y22.2
X142.931Y20.5
X142.931Y18.8
X143.556Y102.25
X143.556Y88.25
X143.556Y45.1
X143.556Y31.1
X144.575Y7.0
X144.575Y-7.0
X145.256Y102.25
X145.256Y88.25
X145.256Y45.1
X145.256Y31.1
X146.956Y102.25
X146.956Y88.25
X146.956Y45.1
X146.956Y31.1
X147.581Y22.2
X147.581Y20.5
X147.581Y18.8
X147.694Y60.3
X147.694Y58.6
X147.694Y56.9
X148.319Y83.2
X148.319Y69.2
X150.019Y83.2
X150.019Y69.2
X150.075Y3.15
X150.075Y1.45
X150.075Y-0.25
X151.719Y83.2
X151.719Y69.2
X152.344Y60.3
X152.344Y58.6
X152.344Y56.9
X152.456Y98.4
X152.456Y96.7
X152.456Y95.0
X152.456Y41.25
X152.456Y39.55
X152.456Y37.85
X153.081Y26.05
X153.081Y12.05
X154.781Y26.05
X154.781Y12.05
X156.481Y26.05
X156.481Y12.05
X157.106Y98.4
X157.106Y96.7
X157.106Y95.0
X157.106Y41.25
X157.106Y39.55
X157.106Y37.85
X157.219Y79.35
X157.219Y77.65
X157.219Y75.95
X157.844Y64.15
X157.844Y50.15
X159.487Y3.15
X159.487Y1.45
X159.487Y-0.25
X159.544Y64.15
X159.544Y50.15
X161.244Y64.15
X161.244Y50.15
X161.869Y79.35
X161.869Y77.65
X161.869Y75.95
X161.981Y22.2
X161.981Y20.5
X161.981Y18.8
X162.606Y102.25
X162.606Y88.25
X162.606Y45.1
X162.606Y31.1
X164.306Y102.25
X164.306Y88.25
X164.306Y45.1
X164.306Y31.1
X164.987Y7.0
X164.987Y-7.0
X166.006Y102.25
X166.006Y88.25
X166.006Y45.1
X166.006Y31.1
X166.631Y22.2
X166.631Y20.5
X166.631Y18.8
X166.688Y7.0
X166.688Y-7.0
X166.744Y60.3
X166.744Y58.6
X166.744Y56.9
X167.369Y83.2
X167.369Y69.2
X168.387Y7.0
X168.387Y-7.0
X169.069Y83.2
X169.069Y69.2
X170.769Y83.2
X170.769Y69.2
X171.394Y60.3
X171.394Y58.6
X171.394Y56.9
X171.506Y98.4
X171.506Y96.7
X171.506Y95.0
X171.506Y41.25
X171.506Y39.55
X171.506Y37.85
X172.131Y26.05
X172.131Y12.05
X173.831Y26.05
X173.831Y12.05
X173.887Y3.15
X173.887Y1.45
X173.887Y-0.25
X175.531Y26.05
X175.531Y12.05
X176.156Y98.4
X176.156Y96.7
X176.156Y95.0
X176.156Y41.25
X176.156Y39.55
X176.156Y37.85
X176.269Y79.35
X176.269Y77.65
X176.269Y75.95
X176.894Y64.15
X176.894Y50.15
X178.594Y64.15
X178.594Y50.15
X180.294Y64.15
X180.294Y50.15
X180.919Y79.35
X180.919Y77.65
X180.919Y75.95
X181.031Y22.2
X181.031Y20.5
X181.031Y18.8
X181.656Y102.25
X181.656Y88.25
X181.656Y45.1
X181.656Y31.1
X183.3Y3.15
X183.3Y1.45
X183.3Y-0.25
X183.356Y102.25
X183.356Y88.25
X183.356Y45.1
X183.356Y31.1
X185.056Y102.25
X185.056Y88.25
X185.056Y45.1
X185.056Y31.1
X185.681Y22.2
X185.681Y20.5
X185.681Y18.8
X185.794Y60.3
X185.794Y58.6
X185.794Y56.9
X186.419Y83.2
X186.419Y69.2
X188.119Y83.2
X188.119Y69.2
X188.8Y7.0
X188.8Y-7.0
X189.819Y83.2
X189.819Y69.2
X190.444Y60.3
X190.444Y58.6
X190.444Y56.9
X190.5Y7.0
X190.5Y-7.0
X190.556Y98.4
X190.556Y96.7
X190.556Y95.0
X190.556Y41.25
X190.556Y39.55
X190.556Y37.85
X191.181Y26.05
X191.181Y12.05
X192.2Y7.0
X192.2Y-7.0
X192.881Y26.05
X192.881Y12.05
X194.581Y26.05
X194.581Y12.05
X195.206Y41.25
X195.206Y39.55
X195.206Y37.85
X195.319Y79.35
X195.319Y77.65
X195.319Y75.95
X195.944Y64.15
X195.944Y50.15
X197.644Y64.15
X197.644Y50.15
X197.7Y3.15
X197.7Y1.45
X197.7Y-0.25
X199.344Y64.15
X199.344Y50.15
X199.969Y98.4
X199.969Y96.7
X199.969Y95.0
X199.969Y79.35
X199.969Y77.65
X199.969Y75.95
X200.081Y22.2
X200.081Y20.5
X200.081Y18.8
X200.706Y45.1
X200.706Y31.1
X202.406Y45.1
X202.406Y31.1
X204.106Y45.1
X204.106Y31.1
X204.731Y22.2
X204.731Y20.5
X204.731Y18.8
X204.844Y60.3
X204.844Y58.6
X204.844Y56.9
X205.469Y102.25
X205.469Y88.25
X205.469Y83.2
X205.469Y69.2
X207.112Y3.15
X207.112Y1.45
X207.112Y-0.25
X207.169Y102.25
X207.169Y88.25
X207.169Y83.2
X207.169Y69.2
X208.869Y102.25
X208.869Y88.25
X208.869Y83.2
X208.869Y69.2
X209.494Y60.3
X209.494Y58.6
X209.494Y56.9
X209.606Y41.25
X209.606Y39.55
X209.606Y37.85
X210.231Y26.05
X210.231Y12.05
X211.931Y26.05
X211.931Y12.05
X212.612Y7.0
X212.612Y-7.0
X213.631Y26.05
X213.631Y12.05
X214.312Y7.0
X214.312Y-7.0
X214.369Y98.4
X214.369Y96.7
X214.369Y95.0
X214.369Y79.35
X214.369Y77.65
X214.369Y75.95
X214.994Y64.15
X214.994Y50.15
X215.209Y41.409
X215.209Y39.709
X215.209Y38.009
X216.012Y7.0
X216.012Y-7.0
X216.694Y64.15
X216.694Y50.15
X218.394Y64.15
X218.394Y50.15
X219.019Y98.4
X219.019Y96.7
X219.019Y95.0
X219.019Y79.35
X219.019Y77.65
X219.019Y75.95
X219.131Y22.2
X219.131Y20.5
X219.131Y18.8
X220.709Y45.259
X220.709Y31.259
X221.512Y3.15
X221.512Y1.45
X221.512Y-0.25
X222.409Y45.259
X222.409Y31.259
X223.781Y22.2
X223.781Y20.5
X223.781Y18.8
X223.894Y60.3
X223.894Y58.6
X223.894Y56.9
X224.109Y45.259
X224.109Y31.259
X224.519Y102.25
X224.519Y88.25
X224.519Y83.2
X224.519Y69.2
X226.219Y102.25
X226.219Y88.25
X226.219Y83.2
X226.219Y69.2
X227.919Y102.25
X227.919Y88.25
X227.919Y83.2
X227.919Y69.2
X228.544Y60.3
X228.544Y58.6
X228.544Y56.9
X229.281Y26.05
X229.281Y12.05
X229.609Y41.409
X229.609Y39.709
X229.609Y38.009
X230.925Y3.15
X230.925Y1.45
X230.925Y-0.25
X230.981Y26.05
X230.981Y12.05
X232.681Y26.05
X232.681Y12.05
X233.419Y98.4
X233.419Y96.7
X233.419Y95.0
X233.419Y79.35
X233.419Y77.65
X233.419Y75.95
X234.044Y64.15
X234.044Y50.15
X235.744Y64.15
X235.744Y50.15
X236.425Y7.0
X236.425Y-7.0
X237.444Y64.15
X237.444Y50.15
X238.069Y98.4
X238.069Y96.7
X238.069Y95.0
X238.125Y7.0
X238.125Y-7.0
X238.181Y22.2
X238.181Y20.5
X238.181Y18.8
X239.825Y7.0
X239.825Y-7.0
X242.944Y60.3
X242.944Y58.6
X242.944Y56.9
X243.569Y102.25
X243.569Y88.25
X245.212Y41.25
X245.212Y39.55
X245.212Y37.85
X245.269Y102.25
X245.269Y88.25
X245.325Y3.15
X245.325Y1.45
X245.325Y-0.25
X246.969Y102.25
X246.969Y88.25
X247.594Y79.35
X247.594Y77.65
X247.594Y75.95
X249.975Y22.2
X249.975Y20.5
X249.975Y18.8
X250.712Y45.1
X250.712Y31.1
X252.356Y60.3
X252.356Y58.6
X252.356Y56.9
X252.412Y45.1
X252.412Y31.1
X252.469Y98.4
X252.469Y96.7
X252.469Y95.0
X253.094Y83.2
X253.094Y69.2
X254.112Y45.1
X254.112Y31.1
X254.737Y3.15
X254.737Y1.45
X254.737Y-0.25
X254.794Y83.2
X254.794Y69.2
X255.475Y26.05
X255.475Y12.05
X256.494Y83.2
X256.494Y69.2
X257.119Y98.4
X257.119Y96.7
X257.119Y95.0
X257.175Y26.05
X257.175Y12.05
X257.856Y64.15
X257.856Y50.15
X258.875Y26.05
X258.875Y12.05
X259.556Y64.15
X259.556Y50.15
X259.613Y41.25
X259.613Y39.55
X259.613Y37.85
X260.238Y7.0
X260.238Y-7.0
X261.256Y64.15
X261.256Y50.15
X261.938Y7.0
X261.938Y-7.0
X261.994Y79.35
X261.994Y77.65
X261.994Y75.95
X262.619Y102.25
X262.619Y88.25
X263.637Y7.0
X263.637Y-7.0
X264.319Y102.25
X264.319Y88.25
X264.375Y22.2
X264.375Y20.5
X264.375Y18.8
X266.019Y102.25
X266.019Y88.25
X266.756Y60.3
X266.756Y58.6
X266.756Y56.9
X269.137Y3.15
X269.137Y1.45
X269.137Y-0.25
X271.519Y98.4
X271.519Y96.7
X271.519Y95.0
X276.169Y98.4
X276.169Y96.7
X276.169Y95.0
X276.169Y79.35
X276.169Y77.65
X276.169Y75.95
X276.169Y60.3
X276.169Y58.6
X276.169Y56.9
X276.169Y41.25
X276.169Y39.55
X276.169Y37.85
X276.169Y22.2
X276.169Y20.5
X276.169Y18.8
X276.169Y3.15
X276.169Y1.45
X276.169Y-0.25
X281.669Y102.25
X281.669Y88.25
X281.669Y83.2
X281.669Y69.2
X281.669Y64.15
X281.669Y50.15
X281.669Y45.1
X281.669Y31.1
X281.669Y26.05
X281.669Y12.05
X281.669Y7.0
X281.669Y-7.0
X283.369Y102.25
X283.369Y88.25
X283.369Y83.2
X283.369Y69.2
X283.369Y64.15
X283.369Y50.15
X283.369Y45.1
X283.369Y31.1
X283.369Y26.05
X283.369Y12.05
X283.369Y7.0
X283.369Y-7.0
X285.069Y102.25
X285.069Y88.25
X285.069Y83.2
X285.069Y69.2
X285.069Y64.15
X285.069Y50.15
X285.069Y45.1
X285.069Y31.1
X285.069Y26.05
X285.069Y12.05
X285.069Y7.0
X285.069Y-7.0
X290.569Y98.4
X290.569Y96.7
X290.569Y95.0
X290.569Y79.35
X290.569Y77.65
X290.569Y75.95
X290.569Y60.3
X290.569Y58.6
X290.569Y56.9
X290.569Y41.25
X290.569Y39.55
X290.569Y37.85
X290.569Y22.2
X290.569Y20.5
X290.569Y18.8
X290.569Y3.15
X290.569Y1.45
X290.569Y-0.25
X295.219Y98.4
X295.219Y96.7
X295.219Y95.0
X295.219Y79.35
X295.219Y77.65
X295.219Y75.95
X295.219Y60.3
X295.219Y58.6
X295.219Y56.9
X295.219Y41.25
X295.219Y39.55
X295.219Y37.85
X295.219Y22.2
X295.219Y20.5
X295.219Y18.8
X295.219Y3.15
X295.219Y1.45
X295.219Y-0.25
X300.719Y102.25
X300.719Y88.25
X300.719Y83.2
X300.719Y69.2
X300.719Y64.15
X300.719Y50.15
X300.719Y45.1
X300.719Y31.1
X300.719Y26.05
X300.719Y12.05
X300.719Y7.0
X300.719Y-7.0
X302.419Y102.25
X302.419Y88.25
X302.419Y83.2
X302.419Y69.2
X302.419Y64.15
X302.419Y50.15
X302.419Y45.1
X302.419Y31.1
X302.419Y26.05
X302.419Y12.05
X302.419Y7.0
X302.419Y-7.0
X304.119Y102.25
X304.119Y88.25
X304.119Y83.2
X304.119Y69.2
X304.119Y64.15
X304.119Y50.15
X304.119Y45.1
X304.119Y31.1
X304.119Y26.05
X304.119Y12.05
X304.119Y7.0
X304.119Y-7.0
X309.619Y98.4
X309.619Y96.7
X309.619Y95.0
X309.619Y79.35
X309.619Y77.65
X309.619Y75.95
X309.619Y60.3
X309.619Y58.6
X309.619Y56.9
X309.619Y41.25
X309.619Y39.55
X309.619Y37.85
X309.619Y22.2
X309.619Y20.5
X309.619Y18.8
X309.619Y3.15
X309.619Y1.45
X309.619Y-0.25
X314.269Y98.4
X314.269Y96.7
X314.269Y95.0
X314.269Y79.35
X314.269Y77.65
X314.269Y75.95
X314.269Y60.3
X314.269Y58.6
X314.269Y56.9
X314.269Y41.25
X314.269Y39.55
X314.269Y37.85
X314.269Y22.2
X314.269Y20.5
X314.269Y18.8
X314.269Y3.15
X314.269Y1.45
X314.269Y-0.25
X319.769Y102.25
X319.769Y88.25
X319.769Y83.2
X319.769Y69.2
X319.769Y64.15
X319.769Y50.15
X319.769Y45.1
X319.769Y31.1
X319.769Y26.05
X319.769Y12.05
X319.769Y7.0
X319.769Y-7.0
X321.469Y102.25
X321.469Y88.25
X321.469Y83.2
X321.469Y69.2
X321.469Y64.15
X321.469Y50.15
X321.469Y45.1
X321.469Y31.1
X321.469Y26.05
X321.469Y12.05
X321.469Y7.0
X321.469Y-7.0
X323.169Y102.25
X323.169Y88.25
X323.169Y83.2
X323.169Y69.2
X323.169Y64.15
X323.169Y50.15
X323.169Y45.1
X323.169Y31.1
X323.169Y26.05
X323.169Y12.05
X323.169Y7.0
X323.169Y-7.0
X328.669Y98.4
X328.669Y96.7
X328.669Y95.0
X328.669Y79.35
X328.669Y77.65
X328.669Y75.95
X328.669Y60.3
X328.669Y58.6
X328.669Y56.9
X328.669Y41.25
X328.669Y39.55
X328.669Y37.85
X328.669Y22.2
X328.669Y20.5
X328.669Y18.8
X328.669Y3.15
X328.669Y1.45
X328.669Y-0.25
T3
X-9.481Y102.25
X-9.481Y88.25
X-9.481Y83.2
X-9.481Y69.2
X-7.1Y7.0
X-7.1Y-7.0
X-4.719Y64.15
X-4.719Y50.15
X-2.337Y45.1
X-2.337Y31.1
X2.425Y26.05
X2.425Y12.05
X4.719Y102.25
X4.719Y88.25
X4.719Y83.2
X4.719Y69.2
X7.1Y7.0
X7.1Y-7.0
X9.481Y64.15
X9.481Y50.15
X9.569Y83.2
X9.569Y69.2
X11.862Y45.1
X11.862Y31.1
X16.625Y26.05
X16.625Y12.05
X16.712Y7.0
X16.712Y-7.0
X19.094Y64.15
X19.094Y50.15
X23.769Y83.2
X23.769Y69.2
X23.856Y45.1
X23.856Y31.1
X28.619Y83.2
X28.619Y69.2
X30.912Y7.0
X30.912Y-7.0
X33.294Y64.15
X33.294Y50.15
X33.381Y26.05
X33.381Y12.05
X38.056Y45.1
X38.056Y31.1
X38.144Y102.25
X38.144Y88.25
X38.144Y64.15
X38.144Y50.15
X40.525Y7.0
X40.525Y-7.0
X42.819Y83.2
X42.819Y69.2
X42.906Y45.1
X42.906Y31.1
X47.581Y26.05
X47.581Y12.05
X47.669Y83.2
X47.669Y69.2
X52.344Y102.25
X52.344Y88.25
X52.344Y64.15
X52.344Y50.15
X52.431Y26.05
X52.431Y12.05
X54.725Y7.0
X54.725Y-7.0
X57.106Y45.1
X57.106Y31.1
X57.194Y102.25
X57.194Y88.25
X57.194Y64.15
X57.194Y50.15
X61.869Y83.2
X61.869Y69.2
X61.956Y45.1
X61.956Y31.1
X64.337Y7.0
X64.337Y-7.0
X66.631Y26.05
X66.631Y12.05
X66.719Y83.2
X66.719Y69.2
X71.394Y102.25
X71.394Y88.25
X71.394Y64.15
X71.394Y50.15
X71.481Y26.05
X71.481Y12.05
X76.156Y45.1
X76.156Y31.1
X76.244Y102.25
X76.244Y88.25
X76.244Y64.15
X76.244Y50.15
X78.537Y7.0
X78.537Y-7.0
X80.919Y83.2
X80.919Y69.2
X81.006Y45.1
X81.006Y31.1
X85.681Y26.05
X85.681Y12.05
X85.769Y83.2
X85.769Y69.2
X88.15Y7.0
X88.15Y-7.0
X90.444Y102.25
X90.444Y88.25
X90.444Y64.15
X90.444Y50.15
X90.531Y26.05
X90.531Y12.05
X95.206Y45.1
X95.206Y31.1
X95.294Y102.25
X95.294Y88.25
X95.294Y64.15
X95.294Y50.15
X99.969Y83.2
X99.969Y69.2
X100.056Y45.1
X100.056Y31.1
X102.35Y7.0
X102.35Y-7.0
X104.731Y26.05
X104.731Y12.05
X104.819Y83.2
X104.819Y69.2
X109.494Y102.25
X109.494Y88.25
X109.494Y64.15
X109.494Y50.15
X109.581Y26.05
X109.581Y12.05
X111.962Y7.0
X111.962Y-7.0
X114.256Y45.1
X114.256Y31.1
X114.344Y64.15
X114.344Y50.15
X119.019Y83.2
X119.019Y69.2
X119.106Y102.25
X119.106Y88.25
X119.106Y45.1
X119.106Y31.1
X123.781Y26.05
X123.781Y12.05
X123.869Y83.2
X123.869Y69.2
X126.162Y7.0
X126.162Y-7.0
X128.544Y64.15
X128.544Y50.15
X128.631Y26.05
X128.631Y12.05
X133.306Y102.25
X133.306Y88.25
X133.306Y45.1
X133.306Y31.1
X133.394Y64.15
X133.394Y50.15
X135.775Y7.0
X135.775Y-7.0
X138.069Y83.2
X138.069Y69.2
X138.156Y102.25
X138.156Y88.25
X138.156Y45.1
X138.156Y31.1
X142.831Y26.05
X142.831Y12.05
X142.919Y83.2
X142.919Y69.2
X147.594Y64.15
X147.594Y50.15
X147.681Y26.05
X147.681Y12.05
X149.975Y7.0
X149.975Y-7.0
X152.356Y102.25
X152.356Y88.25
X152.356Y45.1
X152.356Y31.1
X152.444Y64.15
X152.444Y50.15
X157.119Y83.2
X157.119Y69.2
X157.206Y102.25
X157.206Y88.25
X157.206Y45.1
X157.206Y31.1
X159.588Y7.0
X159.588Y-7.0
X161.881Y26.05
X161.881Y12.05
X161.969Y83.2
X161.969Y69.2
X166.644Y64.15
X166.644Y50.15
X166.731Y26.05
X166.731Y12.05
X171.406Y102.25
X171.406Y88.25
X171.406Y45.1
X171.406Y31.1
X171.494Y64.15
X171.494Y50.15
X173.787Y7.0
X173.787Y-7.0
X176.169Y83.2
X176.169Y69.2
X176.256Y102.25
X176.256Y88.25
X176.256Y45.1
X176.256Y31.1
X180.931Y26.05
X180.931Y12.05
X181.019Y83.2
X181.019Y69.2
X183.4Y7.0
X183.4Y-7.0
X185.694Y64.15
X185.694Y50.15
X185.781Y26.05
X185.781Y12.05
X190.456Y102.25
X190.456Y88.25
X190.456Y45.1
X190.456Y31.1
X190.544Y64.15
X190.544Y50.15
X195.219Y83.2
X195.219Y69.2
X195.306Y45.1
X195.306Y31.1
X197.6Y7.0
X197.6Y-7.0
X199.981Y26.05
X199.981Y12.05
X200.069Y102.25
X200.069Y88.25
X200.069Y83.2
X200.069Y69.2
X204.744Y64.15
X204.744Y50.15
X204.831Y26.05
X204.831Y12.05
X207.212Y7.0
X207.212Y-7.0
X209.506Y45.1
X209.506Y31.1
X209.594Y64.15
X209.594Y50.15
X214.269Y102.25
X214.269Y88.25
X214.269Y83.2
X214.269Y69.2
X215.309Y45.259
X215.309Y31.259
X219.031Y26.05
X219.031Y12.05
X219.119Y102.25
X219.119Y88.25
X219.119Y83.2
X219.119Y69.2
X221.412Y7.0
X221.412Y-7.0
X223.794Y64.15
X223.794Y50.15
X223.881Y26.05
X223.881Y12.05
X228.644Y64.15
X228.644Y50.15
X229.509Y45.259
X229.509Y31.259
X231.025Y7.0
X231.025Y-7.0
X233.319Y102.25
X233.319Y88.25
X233.319Y83.2
X233.319Y69.2
X238.081Y26.05
X238.081Y12.05
X238.169Y102.25
X238.169Y88.25
X242.844Y64.15
X242.844Y50.15
X245.225Y7.0
X245.225Y-7.0
X245.312Y45.1
X245.312Y31.1
X247.694Y83.2
X247.694Y69.2
X250.075Y26.05
X250.075Y12.05
X252.369Y102.25
X252.369Y88.25
X252.456Y64.15
X252.456Y50.15
X254.837Y7.0
X254.837Y-7.0
X257.219Y102.25
X257.219Y88.25
X259.512Y45.1
X259.512Y31.1
X261.894Y83.2
X261.894Y69.2
X264.275Y26.05
X264.275Y12.05
X266.656Y64.15
X266.656Y50.15
X269.037Y7.0
X269.037Y-7.0
X271.419Y102.25
X271.419Y88.25
X276.269Y102.25
X276.269Y88.25
X276.269Y83.2
X276.269Y69.2
X276.269Y64.15
X276.269Y50.15
X276.269Y45.1
X276.269Y31.1
X276.269Y26.05
X276.269Y12.05
X276.269Y7.0
X276.269Y-7.0
X290.469Y102.25
X290.469Y88.25
X290.469Y83.2
X290.469Y69.2
X290.469Y64.15
X290.469Y50.15
X290.469Y45.1
X290.469Y31.1
X290.469Y26.05
X290.469Y12.05
X290.469Y7.0
X290.469Y-7.0
X295.319Y102.25
X295.319Y88.25
X295.319Y83.2
X295.319Y69.2
X295.319Y64.15
X295.319Y50.15
X295.319Y45.1
X295.319Y31.1
X295.319Y26.05
X295.319Y12.05
X295.319Y7.0
X295.319Y-7.0
X309.519Y102.25
X309.519Y88.25
X309.519Y83.2
X309.519Y69.2
X309.519Y64.15
X309.519Y50.15
X309.519Y45.1
X309.519Y31.1
X309.519Y26.05
X309.519Y12.05
X309.519Y7.0
X309.519Y-7.0
X314.369Y102.25
X314.369Y88.25
X314.369Y83.2
X314.369Y69.2
X314.369Y64.15
X314.369Y50.15
X314.369Y45.1
X314.369Y31.1
X314.369Y26.05
X314.369Y12.05
X314.369Y7.0
X314.369Y-7.0
X328.569Y102.25
X328.569Y88.25
X328.569Y83.2
X328.569Y69.2
X328.569Y64.15
X328.569Y50.15
X328.569Y45.1
X328.569Y31.1
X328.569Y26.05
X328.569Y12.05
X328.569Y7.0
X328.569Y-7.0
T0
M30
