%TF.GenerationSoftware,KiCad,Pcbnew,7.0.2*%
%TF.CreationDate,2023-05-08T20:33:33+02:00*%
%TF.ProjectId,verasity_PCB,76657261-7369-4747-995f-5043422e6b69,rev?*%
%TF.SameCoordinates,Original*%
%TF.FileFunction,Legend,Bot*%
%TF.FilePolarity,Positive*%
%FSLAX46Y46*%
G04 Gerber Fmt 4.6, Leading zero omitted, Abs format (unit mm)*
G04 Created by KiCad (PCBNEW 7.0.2) date 2023-05-08 20:33:33*
%MOMM*%
%LPD*%
G01*
G04 APERTURE LIST*
%ADD10C,2.200000*%
%ADD11C,1.550000*%
%ADD12C,1.500000*%
%ADD13C,2.000000*%
%ADD14C,3.048000*%
%ADD15C,3.987800*%
G04 APERTURE END LIST*
%LPC*%
D10*
%TO.C,REF\u002A\u002A*%
X14287500Y54768750D03*
%TD*%
%TO.C,REF\u002A\u002A*%
X78581250Y34528125D03*
%TD*%
%TO.C,REF\u002A\u002A*%
X140493750Y72628125D03*
%TD*%
%TO.C,REF\u002A\u002A*%
X271462500Y53578125D03*
%TD*%
D11*
%TO.C,U99*%
X29182000Y107303500D03*
X29182000Y104763500D03*
X10696000Y102223500D03*
X29182000Y102223500D03*
X29182000Y99683500D03*
X10696000Y107303500D03*
X29182000Y97143500D03*
X29182000Y94603500D03*
X29182000Y92063500D03*
X29182000Y89523500D03*
X29182000Y86983500D03*
X25019000Y85150500D03*
X22479000Y85150500D03*
X19939000Y85150500D03*
X17399000Y85150500D03*
X14859000Y85150500D03*
X10696000Y86983500D03*
X10696000Y89523500D03*
X10696000Y92063500D03*
X10696000Y94603500D03*
X10696000Y97143500D03*
X10696000Y99683500D03*
X10696000Y104763500D03*
%TD*%
D12*
%TO.C,U19*%
X-9581250Y75950000D03*
D13*
X-9481250Y69200000D03*
D12*
X-4081250Y83200000D03*
X-4081250Y69200000D03*
X-2381250Y83200000D03*
X-2381250Y69200000D03*
X-681250Y83200000D03*
X-681250Y69200000D03*
D13*
X4718750Y69200000D03*
D12*
X4818750Y75950000D03*
D13*
X-9481250Y83200000D03*
X4718750Y83200000D03*
D12*
X4818750Y79350000D03*
X-9581250Y79350000D03*
X-9581250Y77650000D03*
X4818750Y77650000D03*
%TD*%
%TO.C,U9*%
X138056250Y95000000D03*
D13*
X138156250Y88250000D03*
D12*
X143556250Y102250000D03*
X143556250Y88250000D03*
X145256250Y102250000D03*
X145256250Y88250000D03*
X146956250Y102250000D03*
X146956250Y88250000D03*
D13*
X152356250Y88250000D03*
D12*
X152456250Y95000000D03*
D13*
X138156250Y102250000D03*
X152356250Y102250000D03*
D12*
X152456250Y98400000D03*
X138056250Y98400000D03*
X138056250Y96700000D03*
X152456250Y96700000D03*
%TD*%
%TO.C,U98*%
X314268750Y18800000D03*
D13*
X314368750Y12050000D03*
D12*
X319768750Y26050000D03*
X319768750Y12050000D03*
X321468750Y26050000D03*
X321468750Y12050000D03*
X323168750Y26050000D03*
X323168750Y12050000D03*
D13*
X328568750Y12050000D03*
D12*
X328668750Y18800000D03*
D13*
X314368750Y26050000D03*
X328568750Y26050000D03*
D12*
X328668750Y22200000D03*
X314268750Y22200000D03*
X314268750Y20500000D03*
X328668750Y20500000D03*
%TD*%
%TO.C,U97*%
X276168750Y18800000D03*
D13*
X276268750Y12050000D03*
D12*
X281668750Y26050000D03*
X281668750Y12050000D03*
X283368750Y26050000D03*
X283368750Y12050000D03*
X285068750Y26050000D03*
X285068750Y12050000D03*
D13*
X290468750Y12050000D03*
D12*
X290568750Y18800000D03*
D13*
X276268750Y26050000D03*
X290468750Y26050000D03*
D12*
X290568750Y22200000D03*
X276168750Y22200000D03*
X276168750Y20500000D03*
X290568750Y20500000D03*
%TD*%
%TO.C,U96*%
X314268750Y37850000D03*
D13*
X314368750Y31100000D03*
D12*
X319768750Y45100000D03*
X319768750Y31100000D03*
X321468750Y45100000D03*
X321468750Y31100000D03*
X323168750Y45100000D03*
X323168750Y31100000D03*
D13*
X328568750Y31100000D03*
D12*
X328668750Y37850000D03*
D13*
X314368750Y45100000D03*
X328568750Y45100000D03*
D12*
X328668750Y41250000D03*
X314268750Y41250000D03*
X314268750Y39550000D03*
X328668750Y39550000D03*
%TD*%
%TO.C,U95*%
X314268750Y-250000D03*
D13*
X314368750Y-7000000D03*
D12*
X319768750Y7000000D03*
X319768750Y-7000000D03*
X321468750Y7000000D03*
X321468750Y-7000000D03*
X323168750Y7000000D03*
X323168750Y-7000000D03*
D13*
X328568750Y-7000000D03*
D12*
X328668750Y-250000D03*
D13*
X314368750Y7000000D03*
X328568750Y7000000D03*
D12*
X328668750Y3150000D03*
X314268750Y3150000D03*
X314268750Y1450000D03*
X328668750Y1450000D03*
%TD*%
%TO.C,U94*%
X295218750Y-250000D03*
D13*
X295318750Y-7000000D03*
D12*
X300718750Y7000000D03*
X300718750Y-7000000D03*
X302418750Y7000000D03*
X302418750Y-7000000D03*
X304118750Y7000000D03*
X304118750Y-7000000D03*
D13*
X309518750Y-7000000D03*
D12*
X309618750Y-250000D03*
D13*
X295318750Y7000000D03*
X309518750Y7000000D03*
D12*
X309618750Y3150000D03*
X295218750Y3150000D03*
X295218750Y1450000D03*
X309618750Y1450000D03*
%TD*%
%TO.C,U93*%
X276168750Y-250000D03*
D13*
X276268750Y-7000000D03*
D12*
X281668750Y7000000D03*
X281668750Y-7000000D03*
X283368750Y7000000D03*
X283368750Y-7000000D03*
X285068750Y7000000D03*
X285068750Y-7000000D03*
D13*
X290468750Y-7000000D03*
D12*
X290568750Y-250000D03*
D13*
X276268750Y7000000D03*
X290468750Y7000000D03*
D12*
X290568750Y3150000D03*
X276168750Y3150000D03*
X276168750Y1450000D03*
X290568750Y1450000D03*
%TD*%
%TO.C,U92*%
X254737500Y-250000D03*
D13*
X254837500Y-7000000D03*
D12*
X260237500Y7000000D03*
X260237500Y-7000000D03*
X261937500Y7000000D03*
X261937500Y-7000000D03*
X263637500Y7000000D03*
X263637500Y-7000000D03*
D13*
X269037500Y-7000000D03*
D12*
X269137500Y-250000D03*
D13*
X254837500Y7000000D03*
X269037500Y7000000D03*
D12*
X269137500Y3150000D03*
X254737500Y3150000D03*
X254737500Y1450000D03*
X269137500Y1450000D03*
%TD*%
%TO.C,U91*%
X230925000Y-250000D03*
D13*
X231025000Y-7000000D03*
D12*
X236425000Y7000000D03*
X236425000Y-7000000D03*
X238125000Y7000000D03*
X238125000Y-7000000D03*
X239825000Y7000000D03*
X239825000Y-7000000D03*
D13*
X245225000Y-7000000D03*
D12*
X245325000Y-250000D03*
D13*
X231025000Y7000000D03*
X245225000Y7000000D03*
D12*
X245325000Y3150000D03*
X230925000Y3150000D03*
X230925000Y1450000D03*
X245325000Y1450000D03*
%TD*%
%TO.C,U90*%
X207112500Y-250000D03*
D13*
X207212500Y-7000000D03*
D12*
X212612500Y7000000D03*
X212612500Y-7000000D03*
X214312500Y7000000D03*
X214312500Y-7000000D03*
X216012500Y7000000D03*
X216012500Y-7000000D03*
D13*
X221412500Y-7000000D03*
D12*
X221512500Y-250000D03*
D13*
X207212500Y7000000D03*
X221412500Y7000000D03*
D12*
X221512500Y3150000D03*
X207112500Y3150000D03*
X207112500Y1450000D03*
X221512500Y1450000D03*
%TD*%
%TO.C,U89*%
X183300000Y-250000D03*
D13*
X183400000Y-7000000D03*
D12*
X188800000Y7000000D03*
X188800000Y-7000000D03*
X190500000Y7000000D03*
X190500000Y-7000000D03*
X192200000Y7000000D03*
X192200000Y-7000000D03*
D13*
X197600000Y-7000000D03*
D12*
X197700000Y-250000D03*
D13*
X183400000Y7000000D03*
X197600000Y7000000D03*
D12*
X197700000Y3150000D03*
X183300000Y3150000D03*
X183300000Y1450000D03*
X197700000Y1450000D03*
%TD*%
%TO.C,U88*%
X295218750Y37850000D03*
D13*
X295318750Y31100000D03*
D12*
X300718750Y45100000D03*
X300718750Y31100000D03*
X302418750Y45100000D03*
X302418750Y31100000D03*
X304118750Y45100000D03*
X304118750Y31100000D03*
D13*
X309518750Y31100000D03*
D12*
X309618750Y37850000D03*
D13*
X295318750Y45100000D03*
X309518750Y45100000D03*
D12*
X309618750Y41250000D03*
X295218750Y41250000D03*
X295218750Y39550000D03*
X309618750Y39550000D03*
%TD*%
%TO.C,U87*%
X159487500Y-250000D03*
D13*
X159587500Y-7000000D03*
D12*
X164987500Y7000000D03*
X164987500Y-7000000D03*
X166687500Y7000000D03*
X166687500Y-7000000D03*
X168387500Y7000000D03*
X168387500Y-7000000D03*
D13*
X173787500Y-7000000D03*
D12*
X173887500Y-250000D03*
D13*
X159587500Y7000000D03*
X173787500Y7000000D03*
D12*
X173887500Y3150000D03*
X159487500Y3150000D03*
X159487500Y1450000D03*
X173887500Y1450000D03*
%TD*%
%TO.C,U86*%
X135675000Y-250000D03*
D13*
X135775000Y-7000000D03*
D12*
X141175000Y7000000D03*
X141175000Y-7000000D03*
X142875000Y7000000D03*
X142875000Y-7000000D03*
X144575000Y7000000D03*
X144575000Y-7000000D03*
D13*
X149975000Y-7000000D03*
D12*
X150075000Y-250000D03*
D13*
X135775000Y7000000D03*
X149975000Y7000000D03*
D12*
X150075000Y3150000D03*
X135675000Y3150000D03*
X135675000Y1450000D03*
X150075000Y1450000D03*
%TD*%
%TO.C,U85*%
X111862500Y-250000D03*
D13*
X111962500Y-7000000D03*
D12*
X117362500Y7000000D03*
X117362500Y-7000000D03*
X119062500Y7000000D03*
X119062500Y-7000000D03*
X120762500Y7000000D03*
X120762500Y-7000000D03*
D13*
X126162500Y-7000000D03*
D12*
X126262500Y-250000D03*
D13*
X111962500Y7000000D03*
X126162500Y7000000D03*
D12*
X126262500Y3150000D03*
X111862500Y3150000D03*
X111862500Y1450000D03*
X126262500Y1450000D03*
%TD*%
%TO.C,U84*%
X88050000Y-250000D03*
D13*
X88150000Y-7000000D03*
D12*
X93550000Y7000000D03*
X93550000Y-7000000D03*
X95250000Y7000000D03*
X95250000Y-7000000D03*
X96950000Y7000000D03*
X96950000Y-7000000D03*
D13*
X102350000Y-7000000D03*
D12*
X102450000Y-250000D03*
D13*
X88150000Y7000000D03*
X102350000Y7000000D03*
D12*
X102450000Y3150000D03*
X88050000Y3150000D03*
X88050000Y1450000D03*
X102450000Y1450000D03*
%TD*%
%TO.C,U83*%
X64237500Y-250000D03*
D13*
X64337500Y-7000000D03*
D12*
X69737500Y7000000D03*
X69737500Y-7000000D03*
X71437500Y7000000D03*
X71437500Y-7000000D03*
X73137500Y7000000D03*
X73137500Y-7000000D03*
D13*
X78537500Y-7000000D03*
D12*
X78637500Y-250000D03*
D13*
X64337500Y7000000D03*
X78537500Y7000000D03*
D12*
X78637500Y3150000D03*
X64237500Y3150000D03*
X64237500Y1450000D03*
X78637500Y1450000D03*
%TD*%
%TO.C,U82*%
X40425000Y-250000D03*
D13*
X40525000Y-7000000D03*
D12*
X45925000Y7000000D03*
X45925000Y-7000000D03*
X47625000Y7000000D03*
X47625000Y-7000000D03*
X49325000Y7000000D03*
X49325000Y-7000000D03*
D13*
X54725000Y-7000000D03*
D12*
X54825000Y-250000D03*
D13*
X40525000Y7000000D03*
X54725000Y7000000D03*
D12*
X54825000Y3150000D03*
X40425000Y3150000D03*
X40425000Y1450000D03*
X54825000Y1450000D03*
%TD*%
%TO.C,U81*%
X16612500Y-250000D03*
D13*
X16712500Y-7000000D03*
D12*
X22112500Y7000000D03*
X22112500Y-7000000D03*
X23812500Y7000000D03*
X23812500Y-7000000D03*
X25512500Y7000000D03*
X25512500Y-7000000D03*
D13*
X30912500Y-7000000D03*
D12*
X31012500Y-250000D03*
D13*
X16712500Y7000000D03*
X30912500Y7000000D03*
D12*
X31012500Y3150000D03*
X16612500Y3150000D03*
X16612500Y1450000D03*
X31012500Y1450000D03*
%TD*%
%TO.C,U80*%
X-7200000Y-250000D03*
D13*
X-7100000Y-7000000D03*
D12*
X-1700000Y7000000D03*
X-1700000Y-7000000D03*
X0Y7000000D03*
X0Y-7000000D03*
X1700000Y7000000D03*
X1700000Y-7000000D03*
D13*
X7100000Y-7000000D03*
D12*
X7200000Y-250000D03*
D13*
X-7100000Y7000000D03*
X7100000Y7000000D03*
D12*
X7200000Y3150000D03*
X-7200000Y3150000D03*
X-7200000Y1450000D03*
X7200000Y1450000D03*
%TD*%
%TO.C,U79*%
X295218750Y18800000D03*
D13*
X295318750Y12050000D03*
D12*
X300718750Y26050000D03*
X300718750Y12050000D03*
X302418750Y26050000D03*
X302418750Y12050000D03*
X304118750Y26050000D03*
X304118750Y12050000D03*
D13*
X309518750Y12050000D03*
D12*
X309618750Y18800000D03*
D13*
X295318750Y26050000D03*
X309518750Y26050000D03*
D12*
X309618750Y22200000D03*
X295218750Y22200000D03*
X295218750Y20500000D03*
X309618750Y20500000D03*
%TD*%
%TO.C,U78*%
X249975000Y18800000D03*
D13*
X250075000Y12050000D03*
D12*
X255475000Y26050000D03*
X255475000Y12050000D03*
X257175000Y26050000D03*
X257175000Y12050000D03*
X258875000Y26050000D03*
X258875000Y12050000D03*
D13*
X264275000Y12050000D03*
D12*
X264375000Y18800000D03*
D13*
X250075000Y26050000D03*
X264275000Y26050000D03*
D12*
X264375000Y22200000D03*
X249975000Y22200000D03*
X249975000Y20500000D03*
X264375000Y20500000D03*
%TD*%
%TO.C,U77*%
X223781250Y18800000D03*
D13*
X223881250Y12050000D03*
D12*
X229281250Y26050000D03*
X229281250Y12050000D03*
X230981250Y26050000D03*
X230981250Y12050000D03*
X232681250Y26050000D03*
X232681250Y12050000D03*
D13*
X238081250Y12050000D03*
D12*
X238181250Y18800000D03*
D13*
X223881250Y26050000D03*
X238081250Y26050000D03*
D12*
X238181250Y22200000D03*
X223781250Y22200000D03*
X223781250Y20500000D03*
X238181250Y20500000D03*
%TD*%
%TO.C,U76*%
X204731250Y18800000D03*
D13*
X204831250Y12050000D03*
D12*
X210231250Y26050000D03*
X210231250Y12050000D03*
X211931250Y26050000D03*
X211931250Y12050000D03*
X213631250Y26050000D03*
X213631250Y12050000D03*
D13*
X219031250Y12050000D03*
D12*
X219131250Y18800000D03*
D13*
X204831250Y26050000D03*
X219031250Y26050000D03*
D12*
X219131250Y22200000D03*
X204731250Y22200000D03*
X204731250Y20500000D03*
X219131250Y20500000D03*
%TD*%
%TO.C,U75*%
X185681250Y18800000D03*
D13*
X185781250Y12050000D03*
D12*
X191181250Y26050000D03*
X191181250Y12050000D03*
X192881250Y26050000D03*
X192881250Y12050000D03*
X194581250Y26050000D03*
X194581250Y12050000D03*
D13*
X199981250Y12050000D03*
D12*
X200081250Y18800000D03*
D13*
X185781250Y26050000D03*
X199981250Y26050000D03*
D12*
X200081250Y22200000D03*
X185681250Y22200000D03*
X185681250Y20500000D03*
X200081250Y20500000D03*
%TD*%
%TO.C,U74*%
X166631250Y18800000D03*
D13*
X166731250Y12050000D03*
D12*
X172131250Y26050000D03*
X172131250Y12050000D03*
X173831250Y26050000D03*
X173831250Y12050000D03*
X175531250Y26050000D03*
X175531250Y12050000D03*
D13*
X180931250Y12050000D03*
D12*
X181031250Y18800000D03*
D13*
X166731250Y26050000D03*
X180931250Y26050000D03*
D12*
X181031250Y22200000D03*
X166631250Y22200000D03*
X166631250Y20500000D03*
X181031250Y20500000D03*
%TD*%
%TO.C,U73*%
X147581250Y18800000D03*
D13*
X147681250Y12050000D03*
D12*
X153081250Y26050000D03*
X153081250Y12050000D03*
X154781250Y26050000D03*
X154781250Y12050000D03*
X156481250Y26050000D03*
X156481250Y12050000D03*
D13*
X161881250Y12050000D03*
D12*
X161981250Y18800000D03*
D13*
X147681250Y26050000D03*
X161881250Y26050000D03*
D12*
X161981250Y22200000D03*
X147581250Y22200000D03*
X147581250Y20500000D03*
X161981250Y20500000D03*
%TD*%
%TO.C,U72*%
X128531250Y18800000D03*
D13*
X128631250Y12050000D03*
D12*
X134031250Y26050000D03*
X134031250Y12050000D03*
X135731250Y26050000D03*
X135731250Y12050000D03*
X137431250Y26050000D03*
X137431250Y12050000D03*
D13*
X142831250Y12050000D03*
D12*
X142931250Y18800000D03*
D13*
X128631250Y26050000D03*
X142831250Y26050000D03*
D12*
X142931250Y22200000D03*
X128531250Y22200000D03*
X128531250Y20500000D03*
X142931250Y20500000D03*
%TD*%
%TO.C,U71*%
X109481250Y18800000D03*
D13*
X109581250Y12050000D03*
D12*
X114981250Y26050000D03*
X114981250Y12050000D03*
X116681250Y26050000D03*
X116681250Y12050000D03*
X118381250Y26050000D03*
X118381250Y12050000D03*
D13*
X123781250Y12050000D03*
D12*
X123881250Y18800000D03*
D13*
X109581250Y26050000D03*
X123781250Y26050000D03*
D12*
X123881250Y22200000D03*
X109481250Y22200000D03*
X109481250Y20500000D03*
X123881250Y20500000D03*
%TD*%
%TO.C,U70*%
X90431250Y18800000D03*
D13*
X90531250Y12050000D03*
D12*
X95931250Y26050000D03*
X95931250Y12050000D03*
X97631250Y26050000D03*
X97631250Y12050000D03*
X99331250Y26050000D03*
X99331250Y12050000D03*
D13*
X104731250Y12050000D03*
D12*
X104831250Y18800000D03*
D13*
X90531250Y26050000D03*
X104731250Y26050000D03*
D12*
X104831250Y22200000D03*
X90431250Y22200000D03*
X90431250Y20500000D03*
X104831250Y20500000D03*
%TD*%
%TO.C,U69*%
X71381250Y18800000D03*
D13*
X71481250Y12050000D03*
D12*
X76881250Y26050000D03*
X76881250Y12050000D03*
X78581250Y26050000D03*
X78581250Y12050000D03*
X80281250Y26050000D03*
X80281250Y12050000D03*
D13*
X85681250Y12050000D03*
D12*
X85781250Y18800000D03*
D13*
X71481250Y26050000D03*
X85681250Y26050000D03*
D12*
X85781250Y22200000D03*
X71381250Y22200000D03*
X71381250Y20500000D03*
X85781250Y20500000D03*
%TD*%
%TO.C,U68*%
X52331250Y18800000D03*
D13*
X52431250Y12050000D03*
D12*
X57831250Y26050000D03*
X57831250Y12050000D03*
X59531250Y26050000D03*
X59531250Y12050000D03*
X61231250Y26050000D03*
X61231250Y12050000D03*
D13*
X66631250Y12050000D03*
D12*
X66731250Y18800000D03*
D13*
X52431250Y26050000D03*
X66631250Y26050000D03*
D12*
X66731250Y22200000D03*
X52331250Y22200000D03*
X52331250Y20500000D03*
X66731250Y20500000D03*
%TD*%
%TO.C,U67*%
X33281250Y18800000D03*
D13*
X33381250Y12050000D03*
D12*
X38781250Y26050000D03*
X38781250Y12050000D03*
X40481250Y26050000D03*
X40481250Y12050000D03*
X42181250Y26050000D03*
X42181250Y12050000D03*
D13*
X47581250Y12050000D03*
D12*
X47681250Y18800000D03*
D13*
X33381250Y26050000D03*
X47581250Y26050000D03*
D12*
X47681250Y22200000D03*
X33281250Y22200000D03*
X33281250Y20500000D03*
X47681250Y20500000D03*
%TD*%
%TO.C,U66*%
X2325000Y18800000D03*
D13*
X2425000Y12050000D03*
D12*
X7825000Y26050000D03*
X7825000Y12050000D03*
X9525000Y26050000D03*
X9525000Y12050000D03*
X11225000Y26050000D03*
X11225000Y12050000D03*
D13*
X16625000Y12050000D03*
D12*
X16725000Y18800000D03*
D13*
X2425000Y26050000D03*
X16625000Y26050000D03*
D12*
X16725000Y22200000D03*
X2325000Y22200000D03*
X2325000Y20500000D03*
X16725000Y20500000D03*
%TD*%
%TO.C,U65*%
X245212500Y37850000D03*
D13*
X245312500Y31100000D03*
D12*
X250712500Y45100000D03*
X250712500Y31100000D03*
X252412500Y45100000D03*
X252412500Y31100000D03*
X254112500Y45100000D03*
X254112500Y31100000D03*
D13*
X259512500Y31100000D03*
D12*
X259612500Y37850000D03*
D13*
X245312500Y45100000D03*
X259512500Y45100000D03*
D12*
X259612500Y41250000D03*
X245212500Y41250000D03*
X245212500Y39550000D03*
X259612500Y39550000D03*
%TD*%
%TO.C,U64*%
X215208750Y38008750D03*
D13*
X215308750Y31258750D03*
D12*
X220708750Y45258750D03*
X220708750Y31258750D03*
X222408750Y45258750D03*
X222408750Y31258750D03*
X224108750Y45258750D03*
X224108750Y31258750D03*
D13*
X229508750Y31258750D03*
D12*
X229608750Y38008750D03*
D13*
X215308750Y45258750D03*
X229508750Y45258750D03*
D12*
X229608750Y41408750D03*
X215208750Y41408750D03*
X215208750Y39708750D03*
X229608750Y39708750D03*
%TD*%
%TO.C,U63*%
X195206250Y37850000D03*
D13*
X195306250Y31100000D03*
D12*
X200706250Y45100000D03*
X200706250Y31100000D03*
X202406250Y45100000D03*
X202406250Y31100000D03*
X204106250Y45100000D03*
X204106250Y31100000D03*
D13*
X209506250Y31100000D03*
D12*
X209606250Y37850000D03*
D13*
X195306250Y45100000D03*
X209506250Y45100000D03*
D12*
X209606250Y41250000D03*
X195206250Y41250000D03*
X195206250Y39550000D03*
X209606250Y39550000D03*
%TD*%
%TO.C,U62*%
X176156250Y37850000D03*
D13*
X176256250Y31100000D03*
D12*
X181656250Y45100000D03*
X181656250Y31100000D03*
X183356250Y45100000D03*
X183356250Y31100000D03*
X185056250Y45100000D03*
X185056250Y31100000D03*
D13*
X190456250Y31100000D03*
D12*
X190556250Y37850000D03*
D13*
X176256250Y45100000D03*
X190456250Y45100000D03*
D12*
X190556250Y41250000D03*
X176156250Y41250000D03*
X176156250Y39550000D03*
X190556250Y39550000D03*
%TD*%
%TO.C,U61*%
X157106250Y37850000D03*
D13*
X157206250Y31100000D03*
D12*
X162606250Y45100000D03*
X162606250Y31100000D03*
X164306250Y45100000D03*
X164306250Y31100000D03*
X166006250Y45100000D03*
X166006250Y31100000D03*
D13*
X171406250Y31100000D03*
D12*
X171506250Y37850000D03*
D13*
X157206250Y45100000D03*
X171406250Y45100000D03*
D12*
X171506250Y41250000D03*
X157106250Y41250000D03*
X157106250Y39550000D03*
X171506250Y39550000D03*
%TD*%
%TO.C,U60*%
X138056250Y37850000D03*
D13*
X138156250Y31100000D03*
D12*
X143556250Y45100000D03*
X143556250Y31100000D03*
X145256250Y45100000D03*
X145256250Y31100000D03*
X146956250Y45100000D03*
X146956250Y31100000D03*
D13*
X152356250Y31100000D03*
D12*
X152456250Y37850000D03*
D13*
X138156250Y45100000D03*
X152356250Y45100000D03*
D12*
X152456250Y41250000D03*
X138056250Y41250000D03*
X138056250Y39550000D03*
X152456250Y39550000D03*
%TD*%
%TO.C,U59*%
X119006250Y37850000D03*
D13*
X119106250Y31100000D03*
D12*
X124506250Y45100000D03*
X124506250Y31100000D03*
X126206250Y45100000D03*
X126206250Y31100000D03*
X127906250Y45100000D03*
X127906250Y31100000D03*
D13*
X133306250Y31100000D03*
D12*
X133406250Y37850000D03*
D13*
X119106250Y45100000D03*
X133306250Y45100000D03*
D12*
X133406250Y41250000D03*
X119006250Y41250000D03*
X119006250Y39550000D03*
X133406250Y39550000D03*
%TD*%
%TO.C,U58*%
X99956250Y37850000D03*
D13*
X100056250Y31100000D03*
D12*
X105456250Y45100000D03*
X105456250Y31100000D03*
X107156250Y45100000D03*
X107156250Y31100000D03*
X108856250Y45100000D03*
X108856250Y31100000D03*
D13*
X114256250Y31100000D03*
D12*
X114356250Y37850000D03*
D13*
X100056250Y45100000D03*
X114256250Y45100000D03*
D12*
X114356250Y41250000D03*
X99956250Y41250000D03*
X99956250Y39550000D03*
X114356250Y39550000D03*
%TD*%
%TO.C,U57*%
X80906250Y37850000D03*
D13*
X81006250Y31100000D03*
D12*
X86406250Y45100000D03*
X86406250Y31100000D03*
X88106250Y45100000D03*
X88106250Y31100000D03*
X89806250Y45100000D03*
X89806250Y31100000D03*
D13*
X95206250Y31100000D03*
D12*
X95306250Y37850000D03*
D13*
X81006250Y45100000D03*
X95206250Y45100000D03*
D12*
X95306250Y41250000D03*
X80906250Y41250000D03*
X80906250Y39550000D03*
X95306250Y39550000D03*
%TD*%
%TO.C,U56*%
X61856250Y37850000D03*
D13*
X61956250Y31100000D03*
D12*
X67356250Y45100000D03*
X67356250Y31100000D03*
X69056250Y45100000D03*
X69056250Y31100000D03*
X70756250Y45100000D03*
X70756250Y31100000D03*
D13*
X76156250Y31100000D03*
D12*
X76256250Y37850000D03*
D13*
X61956250Y45100000D03*
X76156250Y45100000D03*
D12*
X76256250Y41250000D03*
X61856250Y41250000D03*
X61856250Y39550000D03*
X76256250Y39550000D03*
%TD*%
%TO.C,U55*%
X42806250Y37850000D03*
D13*
X42906250Y31100000D03*
D12*
X48306250Y45100000D03*
X48306250Y31100000D03*
X50006250Y45100000D03*
X50006250Y31100000D03*
X51706250Y45100000D03*
X51706250Y31100000D03*
D13*
X57106250Y31100000D03*
D12*
X57206250Y37850000D03*
D13*
X42906250Y45100000D03*
X57106250Y45100000D03*
D12*
X57206250Y41250000D03*
X42806250Y41250000D03*
X42806250Y39550000D03*
X57206250Y39550000D03*
%TD*%
%TO.C,U54*%
X23756250Y37850000D03*
D13*
X23856250Y31100000D03*
D12*
X29256250Y45100000D03*
X29256250Y31100000D03*
X30956250Y45100000D03*
X30956250Y31100000D03*
X32656250Y45100000D03*
X32656250Y31100000D03*
D13*
X38056250Y31100000D03*
D12*
X38156250Y37850000D03*
D13*
X23856250Y45100000D03*
X38056250Y45100000D03*
D12*
X38156250Y41250000D03*
X23756250Y41250000D03*
X23756250Y39550000D03*
X38156250Y39550000D03*
%TD*%
%TO.C,U53*%
X-2437500Y37850000D03*
D13*
X-2337500Y31100000D03*
D12*
X3062500Y45100000D03*
X3062500Y31100000D03*
X4762500Y45100000D03*
X4762500Y31100000D03*
X6462500Y45100000D03*
X6462500Y31100000D03*
D13*
X11862500Y31100000D03*
D12*
X11962500Y37850000D03*
D13*
X-2337500Y45100000D03*
X11862500Y45100000D03*
D12*
X11962500Y41250000D03*
X-2437500Y41250000D03*
X-2437500Y39550000D03*
X11962500Y39550000D03*
%TD*%
%TO.C,U52*%
X314268750Y56900000D03*
D13*
X314368750Y50150000D03*
D12*
X319768750Y64150000D03*
X319768750Y50150000D03*
X321468750Y64150000D03*
X321468750Y50150000D03*
X323168750Y64150000D03*
X323168750Y50150000D03*
D13*
X328568750Y50150000D03*
D12*
X328668750Y56900000D03*
D13*
X314368750Y64150000D03*
X328568750Y64150000D03*
D12*
X328668750Y60300000D03*
X314268750Y60300000D03*
X314268750Y58600000D03*
X328668750Y58600000D03*
%TD*%
%TO.C,U51*%
X295218750Y56900000D03*
D13*
X295318750Y50150000D03*
D12*
X300718750Y64150000D03*
X300718750Y50150000D03*
X302418750Y64150000D03*
X302418750Y50150000D03*
X304118750Y64150000D03*
X304118750Y50150000D03*
D13*
X309518750Y50150000D03*
D12*
X309618750Y56900000D03*
D13*
X295318750Y64150000D03*
X309518750Y64150000D03*
D12*
X309618750Y60300000D03*
X295218750Y60300000D03*
X295218750Y58600000D03*
X309618750Y58600000D03*
%TD*%
%TO.C,U50*%
X276168750Y56900000D03*
D13*
X276268750Y50150000D03*
D12*
X281668750Y64150000D03*
X281668750Y50150000D03*
X283368750Y64150000D03*
X283368750Y50150000D03*
X285068750Y64150000D03*
X285068750Y50150000D03*
D13*
X290468750Y50150000D03*
D12*
X290568750Y56900000D03*
D13*
X276268750Y64150000D03*
X290468750Y64150000D03*
D12*
X290568750Y60300000D03*
X276168750Y60300000D03*
X276168750Y58600000D03*
X290568750Y58600000D03*
%TD*%
%TO.C,U49*%
X252356250Y56900000D03*
D13*
X252456250Y50150000D03*
D12*
X257856250Y64150000D03*
X257856250Y50150000D03*
X259556250Y64150000D03*
X259556250Y50150000D03*
X261256250Y64150000D03*
X261256250Y50150000D03*
D13*
X266656250Y50150000D03*
D12*
X266756250Y56900000D03*
D13*
X252456250Y64150000D03*
X266656250Y64150000D03*
D12*
X266756250Y60300000D03*
X252356250Y60300000D03*
X252356250Y58600000D03*
X266756250Y58600000D03*
%TD*%
%TO.C,U48*%
X228543750Y56900000D03*
D13*
X228643750Y50150000D03*
D12*
X234043750Y64150000D03*
X234043750Y50150000D03*
X235743750Y64150000D03*
X235743750Y50150000D03*
X237443750Y64150000D03*
X237443750Y50150000D03*
D13*
X242843750Y50150000D03*
D12*
X242943750Y56900000D03*
D13*
X228643750Y64150000D03*
X242843750Y64150000D03*
D12*
X242943750Y60300000D03*
X228543750Y60300000D03*
X228543750Y58600000D03*
X242943750Y58600000D03*
%TD*%
%TO.C,U47*%
X209493750Y56900000D03*
D13*
X209593750Y50150000D03*
D12*
X214993750Y64150000D03*
X214993750Y50150000D03*
X216693750Y64150000D03*
X216693750Y50150000D03*
X218393750Y64150000D03*
X218393750Y50150000D03*
D13*
X223793750Y50150000D03*
D12*
X223893750Y56900000D03*
D13*
X209593750Y64150000D03*
X223793750Y64150000D03*
D12*
X223893750Y60300000D03*
X209493750Y60300000D03*
X209493750Y58600000D03*
X223893750Y58600000D03*
%TD*%
%TO.C,U46*%
X190443750Y56900000D03*
D13*
X190543750Y50150000D03*
D12*
X195943750Y64150000D03*
X195943750Y50150000D03*
X197643750Y64150000D03*
X197643750Y50150000D03*
X199343750Y64150000D03*
X199343750Y50150000D03*
D13*
X204743750Y50150000D03*
D12*
X204843750Y56900000D03*
D13*
X190543750Y64150000D03*
X204743750Y64150000D03*
D12*
X204843750Y60300000D03*
X190443750Y60300000D03*
X190443750Y58600000D03*
X204843750Y58600000D03*
%TD*%
%TO.C,U45*%
X171393750Y56900000D03*
D13*
X171493750Y50150000D03*
D12*
X176893750Y64150000D03*
X176893750Y50150000D03*
X178593750Y64150000D03*
X178593750Y50150000D03*
X180293750Y64150000D03*
X180293750Y50150000D03*
D13*
X185693750Y50150000D03*
D12*
X185793750Y56900000D03*
D13*
X171493750Y64150000D03*
X185693750Y64150000D03*
D12*
X185793750Y60300000D03*
X171393750Y60300000D03*
X171393750Y58600000D03*
X185793750Y58600000D03*
%TD*%
%TO.C,U44*%
X152343750Y56900000D03*
D13*
X152443750Y50150000D03*
D12*
X157843750Y64150000D03*
X157843750Y50150000D03*
X159543750Y64150000D03*
X159543750Y50150000D03*
X161243750Y64150000D03*
X161243750Y50150000D03*
D13*
X166643750Y50150000D03*
D12*
X166743750Y56900000D03*
D13*
X152443750Y64150000D03*
X166643750Y64150000D03*
D12*
X166743750Y60300000D03*
X152343750Y60300000D03*
X152343750Y58600000D03*
X166743750Y58600000D03*
%TD*%
%TO.C,U43*%
X133293750Y56900000D03*
D13*
X133393750Y50150000D03*
D12*
X138793750Y64150000D03*
X138793750Y50150000D03*
X140493750Y64150000D03*
X140493750Y50150000D03*
X142193750Y64150000D03*
X142193750Y50150000D03*
D13*
X147593750Y50150000D03*
D12*
X147693750Y56900000D03*
D13*
X133393750Y64150000D03*
X147593750Y64150000D03*
D12*
X147693750Y60300000D03*
X133293750Y60300000D03*
X133293750Y58600000D03*
X147693750Y58600000D03*
%TD*%
%TO.C,U42*%
X114243750Y56900000D03*
D13*
X114343750Y50150000D03*
D12*
X119743750Y64150000D03*
X119743750Y50150000D03*
X121443750Y64150000D03*
X121443750Y50150000D03*
X123143750Y64150000D03*
X123143750Y50150000D03*
D13*
X128543750Y50150000D03*
D12*
X128643750Y56900000D03*
D13*
X114343750Y64150000D03*
X128543750Y64150000D03*
D12*
X128643750Y60300000D03*
X114243750Y60300000D03*
X114243750Y58600000D03*
X128643750Y58600000D03*
%TD*%
%TO.C,U41*%
X95193750Y56900000D03*
D13*
X95293750Y50150000D03*
D12*
X100693750Y64150000D03*
X100693750Y50150000D03*
X102393750Y64150000D03*
X102393750Y50150000D03*
X104093750Y64150000D03*
X104093750Y50150000D03*
D13*
X109493750Y50150000D03*
D12*
X109593750Y56900000D03*
D13*
X95293750Y64150000D03*
X109493750Y64150000D03*
D12*
X109593750Y60300000D03*
X95193750Y60300000D03*
X95193750Y58600000D03*
X109593750Y58600000D03*
%TD*%
%TO.C,U40*%
X76143750Y56900000D03*
D13*
X76243750Y50150000D03*
D12*
X81643750Y64150000D03*
X81643750Y50150000D03*
X83343750Y64150000D03*
X83343750Y50150000D03*
X85043750Y64150000D03*
X85043750Y50150000D03*
D13*
X90443750Y50150000D03*
D12*
X90543750Y56900000D03*
D13*
X76243750Y64150000D03*
X90443750Y64150000D03*
D12*
X90543750Y60300000D03*
X76143750Y60300000D03*
X76143750Y58600000D03*
X90543750Y58600000D03*
%TD*%
%TO.C,U39*%
X57093750Y56900000D03*
D13*
X57193750Y50150000D03*
D12*
X62593750Y64150000D03*
X62593750Y50150000D03*
X64293750Y64150000D03*
X64293750Y50150000D03*
X65993750Y64150000D03*
X65993750Y50150000D03*
D13*
X71393750Y50150000D03*
D12*
X71493750Y56900000D03*
D13*
X57193750Y64150000D03*
X71393750Y64150000D03*
D12*
X71493750Y60300000D03*
X57093750Y60300000D03*
X57093750Y58600000D03*
X71493750Y58600000D03*
%TD*%
%TO.C,U38*%
X38043750Y56900000D03*
D13*
X38143750Y50150000D03*
D12*
X43543750Y64150000D03*
X43543750Y50150000D03*
X45243750Y64150000D03*
X45243750Y50150000D03*
X46943750Y64150000D03*
X46943750Y50150000D03*
D13*
X52343750Y50150000D03*
D12*
X52443750Y56900000D03*
D13*
X38143750Y64150000D03*
X52343750Y64150000D03*
D12*
X52443750Y60300000D03*
X38043750Y60300000D03*
X38043750Y58600000D03*
X52443750Y58600000D03*
%TD*%
%TO.C,U37*%
X18993750Y56900000D03*
D13*
X19093750Y50150000D03*
D12*
X24493750Y64150000D03*
X24493750Y50150000D03*
X26193750Y64150000D03*
X26193750Y50150000D03*
X27893750Y64150000D03*
X27893750Y50150000D03*
D13*
X33293750Y50150000D03*
D12*
X33393750Y56900000D03*
D13*
X19093750Y64150000D03*
X33293750Y64150000D03*
D12*
X33393750Y60300000D03*
X18993750Y60300000D03*
X18993750Y58600000D03*
X33393750Y58600000D03*
%TD*%
%TO.C,U36*%
X-4818750Y56900000D03*
D13*
X-4718750Y50150000D03*
D12*
X681250Y64150000D03*
X681250Y50150000D03*
X2381250Y64150000D03*
X2381250Y50150000D03*
X4081250Y64150000D03*
X4081250Y50150000D03*
D13*
X9481250Y50150000D03*
D12*
X9581250Y56900000D03*
D13*
X-4718750Y64150000D03*
X9481250Y64150000D03*
D12*
X9581250Y60300000D03*
X-4818750Y60300000D03*
X-4818750Y58600000D03*
X9581250Y58600000D03*
%TD*%
%TO.C,U35*%
X314268750Y75950000D03*
D13*
X314368750Y69200000D03*
D12*
X319768750Y83200000D03*
X319768750Y69200000D03*
X321468750Y83200000D03*
X321468750Y69200000D03*
X323168750Y83200000D03*
X323168750Y69200000D03*
D13*
X328568750Y69200000D03*
D12*
X328668750Y75950000D03*
D13*
X314368750Y83200000D03*
X328568750Y83200000D03*
D12*
X328668750Y79350000D03*
X314268750Y79350000D03*
X314268750Y77650000D03*
X328668750Y77650000D03*
%TD*%
%TO.C,U34*%
X295218750Y75950000D03*
D13*
X295318750Y69200000D03*
D12*
X300718750Y83200000D03*
X300718750Y69200000D03*
X302418750Y83200000D03*
X302418750Y69200000D03*
X304118750Y83200000D03*
X304118750Y69200000D03*
D13*
X309518750Y69200000D03*
D12*
X309618750Y75950000D03*
D13*
X295318750Y83200000D03*
X309518750Y83200000D03*
D12*
X309618750Y79350000D03*
X295218750Y79350000D03*
X295218750Y77650000D03*
X309618750Y77650000D03*
%TD*%
%TO.C,U33*%
X276168750Y75950000D03*
D13*
X276268750Y69200000D03*
D12*
X281668750Y83200000D03*
X281668750Y69200000D03*
X283368750Y83200000D03*
X283368750Y69200000D03*
X285068750Y83200000D03*
X285068750Y69200000D03*
D13*
X290468750Y69200000D03*
D12*
X290568750Y75950000D03*
D13*
X276268750Y83200000D03*
X290468750Y83200000D03*
D12*
X290568750Y79350000D03*
X276168750Y79350000D03*
X276168750Y77650000D03*
X290568750Y77650000D03*
%TD*%
%TO.C,U32*%
X247593750Y75950000D03*
D13*
X247693750Y69200000D03*
D12*
X253093750Y83200000D03*
X253093750Y69200000D03*
X254793750Y83200000D03*
X254793750Y69200000D03*
X256493750Y83200000D03*
X256493750Y69200000D03*
D13*
X261893750Y69200000D03*
D12*
X261993750Y75950000D03*
D13*
X247693750Y83200000D03*
X261893750Y83200000D03*
D12*
X261993750Y79350000D03*
X247593750Y79350000D03*
X247593750Y77650000D03*
X261993750Y77650000D03*
%TD*%
%TO.C,U31*%
X219018750Y75950000D03*
D13*
X219118750Y69200000D03*
D12*
X224518750Y83200000D03*
X224518750Y69200000D03*
X226218750Y83200000D03*
X226218750Y69200000D03*
X227918750Y83200000D03*
X227918750Y69200000D03*
D13*
X233318750Y69200000D03*
D12*
X233418750Y75950000D03*
D13*
X219118750Y83200000D03*
X233318750Y83200000D03*
D12*
X233418750Y79350000D03*
X219018750Y79350000D03*
X219018750Y77650000D03*
X233418750Y77650000D03*
%TD*%
%TO.C,U30*%
X199968750Y75950000D03*
D13*
X200068750Y69200000D03*
D12*
X205468750Y83200000D03*
X205468750Y69200000D03*
X207168750Y83200000D03*
X207168750Y69200000D03*
X208868750Y83200000D03*
X208868750Y69200000D03*
D13*
X214268750Y69200000D03*
D12*
X214368750Y75950000D03*
D13*
X200068750Y83200000D03*
X214268750Y83200000D03*
D12*
X214368750Y79350000D03*
X199968750Y79350000D03*
X199968750Y77650000D03*
X214368750Y77650000D03*
%TD*%
%TO.C,U29*%
X180918750Y75950000D03*
D13*
X181018750Y69200000D03*
D12*
X186418750Y83200000D03*
X186418750Y69200000D03*
X188118750Y83200000D03*
X188118750Y69200000D03*
X189818750Y83200000D03*
X189818750Y69200000D03*
D13*
X195218750Y69200000D03*
D12*
X195318750Y75950000D03*
D13*
X181018750Y83200000D03*
X195218750Y83200000D03*
D12*
X195318750Y79350000D03*
X180918750Y79350000D03*
X180918750Y77650000D03*
X195318750Y77650000D03*
%TD*%
%TO.C,U28*%
X161868750Y75950000D03*
D13*
X161968750Y69200000D03*
D12*
X167368750Y83200000D03*
X167368750Y69200000D03*
X169068750Y83200000D03*
X169068750Y69200000D03*
X170768750Y83200000D03*
X170768750Y69200000D03*
D13*
X176168750Y69200000D03*
D12*
X176268750Y75950000D03*
D13*
X161968750Y83200000D03*
X176168750Y83200000D03*
D12*
X176268750Y79350000D03*
X161868750Y79350000D03*
X161868750Y77650000D03*
X176268750Y77650000D03*
%TD*%
%TO.C,U27*%
X142818750Y75950000D03*
D13*
X142918750Y69200000D03*
D12*
X148318750Y83200000D03*
X148318750Y69200000D03*
X150018750Y83200000D03*
X150018750Y69200000D03*
X151718750Y83200000D03*
X151718750Y69200000D03*
D13*
X157118750Y69200000D03*
D12*
X157218750Y75950000D03*
D13*
X142918750Y83200000D03*
X157118750Y83200000D03*
D12*
X157218750Y79350000D03*
X142818750Y79350000D03*
X142818750Y77650000D03*
X157218750Y77650000D03*
%TD*%
%TO.C,U26*%
X123768750Y75950000D03*
D13*
X123868750Y69200000D03*
D12*
X129268750Y83200000D03*
X129268750Y69200000D03*
X130968750Y83200000D03*
X130968750Y69200000D03*
X132668750Y83200000D03*
X132668750Y69200000D03*
D13*
X138068750Y69200000D03*
D12*
X138168750Y75950000D03*
D13*
X123868750Y83200000D03*
X138068750Y83200000D03*
D12*
X138168750Y79350000D03*
X123768750Y79350000D03*
X123768750Y77650000D03*
X138168750Y77650000D03*
%TD*%
%TO.C,U25*%
X104718750Y75950000D03*
D13*
X104818750Y69200000D03*
D12*
X110218750Y83200000D03*
X110218750Y69200000D03*
X111918750Y83200000D03*
X111918750Y69200000D03*
X113618750Y83200000D03*
X113618750Y69200000D03*
D13*
X119018750Y69200000D03*
D12*
X119118750Y75950000D03*
D13*
X104818750Y83200000D03*
X119018750Y83200000D03*
D12*
X119118750Y79350000D03*
X104718750Y79350000D03*
X104718750Y77650000D03*
X119118750Y77650000D03*
%TD*%
%TO.C,U24*%
X85668750Y75950000D03*
D13*
X85768750Y69200000D03*
D12*
X91168750Y83200000D03*
X91168750Y69200000D03*
X92868750Y83200000D03*
X92868750Y69200000D03*
X94568750Y83200000D03*
X94568750Y69200000D03*
D13*
X99968750Y69200000D03*
D12*
X100068750Y75950000D03*
D13*
X85768750Y83200000D03*
X99968750Y83200000D03*
D12*
X100068750Y79350000D03*
X85668750Y79350000D03*
X85668750Y77650000D03*
X100068750Y77650000D03*
%TD*%
%TO.C,U23*%
X66618750Y75950000D03*
D13*
X66718750Y69200000D03*
D12*
X72118750Y83200000D03*
X72118750Y69200000D03*
X73818750Y83200000D03*
X73818750Y69200000D03*
X75518750Y83200000D03*
X75518750Y69200000D03*
D13*
X80918750Y69200000D03*
D12*
X81018750Y75950000D03*
D13*
X66718750Y83200000D03*
X80918750Y83200000D03*
D12*
X81018750Y79350000D03*
X66618750Y79350000D03*
X66618750Y77650000D03*
X81018750Y77650000D03*
%TD*%
%TO.C,U22*%
X47568750Y75950000D03*
D13*
X47668750Y69200000D03*
D12*
X53068750Y83200000D03*
X53068750Y69200000D03*
X54768750Y83200000D03*
X54768750Y69200000D03*
X56468750Y83200000D03*
X56468750Y69200000D03*
D13*
X61868750Y69200000D03*
D12*
X61968750Y75950000D03*
D13*
X47668750Y83200000D03*
X61868750Y83200000D03*
D12*
X61968750Y79350000D03*
X47568750Y79350000D03*
X47568750Y77650000D03*
X61968750Y77650000D03*
%TD*%
%TO.C,U21*%
X28518750Y75950000D03*
D13*
X28618750Y69200000D03*
D12*
X34018750Y83200000D03*
X34018750Y69200000D03*
X35718750Y83200000D03*
X35718750Y69200000D03*
X37418750Y83200000D03*
X37418750Y69200000D03*
D13*
X42818750Y69200000D03*
D12*
X42918750Y75950000D03*
D13*
X28618750Y83200000D03*
X42818750Y83200000D03*
D12*
X42918750Y79350000D03*
X28518750Y79350000D03*
X28518750Y77650000D03*
X42918750Y77650000D03*
%TD*%
%TO.C,U20*%
X9468750Y75950000D03*
D13*
X9568750Y69200000D03*
D12*
X14968750Y83200000D03*
X14968750Y69200000D03*
X16668750Y83200000D03*
X16668750Y69200000D03*
X18368750Y83200000D03*
X18368750Y69200000D03*
D13*
X23768750Y69200000D03*
D12*
X23868750Y75950000D03*
D13*
X9568750Y83200000D03*
X23768750Y83200000D03*
D12*
X23868750Y79350000D03*
X9468750Y79350000D03*
X9468750Y77650000D03*
X23868750Y77650000D03*
%TD*%
%TO.C,U18*%
X314268750Y95000000D03*
D13*
X314368750Y88250000D03*
D12*
X319768750Y102250000D03*
X319768750Y88250000D03*
X321468750Y102250000D03*
X321468750Y88250000D03*
X323168750Y102250000D03*
X323168750Y88250000D03*
D13*
X328568750Y88250000D03*
D12*
X328668750Y95000000D03*
D13*
X314368750Y102250000D03*
X328568750Y102250000D03*
D12*
X328668750Y98400000D03*
X314268750Y98400000D03*
X314268750Y96700000D03*
X328668750Y96700000D03*
%TD*%
%TO.C,U17*%
X295218750Y95000000D03*
D13*
X295318750Y88250000D03*
D12*
X300718750Y102250000D03*
X300718750Y88250000D03*
X302418750Y102250000D03*
X302418750Y88250000D03*
X304118750Y102250000D03*
X304118750Y88250000D03*
D13*
X309518750Y88250000D03*
D12*
X309618750Y95000000D03*
D13*
X295318750Y102250000D03*
X309518750Y102250000D03*
D12*
X309618750Y98400000D03*
X295218750Y98400000D03*
X295218750Y96700000D03*
X309618750Y96700000D03*
%TD*%
%TO.C,U16*%
X276168750Y95000000D03*
D13*
X276268750Y88250000D03*
D12*
X281668750Y102250000D03*
X281668750Y88250000D03*
X283368750Y102250000D03*
X283368750Y88250000D03*
X285068750Y102250000D03*
X285068750Y88250000D03*
D13*
X290468750Y88250000D03*
D12*
X290568750Y95000000D03*
D13*
X276268750Y102250000D03*
X290468750Y102250000D03*
D12*
X290568750Y98400000D03*
X276168750Y98400000D03*
X276168750Y96700000D03*
X290568750Y96700000D03*
%TD*%
%TO.C,U15*%
X257118750Y95000000D03*
D13*
X257218750Y88250000D03*
D12*
X262618750Y102250000D03*
X262618750Y88250000D03*
X264318750Y102250000D03*
X264318750Y88250000D03*
X266018750Y102250000D03*
X266018750Y88250000D03*
D13*
X271418750Y88250000D03*
D12*
X271518750Y95000000D03*
D13*
X257218750Y102250000D03*
X271418750Y102250000D03*
D12*
X271518750Y98400000D03*
X257118750Y98400000D03*
X257118750Y96700000D03*
X271518750Y96700000D03*
%TD*%
%TO.C,U14*%
X238068750Y95000000D03*
D13*
X238168750Y88250000D03*
D12*
X243568750Y102250000D03*
X243568750Y88250000D03*
X245268750Y102250000D03*
X245268750Y88250000D03*
X246968750Y102250000D03*
X246968750Y88250000D03*
D13*
X252368750Y88250000D03*
D12*
X252468750Y95000000D03*
D13*
X238168750Y102250000D03*
X252368750Y102250000D03*
D12*
X252468750Y98400000D03*
X238068750Y98400000D03*
X238068750Y96700000D03*
X252468750Y96700000D03*
%TD*%
%TO.C,U13*%
X219018750Y95000000D03*
D13*
X219118750Y88250000D03*
D12*
X224518750Y102250000D03*
X224518750Y88250000D03*
X226218750Y102250000D03*
X226218750Y88250000D03*
X227918750Y102250000D03*
X227918750Y88250000D03*
D13*
X233318750Y88250000D03*
D12*
X233418750Y95000000D03*
D13*
X219118750Y102250000D03*
X233318750Y102250000D03*
D12*
X233418750Y98400000D03*
X219018750Y98400000D03*
X219018750Y96700000D03*
X233418750Y96700000D03*
%TD*%
%TO.C,U12*%
X199968750Y95000000D03*
D13*
X200068750Y88250000D03*
D12*
X205468750Y102250000D03*
X205468750Y88250000D03*
X207168750Y102250000D03*
X207168750Y88250000D03*
X208868750Y102250000D03*
X208868750Y88250000D03*
D13*
X214268750Y88250000D03*
D12*
X214368750Y95000000D03*
D13*
X200068750Y102250000D03*
X214268750Y102250000D03*
D12*
X214368750Y98400000D03*
X199968750Y98400000D03*
X199968750Y96700000D03*
X214368750Y96700000D03*
%TD*%
%TO.C,U11*%
X176156250Y95000000D03*
D13*
X176256250Y88250000D03*
D12*
X181656250Y102250000D03*
X181656250Y88250000D03*
X183356250Y102250000D03*
X183356250Y88250000D03*
X185056250Y102250000D03*
X185056250Y88250000D03*
D13*
X190456250Y88250000D03*
D12*
X190556250Y95000000D03*
D13*
X176256250Y102250000D03*
X190456250Y102250000D03*
D12*
X190556250Y98400000D03*
X176156250Y98400000D03*
X176156250Y96700000D03*
X190556250Y96700000D03*
%TD*%
%TO.C,U10*%
X157106250Y95000000D03*
D13*
X157206250Y88250000D03*
D12*
X162606250Y102250000D03*
X162606250Y88250000D03*
X164306250Y102250000D03*
X164306250Y88250000D03*
X166006250Y102250000D03*
X166006250Y88250000D03*
D13*
X171406250Y88250000D03*
D12*
X171506250Y95000000D03*
D13*
X157206250Y102250000D03*
X171406250Y102250000D03*
D12*
X171506250Y98400000D03*
X157106250Y98400000D03*
X157106250Y96700000D03*
X171506250Y96700000D03*
%TD*%
%TO.C,U8*%
X119006250Y95000000D03*
D13*
X119106250Y88250000D03*
D12*
X124506250Y102250000D03*
X124506250Y88250000D03*
X126206250Y102250000D03*
X126206250Y88250000D03*
X127906250Y102250000D03*
X127906250Y88250000D03*
D13*
X133306250Y88250000D03*
D12*
X133406250Y95000000D03*
D13*
X119106250Y102250000D03*
X133306250Y102250000D03*
D12*
X133406250Y98400000D03*
X119006250Y98400000D03*
X119006250Y96700000D03*
X133406250Y96700000D03*
%TD*%
%TO.C,U7*%
X95193750Y95000000D03*
D13*
X95293750Y88250000D03*
D12*
X100693750Y102250000D03*
X100693750Y88250000D03*
X102393750Y102250000D03*
X102393750Y88250000D03*
X104093750Y102250000D03*
X104093750Y88250000D03*
D13*
X109493750Y88250000D03*
D12*
X109593750Y95000000D03*
D13*
X95293750Y102250000D03*
X109493750Y102250000D03*
D12*
X109593750Y98400000D03*
X95193750Y98400000D03*
X95193750Y96700000D03*
X109593750Y96700000D03*
%TD*%
%TO.C,U6*%
X76143750Y95000000D03*
D13*
X76243750Y88250000D03*
D12*
X81643750Y102250000D03*
X81643750Y88250000D03*
X83343750Y102250000D03*
X83343750Y88250000D03*
X85043750Y102250000D03*
X85043750Y88250000D03*
D13*
X90443750Y88250000D03*
D12*
X90543750Y95000000D03*
D13*
X76243750Y102250000D03*
X90443750Y102250000D03*
D12*
X90543750Y98400000D03*
X76143750Y98400000D03*
X76143750Y96700000D03*
X90543750Y96700000D03*
%TD*%
%TO.C,U5*%
X57093750Y95000000D03*
D13*
X57193750Y88250000D03*
D12*
X62593750Y102250000D03*
X62593750Y88250000D03*
X64293750Y102250000D03*
X64293750Y88250000D03*
X65993750Y102250000D03*
X65993750Y88250000D03*
D13*
X71393750Y88250000D03*
D12*
X71493750Y95000000D03*
D13*
X57193750Y102250000D03*
X71393750Y102250000D03*
D12*
X71493750Y98400000D03*
X57093750Y98400000D03*
X57093750Y96700000D03*
X71493750Y96700000D03*
%TD*%
%TO.C,U4*%
X38043750Y95000000D03*
D13*
X38143750Y88250000D03*
D12*
X43543750Y102250000D03*
X43543750Y88250000D03*
X45243750Y102250000D03*
X45243750Y88250000D03*
X46943750Y102250000D03*
X46943750Y88250000D03*
D13*
X52343750Y88250000D03*
D12*
X52443750Y95000000D03*
D13*
X38143750Y102250000D03*
X52343750Y102250000D03*
D12*
X52443750Y98400000D03*
X38043750Y98400000D03*
X38043750Y96700000D03*
X52443750Y96700000D03*
%TD*%
%TO.C,U3*%
X276168750Y37850000D03*
D13*
X276268750Y31100000D03*
D12*
X281668750Y45100000D03*
X281668750Y31100000D03*
X283368750Y45100000D03*
X283368750Y31100000D03*
X285068750Y45100000D03*
X285068750Y31100000D03*
D13*
X290468750Y31100000D03*
D12*
X290568750Y37850000D03*
D13*
X276268750Y45100000D03*
X290468750Y45100000D03*
D12*
X290568750Y41250000D03*
X276168750Y41250000D03*
X276168750Y39550000D03*
X290568750Y39550000D03*
%TD*%
%TO.C,U2*%
X-9581250Y95000000D03*
D13*
X-9481250Y88250000D03*
D12*
X-4081250Y102250000D03*
X-4081250Y88250000D03*
X-2381250Y102250000D03*
X-2381250Y88250000D03*
X-681250Y102250000D03*
X-681250Y88250000D03*
D13*
X4718750Y88250000D03*
D12*
X4818750Y95000000D03*
D13*
X-9481250Y102250000D03*
X4718750Y102250000D03*
D12*
X4818750Y98400000D03*
X-9581250Y98400000D03*
X-9581250Y96700000D03*
X4818750Y96700000D03*
%TD*%
D10*
%TO.C,REF\u002A\u002A*%
X130810000Y-3000000D03*
%TD*%
%TO.C,REF\u002A\u002A*%
X12700000Y-3000000D03*
%TD*%
%TO.C,REF\u002A\u002A*%
X273050000Y-3000000D03*
%TD*%
%TO.C,REF\u002A\u002A*%
X327660000Y106500000D03*
%TD*%
%TO.C,REF\u002A\u002A*%
X-7500000Y106500000D03*
%TD*%
D14*
%TO.C,REF\u002A\u002A*%
X-2375000Y26035000D03*
D15*
X-2375000Y10795000D03*
D14*
X21425000Y26035000D03*
D15*
X21425000Y10795000D03*
%TD*%
D14*
%TO.C,REF\u002A\u002A*%
X240512500Y45085000D03*
D15*
X240512500Y29845000D03*
D14*
X264312500Y45085000D03*
D15*
X264312500Y29845000D03*
%TD*%
D14*
%TO.C,REF\u002A\u002A*%
X242893750Y83185000D03*
D15*
X242893750Y67945000D03*
D14*
X266693750Y83185000D03*
D15*
X266693750Y67945000D03*
%TD*%
%LPD*%
M02*
