%TF.GenerationSoftware,KiCad,Pcbnew,7.0.3*%
%TF.CreationDate,2023-05-13T23:02:35+02:00*%
%TF.ProjectId,verasity_PCB,76657261-7369-4747-995f-5043422e6b69,rev?*%
%TF.SameCoordinates,Original*%
%TF.FileFunction,Profile,NP*%
%FSLAX46Y46*%
G04 Gerber Fmt 4.6, Leading zero omitted, Abs format (unit mm)*
G04 Created by KiCad (PCBNEW 7.0.3) date 2023-05-13 23:02:35*
%MOMM*%
%LPD*%
G01*
G04 APERTURE LIST*
%TA.AperFunction,Profile*%
%ADD10C,0.010000*%
%TD*%
%TA.AperFunction,Profile*%
%ADD11C,0.050000*%
%TD*%
G04 APERTURE END LIST*
D10*
X328612500Y-9525000D02*
X-9525000Y-9525000D01*
X330993800Y107156250D02*
G75*
G03*
X328612500Y109537500I-2381300J-50D01*
G01*
X328612500Y-9524950D02*
G75*
G03*
X330993750Y-7143750I0J2381250D01*
G01*
X330993750Y107156250D02*
X330994000Y-7143750D01*
X-11906250Y-7143750D02*
X-11906250Y107156250D01*
X-9525000Y109537500D02*
X328612500Y109537500D01*
X-9525000Y109537500D02*
G75*
G03*
X-11906250Y107156250I0J-2381250D01*
G01*
X-11906250Y-7143750D02*
G75*
G03*
X-9525000Y-9525000I2381250J0D01*
G01*
D11*
%TO.C,U99*%
X11539000Y108841000D02*
X28339000Y108841000D01*
X28339000Y108841000D02*
X28339000Y86241000D01*
X28339000Y86241000D02*
X11539000Y86241000D01*
X11539000Y86241000D02*
X11539000Y108841000D01*
D10*
%TO.C,U4*%
X37993750Y102250000D02*
X37993750Y88250000D01*
X37993750Y88250000D02*
X52493750Y88250000D01*
X52493750Y102250000D02*
X37993750Y102250000D01*
X52493750Y88250000D02*
X52493750Y102250000D01*
%TO.C,U6*%
X76093750Y102250000D02*
X76093750Y88250000D01*
X76093750Y88250000D02*
X90593750Y88250000D01*
X90593750Y102250000D02*
X76093750Y102250000D01*
X90593750Y88250000D02*
X90593750Y102250000D01*
%TO.C,U24*%
X85618750Y83200000D02*
X85618750Y69200000D01*
X85618750Y69200000D02*
X100118750Y69200000D01*
X100118750Y83200000D02*
X85618750Y83200000D01*
X100118750Y69200000D02*
X100118750Y83200000D01*
%TO.C,U63*%
X195156250Y45100000D02*
X195156250Y31100000D01*
X195156250Y31100000D02*
X209656250Y31100000D01*
X209656250Y45100000D02*
X195156250Y45100000D01*
X209656250Y31100000D02*
X209656250Y45100000D01*
%TO.C,U79*%
X295168750Y26050000D02*
X295168750Y12050000D01*
X295168750Y12050000D02*
X309668750Y12050000D01*
X309668750Y26050000D02*
X295168750Y26050000D01*
X309668750Y12050000D02*
X309668750Y26050000D01*
%TO.C,U76*%
X204681250Y26050000D02*
X204681250Y12050000D01*
X204681250Y12050000D02*
X219181250Y12050000D01*
X219181250Y26050000D02*
X204681250Y26050000D01*
X219181250Y12050000D02*
X219181250Y26050000D01*
%TO.C,U82*%
X40375000Y7000000D02*
X40375000Y-7000000D01*
X40375000Y-7000000D02*
X54875000Y-7000000D01*
X54875000Y7000000D02*
X40375000Y7000000D01*
X54875000Y-7000000D02*
X54875000Y7000000D01*
%TO.C,U44*%
X152293750Y64150000D02*
X152293750Y50150000D01*
X152293750Y50150000D02*
X166793750Y50150000D01*
X166793750Y64150000D02*
X152293750Y64150000D01*
X166793750Y50150000D02*
X166793750Y64150000D01*
%TO.C,U90*%
X207062500Y7000000D02*
X207062500Y-7000000D01*
X207062500Y-7000000D02*
X221562500Y-7000000D01*
X221562500Y7000000D02*
X207062500Y7000000D01*
X221562500Y-7000000D02*
X221562500Y7000000D01*
%TO.C,U15*%
X257068750Y102250000D02*
X257068750Y88250000D01*
X257068750Y88250000D02*
X271568750Y88250000D01*
X271568750Y102250000D02*
X257068750Y102250000D01*
X271568750Y88250000D02*
X271568750Y102250000D01*
%TO.C,U19*%
X-9631250Y83200000D02*
X-9631250Y69200000D01*
X-9631250Y69200000D02*
X4868750Y69200000D01*
X4868750Y83200000D02*
X-9631250Y83200000D01*
X4868750Y69200000D02*
X4868750Y83200000D01*
%TO.C,U34*%
X295168750Y83200000D02*
X295168750Y69200000D01*
X295168750Y69200000D02*
X309668750Y69200000D01*
X309668750Y83200000D02*
X295168750Y83200000D01*
X309668750Y69200000D02*
X309668750Y83200000D01*
%TO.C,U65*%
X245162500Y45100000D02*
X245162500Y31100000D01*
X245162500Y31100000D02*
X259662500Y31100000D01*
X259662500Y45100000D02*
X245162500Y45100000D01*
X259662500Y31100000D02*
X259662500Y45100000D01*
%TO.C,U11*%
X176106250Y102250000D02*
X176106250Y88250000D01*
X176106250Y88250000D02*
X190606250Y88250000D01*
X190606250Y102250000D02*
X176106250Y102250000D01*
X190606250Y88250000D02*
X190606250Y102250000D01*
%TO.C,U91*%
X230875000Y7000000D02*
X230875000Y-7000000D01*
X230875000Y-7000000D02*
X245375000Y-7000000D01*
X245375000Y7000000D02*
X230875000Y7000000D01*
X245375000Y-7000000D02*
X245375000Y7000000D01*
%TO.C,U39*%
X57043750Y64150000D02*
X57043750Y50150000D01*
X57043750Y50150000D02*
X71543750Y50150000D01*
X71543750Y64150000D02*
X57043750Y64150000D01*
X71543750Y50150000D02*
X71543750Y64150000D01*
%TO.C,U92*%
X254687500Y7000000D02*
X254687500Y-7000000D01*
X254687500Y-7000000D02*
X269187500Y-7000000D01*
X269187500Y7000000D02*
X254687500Y7000000D01*
X269187500Y-7000000D02*
X269187500Y7000000D01*
%TO.C,U22*%
X47518750Y83200000D02*
X47518750Y69200000D01*
X47518750Y69200000D02*
X62018750Y69200000D01*
X62018750Y83200000D02*
X47518750Y83200000D01*
X62018750Y69200000D02*
X62018750Y83200000D01*
%TO.C,U55*%
X42756250Y45100000D02*
X42756250Y31100000D01*
X42756250Y31100000D02*
X57256250Y31100000D01*
X57256250Y45100000D02*
X42756250Y45100000D01*
X57256250Y31100000D02*
X57256250Y45100000D01*
%TO.C,U7*%
X95143750Y102250000D02*
X95143750Y88250000D01*
X95143750Y88250000D02*
X109643750Y88250000D01*
X109643750Y102250000D02*
X95143750Y102250000D01*
X109643750Y88250000D02*
X109643750Y102250000D01*
%TO.C,U31*%
X218968750Y83200000D02*
X218968750Y69200000D01*
X218968750Y69200000D02*
X233468750Y69200000D01*
X233468750Y83200000D02*
X218968750Y83200000D01*
X233468750Y69200000D02*
X233468750Y83200000D01*
%TO.C,U12*%
X199918750Y102250000D02*
X199918750Y88250000D01*
X199918750Y88250000D02*
X214418750Y88250000D01*
X214418750Y102250000D02*
X199918750Y102250000D01*
X214418750Y88250000D02*
X214418750Y102250000D01*
%TO.C,U33*%
X276118750Y83200000D02*
X276118750Y69200000D01*
X276118750Y69200000D02*
X290618750Y69200000D01*
X290618750Y83200000D02*
X276118750Y83200000D01*
X290618750Y69200000D02*
X290618750Y83200000D01*
%TO.C,U86*%
X135625000Y7000000D02*
X135625000Y-7000000D01*
X135625000Y-7000000D02*
X150125000Y-7000000D01*
X150125000Y7000000D02*
X135625000Y7000000D01*
X150125000Y-7000000D02*
X150125000Y7000000D01*
%TO.C,U48*%
X228493750Y64150000D02*
X228493750Y50150000D01*
X228493750Y50150000D02*
X242993750Y50150000D01*
X242993750Y64150000D02*
X228493750Y64150000D01*
X242993750Y50150000D02*
X242993750Y64150000D01*
%TO.C,U80*%
X-7250000Y7000000D02*
X-7250000Y-7000000D01*
X-7250000Y-7000000D02*
X7250000Y-7000000D01*
X7250000Y7000000D02*
X-7250000Y7000000D01*
X7250000Y-7000000D02*
X7250000Y7000000D01*
%TO.C,U98*%
X314218750Y26050000D02*
X314218750Y12050000D01*
X314218750Y12050000D02*
X328718750Y12050000D01*
X328718750Y26050000D02*
X314218750Y26050000D01*
X328718750Y12050000D02*
X328718750Y26050000D01*
%TO.C,U49*%
X252306250Y64150000D02*
X252306250Y50150000D01*
X252306250Y50150000D02*
X266806250Y50150000D01*
X266806250Y64150000D02*
X252306250Y64150000D01*
X266806250Y50150000D02*
X266806250Y64150000D01*
%TO.C,U69*%
X71331250Y26050000D02*
X71331250Y12050000D01*
X71331250Y12050000D02*
X85831250Y12050000D01*
X85831250Y26050000D02*
X71331250Y26050000D01*
X85831250Y12050000D02*
X85831250Y26050000D01*
%TO.C,U68*%
X52281250Y26050000D02*
X52281250Y12050000D01*
X52281250Y12050000D02*
X66781250Y12050000D01*
X66781250Y26050000D02*
X52281250Y26050000D01*
X66781250Y12050000D02*
X66781250Y26050000D01*
%TO.C,U26*%
X123718750Y83200000D02*
X123718750Y69200000D01*
X123718750Y69200000D02*
X138218750Y69200000D01*
X138218750Y83200000D02*
X123718750Y83200000D01*
X138218750Y69200000D02*
X138218750Y83200000D01*
%TO.C,U75*%
X185631250Y26050000D02*
X185631250Y12050000D01*
X185631250Y12050000D02*
X200131250Y12050000D01*
X200131250Y26050000D02*
X185631250Y26050000D01*
X200131250Y12050000D02*
X200131250Y26050000D01*
%TO.C,U61*%
X157056250Y45100000D02*
X157056250Y31100000D01*
X157056250Y31100000D02*
X171556250Y31100000D01*
X171556250Y45100000D02*
X157056250Y45100000D01*
X171556250Y31100000D02*
X171556250Y45100000D01*
%TO.C,U21*%
X28468750Y83200000D02*
X28468750Y69200000D01*
X28468750Y69200000D02*
X42968750Y69200000D01*
X42968750Y83200000D02*
X28468750Y83200000D01*
X42968750Y69200000D02*
X42968750Y83200000D01*
%TO.C,U50*%
X276118750Y64150000D02*
X276118750Y50150000D01*
X276118750Y50150000D02*
X290618750Y50150000D01*
X290618750Y64150000D02*
X276118750Y64150000D01*
X290618750Y50150000D02*
X290618750Y64150000D01*
%TO.C,U45*%
X171343750Y64150000D02*
X171343750Y50150000D01*
X171343750Y50150000D02*
X185843750Y50150000D01*
X185843750Y64150000D02*
X171343750Y64150000D01*
X185843750Y50150000D02*
X185843750Y64150000D01*
%TO.C,U41*%
X95143750Y64150000D02*
X95143750Y50150000D01*
X95143750Y50150000D02*
X109643750Y50150000D01*
X109643750Y64150000D02*
X95143750Y64150000D01*
X109643750Y50150000D02*
X109643750Y64150000D01*
%TO.C,U53*%
X-2487500Y45100000D02*
X-2487500Y31100000D01*
X-2487500Y31100000D02*
X12012500Y31100000D01*
X12012500Y45100000D02*
X-2487500Y45100000D01*
X12012500Y31100000D02*
X12012500Y45100000D01*
%TO.C,U27*%
X142768750Y83200000D02*
X142768750Y69200000D01*
X142768750Y69200000D02*
X157268750Y69200000D01*
X157268750Y83200000D02*
X142768750Y83200000D01*
X157268750Y69200000D02*
X157268750Y83200000D01*
%TO.C,U23*%
X66568750Y83200000D02*
X66568750Y69200000D01*
X66568750Y69200000D02*
X81068750Y69200000D01*
X81068750Y83200000D02*
X66568750Y83200000D01*
X81068750Y69200000D02*
X81068750Y83200000D01*
%TO.C,U35*%
X314218750Y83200000D02*
X314218750Y69200000D01*
X314218750Y69200000D02*
X328718750Y69200000D01*
X328718750Y83200000D02*
X314218750Y83200000D01*
X328718750Y69200000D02*
X328718750Y83200000D01*
%TO.C,U87*%
X159437500Y7000000D02*
X159437500Y-7000000D01*
X159437500Y-7000000D02*
X173937500Y-7000000D01*
X173937500Y7000000D02*
X159437500Y7000000D01*
X173937500Y-7000000D02*
X173937500Y7000000D01*
%TO.C,U60*%
X138006250Y45100000D02*
X138006250Y31100000D01*
X138006250Y31100000D02*
X152506250Y31100000D01*
X152506250Y45100000D02*
X138006250Y45100000D01*
X152506250Y31100000D02*
X152506250Y45100000D01*
%TO.C,U16*%
X276118750Y102250000D02*
X276118750Y88250000D01*
X276118750Y88250000D02*
X290618750Y88250000D01*
X290618750Y102250000D02*
X276118750Y102250000D01*
X290618750Y88250000D02*
X290618750Y102250000D01*
%TO.C,U58*%
X99906250Y45100000D02*
X99906250Y31100000D01*
X99906250Y31100000D02*
X114406250Y31100000D01*
X114406250Y45100000D02*
X99906250Y45100000D01*
X114406250Y31100000D02*
X114406250Y45100000D01*
%TO.C,U46*%
X190393750Y64150000D02*
X190393750Y50150000D01*
X190393750Y50150000D02*
X204893750Y50150000D01*
X204893750Y64150000D02*
X190393750Y64150000D01*
X204893750Y50150000D02*
X204893750Y64150000D01*
%TO.C,U36*%
X-4868750Y64150000D02*
X-4868750Y50150000D01*
X-4868750Y50150000D02*
X9631250Y50150000D01*
X9631250Y64150000D02*
X-4868750Y64150000D01*
X9631250Y50150000D02*
X9631250Y64150000D01*
%TO.C,U94*%
X295168750Y7000000D02*
X295168750Y-7000000D01*
X295168750Y-7000000D02*
X309668750Y-7000000D01*
X309668750Y7000000D02*
X295168750Y7000000D01*
X309668750Y-7000000D02*
X309668750Y7000000D01*
%TO.C,U40*%
X76093750Y64150000D02*
X76093750Y50150000D01*
X76093750Y50150000D02*
X90593750Y50150000D01*
X90593750Y64150000D02*
X76093750Y64150000D01*
X90593750Y50150000D02*
X90593750Y64150000D01*
%TO.C,U3*%
X276118750Y45100000D02*
X276118750Y31100000D01*
X276118750Y31100000D02*
X290618750Y31100000D01*
X290618750Y45100000D02*
X276118750Y45100000D01*
X290618750Y31100000D02*
X290618750Y45100000D01*
%TO.C,U25*%
X104668750Y83200000D02*
X104668750Y69200000D01*
X104668750Y69200000D02*
X119168750Y69200000D01*
X119168750Y83200000D02*
X104668750Y83200000D01*
X119168750Y69200000D02*
X119168750Y83200000D01*
%TO.C,U43*%
X133243750Y64150000D02*
X133243750Y50150000D01*
X133243750Y50150000D02*
X147743750Y50150000D01*
X147743750Y64150000D02*
X133243750Y64150000D01*
X147743750Y50150000D02*
X147743750Y64150000D01*
%TO.C,U59*%
X118956250Y45100000D02*
X118956250Y31100000D01*
X118956250Y31100000D02*
X133456250Y31100000D01*
X133456250Y45100000D02*
X118956250Y45100000D01*
X133456250Y31100000D02*
X133456250Y45100000D01*
%TO.C,U57*%
X80856250Y45100000D02*
X80856250Y31100000D01*
X80856250Y31100000D02*
X95356250Y31100000D01*
X95356250Y45100000D02*
X80856250Y45100000D01*
X95356250Y31100000D02*
X95356250Y45100000D01*
%TO.C,U17*%
X295168750Y102250000D02*
X295168750Y88250000D01*
X295168750Y88250000D02*
X309668750Y88250000D01*
X309668750Y102250000D02*
X295168750Y102250000D01*
X309668750Y88250000D02*
X309668750Y102250000D01*
%TO.C,U83*%
X64187500Y7000000D02*
X64187500Y-7000000D01*
X64187500Y-7000000D02*
X78687500Y-7000000D01*
X78687500Y7000000D02*
X64187500Y7000000D01*
X78687500Y-7000000D02*
X78687500Y7000000D01*
%TO.C,U56*%
X61806250Y45100000D02*
X61806250Y31100000D01*
X61806250Y31100000D02*
X76306250Y31100000D01*
X76306250Y45100000D02*
X61806250Y45100000D01*
X76306250Y31100000D02*
X76306250Y45100000D01*
%TO.C,U20*%
X9418750Y83200000D02*
X9418750Y69200000D01*
X9418750Y69200000D02*
X23918750Y69200000D01*
X23918750Y83200000D02*
X9418750Y83200000D01*
X23918750Y69200000D02*
X23918750Y83200000D01*
%TO.C,U89*%
X183250000Y7000000D02*
X183250000Y-7000000D01*
X183250000Y-7000000D02*
X197750000Y-7000000D01*
X197750000Y7000000D02*
X183250000Y7000000D01*
X197750000Y-7000000D02*
X197750000Y7000000D01*
%TO.C,U30*%
X199918750Y83200000D02*
X199918750Y69200000D01*
X199918750Y69200000D02*
X214418750Y69200000D01*
X214418750Y83200000D02*
X199918750Y83200000D01*
X214418750Y69200000D02*
X214418750Y83200000D01*
%TO.C,U66*%
X2275000Y26050000D02*
X2275000Y12050000D01*
X2275000Y12050000D02*
X16775000Y12050000D01*
X16775000Y26050000D02*
X2275000Y26050000D01*
X16775000Y12050000D02*
X16775000Y26050000D01*
%TO.C,U85*%
X111812500Y7000000D02*
X111812500Y-7000000D01*
X111812500Y-7000000D02*
X126312500Y-7000000D01*
X126312500Y7000000D02*
X111812500Y7000000D01*
X126312500Y-7000000D02*
X126312500Y7000000D01*
%TO.C,U32*%
X247543750Y83200000D02*
X247543750Y69200000D01*
X247543750Y69200000D02*
X262043750Y69200000D01*
X262043750Y83200000D02*
X247543750Y83200000D01*
X262043750Y69200000D02*
X262043750Y83200000D01*
%TO.C,U67*%
X33231250Y26050000D02*
X33231250Y12050000D01*
X33231250Y12050000D02*
X47731250Y12050000D01*
X47731250Y26050000D02*
X33231250Y26050000D01*
X47731250Y12050000D02*
X47731250Y26050000D01*
%TO.C,U18*%
X314218750Y102250000D02*
X314218750Y88250000D01*
X314218750Y88250000D02*
X328718750Y88250000D01*
X328718750Y102250000D02*
X314218750Y102250000D01*
X328718750Y88250000D02*
X328718750Y102250000D01*
%TO.C,U84*%
X88000000Y7000000D02*
X88000000Y-7000000D01*
X88000000Y-7000000D02*
X102500000Y-7000000D01*
X102500000Y7000000D02*
X88000000Y7000000D01*
X102500000Y-7000000D02*
X102500000Y7000000D01*
%TO.C,U14*%
X238018750Y102250000D02*
X238018750Y88250000D01*
X238018750Y88250000D02*
X252518750Y88250000D01*
X252518750Y102250000D02*
X238018750Y102250000D01*
X252518750Y88250000D02*
X252518750Y102250000D01*
%TO.C,U81*%
X16562500Y7000000D02*
X16562500Y-7000000D01*
X16562500Y-7000000D02*
X31062500Y-7000000D01*
X31062500Y7000000D02*
X16562500Y7000000D01*
X31062500Y-7000000D02*
X31062500Y7000000D01*
%TO.C,U74*%
X166581250Y26050000D02*
X166581250Y12050000D01*
X166581250Y12050000D02*
X181081250Y12050000D01*
X181081250Y26050000D02*
X166581250Y26050000D01*
X181081250Y12050000D02*
X181081250Y26050000D01*
%TO.C,U88*%
X295168750Y45100000D02*
X295168750Y31100000D01*
X295168750Y31100000D02*
X309668750Y31100000D01*
X309668750Y45100000D02*
X295168750Y45100000D01*
X309668750Y31100000D02*
X309668750Y45100000D01*
%TO.C,U51*%
X295168750Y64150000D02*
X295168750Y50150000D01*
X295168750Y50150000D02*
X309668750Y50150000D01*
X309668750Y64150000D02*
X295168750Y64150000D01*
X309668750Y50150000D02*
X309668750Y64150000D01*
%TO.C,U13*%
X218968750Y102250000D02*
X218968750Y88250000D01*
X218968750Y88250000D02*
X233468750Y88250000D01*
X233468750Y102250000D02*
X218968750Y102250000D01*
X233468750Y88250000D02*
X233468750Y102250000D01*
%TO.C,U28*%
X161818750Y83200000D02*
X161818750Y69200000D01*
X161818750Y69200000D02*
X176318750Y69200000D01*
X176318750Y83200000D02*
X161818750Y83200000D01*
X176318750Y69200000D02*
X176318750Y83200000D01*
%TO.C,U10*%
X157056250Y102250000D02*
X157056250Y88250000D01*
X157056250Y88250000D02*
X171556250Y88250000D01*
X171556250Y102250000D02*
X157056250Y102250000D01*
X171556250Y88250000D02*
X171556250Y102250000D01*
%TO.C,U96*%
X314218750Y45100000D02*
X314218750Y31100000D01*
X314218750Y31100000D02*
X328718750Y31100000D01*
X328718750Y45100000D02*
X314218750Y45100000D01*
X328718750Y31100000D02*
X328718750Y45100000D01*
%TO.C,U95*%
X314218750Y7000000D02*
X314218750Y-7000000D01*
X314218750Y-7000000D02*
X328718750Y-7000000D01*
X328718750Y7000000D02*
X314218750Y7000000D01*
X328718750Y-7000000D02*
X328718750Y7000000D01*
%TO.C,U2*%
X-9631250Y102250000D02*
X-9631250Y88250000D01*
X-9631250Y88250000D02*
X4868750Y88250000D01*
X4868750Y102250000D02*
X-9631250Y102250000D01*
X4868750Y88250000D02*
X4868750Y102250000D01*
%TO.C,U54*%
X23706250Y45100000D02*
X23706250Y31100000D01*
X23706250Y31100000D02*
X38206250Y31100000D01*
X38206250Y45100000D02*
X23706250Y45100000D01*
X38206250Y31100000D02*
X38206250Y45100000D01*
%TO.C,U70*%
X90381250Y26050000D02*
X90381250Y12050000D01*
X90381250Y12050000D02*
X104881250Y12050000D01*
X104881250Y26050000D02*
X90381250Y26050000D01*
X104881250Y12050000D02*
X104881250Y26050000D01*
%TO.C,U8*%
X118956250Y102250000D02*
X118956250Y88250000D01*
X118956250Y88250000D02*
X133456250Y88250000D01*
X133456250Y102250000D02*
X118956250Y102250000D01*
X133456250Y88250000D02*
X133456250Y102250000D01*
%TO.C,U29*%
X180868750Y83200000D02*
X180868750Y69200000D01*
X180868750Y69200000D02*
X195368750Y69200000D01*
X195368750Y83200000D02*
X180868750Y83200000D01*
X195368750Y69200000D02*
X195368750Y83200000D01*
%TO.C,U52*%
X314218750Y64150000D02*
X314218750Y50150000D01*
X314218750Y50150000D02*
X328718750Y50150000D01*
X328718750Y64150000D02*
X314218750Y64150000D01*
X328718750Y50150000D02*
X328718750Y64150000D01*
%TO.C,U5*%
X57043750Y102250000D02*
X57043750Y88250000D01*
X57043750Y88250000D02*
X71543750Y88250000D01*
X71543750Y102250000D02*
X57043750Y102250000D01*
X71543750Y88250000D02*
X71543750Y102250000D01*
%TO.C,U78*%
X249925000Y26050000D02*
X249925000Y12050000D01*
X249925000Y12050000D02*
X264425000Y12050000D01*
X264425000Y26050000D02*
X249925000Y26050000D01*
X264425000Y12050000D02*
X264425000Y26050000D01*
%TO.C,U37*%
X18943750Y64150000D02*
X18943750Y50150000D01*
X18943750Y50150000D02*
X33443750Y50150000D01*
X33443750Y64150000D02*
X18943750Y64150000D01*
X33443750Y50150000D02*
X33443750Y64150000D01*
%TO.C,U97*%
X276118750Y26050000D02*
X276118750Y12050000D01*
X276118750Y12050000D02*
X290618750Y12050000D01*
X290618750Y26050000D02*
X276118750Y26050000D01*
X290618750Y12050000D02*
X290618750Y26050000D01*
%TO.C,U77*%
X223731250Y26050000D02*
X223731250Y12050000D01*
X223731250Y12050000D02*
X238231250Y12050000D01*
X238231250Y26050000D02*
X223731250Y26050000D01*
X238231250Y12050000D02*
X238231250Y26050000D01*
%TO.C,U42*%
X114193750Y64150000D02*
X114193750Y50150000D01*
X114193750Y50150000D02*
X128693750Y50150000D01*
X128693750Y64150000D02*
X114193750Y64150000D01*
X128693750Y50150000D02*
X128693750Y64150000D01*
%TO.C,U71*%
X109431250Y26050000D02*
X109431250Y12050000D01*
X109431250Y12050000D02*
X123931250Y12050000D01*
X123931250Y26050000D02*
X109431250Y26050000D01*
X123931250Y12050000D02*
X123931250Y26050000D01*
%TO.C,U47*%
X209443750Y64150000D02*
X209443750Y50150000D01*
X209443750Y50150000D02*
X223943750Y50150000D01*
X223943750Y64150000D02*
X209443750Y64150000D01*
X223943750Y50150000D02*
X223943750Y64150000D01*
%TO.C,U64*%
X215158750Y45258750D02*
X215158750Y31258750D01*
X215158750Y31258750D02*
X229658750Y31258750D01*
X229658750Y45258750D02*
X215158750Y45258750D01*
X229658750Y31258750D02*
X229658750Y45258750D01*
%TO.C,U38*%
X37993750Y64150000D02*
X37993750Y50150000D01*
X37993750Y50150000D02*
X52493750Y50150000D01*
X52493750Y64150000D02*
X37993750Y64150000D01*
X52493750Y50150000D02*
X52493750Y64150000D01*
%TO.C,U72*%
X128481250Y26050000D02*
X128481250Y12050000D01*
X128481250Y12050000D02*
X142981250Y12050000D01*
X142981250Y26050000D02*
X128481250Y26050000D01*
X142981250Y12050000D02*
X142981250Y26050000D01*
%TO.C,U9*%
X138006250Y102250000D02*
X138006250Y88250000D01*
X138006250Y88250000D02*
X152506250Y88250000D01*
X152506250Y102250000D02*
X138006250Y102250000D01*
X152506250Y88250000D02*
X152506250Y102250000D01*
%TO.C,U62*%
X176106250Y45100000D02*
X176106250Y31100000D01*
X176106250Y31100000D02*
X190606250Y31100000D01*
X190606250Y45100000D02*
X176106250Y45100000D01*
X190606250Y31100000D02*
X190606250Y45100000D01*
%TO.C,U93*%
X276118750Y7000000D02*
X276118750Y-7000000D01*
X276118750Y-7000000D02*
X290618750Y-7000000D01*
X290618750Y7000000D02*
X276118750Y7000000D01*
X290618750Y-7000000D02*
X290618750Y7000000D01*
%TO.C,U73*%
X147531250Y26050000D02*
X147531250Y12050000D01*
X147531250Y12050000D02*
X162031250Y12050000D01*
X162031250Y26050000D02*
X147531250Y26050000D01*
X162031250Y12050000D02*
X162031250Y26050000D01*
%TD*%
M02*
