M48
; DRILL file {KiCad 7.0.3} date Sat 13 May 2023 11:02:37 PM CEST
; FORMAT={-:-/ absolute / metric / decimal}
; #@! TF.CreationDate,2023-05-13T23:02:37+02:00
; #@! TF.GenerationSoftware,Kicad,Pcbnew,7.0.3
; #@! TF.FileFunction,NonPlated,1,2,NPTH
FMAT,2
METRIC
; #@! TA.AperFunction,NonPlated,NPTH,ComponentDrill
T1C2.200
; #@! TA.AperFunction,NonPlated,NPTH,ComponentDrill
T2C3.048
; #@! TA.AperFunction,NonPlated,NPTH,ComponentDrill
T3C3.988
%
G90
G05
T1
X-7.5Y106.5
X12.7Y-3.0
X14.287Y54.769
X78.581Y34.528
X130.81Y-3.0
X140.494Y72.628
X271.462Y53.578
X273.05Y-3.0
X327.66Y106.5
T2
X-2.375Y26.035
X21.425Y26.035
X240.512Y45.085
X242.894Y83.185
X264.312Y45.085
X266.694Y83.185
T3
X-2.375Y10.795
X21.425Y10.795
X240.512Y29.845
X242.894Y67.945
X264.312Y29.845
X266.694Y67.945
T0
M30
