M48
; DRILL file {KiCad 7.0.3} date Sat 13 May 2023 11:02:37 PM CEST
; FORMAT={-:-/ absolute / metric / decimal}
; #@! TF.CreationDate,2023-05-13T23:02:37+02:00
; #@! TF.GenerationSoftware,Kicad,Pcbnew,7.0.3
; #@! TF.FileFunction,Plated,1,2,PTH
FMAT,2
METRIC
; #@! TA.AperFunction,Plated,PTH,ComponentDrill
T1C0.300
; #@! TA.AperFunction,Plated,PTH,ViaDrill
T2C0.400
; #@! TA.AperFunction,Plated,PTH,ComponentDrill
T3C0.500
; #@! TA.AperFunction,Plated,PTH,ComponentDrill
T4C1.000
%
G90
G05
T1
X-10.081Y98.4
X-10.081Y96.7
X-10.081Y95.0
X-10.081Y79.35
X-10.081Y77.65
X-10.081Y75.95
X-7.7Y3.15
X-7.7Y1.45
X-7.7Y-0.25
X-5.319Y60.3
X-5.319Y58.6
X-5.319Y56.9
X-4.081Y102.75
X-4.081Y87.75
X-4.081Y83.7
X-4.081Y68.7
X-2.938Y41.25
X-2.938Y39.55
X-2.938Y37.85
X-2.381Y102.75
X-2.381Y87.75
X-2.381Y83.7
X-2.381Y68.7
X-1.7Y7.5
X-1.7Y-7.5
X-0.681Y102.75
X-0.681Y87.75
X-0.681Y83.7
X-0.681Y68.7
X0.0Y7.5
X0.0Y-7.5
X0.681Y64.65
X0.681Y49.65
X1.7Y7.5
X1.7Y-7.5
X1.825Y22.2
X1.825Y20.5
X1.825Y18.8
X2.381Y64.65
X2.381Y49.65
X3.062Y45.6
X3.062Y30.6
X4.081Y64.65
X4.081Y49.65
X4.763Y45.6
X4.763Y30.6
X5.319Y98.4
X5.319Y96.7
X5.319Y95.0
X5.319Y79.35
X5.319Y77.65
X5.319Y75.95
X6.462Y45.6
X6.462Y30.6
X7.7Y3.15
X7.7Y1.45
X7.7Y-0.25
X7.825Y26.55
X7.825Y11.55
X8.969Y79.35
X8.969Y77.65
X8.969Y75.95
X9.525Y26.55
X9.525Y11.55
X10.081Y60.3
X10.081Y58.6
X10.081Y56.9
X11.225Y26.55
X11.225Y11.55
X12.462Y41.25
X12.462Y39.55
X12.462Y37.85
X14.969Y83.7
X14.969Y68.7
X16.113Y3.15
X16.113Y1.45
X16.113Y-0.25
X16.669Y83.7
X16.669Y68.7
X17.225Y22.2
X17.225Y20.5
X17.225Y18.8
X18.369Y83.7
X18.369Y68.7
X18.494Y60.3
X18.494Y58.6
X18.494Y56.9
X22.113Y7.5
X22.113Y-7.5
X23.256Y41.25
X23.256Y39.55
X23.256Y37.85
X23.812Y7.5
X23.812Y-7.5
X24.369Y79.35
X24.369Y77.65
X24.369Y75.95
X24.494Y64.65
X24.494Y49.65
X25.512Y7.5
X25.512Y-7.5
X26.194Y64.65
X26.194Y49.65
X27.894Y64.65
X27.894Y49.65
X28.019Y79.35
X28.019Y77.65
X28.019Y75.95
X29.256Y45.6
X29.256Y30.6
X30.956Y45.6
X30.956Y30.6
X31.512Y3.15
X31.512Y1.45
X31.512Y-0.25
X32.656Y45.6
X32.656Y30.6
X32.781Y22.2
X32.781Y20.5
X32.781Y18.8
X33.894Y60.3
X33.894Y58.6
X33.894Y56.9
X34.019Y83.7
X34.019Y68.7
X35.719Y83.7
X35.719Y68.7
X37.419Y83.7
X37.419Y68.7
X37.544Y98.4
X37.544Y96.7
X37.544Y95.0
X37.544Y60.3
X37.544Y58.6
X37.544Y56.9
X38.656Y41.25
X38.656Y39.55
X38.656Y37.85
X38.781Y26.55
X38.781Y11.55
X39.925Y3.15
X39.925Y1.45
X39.925Y-0.25
X40.481Y26.55
X40.481Y11.55
X42.181Y26.55
X42.181Y11.55
X42.306Y41.25
X42.306Y39.55
X42.306Y37.85
X43.419Y79.35
X43.419Y77.65
X43.419Y75.95
X43.544Y102.75
X43.544Y87.75
X43.544Y64.65
X43.544Y49.65
X45.244Y102.75
X45.244Y87.75
X45.244Y64.65
X45.244Y49.65
X45.925Y7.5
X45.925Y-7.5
X46.944Y102.75
X46.944Y87.75
X46.944Y64.65
X46.944Y49.65
X47.069Y79.35
X47.069Y77.65
X47.069Y75.95
X47.625Y7.5
X47.625Y-7.5
X48.181Y22.2
X48.181Y20.5
X48.181Y18.8
X48.306Y45.6
X48.306Y30.6
X49.325Y7.5
X49.325Y-7.5
X50.006Y45.6
X50.006Y30.6
X51.706Y45.6
X51.706Y30.6
X51.831Y22.2
X51.831Y20.5
X51.831Y18.8
X52.944Y98.4
X52.944Y96.7
X52.944Y95.0
X52.944Y60.3
X52.944Y58.6
X52.944Y56.9
X53.069Y83.7
X53.069Y68.7
X54.769Y83.7
X54.769Y68.7
X55.325Y3.15
X55.325Y1.45
X55.325Y-0.25
X56.469Y83.7
X56.469Y68.7
X56.594Y98.4
X56.594Y96.7
X56.594Y95.0
X56.594Y60.3
X56.594Y58.6
X56.594Y56.9
X57.706Y41.25
X57.706Y39.55
X57.706Y37.85
X57.831Y26.55
X57.831Y11.55
X59.531Y26.55
X59.531Y11.55
X61.231Y26.55
X61.231Y11.55
X61.356Y41.25
X61.356Y39.55
X61.356Y37.85
X62.469Y79.35
X62.469Y77.65
X62.469Y75.95
X62.594Y102.75
X62.594Y87.75
X62.594Y64.65
X62.594Y49.65
X63.737Y3.15
X63.737Y1.45
X63.737Y-0.25
X64.294Y102.75
X64.294Y87.75
X64.294Y64.65
X64.294Y49.65
X65.994Y102.75
X65.994Y87.75
X65.994Y64.65
X65.994Y49.65
X66.119Y79.35
X66.119Y77.65
X66.119Y75.95
X67.231Y22.2
X67.231Y20.5
X67.231Y18.8
X67.356Y45.6
X67.356Y30.6
X69.056Y45.6
X69.056Y30.6
X69.737Y7.5
X69.737Y-7.5
X70.756Y45.6
X70.756Y30.6
X70.881Y22.2
X70.881Y20.5
X70.881Y18.8
X71.438Y7.5
X71.438Y-7.5
X71.994Y98.4
X71.994Y96.7
X71.994Y95.0
X71.994Y60.3
X71.994Y58.6
X71.994Y56.9
X72.119Y83.7
X72.119Y68.7
X73.138Y7.5
X73.138Y-7.5
X73.819Y83.7
X73.819Y68.7
X75.519Y83.7
X75.519Y68.7
X75.644Y98.4
X75.644Y96.7
X75.644Y95.0
X75.644Y60.3
X75.644Y58.6
X75.644Y56.9
X76.756Y41.25
X76.756Y39.55
X76.756Y37.85
X76.881Y26.55
X76.881Y11.55
X78.581Y26.55
X78.581Y11.55
X79.138Y3.15
X79.138Y1.45
X79.138Y-0.25
X80.281Y26.55
X80.281Y11.55
X80.406Y41.25
X80.406Y39.55
X80.406Y37.85
X81.519Y79.35
X81.519Y77.65
X81.519Y75.95
X81.644Y102.75
X81.644Y87.75
X81.644Y64.65
X81.644Y49.65
X83.344Y102.75
X83.344Y87.75
X83.344Y64.65
X83.344Y49.65
X85.044Y102.75
X85.044Y87.75
X85.044Y64.65
X85.044Y49.65
X85.169Y79.35
X85.169Y77.65
X85.169Y75.95
X86.281Y22.2
X86.281Y20.5
X86.281Y18.8
X86.406Y45.6
X86.406Y30.6
X87.55Y3.15
X87.55Y1.45
X87.55Y-0.25
X88.106Y45.6
X88.106Y30.6
X89.806Y45.6
X89.806Y30.6
X89.931Y22.2
X89.931Y20.5
X89.931Y18.8
X91.044Y98.4
X91.044Y96.7
X91.044Y95.0
X91.044Y60.3
X91.044Y58.6
X91.044Y56.9
X91.169Y83.7
X91.169Y68.7
X92.869Y83.7
X92.869Y68.7
X93.55Y7.5
X93.55Y-7.5
X94.569Y83.7
X94.569Y68.7
X94.694Y98.4
X94.694Y96.7
X94.694Y95.0
X94.694Y60.3
X94.694Y58.6
X94.694Y56.9
X95.25Y7.5
X95.25Y-7.5
X95.806Y41.25
X95.806Y39.55
X95.806Y37.85
X95.931Y26.55
X95.931Y11.55
X96.95Y7.5
X96.95Y-7.5
X97.631Y26.55
X97.631Y11.55
X99.331Y26.55
X99.331Y11.55
X99.456Y41.25
X99.456Y39.55
X99.456Y37.85
X100.569Y79.35
X100.569Y77.65
X100.569Y75.95
X100.694Y102.75
X100.694Y87.75
X100.694Y64.65
X100.694Y49.65
X102.394Y102.75
X102.394Y87.75
X102.394Y64.65
X102.394Y49.65
X102.95Y3.15
X102.95Y1.45
X102.95Y-0.25
X104.094Y102.75
X104.094Y87.75
X104.094Y64.65
X104.094Y49.65
X104.219Y79.35
X104.219Y77.65
X104.219Y75.95
X105.331Y22.2
X105.331Y20.5
X105.331Y18.8
X105.456Y45.6
X105.456Y30.6
X107.156Y45.6
X107.156Y30.6
X108.856Y45.6
X108.856Y30.6
X108.981Y22.2
X108.981Y20.5
X108.981Y18.8
X110.094Y98.4
X110.094Y96.7
X110.094Y95.0
X110.094Y60.3
X110.094Y58.6
X110.094Y56.9
X110.219Y83.7
X110.219Y68.7
X111.362Y3.15
X111.362Y1.45
X111.362Y-0.25
X111.919Y83.7
X111.919Y68.7
X113.619Y83.7
X113.619Y68.7
X113.744Y60.3
X113.744Y58.6
X113.744Y56.9
X114.856Y41.25
X114.856Y39.55
X114.856Y37.85
X114.981Y26.55
X114.981Y11.55
X116.681Y26.55
X116.681Y11.55
X117.362Y7.5
X117.362Y-7.5
X118.381Y26.55
X118.381Y11.55
X118.506Y98.4
X118.506Y96.7
X118.506Y95.0
X118.506Y41.25
X118.506Y39.55
X118.506Y37.85
X119.062Y7.5
X119.062Y-7.5
X119.619Y79.35
X119.619Y77.65
X119.619Y75.95
X119.744Y64.65
X119.744Y49.65
X120.762Y7.5
X120.762Y-7.5
X121.444Y64.65
X121.444Y49.65
X123.144Y64.65
X123.144Y49.65
X123.269Y79.35
X123.269Y77.65
X123.269Y75.95
X124.381Y22.2
X124.381Y20.5
X124.381Y18.8
X124.506Y102.75
X124.506Y87.75
X124.506Y45.6
X124.506Y30.6
X126.206Y102.75
X126.206Y87.75
X126.206Y45.6
X126.206Y30.6
X126.762Y3.15
X126.762Y1.45
X126.762Y-0.25
X127.906Y102.75
X127.906Y87.75
X127.906Y45.6
X127.906Y30.6
X128.031Y22.2
X128.031Y20.5
X128.031Y18.8
X129.144Y60.3
X129.144Y58.6
X129.144Y56.9
X129.269Y83.7
X129.269Y68.7
X130.969Y83.7
X130.969Y68.7
X132.669Y83.7
X132.669Y68.7
X132.794Y60.3
X132.794Y58.6
X132.794Y56.9
X133.906Y98.4
X133.906Y96.7
X133.906Y95.0
X133.906Y41.25
X133.906Y39.55
X133.906Y37.85
X134.031Y26.55
X134.031Y11.55
X135.175Y3.15
X135.175Y1.45
X135.175Y-0.25
X135.731Y26.55
X135.731Y11.55
X137.431Y26.55
X137.431Y11.55
X137.556Y98.4
X137.556Y96.7
X137.556Y95.0
X137.556Y41.25
X137.556Y39.55
X137.556Y37.85
X138.669Y79.35
X138.669Y77.65
X138.669Y75.95
X138.794Y64.65
X138.794Y49.65
X140.494Y64.65
X140.494Y49.65
X141.175Y7.5
X141.175Y-7.5
X142.194Y64.65
X142.194Y49.65
X142.319Y79.35
X142.319Y77.65
X142.319Y75.95
X142.875Y7.5
X142.875Y-7.5
X143.431Y22.2
X143.431Y20.5
X143.431Y18.8
X143.556Y102.75
X143.556Y87.75
X143.556Y45.6
X143.556Y30.6
X144.575Y7.5
X144.575Y-7.5
X145.256Y102.75
X145.256Y87.75
X145.256Y45.6
X145.256Y30.6
X146.956Y102.75
X146.956Y87.75
X146.956Y45.6
X146.956Y30.6
X147.081Y22.2
X147.081Y20.5
X147.081Y18.8
X148.194Y60.3
X148.194Y58.6
X148.194Y56.9
X148.319Y83.7
X148.319Y68.7
X150.019Y83.7
X150.019Y68.7
X150.575Y3.15
X150.575Y1.45
X150.575Y-0.25
X151.719Y83.7
X151.719Y68.7
X151.844Y60.3
X151.844Y58.6
X151.844Y56.9
X152.956Y98.4
X152.956Y96.7
X152.956Y95.0
X152.956Y41.25
X152.956Y39.55
X152.956Y37.85
X153.081Y26.55
X153.081Y11.55
X154.781Y26.55
X154.781Y11.55
X156.481Y26.55
X156.481Y11.55
X156.606Y98.4
X156.606Y96.7
X156.606Y95.0
X156.606Y41.25
X156.606Y39.55
X156.606Y37.85
X157.719Y79.35
X157.719Y77.65
X157.719Y75.95
X157.844Y64.65
X157.844Y49.65
X158.987Y3.15
X158.987Y1.45
X158.987Y-0.25
X159.544Y64.65
X159.544Y49.65
X161.244Y64.65
X161.244Y49.65
X161.369Y79.35
X161.369Y77.65
X161.369Y75.95
X162.481Y22.2
X162.481Y20.5
X162.481Y18.8
X162.606Y102.75
X162.606Y87.75
X162.606Y45.6
X162.606Y30.6
X164.306Y102.75
X164.306Y87.75
X164.306Y45.6
X164.306Y30.6
X164.987Y7.5
X164.987Y-7.5
X166.006Y102.75
X166.006Y87.75
X166.006Y45.6
X166.006Y30.6
X166.131Y22.2
X166.131Y20.5
X166.131Y18.8
X166.688Y7.5
X166.688Y-7.5
X167.244Y60.3
X167.244Y58.6
X167.244Y56.9
X167.369Y83.7
X167.369Y68.7
X168.387Y7.5
X168.387Y-7.5
X169.069Y83.7
X169.069Y68.7
X170.769Y83.7
X170.769Y68.7
X170.894Y60.3
X170.894Y58.6
X170.894Y56.9
X172.006Y98.4
X172.006Y96.7
X172.006Y95.0
X172.006Y41.25
X172.006Y39.55
X172.006Y37.85
X172.131Y26.55
X172.131Y11.55
X173.831Y26.55
X173.831Y11.55
X174.387Y3.15
X174.387Y1.45
X174.387Y-0.25
X175.531Y26.55
X175.531Y11.55
X175.656Y98.4
X175.656Y96.7
X175.656Y95.0
X175.656Y41.25
X175.656Y39.55
X175.656Y37.85
X176.769Y79.35
X176.769Y77.65
X176.769Y75.95
X176.894Y64.65
X176.894Y49.65
X178.594Y64.65
X178.594Y49.65
X180.294Y64.65
X180.294Y49.65
X180.419Y79.35
X180.419Y77.65
X180.419Y75.95
X181.531Y22.2
X181.531Y20.5
X181.531Y18.8
X181.656Y102.75
X181.656Y87.75
X181.656Y45.6
X181.656Y30.6
X182.8Y3.15
X182.8Y1.45
X182.8Y-0.25
X183.356Y102.75
X183.356Y87.75
X183.356Y45.6
X183.356Y30.6
X185.056Y102.75
X185.056Y87.75
X185.056Y45.6
X185.056Y30.6
X185.181Y22.2
X185.181Y20.5
X185.181Y18.8
X186.294Y60.3
X186.294Y58.6
X186.294Y56.9
X186.419Y83.7
X186.419Y68.7
X188.119Y83.7
X188.119Y68.7
X188.8Y7.5
X188.8Y-7.5
X189.819Y83.7
X189.819Y68.7
X189.944Y60.3
X189.944Y58.6
X189.944Y56.9
X190.5Y7.5
X190.5Y-7.5
X191.056Y98.4
X191.056Y96.7
X191.056Y95.0
X191.056Y41.25
X191.056Y39.55
X191.056Y37.85
X191.181Y26.55
X191.181Y11.55
X192.2Y7.5
X192.2Y-7.5
X192.881Y26.55
X192.881Y11.55
X194.581Y26.55
X194.581Y11.55
X194.706Y41.25
X194.706Y39.55
X194.706Y37.85
X195.819Y79.35
X195.819Y77.65
X195.819Y75.95
X195.944Y64.65
X195.944Y49.65
X197.644Y64.65
X197.644Y49.65
X198.2Y3.15
X198.2Y1.45
X198.2Y-0.25
X199.344Y64.65
X199.344Y49.65
X199.469Y98.4
X199.469Y96.7
X199.469Y95.0
X199.469Y79.35
X199.469Y77.65
X199.469Y75.95
X200.581Y22.2
X200.581Y20.5
X200.581Y18.8
X200.706Y45.6
X200.706Y30.6
X202.406Y45.6
X202.406Y30.6
X204.106Y45.6
X204.106Y30.6
X204.231Y22.2
X204.231Y20.5
X204.231Y18.8
X205.344Y60.3
X205.344Y58.6
X205.344Y56.9
X205.469Y102.75
X205.469Y87.75
X205.469Y83.7
X205.469Y68.7
X206.612Y3.15
X206.612Y1.45
X206.612Y-0.25
X207.169Y102.75
X207.169Y87.75
X207.169Y83.7
X207.169Y68.7
X208.869Y102.75
X208.869Y87.75
X208.869Y83.7
X208.869Y68.7
X208.994Y60.3
X208.994Y58.6
X208.994Y56.9
X210.106Y41.25
X210.106Y39.55
X210.106Y37.85
X210.231Y26.55
X210.231Y11.55
X211.931Y26.55
X211.931Y11.55
X212.612Y7.5
X212.612Y-7.5
X213.631Y26.55
X213.631Y11.55
X214.312Y7.5
X214.312Y-7.5
X214.709Y41.409
X214.709Y39.709
X214.709Y38.009
X214.869Y98.4
X214.869Y96.7
X214.869Y95.0
X214.869Y79.35
X214.869Y77.65
X214.869Y75.95
X214.994Y64.65
X214.994Y49.65
X216.012Y7.5
X216.012Y-7.5
X216.694Y64.65
X216.694Y49.65
X218.394Y64.65
X218.394Y49.65
X218.519Y98.4
X218.519Y96.7
X218.519Y95.0
X218.519Y79.35
X218.519Y77.65
X218.519Y75.95
X219.631Y22.2
X219.631Y20.5
X219.631Y18.8
X220.709Y45.759
X220.709Y30.759
X222.012Y3.15
X222.012Y1.45
X222.012Y-0.25
X222.409Y45.759
X222.409Y30.759
X223.281Y22.2
X223.281Y20.5
X223.281Y18.8
X224.109Y45.759
X224.109Y30.759
X224.394Y60.3
X224.394Y58.6
X224.394Y56.9
X224.519Y102.75
X224.519Y87.75
X224.519Y83.7
X224.519Y68.7
X226.219Y102.75
X226.219Y87.75
X226.219Y83.7
X226.219Y68.7
X227.919Y102.75
X227.919Y87.75
X227.919Y83.7
X227.919Y68.7
X228.044Y60.3
X228.044Y58.6
X228.044Y56.9
X229.281Y26.55
X229.281Y11.55
X230.109Y41.409
X230.109Y39.709
X230.109Y38.009
X230.425Y3.15
X230.425Y1.45
X230.425Y-0.25
X230.981Y26.55
X230.981Y11.55
X232.681Y26.55
X232.681Y11.55
X233.919Y98.4
X233.919Y96.7
X233.919Y95.0
X233.919Y79.35
X233.919Y77.65
X233.919Y75.95
X234.044Y64.65
X234.044Y49.65
X235.744Y64.65
X235.744Y49.65
X236.425Y7.5
X236.425Y-7.5
X237.444Y64.65
X237.444Y49.65
X237.569Y98.4
X237.569Y96.7
X237.569Y95.0
X238.125Y7.5
X238.125Y-7.5
X238.681Y22.2
X238.681Y20.5
X238.681Y18.8
X239.825Y7.5
X239.825Y-7.5
X243.444Y60.3
X243.444Y58.6
X243.444Y56.9
X243.569Y102.75
X243.569Y87.75
X244.712Y41.25
X244.712Y39.55
X244.712Y37.85
X245.269Y102.75
X245.269Y87.75
X245.825Y3.15
X245.825Y1.45
X245.825Y-0.25
X246.969Y102.75
X246.969Y87.75
X247.094Y79.35
X247.094Y77.65
X247.094Y75.95
X249.475Y22.2
X249.475Y20.5
X249.475Y18.8
X250.712Y45.6
X250.712Y30.6
X251.856Y60.3
X251.856Y58.6
X251.856Y56.9
X252.412Y45.6
X252.412Y30.6
X252.969Y98.4
X252.969Y96.7
X252.969Y95.0
X253.094Y83.7
X253.094Y68.7
X254.112Y45.6
X254.112Y30.6
X254.237Y3.15
X254.237Y1.45
X254.237Y-0.25
X254.794Y83.7
X254.794Y68.7
X255.475Y26.55
X255.475Y11.55
X256.494Y83.7
X256.494Y68.7
X256.619Y98.4
X256.619Y96.7
X256.619Y95.0
X257.175Y26.55
X257.175Y11.55
X257.856Y64.65
X257.856Y49.65
X258.875Y26.55
X258.875Y11.55
X259.556Y64.65
X259.556Y49.65
X260.113Y41.25
X260.113Y39.55
X260.113Y37.85
X260.238Y7.5
X260.238Y-7.5
X261.256Y64.65
X261.256Y49.65
X261.938Y7.5
X261.938Y-7.5
X262.494Y79.35
X262.494Y77.65
X262.494Y75.95
X262.619Y102.75
X262.619Y87.75
X263.637Y7.5
X263.637Y-7.5
X264.319Y102.75
X264.319Y87.75
X264.875Y22.2
X264.875Y20.5
X264.875Y18.8
X266.019Y102.75
X266.019Y87.75
X267.256Y60.3
X267.256Y58.6
X267.256Y56.9
X269.637Y3.15
X269.637Y1.45
X269.637Y-0.25
X272.019Y98.4
X272.019Y96.7
X272.019Y95.0
X275.669Y98.4
X275.669Y96.7
X275.669Y95.0
X275.669Y79.35
X275.669Y77.65
X275.669Y75.95
X275.669Y60.3
X275.669Y58.6
X275.669Y56.9
X275.669Y41.25
X275.669Y39.55
X275.669Y37.85
X275.669Y22.2
X275.669Y20.5
X275.669Y18.8
X275.669Y3.15
X275.669Y1.45
X275.669Y-0.25
X281.669Y102.75
X281.669Y87.75
X281.669Y83.7
X281.669Y68.7
X281.669Y64.65
X281.669Y49.65
X281.669Y45.6
X281.669Y30.6
X281.669Y26.55
X281.669Y11.55
X281.669Y7.5
X281.669Y-7.5
X283.369Y102.75
X283.369Y87.75
X283.369Y83.7
X283.369Y68.7
X283.369Y64.65
X283.369Y49.65
X283.369Y45.6
X283.369Y30.6
X283.369Y26.55
X283.369Y11.55
X283.369Y7.5
X283.369Y-7.5
X285.069Y102.75
X285.069Y87.75
X285.069Y83.7
X285.069Y68.7
X285.069Y64.65
X285.069Y49.65
X285.069Y45.6
X285.069Y30.6
X285.069Y26.55
X285.069Y11.55
X285.069Y7.5
X285.069Y-7.5
X291.069Y98.4
X291.069Y96.7
X291.069Y95.0
X291.069Y79.35
X291.069Y77.65
X291.069Y75.95
X291.069Y60.3
X291.069Y58.6
X291.069Y56.9
X291.069Y41.25
X291.069Y39.55
X291.069Y37.85
X291.069Y22.2
X291.069Y20.5
X291.069Y18.8
X291.069Y3.15
X291.069Y1.45
X291.069Y-0.25
X294.719Y98.4
X294.719Y96.7
X294.719Y95.0
X294.719Y79.35
X294.719Y77.65
X294.719Y75.95
X294.719Y60.3
X294.719Y58.6
X294.719Y56.9
X294.719Y41.25
X294.719Y39.55
X294.719Y37.85
X294.719Y22.2
X294.719Y20.5
X294.719Y18.8
X294.719Y3.15
X294.719Y1.45
X294.719Y-0.25
X300.719Y102.75
X300.719Y87.75
X300.719Y83.7
X300.719Y68.7
X300.719Y64.65
X300.719Y49.65
X300.719Y45.6
X300.719Y30.6
X300.719Y26.55
X300.719Y11.55
X300.719Y7.5
X300.719Y-7.5
X302.419Y102.75
X302.419Y87.75
X302.419Y83.7
X302.419Y68.7
X302.419Y64.65
X302.419Y49.65
X302.419Y45.6
X302.419Y30.6
X302.419Y26.55
X302.419Y11.55
X302.419Y7.5
X302.419Y-7.5
X304.119Y102.75
X304.119Y87.75
X304.119Y83.7
X304.119Y68.7
X304.119Y64.65
X304.119Y49.65
X304.119Y45.6
X304.119Y30.6
X304.119Y26.55
X304.119Y11.55
X304.119Y7.5
X304.119Y-7.5
X310.119Y98.4
X310.119Y96.7
X310.119Y95.0
X310.119Y79.35
X310.119Y77.65
X310.119Y75.95
X310.119Y60.3
X310.119Y58.6
X310.119Y56.9
X310.119Y41.25
X310.119Y39.55
X310.119Y37.85
X310.119Y22.2
X310.119Y20.5
X310.119Y18.8
X310.119Y3.15
X310.119Y1.45
X310.119Y-0.25
X313.769Y98.4
X313.769Y96.7
X313.769Y95.0
X313.769Y79.35
X313.769Y77.65
X313.769Y75.95
X313.769Y60.3
X313.769Y58.6
X313.769Y56.9
X313.769Y41.25
X313.769Y39.55
X313.769Y37.85
X313.769Y22.2
X313.769Y20.5
X313.769Y18.8
X313.769Y3.15
X313.769Y1.45
X313.769Y-0.25
X319.769Y102.75
X319.769Y87.75
X319.769Y83.7
X319.769Y68.7
X319.769Y64.65
X319.769Y49.65
X319.769Y45.6
X319.769Y30.6
X319.769Y26.55
X319.769Y11.55
X319.769Y7.5
X319.769Y-7.5
X321.469Y102.75
X321.469Y87.75
X321.469Y83.7
X321.469Y68.7
X321.469Y64.65
X321.469Y49.65
X321.469Y45.6
X321.469Y30.6
X321.469Y26.55
X321.469Y11.55
X321.469Y7.5
X321.469Y-7.5
X323.169Y102.75
X323.169Y87.75
X323.169Y83.7
X323.169Y68.7
X323.169Y64.65
X323.169Y49.65
X323.169Y45.6
X323.169Y30.6
X323.169Y26.55
X323.169Y11.55
X323.169Y7.5
X323.169Y-7.5
X329.169Y98.4
X329.169Y96.7
X329.169Y95.0
X329.169Y79.35
X329.169Y77.65
X329.169Y75.95
X329.169Y60.3
X329.169Y58.6
X329.169Y56.9
X329.169Y41.25
X329.169Y39.55
X329.169Y37.85
X329.169Y22.2
X329.169Y20.5
X329.169Y18.8
X329.169Y3.15
X329.169Y1.45
X329.169Y-0.25
T2
X-6.096Y47.498
X-2.794Y47.752
X7.112Y82.804
X14.732Y48.26
X25.146Y66.548
X44.704Y82.804
X55.372Y49.022
X55.63Y47.46
T3
X-9.881Y102.75
X-9.881Y87.75
X-9.881Y83.7
X-9.881Y68.7
X-7.5Y7.5
X-7.5Y-7.5
X-5.119Y64.65
X-5.119Y49.65
X-2.737Y45.6
X-2.737Y30.6
X2.025Y26.55
X2.025Y11.55
X5.119Y102.75
X5.119Y87.75
X5.119Y83.7
X5.119Y68.7
X7.5Y7.5
X7.5Y-7.5
X9.169Y83.7
X9.169Y68.7
X9.881Y64.65
X9.881Y49.65
X12.262Y45.6
X12.262Y30.6
X16.312Y7.5
X16.312Y-7.5
X17.025Y26.55
X17.025Y11.55
X18.694Y64.65
X18.694Y49.65
X23.456Y45.6
X23.456Y30.6
X24.169Y83.7
X24.169Y68.7
X28.219Y83.7
X28.219Y68.7
X31.312Y7.5
X31.312Y-7.5
X32.981Y26.55
X32.981Y11.55
X33.694Y64.65
X33.694Y49.65
X37.744Y102.75
X37.744Y87.75
X37.744Y64.65
X37.744Y49.65
X38.456Y45.6
X38.456Y30.6
X40.125Y7.5
X40.125Y-7.5
X42.506Y45.6
X42.506Y30.6
X43.219Y83.7
X43.219Y68.7
X47.269Y83.7
X47.269Y68.7
X47.981Y26.55
X47.981Y11.55
X52.031Y26.55
X52.031Y11.55
X52.744Y102.75
X52.744Y87.75
X52.744Y64.65
X52.744Y49.65
X55.125Y7.5
X55.125Y-7.5
X56.794Y102.75
X56.794Y87.75
X56.794Y64.65
X56.794Y49.65
X57.506Y45.6
X57.506Y30.6
X61.556Y45.6
X61.556Y30.6
X62.269Y83.7
X62.269Y68.7
X63.938Y7.5
X63.938Y-7.5
X66.319Y83.7
X66.319Y68.7
X67.031Y26.55
X67.031Y11.55
X71.081Y26.55
X71.081Y11.55
X71.794Y102.75
X71.794Y87.75
X71.794Y64.65
X71.794Y49.65
X75.844Y102.75
X75.844Y87.75
X75.844Y64.65
X75.844Y49.65
X76.556Y45.6
X76.556Y30.6
X78.938Y7.5
X78.938Y-7.5
X80.606Y45.6
X80.606Y30.6
X81.319Y83.7
X81.319Y68.7
X85.369Y83.7
X85.369Y68.7
X86.081Y26.55
X86.081Y11.55
X87.75Y7.5
X87.75Y-7.5
X90.131Y26.55
X90.131Y11.55
X90.844Y102.75
X90.844Y87.75
X90.844Y64.65
X90.844Y49.65
X94.894Y102.75
X94.894Y87.75
X94.894Y64.65
X94.894Y49.65
X95.606Y45.6
X95.606Y30.6
X99.656Y45.6
X99.656Y30.6
X100.369Y83.7
X100.369Y68.7
X102.75Y7.5
X102.75Y-7.5
X104.419Y83.7
X104.419Y68.7
X105.131Y26.55
X105.131Y11.55
X109.181Y26.55
X109.181Y11.55
X109.894Y102.75
X109.894Y87.75
X109.894Y64.65
X109.894Y49.65
X111.562Y7.5
X111.562Y-7.5
X113.944Y64.65
X113.944Y49.65
X114.656Y45.6
X114.656Y30.6
X118.706Y102.75
X118.706Y87.75
X118.706Y45.6
X118.706Y30.6
X119.419Y83.7
X119.419Y68.7
X123.469Y83.7
X123.469Y68.7
X124.181Y26.55
X124.181Y11.55
X126.562Y7.5
X126.562Y-7.5
X128.231Y26.55
X128.231Y11.55
X128.944Y64.65
X128.944Y49.65
X132.994Y64.65
X132.994Y49.65
X133.706Y102.75
X133.706Y87.75
X133.706Y45.6
X133.706Y30.6
X135.375Y7.5
X135.375Y-7.5
X137.756Y102.75
X137.756Y87.75
X137.756Y45.6
X137.756Y30.6
X138.469Y83.7
X138.469Y68.7
X142.519Y83.7
X142.519Y68.7
X143.231Y26.55
X143.231Y11.55
X147.281Y26.55
X147.281Y11.55
X147.994Y64.65
X147.994Y49.65
X150.375Y7.5
X150.375Y-7.5
X152.044Y64.65
X152.044Y49.65
X152.756Y102.75
X152.756Y87.75
X152.756Y45.6
X152.756Y30.6
X156.806Y102.75
X156.806Y87.75
X156.806Y45.6
X156.806Y30.6
X157.519Y83.7
X157.519Y68.7
X159.188Y7.5
X159.188Y-7.5
X161.569Y83.7
X161.569Y68.7
X162.281Y26.55
X162.281Y11.55
X166.331Y26.55
X166.331Y11.55
X167.044Y64.65
X167.044Y49.65
X171.094Y64.65
X171.094Y49.65
X171.806Y102.75
X171.806Y87.75
X171.806Y45.6
X171.806Y30.6
X174.188Y7.5
X174.188Y-7.5
X175.856Y102.75
X175.856Y87.75
X175.856Y45.6
X175.856Y30.6
X176.569Y83.7
X176.569Y68.7
X180.619Y83.7
X180.619Y68.7
X181.331Y26.55
X181.331Y11.55
X183.0Y7.5
X183.0Y-7.5
X185.381Y26.55
X185.381Y11.55
X186.094Y64.65
X186.094Y49.65
X190.144Y64.65
X190.144Y49.65
X190.856Y102.75
X190.856Y87.75
X190.856Y45.6
X190.856Y30.6
X194.906Y45.6
X194.906Y30.6
X195.619Y83.7
X195.619Y68.7
X198.0Y7.5
X198.0Y-7.5
X199.669Y102.75
X199.669Y87.75
X199.669Y83.7
X199.669Y68.7
X200.381Y26.55
X200.381Y11.55
X204.431Y26.55
X204.431Y11.55
X205.144Y64.65
X205.144Y49.65
X206.812Y7.5
X206.812Y-7.5
X209.194Y64.65
X209.194Y49.65
X209.906Y45.6
X209.906Y30.6
X214.669Y102.75
X214.669Y87.75
X214.669Y83.7
X214.669Y68.7
X214.909Y45.759
X214.909Y30.759
X218.719Y102.75
X218.719Y87.75
X218.719Y83.7
X218.719Y68.7
X219.431Y26.55
X219.431Y11.55
X221.812Y7.5
X221.812Y-7.5
X223.481Y26.55
X223.481Y11.55
X224.194Y64.65
X224.194Y49.65
X228.244Y64.65
X228.244Y49.65
X229.909Y45.759
X229.909Y30.759
X230.625Y7.5
X230.625Y-7.5
X233.719Y102.75
X233.719Y87.75
X233.719Y83.7
X233.719Y68.7
X237.769Y102.75
X237.769Y87.75
X238.481Y26.55
X238.481Y11.55
X243.244Y64.65
X243.244Y49.65
X244.912Y45.6
X244.912Y30.6
X245.625Y7.5
X245.625Y-7.5
X247.294Y83.7
X247.294Y68.7
X249.675Y26.55
X249.675Y11.55
X252.056Y64.65
X252.056Y49.65
X252.769Y102.75
X252.769Y87.75
X254.438Y7.5
X254.438Y-7.5
X256.819Y102.75
X256.819Y87.75
X259.912Y45.6
X259.912Y30.6
X262.294Y83.7
X262.294Y68.7
X264.675Y26.55
X264.675Y11.55
X267.056Y64.65
X267.056Y49.65
X269.438Y7.5
X269.438Y-7.5
X271.819Y102.75
X271.819Y87.75
X275.869Y102.75
X275.869Y87.75
X275.869Y83.7
X275.869Y68.7
X275.869Y64.65
X275.869Y49.65
X275.869Y45.6
X275.869Y30.6
X275.869Y26.55
X275.869Y11.55
X275.869Y7.5
X275.869Y-7.5
X290.869Y102.75
X290.869Y87.75
X290.869Y83.7
X290.869Y68.7
X290.869Y64.65
X290.869Y49.65
X290.869Y45.6
X290.869Y30.6
X290.869Y26.55
X290.869Y11.55
X290.869Y7.5
X290.869Y-7.5
X294.919Y102.75
X294.919Y87.75
X294.919Y83.7
X294.919Y68.7
X294.919Y64.65
X294.919Y49.65
X294.919Y45.6
X294.919Y30.6
X294.919Y26.55
X294.919Y11.55
X294.919Y7.5
X294.919Y-7.5
X309.919Y102.75
X309.919Y87.75
X309.919Y83.7
X309.919Y68.7
X309.919Y64.65
X309.919Y49.65
X309.919Y45.6
X309.919Y30.6
X309.919Y26.55
X309.919Y11.55
X309.919Y7.5
X309.919Y-7.5
X313.969Y102.75
X313.969Y87.75
X313.969Y83.7
X313.969Y68.7
X313.969Y64.65
X313.969Y49.65
X313.969Y45.6
X313.969Y30.6
X313.969Y26.55
X313.969Y11.55
X313.969Y7.5
X313.969Y-7.5
X328.969Y102.75
X328.969Y87.75
X328.969Y83.7
X328.969Y68.7
X328.969Y64.65
X328.969Y49.65
X328.969Y45.6
X328.969Y30.6
X328.969Y26.55
X328.969Y11.55
X328.969Y7.5
X328.969Y-7.5
T4
X10.696Y107.751
X10.696Y105.211
X10.696Y102.671
X10.696Y100.131
X10.696Y97.591
X10.696Y95.051
X10.696Y92.511
X10.696Y89.971
X10.696Y87.431
X14.859Y85.598
X17.399Y85.598
X19.939Y85.598
X22.479Y85.598
X25.019Y85.598
X29.182Y107.751
X29.182Y105.211
X29.182Y102.671
X29.182Y100.131
X29.182Y97.591
X29.182Y95.051
X29.182Y92.511
X29.182Y89.971
X29.182Y87.431
T0
M30
