%TF.GenerationSoftware,KiCad,Pcbnew,7.0.3*%
%TF.CreationDate,2023-05-13T23:02:35+02:00*%
%TF.ProjectId,verasity_PCB,76657261-7369-4747-995f-5043422e6b69,rev?*%
%TF.SameCoordinates,Original*%
%TF.FileFunction,Legend,Top*%
%TF.FilePolarity,Positive*%
%FSLAX46Y46*%
G04 Gerber Fmt 4.6, Leading zero omitted, Abs format (unit mm)*
G04 Created by KiCad (PCBNEW 7.0.3) date 2023-05-13 23:02:35*
%MOMM*%
%LPD*%
G01*
G04 APERTURE LIST*
G04 Aperture macros list*
%AMRoundRect*
0 Rectangle with rounded corners*
0 $1 Rounding radius*
0 $2 $3 $4 $5 $6 $7 $8 $9 X,Y pos of 4 corners*
0 Add a 4 corners polygon primitive as box body*
4,1,4,$2,$3,$4,$5,$6,$7,$8,$9,$2,$3,0*
0 Add four circle primitives for the rounded corners*
1,1,$1+$1,$2,$3*
1,1,$1+$1,$4,$5*
1,1,$1+$1,$6,$7*
1,1,$1+$1,$8,$9*
0 Add four rect primitives between the rounded corners*
20,1,$1+$1,$2,$3,$4,$5,0*
20,1,$1+$1,$4,$5,$6,$7,0*
20,1,$1+$1,$6,$7,$8,$9,0*
20,1,$1+$1,$8,$9,$2,$3,0*%
G04 Aperture macros list end*
%ADD10C,0.085000*%
%ADD11C,0.200000*%
%ADD12C,0.150000*%
%ADD13R,1.550000X1.550000*%
%ADD14R,1.500000X1.250000*%
%ADD15RoundRect,0.500000X0.500000X-0.500000X0.500000X0.500000X-0.500000X0.500000X-0.500000X-0.500000X0*%
%ADD16R,1.250000X1.500000*%
%ADD17RoundRect,0.500000X-0.500000X-0.500000X0.500000X-0.500000X0.500000X0.500000X-0.500000X0.500000X0*%
%ADD18C,3.048000*%
%ADD19C,3.987800*%
%ADD20C,2.200000*%
G04 APERTURE END LIST*
D10*
X309996206Y106790800D02*
X309996206Y106076515D01*
X309996206Y106076515D02*
X309967635Y105933658D01*
X309967635Y105933658D02*
X309910492Y105838420D01*
X309910492Y105838420D02*
X309824778Y105790800D01*
X309824778Y105790800D02*
X309767635Y105790800D01*
X310567635Y105790800D02*
X310281921Y105790800D01*
X310281921Y105790800D02*
X310281921Y106790800D01*
X311110492Y105886039D02*
X311081920Y105838420D01*
X311081920Y105838420D02*
X310996206Y105790800D01*
X310996206Y105790800D02*
X310939063Y105790800D01*
X310939063Y105790800D02*
X310853349Y105838420D01*
X310853349Y105838420D02*
X310796206Y105933658D01*
X310796206Y105933658D02*
X310767635Y106028896D01*
X310767635Y106028896D02*
X310739063Y106219372D01*
X310739063Y106219372D02*
X310739063Y106362229D01*
X310739063Y106362229D02*
X310767635Y106552705D01*
X310767635Y106552705D02*
X310796206Y106647943D01*
X310796206Y106647943D02*
X310853349Y106743181D01*
X310853349Y106743181D02*
X310939063Y106790800D01*
X310939063Y106790800D02*
X310996206Y106790800D01*
X310996206Y106790800D02*
X311081920Y106743181D01*
X311081920Y106743181D02*
X311110492Y106695562D01*
X311539063Y106790800D02*
X311539063Y106076515D01*
X311539063Y106076515D02*
X311510492Y105933658D01*
X311510492Y105933658D02*
X311453349Y105838420D01*
X311453349Y105838420D02*
X311367635Y105790800D01*
X311367635Y105790800D02*
X311310492Y105790800D01*
X312110492Y105790800D02*
X311824778Y105790800D01*
X311824778Y105790800D02*
X311824778Y106790800D01*
X312653349Y105886039D02*
X312624777Y105838420D01*
X312624777Y105838420D02*
X312539063Y105790800D01*
X312539063Y105790800D02*
X312481920Y105790800D01*
X312481920Y105790800D02*
X312396206Y105838420D01*
X312396206Y105838420D02*
X312339063Y105933658D01*
X312339063Y105933658D02*
X312310492Y106028896D01*
X312310492Y106028896D02*
X312281920Y106219372D01*
X312281920Y106219372D02*
X312281920Y106362229D01*
X312281920Y106362229D02*
X312310492Y106552705D01*
X312310492Y106552705D02*
X312339063Y106647943D01*
X312339063Y106647943D02*
X312396206Y106743181D01*
X312396206Y106743181D02*
X312481920Y106790800D01*
X312481920Y106790800D02*
X312539063Y106790800D01*
X312539063Y106790800D02*
X312624777Y106743181D01*
X312624777Y106743181D02*
X312653349Y106695562D01*
X313081920Y106790800D02*
X313081920Y106076515D01*
X313081920Y106076515D02*
X313053349Y105933658D01*
X313053349Y105933658D02*
X312996206Y105838420D01*
X312996206Y105838420D02*
X312910492Y105790800D01*
X312910492Y105790800D02*
X312853349Y105790800D01*
X313653349Y105790800D02*
X313367635Y105790800D01*
X313367635Y105790800D02*
X313367635Y106790800D01*
X314196206Y105886039D02*
X314167634Y105838420D01*
X314167634Y105838420D02*
X314081920Y105790800D01*
X314081920Y105790800D02*
X314024777Y105790800D01*
X314024777Y105790800D02*
X313939063Y105838420D01*
X313939063Y105838420D02*
X313881920Y105933658D01*
X313881920Y105933658D02*
X313853349Y106028896D01*
X313853349Y106028896D02*
X313824777Y106219372D01*
X313824777Y106219372D02*
X313824777Y106362229D01*
X313824777Y106362229D02*
X313853349Y106552705D01*
X313853349Y106552705D02*
X313881920Y106647943D01*
X313881920Y106647943D02*
X313939063Y106743181D01*
X313939063Y106743181D02*
X314024777Y106790800D01*
X314024777Y106790800D02*
X314081920Y106790800D01*
X314081920Y106790800D02*
X314167634Y106743181D01*
X314167634Y106743181D02*
X314196206Y106695562D01*
X314624777Y106790800D02*
X314624777Y106076515D01*
X314624777Y106076515D02*
X314596206Y105933658D01*
X314596206Y105933658D02*
X314539063Y105838420D01*
X314539063Y105838420D02*
X314453349Y105790800D01*
X314453349Y105790800D02*
X314396206Y105790800D01*
X315196206Y105790800D02*
X314910492Y105790800D01*
X314910492Y105790800D02*
X314910492Y106790800D01*
X315739063Y105886039D02*
X315710491Y105838420D01*
X315710491Y105838420D02*
X315624777Y105790800D01*
X315624777Y105790800D02*
X315567634Y105790800D01*
X315567634Y105790800D02*
X315481920Y105838420D01*
X315481920Y105838420D02*
X315424777Y105933658D01*
X315424777Y105933658D02*
X315396206Y106028896D01*
X315396206Y106028896D02*
X315367634Y106219372D01*
X315367634Y106219372D02*
X315367634Y106362229D01*
X315367634Y106362229D02*
X315396206Y106552705D01*
X315396206Y106552705D02*
X315424777Y106647943D01*
X315424777Y106647943D02*
X315481920Y106743181D01*
X315481920Y106743181D02*
X315567634Y106790800D01*
X315567634Y106790800D02*
X315624777Y106790800D01*
X315624777Y106790800D02*
X315710491Y106743181D01*
X315710491Y106743181D02*
X315739063Y106695562D01*
D11*
X137672530Y107517542D02*
X139005863Y104517542D01*
X139005863Y104517542D02*
X140339197Y107517542D01*
X143196339Y104660400D02*
X142815387Y104517542D01*
X142815387Y104517542D02*
X142053482Y104517542D01*
X142053482Y104517542D02*
X141672529Y104660400D01*
X141672529Y104660400D02*
X141482053Y104946114D01*
X141482053Y104946114D02*
X141482053Y106088971D01*
X141482053Y106088971D02*
X141672529Y106374685D01*
X141672529Y106374685D02*
X142053482Y106517542D01*
X142053482Y106517542D02*
X142815387Y106517542D01*
X142815387Y106517542D02*
X143196339Y106374685D01*
X143196339Y106374685D02*
X143386815Y106088971D01*
X143386815Y106088971D02*
X143386815Y105803257D01*
X143386815Y105803257D02*
X141482053Y105517542D01*
X145101100Y104517542D02*
X145101100Y106517542D01*
X145101100Y105946114D02*
X145291577Y106231828D01*
X145291577Y106231828D02*
X145482053Y106374685D01*
X145482053Y106374685D02*
X145863005Y106517542D01*
X145863005Y106517542D02*
X146243958Y106517542D01*
X149291576Y104517542D02*
X149291576Y106088971D01*
X149291576Y106088971D02*
X149101100Y106374685D01*
X149101100Y106374685D02*
X148720148Y106517542D01*
X148720148Y106517542D02*
X147958243Y106517542D01*
X147958243Y106517542D02*
X147577290Y106374685D01*
X149291576Y104660400D02*
X148910624Y104517542D01*
X148910624Y104517542D02*
X147958243Y104517542D01*
X147958243Y104517542D02*
X147577290Y104660400D01*
X147577290Y104660400D02*
X147386814Y104946114D01*
X147386814Y104946114D02*
X147386814Y105231828D01*
X147386814Y105231828D02*
X147577290Y105517542D01*
X147577290Y105517542D02*
X147958243Y105660400D01*
X147958243Y105660400D02*
X148910624Y105660400D01*
X148910624Y105660400D02*
X149291576Y105803257D01*
X151005862Y104660400D02*
X151386815Y104517542D01*
X151386815Y104517542D02*
X152148719Y104517542D01*
X152148719Y104517542D02*
X152529672Y104660400D01*
X152529672Y104660400D02*
X152720148Y104946114D01*
X152720148Y104946114D02*
X152720148Y105088971D01*
X152720148Y105088971D02*
X152529672Y105374685D01*
X152529672Y105374685D02*
X152148719Y105517542D01*
X152148719Y105517542D02*
X151577291Y105517542D01*
X151577291Y105517542D02*
X151196338Y105660400D01*
X151196338Y105660400D02*
X151005862Y105946114D01*
X151005862Y105946114D02*
X151005862Y106088971D01*
X151005862Y106088971D02*
X151196338Y106374685D01*
X151196338Y106374685D02*
X151577291Y106517542D01*
X151577291Y106517542D02*
X152148719Y106517542D01*
X152148719Y106517542D02*
X152529672Y106374685D01*
X154434433Y104517542D02*
X154434433Y106517542D01*
X154434433Y107517542D02*
X154243957Y107374685D01*
X154243957Y107374685D02*
X154434433Y107231828D01*
X154434433Y107231828D02*
X154624910Y107374685D01*
X154624910Y107374685D02*
X154434433Y107517542D01*
X154434433Y107517542D02*
X154434433Y107231828D01*
X155767767Y106517542D02*
X157291576Y106517542D01*
X156339195Y107517542D02*
X156339195Y104946114D01*
X156339195Y104946114D02*
X156529672Y104660400D01*
X156529672Y104660400D02*
X156910624Y104517542D01*
X156910624Y104517542D02*
X157291576Y104517542D01*
X158243957Y106517542D02*
X159196338Y104517542D01*
X160148719Y106517542D02*
X159196338Y104517542D01*
X159196338Y104517542D02*
X158815386Y103803257D01*
X158815386Y103803257D02*
X158624909Y103660400D01*
X158624909Y103660400D02*
X158243957Y103517542D01*
X164529671Y107231828D02*
X164720147Y107374685D01*
X164720147Y107374685D02*
X165101100Y107517542D01*
X165101100Y107517542D02*
X166053481Y107517542D01*
X166053481Y107517542D02*
X166434433Y107374685D01*
X166434433Y107374685D02*
X166624909Y107231828D01*
X166624909Y107231828D02*
X166815386Y106946114D01*
X166815386Y106946114D02*
X166815386Y106660400D01*
X166815386Y106660400D02*
X166624909Y106231828D01*
X166624909Y106231828D02*
X164339195Y104517542D01*
X164339195Y104517542D02*
X166815386Y104517542D01*
X168529671Y104803257D02*
X168720148Y104660400D01*
X168720148Y104660400D02*
X168529671Y104517542D01*
X168529671Y104517542D02*
X168339195Y104660400D01*
X168339195Y104660400D02*
X168529671Y104803257D01*
X168529671Y104803257D02*
X168529671Y104517542D01*
X171196338Y107517542D02*
X171577291Y107517542D01*
X171577291Y107517542D02*
X171958243Y107374685D01*
X171958243Y107374685D02*
X172148719Y107231828D01*
X172148719Y107231828D02*
X172339195Y106946114D01*
X172339195Y106946114D02*
X172529672Y106374685D01*
X172529672Y106374685D02*
X172529672Y105660400D01*
X172529672Y105660400D02*
X172339195Y105088971D01*
X172339195Y105088971D02*
X172148719Y104803257D01*
X172148719Y104803257D02*
X171958243Y104660400D01*
X171958243Y104660400D02*
X171577291Y104517542D01*
X171577291Y104517542D02*
X171196338Y104517542D01*
X171196338Y104517542D02*
X170815386Y104660400D01*
X170815386Y104660400D02*
X170624910Y104803257D01*
X170624910Y104803257D02*
X170434433Y105088971D01*
X170434433Y105088971D02*
X170243957Y105660400D01*
X170243957Y105660400D02*
X170243957Y106374685D01*
X170243957Y106374685D02*
X170434433Y106946114D01*
X170434433Y106946114D02*
X170624910Y107231828D01*
X170624910Y107231828D02*
X170815386Y107374685D01*
X170815386Y107374685D02*
X171196338Y107517542D01*
D12*
%TO.C,REF\u002A\u002A*%
X271815350Y-454819D02*
X271482017Y21371D01*
X271243922Y-454819D02*
X271243922Y545180D01*
X271243922Y545180D02*
X271624874Y545180D01*
X271624874Y545180D02*
X271720112Y497561D01*
X271720112Y497561D02*
X271767731Y449942D01*
X271767731Y449942D02*
X271815350Y354704D01*
X271815350Y354704D02*
X271815350Y211847D01*
X271815350Y211847D02*
X271767731Y116609D01*
X271767731Y116609D02*
X271720112Y68990D01*
X271720112Y68990D02*
X271624874Y21371D01*
X271624874Y21371D02*
X271243922Y21371D01*
X272243922Y68990D02*
X272577255Y68990D01*
X272720112Y-454819D02*
X272243922Y-454819D01*
X272243922Y-454819D02*
X272243922Y545180D01*
X272243922Y545180D02*
X272720112Y545180D01*
X273482017Y68990D02*
X273148684Y68990D01*
X273148684Y-454819D02*
X273148684Y545180D01*
X273148684Y545180D02*
X273624874Y545180D01*
X274148684Y545180D02*
X274148684Y307085D01*
X273910589Y402323D02*
X274148684Y307085D01*
X274148684Y307085D02*
X274386779Y402323D01*
X274005827Y116609D02*
X274148684Y307085D01*
X274148684Y307085D02*
X274291541Y116609D01*
X274910589Y545180D02*
X274910589Y307085D01*
X274672494Y402323D02*
X274910589Y307085D01*
X274910589Y307085D02*
X275148684Y402323D01*
X274767732Y116609D02*
X274910589Y307085D01*
X274910589Y307085D02*
X275053446Y116609D01*
X270227850Y56323305D02*
X269894517Y56799496D01*
X269656422Y56323305D02*
X269656422Y57323305D01*
X269656422Y57323305D02*
X270037374Y57323305D01*
X270037374Y57323305D02*
X270132612Y57275686D01*
X270132612Y57275686D02*
X270180231Y57228067D01*
X270180231Y57228067D02*
X270227850Y57132829D01*
X270227850Y57132829D02*
X270227850Y56989972D01*
X270227850Y56989972D02*
X270180231Y56894734D01*
X270180231Y56894734D02*
X270132612Y56847115D01*
X270132612Y56847115D02*
X270037374Y56799496D01*
X270037374Y56799496D02*
X269656422Y56799496D01*
X270656422Y56847115D02*
X270989755Y56847115D01*
X271132612Y56323305D02*
X270656422Y56323305D01*
X270656422Y56323305D02*
X270656422Y57323305D01*
X270656422Y57323305D02*
X271132612Y57323305D01*
X271894517Y56847115D02*
X271561184Y56847115D01*
X271561184Y56323305D02*
X271561184Y57323305D01*
X271561184Y57323305D02*
X272037374Y57323305D01*
X272561184Y57323305D02*
X272561184Y57085210D01*
X272323089Y57180448D02*
X272561184Y57085210D01*
X272561184Y57085210D02*
X272799279Y57180448D01*
X272418327Y56894734D02*
X272561184Y57085210D01*
X272561184Y57085210D02*
X272704041Y56894734D01*
X273323089Y57323305D02*
X273323089Y57085210D01*
X273084994Y57180448D02*
X273323089Y57085210D01*
X273323089Y57085210D02*
X273561184Y57180448D01*
X273180232Y56894734D02*
X273323089Y57085210D01*
X273323089Y57085210D02*
X273465946Y56894734D01*
X11465350Y-454819D02*
X11132017Y21371D01*
X10893922Y-454819D02*
X10893922Y545180D01*
X10893922Y545180D02*
X11274874Y545180D01*
X11274874Y545180D02*
X11370112Y497561D01*
X11370112Y497561D02*
X11417731Y449942D01*
X11417731Y449942D02*
X11465350Y354704D01*
X11465350Y354704D02*
X11465350Y211847D01*
X11465350Y211847D02*
X11417731Y116609D01*
X11417731Y116609D02*
X11370112Y68990D01*
X11370112Y68990D02*
X11274874Y21371D01*
X11274874Y21371D02*
X10893922Y21371D01*
X11893922Y68990D02*
X12227255Y68990D01*
X12370112Y-454819D02*
X11893922Y-454819D01*
X11893922Y-454819D02*
X11893922Y545180D01*
X11893922Y545180D02*
X12370112Y545180D01*
X13132017Y68990D02*
X12798684Y68990D01*
X12798684Y-454819D02*
X12798684Y545180D01*
X12798684Y545180D02*
X13274874Y545180D01*
X13798684Y545180D02*
X13798684Y307085D01*
X13560589Y402323D02*
X13798684Y307085D01*
X13798684Y307085D02*
X14036779Y402323D01*
X13655827Y116609D02*
X13798684Y307085D01*
X13798684Y307085D02*
X13941541Y116609D01*
X14560589Y545180D02*
X14560589Y307085D01*
X14322494Y402323D02*
X14560589Y307085D01*
X14560589Y307085D02*
X14798684Y402323D01*
X14417732Y116609D02*
X14560589Y307085D01*
X14560589Y307085D02*
X14703446Y116609D01*
X140916819Y75981350D02*
X140440628Y75648017D01*
X140916819Y75409922D02*
X139916819Y75409922D01*
X139916819Y75409922D02*
X139916819Y75790874D01*
X139916819Y75790874D02*
X139964438Y75886112D01*
X139964438Y75886112D02*
X140012057Y75933731D01*
X140012057Y75933731D02*
X140107295Y75981350D01*
X140107295Y75981350D02*
X140250152Y75981350D01*
X140250152Y75981350D02*
X140345390Y75933731D01*
X140345390Y75933731D02*
X140393009Y75886112D01*
X140393009Y75886112D02*
X140440628Y75790874D01*
X140440628Y75790874D02*
X140440628Y75409922D01*
X140393009Y76409922D02*
X140393009Y76743255D01*
X140916819Y76886112D02*
X140916819Y76409922D01*
X140916819Y76409922D02*
X139916819Y76409922D01*
X139916819Y76409922D02*
X139916819Y76886112D01*
X140393009Y77648017D02*
X140393009Y77314684D01*
X140916819Y77314684D02*
X139916819Y77314684D01*
X139916819Y77314684D02*
X139916819Y77790874D01*
X139916819Y78314684D02*
X140154914Y78314684D01*
X140059676Y78076589D02*
X140154914Y78314684D01*
X140154914Y78314684D02*
X140059676Y78552779D01*
X140345390Y78171827D02*
X140154914Y78314684D01*
X140154914Y78314684D02*
X140345390Y78457541D01*
X139916819Y79076589D02*
X140154914Y79076589D01*
X140059676Y78838494D02*
X140154914Y79076589D01*
X140154914Y79076589D02*
X140059676Y79314684D01*
X140345390Y78933732D02*
X140154914Y79076589D01*
X140154914Y79076589D02*
X140345390Y79219446D01*
X79194819Y37881350D02*
X78718628Y37548017D01*
X79194819Y37309922D02*
X78194819Y37309922D01*
X78194819Y37309922D02*
X78194819Y37690874D01*
X78194819Y37690874D02*
X78242438Y37786112D01*
X78242438Y37786112D02*
X78290057Y37833731D01*
X78290057Y37833731D02*
X78385295Y37881350D01*
X78385295Y37881350D02*
X78528152Y37881350D01*
X78528152Y37881350D02*
X78623390Y37833731D01*
X78623390Y37833731D02*
X78671009Y37786112D01*
X78671009Y37786112D02*
X78718628Y37690874D01*
X78718628Y37690874D02*
X78718628Y37309922D01*
X78671009Y38309922D02*
X78671009Y38643255D01*
X79194819Y38786112D02*
X79194819Y38309922D01*
X79194819Y38309922D02*
X78194819Y38309922D01*
X78194819Y38309922D02*
X78194819Y38786112D01*
X78671009Y39548017D02*
X78671009Y39214684D01*
X79194819Y39214684D02*
X78194819Y39214684D01*
X78194819Y39214684D02*
X78194819Y39690874D01*
X78194819Y40214684D02*
X78432914Y40214684D01*
X78337676Y39976589D02*
X78432914Y40214684D01*
X78432914Y40214684D02*
X78337676Y40452779D01*
X78623390Y40071827D02*
X78432914Y40214684D01*
X78432914Y40214684D02*
X78623390Y40357541D01*
X78194819Y40976589D02*
X78432914Y40976589D01*
X78337676Y40738494D02*
X78432914Y40976589D01*
X78432914Y40976589D02*
X78337676Y41214684D01*
X78623390Y40833732D02*
X78432914Y40976589D01*
X78432914Y40976589D02*
X78623390Y41119446D01*
X129575350Y-200819D02*
X129242017Y275371D01*
X129003922Y-200819D02*
X129003922Y799180D01*
X129003922Y799180D02*
X129384874Y799180D01*
X129384874Y799180D02*
X129480112Y751561D01*
X129480112Y751561D02*
X129527731Y703942D01*
X129527731Y703942D02*
X129575350Y608704D01*
X129575350Y608704D02*
X129575350Y465847D01*
X129575350Y465847D02*
X129527731Y370609D01*
X129527731Y370609D02*
X129480112Y322990D01*
X129480112Y322990D02*
X129384874Y275371D01*
X129384874Y275371D02*
X129003922Y275371D01*
X130003922Y322990D02*
X130337255Y322990D01*
X130480112Y-200819D02*
X130003922Y-200819D01*
X130003922Y-200819D02*
X130003922Y799180D01*
X130003922Y799180D02*
X130480112Y799180D01*
X131242017Y322990D02*
X130908684Y322990D01*
X130908684Y-200819D02*
X130908684Y799180D01*
X130908684Y799180D02*
X131384874Y799180D01*
X131908684Y799180D02*
X131908684Y561085D01*
X131670589Y656323D02*
X131908684Y561085D01*
X131908684Y561085D02*
X132146779Y656323D01*
X131765827Y370609D02*
X131908684Y561085D01*
X131908684Y561085D02*
X132051541Y370609D01*
X132670589Y799180D02*
X132670589Y561085D01*
X132432494Y656323D02*
X132670589Y561085D01*
X132670589Y561085D02*
X132908684Y656323D01*
X132527732Y370609D02*
X132670589Y561085D01*
X132670589Y561085D02*
X132813446Y370609D01*
X13052850Y57513930D02*
X12719517Y57990121D01*
X12481422Y57513930D02*
X12481422Y58513930D01*
X12481422Y58513930D02*
X12862374Y58513930D01*
X12862374Y58513930D02*
X12957612Y58466311D01*
X12957612Y58466311D02*
X13005231Y58418692D01*
X13005231Y58418692D02*
X13052850Y58323454D01*
X13052850Y58323454D02*
X13052850Y58180597D01*
X13052850Y58180597D02*
X13005231Y58085359D01*
X13005231Y58085359D02*
X12957612Y58037740D01*
X12957612Y58037740D02*
X12862374Y57990121D01*
X12862374Y57990121D02*
X12481422Y57990121D01*
X13481422Y58037740D02*
X13814755Y58037740D01*
X13957612Y57513930D02*
X13481422Y57513930D01*
X13481422Y57513930D02*
X13481422Y58513930D01*
X13481422Y58513930D02*
X13957612Y58513930D01*
X14719517Y58037740D02*
X14386184Y58037740D01*
X14386184Y57513930D02*
X14386184Y58513930D01*
X14386184Y58513930D02*
X14862374Y58513930D01*
X15386184Y58513930D02*
X15386184Y58275835D01*
X15148089Y58371073D02*
X15386184Y58275835D01*
X15386184Y58275835D02*
X15624279Y58371073D01*
X15243327Y58085359D02*
X15386184Y58275835D01*
X15386184Y58275835D02*
X15529041Y58085359D01*
X16148089Y58513930D02*
X16148089Y58275835D01*
X15909994Y58371073D02*
X16148089Y58275835D01*
X16148089Y58275835D02*
X16386184Y58371073D01*
X16005232Y58085359D02*
X16148089Y58275835D01*
X16148089Y58275835D02*
X16290946Y58085359D01*
%TD*%
%LPC*%
D13*
%TO.C,U99*%
X29182000Y107751000D03*
X29182000Y105211000D03*
X10696000Y102671000D03*
X29182000Y102671000D03*
X29182000Y100131000D03*
X10696000Y107751000D03*
X29182000Y97591000D03*
X29182000Y95051000D03*
X29182000Y92511000D03*
X29182000Y89971000D03*
X29182000Y87431000D03*
X25019000Y85598000D03*
X22479000Y85598000D03*
X19939000Y85598000D03*
X17399000Y85598000D03*
X14859000Y85598000D03*
X10696000Y87431000D03*
X10696000Y89971000D03*
X10696000Y92511000D03*
X10696000Y95051000D03*
X10696000Y97591000D03*
X10696000Y100131000D03*
X10696000Y105211000D03*
%TD*%
D14*
%TO.C,U4*%
X38043750Y95000000D03*
D15*
X38243750Y88250000D03*
D16*
X45243750Y102250000D03*
X45243750Y88250000D03*
X46943750Y102250000D03*
X46943750Y88250000D03*
D15*
X52243750Y88250000D03*
D14*
X52443750Y95000000D03*
D17*
X38243750Y102250000D03*
X52243750Y102250000D03*
D14*
X52443750Y98400000D03*
X38043750Y98400000D03*
X38043750Y96700000D03*
X52443750Y96700000D03*
D16*
X43543750Y102250000D03*
X43543750Y88250000D03*
%TD*%
D14*
%TO.C,U6*%
X76143750Y95000000D03*
D15*
X76343750Y88250000D03*
D16*
X83343750Y102250000D03*
X83343750Y88250000D03*
X85043750Y102250000D03*
X85043750Y88250000D03*
D15*
X90343750Y88250000D03*
D14*
X90543750Y95000000D03*
D17*
X76343750Y102250000D03*
X90343750Y102250000D03*
D14*
X90543750Y98400000D03*
X76143750Y98400000D03*
X76143750Y96700000D03*
X90543750Y96700000D03*
D16*
X81643750Y102250000D03*
X81643750Y88250000D03*
%TD*%
D14*
%TO.C,U24*%
X85668750Y75950000D03*
D15*
X85868750Y69200000D03*
D16*
X92868750Y83200000D03*
X92868750Y69200000D03*
X94568750Y83200000D03*
X94568750Y69200000D03*
D15*
X99868750Y69200000D03*
D14*
X100068750Y75950000D03*
D17*
X85868750Y83200000D03*
X99868750Y83200000D03*
D14*
X100068750Y79350000D03*
X85668750Y79350000D03*
X85668750Y77650000D03*
X100068750Y77650000D03*
D16*
X91168750Y83200000D03*
X91168750Y69200000D03*
%TD*%
D14*
%TO.C,U63*%
X195206250Y37850000D03*
D15*
X195406250Y31100000D03*
D16*
X202406250Y45100000D03*
X202406250Y31100000D03*
X204106250Y45100000D03*
X204106250Y31100000D03*
D15*
X209406250Y31100000D03*
D14*
X209606250Y37850000D03*
D17*
X195406250Y45100000D03*
X209406250Y45100000D03*
D14*
X209606250Y41250000D03*
X195206250Y41250000D03*
X195206250Y39550000D03*
X209606250Y39550000D03*
D16*
X200706250Y45100000D03*
X200706250Y31100000D03*
%TD*%
D14*
%TO.C,U79*%
X295218750Y18800000D03*
D15*
X295418750Y12050000D03*
D16*
X302418750Y26050000D03*
X302418750Y12050000D03*
X304118750Y26050000D03*
X304118750Y12050000D03*
D15*
X309418750Y12050000D03*
D14*
X309618750Y18800000D03*
D17*
X295418750Y26050000D03*
X309418750Y26050000D03*
D14*
X309618750Y22200000D03*
X295218750Y22200000D03*
X295218750Y20500000D03*
X309618750Y20500000D03*
D16*
X300718750Y26050000D03*
X300718750Y12050000D03*
%TD*%
D14*
%TO.C,U76*%
X204731250Y18800000D03*
D15*
X204931250Y12050000D03*
D16*
X211931250Y26050000D03*
X211931250Y12050000D03*
X213631250Y26050000D03*
X213631250Y12050000D03*
D15*
X218931250Y12050000D03*
D14*
X219131250Y18800000D03*
D17*
X204931250Y26050000D03*
X218931250Y26050000D03*
D14*
X219131250Y22200000D03*
X204731250Y22200000D03*
X204731250Y20500000D03*
X219131250Y20500000D03*
D16*
X210231250Y26050000D03*
X210231250Y12050000D03*
%TD*%
D14*
%TO.C,U82*%
X40425000Y-250000D03*
D15*
X40625000Y-7000000D03*
D16*
X47625000Y7000000D03*
X47625000Y-7000000D03*
X49325000Y7000000D03*
X49325000Y-7000000D03*
D15*
X54625000Y-7000000D03*
D14*
X54825000Y-250000D03*
D17*
X40625000Y7000000D03*
X54625000Y7000000D03*
D14*
X54825000Y3150000D03*
X40425000Y3150000D03*
X40425000Y1450000D03*
X54825000Y1450000D03*
D16*
X45925000Y7000000D03*
X45925000Y-7000000D03*
%TD*%
D14*
%TO.C,U44*%
X152343750Y56900000D03*
D15*
X152543750Y50150000D03*
D16*
X159543750Y64150000D03*
X159543750Y50150000D03*
X161243750Y64150000D03*
X161243750Y50150000D03*
D15*
X166543750Y50150000D03*
D14*
X166743750Y56900000D03*
D17*
X152543750Y64150000D03*
X166543750Y64150000D03*
D14*
X166743750Y60300000D03*
X152343750Y60300000D03*
X152343750Y58600000D03*
X166743750Y58600000D03*
D16*
X157843750Y64150000D03*
X157843750Y50150000D03*
%TD*%
D14*
%TO.C,U90*%
X207112500Y-250000D03*
D15*
X207312500Y-7000000D03*
D16*
X214312500Y7000000D03*
X214312500Y-7000000D03*
X216012500Y7000000D03*
X216012500Y-7000000D03*
D15*
X221312500Y-7000000D03*
D14*
X221512500Y-250000D03*
D17*
X207312500Y7000000D03*
X221312500Y7000000D03*
D14*
X221512500Y3150000D03*
X207112500Y3150000D03*
X207112500Y1450000D03*
X221512500Y1450000D03*
D16*
X212612500Y7000000D03*
X212612500Y-7000000D03*
%TD*%
D14*
%TO.C,U15*%
X257118750Y95000000D03*
D15*
X257318750Y88250000D03*
D16*
X264318750Y102250000D03*
X264318750Y88250000D03*
X266018750Y102250000D03*
X266018750Y88250000D03*
D15*
X271318750Y88250000D03*
D14*
X271518750Y95000000D03*
D17*
X257318750Y102250000D03*
X271318750Y102250000D03*
D14*
X271518750Y98400000D03*
X257118750Y98400000D03*
X257118750Y96700000D03*
X271518750Y96700000D03*
D16*
X262618750Y102250000D03*
X262618750Y88250000D03*
%TD*%
D14*
%TO.C,U19*%
X-9581250Y75950000D03*
D15*
X-9381250Y69200000D03*
D16*
X-2381250Y83200000D03*
X-2381250Y69200000D03*
X-681250Y83200000D03*
X-681250Y69200000D03*
D15*
X4618750Y69200000D03*
D14*
X4818750Y75950000D03*
D17*
X-9381250Y83200000D03*
X4618750Y83200000D03*
D14*
X4818750Y79350000D03*
X-9581250Y79350000D03*
X-9581250Y77650000D03*
X4818750Y77650000D03*
D16*
X-4081250Y83200000D03*
X-4081250Y69200000D03*
%TD*%
D14*
%TO.C,U34*%
X295218750Y75950000D03*
D15*
X295418750Y69200000D03*
D16*
X302418750Y83200000D03*
X302418750Y69200000D03*
X304118750Y83200000D03*
X304118750Y69200000D03*
D15*
X309418750Y69200000D03*
D14*
X309618750Y75950000D03*
D17*
X295418750Y83200000D03*
X309418750Y83200000D03*
D14*
X309618750Y79350000D03*
X295218750Y79350000D03*
X295218750Y77650000D03*
X309618750Y77650000D03*
D16*
X300718750Y83200000D03*
X300718750Y69200000D03*
%TD*%
D14*
%TO.C,U65*%
X245212500Y37850000D03*
D15*
X245412500Y31100000D03*
D16*
X252412500Y45100000D03*
X252412500Y31100000D03*
X254112500Y45100000D03*
X254112500Y31100000D03*
D15*
X259412500Y31100000D03*
D14*
X259612500Y37850000D03*
D17*
X245412500Y45100000D03*
X259412500Y45100000D03*
D14*
X259612500Y41250000D03*
X245212500Y41250000D03*
X245212500Y39550000D03*
X259612500Y39550000D03*
D16*
X250712500Y45100000D03*
X250712500Y31100000D03*
%TD*%
D14*
%TO.C,U11*%
X176156250Y95000000D03*
D15*
X176356250Y88250000D03*
D16*
X183356250Y102250000D03*
X183356250Y88250000D03*
X185056250Y102250000D03*
X185056250Y88250000D03*
D15*
X190356250Y88250000D03*
D14*
X190556250Y95000000D03*
D17*
X176356250Y102250000D03*
X190356250Y102250000D03*
D14*
X190556250Y98400000D03*
X176156250Y98400000D03*
X176156250Y96700000D03*
X190556250Y96700000D03*
D16*
X181656250Y102250000D03*
X181656250Y88250000D03*
%TD*%
D14*
%TO.C,U91*%
X230925000Y-250000D03*
D15*
X231125000Y-7000000D03*
D16*
X238125000Y7000000D03*
X238125000Y-7000000D03*
X239825000Y7000000D03*
X239825000Y-7000000D03*
D15*
X245125000Y-7000000D03*
D14*
X245325000Y-250000D03*
D17*
X231125000Y7000000D03*
X245125000Y7000000D03*
D14*
X245325000Y3150000D03*
X230925000Y3150000D03*
X230925000Y1450000D03*
X245325000Y1450000D03*
D16*
X236425000Y7000000D03*
X236425000Y-7000000D03*
%TD*%
D14*
%TO.C,U39*%
X57093750Y56900000D03*
D15*
X57293750Y50150000D03*
D16*
X64293750Y64150000D03*
X64293750Y50150000D03*
X65993750Y64150000D03*
X65993750Y50150000D03*
D15*
X71293750Y50150000D03*
D14*
X71493750Y56900000D03*
D17*
X57293750Y64150000D03*
X71293750Y64150000D03*
D14*
X71493750Y60300000D03*
X57093750Y60300000D03*
X57093750Y58600000D03*
X71493750Y58600000D03*
D16*
X62593750Y64150000D03*
X62593750Y50150000D03*
%TD*%
D14*
%TO.C,U92*%
X254737500Y-250000D03*
D15*
X254937500Y-7000000D03*
D16*
X261937500Y7000000D03*
X261937500Y-7000000D03*
X263637500Y7000000D03*
X263637500Y-7000000D03*
D15*
X268937500Y-7000000D03*
D14*
X269137500Y-250000D03*
D17*
X254937500Y7000000D03*
X268937500Y7000000D03*
D14*
X269137500Y3150000D03*
X254737500Y3150000D03*
X254737500Y1450000D03*
X269137500Y1450000D03*
D16*
X260237500Y7000000D03*
X260237500Y-7000000D03*
%TD*%
D14*
%TO.C,U22*%
X47568750Y75950000D03*
D15*
X47768750Y69200000D03*
D16*
X54768750Y83200000D03*
X54768750Y69200000D03*
X56468750Y83200000D03*
X56468750Y69200000D03*
D15*
X61768750Y69200000D03*
D14*
X61968750Y75950000D03*
D17*
X47768750Y83200000D03*
X61768750Y83200000D03*
D14*
X61968750Y79350000D03*
X47568750Y79350000D03*
X47568750Y77650000D03*
X61968750Y77650000D03*
D16*
X53068750Y83200000D03*
X53068750Y69200000D03*
%TD*%
D14*
%TO.C,U55*%
X42806250Y37850000D03*
D15*
X43006250Y31100000D03*
D16*
X50006250Y45100000D03*
X50006250Y31100000D03*
X51706250Y45100000D03*
X51706250Y31100000D03*
D15*
X57006250Y31100000D03*
D14*
X57206250Y37850000D03*
D17*
X43006250Y45100000D03*
X57006250Y45100000D03*
D14*
X57206250Y41250000D03*
X42806250Y41250000D03*
X42806250Y39550000D03*
X57206250Y39550000D03*
D16*
X48306250Y45100000D03*
X48306250Y31100000D03*
%TD*%
D14*
%TO.C,U7*%
X95193750Y95000000D03*
D15*
X95393750Y88250000D03*
D16*
X102393750Y102250000D03*
X102393750Y88250000D03*
X104093750Y102250000D03*
X104093750Y88250000D03*
D15*
X109393750Y88250000D03*
D14*
X109593750Y95000000D03*
D17*
X95393750Y102250000D03*
X109393750Y102250000D03*
D14*
X109593750Y98400000D03*
X95193750Y98400000D03*
X95193750Y96700000D03*
X109593750Y96700000D03*
D16*
X100693750Y102250000D03*
X100693750Y88250000D03*
%TD*%
D14*
%TO.C,U31*%
X219018750Y75950000D03*
D15*
X219218750Y69200000D03*
D16*
X226218750Y83200000D03*
X226218750Y69200000D03*
X227918750Y83200000D03*
X227918750Y69200000D03*
D15*
X233218750Y69200000D03*
D14*
X233418750Y75950000D03*
D17*
X219218750Y83200000D03*
X233218750Y83200000D03*
D14*
X233418750Y79350000D03*
X219018750Y79350000D03*
X219018750Y77650000D03*
X233418750Y77650000D03*
D16*
X224518750Y83200000D03*
X224518750Y69200000D03*
%TD*%
D14*
%TO.C,U12*%
X199968750Y95000000D03*
D15*
X200168750Y88250000D03*
D16*
X207168750Y102250000D03*
X207168750Y88250000D03*
X208868750Y102250000D03*
X208868750Y88250000D03*
D15*
X214168750Y88250000D03*
D14*
X214368750Y95000000D03*
D17*
X200168750Y102250000D03*
X214168750Y102250000D03*
D14*
X214368750Y98400000D03*
X199968750Y98400000D03*
X199968750Y96700000D03*
X214368750Y96700000D03*
D16*
X205468750Y102250000D03*
X205468750Y88250000D03*
%TD*%
D14*
%TO.C,U33*%
X276168750Y75950000D03*
D15*
X276368750Y69200000D03*
D16*
X283368750Y83200000D03*
X283368750Y69200000D03*
X285068750Y83200000D03*
X285068750Y69200000D03*
D15*
X290368750Y69200000D03*
D14*
X290568750Y75950000D03*
D17*
X276368750Y83200000D03*
X290368750Y83200000D03*
D14*
X290568750Y79350000D03*
X276168750Y79350000D03*
X276168750Y77650000D03*
X290568750Y77650000D03*
D16*
X281668750Y83200000D03*
X281668750Y69200000D03*
%TD*%
D14*
%TO.C,U86*%
X135675000Y-250000D03*
D15*
X135875000Y-7000000D03*
D16*
X142875000Y7000000D03*
X142875000Y-7000000D03*
X144575000Y7000000D03*
X144575000Y-7000000D03*
D15*
X149875000Y-7000000D03*
D14*
X150075000Y-250000D03*
D17*
X135875000Y7000000D03*
X149875000Y7000000D03*
D14*
X150075000Y3150000D03*
X135675000Y3150000D03*
X135675000Y1450000D03*
X150075000Y1450000D03*
D16*
X141175000Y7000000D03*
X141175000Y-7000000D03*
%TD*%
D14*
%TO.C,U48*%
X228543750Y56900000D03*
D15*
X228743750Y50150000D03*
D16*
X235743750Y64150000D03*
X235743750Y50150000D03*
X237443750Y64150000D03*
X237443750Y50150000D03*
D15*
X242743750Y50150000D03*
D14*
X242943750Y56900000D03*
D17*
X228743750Y64150000D03*
X242743750Y64150000D03*
D14*
X242943750Y60300000D03*
X228543750Y60300000D03*
X228543750Y58600000D03*
X242943750Y58600000D03*
D16*
X234043750Y64150000D03*
X234043750Y50150000D03*
%TD*%
D14*
%TO.C,U80*%
X-7200000Y-250000D03*
D15*
X-7000000Y-7000000D03*
D16*
X0Y7000000D03*
X0Y-7000000D03*
X1700000Y7000000D03*
X1700000Y-7000000D03*
D15*
X7000000Y-7000000D03*
D14*
X7200000Y-250000D03*
D17*
X-7000000Y7000000D03*
X7000000Y7000000D03*
D14*
X7200000Y3150000D03*
X-7200000Y3150000D03*
X-7200000Y1450000D03*
X7200000Y1450000D03*
D16*
X-1700000Y7000000D03*
X-1700000Y-7000000D03*
%TD*%
D14*
%TO.C,U98*%
X314268750Y18800000D03*
D15*
X314468750Y12050000D03*
D16*
X321468750Y26050000D03*
X321468750Y12050000D03*
X323168750Y26050000D03*
X323168750Y12050000D03*
D15*
X328468750Y12050000D03*
D14*
X328668750Y18800000D03*
D17*
X314468750Y26050000D03*
X328468750Y26050000D03*
D14*
X328668750Y22200000D03*
X314268750Y22200000D03*
X314268750Y20500000D03*
X328668750Y20500000D03*
D16*
X319768750Y26050000D03*
X319768750Y12050000D03*
%TD*%
D14*
%TO.C,U49*%
X252356250Y56900000D03*
D15*
X252556250Y50150000D03*
D16*
X259556250Y64150000D03*
X259556250Y50150000D03*
X261256250Y64150000D03*
X261256250Y50150000D03*
D15*
X266556250Y50150000D03*
D14*
X266756250Y56900000D03*
D17*
X252556250Y64150000D03*
X266556250Y64150000D03*
D14*
X266756250Y60300000D03*
X252356250Y60300000D03*
X252356250Y58600000D03*
X266756250Y58600000D03*
D16*
X257856250Y64150000D03*
X257856250Y50150000D03*
%TD*%
D14*
%TO.C,U69*%
X71381250Y18800000D03*
D15*
X71581250Y12050000D03*
D16*
X78581250Y26050000D03*
X78581250Y12050000D03*
X80281250Y26050000D03*
X80281250Y12050000D03*
D15*
X85581250Y12050000D03*
D14*
X85781250Y18800000D03*
D17*
X71581250Y26050000D03*
X85581250Y26050000D03*
D14*
X85781250Y22200000D03*
X71381250Y22200000D03*
X71381250Y20500000D03*
X85781250Y20500000D03*
D16*
X76881250Y26050000D03*
X76881250Y12050000D03*
%TD*%
D14*
%TO.C,U68*%
X52331250Y18800000D03*
D15*
X52531250Y12050000D03*
D16*
X59531250Y26050000D03*
X59531250Y12050000D03*
X61231250Y26050000D03*
X61231250Y12050000D03*
D15*
X66531250Y12050000D03*
D14*
X66731250Y18800000D03*
D17*
X52531250Y26050000D03*
X66531250Y26050000D03*
D14*
X66731250Y22200000D03*
X52331250Y22200000D03*
X52331250Y20500000D03*
X66731250Y20500000D03*
D16*
X57831250Y26050000D03*
X57831250Y12050000D03*
%TD*%
D14*
%TO.C,U26*%
X123768750Y75950000D03*
D15*
X123968750Y69200000D03*
D16*
X130968750Y83200000D03*
X130968750Y69200000D03*
X132668750Y83200000D03*
X132668750Y69200000D03*
D15*
X137968750Y69200000D03*
D14*
X138168750Y75950000D03*
D17*
X123968750Y83200000D03*
X137968750Y83200000D03*
D14*
X138168750Y79350000D03*
X123768750Y79350000D03*
X123768750Y77650000D03*
X138168750Y77650000D03*
D16*
X129268750Y83200000D03*
X129268750Y69200000D03*
%TD*%
D14*
%TO.C,U75*%
X185681250Y18800000D03*
D15*
X185881250Y12050000D03*
D16*
X192881250Y26050000D03*
X192881250Y12050000D03*
X194581250Y26050000D03*
X194581250Y12050000D03*
D15*
X199881250Y12050000D03*
D14*
X200081250Y18800000D03*
D17*
X185881250Y26050000D03*
X199881250Y26050000D03*
D14*
X200081250Y22200000D03*
X185681250Y22200000D03*
X185681250Y20500000D03*
X200081250Y20500000D03*
D16*
X191181250Y26050000D03*
X191181250Y12050000D03*
%TD*%
D14*
%TO.C,U61*%
X157106250Y37850000D03*
D15*
X157306250Y31100000D03*
D16*
X164306250Y45100000D03*
X164306250Y31100000D03*
X166006250Y45100000D03*
X166006250Y31100000D03*
D15*
X171306250Y31100000D03*
D14*
X171506250Y37850000D03*
D17*
X157306250Y45100000D03*
X171306250Y45100000D03*
D14*
X171506250Y41250000D03*
X157106250Y41250000D03*
X157106250Y39550000D03*
X171506250Y39550000D03*
D16*
X162606250Y45100000D03*
X162606250Y31100000D03*
%TD*%
D14*
%TO.C,U21*%
X28518750Y75950000D03*
D15*
X28718750Y69200000D03*
D16*
X35718750Y83200000D03*
X35718750Y69200000D03*
X37418750Y83200000D03*
X37418750Y69200000D03*
D15*
X42718750Y69200000D03*
D14*
X42918750Y75950000D03*
D17*
X28718750Y83200000D03*
X42718750Y83200000D03*
D14*
X42918750Y79350000D03*
X28518750Y79350000D03*
X28518750Y77650000D03*
X42918750Y77650000D03*
D16*
X34018750Y83200000D03*
X34018750Y69200000D03*
%TD*%
D14*
%TO.C,U50*%
X276168750Y56900000D03*
D15*
X276368750Y50150000D03*
D16*
X283368750Y64150000D03*
X283368750Y50150000D03*
X285068750Y64150000D03*
X285068750Y50150000D03*
D15*
X290368750Y50150000D03*
D14*
X290568750Y56900000D03*
D17*
X276368750Y64150000D03*
X290368750Y64150000D03*
D14*
X290568750Y60300000D03*
X276168750Y60300000D03*
X276168750Y58600000D03*
X290568750Y58600000D03*
D16*
X281668750Y64150000D03*
X281668750Y50150000D03*
%TD*%
D14*
%TO.C,U45*%
X171393750Y56900000D03*
D15*
X171593750Y50150000D03*
D16*
X178593750Y64150000D03*
X178593750Y50150000D03*
X180293750Y64150000D03*
X180293750Y50150000D03*
D15*
X185593750Y50150000D03*
D14*
X185793750Y56900000D03*
D17*
X171593750Y64150000D03*
X185593750Y64150000D03*
D14*
X185793750Y60300000D03*
X171393750Y60300000D03*
X171393750Y58600000D03*
X185793750Y58600000D03*
D16*
X176893750Y64150000D03*
X176893750Y50150000D03*
%TD*%
D14*
%TO.C,U41*%
X95193750Y56900000D03*
D15*
X95393750Y50150000D03*
D16*
X102393750Y64150000D03*
X102393750Y50150000D03*
X104093750Y64150000D03*
X104093750Y50150000D03*
D15*
X109393750Y50150000D03*
D14*
X109593750Y56900000D03*
D17*
X95393750Y64150000D03*
X109393750Y64150000D03*
D14*
X109593750Y60300000D03*
X95193750Y60300000D03*
X95193750Y58600000D03*
X109593750Y58600000D03*
D16*
X100693750Y64150000D03*
X100693750Y50150000D03*
%TD*%
D14*
%TO.C,U53*%
X-2437500Y37850000D03*
D15*
X-2237500Y31100000D03*
D16*
X4762500Y45100000D03*
X4762500Y31100000D03*
X6462500Y45100000D03*
X6462500Y31100000D03*
D15*
X11762500Y31100000D03*
D14*
X11962500Y37850000D03*
D17*
X-2237500Y45100000D03*
X11762500Y45100000D03*
D14*
X11962500Y41250000D03*
X-2437500Y41250000D03*
X-2437500Y39550000D03*
X11962500Y39550000D03*
D16*
X3062500Y45100000D03*
X3062500Y31100000D03*
%TD*%
D14*
%TO.C,U27*%
X142818750Y75950000D03*
D15*
X143018750Y69200000D03*
D16*
X150018750Y83200000D03*
X150018750Y69200000D03*
X151718750Y83200000D03*
X151718750Y69200000D03*
D15*
X157018750Y69200000D03*
D14*
X157218750Y75950000D03*
D17*
X143018750Y83200000D03*
X157018750Y83200000D03*
D14*
X157218750Y79350000D03*
X142818750Y79350000D03*
X142818750Y77650000D03*
X157218750Y77650000D03*
D16*
X148318750Y83200000D03*
X148318750Y69200000D03*
%TD*%
D14*
%TO.C,U23*%
X66618750Y75950000D03*
D15*
X66818750Y69200000D03*
D16*
X73818750Y83200000D03*
X73818750Y69200000D03*
X75518750Y83200000D03*
X75518750Y69200000D03*
D15*
X80818750Y69200000D03*
D14*
X81018750Y75950000D03*
D17*
X66818750Y83200000D03*
X80818750Y83200000D03*
D14*
X81018750Y79350000D03*
X66618750Y79350000D03*
X66618750Y77650000D03*
X81018750Y77650000D03*
D16*
X72118750Y83200000D03*
X72118750Y69200000D03*
%TD*%
D14*
%TO.C,U35*%
X314268750Y75950000D03*
D15*
X314468750Y69200000D03*
D16*
X321468750Y83200000D03*
X321468750Y69200000D03*
X323168750Y83200000D03*
X323168750Y69200000D03*
D15*
X328468750Y69200000D03*
D14*
X328668750Y75950000D03*
D17*
X314468750Y83200000D03*
X328468750Y83200000D03*
D14*
X328668750Y79350000D03*
X314268750Y79350000D03*
X314268750Y77650000D03*
X328668750Y77650000D03*
D16*
X319768750Y83200000D03*
X319768750Y69200000D03*
%TD*%
D14*
%TO.C,U87*%
X159487500Y-250000D03*
D15*
X159687500Y-7000000D03*
D16*
X166687500Y7000000D03*
X166687500Y-7000000D03*
X168387500Y7000000D03*
X168387500Y-7000000D03*
D15*
X173687500Y-7000000D03*
D14*
X173887500Y-250000D03*
D17*
X159687500Y7000000D03*
X173687500Y7000000D03*
D14*
X173887500Y3150000D03*
X159487500Y3150000D03*
X159487500Y1450000D03*
X173887500Y1450000D03*
D16*
X164987500Y7000000D03*
X164987500Y-7000000D03*
%TD*%
D14*
%TO.C,U60*%
X138056250Y37850000D03*
D15*
X138256250Y31100000D03*
D16*
X145256250Y45100000D03*
X145256250Y31100000D03*
X146956250Y45100000D03*
X146956250Y31100000D03*
D15*
X152256250Y31100000D03*
D14*
X152456250Y37850000D03*
D17*
X138256250Y45100000D03*
X152256250Y45100000D03*
D14*
X152456250Y41250000D03*
X138056250Y41250000D03*
X138056250Y39550000D03*
X152456250Y39550000D03*
D16*
X143556250Y45100000D03*
X143556250Y31100000D03*
%TD*%
D14*
%TO.C,U16*%
X276168750Y95000000D03*
D15*
X276368750Y88250000D03*
D16*
X283368750Y102250000D03*
X283368750Y88250000D03*
X285068750Y102250000D03*
X285068750Y88250000D03*
D15*
X290368750Y88250000D03*
D14*
X290568750Y95000000D03*
D17*
X276368750Y102250000D03*
X290368750Y102250000D03*
D14*
X290568750Y98400000D03*
X276168750Y98400000D03*
X276168750Y96700000D03*
X290568750Y96700000D03*
D16*
X281668750Y102250000D03*
X281668750Y88250000D03*
%TD*%
D14*
%TO.C,U58*%
X99956250Y37850000D03*
D15*
X100156250Y31100000D03*
D16*
X107156250Y45100000D03*
X107156250Y31100000D03*
X108856250Y45100000D03*
X108856250Y31100000D03*
D15*
X114156250Y31100000D03*
D14*
X114356250Y37850000D03*
D17*
X100156250Y45100000D03*
X114156250Y45100000D03*
D14*
X114356250Y41250000D03*
X99956250Y41250000D03*
X99956250Y39550000D03*
X114356250Y39550000D03*
D16*
X105456250Y45100000D03*
X105456250Y31100000D03*
%TD*%
D14*
%TO.C,U46*%
X190443750Y56900000D03*
D15*
X190643750Y50150000D03*
D16*
X197643750Y64150000D03*
X197643750Y50150000D03*
X199343750Y64150000D03*
X199343750Y50150000D03*
D15*
X204643750Y50150000D03*
D14*
X204843750Y56900000D03*
D17*
X190643750Y64150000D03*
X204643750Y64150000D03*
D14*
X204843750Y60300000D03*
X190443750Y60300000D03*
X190443750Y58600000D03*
X204843750Y58600000D03*
D16*
X195943750Y64150000D03*
X195943750Y50150000D03*
%TD*%
D14*
%TO.C,U36*%
X-4818750Y56900000D03*
D15*
X-4618750Y50150000D03*
D16*
X2381250Y64150000D03*
X2381250Y50150000D03*
X4081250Y64150000D03*
X4081250Y50150000D03*
D15*
X9381250Y50150000D03*
D14*
X9581250Y56900000D03*
D17*
X-4618750Y64150000D03*
X9381250Y64150000D03*
D14*
X9581250Y60300000D03*
X-4818750Y60300000D03*
X-4818750Y58600000D03*
X9581250Y58600000D03*
D16*
X681250Y64150000D03*
X681250Y50150000D03*
%TD*%
D14*
%TO.C,U94*%
X295218750Y-250000D03*
D15*
X295418750Y-7000000D03*
D16*
X302418750Y7000000D03*
X302418750Y-7000000D03*
X304118750Y7000000D03*
X304118750Y-7000000D03*
D15*
X309418750Y-7000000D03*
D14*
X309618750Y-250000D03*
D17*
X295418750Y7000000D03*
X309418750Y7000000D03*
D14*
X309618750Y3150000D03*
X295218750Y3150000D03*
X295218750Y1450000D03*
X309618750Y1450000D03*
D16*
X300718750Y7000000D03*
X300718750Y-7000000D03*
%TD*%
D14*
%TO.C,U40*%
X76143750Y56900000D03*
D15*
X76343750Y50150000D03*
D16*
X83343750Y64150000D03*
X83343750Y50150000D03*
X85043750Y64150000D03*
X85043750Y50150000D03*
D15*
X90343750Y50150000D03*
D14*
X90543750Y56900000D03*
D17*
X76343750Y64150000D03*
X90343750Y64150000D03*
D14*
X90543750Y60300000D03*
X76143750Y60300000D03*
X76143750Y58600000D03*
X90543750Y58600000D03*
D16*
X81643750Y64150000D03*
X81643750Y50150000D03*
%TD*%
D14*
%TO.C,U3*%
X276168750Y37850000D03*
D15*
X276368750Y31100000D03*
D16*
X283368750Y45100000D03*
X283368750Y31100000D03*
X285068750Y45100000D03*
X285068750Y31100000D03*
D15*
X290368750Y31100000D03*
D14*
X290568750Y37850000D03*
D17*
X276368750Y45100000D03*
X290368750Y45100000D03*
D14*
X290568750Y41250000D03*
X276168750Y41250000D03*
X276168750Y39550000D03*
X290568750Y39550000D03*
D16*
X281668750Y45100000D03*
X281668750Y31100000D03*
%TD*%
D14*
%TO.C,U25*%
X104718750Y75950000D03*
D15*
X104918750Y69200000D03*
D16*
X111918750Y83200000D03*
X111918750Y69200000D03*
X113618750Y83200000D03*
X113618750Y69200000D03*
D15*
X118918750Y69200000D03*
D14*
X119118750Y75950000D03*
D17*
X104918750Y83200000D03*
X118918750Y83200000D03*
D14*
X119118750Y79350000D03*
X104718750Y79350000D03*
X104718750Y77650000D03*
X119118750Y77650000D03*
D16*
X110218750Y83200000D03*
X110218750Y69200000D03*
%TD*%
D14*
%TO.C,U43*%
X133293750Y56900000D03*
D15*
X133493750Y50150000D03*
D16*
X140493750Y64150000D03*
X140493750Y50150000D03*
X142193750Y64150000D03*
X142193750Y50150000D03*
D15*
X147493750Y50150000D03*
D14*
X147693750Y56900000D03*
D17*
X133493750Y64150000D03*
X147493750Y64150000D03*
D14*
X147693750Y60300000D03*
X133293750Y60300000D03*
X133293750Y58600000D03*
X147693750Y58600000D03*
D16*
X138793750Y64150000D03*
X138793750Y50150000D03*
%TD*%
D14*
%TO.C,U59*%
X119006250Y37850000D03*
D15*
X119206250Y31100000D03*
D16*
X126206250Y45100000D03*
X126206250Y31100000D03*
X127906250Y45100000D03*
X127906250Y31100000D03*
D15*
X133206250Y31100000D03*
D14*
X133406250Y37850000D03*
D17*
X119206250Y45100000D03*
X133206250Y45100000D03*
D14*
X133406250Y41250000D03*
X119006250Y41250000D03*
X119006250Y39550000D03*
X133406250Y39550000D03*
D16*
X124506250Y45100000D03*
X124506250Y31100000D03*
%TD*%
D14*
%TO.C,U57*%
X80906250Y37850000D03*
D15*
X81106250Y31100000D03*
D16*
X88106250Y45100000D03*
X88106250Y31100000D03*
X89806250Y45100000D03*
X89806250Y31100000D03*
D15*
X95106250Y31100000D03*
D14*
X95306250Y37850000D03*
D17*
X81106250Y45100000D03*
X95106250Y45100000D03*
D14*
X95306250Y41250000D03*
X80906250Y41250000D03*
X80906250Y39550000D03*
X95306250Y39550000D03*
D16*
X86406250Y45100000D03*
X86406250Y31100000D03*
%TD*%
D14*
%TO.C,U17*%
X295218750Y95000000D03*
D15*
X295418750Y88250000D03*
D16*
X302418750Y102250000D03*
X302418750Y88250000D03*
X304118750Y102250000D03*
X304118750Y88250000D03*
D15*
X309418750Y88250000D03*
D14*
X309618750Y95000000D03*
D17*
X295418750Y102250000D03*
X309418750Y102250000D03*
D14*
X309618750Y98400000D03*
X295218750Y98400000D03*
X295218750Y96700000D03*
X309618750Y96700000D03*
D16*
X300718750Y102250000D03*
X300718750Y88250000D03*
%TD*%
D14*
%TO.C,U83*%
X64237500Y-250000D03*
D15*
X64437500Y-7000000D03*
D16*
X71437500Y7000000D03*
X71437500Y-7000000D03*
X73137500Y7000000D03*
X73137500Y-7000000D03*
D15*
X78437500Y-7000000D03*
D14*
X78637500Y-250000D03*
D17*
X64437500Y7000000D03*
X78437500Y7000000D03*
D14*
X78637500Y3150000D03*
X64237500Y3150000D03*
X64237500Y1450000D03*
X78637500Y1450000D03*
D16*
X69737500Y7000000D03*
X69737500Y-7000000D03*
%TD*%
D14*
%TO.C,U56*%
X61856250Y37850000D03*
D15*
X62056250Y31100000D03*
D16*
X69056250Y45100000D03*
X69056250Y31100000D03*
X70756250Y45100000D03*
X70756250Y31100000D03*
D15*
X76056250Y31100000D03*
D14*
X76256250Y37850000D03*
D17*
X62056250Y45100000D03*
X76056250Y45100000D03*
D14*
X76256250Y41250000D03*
X61856250Y41250000D03*
X61856250Y39550000D03*
X76256250Y39550000D03*
D16*
X67356250Y45100000D03*
X67356250Y31100000D03*
%TD*%
D14*
%TO.C,U20*%
X9468750Y75950000D03*
D15*
X9668750Y69200000D03*
D16*
X16668750Y83200000D03*
X16668750Y69200000D03*
X18368750Y83200000D03*
X18368750Y69200000D03*
D15*
X23668750Y69200000D03*
D14*
X23868750Y75950000D03*
D17*
X9668750Y83200000D03*
X23668750Y83200000D03*
D14*
X23868750Y79350000D03*
X9468750Y79350000D03*
X9468750Y77650000D03*
X23868750Y77650000D03*
D16*
X14968750Y83200000D03*
X14968750Y69200000D03*
%TD*%
D14*
%TO.C,U89*%
X183300000Y-250000D03*
D15*
X183500000Y-7000000D03*
D16*
X190500000Y7000000D03*
X190500000Y-7000000D03*
X192200000Y7000000D03*
X192200000Y-7000000D03*
D15*
X197500000Y-7000000D03*
D14*
X197700000Y-250000D03*
D17*
X183500000Y7000000D03*
X197500000Y7000000D03*
D14*
X197700000Y3150000D03*
X183300000Y3150000D03*
X183300000Y1450000D03*
X197700000Y1450000D03*
D16*
X188800000Y7000000D03*
X188800000Y-7000000D03*
%TD*%
D14*
%TO.C,U30*%
X199968750Y75950000D03*
D15*
X200168750Y69200000D03*
D16*
X207168750Y83200000D03*
X207168750Y69200000D03*
X208868750Y83200000D03*
X208868750Y69200000D03*
D15*
X214168750Y69200000D03*
D14*
X214368750Y75950000D03*
D17*
X200168750Y83200000D03*
X214168750Y83200000D03*
D14*
X214368750Y79350000D03*
X199968750Y79350000D03*
X199968750Y77650000D03*
X214368750Y77650000D03*
D16*
X205468750Y83200000D03*
X205468750Y69200000D03*
%TD*%
D14*
%TO.C,U66*%
X2325000Y18800000D03*
D15*
X2525000Y12050000D03*
D16*
X9525000Y26050000D03*
X9525000Y12050000D03*
X11225000Y26050000D03*
X11225000Y12050000D03*
D15*
X16525000Y12050000D03*
D14*
X16725000Y18800000D03*
D17*
X2525000Y26050000D03*
X16525000Y26050000D03*
D14*
X16725000Y22200000D03*
X2325000Y22200000D03*
X2325000Y20500000D03*
X16725000Y20500000D03*
D16*
X7825000Y26050000D03*
X7825000Y12050000D03*
%TD*%
D14*
%TO.C,U85*%
X111862500Y-250000D03*
D15*
X112062500Y-7000000D03*
D16*
X119062500Y7000000D03*
X119062500Y-7000000D03*
X120762500Y7000000D03*
X120762500Y-7000000D03*
D15*
X126062500Y-7000000D03*
D14*
X126262500Y-250000D03*
D17*
X112062500Y7000000D03*
X126062500Y7000000D03*
D14*
X126262500Y3150000D03*
X111862500Y3150000D03*
X111862500Y1450000D03*
X126262500Y1450000D03*
D16*
X117362500Y7000000D03*
X117362500Y-7000000D03*
%TD*%
D14*
%TO.C,U32*%
X247593750Y75950000D03*
D15*
X247793750Y69200000D03*
D16*
X254793750Y83200000D03*
X254793750Y69200000D03*
X256493750Y83200000D03*
X256493750Y69200000D03*
D15*
X261793750Y69200000D03*
D14*
X261993750Y75950000D03*
D17*
X247793750Y83200000D03*
X261793750Y83200000D03*
D14*
X261993750Y79350000D03*
X247593750Y79350000D03*
X247593750Y77650000D03*
X261993750Y77650000D03*
D16*
X253093750Y83200000D03*
X253093750Y69200000D03*
%TD*%
D14*
%TO.C,U67*%
X33281250Y18800000D03*
D15*
X33481250Y12050000D03*
D16*
X40481250Y26050000D03*
X40481250Y12050000D03*
X42181250Y26050000D03*
X42181250Y12050000D03*
D15*
X47481250Y12050000D03*
D14*
X47681250Y18800000D03*
D17*
X33481250Y26050000D03*
X47481250Y26050000D03*
D14*
X47681250Y22200000D03*
X33281250Y22200000D03*
X33281250Y20500000D03*
X47681250Y20500000D03*
D16*
X38781250Y26050000D03*
X38781250Y12050000D03*
%TD*%
D14*
%TO.C,U18*%
X314268750Y95000000D03*
D15*
X314468750Y88250000D03*
D16*
X321468750Y102250000D03*
X321468750Y88250000D03*
X323168750Y102250000D03*
X323168750Y88250000D03*
D15*
X328468750Y88250000D03*
D14*
X328668750Y95000000D03*
D17*
X314468750Y102250000D03*
X328468750Y102250000D03*
D14*
X328668750Y98400000D03*
X314268750Y98400000D03*
X314268750Y96700000D03*
X328668750Y96700000D03*
D16*
X319768750Y102250000D03*
X319768750Y88250000D03*
%TD*%
D14*
%TO.C,U84*%
X88050000Y-250000D03*
D15*
X88250000Y-7000000D03*
D16*
X95250000Y7000000D03*
X95250000Y-7000000D03*
X96950000Y7000000D03*
X96950000Y-7000000D03*
D15*
X102250000Y-7000000D03*
D14*
X102450000Y-250000D03*
D17*
X88250000Y7000000D03*
X102250000Y7000000D03*
D14*
X102450000Y3150000D03*
X88050000Y3150000D03*
X88050000Y1450000D03*
X102450000Y1450000D03*
D16*
X93550000Y7000000D03*
X93550000Y-7000000D03*
%TD*%
D14*
%TO.C,U14*%
X238068750Y95000000D03*
D15*
X238268750Y88250000D03*
D16*
X245268750Y102250000D03*
X245268750Y88250000D03*
X246968750Y102250000D03*
X246968750Y88250000D03*
D15*
X252268750Y88250000D03*
D14*
X252468750Y95000000D03*
D17*
X238268750Y102250000D03*
X252268750Y102250000D03*
D14*
X252468750Y98400000D03*
X238068750Y98400000D03*
X238068750Y96700000D03*
X252468750Y96700000D03*
D16*
X243568750Y102250000D03*
X243568750Y88250000D03*
%TD*%
D14*
%TO.C,U81*%
X16612500Y-250000D03*
D15*
X16812500Y-7000000D03*
D16*
X23812500Y7000000D03*
X23812500Y-7000000D03*
X25512500Y7000000D03*
X25512500Y-7000000D03*
D15*
X30812500Y-7000000D03*
D14*
X31012500Y-250000D03*
D17*
X16812500Y7000000D03*
X30812500Y7000000D03*
D14*
X31012500Y3150000D03*
X16612500Y3150000D03*
X16612500Y1450000D03*
X31012500Y1450000D03*
D16*
X22112500Y7000000D03*
X22112500Y-7000000D03*
%TD*%
D14*
%TO.C,U74*%
X166631250Y18800000D03*
D15*
X166831250Y12050000D03*
D16*
X173831250Y26050000D03*
X173831250Y12050000D03*
X175531250Y26050000D03*
X175531250Y12050000D03*
D15*
X180831250Y12050000D03*
D14*
X181031250Y18800000D03*
D17*
X166831250Y26050000D03*
X180831250Y26050000D03*
D14*
X181031250Y22200000D03*
X166631250Y22200000D03*
X166631250Y20500000D03*
X181031250Y20500000D03*
D16*
X172131250Y26050000D03*
X172131250Y12050000D03*
%TD*%
D14*
%TO.C,U88*%
X295218750Y37850000D03*
D15*
X295418750Y31100000D03*
D16*
X302418750Y45100000D03*
X302418750Y31100000D03*
X304118750Y45100000D03*
X304118750Y31100000D03*
D15*
X309418750Y31100000D03*
D14*
X309618750Y37850000D03*
D17*
X295418750Y45100000D03*
X309418750Y45100000D03*
D14*
X309618750Y41250000D03*
X295218750Y41250000D03*
X295218750Y39550000D03*
X309618750Y39550000D03*
D16*
X300718750Y45100000D03*
X300718750Y31100000D03*
%TD*%
D14*
%TO.C,U51*%
X295218750Y56900000D03*
D15*
X295418750Y50150000D03*
D16*
X302418750Y64150000D03*
X302418750Y50150000D03*
X304118750Y64150000D03*
X304118750Y50150000D03*
D15*
X309418750Y50150000D03*
D14*
X309618750Y56900000D03*
D17*
X295418750Y64150000D03*
X309418750Y64150000D03*
D14*
X309618750Y60300000D03*
X295218750Y60300000D03*
X295218750Y58600000D03*
X309618750Y58600000D03*
D16*
X300718750Y64150000D03*
X300718750Y50150000D03*
%TD*%
D14*
%TO.C,U13*%
X219018750Y95000000D03*
D15*
X219218750Y88250000D03*
D16*
X226218750Y102250000D03*
X226218750Y88250000D03*
X227918750Y102250000D03*
X227918750Y88250000D03*
D15*
X233218750Y88250000D03*
D14*
X233418750Y95000000D03*
D17*
X219218750Y102250000D03*
X233218750Y102250000D03*
D14*
X233418750Y98400000D03*
X219018750Y98400000D03*
X219018750Y96700000D03*
X233418750Y96700000D03*
D16*
X224518750Y102250000D03*
X224518750Y88250000D03*
%TD*%
D14*
%TO.C,U28*%
X161868750Y75950000D03*
D15*
X162068750Y69200000D03*
D16*
X169068750Y83200000D03*
X169068750Y69200000D03*
X170768750Y83200000D03*
X170768750Y69200000D03*
D15*
X176068750Y69200000D03*
D14*
X176268750Y75950000D03*
D17*
X162068750Y83200000D03*
X176068750Y83200000D03*
D14*
X176268750Y79350000D03*
X161868750Y79350000D03*
X161868750Y77650000D03*
X176268750Y77650000D03*
D16*
X167368750Y83200000D03*
X167368750Y69200000D03*
%TD*%
D14*
%TO.C,U10*%
X157106250Y95000000D03*
D15*
X157306250Y88250000D03*
D16*
X164306250Y102250000D03*
X164306250Y88250000D03*
X166006250Y102250000D03*
X166006250Y88250000D03*
D15*
X171306250Y88250000D03*
D14*
X171506250Y95000000D03*
D17*
X157306250Y102250000D03*
X171306250Y102250000D03*
D14*
X171506250Y98400000D03*
X157106250Y98400000D03*
X157106250Y96700000D03*
X171506250Y96700000D03*
D16*
X162606250Y102250000D03*
X162606250Y88250000D03*
%TD*%
D14*
%TO.C,U96*%
X314268750Y37850000D03*
D15*
X314468750Y31100000D03*
D16*
X321468750Y45100000D03*
X321468750Y31100000D03*
X323168750Y45100000D03*
X323168750Y31100000D03*
D15*
X328468750Y31100000D03*
D14*
X328668750Y37850000D03*
D17*
X314468750Y45100000D03*
X328468750Y45100000D03*
D14*
X328668750Y41250000D03*
X314268750Y41250000D03*
X314268750Y39550000D03*
X328668750Y39550000D03*
D16*
X319768750Y45100000D03*
X319768750Y31100000D03*
%TD*%
D14*
%TO.C,U95*%
X314268750Y-250000D03*
D15*
X314468750Y-7000000D03*
D16*
X321468750Y7000000D03*
X321468750Y-7000000D03*
X323168750Y7000000D03*
X323168750Y-7000000D03*
D15*
X328468750Y-7000000D03*
D14*
X328668750Y-250000D03*
D17*
X314468750Y7000000D03*
X328468750Y7000000D03*
D14*
X328668750Y3150000D03*
X314268750Y3150000D03*
X314268750Y1450000D03*
X328668750Y1450000D03*
D16*
X319768750Y7000000D03*
X319768750Y-7000000D03*
%TD*%
D14*
%TO.C,U2*%
X-9581250Y95000000D03*
D15*
X-9381250Y88250000D03*
D16*
X-2381250Y102250000D03*
X-2381250Y88250000D03*
X-681250Y102250000D03*
X-681250Y88250000D03*
D15*
X4618750Y88250000D03*
D14*
X4818750Y95000000D03*
D17*
X-9381250Y102250000D03*
X4618750Y102250000D03*
D14*
X4818750Y98400000D03*
X-9581250Y98400000D03*
X-9581250Y96700000D03*
X4818750Y96700000D03*
D16*
X-4081250Y102250000D03*
X-4081250Y88250000D03*
%TD*%
D14*
%TO.C,U54*%
X23756250Y37850000D03*
D15*
X23956250Y31100000D03*
D16*
X30956250Y45100000D03*
X30956250Y31100000D03*
X32656250Y45100000D03*
X32656250Y31100000D03*
D15*
X37956250Y31100000D03*
D14*
X38156250Y37850000D03*
D17*
X23956250Y45100000D03*
X37956250Y45100000D03*
D14*
X38156250Y41250000D03*
X23756250Y41250000D03*
X23756250Y39550000D03*
X38156250Y39550000D03*
D16*
X29256250Y45100000D03*
X29256250Y31100000D03*
%TD*%
D14*
%TO.C,U70*%
X90431250Y18800000D03*
D15*
X90631250Y12050000D03*
D16*
X97631250Y26050000D03*
X97631250Y12050000D03*
X99331250Y26050000D03*
X99331250Y12050000D03*
D15*
X104631250Y12050000D03*
D14*
X104831250Y18800000D03*
D17*
X90631250Y26050000D03*
X104631250Y26050000D03*
D14*
X104831250Y22200000D03*
X90431250Y22200000D03*
X90431250Y20500000D03*
X104831250Y20500000D03*
D16*
X95931250Y26050000D03*
X95931250Y12050000D03*
%TD*%
D14*
%TO.C,U8*%
X119006250Y95000000D03*
D15*
X119206250Y88250000D03*
D16*
X126206250Y102250000D03*
X126206250Y88250000D03*
X127906250Y102250000D03*
X127906250Y88250000D03*
D15*
X133206250Y88250000D03*
D14*
X133406250Y95000000D03*
D17*
X119206250Y102250000D03*
X133206250Y102250000D03*
D14*
X133406250Y98400000D03*
X119006250Y98400000D03*
X119006250Y96700000D03*
X133406250Y96700000D03*
D16*
X124506250Y102250000D03*
X124506250Y88250000D03*
%TD*%
D14*
%TO.C,U29*%
X180918750Y75950000D03*
D15*
X181118750Y69200000D03*
D16*
X188118750Y83200000D03*
X188118750Y69200000D03*
X189818750Y83200000D03*
X189818750Y69200000D03*
D15*
X195118750Y69200000D03*
D14*
X195318750Y75950000D03*
D17*
X181118750Y83200000D03*
X195118750Y83200000D03*
D14*
X195318750Y79350000D03*
X180918750Y79350000D03*
X180918750Y77650000D03*
X195318750Y77650000D03*
D16*
X186418750Y83200000D03*
X186418750Y69200000D03*
%TD*%
D14*
%TO.C,U52*%
X314268750Y56900000D03*
D15*
X314468750Y50150000D03*
D16*
X321468750Y64150000D03*
X321468750Y50150000D03*
X323168750Y64150000D03*
X323168750Y50150000D03*
D15*
X328468750Y50150000D03*
D14*
X328668750Y56900000D03*
D17*
X314468750Y64150000D03*
X328468750Y64150000D03*
D14*
X328668750Y60300000D03*
X314268750Y60300000D03*
X314268750Y58600000D03*
X328668750Y58600000D03*
D16*
X319768750Y64150000D03*
X319768750Y50150000D03*
%TD*%
D14*
%TO.C,U5*%
X57093750Y95000000D03*
D15*
X57293750Y88250000D03*
D16*
X64293750Y102250000D03*
X64293750Y88250000D03*
X65993750Y102250000D03*
X65993750Y88250000D03*
D15*
X71293750Y88250000D03*
D14*
X71493750Y95000000D03*
D17*
X57293750Y102250000D03*
X71293750Y102250000D03*
D14*
X71493750Y98400000D03*
X57093750Y98400000D03*
X57093750Y96700000D03*
X71493750Y96700000D03*
D16*
X62593750Y102250000D03*
X62593750Y88250000D03*
%TD*%
D14*
%TO.C,U78*%
X249975000Y18800000D03*
D15*
X250175000Y12050000D03*
D16*
X257175000Y26050000D03*
X257175000Y12050000D03*
X258875000Y26050000D03*
X258875000Y12050000D03*
D15*
X264175000Y12050000D03*
D14*
X264375000Y18800000D03*
D17*
X250175000Y26050000D03*
X264175000Y26050000D03*
D14*
X264375000Y22200000D03*
X249975000Y22200000D03*
X249975000Y20500000D03*
X264375000Y20500000D03*
D16*
X255475000Y26050000D03*
X255475000Y12050000D03*
%TD*%
D14*
%TO.C,U37*%
X18993750Y56900000D03*
D15*
X19193750Y50150000D03*
D16*
X26193750Y64150000D03*
X26193750Y50150000D03*
X27893750Y64150000D03*
X27893750Y50150000D03*
D15*
X33193750Y50150000D03*
D14*
X33393750Y56900000D03*
D17*
X19193750Y64150000D03*
X33193750Y64150000D03*
D14*
X33393750Y60300000D03*
X18993750Y60300000D03*
X18993750Y58600000D03*
X33393750Y58600000D03*
D16*
X24493750Y64150000D03*
X24493750Y50150000D03*
%TD*%
D14*
%TO.C,U97*%
X276168750Y18800000D03*
D15*
X276368750Y12050000D03*
D16*
X283368750Y26050000D03*
X283368750Y12050000D03*
X285068750Y26050000D03*
X285068750Y12050000D03*
D15*
X290368750Y12050000D03*
D14*
X290568750Y18800000D03*
D17*
X276368750Y26050000D03*
X290368750Y26050000D03*
D14*
X290568750Y22200000D03*
X276168750Y22200000D03*
X276168750Y20500000D03*
X290568750Y20500000D03*
D16*
X281668750Y26050000D03*
X281668750Y12050000D03*
%TD*%
D14*
%TO.C,U77*%
X223781250Y18800000D03*
D15*
X223981250Y12050000D03*
D16*
X230981250Y26050000D03*
X230981250Y12050000D03*
X232681250Y26050000D03*
X232681250Y12050000D03*
D15*
X237981250Y12050000D03*
D14*
X238181250Y18800000D03*
D17*
X223981250Y26050000D03*
X237981250Y26050000D03*
D14*
X238181250Y22200000D03*
X223781250Y22200000D03*
X223781250Y20500000D03*
X238181250Y20500000D03*
D16*
X229281250Y26050000D03*
X229281250Y12050000D03*
%TD*%
D14*
%TO.C,U42*%
X114243750Y56900000D03*
D15*
X114443750Y50150000D03*
D16*
X121443750Y64150000D03*
X121443750Y50150000D03*
X123143750Y64150000D03*
X123143750Y50150000D03*
D15*
X128443750Y50150000D03*
D14*
X128643750Y56900000D03*
D17*
X114443750Y64150000D03*
X128443750Y64150000D03*
D14*
X128643750Y60300000D03*
X114243750Y60300000D03*
X114243750Y58600000D03*
X128643750Y58600000D03*
D16*
X119743750Y64150000D03*
X119743750Y50150000D03*
%TD*%
D14*
%TO.C,U71*%
X109481250Y18800000D03*
D15*
X109681250Y12050000D03*
D16*
X116681250Y26050000D03*
X116681250Y12050000D03*
X118381250Y26050000D03*
X118381250Y12050000D03*
D15*
X123681250Y12050000D03*
D14*
X123881250Y18800000D03*
D17*
X109681250Y26050000D03*
X123681250Y26050000D03*
D14*
X123881250Y22200000D03*
X109481250Y22200000D03*
X109481250Y20500000D03*
X123881250Y20500000D03*
D16*
X114981250Y26050000D03*
X114981250Y12050000D03*
%TD*%
D14*
%TO.C,U47*%
X209493750Y56900000D03*
D15*
X209693750Y50150000D03*
D16*
X216693750Y64150000D03*
X216693750Y50150000D03*
X218393750Y64150000D03*
X218393750Y50150000D03*
D15*
X223693750Y50150000D03*
D14*
X223893750Y56900000D03*
D17*
X209693750Y64150000D03*
X223693750Y64150000D03*
D14*
X223893750Y60300000D03*
X209493750Y60300000D03*
X209493750Y58600000D03*
X223893750Y58600000D03*
D16*
X214993750Y64150000D03*
X214993750Y50150000D03*
%TD*%
D14*
%TO.C,U64*%
X215208750Y38008750D03*
D15*
X215408750Y31258750D03*
D16*
X222408750Y45258750D03*
X222408750Y31258750D03*
X224108750Y45258750D03*
X224108750Y31258750D03*
D15*
X229408750Y31258750D03*
D14*
X229608750Y38008750D03*
D17*
X215408750Y45258750D03*
X229408750Y45258750D03*
D14*
X229608750Y41408750D03*
X215208750Y41408750D03*
X215208750Y39708750D03*
X229608750Y39708750D03*
D16*
X220708750Y45258750D03*
X220708750Y31258750D03*
%TD*%
D14*
%TO.C,U38*%
X38043750Y56900000D03*
D15*
X38243750Y50150000D03*
D16*
X45243750Y64150000D03*
X45243750Y50150000D03*
X46943750Y64150000D03*
X46943750Y50150000D03*
D15*
X52243750Y50150000D03*
D14*
X52443750Y56900000D03*
D17*
X38243750Y64150000D03*
X52243750Y64150000D03*
D14*
X52443750Y60300000D03*
X38043750Y60300000D03*
X38043750Y58600000D03*
X52443750Y58600000D03*
D16*
X43543750Y64150000D03*
X43543750Y50150000D03*
%TD*%
D14*
%TO.C,U72*%
X128531250Y18800000D03*
D15*
X128731250Y12050000D03*
D16*
X135731250Y26050000D03*
X135731250Y12050000D03*
X137431250Y26050000D03*
X137431250Y12050000D03*
D15*
X142731250Y12050000D03*
D14*
X142931250Y18800000D03*
D17*
X128731250Y26050000D03*
X142731250Y26050000D03*
D14*
X142931250Y22200000D03*
X128531250Y22200000D03*
X128531250Y20500000D03*
X142931250Y20500000D03*
D16*
X134031250Y26050000D03*
X134031250Y12050000D03*
%TD*%
D14*
%TO.C,U9*%
X138056250Y95000000D03*
D15*
X138256250Y88250000D03*
D16*
X145256250Y102250000D03*
X145256250Y88250000D03*
X146956250Y102250000D03*
X146956250Y88250000D03*
D15*
X152256250Y88250000D03*
D14*
X152456250Y95000000D03*
D17*
X138256250Y102250000D03*
X152256250Y102250000D03*
D14*
X152456250Y98400000D03*
X138056250Y98400000D03*
X138056250Y96700000D03*
X152456250Y96700000D03*
D16*
X143556250Y102250000D03*
X143556250Y88250000D03*
%TD*%
D14*
%TO.C,U62*%
X176156250Y37850000D03*
D15*
X176356250Y31100000D03*
D16*
X183356250Y45100000D03*
X183356250Y31100000D03*
X185056250Y45100000D03*
X185056250Y31100000D03*
D15*
X190356250Y31100000D03*
D14*
X190556250Y37850000D03*
D17*
X176356250Y45100000D03*
X190356250Y45100000D03*
D14*
X190556250Y41250000D03*
X176156250Y41250000D03*
X176156250Y39550000D03*
X190556250Y39550000D03*
D16*
X181656250Y45100000D03*
X181656250Y31100000D03*
%TD*%
D14*
%TO.C,U93*%
X276168750Y-250000D03*
D15*
X276368750Y-7000000D03*
D16*
X283368750Y7000000D03*
X283368750Y-7000000D03*
X285068750Y7000000D03*
X285068750Y-7000000D03*
D15*
X290368750Y-7000000D03*
D14*
X290568750Y-250000D03*
D17*
X276368750Y7000000D03*
X290368750Y7000000D03*
D14*
X290568750Y3150000D03*
X276168750Y3150000D03*
X276168750Y1450000D03*
X290568750Y1450000D03*
D16*
X281668750Y7000000D03*
X281668750Y-7000000D03*
%TD*%
D14*
%TO.C,U73*%
X147581250Y18800000D03*
D15*
X147781250Y12050000D03*
D16*
X154781250Y26050000D03*
X154781250Y12050000D03*
X156481250Y26050000D03*
X156481250Y12050000D03*
D15*
X161781250Y12050000D03*
D14*
X161981250Y18800000D03*
D17*
X147781250Y26050000D03*
X161781250Y26050000D03*
D14*
X161981250Y22200000D03*
X147581250Y22200000D03*
X147581250Y20500000D03*
X161981250Y20500000D03*
D16*
X153081250Y26050000D03*
X153081250Y12050000D03*
%TD*%
D18*
%TO.C,REF\u002A\u002A*%
X-2375000Y26035000D03*
D19*
X-2375000Y10795000D03*
D18*
X21425000Y26035000D03*
D19*
X21425000Y10795000D03*
%TD*%
D20*
%TO.C,REF\u002A\u002A*%
X273050000Y-3000000D03*
%TD*%
%TO.C,REF\u002A\u002A*%
X327660000Y106500000D03*
%TD*%
%TO.C,REF\u002A\u002A*%
X271462500Y53578125D03*
%TD*%
%TO.C,REF\u002A\u002A*%
X-7500000Y106500000D03*
%TD*%
%TO.C,REF\u002A\u002A*%
X12700000Y-3000000D03*
%TD*%
%TO.C,REF\u002A\u002A*%
X140493750Y72628125D03*
%TD*%
%TO.C,REF\u002A\u002A*%
X78581250Y34528125D03*
%TD*%
%TO.C,REF\u002A\u002A*%
X130810000Y-3000000D03*
%TD*%
%TO.C,REF\u002A\u002A*%
X14287500Y54768750D03*
%TD*%
D18*
%TO.C,REF\u002A\u002A*%
X240512500Y45085000D03*
D19*
X240512500Y29845000D03*
D18*
X264312500Y45085000D03*
D19*
X264312500Y29845000D03*
%TD*%
D18*
%TO.C,REF\u002A\u002A*%
X242893750Y83185000D03*
D19*
X242893750Y67945000D03*
D18*
X266693750Y83185000D03*
D19*
X266693750Y67945000D03*
%TD*%
%LPD*%
M02*
