%TF.GenerationSoftware,KiCad,Pcbnew,7.0.2*%
%TF.CreationDate,2023-05-08T20:33:36+02:00*%
%TF.ProjectId,verasity_PCB,76657261-7369-4747-995f-5043422e6b69,rev?*%
%TF.SameCoordinates,Original*%
%TF.FileFunction,Drillmap*%
%TF.FilePolarity,Positive*%
%FSLAX45Y45*%
G04 Gerber Fmt 4.5, Leading zero omitted, Abs format (unit mm)*
G04 Created by KiCad (PCBNEW 7.0.2) date 2023-05-08 20:33:36*
%MOMM*%
%LPD*%
G01*
G04 APERTURE LIST*
%ADD10C,0.010000*%
%ADD11C,0.200000*%
%ADD12C,0.220000*%
%ADD13C,0.304800*%
%ADD14C,0.398780*%
G04 APERTURE END LIST*
D10*
X-1190625Y-714375D02*
G75*
G03*
X-952500Y-952500I238125J0D01*
G01*
X-952500Y10953750D02*
G75*
G03*
X-1190625Y10715625I0J-238125D01*
G01*
X33099375Y10715625D02*
G75*
G03*
X32861250Y10953750I-238125J0D01*
G01*
X32861250Y-952500D02*
G75*
G03*
X33099375Y-714375I0J238125D01*
G01*
X32861250Y-952500D02*
X-952500Y-952500D01*
X33099375Y10715625D02*
X33099400Y-714375D01*
X-1190625Y-714375D02*
X-1190625Y10715625D01*
X-952500Y10953750D02*
X32861250Y10953750D01*
D11*
D12*
X-860000Y10760000D02*
X-640000Y10540000D01*
X-640000Y10760000D02*
X-860000Y10540000D01*
X1160000Y-190000D02*
X1380000Y-410000D01*
X1380000Y-190000D02*
X1160000Y-410000D01*
X1318750Y5586875D02*
X1538750Y5366875D01*
X1538750Y5586875D02*
X1318750Y5366875D01*
X7748125Y3562812D02*
X7968125Y3342812D01*
X7968125Y3562812D02*
X7748125Y3342812D01*
X12971000Y-190000D02*
X13191000Y-410000D01*
X13191000Y-190000D02*
X12971000Y-410000D01*
X13939375Y7372812D02*
X14159375Y7152812D01*
X14159375Y7372812D02*
X13939375Y7152812D01*
X27036250Y5467813D02*
X27256250Y5247813D01*
X27256250Y5467813D02*
X27036250Y5247813D01*
X27195000Y-190000D02*
X27415000Y-410000D01*
X27415000Y-190000D02*
X27195000Y-410000D01*
X32656000Y10760000D02*
X32876000Y10540000D01*
X32876000Y10760000D02*
X32656000Y10540000D01*
D13*
X-85100Y2603500D02*
G75*
G03*
X-85100Y2603500I-152400J0D01*
G01*
X2294900Y2603500D02*
G75*
G03*
X2294900Y2603500I-152400J0D01*
G01*
X24203650Y4508500D02*
G75*
G03*
X24203650Y4508500I-152400J0D01*
G01*
X24441775Y8318500D02*
G75*
G03*
X24441775Y8318500I-152400J0D01*
G01*
X26583650Y4508500D02*
G75*
G03*
X26583650Y4508500I-152400J0D01*
G01*
X26821775Y8318500D02*
G75*
G03*
X26821775Y8318500I-152400J0D01*
G01*
D14*
X-237500Y1278890D02*
X-237500Y880110D01*
X-436890Y1079500D02*
X-38110Y1079500D01*
X2142500Y1278890D02*
X2142500Y880110D01*
X1943110Y1079500D02*
X2341890Y1079500D01*
X24051250Y3183890D02*
X24051250Y2785110D01*
X23851860Y2984500D02*
X24250640Y2984500D01*
X24289375Y6993890D02*
X24289375Y6595110D01*
X24089985Y6794500D02*
X24488765Y6794500D01*
X26431250Y3183890D02*
X26431250Y2785110D01*
X26231860Y2984500D02*
X26630640Y2984500D01*
X26669375Y6993890D02*
X26669375Y6595110D01*
X26469985Y6794500D02*
X26868765Y6794500D01*
D11*
X-943506Y-1265524D02*
X-943506Y-1065524D01*
X-943506Y-1065524D02*
X-895887Y-1065524D01*
X-895887Y-1065524D02*
X-867315Y-1075048D01*
X-867315Y-1075048D02*
X-848268Y-1094095D01*
X-848268Y-1094095D02*
X-838744Y-1113143D01*
X-838744Y-1113143D02*
X-829220Y-1151238D01*
X-829220Y-1151238D02*
X-829220Y-1179810D01*
X-829220Y-1179810D02*
X-838744Y-1217905D01*
X-838744Y-1217905D02*
X-848268Y-1236952D01*
X-848268Y-1236952D02*
X-867315Y-1256000D01*
X-867315Y-1256000D02*
X-895887Y-1265524D01*
X-895887Y-1265524D02*
X-943506Y-1265524D01*
X-743506Y-1265524D02*
X-743506Y-1132190D01*
X-743506Y-1170286D02*
X-733982Y-1151238D01*
X-733982Y-1151238D02*
X-724458Y-1141714D01*
X-724458Y-1141714D02*
X-705411Y-1132190D01*
X-705411Y-1132190D02*
X-686363Y-1132190D01*
X-619696Y-1265524D02*
X-619696Y-1132190D01*
X-619696Y-1065524D02*
X-629220Y-1075048D01*
X-629220Y-1075048D02*
X-619696Y-1084571D01*
X-619696Y-1084571D02*
X-610173Y-1075048D01*
X-610173Y-1075048D02*
X-619696Y-1065524D01*
X-619696Y-1065524D02*
X-619696Y-1084571D01*
X-495887Y-1265524D02*
X-514934Y-1256000D01*
X-514934Y-1256000D02*
X-524458Y-1236952D01*
X-524458Y-1236952D02*
X-524458Y-1065524D01*
X-391125Y-1265524D02*
X-410173Y-1256000D01*
X-410173Y-1256000D02*
X-419696Y-1236952D01*
X-419696Y-1236952D02*
X-419696Y-1065524D01*
X-162554Y-1265524D02*
X-162554Y-1065524D01*
X-162554Y-1065524D02*
X-95887Y-1208381D01*
X-95887Y-1208381D02*
X-29220Y-1065524D01*
X-29220Y-1065524D02*
X-29220Y-1265524D01*
X151732Y-1265524D02*
X151732Y-1160762D01*
X151732Y-1160762D02*
X142208Y-1141714D01*
X142208Y-1141714D02*
X123161Y-1132190D01*
X123161Y-1132190D02*
X85065Y-1132190D01*
X85065Y-1132190D02*
X66018Y-1141714D01*
X151732Y-1256000D02*
X132685Y-1265524D01*
X132685Y-1265524D02*
X85065Y-1265524D01*
X85065Y-1265524D02*
X66018Y-1256000D01*
X66018Y-1256000D02*
X56494Y-1236952D01*
X56494Y-1236952D02*
X56494Y-1217905D01*
X56494Y-1217905D02*
X66018Y-1198857D01*
X66018Y-1198857D02*
X85065Y-1189333D01*
X85065Y-1189333D02*
X132685Y-1189333D01*
X132685Y-1189333D02*
X151732Y-1179810D01*
X246970Y-1132190D02*
X246970Y-1332190D01*
X246970Y-1141714D02*
X266018Y-1132190D01*
X266018Y-1132190D02*
X304113Y-1132190D01*
X304113Y-1132190D02*
X323161Y-1141714D01*
X323161Y-1141714D02*
X332685Y-1151238D01*
X332685Y-1151238D02*
X342208Y-1170286D01*
X342208Y-1170286D02*
X342208Y-1227429D01*
X342208Y-1227429D02*
X332685Y-1246476D01*
X332685Y-1246476D02*
X323161Y-1256000D01*
X323161Y-1256000D02*
X304113Y-1265524D01*
X304113Y-1265524D02*
X266018Y-1265524D01*
X266018Y-1265524D02*
X246970Y-1256000D01*
X427923Y-1246476D02*
X437446Y-1256000D01*
X437446Y-1256000D02*
X427923Y-1265524D01*
X427923Y-1265524D02*
X418399Y-1256000D01*
X418399Y-1256000D02*
X427923Y-1246476D01*
X427923Y-1246476D02*
X427923Y-1265524D01*
X427923Y-1141714D02*
X437446Y-1151238D01*
X437446Y-1151238D02*
X427923Y-1160762D01*
X427923Y-1160762D02*
X418399Y-1151238D01*
X418399Y-1151238D02*
X427923Y-1141714D01*
X427923Y-1141714D02*
X427923Y-1160762D01*
X-1391125Y-1493000D02*
X-1191125Y-1693000D01*
X-1191125Y-1493000D02*
X-1391125Y-1693000D01*
X-953030Y-1504571D02*
X-943506Y-1495048D01*
X-943506Y-1495048D02*
X-924458Y-1485524D01*
X-924458Y-1485524D02*
X-876839Y-1485524D01*
X-876839Y-1485524D02*
X-857792Y-1495048D01*
X-857792Y-1495048D02*
X-848268Y-1504571D01*
X-848268Y-1504571D02*
X-838744Y-1523619D01*
X-838744Y-1523619D02*
X-838744Y-1542667D01*
X-838744Y-1542667D02*
X-848268Y-1571238D01*
X-848268Y-1571238D02*
X-962553Y-1685524D01*
X-962553Y-1685524D02*
X-838744Y-1685524D01*
X-753030Y-1666476D02*
X-743506Y-1676000D01*
X-743506Y-1676000D02*
X-753030Y-1685524D01*
X-753030Y-1685524D02*
X-762553Y-1676000D01*
X-762553Y-1676000D02*
X-753030Y-1666476D01*
X-753030Y-1666476D02*
X-753030Y-1685524D01*
X-667315Y-1504571D02*
X-657792Y-1495048D01*
X-657792Y-1495048D02*
X-638744Y-1485524D01*
X-638744Y-1485524D02*
X-591125Y-1485524D01*
X-591125Y-1485524D02*
X-572077Y-1495048D01*
X-572077Y-1495048D02*
X-562554Y-1504571D01*
X-562554Y-1504571D02*
X-553030Y-1523619D01*
X-553030Y-1523619D02*
X-553030Y-1542667D01*
X-553030Y-1542667D02*
X-562554Y-1571238D01*
X-562554Y-1571238D02*
X-676839Y-1685524D01*
X-676839Y-1685524D02*
X-553030Y-1685524D01*
X-429220Y-1485524D02*
X-410172Y-1485524D01*
X-410172Y-1485524D02*
X-391125Y-1495048D01*
X-391125Y-1495048D02*
X-381601Y-1504571D01*
X-381601Y-1504571D02*
X-372077Y-1523619D01*
X-372077Y-1523619D02*
X-362553Y-1561714D01*
X-362553Y-1561714D02*
X-362553Y-1609333D01*
X-362553Y-1609333D02*
X-372077Y-1647428D01*
X-372077Y-1647428D02*
X-381601Y-1666476D01*
X-381601Y-1666476D02*
X-391125Y-1676000D01*
X-391125Y-1676000D02*
X-410172Y-1685524D01*
X-410172Y-1685524D02*
X-429220Y-1685524D01*
X-429220Y-1685524D02*
X-448268Y-1676000D01*
X-448268Y-1676000D02*
X-457792Y-1666476D01*
X-457792Y-1666476D02*
X-467315Y-1647428D01*
X-467315Y-1647428D02*
X-476839Y-1609333D01*
X-476839Y-1609333D02*
X-476839Y-1561714D01*
X-476839Y-1561714D02*
X-467315Y-1523619D01*
X-467315Y-1523619D02*
X-457792Y-1504571D01*
X-457792Y-1504571D02*
X-448268Y-1495048D01*
X-448268Y-1495048D02*
X-429220Y-1485524D01*
X-238744Y-1485524D02*
X-219696Y-1485524D01*
X-219696Y-1485524D02*
X-200649Y-1495048D01*
X-200649Y-1495048D02*
X-191125Y-1504571D01*
X-191125Y-1504571D02*
X-181601Y-1523619D01*
X-181601Y-1523619D02*
X-172077Y-1561714D01*
X-172077Y-1561714D02*
X-172077Y-1609333D01*
X-172077Y-1609333D02*
X-181601Y-1647428D01*
X-181601Y-1647428D02*
X-191125Y-1666476D01*
X-191125Y-1666476D02*
X-200649Y-1676000D01*
X-200649Y-1676000D02*
X-219696Y-1685524D01*
X-219696Y-1685524D02*
X-238744Y-1685524D01*
X-238744Y-1685524D02*
X-257792Y-1676000D01*
X-257792Y-1676000D02*
X-267315Y-1666476D01*
X-267315Y-1666476D02*
X-276839Y-1647428D01*
X-276839Y-1647428D02*
X-286363Y-1609333D01*
X-286363Y-1609333D02*
X-286363Y-1561714D01*
X-286363Y-1561714D02*
X-276839Y-1523619D01*
X-276839Y-1523619D02*
X-267315Y-1504571D01*
X-267315Y-1504571D02*
X-257792Y-1495048D01*
X-257792Y-1495048D02*
X-238744Y-1485524D01*
X-86363Y-1685524D02*
X-86363Y-1552190D01*
X-86363Y-1571238D02*
X-76839Y-1561714D01*
X-76839Y-1561714D02*
X-57792Y-1552190D01*
X-57792Y-1552190D02*
X-29220Y-1552190D01*
X-29220Y-1552190D02*
X-10173Y-1561714D01*
X-10173Y-1561714D02*
X-649Y-1580762D01*
X-649Y-1580762D02*
X-649Y-1685524D01*
X-649Y-1580762D02*
X8875Y-1561714D01*
X8875Y-1561714D02*
X27923Y-1552190D01*
X27923Y-1552190D02*
X56494Y-1552190D01*
X56494Y-1552190D02*
X75542Y-1561714D01*
X75542Y-1561714D02*
X85066Y-1580762D01*
X85066Y-1580762D02*
X85066Y-1685524D01*
X180304Y-1685524D02*
X180304Y-1552190D01*
X180304Y-1571238D02*
X189827Y-1561714D01*
X189827Y-1561714D02*
X208875Y-1552190D01*
X208875Y-1552190D02*
X237446Y-1552190D01*
X237446Y-1552190D02*
X256494Y-1561714D01*
X256494Y-1561714D02*
X266018Y-1580762D01*
X266018Y-1580762D02*
X266018Y-1685524D01*
X266018Y-1580762D02*
X275542Y-1561714D01*
X275542Y-1561714D02*
X294589Y-1552190D01*
X294589Y-1552190D02*
X323161Y-1552190D01*
X323161Y-1552190D02*
X342208Y-1561714D01*
X342208Y-1561714D02*
X351732Y-1580762D01*
X351732Y-1580762D02*
X351732Y-1685524D01*
X742208Y-1476000D02*
X570780Y-1733143D01*
X999351Y-1485524D02*
X1018399Y-1485524D01*
X1018399Y-1485524D02*
X1037447Y-1495048D01*
X1037447Y-1495048D02*
X1046970Y-1504571D01*
X1046970Y-1504571D02*
X1056494Y-1523619D01*
X1056494Y-1523619D02*
X1066018Y-1561714D01*
X1066018Y-1561714D02*
X1066018Y-1609333D01*
X1066018Y-1609333D02*
X1056494Y-1647428D01*
X1056494Y-1647428D02*
X1046970Y-1666476D01*
X1046970Y-1666476D02*
X1037447Y-1676000D01*
X1037447Y-1676000D02*
X1018399Y-1685524D01*
X1018399Y-1685524D02*
X999351Y-1685524D01*
X999351Y-1685524D02*
X980304Y-1676000D01*
X980304Y-1676000D02*
X970780Y-1666476D01*
X970780Y-1666476D02*
X961256Y-1647428D01*
X961256Y-1647428D02*
X951732Y-1609333D01*
X951732Y-1609333D02*
X951732Y-1561714D01*
X951732Y-1561714D02*
X961256Y-1523619D01*
X961256Y-1523619D02*
X970780Y-1504571D01*
X970780Y-1504571D02*
X980304Y-1495048D01*
X980304Y-1495048D02*
X999351Y-1485524D01*
X1151732Y-1666476D02*
X1161256Y-1676000D01*
X1161256Y-1676000D02*
X1151732Y-1685524D01*
X1151732Y-1685524D02*
X1142209Y-1676000D01*
X1142209Y-1676000D02*
X1151732Y-1666476D01*
X1151732Y-1666476D02*
X1151732Y-1685524D01*
X1285066Y-1485524D02*
X1304113Y-1485524D01*
X1304113Y-1485524D02*
X1323161Y-1495048D01*
X1323161Y-1495048D02*
X1332685Y-1504571D01*
X1332685Y-1504571D02*
X1342209Y-1523619D01*
X1342209Y-1523619D02*
X1351732Y-1561714D01*
X1351732Y-1561714D02*
X1351732Y-1609333D01*
X1351732Y-1609333D02*
X1342209Y-1647428D01*
X1342209Y-1647428D02*
X1332685Y-1666476D01*
X1332685Y-1666476D02*
X1323161Y-1676000D01*
X1323161Y-1676000D02*
X1304113Y-1685524D01*
X1304113Y-1685524D02*
X1285066Y-1685524D01*
X1285066Y-1685524D02*
X1266018Y-1676000D01*
X1266018Y-1676000D02*
X1256494Y-1666476D01*
X1256494Y-1666476D02*
X1246970Y-1647428D01*
X1246970Y-1647428D02*
X1237447Y-1609333D01*
X1237447Y-1609333D02*
X1237447Y-1561714D01*
X1237447Y-1561714D02*
X1246970Y-1523619D01*
X1246970Y-1523619D02*
X1256494Y-1504571D01*
X1256494Y-1504571D02*
X1266018Y-1495048D01*
X1266018Y-1495048D02*
X1285066Y-1485524D01*
X1466018Y-1571238D02*
X1446970Y-1561714D01*
X1446970Y-1561714D02*
X1437447Y-1552190D01*
X1437447Y-1552190D02*
X1427923Y-1533143D01*
X1427923Y-1533143D02*
X1427923Y-1523619D01*
X1427923Y-1523619D02*
X1437447Y-1504571D01*
X1437447Y-1504571D02*
X1446970Y-1495048D01*
X1446970Y-1495048D02*
X1466018Y-1485524D01*
X1466018Y-1485524D02*
X1504113Y-1485524D01*
X1504113Y-1485524D02*
X1523161Y-1495048D01*
X1523161Y-1495048D02*
X1532685Y-1504571D01*
X1532685Y-1504571D02*
X1542208Y-1523619D01*
X1542208Y-1523619D02*
X1542208Y-1533143D01*
X1542208Y-1533143D02*
X1532685Y-1552190D01*
X1532685Y-1552190D02*
X1523161Y-1561714D01*
X1523161Y-1561714D02*
X1504113Y-1571238D01*
X1504113Y-1571238D02*
X1466018Y-1571238D01*
X1466018Y-1571238D02*
X1446970Y-1580762D01*
X1446970Y-1580762D02*
X1437447Y-1590286D01*
X1437447Y-1590286D02*
X1427923Y-1609333D01*
X1427923Y-1609333D02*
X1427923Y-1647428D01*
X1427923Y-1647428D02*
X1437447Y-1666476D01*
X1437447Y-1666476D02*
X1446970Y-1676000D01*
X1446970Y-1676000D02*
X1466018Y-1685524D01*
X1466018Y-1685524D02*
X1504113Y-1685524D01*
X1504113Y-1685524D02*
X1523161Y-1676000D01*
X1523161Y-1676000D02*
X1532685Y-1666476D01*
X1532685Y-1666476D02*
X1542208Y-1647428D01*
X1542208Y-1647428D02*
X1542208Y-1609333D01*
X1542208Y-1609333D02*
X1532685Y-1590286D01*
X1532685Y-1590286D02*
X1523161Y-1580762D01*
X1523161Y-1580762D02*
X1504113Y-1571238D01*
X1713637Y-1485524D02*
X1675542Y-1485524D01*
X1675542Y-1485524D02*
X1656494Y-1495048D01*
X1656494Y-1495048D02*
X1646970Y-1504571D01*
X1646970Y-1504571D02*
X1627923Y-1533143D01*
X1627923Y-1533143D02*
X1618399Y-1571238D01*
X1618399Y-1571238D02*
X1618399Y-1647428D01*
X1618399Y-1647428D02*
X1627923Y-1666476D01*
X1627923Y-1666476D02*
X1637447Y-1676000D01*
X1637447Y-1676000D02*
X1656494Y-1685524D01*
X1656494Y-1685524D02*
X1694589Y-1685524D01*
X1694589Y-1685524D02*
X1713637Y-1676000D01*
X1713637Y-1676000D02*
X1723161Y-1666476D01*
X1723161Y-1666476D02*
X1732685Y-1647428D01*
X1732685Y-1647428D02*
X1732685Y-1599809D01*
X1732685Y-1599809D02*
X1723161Y-1580762D01*
X1723161Y-1580762D02*
X1713637Y-1571238D01*
X1713637Y-1571238D02*
X1694589Y-1561714D01*
X1694589Y-1561714D02*
X1656494Y-1561714D01*
X1656494Y-1561714D02*
X1637447Y-1571238D01*
X1637447Y-1571238D02*
X1627923Y-1580762D01*
X1627923Y-1580762D02*
X1618399Y-1599809D01*
X1904113Y-1485524D02*
X1866018Y-1485524D01*
X1866018Y-1485524D02*
X1846970Y-1495048D01*
X1846970Y-1495048D02*
X1837447Y-1504571D01*
X1837447Y-1504571D02*
X1818399Y-1533143D01*
X1818399Y-1533143D02*
X1808875Y-1571238D01*
X1808875Y-1571238D02*
X1808875Y-1647428D01*
X1808875Y-1647428D02*
X1818399Y-1666476D01*
X1818399Y-1666476D02*
X1827923Y-1676000D01*
X1827923Y-1676000D02*
X1846970Y-1685524D01*
X1846970Y-1685524D02*
X1885066Y-1685524D01*
X1885066Y-1685524D02*
X1904113Y-1676000D01*
X1904113Y-1676000D02*
X1913637Y-1666476D01*
X1913637Y-1666476D02*
X1923161Y-1647428D01*
X1923161Y-1647428D02*
X1923161Y-1599809D01*
X1923161Y-1599809D02*
X1913637Y-1580762D01*
X1913637Y-1580762D02*
X1904113Y-1571238D01*
X1904113Y-1571238D02*
X1885066Y-1561714D01*
X1885066Y-1561714D02*
X1846970Y-1561714D01*
X1846970Y-1561714D02*
X1827923Y-1571238D01*
X1827923Y-1571238D02*
X1818399Y-1580762D01*
X1818399Y-1580762D02*
X1808875Y-1599809D01*
X1999351Y-1485524D02*
X1999351Y-1523619D01*
X2075542Y-1485524D02*
X2075542Y-1523619D01*
X2370780Y-1761714D02*
X2361256Y-1752190D01*
X2361256Y-1752190D02*
X2342209Y-1723619D01*
X2342209Y-1723619D02*
X2332685Y-1704571D01*
X2332685Y-1704571D02*
X2323161Y-1676000D01*
X2323161Y-1676000D02*
X2313637Y-1628381D01*
X2313637Y-1628381D02*
X2313637Y-1590286D01*
X2313637Y-1590286D02*
X2323161Y-1542667D01*
X2323161Y-1542667D02*
X2332685Y-1514095D01*
X2332685Y-1514095D02*
X2342209Y-1495048D01*
X2342209Y-1495048D02*
X2361256Y-1466476D01*
X2361256Y-1466476D02*
X2370780Y-1456952D01*
X2456494Y-1685524D02*
X2494590Y-1685524D01*
X2494590Y-1685524D02*
X2513637Y-1676000D01*
X2513637Y-1676000D02*
X2523161Y-1666476D01*
X2523161Y-1666476D02*
X2542209Y-1637905D01*
X2542209Y-1637905D02*
X2551732Y-1599809D01*
X2551732Y-1599809D02*
X2551732Y-1523619D01*
X2551732Y-1523619D02*
X2542209Y-1504571D01*
X2542209Y-1504571D02*
X2532685Y-1495048D01*
X2532685Y-1495048D02*
X2513637Y-1485524D01*
X2513637Y-1485524D02*
X2475542Y-1485524D01*
X2475542Y-1485524D02*
X2456494Y-1495048D01*
X2456494Y-1495048D02*
X2446971Y-1504571D01*
X2446971Y-1504571D02*
X2437447Y-1523619D01*
X2437447Y-1523619D02*
X2437447Y-1571238D01*
X2437447Y-1571238D02*
X2446971Y-1590286D01*
X2446971Y-1590286D02*
X2456494Y-1599809D01*
X2456494Y-1599809D02*
X2475542Y-1609333D01*
X2475542Y-1609333D02*
X2513637Y-1609333D01*
X2513637Y-1609333D02*
X2532685Y-1599809D01*
X2532685Y-1599809D02*
X2542209Y-1590286D01*
X2542209Y-1590286D02*
X2551732Y-1571238D01*
X2789828Y-1685524D02*
X2789828Y-1485524D01*
X2875542Y-1685524D02*
X2875542Y-1580762D01*
X2875542Y-1580762D02*
X2866018Y-1561714D01*
X2866018Y-1561714D02*
X2846971Y-1552190D01*
X2846971Y-1552190D02*
X2818399Y-1552190D01*
X2818399Y-1552190D02*
X2799351Y-1561714D01*
X2799351Y-1561714D02*
X2789828Y-1571238D01*
X2999351Y-1685524D02*
X2980304Y-1676000D01*
X2980304Y-1676000D02*
X2970780Y-1666476D01*
X2970780Y-1666476D02*
X2961256Y-1647428D01*
X2961256Y-1647428D02*
X2961256Y-1590286D01*
X2961256Y-1590286D02*
X2970780Y-1571238D01*
X2970780Y-1571238D02*
X2980304Y-1561714D01*
X2980304Y-1561714D02*
X2999351Y-1552190D01*
X2999351Y-1552190D02*
X3027923Y-1552190D01*
X3027923Y-1552190D02*
X3046971Y-1561714D01*
X3046971Y-1561714D02*
X3056494Y-1571238D01*
X3056494Y-1571238D02*
X3066018Y-1590286D01*
X3066018Y-1590286D02*
X3066018Y-1647428D01*
X3066018Y-1647428D02*
X3056494Y-1666476D01*
X3056494Y-1666476D02*
X3046971Y-1676000D01*
X3046971Y-1676000D02*
X3027923Y-1685524D01*
X3027923Y-1685524D02*
X2999351Y-1685524D01*
X3180304Y-1685524D02*
X3161256Y-1676000D01*
X3161256Y-1676000D02*
X3151732Y-1656952D01*
X3151732Y-1656952D02*
X3151732Y-1485524D01*
X3332685Y-1676000D02*
X3313637Y-1685524D01*
X3313637Y-1685524D02*
X3275542Y-1685524D01*
X3275542Y-1685524D02*
X3256494Y-1676000D01*
X3256494Y-1676000D02*
X3246971Y-1656952D01*
X3246971Y-1656952D02*
X3246971Y-1580762D01*
X3246971Y-1580762D02*
X3256494Y-1561714D01*
X3256494Y-1561714D02*
X3275542Y-1552190D01*
X3275542Y-1552190D02*
X3313637Y-1552190D01*
X3313637Y-1552190D02*
X3332685Y-1561714D01*
X3332685Y-1561714D02*
X3342209Y-1580762D01*
X3342209Y-1580762D02*
X3342209Y-1599809D01*
X3342209Y-1599809D02*
X3246971Y-1618857D01*
X3418399Y-1676000D02*
X3437447Y-1685524D01*
X3437447Y-1685524D02*
X3475542Y-1685524D01*
X3475542Y-1685524D02*
X3494590Y-1676000D01*
X3494590Y-1676000D02*
X3504113Y-1656952D01*
X3504113Y-1656952D02*
X3504113Y-1647428D01*
X3504113Y-1647428D02*
X3494590Y-1628381D01*
X3494590Y-1628381D02*
X3475542Y-1618857D01*
X3475542Y-1618857D02*
X3446971Y-1618857D01*
X3446971Y-1618857D02*
X3427923Y-1609333D01*
X3427923Y-1609333D02*
X3418399Y-1590286D01*
X3418399Y-1590286D02*
X3418399Y-1580762D01*
X3418399Y-1580762D02*
X3427923Y-1561714D01*
X3427923Y-1561714D02*
X3446971Y-1552190D01*
X3446971Y-1552190D02*
X3475542Y-1552190D01*
X3475542Y-1552190D02*
X3494590Y-1561714D01*
X3570780Y-1761714D02*
X3580304Y-1752190D01*
X3580304Y-1752190D02*
X3599352Y-1723619D01*
X3599352Y-1723619D02*
X3608875Y-1704571D01*
X3608875Y-1704571D02*
X3618399Y-1676000D01*
X3618399Y-1676000D02*
X3627923Y-1628381D01*
X3627923Y-1628381D02*
X3627923Y-1590286D01*
X3627923Y-1590286D02*
X3618399Y-1542667D01*
X3618399Y-1542667D02*
X3608875Y-1514095D01*
X3608875Y-1514095D02*
X3599352Y-1495048D01*
X3599352Y-1495048D02*
X3580304Y-1466476D01*
X3580304Y-1466476D02*
X3570780Y-1456952D01*
X3932685Y-1761714D02*
X3923161Y-1752190D01*
X3923161Y-1752190D02*
X3904113Y-1723619D01*
X3904113Y-1723619D02*
X3894590Y-1704571D01*
X3894590Y-1704571D02*
X3885066Y-1676000D01*
X3885066Y-1676000D02*
X3875542Y-1628381D01*
X3875542Y-1628381D02*
X3875542Y-1590286D01*
X3875542Y-1590286D02*
X3885066Y-1542667D01*
X3885066Y-1542667D02*
X3894590Y-1514095D01*
X3894590Y-1514095D02*
X3904113Y-1495048D01*
X3904113Y-1495048D02*
X3923161Y-1466476D01*
X3923161Y-1466476D02*
X3932685Y-1456952D01*
X4008875Y-1552190D02*
X4008875Y-1685524D01*
X4008875Y-1571238D02*
X4018399Y-1561714D01*
X4018399Y-1561714D02*
X4037447Y-1552190D01*
X4037447Y-1552190D02*
X4066018Y-1552190D01*
X4066018Y-1552190D02*
X4085066Y-1561714D01*
X4085066Y-1561714D02*
X4094590Y-1580762D01*
X4094590Y-1580762D02*
X4094590Y-1685524D01*
X4218399Y-1685524D02*
X4199352Y-1676000D01*
X4199352Y-1676000D02*
X4189828Y-1666476D01*
X4189828Y-1666476D02*
X4180304Y-1647428D01*
X4180304Y-1647428D02*
X4180304Y-1590286D01*
X4180304Y-1590286D02*
X4189828Y-1571238D01*
X4189828Y-1571238D02*
X4199352Y-1561714D01*
X4199352Y-1561714D02*
X4218399Y-1552190D01*
X4218399Y-1552190D02*
X4246971Y-1552190D01*
X4246971Y-1552190D02*
X4266018Y-1561714D01*
X4266018Y-1561714D02*
X4275542Y-1571238D01*
X4275542Y-1571238D02*
X4285066Y-1590286D01*
X4285066Y-1590286D02*
X4285066Y-1647428D01*
X4285066Y-1647428D02*
X4275542Y-1666476D01*
X4275542Y-1666476D02*
X4266018Y-1676000D01*
X4266018Y-1676000D02*
X4246971Y-1685524D01*
X4246971Y-1685524D02*
X4218399Y-1685524D01*
X4342209Y-1552190D02*
X4418399Y-1552190D01*
X4370780Y-1485524D02*
X4370780Y-1656952D01*
X4370780Y-1656952D02*
X4380304Y-1676000D01*
X4380304Y-1676000D02*
X4399352Y-1685524D01*
X4399352Y-1685524D02*
X4418399Y-1685524D01*
X4637447Y-1552190D02*
X4637447Y-1752190D01*
X4637447Y-1561714D02*
X4656495Y-1552190D01*
X4656495Y-1552190D02*
X4694590Y-1552190D01*
X4694590Y-1552190D02*
X4713637Y-1561714D01*
X4713637Y-1561714D02*
X4723161Y-1571238D01*
X4723161Y-1571238D02*
X4732685Y-1590286D01*
X4732685Y-1590286D02*
X4732685Y-1647428D01*
X4732685Y-1647428D02*
X4723161Y-1666476D01*
X4723161Y-1666476D02*
X4713637Y-1676000D01*
X4713637Y-1676000D02*
X4694590Y-1685524D01*
X4694590Y-1685524D02*
X4656495Y-1685524D01*
X4656495Y-1685524D02*
X4637447Y-1676000D01*
X4846971Y-1685524D02*
X4827923Y-1676000D01*
X4827923Y-1676000D02*
X4818399Y-1656952D01*
X4818399Y-1656952D02*
X4818399Y-1485524D01*
X5008876Y-1685524D02*
X5008876Y-1580762D01*
X5008876Y-1580762D02*
X4999352Y-1561714D01*
X4999352Y-1561714D02*
X4980304Y-1552190D01*
X4980304Y-1552190D02*
X4942209Y-1552190D01*
X4942209Y-1552190D02*
X4923161Y-1561714D01*
X5008876Y-1676000D02*
X4989828Y-1685524D01*
X4989828Y-1685524D02*
X4942209Y-1685524D01*
X4942209Y-1685524D02*
X4923161Y-1676000D01*
X4923161Y-1676000D02*
X4913637Y-1656952D01*
X4913637Y-1656952D02*
X4913637Y-1637905D01*
X4913637Y-1637905D02*
X4923161Y-1618857D01*
X4923161Y-1618857D02*
X4942209Y-1609333D01*
X4942209Y-1609333D02*
X4989828Y-1609333D01*
X4989828Y-1609333D02*
X5008876Y-1599809D01*
X5075542Y-1552190D02*
X5151733Y-1552190D01*
X5104114Y-1485524D02*
X5104114Y-1656952D01*
X5104114Y-1656952D02*
X5113637Y-1676000D01*
X5113637Y-1676000D02*
X5132685Y-1685524D01*
X5132685Y-1685524D02*
X5151733Y-1685524D01*
X5294590Y-1676000D02*
X5275542Y-1685524D01*
X5275542Y-1685524D02*
X5237447Y-1685524D01*
X5237447Y-1685524D02*
X5218399Y-1676000D01*
X5218399Y-1676000D02*
X5208876Y-1656952D01*
X5208876Y-1656952D02*
X5208876Y-1580762D01*
X5208876Y-1580762D02*
X5218399Y-1561714D01*
X5218399Y-1561714D02*
X5237447Y-1552190D01*
X5237447Y-1552190D02*
X5275542Y-1552190D01*
X5275542Y-1552190D02*
X5294590Y-1561714D01*
X5294590Y-1561714D02*
X5304114Y-1580762D01*
X5304114Y-1580762D02*
X5304114Y-1599809D01*
X5304114Y-1599809D02*
X5208876Y-1618857D01*
X5475542Y-1685524D02*
X5475542Y-1485524D01*
X5475542Y-1676000D02*
X5456495Y-1685524D01*
X5456495Y-1685524D02*
X5418399Y-1685524D01*
X5418399Y-1685524D02*
X5399352Y-1676000D01*
X5399352Y-1676000D02*
X5389828Y-1666476D01*
X5389828Y-1666476D02*
X5380304Y-1647428D01*
X5380304Y-1647428D02*
X5380304Y-1590286D01*
X5380304Y-1590286D02*
X5389828Y-1571238D01*
X5389828Y-1571238D02*
X5399352Y-1561714D01*
X5399352Y-1561714D02*
X5418399Y-1552190D01*
X5418399Y-1552190D02*
X5456495Y-1552190D01*
X5456495Y-1552190D02*
X5475542Y-1561714D01*
X5551733Y-1761714D02*
X5561257Y-1752190D01*
X5561257Y-1752190D02*
X5580304Y-1723619D01*
X5580304Y-1723619D02*
X5589828Y-1704571D01*
X5589828Y-1704571D02*
X5599352Y-1676000D01*
X5599352Y-1676000D02*
X5608875Y-1628381D01*
X5608875Y-1628381D02*
X5608875Y-1590286D01*
X5608875Y-1590286D02*
X5599352Y-1542667D01*
X5599352Y-1542667D02*
X5589828Y-1514095D01*
X5589828Y-1514095D02*
X5580304Y-1495048D01*
X5580304Y-1495048D02*
X5561257Y-1466476D01*
X5561257Y-1466476D02*
X5551733Y-1456952D01*
X-1191125Y-1913000D02*
G75*
G03*
X-1191125Y-1913000I-100000J0D01*
G01*
X-962553Y-1805524D02*
X-838744Y-1805524D01*
X-838744Y-1805524D02*
X-905411Y-1881714D01*
X-905411Y-1881714D02*
X-876839Y-1881714D01*
X-876839Y-1881714D02*
X-857792Y-1891238D01*
X-857792Y-1891238D02*
X-848268Y-1900762D01*
X-848268Y-1900762D02*
X-838744Y-1919809D01*
X-838744Y-1919809D02*
X-838744Y-1967428D01*
X-838744Y-1967428D02*
X-848268Y-1986476D01*
X-848268Y-1986476D02*
X-857792Y-1996000D01*
X-857792Y-1996000D02*
X-876839Y-2005524D01*
X-876839Y-2005524D02*
X-933982Y-2005524D01*
X-933982Y-2005524D02*
X-953030Y-1996000D01*
X-953030Y-1996000D02*
X-962553Y-1986476D01*
X-753030Y-1986476D02*
X-743506Y-1996000D01*
X-743506Y-1996000D02*
X-753030Y-2005524D01*
X-753030Y-2005524D02*
X-762553Y-1996000D01*
X-762553Y-1996000D02*
X-753030Y-1986476D01*
X-753030Y-1986476D02*
X-753030Y-2005524D01*
X-619696Y-1805524D02*
X-600649Y-1805524D01*
X-600649Y-1805524D02*
X-581601Y-1815048D01*
X-581601Y-1815048D02*
X-572077Y-1824571D01*
X-572077Y-1824571D02*
X-562554Y-1843619D01*
X-562554Y-1843619D02*
X-553030Y-1881714D01*
X-553030Y-1881714D02*
X-553030Y-1929333D01*
X-553030Y-1929333D02*
X-562554Y-1967428D01*
X-562554Y-1967428D02*
X-572077Y-1986476D01*
X-572077Y-1986476D02*
X-581601Y-1996000D01*
X-581601Y-1996000D02*
X-600649Y-2005524D01*
X-600649Y-2005524D02*
X-619696Y-2005524D01*
X-619696Y-2005524D02*
X-638744Y-1996000D01*
X-638744Y-1996000D02*
X-648268Y-1986476D01*
X-648268Y-1986476D02*
X-657792Y-1967428D01*
X-657792Y-1967428D02*
X-667315Y-1929333D01*
X-667315Y-1929333D02*
X-667315Y-1881714D01*
X-667315Y-1881714D02*
X-657792Y-1843619D01*
X-657792Y-1843619D02*
X-648268Y-1824571D01*
X-648268Y-1824571D02*
X-638744Y-1815048D01*
X-638744Y-1815048D02*
X-619696Y-1805524D01*
X-381601Y-1872190D02*
X-381601Y-2005524D01*
X-429220Y-1796000D02*
X-476839Y-1938857D01*
X-476839Y-1938857D02*
X-353030Y-1938857D01*
X-248268Y-1891238D02*
X-267315Y-1881714D01*
X-267315Y-1881714D02*
X-276839Y-1872190D01*
X-276839Y-1872190D02*
X-286363Y-1853143D01*
X-286363Y-1853143D02*
X-286363Y-1843619D01*
X-286363Y-1843619D02*
X-276839Y-1824571D01*
X-276839Y-1824571D02*
X-267315Y-1815048D01*
X-267315Y-1815048D02*
X-248268Y-1805524D01*
X-248268Y-1805524D02*
X-210172Y-1805524D01*
X-210172Y-1805524D02*
X-191125Y-1815048D01*
X-191125Y-1815048D02*
X-181601Y-1824571D01*
X-181601Y-1824571D02*
X-172077Y-1843619D01*
X-172077Y-1843619D02*
X-172077Y-1853143D01*
X-172077Y-1853143D02*
X-181601Y-1872190D01*
X-181601Y-1872190D02*
X-191125Y-1881714D01*
X-191125Y-1881714D02*
X-210172Y-1891238D01*
X-210172Y-1891238D02*
X-248268Y-1891238D01*
X-248268Y-1891238D02*
X-267315Y-1900762D01*
X-267315Y-1900762D02*
X-276839Y-1910286D01*
X-276839Y-1910286D02*
X-286363Y-1929333D01*
X-286363Y-1929333D02*
X-286363Y-1967428D01*
X-286363Y-1967428D02*
X-276839Y-1986476D01*
X-276839Y-1986476D02*
X-267315Y-1996000D01*
X-267315Y-1996000D02*
X-248268Y-2005524D01*
X-248268Y-2005524D02*
X-210172Y-2005524D01*
X-210172Y-2005524D02*
X-191125Y-1996000D01*
X-191125Y-1996000D02*
X-181601Y-1986476D01*
X-181601Y-1986476D02*
X-172077Y-1967428D01*
X-172077Y-1967428D02*
X-172077Y-1929333D01*
X-172077Y-1929333D02*
X-181601Y-1910286D01*
X-181601Y-1910286D02*
X-191125Y-1900762D01*
X-191125Y-1900762D02*
X-210172Y-1891238D01*
X-86363Y-2005524D02*
X-86363Y-1872190D01*
X-86363Y-1891238D02*
X-76839Y-1881714D01*
X-76839Y-1881714D02*
X-57792Y-1872190D01*
X-57792Y-1872190D02*
X-29220Y-1872190D01*
X-29220Y-1872190D02*
X-10173Y-1881714D01*
X-10173Y-1881714D02*
X-649Y-1900762D01*
X-649Y-1900762D02*
X-649Y-2005524D01*
X-649Y-1900762D02*
X8875Y-1881714D01*
X8875Y-1881714D02*
X27923Y-1872190D01*
X27923Y-1872190D02*
X56494Y-1872190D01*
X56494Y-1872190D02*
X75542Y-1881714D01*
X75542Y-1881714D02*
X85066Y-1900762D01*
X85066Y-1900762D02*
X85066Y-2005524D01*
X180304Y-2005524D02*
X180304Y-1872190D01*
X180304Y-1891238D02*
X189827Y-1881714D01*
X189827Y-1881714D02*
X208875Y-1872190D01*
X208875Y-1872190D02*
X237446Y-1872190D01*
X237446Y-1872190D02*
X256494Y-1881714D01*
X256494Y-1881714D02*
X266018Y-1900762D01*
X266018Y-1900762D02*
X266018Y-2005524D01*
X266018Y-1900762D02*
X275542Y-1881714D01*
X275542Y-1881714D02*
X294589Y-1872190D01*
X294589Y-1872190D02*
X323161Y-1872190D01*
X323161Y-1872190D02*
X342208Y-1881714D01*
X342208Y-1881714D02*
X351732Y-1900762D01*
X351732Y-1900762D02*
X351732Y-2005524D01*
X742208Y-1796000D02*
X570780Y-2053143D01*
X999351Y-1805524D02*
X1018399Y-1805524D01*
X1018399Y-1805524D02*
X1037447Y-1815048D01*
X1037447Y-1815048D02*
X1046970Y-1824571D01*
X1046970Y-1824571D02*
X1056494Y-1843619D01*
X1056494Y-1843619D02*
X1066018Y-1881714D01*
X1066018Y-1881714D02*
X1066018Y-1929333D01*
X1066018Y-1929333D02*
X1056494Y-1967428D01*
X1056494Y-1967428D02*
X1046970Y-1986476D01*
X1046970Y-1986476D02*
X1037447Y-1996000D01*
X1037447Y-1996000D02*
X1018399Y-2005524D01*
X1018399Y-2005524D02*
X999351Y-2005524D01*
X999351Y-2005524D02*
X980304Y-1996000D01*
X980304Y-1996000D02*
X970780Y-1986476D01*
X970780Y-1986476D02*
X961256Y-1967428D01*
X961256Y-1967428D02*
X951732Y-1929333D01*
X951732Y-1929333D02*
X951732Y-1881714D01*
X951732Y-1881714D02*
X961256Y-1843619D01*
X961256Y-1843619D02*
X970780Y-1824571D01*
X970780Y-1824571D02*
X980304Y-1815048D01*
X980304Y-1815048D02*
X999351Y-1805524D01*
X1151732Y-1986476D02*
X1161256Y-1996000D01*
X1161256Y-1996000D02*
X1151732Y-2005524D01*
X1151732Y-2005524D02*
X1142209Y-1996000D01*
X1142209Y-1996000D02*
X1151732Y-1986476D01*
X1151732Y-1986476D02*
X1151732Y-2005524D01*
X1351732Y-2005524D02*
X1237447Y-2005524D01*
X1294589Y-2005524D02*
X1294589Y-1805524D01*
X1294589Y-1805524D02*
X1275542Y-1834095D01*
X1275542Y-1834095D02*
X1256494Y-1853143D01*
X1256494Y-1853143D02*
X1237447Y-1862667D01*
X1427923Y-1824571D02*
X1437447Y-1815048D01*
X1437447Y-1815048D02*
X1456494Y-1805524D01*
X1456494Y-1805524D02*
X1504113Y-1805524D01*
X1504113Y-1805524D02*
X1523161Y-1815048D01*
X1523161Y-1815048D02*
X1532685Y-1824571D01*
X1532685Y-1824571D02*
X1542208Y-1843619D01*
X1542208Y-1843619D02*
X1542208Y-1862667D01*
X1542208Y-1862667D02*
X1532685Y-1891238D01*
X1532685Y-1891238D02*
X1418399Y-2005524D01*
X1418399Y-2005524D02*
X1542208Y-2005524D01*
X1666018Y-1805524D02*
X1685066Y-1805524D01*
X1685066Y-1805524D02*
X1704113Y-1815048D01*
X1704113Y-1815048D02*
X1713637Y-1824571D01*
X1713637Y-1824571D02*
X1723161Y-1843619D01*
X1723161Y-1843619D02*
X1732685Y-1881714D01*
X1732685Y-1881714D02*
X1732685Y-1929333D01*
X1732685Y-1929333D02*
X1723161Y-1967428D01*
X1723161Y-1967428D02*
X1713637Y-1986476D01*
X1713637Y-1986476D02*
X1704113Y-1996000D01*
X1704113Y-1996000D02*
X1685066Y-2005524D01*
X1685066Y-2005524D02*
X1666018Y-2005524D01*
X1666018Y-2005524D02*
X1646970Y-1996000D01*
X1646970Y-1996000D02*
X1637447Y-1986476D01*
X1637447Y-1986476D02*
X1627923Y-1967428D01*
X1627923Y-1967428D02*
X1618399Y-1929333D01*
X1618399Y-1929333D02*
X1618399Y-1881714D01*
X1618399Y-1881714D02*
X1627923Y-1843619D01*
X1627923Y-1843619D02*
X1637447Y-1824571D01*
X1637447Y-1824571D02*
X1646970Y-1815048D01*
X1646970Y-1815048D02*
X1666018Y-1805524D01*
X1856494Y-1805524D02*
X1875542Y-1805524D01*
X1875542Y-1805524D02*
X1894589Y-1815048D01*
X1894589Y-1815048D02*
X1904113Y-1824571D01*
X1904113Y-1824571D02*
X1913637Y-1843619D01*
X1913637Y-1843619D02*
X1923161Y-1881714D01*
X1923161Y-1881714D02*
X1923161Y-1929333D01*
X1923161Y-1929333D02*
X1913637Y-1967428D01*
X1913637Y-1967428D02*
X1904113Y-1986476D01*
X1904113Y-1986476D02*
X1894589Y-1996000D01*
X1894589Y-1996000D02*
X1875542Y-2005524D01*
X1875542Y-2005524D02*
X1856494Y-2005524D01*
X1856494Y-2005524D02*
X1837447Y-1996000D01*
X1837447Y-1996000D02*
X1827923Y-1986476D01*
X1827923Y-1986476D02*
X1818399Y-1967428D01*
X1818399Y-1967428D02*
X1808875Y-1929333D01*
X1808875Y-1929333D02*
X1808875Y-1881714D01*
X1808875Y-1881714D02*
X1818399Y-1843619D01*
X1818399Y-1843619D02*
X1827923Y-1824571D01*
X1827923Y-1824571D02*
X1837447Y-1815048D01*
X1837447Y-1815048D02*
X1856494Y-1805524D01*
X1999351Y-1805524D02*
X1999351Y-1843619D01*
X2075542Y-1805524D02*
X2075542Y-1843619D01*
X2370780Y-2081714D02*
X2361256Y-2072190D01*
X2361256Y-2072190D02*
X2342209Y-2043619D01*
X2342209Y-2043619D02*
X2332685Y-2024571D01*
X2332685Y-2024571D02*
X2323161Y-1996000D01*
X2323161Y-1996000D02*
X2313637Y-1948381D01*
X2313637Y-1948381D02*
X2313637Y-1910286D01*
X2313637Y-1910286D02*
X2323161Y-1862667D01*
X2323161Y-1862667D02*
X2332685Y-1834095D01*
X2332685Y-1834095D02*
X2342209Y-1815048D01*
X2342209Y-1815048D02*
X2361256Y-1786476D01*
X2361256Y-1786476D02*
X2370780Y-1776952D01*
X2532685Y-1805524D02*
X2494590Y-1805524D01*
X2494590Y-1805524D02*
X2475542Y-1815048D01*
X2475542Y-1815048D02*
X2466018Y-1824571D01*
X2466018Y-1824571D02*
X2446971Y-1853143D01*
X2446971Y-1853143D02*
X2437447Y-1891238D01*
X2437447Y-1891238D02*
X2437447Y-1967428D01*
X2437447Y-1967428D02*
X2446971Y-1986476D01*
X2446971Y-1986476D02*
X2456494Y-1996000D01*
X2456494Y-1996000D02*
X2475542Y-2005524D01*
X2475542Y-2005524D02*
X2513637Y-2005524D01*
X2513637Y-2005524D02*
X2532685Y-1996000D01*
X2532685Y-1996000D02*
X2542209Y-1986476D01*
X2542209Y-1986476D02*
X2551732Y-1967428D01*
X2551732Y-1967428D02*
X2551732Y-1919809D01*
X2551732Y-1919809D02*
X2542209Y-1900762D01*
X2542209Y-1900762D02*
X2532685Y-1891238D01*
X2532685Y-1891238D02*
X2513637Y-1881714D01*
X2513637Y-1881714D02*
X2475542Y-1881714D01*
X2475542Y-1881714D02*
X2456494Y-1891238D01*
X2456494Y-1891238D02*
X2446971Y-1900762D01*
X2446971Y-1900762D02*
X2437447Y-1919809D01*
X2789828Y-2005524D02*
X2789828Y-1805524D01*
X2875542Y-2005524D02*
X2875542Y-1900762D01*
X2875542Y-1900762D02*
X2866018Y-1881714D01*
X2866018Y-1881714D02*
X2846971Y-1872190D01*
X2846971Y-1872190D02*
X2818399Y-1872190D01*
X2818399Y-1872190D02*
X2799351Y-1881714D01*
X2799351Y-1881714D02*
X2789828Y-1891238D01*
X2999351Y-2005524D02*
X2980304Y-1996000D01*
X2980304Y-1996000D02*
X2970780Y-1986476D01*
X2970780Y-1986476D02*
X2961256Y-1967428D01*
X2961256Y-1967428D02*
X2961256Y-1910286D01*
X2961256Y-1910286D02*
X2970780Y-1891238D01*
X2970780Y-1891238D02*
X2980304Y-1881714D01*
X2980304Y-1881714D02*
X2999351Y-1872190D01*
X2999351Y-1872190D02*
X3027923Y-1872190D01*
X3027923Y-1872190D02*
X3046971Y-1881714D01*
X3046971Y-1881714D02*
X3056494Y-1891238D01*
X3056494Y-1891238D02*
X3066018Y-1910286D01*
X3066018Y-1910286D02*
X3066018Y-1967428D01*
X3066018Y-1967428D02*
X3056494Y-1986476D01*
X3056494Y-1986476D02*
X3046971Y-1996000D01*
X3046971Y-1996000D02*
X3027923Y-2005524D01*
X3027923Y-2005524D02*
X2999351Y-2005524D01*
X3180304Y-2005524D02*
X3161256Y-1996000D01*
X3161256Y-1996000D02*
X3151732Y-1976952D01*
X3151732Y-1976952D02*
X3151732Y-1805524D01*
X3332685Y-1996000D02*
X3313637Y-2005524D01*
X3313637Y-2005524D02*
X3275542Y-2005524D01*
X3275542Y-2005524D02*
X3256494Y-1996000D01*
X3256494Y-1996000D02*
X3246971Y-1976952D01*
X3246971Y-1976952D02*
X3246971Y-1900762D01*
X3246971Y-1900762D02*
X3256494Y-1881714D01*
X3256494Y-1881714D02*
X3275542Y-1872190D01*
X3275542Y-1872190D02*
X3313637Y-1872190D01*
X3313637Y-1872190D02*
X3332685Y-1881714D01*
X3332685Y-1881714D02*
X3342209Y-1900762D01*
X3342209Y-1900762D02*
X3342209Y-1919809D01*
X3342209Y-1919809D02*
X3246971Y-1938857D01*
X3418399Y-1996000D02*
X3437447Y-2005524D01*
X3437447Y-2005524D02*
X3475542Y-2005524D01*
X3475542Y-2005524D02*
X3494590Y-1996000D01*
X3494590Y-1996000D02*
X3504113Y-1976952D01*
X3504113Y-1976952D02*
X3504113Y-1967428D01*
X3504113Y-1967428D02*
X3494590Y-1948381D01*
X3494590Y-1948381D02*
X3475542Y-1938857D01*
X3475542Y-1938857D02*
X3446971Y-1938857D01*
X3446971Y-1938857D02*
X3427923Y-1929333D01*
X3427923Y-1929333D02*
X3418399Y-1910286D01*
X3418399Y-1910286D02*
X3418399Y-1900762D01*
X3418399Y-1900762D02*
X3427923Y-1881714D01*
X3427923Y-1881714D02*
X3446971Y-1872190D01*
X3446971Y-1872190D02*
X3475542Y-1872190D01*
X3475542Y-1872190D02*
X3494590Y-1881714D01*
X3570780Y-2081714D02*
X3580304Y-2072190D01*
X3580304Y-2072190D02*
X3599352Y-2043619D01*
X3599352Y-2043619D02*
X3608875Y-2024571D01*
X3608875Y-2024571D02*
X3618399Y-1996000D01*
X3618399Y-1996000D02*
X3627923Y-1948381D01*
X3627923Y-1948381D02*
X3627923Y-1910286D01*
X3627923Y-1910286D02*
X3618399Y-1862667D01*
X3618399Y-1862667D02*
X3608875Y-1834095D01*
X3608875Y-1834095D02*
X3599352Y-1815048D01*
X3599352Y-1815048D02*
X3580304Y-1786476D01*
X3580304Y-1786476D02*
X3570780Y-1776952D01*
X3932685Y-2081714D02*
X3923161Y-2072190D01*
X3923161Y-2072190D02*
X3904113Y-2043619D01*
X3904113Y-2043619D02*
X3894590Y-2024571D01*
X3894590Y-2024571D02*
X3885066Y-1996000D01*
X3885066Y-1996000D02*
X3875542Y-1948381D01*
X3875542Y-1948381D02*
X3875542Y-1910286D01*
X3875542Y-1910286D02*
X3885066Y-1862667D01*
X3885066Y-1862667D02*
X3894590Y-1834095D01*
X3894590Y-1834095D02*
X3904113Y-1815048D01*
X3904113Y-1815048D02*
X3923161Y-1786476D01*
X3923161Y-1786476D02*
X3932685Y-1776952D01*
X4008875Y-1872190D02*
X4008875Y-2005524D01*
X4008875Y-1891238D02*
X4018399Y-1881714D01*
X4018399Y-1881714D02*
X4037447Y-1872190D01*
X4037447Y-1872190D02*
X4066018Y-1872190D01*
X4066018Y-1872190D02*
X4085066Y-1881714D01*
X4085066Y-1881714D02*
X4094590Y-1900762D01*
X4094590Y-1900762D02*
X4094590Y-2005524D01*
X4218399Y-2005524D02*
X4199352Y-1996000D01*
X4199352Y-1996000D02*
X4189828Y-1986476D01*
X4189828Y-1986476D02*
X4180304Y-1967428D01*
X4180304Y-1967428D02*
X4180304Y-1910286D01*
X4180304Y-1910286D02*
X4189828Y-1891238D01*
X4189828Y-1891238D02*
X4199352Y-1881714D01*
X4199352Y-1881714D02*
X4218399Y-1872190D01*
X4218399Y-1872190D02*
X4246971Y-1872190D01*
X4246971Y-1872190D02*
X4266018Y-1881714D01*
X4266018Y-1881714D02*
X4275542Y-1891238D01*
X4275542Y-1891238D02*
X4285066Y-1910286D01*
X4285066Y-1910286D02*
X4285066Y-1967428D01*
X4285066Y-1967428D02*
X4275542Y-1986476D01*
X4275542Y-1986476D02*
X4266018Y-1996000D01*
X4266018Y-1996000D02*
X4246971Y-2005524D01*
X4246971Y-2005524D02*
X4218399Y-2005524D01*
X4342209Y-1872190D02*
X4418399Y-1872190D01*
X4370780Y-1805524D02*
X4370780Y-1976952D01*
X4370780Y-1976952D02*
X4380304Y-1996000D01*
X4380304Y-1996000D02*
X4399352Y-2005524D01*
X4399352Y-2005524D02*
X4418399Y-2005524D01*
X4637447Y-1872190D02*
X4637447Y-2072190D01*
X4637447Y-1881714D02*
X4656495Y-1872190D01*
X4656495Y-1872190D02*
X4694590Y-1872190D01*
X4694590Y-1872190D02*
X4713637Y-1881714D01*
X4713637Y-1881714D02*
X4723161Y-1891238D01*
X4723161Y-1891238D02*
X4732685Y-1910286D01*
X4732685Y-1910286D02*
X4732685Y-1967428D01*
X4732685Y-1967428D02*
X4723161Y-1986476D01*
X4723161Y-1986476D02*
X4713637Y-1996000D01*
X4713637Y-1996000D02*
X4694590Y-2005524D01*
X4694590Y-2005524D02*
X4656495Y-2005524D01*
X4656495Y-2005524D02*
X4637447Y-1996000D01*
X4846971Y-2005524D02*
X4827923Y-1996000D01*
X4827923Y-1996000D02*
X4818399Y-1976952D01*
X4818399Y-1976952D02*
X4818399Y-1805524D01*
X5008876Y-2005524D02*
X5008876Y-1900762D01*
X5008876Y-1900762D02*
X4999352Y-1881714D01*
X4999352Y-1881714D02*
X4980304Y-1872190D01*
X4980304Y-1872190D02*
X4942209Y-1872190D01*
X4942209Y-1872190D02*
X4923161Y-1881714D01*
X5008876Y-1996000D02*
X4989828Y-2005524D01*
X4989828Y-2005524D02*
X4942209Y-2005524D01*
X4942209Y-2005524D02*
X4923161Y-1996000D01*
X4923161Y-1996000D02*
X4913637Y-1976952D01*
X4913637Y-1976952D02*
X4913637Y-1957905D01*
X4913637Y-1957905D02*
X4923161Y-1938857D01*
X4923161Y-1938857D02*
X4942209Y-1929333D01*
X4942209Y-1929333D02*
X4989828Y-1929333D01*
X4989828Y-1929333D02*
X5008876Y-1919809D01*
X5075542Y-1872190D02*
X5151733Y-1872190D01*
X5104114Y-1805524D02*
X5104114Y-1976952D01*
X5104114Y-1976952D02*
X5113637Y-1996000D01*
X5113637Y-1996000D02*
X5132685Y-2005524D01*
X5132685Y-2005524D02*
X5151733Y-2005524D01*
X5294590Y-1996000D02*
X5275542Y-2005524D01*
X5275542Y-2005524D02*
X5237447Y-2005524D01*
X5237447Y-2005524D02*
X5218399Y-1996000D01*
X5218399Y-1996000D02*
X5208876Y-1976952D01*
X5208876Y-1976952D02*
X5208876Y-1900762D01*
X5208876Y-1900762D02*
X5218399Y-1881714D01*
X5218399Y-1881714D02*
X5237447Y-1872190D01*
X5237447Y-1872190D02*
X5275542Y-1872190D01*
X5275542Y-1872190D02*
X5294590Y-1881714D01*
X5294590Y-1881714D02*
X5304114Y-1900762D01*
X5304114Y-1900762D02*
X5304114Y-1919809D01*
X5304114Y-1919809D02*
X5208876Y-1938857D01*
X5475542Y-2005524D02*
X5475542Y-1805524D01*
X5475542Y-1996000D02*
X5456495Y-2005524D01*
X5456495Y-2005524D02*
X5418399Y-2005524D01*
X5418399Y-2005524D02*
X5399352Y-1996000D01*
X5399352Y-1996000D02*
X5389828Y-1986476D01*
X5389828Y-1986476D02*
X5380304Y-1967428D01*
X5380304Y-1967428D02*
X5380304Y-1910286D01*
X5380304Y-1910286D02*
X5389828Y-1891238D01*
X5389828Y-1891238D02*
X5399352Y-1881714D01*
X5399352Y-1881714D02*
X5418399Y-1872190D01*
X5418399Y-1872190D02*
X5456495Y-1872190D01*
X5456495Y-1872190D02*
X5475542Y-1881714D01*
X5551733Y-2081714D02*
X5561257Y-2072190D01*
X5561257Y-2072190D02*
X5580304Y-2043619D01*
X5580304Y-2043619D02*
X5589828Y-2024571D01*
X5589828Y-2024571D02*
X5599352Y-1996000D01*
X5599352Y-1996000D02*
X5608875Y-1948381D01*
X5608875Y-1948381D02*
X5608875Y-1910286D01*
X5608875Y-1910286D02*
X5599352Y-1862667D01*
X5599352Y-1862667D02*
X5589828Y-1834095D01*
X5589828Y-1834095D02*
X5580304Y-1815048D01*
X5580304Y-1815048D02*
X5561257Y-1786476D01*
X5561257Y-1786476D02*
X5551733Y-1776952D01*
X-1291125Y-2133000D02*
X-1291125Y-2333000D01*
X-1391125Y-2233000D02*
X-1191125Y-2233000D01*
X-962553Y-2125524D02*
X-838744Y-2125524D01*
X-838744Y-2125524D02*
X-905411Y-2201714D01*
X-905411Y-2201714D02*
X-876839Y-2201714D01*
X-876839Y-2201714D02*
X-857792Y-2211238D01*
X-857792Y-2211238D02*
X-848268Y-2220762D01*
X-848268Y-2220762D02*
X-838744Y-2239810D01*
X-838744Y-2239810D02*
X-838744Y-2287429D01*
X-838744Y-2287429D02*
X-848268Y-2306476D01*
X-848268Y-2306476D02*
X-857792Y-2316000D01*
X-857792Y-2316000D02*
X-876839Y-2325524D01*
X-876839Y-2325524D02*
X-933982Y-2325524D01*
X-933982Y-2325524D02*
X-953030Y-2316000D01*
X-953030Y-2316000D02*
X-962553Y-2306476D01*
X-753030Y-2306476D02*
X-743506Y-2316000D01*
X-743506Y-2316000D02*
X-753030Y-2325524D01*
X-753030Y-2325524D02*
X-762553Y-2316000D01*
X-762553Y-2316000D02*
X-753030Y-2306476D01*
X-753030Y-2306476D02*
X-753030Y-2325524D01*
X-648268Y-2325524D02*
X-610173Y-2325524D01*
X-610173Y-2325524D02*
X-591125Y-2316000D01*
X-591125Y-2316000D02*
X-581601Y-2306476D01*
X-581601Y-2306476D02*
X-562554Y-2277905D01*
X-562554Y-2277905D02*
X-553030Y-2239810D01*
X-553030Y-2239810D02*
X-553030Y-2163619D01*
X-553030Y-2163619D02*
X-562554Y-2144571D01*
X-562554Y-2144571D02*
X-572077Y-2135048D01*
X-572077Y-2135048D02*
X-591125Y-2125524D01*
X-591125Y-2125524D02*
X-629220Y-2125524D01*
X-629220Y-2125524D02*
X-648268Y-2135048D01*
X-648268Y-2135048D02*
X-657792Y-2144571D01*
X-657792Y-2144571D02*
X-667315Y-2163619D01*
X-667315Y-2163619D02*
X-667315Y-2211238D01*
X-667315Y-2211238D02*
X-657792Y-2230286D01*
X-657792Y-2230286D02*
X-648268Y-2239810D01*
X-648268Y-2239810D02*
X-629220Y-2249333D01*
X-629220Y-2249333D02*
X-591125Y-2249333D01*
X-591125Y-2249333D02*
X-572077Y-2239810D01*
X-572077Y-2239810D02*
X-562554Y-2230286D01*
X-562554Y-2230286D02*
X-553030Y-2211238D01*
X-438744Y-2211238D02*
X-457792Y-2201714D01*
X-457792Y-2201714D02*
X-467315Y-2192190D01*
X-467315Y-2192190D02*
X-476839Y-2173143D01*
X-476839Y-2173143D02*
X-476839Y-2163619D01*
X-476839Y-2163619D02*
X-467315Y-2144571D01*
X-467315Y-2144571D02*
X-457792Y-2135048D01*
X-457792Y-2135048D02*
X-438744Y-2125524D01*
X-438744Y-2125524D02*
X-400649Y-2125524D01*
X-400649Y-2125524D02*
X-381601Y-2135048D01*
X-381601Y-2135048D02*
X-372077Y-2144571D01*
X-372077Y-2144571D02*
X-362553Y-2163619D01*
X-362553Y-2163619D02*
X-362553Y-2173143D01*
X-362553Y-2173143D02*
X-372077Y-2192190D01*
X-372077Y-2192190D02*
X-381601Y-2201714D01*
X-381601Y-2201714D02*
X-400649Y-2211238D01*
X-400649Y-2211238D02*
X-438744Y-2211238D01*
X-438744Y-2211238D02*
X-457792Y-2220762D01*
X-457792Y-2220762D02*
X-467315Y-2230286D01*
X-467315Y-2230286D02*
X-476839Y-2249333D01*
X-476839Y-2249333D02*
X-476839Y-2287429D01*
X-476839Y-2287429D02*
X-467315Y-2306476D01*
X-467315Y-2306476D02*
X-457792Y-2316000D01*
X-457792Y-2316000D02*
X-438744Y-2325524D01*
X-438744Y-2325524D02*
X-400649Y-2325524D01*
X-400649Y-2325524D02*
X-381601Y-2316000D01*
X-381601Y-2316000D02*
X-372077Y-2306476D01*
X-372077Y-2306476D02*
X-362553Y-2287429D01*
X-362553Y-2287429D02*
X-362553Y-2249333D01*
X-362553Y-2249333D02*
X-372077Y-2230286D01*
X-372077Y-2230286D02*
X-381601Y-2220762D01*
X-381601Y-2220762D02*
X-400649Y-2211238D01*
X-248268Y-2211238D02*
X-267315Y-2201714D01*
X-267315Y-2201714D02*
X-276839Y-2192190D01*
X-276839Y-2192190D02*
X-286363Y-2173143D01*
X-286363Y-2173143D02*
X-286363Y-2163619D01*
X-286363Y-2163619D02*
X-276839Y-2144571D01*
X-276839Y-2144571D02*
X-267315Y-2135048D01*
X-267315Y-2135048D02*
X-248268Y-2125524D01*
X-248268Y-2125524D02*
X-210172Y-2125524D01*
X-210172Y-2125524D02*
X-191125Y-2135048D01*
X-191125Y-2135048D02*
X-181601Y-2144571D01*
X-181601Y-2144571D02*
X-172077Y-2163619D01*
X-172077Y-2163619D02*
X-172077Y-2173143D01*
X-172077Y-2173143D02*
X-181601Y-2192190D01*
X-181601Y-2192190D02*
X-191125Y-2201714D01*
X-191125Y-2201714D02*
X-210172Y-2211238D01*
X-210172Y-2211238D02*
X-248268Y-2211238D01*
X-248268Y-2211238D02*
X-267315Y-2220762D01*
X-267315Y-2220762D02*
X-276839Y-2230286D01*
X-276839Y-2230286D02*
X-286363Y-2249333D01*
X-286363Y-2249333D02*
X-286363Y-2287429D01*
X-286363Y-2287429D02*
X-276839Y-2306476D01*
X-276839Y-2306476D02*
X-267315Y-2316000D01*
X-267315Y-2316000D02*
X-248268Y-2325524D01*
X-248268Y-2325524D02*
X-210172Y-2325524D01*
X-210172Y-2325524D02*
X-191125Y-2316000D01*
X-191125Y-2316000D02*
X-181601Y-2306476D01*
X-181601Y-2306476D02*
X-172077Y-2287429D01*
X-172077Y-2287429D02*
X-172077Y-2249333D01*
X-172077Y-2249333D02*
X-181601Y-2230286D01*
X-181601Y-2230286D02*
X-191125Y-2220762D01*
X-191125Y-2220762D02*
X-210172Y-2211238D01*
X-86363Y-2325524D02*
X-86363Y-2192190D01*
X-86363Y-2211238D02*
X-76839Y-2201714D01*
X-76839Y-2201714D02*
X-57792Y-2192190D01*
X-57792Y-2192190D02*
X-29220Y-2192190D01*
X-29220Y-2192190D02*
X-10173Y-2201714D01*
X-10173Y-2201714D02*
X-649Y-2220762D01*
X-649Y-2220762D02*
X-649Y-2325524D01*
X-649Y-2220762D02*
X8875Y-2201714D01*
X8875Y-2201714D02*
X27923Y-2192190D01*
X27923Y-2192190D02*
X56494Y-2192190D01*
X56494Y-2192190D02*
X75542Y-2201714D01*
X75542Y-2201714D02*
X85066Y-2220762D01*
X85066Y-2220762D02*
X85066Y-2325524D01*
X180304Y-2325524D02*
X180304Y-2192190D01*
X180304Y-2211238D02*
X189827Y-2201714D01*
X189827Y-2201714D02*
X208875Y-2192190D01*
X208875Y-2192190D02*
X237446Y-2192190D01*
X237446Y-2192190D02*
X256494Y-2201714D01*
X256494Y-2201714D02*
X266018Y-2220762D01*
X266018Y-2220762D02*
X266018Y-2325524D01*
X266018Y-2220762D02*
X275542Y-2201714D01*
X275542Y-2201714D02*
X294589Y-2192190D01*
X294589Y-2192190D02*
X323161Y-2192190D01*
X323161Y-2192190D02*
X342208Y-2201714D01*
X342208Y-2201714D02*
X351732Y-2220762D01*
X351732Y-2220762D02*
X351732Y-2325524D01*
X742208Y-2116000D02*
X570780Y-2373143D01*
X999351Y-2125524D02*
X1018399Y-2125524D01*
X1018399Y-2125524D02*
X1037447Y-2135048D01*
X1037447Y-2135048D02*
X1046970Y-2144571D01*
X1046970Y-2144571D02*
X1056494Y-2163619D01*
X1056494Y-2163619D02*
X1066018Y-2201714D01*
X1066018Y-2201714D02*
X1066018Y-2249333D01*
X1066018Y-2249333D02*
X1056494Y-2287429D01*
X1056494Y-2287429D02*
X1046970Y-2306476D01*
X1046970Y-2306476D02*
X1037447Y-2316000D01*
X1037447Y-2316000D02*
X1018399Y-2325524D01*
X1018399Y-2325524D02*
X999351Y-2325524D01*
X999351Y-2325524D02*
X980304Y-2316000D01*
X980304Y-2316000D02*
X970780Y-2306476D01*
X970780Y-2306476D02*
X961256Y-2287429D01*
X961256Y-2287429D02*
X951732Y-2249333D01*
X951732Y-2249333D02*
X951732Y-2201714D01*
X951732Y-2201714D02*
X961256Y-2163619D01*
X961256Y-2163619D02*
X970780Y-2144571D01*
X970780Y-2144571D02*
X980304Y-2135048D01*
X980304Y-2135048D02*
X999351Y-2125524D01*
X1151732Y-2306476D02*
X1161256Y-2316000D01*
X1161256Y-2316000D02*
X1151732Y-2325524D01*
X1151732Y-2325524D02*
X1142209Y-2316000D01*
X1142209Y-2316000D02*
X1151732Y-2306476D01*
X1151732Y-2306476D02*
X1151732Y-2325524D01*
X1351732Y-2325524D02*
X1237447Y-2325524D01*
X1294589Y-2325524D02*
X1294589Y-2125524D01*
X1294589Y-2125524D02*
X1275542Y-2154095D01*
X1275542Y-2154095D02*
X1256494Y-2173143D01*
X1256494Y-2173143D02*
X1237447Y-2182667D01*
X1532685Y-2125524D02*
X1437447Y-2125524D01*
X1437447Y-2125524D02*
X1427923Y-2220762D01*
X1427923Y-2220762D02*
X1437447Y-2211238D01*
X1437447Y-2211238D02*
X1456494Y-2201714D01*
X1456494Y-2201714D02*
X1504113Y-2201714D01*
X1504113Y-2201714D02*
X1523161Y-2211238D01*
X1523161Y-2211238D02*
X1532685Y-2220762D01*
X1532685Y-2220762D02*
X1542208Y-2239810D01*
X1542208Y-2239810D02*
X1542208Y-2287429D01*
X1542208Y-2287429D02*
X1532685Y-2306476D01*
X1532685Y-2306476D02*
X1523161Y-2316000D01*
X1523161Y-2316000D02*
X1504113Y-2325524D01*
X1504113Y-2325524D02*
X1456494Y-2325524D01*
X1456494Y-2325524D02*
X1437447Y-2316000D01*
X1437447Y-2316000D02*
X1427923Y-2306476D01*
X1608875Y-2125524D02*
X1742208Y-2125524D01*
X1742208Y-2125524D02*
X1656494Y-2325524D01*
X1856494Y-2125524D02*
X1875542Y-2125524D01*
X1875542Y-2125524D02*
X1894589Y-2135048D01*
X1894589Y-2135048D02*
X1904113Y-2144571D01*
X1904113Y-2144571D02*
X1913637Y-2163619D01*
X1913637Y-2163619D02*
X1923161Y-2201714D01*
X1923161Y-2201714D02*
X1923161Y-2249333D01*
X1923161Y-2249333D02*
X1913637Y-2287429D01*
X1913637Y-2287429D02*
X1904113Y-2306476D01*
X1904113Y-2306476D02*
X1894589Y-2316000D01*
X1894589Y-2316000D02*
X1875542Y-2325524D01*
X1875542Y-2325524D02*
X1856494Y-2325524D01*
X1856494Y-2325524D02*
X1837447Y-2316000D01*
X1837447Y-2316000D02*
X1827923Y-2306476D01*
X1827923Y-2306476D02*
X1818399Y-2287429D01*
X1818399Y-2287429D02*
X1808875Y-2249333D01*
X1808875Y-2249333D02*
X1808875Y-2201714D01*
X1808875Y-2201714D02*
X1818399Y-2163619D01*
X1818399Y-2163619D02*
X1827923Y-2144571D01*
X1827923Y-2144571D02*
X1837447Y-2135048D01*
X1837447Y-2135048D02*
X1856494Y-2125524D01*
X1999351Y-2125524D02*
X1999351Y-2163619D01*
X2075542Y-2125524D02*
X2075542Y-2163619D01*
X2370780Y-2401714D02*
X2361256Y-2392190D01*
X2361256Y-2392190D02*
X2342209Y-2363619D01*
X2342209Y-2363619D02*
X2332685Y-2344571D01*
X2332685Y-2344571D02*
X2323161Y-2316000D01*
X2323161Y-2316000D02*
X2313637Y-2268381D01*
X2313637Y-2268381D02*
X2313637Y-2230286D01*
X2313637Y-2230286D02*
X2323161Y-2182667D01*
X2323161Y-2182667D02*
X2332685Y-2154095D01*
X2332685Y-2154095D02*
X2342209Y-2135048D01*
X2342209Y-2135048D02*
X2361256Y-2106476D01*
X2361256Y-2106476D02*
X2370780Y-2096952D01*
X2532685Y-2125524D02*
X2494590Y-2125524D01*
X2494590Y-2125524D02*
X2475542Y-2135048D01*
X2475542Y-2135048D02*
X2466018Y-2144571D01*
X2466018Y-2144571D02*
X2446971Y-2173143D01*
X2446971Y-2173143D02*
X2437447Y-2211238D01*
X2437447Y-2211238D02*
X2437447Y-2287429D01*
X2437447Y-2287429D02*
X2446971Y-2306476D01*
X2446971Y-2306476D02*
X2456494Y-2316000D01*
X2456494Y-2316000D02*
X2475542Y-2325524D01*
X2475542Y-2325524D02*
X2513637Y-2325524D01*
X2513637Y-2325524D02*
X2532685Y-2316000D01*
X2532685Y-2316000D02*
X2542209Y-2306476D01*
X2542209Y-2306476D02*
X2551732Y-2287429D01*
X2551732Y-2287429D02*
X2551732Y-2239810D01*
X2551732Y-2239810D02*
X2542209Y-2220762D01*
X2542209Y-2220762D02*
X2532685Y-2211238D01*
X2532685Y-2211238D02*
X2513637Y-2201714D01*
X2513637Y-2201714D02*
X2475542Y-2201714D01*
X2475542Y-2201714D02*
X2456494Y-2211238D01*
X2456494Y-2211238D02*
X2446971Y-2220762D01*
X2446971Y-2220762D02*
X2437447Y-2239810D01*
X2789828Y-2325524D02*
X2789828Y-2125524D01*
X2875542Y-2325524D02*
X2875542Y-2220762D01*
X2875542Y-2220762D02*
X2866018Y-2201714D01*
X2866018Y-2201714D02*
X2846971Y-2192190D01*
X2846971Y-2192190D02*
X2818399Y-2192190D01*
X2818399Y-2192190D02*
X2799351Y-2201714D01*
X2799351Y-2201714D02*
X2789828Y-2211238D01*
X2999351Y-2325524D02*
X2980304Y-2316000D01*
X2980304Y-2316000D02*
X2970780Y-2306476D01*
X2970780Y-2306476D02*
X2961256Y-2287429D01*
X2961256Y-2287429D02*
X2961256Y-2230286D01*
X2961256Y-2230286D02*
X2970780Y-2211238D01*
X2970780Y-2211238D02*
X2980304Y-2201714D01*
X2980304Y-2201714D02*
X2999351Y-2192190D01*
X2999351Y-2192190D02*
X3027923Y-2192190D01*
X3027923Y-2192190D02*
X3046971Y-2201714D01*
X3046971Y-2201714D02*
X3056494Y-2211238D01*
X3056494Y-2211238D02*
X3066018Y-2230286D01*
X3066018Y-2230286D02*
X3066018Y-2287429D01*
X3066018Y-2287429D02*
X3056494Y-2306476D01*
X3056494Y-2306476D02*
X3046971Y-2316000D01*
X3046971Y-2316000D02*
X3027923Y-2325524D01*
X3027923Y-2325524D02*
X2999351Y-2325524D01*
X3180304Y-2325524D02*
X3161256Y-2316000D01*
X3161256Y-2316000D02*
X3151732Y-2296952D01*
X3151732Y-2296952D02*
X3151732Y-2125524D01*
X3332685Y-2316000D02*
X3313637Y-2325524D01*
X3313637Y-2325524D02*
X3275542Y-2325524D01*
X3275542Y-2325524D02*
X3256494Y-2316000D01*
X3256494Y-2316000D02*
X3246971Y-2296952D01*
X3246971Y-2296952D02*
X3246971Y-2220762D01*
X3246971Y-2220762D02*
X3256494Y-2201714D01*
X3256494Y-2201714D02*
X3275542Y-2192190D01*
X3275542Y-2192190D02*
X3313637Y-2192190D01*
X3313637Y-2192190D02*
X3332685Y-2201714D01*
X3332685Y-2201714D02*
X3342209Y-2220762D01*
X3342209Y-2220762D02*
X3342209Y-2239810D01*
X3342209Y-2239810D02*
X3246971Y-2258857D01*
X3418399Y-2316000D02*
X3437447Y-2325524D01*
X3437447Y-2325524D02*
X3475542Y-2325524D01*
X3475542Y-2325524D02*
X3494590Y-2316000D01*
X3494590Y-2316000D02*
X3504113Y-2296952D01*
X3504113Y-2296952D02*
X3504113Y-2287429D01*
X3504113Y-2287429D02*
X3494590Y-2268381D01*
X3494590Y-2268381D02*
X3475542Y-2258857D01*
X3475542Y-2258857D02*
X3446971Y-2258857D01*
X3446971Y-2258857D02*
X3427923Y-2249333D01*
X3427923Y-2249333D02*
X3418399Y-2230286D01*
X3418399Y-2230286D02*
X3418399Y-2220762D01*
X3418399Y-2220762D02*
X3427923Y-2201714D01*
X3427923Y-2201714D02*
X3446971Y-2192190D01*
X3446971Y-2192190D02*
X3475542Y-2192190D01*
X3475542Y-2192190D02*
X3494590Y-2201714D01*
X3570780Y-2401714D02*
X3580304Y-2392190D01*
X3580304Y-2392190D02*
X3599352Y-2363619D01*
X3599352Y-2363619D02*
X3608875Y-2344571D01*
X3608875Y-2344571D02*
X3618399Y-2316000D01*
X3618399Y-2316000D02*
X3627923Y-2268381D01*
X3627923Y-2268381D02*
X3627923Y-2230286D01*
X3627923Y-2230286D02*
X3618399Y-2182667D01*
X3618399Y-2182667D02*
X3608875Y-2154095D01*
X3608875Y-2154095D02*
X3599352Y-2135048D01*
X3599352Y-2135048D02*
X3580304Y-2106476D01*
X3580304Y-2106476D02*
X3570780Y-2096952D01*
X3932685Y-2401714D02*
X3923161Y-2392190D01*
X3923161Y-2392190D02*
X3904113Y-2363619D01*
X3904113Y-2363619D02*
X3894590Y-2344571D01*
X3894590Y-2344571D02*
X3885066Y-2316000D01*
X3885066Y-2316000D02*
X3875542Y-2268381D01*
X3875542Y-2268381D02*
X3875542Y-2230286D01*
X3875542Y-2230286D02*
X3885066Y-2182667D01*
X3885066Y-2182667D02*
X3894590Y-2154095D01*
X3894590Y-2154095D02*
X3904113Y-2135048D01*
X3904113Y-2135048D02*
X3923161Y-2106476D01*
X3923161Y-2106476D02*
X3932685Y-2096952D01*
X4008875Y-2192190D02*
X4008875Y-2325524D01*
X4008875Y-2211238D02*
X4018399Y-2201714D01*
X4018399Y-2201714D02*
X4037447Y-2192190D01*
X4037447Y-2192190D02*
X4066018Y-2192190D01*
X4066018Y-2192190D02*
X4085066Y-2201714D01*
X4085066Y-2201714D02*
X4094590Y-2220762D01*
X4094590Y-2220762D02*
X4094590Y-2325524D01*
X4218399Y-2325524D02*
X4199352Y-2316000D01*
X4199352Y-2316000D02*
X4189828Y-2306476D01*
X4189828Y-2306476D02*
X4180304Y-2287429D01*
X4180304Y-2287429D02*
X4180304Y-2230286D01*
X4180304Y-2230286D02*
X4189828Y-2211238D01*
X4189828Y-2211238D02*
X4199352Y-2201714D01*
X4199352Y-2201714D02*
X4218399Y-2192190D01*
X4218399Y-2192190D02*
X4246971Y-2192190D01*
X4246971Y-2192190D02*
X4266018Y-2201714D01*
X4266018Y-2201714D02*
X4275542Y-2211238D01*
X4275542Y-2211238D02*
X4285066Y-2230286D01*
X4285066Y-2230286D02*
X4285066Y-2287429D01*
X4285066Y-2287429D02*
X4275542Y-2306476D01*
X4275542Y-2306476D02*
X4266018Y-2316000D01*
X4266018Y-2316000D02*
X4246971Y-2325524D01*
X4246971Y-2325524D02*
X4218399Y-2325524D01*
X4342209Y-2192190D02*
X4418399Y-2192190D01*
X4370780Y-2125524D02*
X4370780Y-2296952D01*
X4370780Y-2296952D02*
X4380304Y-2316000D01*
X4380304Y-2316000D02*
X4399352Y-2325524D01*
X4399352Y-2325524D02*
X4418399Y-2325524D01*
X4637447Y-2192190D02*
X4637447Y-2392190D01*
X4637447Y-2201714D02*
X4656495Y-2192190D01*
X4656495Y-2192190D02*
X4694590Y-2192190D01*
X4694590Y-2192190D02*
X4713637Y-2201714D01*
X4713637Y-2201714D02*
X4723161Y-2211238D01*
X4723161Y-2211238D02*
X4732685Y-2230286D01*
X4732685Y-2230286D02*
X4732685Y-2287429D01*
X4732685Y-2287429D02*
X4723161Y-2306476D01*
X4723161Y-2306476D02*
X4713637Y-2316000D01*
X4713637Y-2316000D02*
X4694590Y-2325524D01*
X4694590Y-2325524D02*
X4656495Y-2325524D01*
X4656495Y-2325524D02*
X4637447Y-2316000D01*
X4846971Y-2325524D02*
X4827923Y-2316000D01*
X4827923Y-2316000D02*
X4818399Y-2296952D01*
X4818399Y-2296952D02*
X4818399Y-2125524D01*
X5008876Y-2325524D02*
X5008876Y-2220762D01*
X5008876Y-2220762D02*
X4999352Y-2201714D01*
X4999352Y-2201714D02*
X4980304Y-2192190D01*
X4980304Y-2192190D02*
X4942209Y-2192190D01*
X4942209Y-2192190D02*
X4923161Y-2201714D01*
X5008876Y-2316000D02*
X4989828Y-2325524D01*
X4989828Y-2325524D02*
X4942209Y-2325524D01*
X4942209Y-2325524D02*
X4923161Y-2316000D01*
X4923161Y-2316000D02*
X4913637Y-2296952D01*
X4913637Y-2296952D02*
X4913637Y-2277905D01*
X4913637Y-2277905D02*
X4923161Y-2258857D01*
X4923161Y-2258857D02*
X4942209Y-2249333D01*
X4942209Y-2249333D02*
X4989828Y-2249333D01*
X4989828Y-2249333D02*
X5008876Y-2239810D01*
X5075542Y-2192190D02*
X5151733Y-2192190D01*
X5104114Y-2125524D02*
X5104114Y-2296952D01*
X5104114Y-2296952D02*
X5113637Y-2316000D01*
X5113637Y-2316000D02*
X5132685Y-2325524D01*
X5132685Y-2325524D02*
X5151733Y-2325524D01*
X5294590Y-2316000D02*
X5275542Y-2325524D01*
X5275542Y-2325524D02*
X5237447Y-2325524D01*
X5237447Y-2325524D02*
X5218399Y-2316000D01*
X5218399Y-2316000D02*
X5208876Y-2296952D01*
X5208876Y-2296952D02*
X5208876Y-2220762D01*
X5208876Y-2220762D02*
X5218399Y-2201714D01*
X5218399Y-2201714D02*
X5237447Y-2192190D01*
X5237447Y-2192190D02*
X5275542Y-2192190D01*
X5275542Y-2192190D02*
X5294590Y-2201714D01*
X5294590Y-2201714D02*
X5304114Y-2220762D01*
X5304114Y-2220762D02*
X5304114Y-2239810D01*
X5304114Y-2239810D02*
X5208876Y-2258857D01*
X5475542Y-2325524D02*
X5475542Y-2125524D01*
X5475542Y-2316000D02*
X5456495Y-2325524D01*
X5456495Y-2325524D02*
X5418399Y-2325524D01*
X5418399Y-2325524D02*
X5399352Y-2316000D01*
X5399352Y-2316000D02*
X5389828Y-2306476D01*
X5389828Y-2306476D02*
X5380304Y-2287429D01*
X5380304Y-2287429D02*
X5380304Y-2230286D01*
X5380304Y-2230286D02*
X5389828Y-2211238D01*
X5389828Y-2211238D02*
X5399352Y-2201714D01*
X5399352Y-2201714D02*
X5418399Y-2192190D01*
X5418399Y-2192190D02*
X5456495Y-2192190D01*
X5456495Y-2192190D02*
X5475542Y-2201714D01*
X5551733Y-2401714D02*
X5561257Y-2392190D01*
X5561257Y-2392190D02*
X5580304Y-2363619D01*
X5580304Y-2363619D02*
X5589828Y-2344571D01*
X5589828Y-2344571D02*
X5599352Y-2316000D01*
X5599352Y-2316000D02*
X5608875Y-2268381D01*
X5608875Y-2268381D02*
X5608875Y-2230286D01*
X5608875Y-2230286D02*
X5599352Y-2182667D01*
X5599352Y-2182667D02*
X5589828Y-2154095D01*
X5589828Y-2154095D02*
X5580304Y-2135048D01*
X5580304Y-2135048D02*
X5561257Y-2106476D01*
X5561257Y-2106476D02*
X5551733Y-2096952D01*
M02*
