%TF.GenerationSoftware,KiCad,Pcbnew,7.0.2*%
%TF.CreationDate,2023-05-08T20:33:36+02:00*%
%TF.ProjectId,verasity_PCB,76657261-7369-4747-995f-5043422e6b69,rev?*%
%TF.SameCoordinates,Original*%
%TF.FileFunction,Drillmap*%
%TF.FilePolarity,Positive*%
%FSLAX45Y45*%
G04 Gerber Fmt 4.5, Leading zero omitted, Abs format (unit mm)*
G04 Created by KiCad (PCBNEW 7.0.2) date 2023-05-08 20:33:36*
%MOMM*%
%LPD*%
G01*
G04 APERTURE LIST*
%ADD10C,0.010000*%
%ADD11C,0.200000*%
%ADD12C,0.040000*%
%ADD13C,0.100000*%
%ADD14C,0.150000*%
G04 APERTURE END LIST*
D10*
X-1190625Y-714375D02*
G75*
G03*
X-952500Y-952500I238125J0D01*
G01*
X-952500Y10953750D02*
G75*
G03*
X-1190625Y10715625I0J-238125D01*
G01*
X33099375Y10715625D02*
G75*
G03*
X32861250Y10953750I-238125J0D01*
G01*
X32861250Y-952500D02*
G75*
G03*
X33099375Y-714375I0J238125D01*
G01*
X32861250Y-952500D02*
X-952500Y-952500D01*
X33099375Y10715625D02*
X33099400Y-714375D01*
X-1190625Y-714375D02*
X-1190625Y10715625D01*
X-952500Y10953750D02*
X32861250Y10953750D01*
D11*
D12*
X-872000Y6730000D02*
X-832000Y6690000D01*
X-832000Y6730000D02*
X-872000Y6690000D01*
X-794700Y6230300D02*
X-754700Y6190300D01*
X-754700Y6230300D02*
X-794700Y6190300D01*
X-671450Y2880000D02*
X-631450Y2840000D01*
X-631450Y2880000D02*
X-671450Y2840000D01*
X2685100Y6725600D02*
X2725100Y6685600D01*
X2725100Y6725600D02*
X2685100Y6685600D01*
X5987100Y8719500D02*
X6027100Y8679500D01*
X6027100Y8719500D02*
X5987100Y8679500D01*
X6431600Y8351200D02*
X6471600Y8311200D01*
X6471600Y8351200D02*
X6431600Y8311200D01*
X7041200Y2839400D02*
X7081200Y2799400D01*
X7081200Y2839400D02*
X7041200Y2799400D01*
D13*
X-908125Y9840000D02*
G75*
G03*
X-908125Y9840000I-50000J0D01*
G01*
X-908125Y9670000D02*
G75*
G03*
X-908125Y9670000I-50000J0D01*
G01*
X-908125Y9500000D02*
G75*
G03*
X-908125Y9500000I-50000J0D01*
G01*
X-908125Y7935000D02*
G75*
G03*
X-908125Y7935000I-50000J0D01*
G01*
X-908125Y7765000D02*
G75*
G03*
X-908125Y7765000I-50000J0D01*
G01*
X-908125Y7595000D02*
G75*
G03*
X-908125Y7595000I-50000J0D01*
G01*
X-670000Y315000D02*
G75*
G03*
X-670000Y315000I-50000J0D01*
G01*
X-670000Y145000D02*
G75*
G03*
X-670000Y145000I-50000J0D01*
G01*
X-670000Y-25000D02*
G75*
G03*
X-670000Y-25000I-50000J0D01*
G01*
X-431875Y6030000D02*
G75*
G03*
X-431875Y6030000I-50000J0D01*
G01*
X-431875Y5860000D02*
G75*
G03*
X-431875Y5860000I-50000J0D01*
G01*
X-431875Y5690000D02*
G75*
G03*
X-431875Y5690000I-50000J0D01*
G01*
X-358125Y10225000D02*
G75*
G03*
X-358125Y10225000I-50000J0D01*
G01*
X-358125Y8825000D02*
G75*
G03*
X-358125Y8825000I-50000J0D01*
G01*
X-358125Y8320000D02*
G75*
G03*
X-358125Y8320000I-50000J0D01*
G01*
X-358125Y6920000D02*
G75*
G03*
X-358125Y6920000I-50000J0D01*
G01*
X-193750Y4125000D02*
G75*
G03*
X-193750Y4125000I-50000J0D01*
G01*
X-193750Y3955000D02*
G75*
G03*
X-193750Y3955000I-50000J0D01*
G01*
X-193750Y3785000D02*
G75*
G03*
X-193750Y3785000I-50000J0D01*
G01*
X-188125Y10225000D02*
G75*
G03*
X-188125Y10225000I-50000J0D01*
G01*
X-188125Y8825000D02*
G75*
G03*
X-188125Y8825000I-50000J0D01*
G01*
X-188125Y8320000D02*
G75*
G03*
X-188125Y8320000I-50000J0D01*
G01*
X-188125Y6920000D02*
G75*
G03*
X-188125Y6920000I-50000J0D01*
G01*
X-120000Y700000D02*
G75*
G03*
X-120000Y700000I-50000J0D01*
G01*
X-120000Y-700000D02*
G75*
G03*
X-120000Y-700000I-50000J0D01*
G01*
X-18125Y10225000D02*
G75*
G03*
X-18125Y10225000I-50000J0D01*
G01*
X-18125Y8825000D02*
G75*
G03*
X-18125Y8825000I-50000J0D01*
G01*
X-18125Y8320000D02*
G75*
G03*
X-18125Y8320000I-50000J0D01*
G01*
X-18125Y6920000D02*
G75*
G03*
X-18125Y6920000I-50000J0D01*
G01*
X50000Y700000D02*
G75*
G03*
X50000Y700000I-50000J0D01*
G01*
X50000Y-700000D02*
G75*
G03*
X50000Y-700000I-50000J0D01*
G01*
X118125Y6415000D02*
G75*
G03*
X118125Y6415000I-50000J0D01*
G01*
X118125Y5015000D02*
G75*
G03*
X118125Y5015000I-50000J0D01*
G01*
X220000Y700000D02*
G75*
G03*
X220000Y700000I-50000J0D01*
G01*
X220000Y-700000D02*
G75*
G03*
X220000Y-700000I-50000J0D01*
G01*
X282500Y2220000D02*
G75*
G03*
X282500Y2220000I-50000J0D01*
G01*
X282500Y2050000D02*
G75*
G03*
X282500Y2050000I-50000J0D01*
G01*
X282500Y1880000D02*
G75*
G03*
X282500Y1880000I-50000J0D01*
G01*
X288125Y6415000D02*
G75*
G03*
X288125Y6415000I-50000J0D01*
G01*
X288125Y5015000D02*
G75*
G03*
X288125Y5015000I-50000J0D01*
G01*
X356250Y4510000D02*
G75*
G03*
X356250Y4510000I-50000J0D01*
G01*
X356250Y3110000D02*
G75*
G03*
X356250Y3110000I-50000J0D01*
G01*
X458125Y6415000D02*
G75*
G03*
X458125Y6415000I-50000J0D01*
G01*
X458125Y5015000D02*
G75*
G03*
X458125Y5015000I-50000J0D01*
G01*
X526250Y4510000D02*
G75*
G03*
X526250Y4510000I-50000J0D01*
G01*
X526250Y3110000D02*
G75*
G03*
X526250Y3110000I-50000J0D01*
G01*
X531875Y9840000D02*
G75*
G03*
X531875Y9840000I-50000J0D01*
G01*
X531875Y9670000D02*
G75*
G03*
X531875Y9670000I-50000J0D01*
G01*
X531875Y9500000D02*
G75*
G03*
X531875Y9500000I-50000J0D01*
G01*
X531875Y7935000D02*
G75*
G03*
X531875Y7935000I-50000J0D01*
G01*
X531875Y7765000D02*
G75*
G03*
X531875Y7765000I-50000J0D01*
G01*
X531875Y7595000D02*
G75*
G03*
X531875Y7595000I-50000J0D01*
G01*
X696250Y4510000D02*
G75*
G03*
X696250Y4510000I-50000J0D01*
G01*
X696250Y3110000D02*
G75*
G03*
X696250Y3110000I-50000J0D01*
G01*
X770000Y315000D02*
G75*
G03*
X770000Y315000I-50000J0D01*
G01*
X770000Y145000D02*
G75*
G03*
X770000Y145000I-50000J0D01*
G01*
X770000Y-25000D02*
G75*
G03*
X770000Y-25000I-50000J0D01*
G01*
X832500Y2605000D02*
G75*
G03*
X832500Y2605000I-50000J0D01*
G01*
X832500Y1205000D02*
G75*
G03*
X832500Y1205000I-50000J0D01*
G01*
X996875Y7935000D02*
G75*
G03*
X996875Y7935000I-50000J0D01*
G01*
X996875Y7765000D02*
G75*
G03*
X996875Y7765000I-50000J0D01*
G01*
X996875Y7595000D02*
G75*
G03*
X996875Y7595000I-50000J0D01*
G01*
X1002500Y2605000D02*
G75*
G03*
X1002500Y2605000I-50000J0D01*
G01*
X1002500Y1205000D02*
G75*
G03*
X1002500Y1205000I-50000J0D01*
G01*
X1008125Y6030000D02*
G75*
G03*
X1008125Y6030000I-50000J0D01*
G01*
X1008125Y5860000D02*
G75*
G03*
X1008125Y5860000I-50000J0D01*
G01*
X1008125Y5690000D02*
G75*
G03*
X1008125Y5690000I-50000J0D01*
G01*
X1119600Y10730350D02*
G75*
G03*
X1119600Y10730350I-50000J0D01*
G01*
X1119600Y10476350D02*
G75*
G03*
X1119600Y10476350I-50000J0D01*
G01*
X1119600Y10222350D02*
G75*
G03*
X1119600Y10222350I-50000J0D01*
G01*
X1119600Y9968350D02*
G75*
G03*
X1119600Y9968350I-50000J0D01*
G01*
X1119600Y9714350D02*
G75*
G03*
X1119600Y9714350I-50000J0D01*
G01*
X1119600Y9460350D02*
G75*
G03*
X1119600Y9460350I-50000J0D01*
G01*
X1119600Y9206350D02*
G75*
G03*
X1119600Y9206350I-50000J0D01*
G01*
X1119600Y8952350D02*
G75*
G03*
X1119600Y8952350I-50000J0D01*
G01*
X1119600Y8698350D02*
G75*
G03*
X1119600Y8698350I-50000J0D01*
G01*
X1172500Y2605000D02*
G75*
G03*
X1172500Y2605000I-50000J0D01*
G01*
X1172500Y1205000D02*
G75*
G03*
X1172500Y1205000I-50000J0D01*
G01*
X1246250Y4125000D02*
G75*
G03*
X1246250Y4125000I-50000J0D01*
G01*
X1246250Y3955000D02*
G75*
G03*
X1246250Y3955000I-50000J0D01*
G01*
X1246250Y3785000D02*
G75*
G03*
X1246250Y3785000I-50000J0D01*
G01*
X1535900Y8515050D02*
G75*
G03*
X1535900Y8515050I-50000J0D01*
G01*
X1546875Y8320000D02*
G75*
G03*
X1546875Y8320000I-50000J0D01*
G01*
X1546875Y6920000D02*
G75*
G03*
X1546875Y6920000I-50000J0D01*
G01*
X1711250Y315000D02*
G75*
G03*
X1711250Y315000I-50000J0D01*
G01*
X1711250Y145000D02*
G75*
G03*
X1711250Y145000I-50000J0D01*
G01*
X1711250Y-25000D02*
G75*
G03*
X1711250Y-25000I-50000J0D01*
G01*
X1716875Y8320000D02*
G75*
G03*
X1716875Y8320000I-50000J0D01*
G01*
X1716875Y6920000D02*
G75*
G03*
X1716875Y6920000I-50000J0D01*
G01*
X1722500Y2220000D02*
G75*
G03*
X1722500Y2220000I-50000J0D01*
G01*
X1722500Y2050000D02*
G75*
G03*
X1722500Y2050000I-50000J0D01*
G01*
X1722500Y1880000D02*
G75*
G03*
X1722500Y1880000I-50000J0D01*
G01*
X1789900Y8515050D02*
G75*
G03*
X1789900Y8515050I-50000J0D01*
G01*
X1886875Y8320000D02*
G75*
G03*
X1886875Y8320000I-50000J0D01*
G01*
X1886875Y6920000D02*
G75*
G03*
X1886875Y6920000I-50000J0D01*
G01*
X1949375Y6030000D02*
G75*
G03*
X1949375Y6030000I-50000J0D01*
G01*
X1949375Y5860000D02*
G75*
G03*
X1949375Y5860000I-50000J0D01*
G01*
X1949375Y5690000D02*
G75*
G03*
X1949375Y5690000I-50000J0D01*
G01*
X2043900Y8515050D02*
G75*
G03*
X2043900Y8515050I-50000J0D01*
G01*
X2261250Y700000D02*
G75*
G03*
X2261250Y700000I-50000J0D01*
G01*
X2261250Y-700000D02*
G75*
G03*
X2261250Y-700000I-50000J0D01*
G01*
X2297900Y8515050D02*
G75*
G03*
X2297900Y8515050I-50000J0D01*
G01*
X2425625Y4125000D02*
G75*
G03*
X2425625Y4125000I-50000J0D01*
G01*
X2425625Y3955000D02*
G75*
G03*
X2425625Y3955000I-50000J0D01*
G01*
X2425625Y3785000D02*
G75*
G03*
X2425625Y3785000I-50000J0D01*
G01*
X2431250Y700000D02*
G75*
G03*
X2431250Y700000I-50000J0D01*
G01*
X2431250Y-700000D02*
G75*
G03*
X2431250Y-700000I-50000J0D01*
G01*
X2436875Y7935000D02*
G75*
G03*
X2436875Y7935000I-50000J0D01*
G01*
X2436875Y7765000D02*
G75*
G03*
X2436875Y7765000I-50000J0D01*
G01*
X2436875Y7595000D02*
G75*
G03*
X2436875Y7595000I-50000J0D01*
G01*
X2499375Y6415000D02*
G75*
G03*
X2499375Y6415000I-50000J0D01*
G01*
X2499375Y5015000D02*
G75*
G03*
X2499375Y5015000I-50000J0D01*
G01*
X2551900Y8515050D02*
G75*
G03*
X2551900Y8515050I-50000J0D01*
G01*
X2601250Y700000D02*
G75*
G03*
X2601250Y700000I-50000J0D01*
G01*
X2601250Y-700000D02*
G75*
G03*
X2601250Y-700000I-50000J0D01*
G01*
X2669375Y6415000D02*
G75*
G03*
X2669375Y6415000I-50000J0D01*
G01*
X2669375Y5015000D02*
G75*
G03*
X2669375Y5015000I-50000J0D01*
G01*
X2839375Y6415000D02*
G75*
G03*
X2839375Y6415000I-50000J0D01*
G01*
X2839375Y5015000D02*
G75*
G03*
X2839375Y5015000I-50000J0D01*
G01*
X2901875Y7935000D02*
G75*
G03*
X2901875Y7935000I-50000J0D01*
G01*
X2901875Y7765000D02*
G75*
G03*
X2901875Y7765000I-50000J0D01*
G01*
X2901875Y7595000D02*
G75*
G03*
X2901875Y7595000I-50000J0D01*
G01*
X2968200Y10730350D02*
G75*
G03*
X2968200Y10730350I-50000J0D01*
G01*
X2968200Y10476350D02*
G75*
G03*
X2968200Y10476350I-50000J0D01*
G01*
X2968200Y10222350D02*
G75*
G03*
X2968200Y10222350I-50000J0D01*
G01*
X2968200Y9968350D02*
G75*
G03*
X2968200Y9968350I-50000J0D01*
G01*
X2968200Y9714350D02*
G75*
G03*
X2968200Y9714350I-50000J0D01*
G01*
X2968200Y9460350D02*
G75*
G03*
X2968200Y9460350I-50000J0D01*
G01*
X2968200Y9206350D02*
G75*
G03*
X2968200Y9206350I-50000J0D01*
G01*
X2968200Y8952350D02*
G75*
G03*
X2968200Y8952350I-50000J0D01*
G01*
X2968200Y8698350D02*
G75*
G03*
X2968200Y8698350I-50000J0D01*
G01*
X2975625Y4510000D02*
G75*
G03*
X2975625Y4510000I-50000J0D01*
G01*
X2975625Y3110000D02*
G75*
G03*
X2975625Y3110000I-50000J0D01*
G01*
X3145625Y4510000D02*
G75*
G03*
X3145625Y4510000I-50000J0D01*
G01*
X3145625Y3110000D02*
G75*
G03*
X3145625Y3110000I-50000J0D01*
G01*
X3151250Y315000D02*
G75*
G03*
X3151250Y315000I-50000J0D01*
G01*
X3151250Y145000D02*
G75*
G03*
X3151250Y145000I-50000J0D01*
G01*
X3151250Y-25000D02*
G75*
G03*
X3151250Y-25000I-50000J0D01*
G01*
X3315625Y4510000D02*
G75*
G03*
X3315625Y4510000I-50000J0D01*
G01*
X3315625Y3110000D02*
G75*
G03*
X3315625Y3110000I-50000J0D01*
G01*
X3378125Y2220000D02*
G75*
G03*
X3378125Y2220000I-50000J0D01*
G01*
X3378125Y2050000D02*
G75*
G03*
X3378125Y2050000I-50000J0D01*
G01*
X3378125Y1880000D02*
G75*
G03*
X3378125Y1880000I-50000J0D01*
G01*
X3389375Y6030000D02*
G75*
G03*
X3389375Y6030000I-50000J0D01*
G01*
X3389375Y5860000D02*
G75*
G03*
X3389375Y5860000I-50000J0D01*
G01*
X3389375Y5690000D02*
G75*
G03*
X3389375Y5690000I-50000J0D01*
G01*
X3451875Y8320000D02*
G75*
G03*
X3451875Y8320000I-50000J0D01*
G01*
X3451875Y6920000D02*
G75*
G03*
X3451875Y6920000I-50000J0D01*
G01*
X3621875Y8320000D02*
G75*
G03*
X3621875Y8320000I-50000J0D01*
G01*
X3621875Y6920000D02*
G75*
G03*
X3621875Y6920000I-50000J0D01*
G01*
X3791875Y8320000D02*
G75*
G03*
X3791875Y8320000I-50000J0D01*
G01*
X3791875Y6920000D02*
G75*
G03*
X3791875Y6920000I-50000J0D01*
G01*
X3854375Y9840000D02*
G75*
G03*
X3854375Y9840000I-50000J0D01*
G01*
X3854375Y9670000D02*
G75*
G03*
X3854375Y9670000I-50000J0D01*
G01*
X3854375Y9500000D02*
G75*
G03*
X3854375Y9500000I-50000J0D01*
G01*
X3854375Y6030000D02*
G75*
G03*
X3854375Y6030000I-50000J0D01*
G01*
X3854375Y5860000D02*
G75*
G03*
X3854375Y5860000I-50000J0D01*
G01*
X3854375Y5690000D02*
G75*
G03*
X3854375Y5690000I-50000J0D01*
G01*
X3865625Y4125000D02*
G75*
G03*
X3865625Y4125000I-50000J0D01*
G01*
X3865625Y3955000D02*
G75*
G03*
X3865625Y3955000I-50000J0D01*
G01*
X3865625Y3785000D02*
G75*
G03*
X3865625Y3785000I-50000J0D01*
G01*
X3928125Y2605000D02*
G75*
G03*
X3928125Y2605000I-50000J0D01*
G01*
X3928125Y1205000D02*
G75*
G03*
X3928125Y1205000I-50000J0D01*
G01*
X4092500Y315000D02*
G75*
G03*
X4092500Y315000I-50000J0D01*
G01*
X4092500Y145000D02*
G75*
G03*
X4092500Y145000I-50000J0D01*
G01*
X4092500Y-25000D02*
G75*
G03*
X4092500Y-25000I-50000J0D01*
G01*
X4098125Y2605000D02*
G75*
G03*
X4098125Y2605000I-50000J0D01*
G01*
X4098125Y1205000D02*
G75*
G03*
X4098125Y1205000I-50000J0D01*
G01*
X4268125Y2605000D02*
G75*
G03*
X4268125Y2605000I-50000J0D01*
G01*
X4268125Y1205000D02*
G75*
G03*
X4268125Y1205000I-50000J0D01*
G01*
X4330625Y4125000D02*
G75*
G03*
X4330625Y4125000I-50000J0D01*
G01*
X4330625Y3955000D02*
G75*
G03*
X4330625Y3955000I-50000J0D01*
G01*
X4330625Y3785000D02*
G75*
G03*
X4330625Y3785000I-50000J0D01*
G01*
X4341875Y7935000D02*
G75*
G03*
X4341875Y7935000I-50000J0D01*
G01*
X4341875Y7765000D02*
G75*
G03*
X4341875Y7765000I-50000J0D01*
G01*
X4341875Y7595000D02*
G75*
G03*
X4341875Y7595000I-50000J0D01*
G01*
X4404375Y10225000D02*
G75*
G03*
X4404375Y10225000I-50000J0D01*
G01*
X4404375Y8825000D02*
G75*
G03*
X4404375Y8825000I-50000J0D01*
G01*
X4404375Y6415000D02*
G75*
G03*
X4404375Y6415000I-50000J0D01*
G01*
X4404375Y5015000D02*
G75*
G03*
X4404375Y5015000I-50000J0D01*
G01*
X4574375Y10225000D02*
G75*
G03*
X4574375Y10225000I-50000J0D01*
G01*
X4574375Y8825000D02*
G75*
G03*
X4574375Y8825000I-50000J0D01*
G01*
X4574375Y6415000D02*
G75*
G03*
X4574375Y6415000I-50000J0D01*
G01*
X4574375Y5015000D02*
G75*
G03*
X4574375Y5015000I-50000J0D01*
G01*
X4642500Y700000D02*
G75*
G03*
X4642500Y700000I-50000J0D01*
G01*
X4642500Y-700000D02*
G75*
G03*
X4642500Y-700000I-50000J0D01*
G01*
X4744375Y10225000D02*
G75*
G03*
X4744375Y10225000I-50000J0D01*
G01*
X4744375Y8825000D02*
G75*
G03*
X4744375Y8825000I-50000J0D01*
G01*
X4744375Y6415000D02*
G75*
G03*
X4744375Y6415000I-50000J0D01*
G01*
X4744375Y5015000D02*
G75*
G03*
X4744375Y5015000I-50000J0D01*
G01*
X4806875Y7935000D02*
G75*
G03*
X4806875Y7935000I-50000J0D01*
G01*
X4806875Y7765000D02*
G75*
G03*
X4806875Y7765000I-50000J0D01*
G01*
X4806875Y7595000D02*
G75*
G03*
X4806875Y7595000I-50000J0D01*
G01*
X4812500Y700000D02*
G75*
G03*
X4812500Y700000I-50000J0D01*
G01*
X4812500Y-700000D02*
G75*
G03*
X4812500Y-700000I-50000J0D01*
G01*
X4818125Y2220000D02*
G75*
G03*
X4818125Y2220000I-50000J0D01*
G01*
X4818125Y2050000D02*
G75*
G03*
X4818125Y2050000I-50000J0D01*
G01*
X4818125Y1880000D02*
G75*
G03*
X4818125Y1880000I-50000J0D01*
G01*
X4880625Y4510000D02*
G75*
G03*
X4880625Y4510000I-50000J0D01*
G01*
X4880625Y3110000D02*
G75*
G03*
X4880625Y3110000I-50000J0D01*
G01*
X4982500Y700000D02*
G75*
G03*
X4982500Y700000I-50000J0D01*
G01*
X4982500Y-700000D02*
G75*
G03*
X4982500Y-700000I-50000J0D01*
G01*
X5050625Y4510000D02*
G75*
G03*
X5050625Y4510000I-50000J0D01*
G01*
X5050625Y3110000D02*
G75*
G03*
X5050625Y3110000I-50000J0D01*
G01*
X5220625Y4510000D02*
G75*
G03*
X5220625Y4510000I-50000J0D01*
G01*
X5220625Y3110000D02*
G75*
G03*
X5220625Y3110000I-50000J0D01*
G01*
X5283125Y2220000D02*
G75*
G03*
X5283125Y2220000I-50000J0D01*
G01*
X5283125Y2050000D02*
G75*
G03*
X5283125Y2050000I-50000J0D01*
G01*
X5283125Y1880000D02*
G75*
G03*
X5283125Y1880000I-50000J0D01*
G01*
X5294375Y9840000D02*
G75*
G03*
X5294375Y9840000I-50000J0D01*
G01*
X5294375Y9670000D02*
G75*
G03*
X5294375Y9670000I-50000J0D01*
G01*
X5294375Y9500000D02*
G75*
G03*
X5294375Y9500000I-50000J0D01*
G01*
X5294375Y6030000D02*
G75*
G03*
X5294375Y6030000I-50000J0D01*
G01*
X5294375Y5860000D02*
G75*
G03*
X5294375Y5860000I-50000J0D01*
G01*
X5294375Y5690000D02*
G75*
G03*
X5294375Y5690000I-50000J0D01*
G01*
X5356875Y8320000D02*
G75*
G03*
X5356875Y8320000I-50000J0D01*
G01*
X5356875Y6920000D02*
G75*
G03*
X5356875Y6920000I-50000J0D01*
G01*
X5526875Y8320000D02*
G75*
G03*
X5526875Y8320000I-50000J0D01*
G01*
X5526875Y6920000D02*
G75*
G03*
X5526875Y6920000I-50000J0D01*
G01*
X5532500Y315000D02*
G75*
G03*
X5532500Y315000I-50000J0D01*
G01*
X5532500Y145000D02*
G75*
G03*
X5532500Y145000I-50000J0D01*
G01*
X5532500Y-25000D02*
G75*
G03*
X5532500Y-25000I-50000J0D01*
G01*
X5696875Y8320000D02*
G75*
G03*
X5696875Y8320000I-50000J0D01*
G01*
X5696875Y6920000D02*
G75*
G03*
X5696875Y6920000I-50000J0D01*
G01*
X5759375Y9840000D02*
G75*
G03*
X5759375Y9840000I-50000J0D01*
G01*
X5759375Y9670000D02*
G75*
G03*
X5759375Y9670000I-50000J0D01*
G01*
X5759375Y9500000D02*
G75*
G03*
X5759375Y9500000I-50000J0D01*
G01*
X5759375Y6030000D02*
G75*
G03*
X5759375Y6030000I-50000J0D01*
G01*
X5759375Y5860000D02*
G75*
G03*
X5759375Y5860000I-50000J0D01*
G01*
X5759375Y5690000D02*
G75*
G03*
X5759375Y5690000I-50000J0D01*
G01*
X5770625Y4125000D02*
G75*
G03*
X5770625Y4125000I-50000J0D01*
G01*
X5770625Y3955000D02*
G75*
G03*
X5770625Y3955000I-50000J0D01*
G01*
X5770625Y3785000D02*
G75*
G03*
X5770625Y3785000I-50000J0D01*
G01*
X5833125Y2605000D02*
G75*
G03*
X5833125Y2605000I-50000J0D01*
G01*
X5833125Y1205000D02*
G75*
G03*
X5833125Y1205000I-50000J0D01*
G01*
X6003125Y2605000D02*
G75*
G03*
X6003125Y2605000I-50000J0D01*
G01*
X6003125Y1205000D02*
G75*
G03*
X6003125Y1205000I-50000J0D01*
G01*
X6173125Y2605000D02*
G75*
G03*
X6173125Y2605000I-50000J0D01*
G01*
X6173125Y1205000D02*
G75*
G03*
X6173125Y1205000I-50000J0D01*
G01*
X6235625Y4125000D02*
G75*
G03*
X6235625Y4125000I-50000J0D01*
G01*
X6235625Y3955000D02*
G75*
G03*
X6235625Y3955000I-50000J0D01*
G01*
X6235625Y3785000D02*
G75*
G03*
X6235625Y3785000I-50000J0D01*
G01*
X6246875Y7935000D02*
G75*
G03*
X6246875Y7935000I-50000J0D01*
G01*
X6246875Y7765000D02*
G75*
G03*
X6246875Y7765000I-50000J0D01*
G01*
X6246875Y7595000D02*
G75*
G03*
X6246875Y7595000I-50000J0D01*
G01*
X6309375Y10225000D02*
G75*
G03*
X6309375Y10225000I-50000J0D01*
G01*
X6309375Y8825000D02*
G75*
G03*
X6309375Y8825000I-50000J0D01*
G01*
X6309375Y6415000D02*
G75*
G03*
X6309375Y6415000I-50000J0D01*
G01*
X6309375Y5015000D02*
G75*
G03*
X6309375Y5015000I-50000J0D01*
G01*
X6473750Y315000D02*
G75*
G03*
X6473750Y315000I-50000J0D01*
G01*
X6473750Y145000D02*
G75*
G03*
X6473750Y145000I-50000J0D01*
G01*
X6473750Y-25000D02*
G75*
G03*
X6473750Y-25000I-50000J0D01*
G01*
X6479375Y10225000D02*
G75*
G03*
X6479375Y10225000I-50000J0D01*
G01*
X6479375Y8825000D02*
G75*
G03*
X6479375Y8825000I-50000J0D01*
G01*
X6479375Y6415000D02*
G75*
G03*
X6479375Y6415000I-50000J0D01*
G01*
X6479375Y5015000D02*
G75*
G03*
X6479375Y5015000I-50000J0D01*
G01*
X6649375Y10225000D02*
G75*
G03*
X6649375Y10225000I-50000J0D01*
G01*
X6649375Y8825000D02*
G75*
G03*
X6649375Y8825000I-50000J0D01*
G01*
X6649375Y6415000D02*
G75*
G03*
X6649375Y6415000I-50000J0D01*
G01*
X6649375Y5015000D02*
G75*
G03*
X6649375Y5015000I-50000J0D01*
G01*
X6711875Y7935000D02*
G75*
G03*
X6711875Y7935000I-50000J0D01*
G01*
X6711875Y7765000D02*
G75*
G03*
X6711875Y7765000I-50000J0D01*
G01*
X6711875Y7595000D02*
G75*
G03*
X6711875Y7595000I-50000J0D01*
G01*
X6723125Y2220000D02*
G75*
G03*
X6723125Y2220000I-50000J0D01*
G01*
X6723125Y2050000D02*
G75*
G03*
X6723125Y2050000I-50000J0D01*
G01*
X6723125Y1880000D02*
G75*
G03*
X6723125Y1880000I-50000J0D01*
G01*
X6785625Y4510000D02*
G75*
G03*
X6785625Y4510000I-50000J0D01*
G01*
X6785625Y3110000D02*
G75*
G03*
X6785625Y3110000I-50000J0D01*
G01*
X6955625Y4510000D02*
G75*
G03*
X6955625Y4510000I-50000J0D01*
G01*
X6955625Y3110000D02*
G75*
G03*
X6955625Y3110000I-50000J0D01*
G01*
X7023750Y700000D02*
G75*
G03*
X7023750Y700000I-50000J0D01*
G01*
X7023750Y-700000D02*
G75*
G03*
X7023750Y-700000I-50000J0D01*
G01*
X7125625Y4510000D02*
G75*
G03*
X7125625Y4510000I-50000J0D01*
G01*
X7125625Y3110000D02*
G75*
G03*
X7125625Y3110000I-50000J0D01*
G01*
X7188125Y2220000D02*
G75*
G03*
X7188125Y2220000I-50000J0D01*
G01*
X7188125Y2050000D02*
G75*
G03*
X7188125Y2050000I-50000J0D01*
G01*
X7188125Y1880000D02*
G75*
G03*
X7188125Y1880000I-50000J0D01*
G01*
X7193750Y700000D02*
G75*
G03*
X7193750Y700000I-50000J0D01*
G01*
X7193750Y-700000D02*
G75*
G03*
X7193750Y-700000I-50000J0D01*
G01*
X7199375Y9840000D02*
G75*
G03*
X7199375Y9840000I-50000J0D01*
G01*
X7199375Y9670000D02*
G75*
G03*
X7199375Y9670000I-50000J0D01*
G01*
X7199375Y9500000D02*
G75*
G03*
X7199375Y9500000I-50000J0D01*
G01*
X7199375Y6030000D02*
G75*
G03*
X7199375Y6030000I-50000J0D01*
G01*
X7199375Y5860000D02*
G75*
G03*
X7199375Y5860000I-50000J0D01*
G01*
X7199375Y5690000D02*
G75*
G03*
X7199375Y5690000I-50000J0D01*
G01*
X7261875Y8320000D02*
G75*
G03*
X7261875Y8320000I-50000J0D01*
G01*
X7261875Y6920000D02*
G75*
G03*
X7261875Y6920000I-50000J0D01*
G01*
X7363750Y700000D02*
G75*
G03*
X7363750Y700000I-50000J0D01*
G01*
X7363750Y-700000D02*
G75*
G03*
X7363750Y-700000I-50000J0D01*
G01*
X7431875Y8320000D02*
G75*
G03*
X7431875Y8320000I-50000J0D01*
G01*
X7431875Y6920000D02*
G75*
G03*
X7431875Y6920000I-50000J0D01*
G01*
X7601875Y8320000D02*
G75*
G03*
X7601875Y8320000I-50000J0D01*
G01*
X7601875Y6920000D02*
G75*
G03*
X7601875Y6920000I-50000J0D01*
G01*
X7664375Y9840000D02*
G75*
G03*
X7664375Y9840000I-50000J0D01*
G01*
X7664375Y9670000D02*
G75*
G03*
X7664375Y9670000I-50000J0D01*
G01*
X7664375Y9500000D02*
G75*
G03*
X7664375Y9500000I-50000J0D01*
G01*
X7664375Y6030000D02*
G75*
G03*
X7664375Y6030000I-50000J0D01*
G01*
X7664375Y5860000D02*
G75*
G03*
X7664375Y5860000I-50000J0D01*
G01*
X7664375Y5690000D02*
G75*
G03*
X7664375Y5690000I-50000J0D01*
G01*
X7675625Y4125000D02*
G75*
G03*
X7675625Y4125000I-50000J0D01*
G01*
X7675625Y3955000D02*
G75*
G03*
X7675625Y3955000I-50000J0D01*
G01*
X7675625Y3785000D02*
G75*
G03*
X7675625Y3785000I-50000J0D01*
G01*
X7738125Y2605000D02*
G75*
G03*
X7738125Y2605000I-50000J0D01*
G01*
X7738125Y1205000D02*
G75*
G03*
X7738125Y1205000I-50000J0D01*
G01*
X7908125Y2605000D02*
G75*
G03*
X7908125Y2605000I-50000J0D01*
G01*
X7908125Y1205000D02*
G75*
G03*
X7908125Y1205000I-50000J0D01*
G01*
X7913750Y315000D02*
G75*
G03*
X7913750Y315000I-50000J0D01*
G01*
X7913750Y145000D02*
G75*
G03*
X7913750Y145000I-50000J0D01*
G01*
X7913750Y-25000D02*
G75*
G03*
X7913750Y-25000I-50000J0D01*
G01*
X8078125Y2605000D02*
G75*
G03*
X8078125Y2605000I-50000J0D01*
G01*
X8078125Y1205000D02*
G75*
G03*
X8078125Y1205000I-50000J0D01*
G01*
X8140625Y4125000D02*
G75*
G03*
X8140625Y4125000I-50000J0D01*
G01*
X8140625Y3955000D02*
G75*
G03*
X8140625Y3955000I-50000J0D01*
G01*
X8140625Y3785000D02*
G75*
G03*
X8140625Y3785000I-50000J0D01*
G01*
X8151875Y7935000D02*
G75*
G03*
X8151875Y7935000I-50000J0D01*
G01*
X8151875Y7765000D02*
G75*
G03*
X8151875Y7765000I-50000J0D01*
G01*
X8151875Y7595000D02*
G75*
G03*
X8151875Y7595000I-50000J0D01*
G01*
X8214375Y10225000D02*
G75*
G03*
X8214375Y10225000I-50000J0D01*
G01*
X8214375Y8825000D02*
G75*
G03*
X8214375Y8825000I-50000J0D01*
G01*
X8214375Y6415000D02*
G75*
G03*
X8214375Y6415000I-50000J0D01*
G01*
X8214375Y5015000D02*
G75*
G03*
X8214375Y5015000I-50000J0D01*
G01*
X8384375Y10225000D02*
G75*
G03*
X8384375Y10225000I-50000J0D01*
G01*
X8384375Y8825000D02*
G75*
G03*
X8384375Y8825000I-50000J0D01*
G01*
X8384375Y6415000D02*
G75*
G03*
X8384375Y6415000I-50000J0D01*
G01*
X8384375Y5015000D02*
G75*
G03*
X8384375Y5015000I-50000J0D01*
G01*
X8554375Y10225000D02*
G75*
G03*
X8554375Y10225000I-50000J0D01*
G01*
X8554375Y8825000D02*
G75*
G03*
X8554375Y8825000I-50000J0D01*
G01*
X8554375Y6415000D02*
G75*
G03*
X8554375Y6415000I-50000J0D01*
G01*
X8554375Y5015000D02*
G75*
G03*
X8554375Y5015000I-50000J0D01*
G01*
X8616875Y7935000D02*
G75*
G03*
X8616875Y7935000I-50000J0D01*
G01*
X8616875Y7765000D02*
G75*
G03*
X8616875Y7765000I-50000J0D01*
G01*
X8616875Y7595000D02*
G75*
G03*
X8616875Y7595000I-50000J0D01*
G01*
X8628125Y2220000D02*
G75*
G03*
X8628125Y2220000I-50000J0D01*
G01*
X8628125Y2050000D02*
G75*
G03*
X8628125Y2050000I-50000J0D01*
G01*
X8628125Y1880000D02*
G75*
G03*
X8628125Y1880000I-50000J0D01*
G01*
X8690625Y4510000D02*
G75*
G03*
X8690625Y4510000I-50000J0D01*
G01*
X8690625Y3110000D02*
G75*
G03*
X8690625Y3110000I-50000J0D01*
G01*
X8855000Y315000D02*
G75*
G03*
X8855000Y315000I-50000J0D01*
G01*
X8855000Y145000D02*
G75*
G03*
X8855000Y145000I-50000J0D01*
G01*
X8855000Y-25000D02*
G75*
G03*
X8855000Y-25000I-50000J0D01*
G01*
X8860625Y4510000D02*
G75*
G03*
X8860625Y4510000I-50000J0D01*
G01*
X8860625Y3110000D02*
G75*
G03*
X8860625Y3110000I-50000J0D01*
G01*
X9030625Y4510000D02*
G75*
G03*
X9030625Y4510000I-50000J0D01*
G01*
X9030625Y3110000D02*
G75*
G03*
X9030625Y3110000I-50000J0D01*
G01*
X9093125Y2220000D02*
G75*
G03*
X9093125Y2220000I-50000J0D01*
G01*
X9093125Y2050000D02*
G75*
G03*
X9093125Y2050000I-50000J0D01*
G01*
X9093125Y1880000D02*
G75*
G03*
X9093125Y1880000I-50000J0D01*
G01*
X9104375Y9840000D02*
G75*
G03*
X9104375Y9840000I-50000J0D01*
G01*
X9104375Y9670000D02*
G75*
G03*
X9104375Y9670000I-50000J0D01*
G01*
X9104375Y9500000D02*
G75*
G03*
X9104375Y9500000I-50000J0D01*
G01*
X9104375Y6030000D02*
G75*
G03*
X9104375Y6030000I-50000J0D01*
G01*
X9104375Y5860000D02*
G75*
G03*
X9104375Y5860000I-50000J0D01*
G01*
X9104375Y5690000D02*
G75*
G03*
X9104375Y5690000I-50000J0D01*
G01*
X9166875Y8320000D02*
G75*
G03*
X9166875Y8320000I-50000J0D01*
G01*
X9166875Y6920000D02*
G75*
G03*
X9166875Y6920000I-50000J0D01*
G01*
X9336875Y8320000D02*
G75*
G03*
X9336875Y8320000I-50000J0D01*
G01*
X9336875Y6920000D02*
G75*
G03*
X9336875Y6920000I-50000J0D01*
G01*
X9405000Y700000D02*
G75*
G03*
X9405000Y700000I-50000J0D01*
G01*
X9405000Y-700000D02*
G75*
G03*
X9405000Y-700000I-50000J0D01*
G01*
X9506875Y8320000D02*
G75*
G03*
X9506875Y8320000I-50000J0D01*
G01*
X9506875Y6920000D02*
G75*
G03*
X9506875Y6920000I-50000J0D01*
G01*
X9569375Y9840000D02*
G75*
G03*
X9569375Y9840000I-50000J0D01*
G01*
X9569375Y9670000D02*
G75*
G03*
X9569375Y9670000I-50000J0D01*
G01*
X9569375Y9500000D02*
G75*
G03*
X9569375Y9500000I-50000J0D01*
G01*
X9569375Y6030000D02*
G75*
G03*
X9569375Y6030000I-50000J0D01*
G01*
X9569375Y5860000D02*
G75*
G03*
X9569375Y5860000I-50000J0D01*
G01*
X9569375Y5690000D02*
G75*
G03*
X9569375Y5690000I-50000J0D01*
G01*
X9575000Y700000D02*
G75*
G03*
X9575000Y700000I-50000J0D01*
G01*
X9575000Y-700000D02*
G75*
G03*
X9575000Y-700000I-50000J0D01*
G01*
X9580625Y4125000D02*
G75*
G03*
X9580625Y4125000I-50000J0D01*
G01*
X9580625Y3955000D02*
G75*
G03*
X9580625Y3955000I-50000J0D01*
G01*
X9580625Y3785000D02*
G75*
G03*
X9580625Y3785000I-50000J0D01*
G01*
X9643125Y2605000D02*
G75*
G03*
X9643125Y2605000I-50000J0D01*
G01*
X9643125Y1205000D02*
G75*
G03*
X9643125Y1205000I-50000J0D01*
G01*
X9745000Y700000D02*
G75*
G03*
X9745000Y700000I-50000J0D01*
G01*
X9745000Y-700000D02*
G75*
G03*
X9745000Y-700000I-50000J0D01*
G01*
X9813125Y2605000D02*
G75*
G03*
X9813125Y2605000I-50000J0D01*
G01*
X9813125Y1205000D02*
G75*
G03*
X9813125Y1205000I-50000J0D01*
G01*
X9983125Y2605000D02*
G75*
G03*
X9983125Y2605000I-50000J0D01*
G01*
X9983125Y1205000D02*
G75*
G03*
X9983125Y1205000I-50000J0D01*
G01*
X10045625Y4125000D02*
G75*
G03*
X10045625Y4125000I-50000J0D01*
G01*
X10045625Y3955000D02*
G75*
G03*
X10045625Y3955000I-50000J0D01*
G01*
X10045625Y3785000D02*
G75*
G03*
X10045625Y3785000I-50000J0D01*
G01*
X10056875Y7935000D02*
G75*
G03*
X10056875Y7935000I-50000J0D01*
G01*
X10056875Y7765000D02*
G75*
G03*
X10056875Y7765000I-50000J0D01*
G01*
X10056875Y7595000D02*
G75*
G03*
X10056875Y7595000I-50000J0D01*
G01*
X10119375Y10225000D02*
G75*
G03*
X10119375Y10225000I-50000J0D01*
G01*
X10119375Y8825000D02*
G75*
G03*
X10119375Y8825000I-50000J0D01*
G01*
X10119375Y6415000D02*
G75*
G03*
X10119375Y6415000I-50000J0D01*
G01*
X10119375Y5015000D02*
G75*
G03*
X10119375Y5015000I-50000J0D01*
G01*
X10289375Y10225000D02*
G75*
G03*
X10289375Y10225000I-50000J0D01*
G01*
X10289375Y8825000D02*
G75*
G03*
X10289375Y8825000I-50000J0D01*
G01*
X10289375Y6415000D02*
G75*
G03*
X10289375Y6415000I-50000J0D01*
G01*
X10289375Y5015000D02*
G75*
G03*
X10289375Y5015000I-50000J0D01*
G01*
X10295000Y315000D02*
G75*
G03*
X10295000Y315000I-50000J0D01*
G01*
X10295000Y145000D02*
G75*
G03*
X10295000Y145000I-50000J0D01*
G01*
X10295000Y-25000D02*
G75*
G03*
X10295000Y-25000I-50000J0D01*
G01*
X10459375Y10225000D02*
G75*
G03*
X10459375Y10225000I-50000J0D01*
G01*
X10459375Y8825000D02*
G75*
G03*
X10459375Y8825000I-50000J0D01*
G01*
X10459375Y6415000D02*
G75*
G03*
X10459375Y6415000I-50000J0D01*
G01*
X10459375Y5015000D02*
G75*
G03*
X10459375Y5015000I-50000J0D01*
G01*
X10521875Y7935000D02*
G75*
G03*
X10521875Y7935000I-50000J0D01*
G01*
X10521875Y7765000D02*
G75*
G03*
X10521875Y7765000I-50000J0D01*
G01*
X10521875Y7595000D02*
G75*
G03*
X10521875Y7595000I-50000J0D01*
G01*
X10533125Y2220000D02*
G75*
G03*
X10533125Y2220000I-50000J0D01*
G01*
X10533125Y2050000D02*
G75*
G03*
X10533125Y2050000I-50000J0D01*
G01*
X10533125Y1880000D02*
G75*
G03*
X10533125Y1880000I-50000J0D01*
G01*
X10595625Y4510000D02*
G75*
G03*
X10595625Y4510000I-50000J0D01*
G01*
X10595625Y3110000D02*
G75*
G03*
X10595625Y3110000I-50000J0D01*
G01*
X10765625Y4510000D02*
G75*
G03*
X10765625Y4510000I-50000J0D01*
G01*
X10765625Y3110000D02*
G75*
G03*
X10765625Y3110000I-50000J0D01*
G01*
X10935625Y4510000D02*
G75*
G03*
X10935625Y4510000I-50000J0D01*
G01*
X10935625Y3110000D02*
G75*
G03*
X10935625Y3110000I-50000J0D01*
G01*
X10998125Y2220000D02*
G75*
G03*
X10998125Y2220000I-50000J0D01*
G01*
X10998125Y2050000D02*
G75*
G03*
X10998125Y2050000I-50000J0D01*
G01*
X10998125Y1880000D02*
G75*
G03*
X10998125Y1880000I-50000J0D01*
G01*
X11009375Y9840000D02*
G75*
G03*
X11009375Y9840000I-50000J0D01*
G01*
X11009375Y9670000D02*
G75*
G03*
X11009375Y9670000I-50000J0D01*
G01*
X11009375Y9500000D02*
G75*
G03*
X11009375Y9500000I-50000J0D01*
G01*
X11009375Y6030000D02*
G75*
G03*
X11009375Y6030000I-50000J0D01*
G01*
X11009375Y5860000D02*
G75*
G03*
X11009375Y5860000I-50000J0D01*
G01*
X11009375Y5690000D02*
G75*
G03*
X11009375Y5690000I-50000J0D01*
G01*
X11071875Y8320000D02*
G75*
G03*
X11071875Y8320000I-50000J0D01*
G01*
X11071875Y6920000D02*
G75*
G03*
X11071875Y6920000I-50000J0D01*
G01*
X11236250Y315000D02*
G75*
G03*
X11236250Y315000I-50000J0D01*
G01*
X11236250Y145000D02*
G75*
G03*
X11236250Y145000I-50000J0D01*
G01*
X11236250Y-25000D02*
G75*
G03*
X11236250Y-25000I-50000J0D01*
G01*
X11241875Y8320000D02*
G75*
G03*
X11241875Y8320000I-50000J0D01*
G01*
X11241875Y6920000D02*
G75*
G03*
X11241875Y6920000I-50000J0D01*
G01*
X11411875Y8320000D02*
G75*
G03*
X11411875Y8320000I-50000J0D01*
G01*
X11411875Y6920000D02*
G75*
G03*
X11411875Y6920000I-50000J0D01*
G01*
X11474375Y6030000D02*
G75*
G03*
X11474375Y6030000I-50000J0D01*
G01*
X11474375Y5860000D02*
G75*
G03*
X11474375Y5860000I-50000J0D01*
G01*
X11474375Y5690000D02*
G75*
G03*
X11474375Y5690000I-50000J0D01*
G01*
X11485625Y4125000D02*
G75*
G03*
X11485625Y4125000I-50000J0D01*
G01*
X11485625Y3955000D02*
G75*
G03*
X11485625Y3955000I-50000J0D01*
G01*
X11485625Y3785000D02*
G75*
G03*
X11485625Y3785000I-50000J0D01*
G01*
X11548125Y2605000D02*
G75*
G03*
X11548125Y2605000I-50000J0D01*
G01*
X11548125Y1205000D02*
G75*
G03*
X11548125Y1205000I-50000J0D01*
G01*
X11718125Y2605000D02*
G75*
G03*
X11718125Y2605000I-50000J0D01*
G01*
X11718125Y1205000D02*
G75*
G03*
X11718125Y1205000I-50000J0D01*
G01*
X11786250Y700000D02*
G75*
G03*
X11786250Y700000I-50000J0D01*
G01*
X11786250Y-700000D02*
G75*
G03*
X11786250Y-700000I-50000J0D01*
G01*
X11888125Y2605000D02*
G75*
G03*
X11888125Y2605000I-50000J0D01*
G01*
X11888125Y1205000D02*
G75*
G03*
X11888125Y1205000I-50000J0D01*
G01*
X11950625Y9840000D02*
G75*
G03*
X11950625Y9840000I-50000J0D01*
G01*
X11950625Y9670000D02*
G75*
G03*
X11950625Y9670000I-50000J0D01*
G01*
X11950625Y9500000D02*
G75*
G03*
X11950625Y9500000I-50000J0D01*
G01*
X11950625Y4125000D02*
G75*
G03*
X11950625Y4125000I-50000J0D01*
G01*
X11950625Y3955000D02*
G75*
G03*
X11950625Y3955000I-50000J0D01*
G01*
X11950625Y3785000D02*
G75*
G03*
X11950625Y3785000I-50000J0D01*
G01*
X11956250Y700000D02*
G75*
G03*
X11956250Y700000I-50000J0D01*
G01*
X11956250Y-700000D02*
G75*
G03*
X11956250Y-700000I-50000J0D01*
G01*
X11961875Y7935000D02*
G75*
G03*
X11961875Y7935000I-50000J0D01*
G01*
X11961875Y7765000D02*
G75*
G03*
X11961875Y7765000I-50000J0D01*
G01*
X11961875Y7595000D02*
G75*
G03*
X11961875Y7595000I-50000J0D01*
G01*
X12024375Y6415000D02*
G75*
G03*
X12024375Y6415000I-50000J0D01*
G01*
X12024375Y5015000D02*
G75*
G03*
X12024375Y5015000I-50000J0D01*
G01*
X12126250Y700000D02*
G75*
G03*
X12126250Y700000I-50000J0D01*
G01*
X12126250Y-700000D02*
G75*
G03*
X12126250Y-700000I-50000J0D01*
G01*
X12194375Y6415000D02*
G75*
G03*
X12194375Y6415000I-50000J0D01*
G01*
X12194375Y5015000D02*
G75*
G03*
X12194375Y5015000I-50000J0D01*
G01*
X12364375Y6415000D02*
G75*
G03*
X12364375Y6415000I-50000J0D01*
G01*
X12364375Y5015000D02*
G75*
G03*
X12364375Y5015000I-50000J0D01*
G01*
X12426875Y7935000D02*
G75*
G03*
X12426875Y7935000I-50000J0D01*
G01*
X12426875Y7765000D02*
G75*
G03*
X12426875Y7765000I-50000J0D01*
G01*
X12426875Y7595000D02*
G75*
G03*
X12426875Y7595000I-50000J0D01*
G01*
X12438125Y2220000D02*
G75*
G03*
X12438125Y2220000I-50000J0D01*
G01*
X12438125Y2050000D02*
G75*
G03*
X12438125Y2050000I-50000J0D01*
G01*
X12438125Y1880000D02*
G75*
G03*
X12438125Y1880000I-50000J0D01*
G01*
X12500625Y10225000D02*
G75*
G03*
X12500625Y10225000I-50000J0D01*
G01*
X12500625Y8825000D02*
G75*
G03*
X12500625Y8825000I-50000J0D01*
G01*
X12500625Y4510000D02*
G75*
G03*
X12500625Y4510000I-50000J0D01*
G01*
X12500625Y3110000D02*
G75*
G03*
X12500625Y3110000I-50000J0D01*
G01*
X12670625Y10225000D02*
G75*
G03*
X12670625Y10225000I-50000J0D01*
G01*
X12670625Y8825000D02*
G75*
G03*
X12670625Y8825000I-50000J0D01*
G01*
X12670625Y4510000D02*
G75*
G03*
X12670625Y4510000I-50000J0D01*
G01*
X12670625Y3110000D02*
G75*
G03*
X12670625Y3110000I-50000J0D01*
G01*
X12676250Y315000D02*
G75*
G03*
X12676250Y315000I-50000J0D01*
G01*
X12676250Y145000D02*
G75*
G03*
X12676250Y145000I-50000J0D01*
G01*
X12676250Y-25000D02*
G75*
G03*
X12676250Y-25000I-50000J0D01*
G01*
X12840625Y10225000D02*
G75*
G03*
X12840625Y10225000I-50000J0D01*
G01*
X12840625Y8825000D02*
G75*
G03*
X12840625Y8825000I-50000J0D01*
G01*
X12840625Y4510000D02*
G75*
G03*
X12840625Y4510000I-50000J0D01*
G01*
X12840625Y3110000D02*
G75*
G03*
X12840625Y3110000I-50000J0D01*
G01*
X12903125Y2220000D02*
G75*
G03*
X12903125Y2220000I-50000J0D01*
G01*
X12903125Y2050000D02*
G75*
G03*
X12903125Y2050000I-50000J0D01*
G01*
X12903125Y1880000D02*
G75*
G03*
X12903125Y1880000I-50000J0D01*
G01*
X12914375Y6030000D02*
G75*
G03*
X12914375Y6030000I-50000J0D01*
G01*
X12914375Y5860000D02*
G75*
G03*
X12914375Y5860000I-50000J0D01*
G01*
X12914375Y5690000D02*
G75*
G03*
X12914375Y5690000I-50000J0D01*
G01*
X12976875Y8320000D02*
G75*
G03*
X12976875Y8320000I-50000J0D01*
G01*
X12976875Y6920000D02*
G75*
G03*
X12976875Y6920000I-50000J0D01*
G01*
X13146875Y8320000D02*
G75*
G03*
X13146875Y8320000I-50000J0D01*
G01*
X13146875Y6920000D02*
G75*
G03*
X13146875Y6920000I-50000J0D01*
G01*
X13316875Y8320000D02*
G75*
G03*
X13316875Y8320000I-50000J0D01*
G01*
X13316875Y6920000D02*
G75*
G03*
X13316875Y6920000I-50000J0D01*
G01*
X13379375Y6030000D02*
G75*
G03*
X13379375Y6030000I-50000J0D01*
G01*
X13379375Y5860000D02*
G75*
G03*
X13379375Y5860000I-50000J0D01*
G01*
X13379375Y5690000D02*
G75*
G03*
X13379375Y5690000I-50000J0D01*
G01*
X13390625Y9840000D02*
G75*
G03*
X13390625Y9840000I-50000J0D01*
G01*
X13390625Y9670000D02*
G75*
G03*
X13390625Y9670000I-50000J0D01*
G01*
X13390625Y9500000D02*
G75*
G03*
X13390625Y9500000I-50000J0D01*
G01*
X13390625Y4125000D02*
G75*
G03*
X13390625Y4125000I-50000J0D01*
G01*
X13390625Y3955000D02*
G75*
G03*
X13390625Y3955000I-50000J0D01*
G01*
X13390625Y3785000D02*
G75*
G03*
X13390625Y3785000I-50000J0D01*
G01*
X13453125Y2605000D02*
G75*
G03*
X13453125Y2605000I-50000J0D01*
G01*
X13453125Y1205000D02*
G75*
G03*
X13453125Y1205000I-50000J0D01*
G01*
X13617500Y315000D02*
G75*
G03*
X13617500Y315000I-50000J0D01*
G01*
X13617500Y145000D02*
G75*
G03*
X13617500Y145000I-50000J0D01*
G01*
X13617500Y-25000D02*
G75*
G03*
X13617500Y-25000I-50000J0D01*
G01*
X13623125Y2605000D02*
G75*
G03*
X13623125Y2605000I-50000J0D01*
G01*
X13623125Y1205000D02*
G75*
G03*
X13623125Y1205000I-50000J0D01*
G01*
X13793125Y2605000D02*
G75*
G03*
X13793125Y2605000I-50000J0D01*
G01*
X13793125Y1205000D02*
G75*
G03*
X13793125Y1205000I-50000J0D01*
G01*
X13855625Y9840000D02*
G75*
G03*
X13855625Y9840000I-50000J0D01*
G01*
X13855625Y9670000D02*
G75*
G03*
X13855625Y9670000I-50000J0D01*
G01*
X13855625Y9500000D02*
G75*
G03*
X13855625Y9500000I-50000J0D01*
G01*
X13855625Y4125000D02*
G75*
G03*
X13855625Y4125000I-50000J0D01*
G01*
X13855625Y3955000D02*
G75*
G03*
X13855625Y3955000I-50000J0D01*
G01*
X13855625Y3785000D02*
G75*
G03*
X13855625Y3785000I-50000J0D01*
G01*
X13866875Y7935000D02*
G75*
G03*
X13866875Y7935000I-50000J0D01*
G01*
X13866875Y7765000D02*
G75*
G03*
X13866875Y7765000I-50000J0D01*
G01*
X13866875Y7595000D02*
G75*
G03*
X13866875Y7595000I-50000J0D01*
G01*
X13929375Y6415000D02*
G75*
G03*
X13929375Y6415000I-50000J0D01*
G01*
X13929375Y5015000D02*
G75*
G03*
X13929375Y5015000I-50000J0D01*
G01*
X14099375Y6415000D02*
G75*
G03*
X14099375Y6415000I-50000J0D01*
G01*
X14099375Y5015000D02*
G75*
G03*
X14099375Y5015000I-50000J0D01*
G01*
X14167500Y700000D02*
G75*
G03*
X14167500Y700000I-50000J0D01*
G01*
X14167500Y-700000D02*
G75*
G03*
X14167500Y-700000I-50000J0D01*
G01*
X14269375Y6415000D02*
G75*
G03*
X14269375Y6415000I-50000J0D01*
G01*
X14269375Y5015000D02*
G75*
G03*
X14269375Y5015000I-50000J0D01*
G01*
X14331875Y7935000D02*
G75*
G03*
X14331875Y7935000I-50000J0D01*
G01*
X14331875Y7765000D02*
G75*
G03*
X14331875Y7765000I-50000J0D01*
G01*
X14331875Y7595000D02*
G75*
G03*
X14331875Y7595000I-50000J0D01*
G01*
X14337500Y700000D02*
G75*
G03*
X14337500Y700000I-50000J0D01*
G01*
X14337500Y-700000D02*
G75*
G03*
X14337500Y-700000I-50000J0D01*
G01*
X14343125Y2220000D02*
G75*
G03*
X14343125Y2220000I-50000J0D01*
G01*
X14343125Y2050000D02*
G75*
G03*
X14343125Y2050000I-50000J0D01*
G01*
X14343125Y1880000D02*
G75*
G03*
X14343125Y1880000I-50000J0D01*
G01*
X14405625Y10225000D02*
G75*
G03*
X14405625Y10225000I-50000J0D01*
G01*
X14405625Y8825000D02*
G75*
G03*
X14405625Y8825000I-50000J0D01*
G01*
X14405625Y4510000D02*
G75*
G03*
X14405625Y4510000I-50000J0D01*
G01*
X14405625Y3110000D02*
G75*
G03*
X14405625Y3110000I-50000J0D01*
G01*
X14507500Y700000D02*
G75*
G03*
X14507500Y700000I-50000J0D01*
G01*
X14507500Y-700000D02*
G75*
G03*
X14507500Y-700000I-50000J0D01*
G01*
X14575625Y10225000D02*
G75*
G03*
X14575625Y10225000I-50000J0D01*
G01*
X14575625Y8825000D02*
G75*
G03*
X14575625Y8825000I-50000J0D01*
G01*
X14575625Y4510000D02*
G75*
G03*
X14575625Y4510000I-50000J0D01*
G01*
X14575625Y3110000D02*
G75*
G03*
X14575625Y3110000I-50000J0D01*
G01*
X14745625Y10225000D02*
G75*
G03*
X14745625Y10225000I-50000J0D01*
G01*
X14745625Y8825000D02*
G75*
G03*
X14745625Y8825000I-50000J0D01*
G01*
X14745625Y4510000D02*
G75*
G03*
X14745625Y4510000I-50000J0D01*
G01*
X14745625Y3110000D02*
G75*
G03*
X14745625Y3110000I-50000J0D01*
G01*
X14808125Y2220000D02*
G75*
G03*
X14808125Y2220000I-50000J0D01*
G01*
X14808125Y2050000D02*
G75*
G03*
X14808125Y2050000I-50000J0D01*
G01*
X14808125Y1880000D02*
G75*
G03*
X14808125Y1880000I-50000J0D01*
G01*
X14819375Y6030000D02*
G75*
G03*
X14819375Y6030000I-50000J0D01*
G01*
X14819375Y5860000D02*
G75*
G03*
X14819375Y5860000I-50000J0D01*
G01*
X14819375Y5690000D02*
G75*
G03*
X14819375Y5690000I-50000J0D01*
G01*
X14881875Y8320000D02*
G75*
G03*
X14881875Y8320000I-50000J0D01*
G01*
X14881875Y6920000D02*
G75*
G03*
X14881875Y6920000I-50000J0D01*
G01*
X15051875Y8320000D02*
G75*
G03*
X15051875Y8320000I-50000J0D01*
G01*
X15051875Y6920000D02*
G75*
G03*
X15051875Y6920000I-50000J0D01*
G01*
X15057500Y315000D02*
G75*
G03*
X15057500Y315000I-50000J0D01*
G01*
X15057500Y145000D02*
G75*
G03*
X15057500Y145000I-50000J0D01*
G01*
X15057500Y-25000D02*
G75*
G03*
X15057500Y-25000I-50000J0D01*
G01*
X15221875Y8320000D02*
G75*
G03*
X15221875Y8320000I-50000J0D01*
G01*
X15221875Y6920000D02*
G75*
G03*
X15221875Y6920000I-50000J0D01*
G01*
X15284375Y6030000D02*
G75*
G03*
X15284375Y6030000I-50000J0D01*
G01*
X15284375Y5860000D02*
G75*
G03*
X15284375Y5860000I-50000J0D01*
G01*
X15284375Y5690000D02*
G75*
G03*
X15284375Y5690000I-50000J0D01*
G01*
X15295625Y9840000D02*
G75*
G03*
X15295625Y9840000I-50000J0D01*
G01*
X15295625Y9670000D02*
G75*
G03*
X15295625Y9670000I-50000J0D01*
G01*
X15295625Y9500000D02*
G75*
G03*
X15295625Y9500000I-50000J0D01*
G01*
X15295625Y4125000D02*
G75*
G03*
X15295625Y4125000I-50000J0D01*
G01*
X15295625Y3955000D02*
G75*
G03*
X15295625Y3955000I-50000J0D01*
G01*
X15295625Y3785000D02*
G75*
G03*
X15295625Y3785000I-50000J0D01*
G01*
X15358125Y2605000D02*
G75*
G03*
X15358125Y2605000I-50000J0D01*
G01*
X15358125Y1205000D02*
G75*
G03*
X15358125Y1205000I-50000J0D01*
G01*
X15528125Y2605000D02*
G75*
G03*
X15528125Y2605000I-50000J0D01*
G01*
X15528125Y1205000D02*
G75*
G03*
X15528125Y1205000I-50000J0D01*
G01*
X15698125Y2605000D02*
G75*
G03*
X15698125Y2605000I-50000J0D01*
G01*
X15698125Y1205000D02*
G75*
G03*
X15698125Y1205000I-50000J0D01*
G01*
X15760625Y9840000D02*
G75*
G03*
X15760625Y9840000I-50000J0D01*
G01*
X15760625Y9670000D02*
G75*
G03*
X15760625Y9670000I-50000J0D01*
G01*
X15760625Y9500000D02*
G75*
G03*
X15760625Y9500000I-50000J0D01*
G01*
X15760625Y4125000D02*
G75*
G03*
X15760625Y4125000I-50000J0D01*
G01*
X15760625Y3955000D02*
G75*
G03*
X15760625Y3955000I-50000J0D01*
G01*
X15760625Y3785000D02*
G75*
G03*
X15760625Y3785000I-50000J0D01*
G01*
X15771875Y7935000D02*
G75*
G03*
X15771875Y7935000I-50000J0D01*
G01*
X15771875Y7765000D02*
G75*
G03*
X15771875Y7765000I-50000J0D01*
G01*
X15771875Y7595000D02*
G75*
G03*
X15771875Y7595000I-50000J0D01*
G01*
X15834375Y6415000D02*
G75*
G03*
X15834375Y6415000I-50000J0D01*
G01*
X15834375Y5015000D02*
G75*
G03*
X15834375Y5015000I-50000J0D01*
G01*
X15998750Y315000D02*
G75*
G03*
X15998750Y315000I-50000J0D01*
G01*
X15998750Y145000D02*
G75*
G03*
X15998750Y145000I-50000J0D01*
G01*
X15998750Y-25000D02*
G75*
G03*
X15998750Y-25000I-50000J0D01*
G01*
X16004375Y6415000D02*
G75*
G03*
X16004375Y6415000I-50000J0D01*
G01*
X16004375Y5015000D02*
G75*
G03*
X16004375Y5015000I-50000J0D01*
G01*
X16174375Y6415000D02*
G75*
G03*
X16174375Y6415000I-50000J0D01*
G01*
X16174375Y5015000D02*
G75*
G03*
X16174375Y5015000I-50000J0D01*
G01*
X16236875Y7935000D02*
G75*
G03*
X16236875Y7935000I-50000J0D01*
G01*
X16236875Y7765000D02*
G75*
G03*
X16236875Y7765000I-50000J0D01*
G01*
X16236875Y7595000D02*
G75*
G03*
X16236875Y7595000I-50000J0D01*
G01*
X16248125Y2220000D02*
G75*
G03*
X16248125Y2220000I-50000J0D01*
G01*
X16248125Y2050000D02*
G75*
G03*
X16248125Y2050000I-50000J0D01*
G01*
X16248125Y1880000D02*
G75*
G03*
X16248125Y1880000I-50000J0D01*
G01*
X16310625Y10225000D02*
G75*
G03*
X16310625Y10225000I-50000J0D01*
G01*
X16310625Y8825000D02*
G75*
G03*
X16310625Y8825000I-50000J0D01*
G01*
X16310625Y4510000D02*
G75*
G03*
X16310625Y4510000I-50000J0D01*
G01*
X16310625Y3110000D02*
G75*
G03*
X16310625Y3110000I-50000J0D01*
G01*
X16480625Y10225000D02*
G75*
G03*
X16480625Y10225000I-50000J0D01*
G01*
X16480625Y8825000D02*
G75*
G03*
X16480625Y8825000I-50000J0D01*
G01*
X16480625Y4510000D02*
G75*
G03*
X16480625Y4510000I-50000J0D01*
G01*
X16480625Y3110000D02*
G75*
G03*
X16480625Y3110000I-50000J0D01*
G01*
X16548750Y700000D02*
G75*
G03*
X16548750Y700000I-50000J0D01*
G01*
X16548750Y-700000D02*
G75*
G03*
X16548750Y-700000I-50000J0D01*
G01*
X16650625Y10225000D02*
G75*
G03*
X16650625Y10225000I-50000J0D01*
G01*
X16650625Y8825000D02*
G75*
G03*
X16650625Y8825000I-50000J0D01*
G01*
X16650625Y4510000D02*
G75*
G03*
X16650625Y4510000I-50000J0D01*
G01*
X16650625Y3110000D02*
G75*
G03*
X16650625Y3110000I-50000J0D01*
G01*
X16713125Y2220000D02*
G75*
G03*
X16713125Y2220000I-50000J0D01*
G01*
X16713125Y2050000D02*
G75*
G03*
X16713125Y2050000I-50000J0D01*
G01*
X16713125Y1880000D02*
G75*
G03*
X16713125Y1880000I-50000J0D01*
G01*
X16718750Y700000D02*
G75*
G03*
X16718750Y700000I-50000J0D01*
G01*
X16718750Y-700000D02*
G75*
G03*
X16718750Y-700000I-50000J0D01*
G01*
X16724375Y6030000D02*
G75*
G03*
X16724375Y6030000I-50000J0D01*
G01*
X16724375Y5860000D02*
G75*
G03*
X16724375Y5860000I-50000J0D01*
G01*
X16724375Y5690000D02*
G75*
G03*
X16724375Y5690000I-50000J0D01*
G01*
X16786875Y8320000D02*
G75*
G03*
X16786875Y8320000I-50000J0D01*
G01*
X16786875Y6920000D02*
G75*
G03*
X16786875Y6920000I-50000J0D01*
G01*
X16888750Y700000D02*
G75*
G03*
X16888750Y700000I-50000J0D01*
G01*
X16888750Y-700000D02*
G75*
G03*
X16888750Y-700000I-50000J0D01*
G01*
X16956875Y8320000D02*
G75*
G03*
X16956875Y8320000I-50000J0D01*
G01*
X16956875Y6920000D02*
G75*
G03*
X16956875Y6920000I-50000J0D01*
G01*
X17126875Y8320000D02*
G75*
G03*
X17126875Y8320000I-50000J0D01*
G01*
X17126875Y6920000D02*
G75*
G03*
X17126875Y6920000I-50000J0D01*
G01*
X17189375Y6030000D02*
G75*
G03*
X17189375Y6030000I-50000J0D01*
G01*
X17189375Y5860000D02*
G75*
G03*
X17189375Y5860000I-50000J0D01*
G01*
X17189375Y5690000D02*
G75*
G03*
X17189375Y5690000I-50000J0D01*
G01*
X17200625Y9840000D02*
G75*
G03*
X17200625Y9840000I-50000J0D01*
G01*
X17200625Y9670000D02*
G75*
G03*
X17200625Y9670000I-50000J0D01*
G01*
X17200625Y9500000D02*
G75*
G03*
X17200625Y9500000I-50000J0D01*
G01*
X17200625Y4125000D02*
G75*
G03*
X17200625Y4125000I-50000J0D01*
G01*
X17200625Y3955000D02*
G75*
G03*
X17200625Y3955000I-50000J0D01*
G01*
X17200625Y3785000D02*
G75*
G03*
X17200625Y3785000I-50000J0D01*
G01*
X17263125Y2605000D02*
G75*
G03*
X17263125Y2605000I-50000J0D01*
G01*
X17263125Y1205000D02*
G75*
G03*
X17263125Y1205000I-50000J0D01*
G01*
X17433125Y2605000D02*
G75*
G03*
X17433125Y2605000I-50000J0D01*
G01*
X17433125Y1205000D02*
G75*
G03*
X17433125Y1205000I-50000J0D01*
G01*
X17438750Y315000D02*
G75*
G03*
X17438750Y315000I-50000J0D01*
G01*
X17438750Y145000D02*
G75*
G03*
X17438750Y145000I-50000J0D01*
G01*
X17438750Y-25000D02*
G75*
G03*
X17438750Y-25000I-50000J0D01*
G01*
X17603125Y2605000D02*
G75*
G03*
X17603125Y2605000I-50000J0D01*
G01*
X17603125Y1205000D02*
G75*
G03*
X17603125Y1205000I-50000J0D01*
G01*
X17665625Y9840000D02*
G75*
G03*
X17665625Y9840000I-50000J0D01*
G01*
X17665625Y9670000D02*
G75*
G03*
X17665625Y9670000I-50000J0D01*
G01*
X17665625Y9500000D02*
G75*
G03*
X17665625Y9500000I-50000J0D01*
G01*
X17665625Y4125000D02*
G75*
G03*
X17665625Y4125000I-50000J0D01*
G01*
X17665625Y3955000D02*
G75*
G03*
X17665625Y3955000I-50000J0D01*
G01*
X17665625Y3785000D02*
G75*
G03*
X17665625Y3785000I-50000J0D01*
G01*
X17676875Y7935000D02*
G75*
G03*
X17676875Y7935000I-50000J0D01*
G01*
X17676875Y7765000D02*
G75*
G03*
X17676875Y7765000I-50000J0D01*
G01*
X17676875Y7595000D02*
G75*
G03*
X17676875Y7595000I-50000J0D01*
G01*
X17739375Y6415000D02*
G75*
G03*
X17739375Y6415000I-50000J0D01*
G01*
X17739375Y5015000D02*
G75*
G03*
X17739375Y5015000I-50000J0D01*
G01*
X17909375Y6415000D02*
G75*
G03*
X17909375Y6415000I-50000J0D01*
G01*
X17909375Y5015000D02*
G75*
G03*
X17909375Y5015000I-50000J0D01*
G01*
X18079375Y6415000D02*
G75*
G03*
X18079375Y6415000I-50000J0D01*
G01*
X18079375Y5015000D02*
G75*
G03*
X18079375Y5015000I-50000J0D01*
G01*
X18141875Y7935000D02*
G75*
G03*
X18141875Y7935000I-50000J0D01*
G01*
X18141875Y7765000D02*
G75*
G03*
X18141875Y7765000I-50000J0D01*
G01*
X18141875Y7595000D02*
G75*
G03*
X18141875Y7595000I-50000J0D01*
G01*
X18153125Y2220000D02*
G75*
G03*
X18153125Y2220000I-50000J0D01*
G01*
X18153125Y2050000D02*
G75*
G03*
X18153125Y2050000I-50000J0D01*
G01*
X18153125Y1880000D02*
G75*
G03*
X18153125Y1880000I-50000J0D01*
G01*
X18215625Y10225000D02*
G75*
G03*
X18215625Y10225000I-50000J0D01*
G01*
X18215625Y8825000D02*
G75*
G03*
X18215625Y8825000I-50000J0D01*
G01*
X18215625Y4510000D02*
G75*
G03*
X18215625Y4510000I-50000J0D01*
G01*
X18215625Y3110000D02*
G75*
G03*
X18215625Y3110000I-50000J0D01*
G01*
X18380000Y315000D02*
G75*
G03*
X18380000Y315000I-50000J0D01*
G01*
X18380000Y145000D02*
G75*
G03*
X18380000Y145000I-50000J0D01*
G01*
X18380000Y-25000D02*
G75*
G03*
X18380000Y-25000I-50000J0D01*
G01*
X18385625Y10225000D02*
G75*
G03*
X18385625Y10225000I-50000J0D01*
G01*
X18385625Y8825000D02*
G75*
G03*
X18385625Y8825000I-50000J0D01*
G01*
X18385625Y4510000D02*
G75*
G03*
X18385625Y4510000I-50000J0D01*
G01*
X18385625Y3110000D02*
G75*
G03*
X18385625Y3110000I-50000J0D01*
G01*
X18555625Y10225000D02*
G75*
G03*
X18555625Y10225000I-50000J0D01*
G01*
X18555625Y8825000D02*
G75*
G03*
X18555625Y8825000I-50000J0D01*
G01*
X18555625Y4510000D02*
G75*
G03*
X18555625Y4510000I-50000J0D01*
G01*
X18555625Y3110000D02*
G75*
G03*
X18555625Y3110000I-50000J0D01*
G01*
X18618125Y2220000D02*
G75*
G03*
X18618125Y2220000I-50000J0D01*
G01*
X18618125Y2050000D02*
G75*
G03*
X18618125Y2050000I-50000J0D01*
G01*
X18618125Y1880000D02*
G75*
G03*
X18618125Y1880000I-50000J0D01*
G01*
X18629375Y6030000D02*
G75*
G03*
X18629375Y6030000I-50000J0D01*
G01*
X18629375Y5860000D02*
G75*
G03*
X18629375Y5860000I-50000J0D01*
G01*
X18629375Y5690000D02*
G75*
G03*
X18629375Y5690000I-50000J0D01*
G01*
X18691875Y8320000D02*
G75*
G03*
X18691875Y8320000I-50000J0D01*
G01*
X18691875Y6920000D02*
G75*
G03*
X18691875Y6920000I-50000J0D01*
G01*
X18861875Y8320000D02*
G75*
G03*
X18861875Y8320000I-50000J0D01*
G01*
X18861875Y6920000D02*
G75*
G03*
X18861875Y6920000I-50000J0D01*
G01*
X18930000Y700000D02*
G75*
G03*
X18930000Y700000I-50000J0D01*
G01*
X18930000Y-700000D02*
G75*
G03*
X18930000Y-700000I-50000J0D01*
G01*
X19031875Y8320000D02*
G75*
G03*
X19031875Y8320000I-50000J0D01*
G01*
X19031875Y6920000D02*
G75*
G03*
X19031875Y6920000I-50000J0D01*
G01*
X19094375Y6030000D02*
G75*
G03*
X19094375Y6030000I-50000J0D01*
G01*
X19094375Y5860000D02*
G75*
G03*
X19094375Y5860000I-50000J0D01*
G01*
X19094375Y5690000D02*
G75*
G03*
X19094375Y5690000I-50000J0D01*
G01*
X19100000Y700000D02*
G75*
G03*
X19100000Y700000I-50000J0D01*
G01*
X19100000Y-700000D02*
G75*
G03*
X19100000Y-700000I-50000J0D01*
G01*
X19105625Y9840000D02*
G75*
G03*
X19105625Y9840000I-50000J0D01*
G01*
X19105625Y9670000D02*
G75*
G03*
X19105625Y9670000I-50000J0D01*
G01*
X19105625Y9500000D02*
G75*
G03*
X19105625Y9500000I-50000J0D01*
G01*
X19105625Y4125000D02*
G75*
G03*
X19105625Y4125000I-50000J0D01*
G01*
X19105625Y3955000D02*
G75*
G03*
X19105625Y3955000I-50000J0D01*
G01*
X19105625Y3785000D02*
G75*
G03*
X19105625Y3785000I-50000J0D01*
G01*
X19168125Y2605000D02*
G75*
G03*
X19168125Y2605000I-50000J0D01*
G01*
X19168125Y1205000D02*
G75*
G03*
X19168125Y1205000I-50000J0D01*
G01*
X19270000Y700000D02*
G75*
G03*
X19270000Y700000I-50000J0D01*
G01*
X19270000Y-700000D02*
G75*
G03*
X19270000Y-700000I-50000J0D01*
G01*
X19338125Y2605000D02*
G75*
G03*
X19338125Y2605000I-50000J0D01*
G01*
X19338125Y1205000D02*
G75*
G03*
X19338125Y1205000I-50000J0D01*
G01*
X19508125Y2605000D02*
G75*
G03*
X19508125Y2605000I-50000J0D01*
G01*
X19508125Y1205000D02*
G75*
G03*
X19508125Y1205000I-50000J0D01*
G01*
X19570625Y4125000D02*
G75*
G03*
X19570625Y4125000I-50000J0D01*
G01*
X19570625Y3955000D02*
G75*
G03*
X19570625Y3955000I-50000J0D01*
G01*
X19570625Y3785000D02*
G75*
G03*
X19570625Y3785000I-50000J0D01*
G01*
X19581875Y7935000D02*
G75*
G03*
X19581875Y7935000I-50000J0D01*
G01*
X19581875Y7765000D02*
G75*
G03*
X19581875Y7765000I-50000J0D01*
G01*
X19581875Y7595000D02*
G75*
G03*
X19581875Y7595000I-50000J0D01*
G01*
X19644375Y6415000D02*
G75*
G03*
X19644375Y6415000I-50000J0D01*
G01*
X19644375Y5015000D02*
G75*
G03*
X19644375Y5015000I-50000J0D01*
G01*
X19814375Y6415000D02*
G75*
G03*
X19814375Y6415000I-50000J0D01*
G01*
X19814375Y5015000D02*
G75*
G03*
X19814375Y5015000I-50000J0D01*
G01*
X19820000Y315000D02*
G75*
G03*
X19820000Y315000I-50000J0D01*
G01*
X19820000Y145000D02*
G75*
G03*
X19820000Y145000I-50000J0D01*
G01*
X19820000Y-25000D02*
G75*
G03*
X19820000Y-25000I-50000J0D01*
G01*
X19984375Y6415000D02*
G75*
G03*
X19984375Y6415000I-50000J0D01*
G01*
X19984375Y5015000D02*
G75*
G03*
X19984375Y5015000I-50000J0D01*
G01*
X20046875Y9840000D02*
G75*
G03*
X20046875Y9840000I-50000J0D01*
G01*
X20046875Y9670000D02*
G75*
G03*
X20046875Y9670000I-50000J0D01*
G01*
X20046875Y9500000D02*
G75*
G03*
X20046875Y9500000I-50000J0D01*
G01*
X20046875Y7935000D02*
G75*
G03*
X20046875Y7935000I-50000J0D01*
G01*
X20046875Y7765000D02*
G75*
G03*
X20046875Y7765000I-50000J0D01*
G01*
X20046875Y7595000D02*
G75*
G03*
X20046875Y7595000I-50000J0D01*
G01*
X20058125Y2220000D02*
G75*
G03*
X20058125Y2220000I-50000J0D01*
G01*
X20058125Y2050000D02*
G75*
G03*
X20058125Y2050000I-50000J0D01*
G01*
X20058125Y1880000D02*
G75*
G03*
X20058125Y1880000I-50000J0D01*
G01*
X20120625Y4510000D02*
G75*
G03*
X20120625Y4510000I-50000J0D01*
G01*
X20120625Y3110000D02*
G75*
G03*
X20120625Y3110000I-50000J0D01*
G01*
X20290625Y4510000D02*
G75*
G03*
X20290625Y4510000I-50000J0D01*
G01*
X20290625Y3110000D02*
G75*
G03*
X20290625Y3110000I-50000J0D01*
G01*
X20460625Y4510000D02*
G75*
G03*
X20460625Y4510000I-50000J0D01*
G01*
X20460625Y3110000D02*
G75*
G03*
X20460625Y3110000I-50000J0D01*
G01*
X20523125Y2220000D02*
G75*
G03*
X20523125Y2220000I-50000J0D01*
G01*
X20523125Y2050000D02*
G75*
G03*
X20523125Y2050000I-50000J0D01*
G01*
X20523125Y1880000D02*
G75*
G03*
X20523125Y1880000I-50000J0D01*
G01*
X20534375Y6030000D02*
G75*
G03*
X20534375Y6030000I-50000J0D01*
G01*
X20534375Y5860000D02*
G75*
G03*
X20534375Y5860000I-50000J0D01*
G01*
X20534375Y5690000D02*
G75*
G03*
X20534375Y5690000I-50000J0D01*
G01*
X20596875Y10225000D02*
G75*
G03*
X20596875Y10225000I-50000J0D01*
G01*
X20596875Y8825000D02*
G75*
G03*
X20596875Y8825000I-50000J0D01*
G01*
X20596875Y8320000D02*
G75*
G03*
X20596875Y8320000I-50000J0D01*
G01*
X20596875Y6920000D02*
G75*
G03*
X20596875Y6920000I-50000J0D01*
G01*
X20761250Y315000D02*
G75*
G03*
X20761250Y315000I-50000J0D01*
G01*
X20761250Y145000D02*
G75*
G03*
X20761250Y145000I-50000J0D01*
G01*
X20761250Y-25000D02*
G75*
G03*
X20761250Y-25000I-50000J0D01*
G01*
X20766875Y10225000D02*
G75*
G03*
X20766875Y10225000I-50000J0D01*
G01*
X20766875Y8825000D02*
G75*
G03*
X20766875Y8825000I-50000J0D01*
G01*
X20766875Y8320000D02*
G75*
G03*
X20766875Y8320000I-50000J0D01*
G01*
X20766875Y6920000D02*
G75*
G03*
X20766875Y6920000I-50000J0D01*
G01*
X20936875Y10225000D02*
G75*
G03*
X20936875Y10225000I-50000J0D01*
G01*
X20936875Y8825000D02*
G75*
G03*
X20936875Y8825000I-50000J0D01*
G01*
X20936875Y8320000D02*
G75*
G03*
X20936875Y8320000I-50000J0D01*
G01*
X20936875Y6920000D02*
G75*
G03*
X20936875Y6920000I-50000J0D01*
G01*
X20999375Y6030000D02*
G75*
G03*
X20999375Y6030000I-50000J0D01*
G01*
X20999375Y5860000D02*
G75*
G03*
X20999375Y5860000I-50000J0D01*
G01*
X20999375Y5690000D02*
G75*
G03*
X20999375Y5690000I-50000J0D01*
G01*
X21010625Y4125000D02*
G75*
G03*
X21010625Y4125000I-50000J0D01*
G01*
X21010625Y3955000D02*
G75*
G03*
X21010625Y3955000I-50000J0D01*
G01*
X21010625Y3785000D02*
G75*
G03*
X21010625Y3785000I-50000J0D01*
G01*
X21073125Y2605000D02*
G75*
G03*
X21073125Y2605000I-50000J0D01*
G01*
X21073125Y1205000D02*
G75*
G03*
X21073125Y1205000I-50000J0D01*
G01*
X21243125Y2605000D02*
G75*
G03*
X21243125Y2605000I-50000J0D01*
G01*
X21243125Y1205000D02*
G75*
G03*
X21243125Y1205000I-50000J0D01*
G01*
X21311250Y700000D02*
G75*
G03*
X21311250Y700000I-50000J0D01*
G01*
X21311250Y-700000D02*
G75*
G03*
X21311250Y-700000I-50000J0D01*
G01*
X21413125Y2605000D02*
G75*
G03*
X21413125Y2605000I-50000J0D01*
G01*
X21413125Y1205000D02*
G75*
G03*
X21413125Y1205000I-50000J0D01*
G01*
X21481250Y700000D02*
G75*
G03*
X21481250Y700000I-50000J0D01*
G01*
X21481250Y-700000D02*
G75*
G03*
X21481250Y-700000I-50000J0D01*
G01*
X21486875Y9840000D02*
G75*
G03*
X21486875Y9840000I-50000J0D01*
G01*
X21486875Y9670000D02*
G75*
G03*
X21486875Y9670000I-50000J0D01*
G01*
X21486875Y9500000D02*
G75*
G03*
X21486875Y9500000I-50000J0D01*
G01*
X21486875Y7935000D02*
G75*
G03*
X21486875Y7935000I-50000J0D01*
G01*
X21486875Y7765000D02*
G75*
G03*
X21486875Y7765000I-50000J0D01*
G01*
X21486875Y7595000D02*
G75*
G03*
X21486875Y7595000I-50000J0D01*
G01*
X21549375Y6415000D02*
G75*
G03*
X21549375Y6415000I-50000J0D01*
G01*
X21549375Y5015000D02*
G75*
G03*
X21549375Y5015000I-50000J0D01*
G01*
X21570875Y4140875D02*
G75*
G03*
X21570875Y4140875I-50000J0D01*
G01*
X21570875Y3970875D02*
G75*
G03*
X21570875Y3970875I-50000J0D01*
G01*
X21570875Y3800875D02*
G75*
G03*
X21570875Y3800875I-50000J0D01*
G01*
X21651250Y700000D02*
G75*
G03*
X21651250Y700000I-50000J0D01*
G01*
X21651250Y-700000D02*
G75*
G03*
X21651250Y-700000I-50000J0D01*
G01*
X21719375Y6415000D02*
G75*
G03*
X21719375Y6415000I-50000J0D01*
G01*
X21719375Y5015000D02*
G75*
G03*
X21719375Y5015000I-50000J0D01*
G01*
X21889375Y6415000D02*
G75*
G03*
X21889375Y6415000I-50000J0D01*
G01*
X21889375Y5015000D02*
G75*
G03*
X21889375Y5015000I-50000J0D01*
G01*
X21951875Y9840000D02*
G75*
G03*
X21951875Y9840000I-50000J0D01*
G01*
X21951875Y9670000D02*
G75*
G03*
X21951875Y9670000I-50000J0D01*
G01*
X21951875Y9500000D02*
G75*
G03*
X21951875Y9500000I-50000J0D01*
G01*
X21951875Y7935000D02*
G75*
G03*
X21951875Y7935000I-50000J0D01*
G01*
X21951875Y7765000D02*
G75*
G03*
X21951875Y7765000I-50000J0D01*
G01*
X21951875Y7595000D02*
G75*
G03*
X21951875Y7595000I-50000J0D01*
G01*
X21963125Y2220000D02*
G75*
G03*
X21963125Y2220000I-50000J0D01*
G01*
X21963125Y2050000D02*
G75*
G03*
X21963125Y2050000I-50000J0D01*
G01*
X21963125Y1880000D02*
G75*
G03*
X21963125Y1880000I-50000J0D01*
G01*
X22120875Y4525875D02*
G75*
G03*
X22120875Y4525875I-50000J0D01*
G01*
X22120875Y3125875D02*
G75*
G03*
X22120875Y3125875I-50000J0D01*
G01*
X22201250Y315000D02*
G75*
G03*
X22201250Y315000I-50000J0D01*
G01*
X22201250Y145000D02*
G75*
G03*
X22201250Y145000I-50000J0D01*
G01*
X22201250Y-25000D02*
G75*
G03*
X22201250Y-25000I-50000J0D01*
G01*
X22290875Y4525875D02*
G75*
G03*
X22290875Y4525875I-50000J0D01*
G01*
X22290875Y3125875D02*
G75*
G03*
X22290875Y3125875I-50000J0D01*
G01*
X22428125Y2220000D02*
G75*
G03*
X22428125Y2220000I-50000J0D01*
G01*
X22428125Y2050000D02*
G75*
G03*
X22428125Y2050000I-50000J0D01*
G01*
X22428125Y1880000D02*
G75*
G03*
X22428125Y1880000I-50000J0D01*
G01*
X22439375Y6030000D02*
G75*
G03*
X22439375Y6030000I-50000J0D01*
G01*
X22439375Y5860000D02*
G75*
G03*
X22439375Y5860000I-50000J0D01*
G01*
X22439375Y5690000D02*
G75*
G03*
X22439375Y5690000I-50000J0D01*
G01*
X22460875Y4525875D02*
G75*
G03*
X22460875Y4525875I-50000J0D01*
G01*
X22460875Y3125875D02*
G75*
G03*
X22460875Y3125875I-50000J0D01*
G01*
X22501875Y10225000D02*
G75*
G03*
X22501875Y10225000I-50000J0D01*
G01*
X22501875Y8825000D02*
G75*
G03*
X22501875Y8825000I-50000J0D01*
G01*
X22501875Y8320000D02*
G75*
G03*
X22501875Y8320000I-50000J0D01*
G01*
X22501875Y6920000D02*
G75*
G03*
X22501875Y6920000I-50000J0D01*
G01*
X22671875Y10225000D02*
G75*
G03*
X22671875Y10225000I-50000J0D01*
G01*
X22671875Y8825000D02*
G75*
G03*
X22671875Y8825000I-50000J0D01*
G01*
X22671875Y8320000D02*
G75*
G03*
X22671875Y8320000I-50000J0D01*
G01*
X22671875Y6920000D02*
G75*
G03*
X22671875Y6920000I-50000J0D01*
G01*
X22841875Y10225000D02*
G75*
G03*
X22841875Y10225000I-50000J0D01*
G01*
X22841875Y8825000D02*
G75*
G03*
X22841875Y8825000I-50000J0D01*
G01*
X22841875Y8320000D02*
G75*
G03*
X22841875Y8320000I-50000J0D01*
G01*
X22841875Y6920000D02*
G75*
G03*
X22841875Y6920000I-50000J0D01*
G01*
X22904375Y6030000D02*
G75*
G03*
X22904375Y6030000I-50000J0D01*
G01*
X22904375Y5860000D02*
G75*
G03*
X22904375Y5860000I-50000J0D01*
G01*
X22904375Y5690000D02*
G75*
G03*
X22904375Y5690000I-50000J0D01*
G01*
X22978125Y2605000D02*
G75*
G03*
X22978125Y2605000I-50000J0D01*
G01*
X22978125Y1205000D02*
G75*
G03*
X22978125Y1205000I-50000J0D01*
G01*
X23010875Y4140875D02*
G75*
G03*
X23010875Y4140875I-50000J0D01*
G01*
X23010875Y3970875D02*
G75*
G03*
X23010875Y3970875I-50000J0D01*
G01*
X23010875Y3800875D02*
G75*
G03*
X23010875Y3800875I-50000J0D01*
G01*
X23142500Y315000D02*
G75*
G03*
X23142500Y315000I-50000J0D01*
G01*
X23142500Y145000D02*
G75*
G03*
X23142500Y145000I-50000J0D01*
G01*
X23142500Y-25000D02*
G75*
G03*
X23142500Y-25000I-50000J0D01*
G01*
X23148125Y2605000D02*
G75*
G03*
X23148125Y2605000I-50000J0D01*
G01*
X23148125Y1205000D02*
G75*
G03*
X23148125Y1205000I-50000J0D01*
G01*
X23318125Y2605000D02*
G75*
G03*
X23318125Y2605000I-50000J0D01*
G01*
X23318125Y1205000D02*
G75*
G03*
X23318125Y1205000I-50000J0D01*
G01*
X23391875Y9840000D02*
G75*
G03*
X23391875Y9840000I-50000J0D01*
G01*
X23391875Y9670000D02*
G75*
G03*
X23391875Y9670000I-50000J0D01*
G01*
X23391875Y9500000D02*
G75*
G03*
X23391875Y9500000I-50000J0D01*
G01*
X23391875Y7935000D02*
G75*
G03*
X23391875Y7935000I-50000J0D01*
G01*
X23391875Y7765000D02*
G75*
G03*
X23391875Y7765000I-50000J0D01*
G01*
X23391875Y7595000D02*
G75*
G03*
X23391875Y7595000I-50000J0D01*
G01*
X23454375Y6415000D02*
G75*
G03*
X23454375Y6415000I-50000J0D01*
G01*
X23454375Y5015000D02*
G75*
G03*
X23454375Y5015000I-50000J0D01*
G01*
X23624375Y6415000D02*
G75*
G03*
X23624375Y6415000I-50000J0D01*
G01*
X23624375Y5015000D02*
G75*
G03*
X23624375Y5015000I-50000J0D01*
G01*
X23692500Y700000D02*
G75*
G03*
X23692500Y700000I-50000J0D01*
G01*
X23692500Y-700000D02*
G75*
G03*
X23692500Y-700000I-50000J0D01*
G01*
X23794375Y6415000D02*
G75*
G03*
X23794375Y6415000I-50000J0D01*
G01*
X23794375Y5015000D02*
G75*
G03*
X23794375Y5015000I-50000J0D01*
G01*
X23856875Y9840000D02*
G75*
G03*
X23856875Y9840000I-50000J0D01*
G01*
X23856875Y9670000D02*
G75*
G03*
X23856875Y9670000I-50000J0D01*
G01*
X23856875Y9500000D02*
G75*
G03*
X23856875Y9500000I-50000J0D01*
G01*
X23862500Y700000D02*
G75*
G03*
X23862500Y700000I-50000J0D01*
G01*
X23862500Y-700000D02*
G75*
G03*
X23862500Y-700000I-50000J0D01*
G01*
X23868125Y2220000D02*
G75*
G03*
X23868125Y2220000I-50000J0D01*
G01*
X23868125Y2050000D02*
G75*
G03*
X23868125Y2050000I-50000J0D01*
G01*
X23868125Y1880000D02*
G75*
G03*
X23868125Y1880000I-50000J0D01*
G01*
X24032500Y700000D02*
G75*
G03*
X24032500Y700000I-50000J0D01*
G01*
X24032500Y-700000D02*
G75*
G03*
X24032500Y-700000I-50000J0D01*
G01*
X24344375Y6030000D02*
G75*
G03*
X24344375Y6030000I-50000J0D01*
G01*
X24344375Y5860000D02*
G75*
G03*
X24344375Y5860000I-50000J0D01*
G01*
X24344375Y5690000D02*
G75*
G03*
X24344375Y5690000I-50000J0D01*
G01*
X24406875Y10225000D02*
G75*
G03*
X24406875Y10225000I-50000J0D01*
G01*
X24406875Y8825000D02*
G75*
G03*
X24406875Y8825000I-50000J0D01*
G01*
X24571250Y4125000D02*
G75*
G03*
X24571250Y4125000I-50000J0D01*
G01*
X24571250Y3955000D02*
G75*
G03*
X24571250Y3955000I-50000J0D01*
G01*
X24571250Y3785000D02*
G75*
G03*
X24571250Y3785000I-50000J0D01*
G01*
X24576875Y10225000D02*
G75*
G03*
X24576875Y10225000I-50000J0D01*
G01*
X24576875Y8825000D02*
G75*
G03*
X24576875Y8825000I-50000J0D01*
G01*
X24582500Y315000D02*
G75*
G03*
X24582500Y315000I-50000J0D01*
G01*
X24582500Y145000D02*
G75*
G03*
X24582500Y145000I-50000J0D01*
G01*
X24582500Y-25000D02*
G75*
G03*
X24582500Y-25000I-50000J0D01*
G01*
X24746875Y10225000D02*
G75*
G03*
X24746875Y10225000I-50000J0D01*
G01*
X24746875Y8825000D02*
G75*
G03*
X24746875Y8825000I-50000J0D01*
G01*
X24809375Y7935000D02*
G75*
G03*
X24809375Y7935000I-50000J0D01*
G01*
X24809375Y7765000D02*
G75*
G03*
X24809375Y7765000I-50000J0D01*
G01*
X24809375Y7595000D02*
G75*
G03*
X24809375Y7595000I-50000J0D01*
G01*
X25047500Y2220000D02*
G75*
G03*
X25047500Y2220000I-50000J0D01*
G01*
X25047500Y2050000D02*
G75*
G03*
X25047500Y2050000I-50000J0D01*
G01*
X25047500Y1880000D02*
G75*
G03*
X25047500Y1880000I-50000J0D01*
G01*
X25121250Y4510000D02*
G75*
G03*
X25121250Y4510000I-50000J0D01*
G01*
X25121250Y3110000D02*
G75*
G03*
X25121250Y3110000I-50000J0D01*
G01*
X25285625Y6030000D02*
G75*
G03*
X25285625Y6030000I-50000J0D01*
G01*
X25285625Y5860000D02*
G75*
G03*
X25285625Y5860000I-50000J0D01*
G01*
X25285625Y5690000D02*
G75*
G03*
X25285625Y5690000I-50000J0D01*
G01*
X25291250Y4510000D02*
G75*
G03*
X25291250Y4510000I-50000J0D01*
G01*
X25291250Y3110000D02*
G75*
G03*
X25291250Y3110000I-50000J0D01*
G01*
X25296875Y9840000D02*
G75*
G03*
X25296875Y9840000I-50000J0D01*
G01*
X25296875Y9670000D02*
G75*
G03*
X25296875Y9670000I-50000J0D01*
G01*
X25296875Y9500000D02*
G75*
G03*
X25296875Y9500000I-50000J0D01*
G01*
X25359375Y8320000D02*
G75*
G03*
X25359375Y8320000I-50000J0D01*
G01*
X25359375Y6920000D02*
G75*
G03*
X25359375Y6920000I-50000J0D01*
G01*
X25461250Y4510000D02*
G75*
G03*
X25461250Y4510000I-50000J0D01*
G01*
X25461250Y3110000D02*
G75*
G03*
X25461250Y3110000I-50000J0D01*
G01*
X25523750Y315000D02*
G75*
G03*
X25523750Y315000I-50000J0D01*
G01*
X25523750Y145000D02*
G75*
G03*
X25523750Y145000I-50000J0D01*
G01*
X25523750Y-25000D02*
G75*
G03*
X25523750Y-25000I-50000J0D01*
G01*
X25529375Y8320000D02*
G75*
G03*
X25529375Y8320000I-50000J0D01*
G01*
X25529375Y6920000D02*
G75*
G03*
X25529375Y6920000I-50000J0D01*
G01*
X25597500Y2605000D02*
G75*
G03*
X25597500Y2605000I-50000J0D01*
G01*
X25597500Y1205000D02*
G75*
G03*
X25597500Y1205000I-50000J0D01*
G01*
X25699375Y8320000D02*
G75*
G03*
X25699375Y8320000I-50000J0D01*
G01*
X25699375Y6920000D02*
G75*
G03*
X25699375Y6920000I-50000J0D01*
G01*
X25761875Y9840000D02*
G75*
G03*
X25761875Y9840000I-50000J0D01*
G01*
X25761875Y9670000D02*
G75*
G03*
X25761875Y9670000I-50000J0D01*
G01*
X25761875Y9500000D02*
G75*
G03*
X25761875Y9500000I-50000J0D01*
G01*
X25767500Y2605000D02*
G75*
G03*
X25767500Y2605000I-50000J0D01*
G01*
X25767500Y1205000D02*
G75*
G03*
X25767500Y1205000I-50000J0D01*
G01*
X25835625Y6415000D02*
G75*
G03*
X25835625Y6415000I-50000J0D01*
G01*
X25835625Y5015000D02*
G75*
G03*
X25835625Y5015000I-50000J0D01*
G01*
X25937500Y2605000D02*
G75*
G03*
X25937500Y2605000I-50000J0D01*
G01*
X25937500Y1205000D02*
G75*
G03*
X25937500Y1205000I-50000J0D01*
G01*
X26005625Y6415000D02*
G75*
G03*
X26005625Y6415000I-50000J0D01*
G01*
X26005625Y5015000D02*
G75*
G03*
X26005625Y5015000I-50000J0D01*
G01*
X26011250Y4125000D02*
G75*
G03*
X26011250Y4125000I-50000J0D01*
G01*
X26011250Y3955000D02*
G75*
G03*
X26011250Y3955000I-50000J0D01*
G01*
X26011250Y3785000D02*
G75*
G03*
X26011250Y3785000I-50000J0D01*
G01*
X26073750Y700000D02*
G75*
G03*
X26073750Y700000I-50000J0D01*
G01*
X26073750Y-700000D02*
G75*
G03*
X26073750Y-700000I-50000J0D01*
G01*
X26175625Y6415000D02*
G75*
G03*
X26175625Y6415000I-50000J0D01*
G01*
X26175625Y5015000D02*
G75*
G03*
X26175625Y5015000I-50000J0D01*
G01*
X26243750Y700000D02*
G75*
G03*
X26243750Y700000I-50000J0D01*
G01*
X26243750Y-700000D02*
G75*
G03*
X26243750Y-700000I-50000J0D01*
G01*
X26249375Y7935000D02*
G75*
G03*
X26249375Y7935000I-50000J0D01*
G01*
X26249375Y7765000D02*
G75*
G03*
X26249375Y7765000I-50000J0D01*
G01*
X26249375Y7595000D02*
G75*
G03*
X26249375Y7595000I-50000J0D01*
G01*
X26311875Y10225000D02*
G75*
G03*
X26311875Y10225000I-50000J0D01*
G01*
X26311875Y8825000D02*
G75*
G03*
X26311875Y8825000I-50000J0D01*
G01*
X26413750Y700000D02*
G75*
G03*
X26413750Y700000I-50000J0D01*
G01*
X26413750Y-700000D02*
G75*
G03*
X26413750Y-700000I-50000J0D01*
G01*
X26481875Y10225000D02*
G75*
G03*
X26481875Y10225000I-50000J0D01*
G01*
X26481875Y8825000D02*
G75*
G03*
X26481875Y8825000I-50000J0D01*
G01*
X26487500Y2220000D02*
G75*
G03*
X26487500Y2220000I-50000J0D01*
G01*
X26487500Y2050000D02*
G75*
G03*
X26487500Y2050000I-50000J0D01*
G01*
X26487500Y1880000D02*
G75*
G03*
X26487500Y1880000I-50000J0D01*
G01*
X26651875Y10225000D02*
G75*
G03*
X26651875Y10225000I-50000J0D01*
G01*
X26651875Y8825000D02*
G75*
G03*
X26651875Y8825000I-50000J0D01*
G01*
X26725625Y6030000D02*
G75*
G03*
X26725625Y6030000I-50000J0D01*
G01*
X26725625Y5860000D02*
G75*
G03*
X26725625Y5860000I-50000J0D01*
G01*
X26725625Y5690000D02*
G75*
G03*
X26725625Y5690000I-50000J0D01*
G01*
X26963750Y315000D02*
G75*
G03*
X26963750Y315000I-50000J0D01*
G01*
X26963750Y145000D02*
G75*
G03*
X26963750Y145000I-50000J0D01*
G01*
X26963750Y-25000D02*
G75*
G03*
X26963750Y-25000I-50000J0D01*
G01*
X27201875Y9840000D02*
G75*
G03*
X27201875Y9840000I-50000J0D01*
G01*
X27201875Y9670000D02*
G75*
G03*
X27201875Y9670000I-50000J0D01*
G01*
X27201875Y9500000D02*
G75*
G03*
X27201875Y9500000I-50000J0D01*
G01*
X27666875Y9840000D02*
G75*
G03*
X27666875Y9840000I-50000J0D01*
G01*
X27666875Y9670000D02*
G75*
G03*
X27666875Y9670000I-50000J0D01*
G01*
X27666875Y9500000D02*
G75*
G03*
X27666875Y9500000I-50000J0D01*
G01*
X27666875Y7935000D02*
G75*
G03*
X27666875Y7935000I-50000J0D01*
G01*
X27666875Y7765000D02*
G75*
G03*
X27666875Y7765000I-50000J0D01*
G01*
X27666875Y7595000D02*
G75*
G03*
X27666875Y7595000I-50000J0D01*
G01*
X27666875Y6030000D02*
G75*
G03*
X27666875Y6030000I-50000J0D01*
G01*
X27666875Y5860000D02*
G75*
G03*
X27666875Y5860000I-50000J0D01*
G01*
X27666875Y5690000D02*
G75*
G03*
X27666875Y5690000I-50000J0D01*
G01*
X27666875Y4125000D02*
G75*
G03*
X27666875Y4125000I-50000J0D01*
G01*
X27666875Y3955000D02*
G75*
G03*
X27666875Y3955000I-50000J0D01*
G01*
X27666875Y3785000D02*
G75*
G03*
X27666875Y3785000I-50000J0D01*
G01*
X27666875Y2220000D02*
G75*
G03*
X27666875Y2220000I-50000J0D01*
G01*
X27666875Y2050000D02*
G75*
G03*
X27666875Y2050000I-50000J0D01*
G01*
X27666875Y1880000D02*
G75*
G03*
X27666875Y1880000I-50000J0D01*
G01*
X27666875Y315000D02*
G75*
G03*
X27666875Y315000I-50000J0D01*
G01*
X27666875Y145000D02*
G75*
G03*
X27666875Y145000I-50000J0D01*
G01*
X27666875Y-25000D02*
G75*
G03*
X27666875Y-25000I-50000J0D01*
G01*
X28216875Y10225000D02*
G75*
G03*
X28216875Y10225000I-50000J0D01*
G01*
X28216875Y8825000D02*
G75*
G03*
X28216875Y8825000I-50000J0D01*
G01*
X28216875Y8320000D02*
G75*
G03*
X28216875Y8320000I-50000J0D01*
G01*
X28216875Y6920000D02*
G75*
G03*
X28216875Y6920000I-50000J0D01*
G01*
X28216875Y6415000D02*
G75*
G03*
X28216875Y6415000I-50000J0D01*
G01*
X28216875Y5015000D02*
G75*
G03*
X28216875Y5015000I-50000J0D01*
G01*
X28216875Y4510000D02*
G75*
G03*
X28216875Y4510000I-50000J0D01*
G01*
X28216875Y3110000D02*
G75*
G03*
X28216875Y3110000I-50000J0D01*
G01*
X28216875Y2605000D02*
G75*
G03*
X28216875Y2605000I-50000J0D01*
G01*
X28216875Y1205000D02*
G75*
G03*
X28216875Y1205000I-50000J0D01*
G01*
X28216875Y700000D02*
G75*
G03*
X28216875Y700000I-50000J0D01*
G01*
X28216875Y-700000D02*
G75*
G03*
X28216875Y-700000I-50000J0D01*
G01*
X28386875Y10225000D02*
G75*
G03*
X28386875Y10225000I-50000J0D01*
G01*
X28386875Y8825000D02*
G75*
G03*
X28386875Y8825000I-50000J0D01*
G01*
X28386875Y8320000D02*
G75*
G03*
X28386875Y8320000I-50000J0D01*
G01*
X28386875Y6920000D02*
G75*
G03*
X28386875Y6920000I-50000J0D01*
G01*
X28386875Y6415000D02*
G75*
G03*
X28386875Y6415000I-50000J0D01*
G01*
X28386875Y5015000D02*
G75*
G03*
X28386875Y5015000I-50000J0D01*
G01*
X28386875Y4510000D02*
G75*
G03*
X28386875Y4510000I-50000J0D01*
G01*
X28386875Y3110000D02*
G75*
G03*
X28386875Y3110000I-50000J0D01*
G01*
X28386875Y2605000D02*
G75*
G03*
X28386875Y2605000I-50000J0D01*
G01*
X28386875Y1205000D02*
G75*
G03*
X28386875Y1205000I-50000J0D01*
G01*
X28386875Y700000D02*
G75*
G03*
X28386875Y700000I-50000J0D01*
G01*
X28386875Y-700000D02*
G75*
G03*
X28386875Y-700000I-50000J0D01*
G01*
X28556875Y10225000D02*
G75*
G03*
X28556875Y10225000I-50000J0D01*
G01*
X28556875Y8825000D02*
G75*
G03*
X28556875Y8825000I-50000J0D01*
G01*
X28556875Y8320000D02*
G75*
G03*
X28556875Y8320000I-50000J0D01*
G01*
X28556875Y6920000D02*
G75*
G03*
X28556875Y6920000I-50000J0D01*
G01*
X28556875Y6415000D02*
G75*
G03*
X28556875Y6415000I-50000J0D01*
G01*
X28556875Y5015000D02*
G75*
G03*
X28556875Y5015000I-50000J0D01*
G01*
X28556875Y4510000D02*
G75*
G03*
X28556875Y4510000I-50000J0D01*
G01*
X28556875Y3110000D02*
G75*
G03*
X28556875Y3110000I-50000J0D01*
G01*
X28556875Y2605000D02*
G75*
G03*
X28556875Y2605000I-50000J0D01*
G01*
X28556875Y1205000D02*
G75*
G03*
X28556875Y1205000I-50000J0D01*
G01*
X28556875Y700000D02*
G75*
G03*
X28556875Y700000I-50000J0D01*
G01*
X28556875Y-700000D02*
G75*
G03*
X28556875Y-700000I-50000J0D01*
G01*
X29106875Y9840000D02*
G75*
G03*
X29106875Y9840000I-50000J0D01*
G01*
X29106875Y9670000D02*
G75*
G03*
X29106875Y9670000I-50000J0D01*
G01*
X29106875Y9500000D02*
G75*
G03*
X29106875Y9500000I-50000J0D01*
G01*
X29106875Y7935000D02*
G75*
G03*
X29106875Y7935000I-50000J0D01*
G01*
X29106875Y7765000D02*
G75*
G03*
X29106875Y7765000I-50000J0D01*
G01*
X29106875Y7595000D02*
G75*
G03*
X29106875Y7595000I-50000J0D01*
G01*
X29106875Y6030000D02*
G75*
G03*
X29106875Y6030000I-50000J0D01*
G01*
X29106875Y5860000D02*
G75*
G03*
X29106875Y5860000I-50000J0D01*
G01*
X29106875Y5690000D02*
G75*
G03*
X29106875Y5690000I-50000J0D01*
G01*
X29106875Y4125000D02*
G75*
G03*
X29106875Y4125000I-50000J0D01*
G01*
X29106875Y3955000D02*
G75*
G03*
X29106875Y3955000I-50000J0D01*
G01*
X29106875Y3785000D02*
G75*
G03*
X29106875Y3785000I-50000J0D01*
G01*
X29106875Y2220000D02*
G75*
G03*
X29106875Y2220000I-50000J0D01*
G01*
X29106875Y2050000D02*
G75*
G03*
X29106875Y2050000I-50000J0D01*
G01*
X29106875Y1880000D02*
G75*
G03*
X29106875Y1880000I-50000J0D01*
G01*
X29106875Y315000D02*
G75*
G03*
X29106875Y315000I-50000J0D01*
G01*
X29106875Y145000D02*
G75*
G03*
X29106875Y145000I-50000J0D01*
G01*
X29106875Y-25000D02*
G75*
G03*
X29106875Y-25000I-50000J0D01*
G01*
X29571875Y9840000D02*
G75*
G03*
X29571875Y9840000I-50000J0D01*
G01*
X29571875Y9670000D02*
G75*
G03*
X29571875Y9670000I-50000J0D01*
G01*
X29571875Y9500000D02*
G75*
G03*
X29571875Y9500000I-50000J0D01*
G01*
X29571875Y7935000D02*
G75*
G03*
X29571875Y7935000I-50000J0D01*
G01*
X29571875Y7765000D02*
G75*
G03*
X29571875Y7765000I-50000J0D01*
G01*
X29571875Y7595000D02*
G75*
G03*
X29571875Y7595000I-50000J0D01*
G01*
X29571875Y6030000D02*
G75*
G03*
X29571875Y6030000I-50000J0D01*
G01*
X29571875Y5860000D02*
G75*
G03*
X29571875Y5860000I-50000J0D01*
G01*
X29571875Y5690000D02*
G75*
G03*
X29571875Y5690000I-50000J0D01*
G01*
X29571875Y4125000D02*
G75*
G03*
X29571875Y4125000I-50000J0D01*
G01*
X29571875Y3955000D02*
G75*
G03*
X29571875Y3955000I-50000J0D01*
G01*
X29571875Y3785000D02*
G75*
G03*
X29571875Y3785000I-50000J0D01*
G01*
X29571875Y2220000D02*
G75*
G03*
X29571875Y2220000I-50000J0D01*
G01*
X29571875Y2050000D02*
G75*
G03*
X29571875Y2050000I-50000J0D01*
G01*
X29571875Y1880000D02*
G75*
G03*
X29571875Y1880000I-50000J0D01*
G01*
X29571875Y315000D02*
G75*
G03*
X29571875Y315000I-50000J0D01*
G01*
X29571875Y145000D02*
G75*
G03*
X29571875Y145000I-50000J0D01*
G01*
X29571875Y-25000D02*
G75*
G03*
X29571875Y-25000I-50000J0D01*
G01*
X30121875Y10225000D02*
G75*
G03*
X30121875Y10225000I-50000J0D01*
G01*
X30121875Y8825000D02*
G75*
G03*
X30121875Y8825000I-50000J0D01*
G01*
X30121875Y8320000D02*
G75*
G03*
X30121875Y8320000I-50000J0D01*
G01*
X30121875Y6920000D02*
G75*
G03*
X30121875Y6920000I-50000J0D01*
G01*
X30121875Y6415000D02*
G75*
G03*
X30121875Y6415000I-50000J0D01*
G01*
X30121875Y5015000D02*
G75*
G03*
X30121875Y5015000I-50000J0D01*
G01*
X30121875Y4510000D02*
G75*
G03*
X30121875Y4510000I-50000J0D01*
G01*
X30121875Y3110000D02*
G75*
G03*
X30121875Y3110000I-50000J0D01*
G01*
X30121875Y2605000D02*
G75*
G03*
X30121875Y2605000I-50000J0D01*
G01*
X30121875Y1205000D02*
G75*
G03*
X30121875Y1205000I-50000J0D01*
G01*
X30121875Y700000D02*
G75*
G03*
X30121875Y700000I-50000J0D01*
G01*
X30121875Y-700000D02*
G75*
G03*
X30121875Y-700000I-50000J0D01*
G01*
X30291875Y10225000D02*
G75*
G03*
X30291875Y10225000I-50000J0D01*
G01*
X30291875Y8825000D02*
G75*
G03*
X30291875Y8825000I-50000J0D01*
G01*
X30291875Y8320000D02*
G75*
G03*
X30291875Y8320000I-50000J0D01*
G01*
X30291875Y6920000D02*
G75*
G03*
X30291875Y6920000I-50000J0D01*
G01*
X30291875Y6415000D02*
G75*
G03*
X30291875Y6415000I-50000J0D01*
G01*
X30291875Y5015000D02*
G75*
G03*
X30291875Y5015000I-50000J0D01*
G01*
X30291875Y4510000D02*
G75*
G03*
X30291875Y4510000I-50000J0D01*
G01*
X30291875Y3110000D02*
G75*
G03*
X30291875Y3110000I-50000J0D01*
G01*
X30291875Y2605000D02*
G75*
G03*
X30291875Y2605000I-50000J0D01*
G01*
X30291875Y1205000D02*
G75*
G03*
X30291875Y1205000I-50000J0D01*
G01*
X30291875Y700000D02*
G75*
G03*
X30291875Y700000I-50000J0D01*
G01*
X30291875Y-700000D02*
G75*
G03*
X30291875Y-700000I-50000J0D01*
G01*
X30461875Y10225000D02*
G75*
G03*
X30461875Y10225000I-50000J0D01*
G01*
X30461875Y8825000D02*
G75*
G03*
X30461875Y8825000I-50000J0D01*
G01*
X30461875Y8320000D02*
G75*
G03*
X30461875Y8320000I-50000J0D01*
G01*
X30461875Y6920000D02*
G75*
G03*
X30461875Y6920000I-50000J0D01*
G01*
X30461875Y6415000D02*
G75*
G03*
X30461875Y6415000I-50000J0D01*
G01*
X30461875Y5015000D02*
G75*
G03*
X30461875Y5015000I-50000J0D01*
G01*
X30461875Y4510000D02*
G75*
G03*
X30461875Y4510000I-50000J0D01*
G01*
X30461875Y3110000D02*
G75*
G03*
X30461875Y3110000I-50000J0D01*
G01*
X30461875Y2605000D02*
G75*
G03*
X30461875Y2605000I-50000J0D01*
G01*
X30461875Y1205000D02*
G75*
G03*
X30461875Y1205000I-50000J0D01*
G01*
X30461875Y700000D02*
G75*
G03*
X30461875Y700000I-50000J0D01*
G01*
X30461875Y-700000D02*
G75*
G03*
X30461875Y-700000I-50000J0D01*
G01*
X31011875Y9840000D02*
G75*
G03*
X31011875Y9840000I-50000J0D01*
G01*
X31011875Y9670000D02*
G75*
G03*
X31011875Y9670000I-50000J0D01*
G01*
X31011875Y9500000D02*
G75*
G03*
X31011875Y9500000I-50000J0D01*
G01*
X31011875Y7935000D02*
G75*
G03*
X31011875Y7935000I-50000J0D01*
G01*
X31011875Y7765000D02*
G75*
G03*
X31011875Y7765000I-50000J0D01*
G01*
X31011875Y7595000D02*
G75*
G03*
X31011875Y7595000I-50000J0D01*
G01*
X31011875Y6030000D02*
G75*
G03*
X31011875Y6030000I-50000J0D01*
G01*
X31011875Y5860000D02*
G75*
G03*
X31011875Y5860000I-50000J0D01*
G01*
X31011875Y5690000D02*
G75*
G03*
X31011875Y5690000I-50000J0D01*
G01*
X31011875Y4125000D02*
G75*
G03*
X31011875Y4125000I-50000J0D01*
G01*
X31011875Y3955000D02*
G75*
G03*
X31011875Y3955000I-50000J0D01*
G01*
X31011875Y3785000D02*
G75*
G03*
X31011875Y3785000I-50000J0D01*
G01*
X31011875Y2220000D02*
G75*
G03*
X31011875Y2220000I-50000J0D01*
G01*
X31011875Y2050000D02*
G75*
G03*
X31011875Y2050000I-50000J0D01*
G01*
X31011875Y1880000D02*
G75*
G03*
X31011875Y1880000I-50000J0D01*
G01*
X31011875Y315000D02*
G75*
G03*
X31011875Y315000I-50000J0D01*
G01*
X31011875Y145000D02*
G75*
G03*
X31011875Y145000I-50000J0D01*
G01*
X31011875Y-25000D02*
G75*
G03*
X31011875Y-25000I-50000J0D01*
G01*
X31476875Y9840000D02*
G75*
G03*
X31476875Y9840000I-50000J0D01*
G01*
X31476875Y9670000D02*
G75*
G03*
X31476875Y9670000I-50000J0D01*
G01*
X31476875Y9500000D02*
G75*
G03*
X31476875Y9500000I-50000J0D01*
G01*
X31476875Y7935000D02*
G75*
G03*
X31476875Y7935000I-50000J0D01*
G01*
X31476875Y7765000D02*
G75*
G03*
X31476875Y7765000I-50000J0D01*
G01*
X31476875Y7595000D02*
G75*
G03*
X31476875Y7595000I-50000J0D01*
G01*
X31476875Y6030000D02*
G75*
G03*
X31476875Y6030000I-50000J0D01*
G01*
X31476875Y5860000D02*
G75*
G03*
X31476875Y5860000I-50000J0D01*
G01*
X31476875Y5690000D02*
G75*
G03*
X31476875Y5690000I-50000J0D01*
G01*
X31476875Y4125000D02*
G75*
G03*
X31476875Y4125000I-50000J0D01*
G01*
X31476875Y3955000D02*
G75*
G03*
X31476875Y3955000I-50000J0D01*
G01*
X31476875Y3785000D02*
G75*
G03*
X31476875Y3785000I-50000J0D01*
G01*
X31476875Y2220000D02*
G75*
G03*
X31476875Y2220000I-50000J0D01*
G01*
X31476875Y2050000D02*
G75*
G03*
X31476875Y2050000I-50000J0D01*
G01*
X31476875Y1880000D02*
G75*
G03*
X31476875Y1880000I-50000J0D01*
G01*
X31476875Y315000D02*
G75*
G03*
X31476875Y315000I-50000J0D01*
G01*
X31476875Y145000D02*
G75*
G03*
X31476875Y145000I-50000J0D01*
G01*
X31476875Y-25000D02*
G75*
G03*
X31476875Y-25000I-50000J0D01*
G01*
X32026875Y10225000D02*
G75*
G03*
X32026875Y10225000I-50000J0D01*
G01*
X32026875Y8825000D02*
G75*
G03*
X32026875Y8825000I-50000J0D01*
G01*
X32026875Y8320000D02*
G75*
G03*
X32026875Y8320000I-50000J0D01*
G01*
X32026875Y6920000D02*
G75*
G03*
X32026875Y6920000I-50000J0D01*
G01*
X32026875Y6415000D02*
G75*
G03*
X32026875Y6415000I-50000J0D01*
G01*
X32026875Y5015000D02*
G75*
G03*
X32026875Y5015000I-50000J0D01*
G01*
X32026875Y4510000D02*
G75*
G03*
X32026875Y4510000I-50000J0D01*
G01*
X32026875Y3110000D02*
G75*
G03*
X32026875Y3110000I-50000J0D01*
G01*
X32026875Y2605000D02*
G75*
G03*
X32026875Y2605000I-50000J0D01*
G01*
X32026875Y1205000D02*
G75*
G03*
X32026875Y1205000I-50000J0D01*
G01*
X32026875Y700000D02*
G75*
G03*
X32026875Y700000I-50000J0D01*
G01*
X32026875Y-700000D02*
G75*
G03*
X32026875Y-700000I-50000J0D01*
G01*
X32196875Y10225000D02*
G75*
G03*
X32196875Y10225000I-50000J0D01*
G01*
X32196875Y8825000D02*
G75*
G03*
X32196875Y8825000I-50000J0D01*
G01*
X32196875Y8320000D02*
G75*
G03*
X32196875Y8320000I-50000J0D01*
G01*
X32196875Y6920000D02*
G75*
G03*
X32196875Y6920000I-50000J0D01*
G01*
X32196875Y6415000D02*
G75*
G03*
X32196875Y6415000I-50000J0D01*
G01*
X32196875Y5015000D02*
G75*
G03*
X32196875Y5015000I-50000J0D01*
G01*
X32196875Y4510000D02*
G75*
G03*
X32196875Y4510000I-50000J0D01*
G01*
X32196875Y3110000D02*
G75*
G03*
X32196875Y3110000I-50000J0D01*
G01*
X32196875Y2605000D02*
G75*
G03*
X32196875Y2605000I-50000J0D01*
G01*
X32196875Y1205000D02*
G75*
G03*
X32196875Y1205000I-50000J0D01*
G01*
X32196875Y700000D02*
G75*
G03*
X32196875Y700000I-50000J0D01*
G01*
X32196875Y-700000D02*
G75*
G03*
X32196875Y-700000I-50000J0D01*
G01*
X32366875Y10225000D02*
G75*
G03*
X32366875Y10225000I-50000J0D01*
G01*
X32366875Y8825000D02*
G75*
G03*
X32366875Y8825000I-50000J0D01*
G01*
X32366875Y8320000D02*
G75*
G03*
X32366875Y8320000I-50000J0D01*
G01*
X32366875Y6920000D02*
G75*
G03*
X32366875Y6920000I-50000J0D01*
G01*
X32366875Y6415000D02*
G75*
G03*
X32366875Y6415000I-50000J0D01*
G01*
X32366875Y5015000D02*
G75*
G03*
X32366875Y5015000I-50000J0D01*
G01*
X32366875Y4510000D02*
G75*
G03*
X32366875Y4510000I-50000J0D01*
G01*
X32366875Y3110000D02*
G75*
G03*
X32366875Y3110000I-50000J0D01*
G01*
X32366875Y2605000D02*
G75*
G03*
X32366875Y2605000I-50000J0D01*
G01*
X32366875Y1205000D02*
G75*
G03*
X32366875Y1205000I-50000J0D01*
G01*
X32366875Y700000D02*
G75*
G03*
X32366875Y700000I-50000J0D01*
G01*
X32366875Y-700000D02*
G75*
G03*
X32366875Y-700000I-50000J0D01*
G01*
X32916875Y9840000D02*
G75*
G03*
X32916875Y9840000I-50000J0D01*
G01*
X32916875Y9670000D02*
G75*
G03*
X32916875Y9670000I-50000J0D01*
G01*
X32916875Y9500000D02*
G75*
G03*
X32916875Y9500000I-50000J0D01*
G01*
X32916875Y7935000D02*
G75*
G03*
X32916875Y7935000I-50000J0D01*
G01*
X32916875Y7765000D02*
G75*
G03*
X32916875Y7765000I-50000J0D01*
G01*
X32916875Y7595000D02*
G75*
G03*
X32916875Y7595000I-50000J0D01*
G01*
X32916875Y6030000D02*
G75*
G03*
X32916875Y6030000I-50000J0D01*
G01*
X32916875Y5860000D02*
G75*
G03*
X32916875Y5860000I-50000J0D01*
G01*
X32916875Y5690000D02*
G75*
G03*
X32916875Y5690000I-50000J0D01*
G01*
X32916875Y4125000D02*
G75*
G03*
X32916875Y4125000I-50000J0D01*
G01*
X32916875Y3955000D02*
G75*
G03*
X32916875Y3955000I-50000J0D01*
G01*
X32916875Y3785000D02*
G75*
G03*
X32916875Y3785000I-50000J0D01*
G01*
X32916875Y2220000D02*
G75*
G03*
X32916875Y2220000I-50000J0D01*
G01*
X32916875Y2050000D02*
G75*
G03*
X32916875Y2050000I-50000J0D01*
G01*
X32916875Y1880000D02*
G75*
G03*
X32916875Y1880000I-50000J0D01*
G01*
X32916875Y315000D02*
G75*
G03*
X32916875Y315000I-50000J0D01*
G01*
X32916875Y145000D02*
G75*
G03*
X32916875Y145000I-50000J0D01*
G01*
X32916875Y-25000D02*
G75*
G03*
X32916875Y-25000I-50000J0D01*
G01*
D14*
X-948125Y10300000D02*
X-948125Y10150000D01*
X-1023125Y10225000D02*
X-873125Y10225000D01*
X-948125Y8900000D02*
X-948125Y8750000D01*
X-1023125Y8825000D02*
X-873125Y8825000D01*
X-948125Y8395000D02*
X-948125Y8245000D01*
X-1023125Y8320000D02*
X-873125Y8320000D01*
X-948125Y6995000D02*
X-948125Y6845000D01*
X-1023125Y6920000D02*
X-873125Y6920000D01*
X-710000Y775000D02*
X-710000Y625000D01*
X-785000Y700000D02*
X-635000Y700000D01*
X-710000Y-625000D02*
X-710000Y-775000D01*
X-785000Y-700000D02*
X-635000Y-700000D01*
X-471875Y6490000D02*
X-471875Y6340000D01*
X-546875Y6415000D02*
X-396875Y6415000D01*
X-471875Y5090000D02*
X-471875Y4940000D01*
X-546875Y5015000D02*
X-396875Y5015000D01*
X-233750Y4585000D02*
X-233750Y4435000D01*
X-308750Y4510000D02*
X-158750Y4510000D01*
X-233750Y3185000D02*
X-233750Y3035000D01*
X-308750Y3110000D02*
X-158750Y3110000D01*
X242500Y2680000D02*
X242500Y2530000D01*
X167500Y2605000D02*
X317500Y2605000D01*
X242500Y1280000D02*
X242500Y1130000D01*
X167500Y1205000D02*
X317500Y1205000D01*
X471875Y10300000D02*
X471875Y10150000D01*
X396875Y10225000D02*
X546875Y10225000D01*
X471875Y8900000D02*
X471875Y8750000D01*
X396875Y8825000D02*
X546875Y8825000D01*
X471875Y8395000D02*
X471875Y8245000D01*
X396875Y8320000D02*
X546875Y8320000D01*
X471875Y6995000D02*
X471875Y6845000D01*
X396875Y6920000D02*
X546875Y6920000D01*
X710000Y775000D02*
X710000Y625000D01*
X635000Y700000D02*
X785000Y700000D01*
X710000Y-625000D02*
X710000Y-775000D01*
X635000Y-700000D02*
X785000Y-700000D01*
X948125Y6490000D02*
X948125Y6340000D01*
X873125Y6415000D02*
X1023125Y6415000D01*
X948125Y5090000D02*
X948125Y4940000D01*
X873125Y5015000D02*
X1023125Y5015000D01*
X956875Y8395000D02*
X956875Y8245000D01*
X881875Y8320000D02*
X1031875Y8320000D01*
X956875Y6995000D02*
X956875Y6845000D01*
X881875Y6920000D02*
X1031875Y6920000D01*
X1186250Y4585000D02*
X1186250Y4435000D01*
X1111250Y4510000D02*
X1261250Y4510000D01*
X1186250Y3185000D02*
X1186250Y3035000D01*
X1111250Y3110000D02*
X1261250Y3110000D01*
X1662500Y2680000D02*
X1662500Y2530000D01*
X1587500Y2605000D02*
X1737500Y2605000D01*
X1662500Y1280000D02*
X1662500Y1130000D01*
X1587500Y1205000D02*
X1737500Y1205000D01*
X1671250Y775000D02*
X1671250Y625000D01*
X1596250Y700000D02*
X1746250Y700000D01*
X1671250Y-625000D02*
X1671250Y-775000D01*
X1596250Y-700000D02*
X1746250Y-700000D01*
X1909375Y6490000D02*
X1909375Y6340000D01*
X1834375Y6415000D02*
X1984375Y6415000D01*
X1909375Y5090000D02*
X1909375Y4940000D01*
X1834375Y5015000D02*
X1984375Y5015000D01*
X2376875Y8395000D02*
X2376875Y8245000D01*
X2301875Y8320000D02*
X2451875Y8320000D01*
X2376875Y6995000D02*
X2376875Y6845000D01*
X2301875Y6920000D02*
X2451875Y6920000D01*
X2385625Y4585000D02*
X2385625Y4435000D01*
X2310625Y4510000D02*
X2460625Y4510000D01*
X2385625Y3185000D02*
X2385625Y3035000D01*
X2310625Y3110000D02*
X2460625Y3110000D01*
X2861875Y8395000D02*
X2861875Y8245000D01*
X2786875Y8320000D02*
X2936875Y8320000D01*
X2861875Y6995000D02*
X2861875Y6845000D01*
X2786875Y6920000D02*
X2936875Y6920000D01*
X3091250Y775000D02*
X3091250Y625000D01*
X3016250Y700000D02*
X3166250Y700000D01*
X3091250Y-625000D02*
X3091250Y-775000D01*
X3016250Y-700000D02*
X3166250Y-700000D01*
X3329375Y6490000D02*
X3329375Y6340000D01*
X3254375Y6415000D02*
X3404375Y6415000D01*
X3329375Y5090000D02*
X3329375Y4940000D01*
X3254375Y5015000D02*
X3404375Y5015000D01*
X3338125Y2680000D02*
X3338125Y2530000D01*
X3263125Y2605000D02*
X3413125Y2605000D01*
X3338125Y1280000D02*
X3338125Y1130000D01*
X3263125Y1205000D02*
X3413125Y1205000D01*
X3805625Y4585000D02*
X3805625Y4435000D01*
X3730625Y4510000D02*
X3880625Y4510000D01*
X3805625Y3185000D02*
X3805625Y3035000D01*
X3730625Y3110000D02*
X3880625Y3110000D01*
X3814375Y10300000D02*
X3814375Y10150000D01*
X3739375Y10225000D02*
X3889375Y10225000D01*
X3814375Y8900000D02*
X3814375Y8750000D01*
X3739375Y8825000D02*
X3889375Y8825000D01*
X3814375Y6490000D02*
X3814375Y6340000D01*
X3739375Y6415000D02*
X3889375Y6415000D01*
X3814375Y5090000D02*
X3814375Y4940000D01*
X3739375Y5015000D02*
X3889375Y5015000D01*
X4052500Y775000D02*
X4052500Y625000D01*
X3977500Y700000D02*
X4127500Y700000D01*
X4052500Y-625000D02*
X4052500Y-775000D01*
X3977500Y-700000D02*
X4127500Y-700000D01*
X4281875Y8395000D02*
X4281875Y8245000D01*
X4206875Y8320000D02*
X4356875Y8320000D01*
X4281875Y6995000D02*
X4281875Y6845000D01*
X4206875Y6920000D02*
X4356875Y6920000D01*
X4290625Y4585000D02*
X4290625Y4435000D01*
X4215625Y4510000D02*
X4365625Y4510000D01*
X4290625Y3185000D02*
X4290625Y3035000D01*
X4215625Y3110000D02*
X4365625Y3110000D01*
X4758125Y2680000D02*
X4758125Y2530000D01*
X4683125Y2605000D02*
X4833125Y2605000D01*
X4758125Y1280000D02*
X4758125Y1130000D01*
X4683125Y1205000D02*
X4833125Y1205000D01*
X4766875Y8395000D02*
X4766875Y8245000D01*
X4691875Y8320000D02*
X4841875Y8320000D01*
X4766875Y6995000D02*
X4766875Y6845000D01*
X4691875Y6920000D02*
X4841875Y6920000D01*
X5234375Y10300000D02*
X5234375Y10150000D01*
X5159375Y10225000D02*
X5309375Y10225000D01*
X5234375Y8900000D02*
X5234375Y8750000D01*
X5159375Y8825000D02*
X5309375Y8825000D01*
X5234375Y6490000D02*
X5234375Y6340000D01*
X5159375Y6415000D02*
X5309375Y6415000D01*
X5234375Y5090000D02*
X5234375Y4940000D01*
X5159375Y5015000D02*
X5309375Y5015000D01*
X5243125Y2680000D02*
X5243125Y2530000D01*
X5168125Y2605000D02*
X5318125Y2605000D01*
X5243125Y1280000D02*
X5243125Y1130000D01*
X5168125Y1205000D02*
X5318125Y1205000D01*
X5472500Y775000D02*
X5472500Y625000D01*
X5397500Y700000D02*
X5547500Y700000D01*
X5472500Y-625000D02*
X5472500Y-775000D01*
X5397500Y-700000D02*
X5547500Y-700000D01*
X5710625Y4585000D02*
X5710625Y4435000D01*
X5635625Y4510000D02*
X5785625Y4510000D01*
X5710625Y3185000D02*
X5710625Y3035000D01*
X5635625Y3110000D02*
X5785625Y3110000D01*
X5719375Y10300000D02*
X5719375Y10150000D01*
X5644375Y10225000D02*
X5794375Y10225000D01*
X5719375Y8900000D02*
X5719375Y8750000D01*
X5644375Y8825000D02*
X5794375Y8825000D01*
X5719375Y6490000D02*
X5719375Y6340000D01*
X5644375Y6415000D02*
X5794375Y6415000D01*
X5719375Y5090000D02*
X5719375Y4940000D01*
X5644375Y5015000D02*
X5794375Y5015000D01*
X6186875Y8395000D02*
X6186875Y8245000D01*
X6111875Y8320000D02*
X6261875Y8320000D01*
X6186875Y6995000D02*
X6186875Y6845000D01*
X6111875Y6920000D02*
X6261875Y6920000D01*
X6195625Y4585000D02*
X6195625Y4435000D01*
X6120625Y4510000D02*
X6270625Y4510000D01*
X6195625Y3185000D02*
X6195625Y3035000D01*
X6120625Y3110000D02*
X6270625Y3110000D01*
X6433750Y775000D02*
X6433750Y625000D01*
X6358750Y700000D02*
X6508750Y700000D01*
X6433750Y-625000D02*
X6433750Y-775000D01*
X6358750Y-700000D02*
X6508750Y-700000D01*
X6663125Y2680000D02*
X6663125Y2530000D01*
X6588125Y2605000D02*
X6738125Y2605000D01*
X6663125Y1280000D02*
X6663125Y1130000D01*
X6588125Y1205000D02*
X6738125Y1205000D01*
X6671875Y8395000D02*
X6671875Y8245000D01*
X6596875Y8320000D02*
X6746875Y8320000D01*
X6671875Y6995000D02*
X6671875Y6845000D01*
X6596875Y6920000D02*
X6746875Y6920000D01*
X7139375Y10300000D02*
X7139375Y10150000D01*
X7064375Y10225000D02*
X7214375Y10225000D01*
X7139375Y8900000D02*
X7139375Y8750000D01*
X7064375Y8825000D02*
X7214375Y8825000D01*
X7139375Y6490000D02*
X7139375Y6340000D01*
X7064375Y6415000D02*
X7214375Y6415000D01*
X7139375Y5090000D02*
X7139375Y4940000D01*
X7064375Y5015000D02*
X7214375Y5015000D01*
X7148125Y2680000D02*
X7148125Y2530000D01*
X7073125Y2605000D02*
X7223125Y2605000D01*
X7148125Y1280000D02*
X7148125Y1130000D01*
X7073125Y1205000D02*
X7223125Y1205000D01*
X7615625Y4585000D02*
X7615625Y4435000D01*
X7540625Y4510000D02*
X7690625Y4510000D01*
X7615625Y3185000D02*
X7615625Y3035000D01*
X7540625Y3110000D02*
X7690625Y3110000D01*
X7624375Y10300000D02*
X7624375Y10150000D01*
X7549375Y10225000D02*
X7699375Y10225000D01*
X7624375Y8900000D02*
X7624375Y8750000D01*
X7549375Y8825000D02*
X7699375Y8825000D01*
X7624375Y6490000D02*
X7624375Y6340000D01*
X7549375Y6415000D02*
X7699375Y6415000D01*
X7624375Y5090000D02*
X7624375Y4940000D01*
X7549375Y5015000D02*
X7699375Y5015000D01*
X7853750Y775000D02*
X7853750Y625000D01*
X7778750Y700000D02*
X7928750Y700000D01*
X7853750Y-625000D02*
X7853750Y-775000D01*
X7778750Y-700000D02*
X7928750Y-700000D01*
X8091875Y8395000D02*
X8091875Y8245000D01*
X8016875Y8320000D02*
X8166875Y8320000D01*
X8091875Y6995000D02*
X8091875Y6845000D01*
X8016875Y6920000D02*
X8166875Y6920000D01*
X8100625Y4585000D02*
X8100625Y4435000D01*
X8025625Y4510000D02*
X8175625Y4510000D01*
X8100625Y3185000D02*
X8100625Y3035000D01*
X8025625Y3110000D02*
X8175625Y3110000D01*
X8568125Y2680000D02*
X8568125Y2530000D01*
X8493125Y2605000D02*
X8643125Y2605000D01*
X8568125Y1280000D02*
X8568125Y1130000D01*
X8493125Y1205000D02*
X8643125Y1205000D01*
X8576875Y8395000D02*
X8576875Y8245000D01*
X8501875Y8320000D02*
X8651875Y8320000D01*
X8576875Y6995000D02*
X8576875Y6845000D01*
X8501875Y6920000D02*
X8651875Y6920000D01*
X8815000Y775000D02*
X8815000Y625000D01*
X8740000Y700000D02*
X8890000Y700000D01*
X8815000Y-625000D02*
X8815000Y-775000D01*
X8740000Y-700000D02*
X8890000Y-700000D01*
X9044375Y10300000D02*
X9044375Y10150000D01*
X8969375Y10225000D02*
X9119375Y10225000D01*
X9044375Y8900000D02*
X9044375Y8750000D01*
X8969375Y8825000D02*
X9119375Y8825000D01*
X9044375Y6490000D02*
X9044375Y6340000D01*
X8969375Y6415000D02*
X9119375Y6415000D01*
X9044375Y5090000D02*
X9044375Y4940000D01*
X8969375Y5015000D02*
X9119375Y5015000D01*
X9053125Y2680000D02*
X9053125Y2530000D01*
X8978125Y2605000D02*
X9128125Y2605000D01*
X9053125Y1280000D02*
X9053125Y1130000D01*
X8978125Y1205000D02*
X9128125Y1205000D01*
X9520625Y4585000D02*
X9520625Y4435000D01*
X9445625Y4510000D02*
X9595625Y4510000D01*
X9520625Y3185000D02*
X9520625Y3035000D01*
X9445625Y3110000D02*
X9595625Y3110000D01*
X9529375Y10300000D02*
X9529375Y10150000D01*
X9454375Y10225000D02*
X9604375Y10225000D01*
X9529375Y8900000D02*
X9529375Y8750000D01*
X9454375Y8825000D02*
X9604375Y8825000D01*
X9529375Y6490000D02*
X9529375Y6340000D01*
X9454375Y6415000D02*
X9604375Y6415000D01*
X9529375Y5090000D02*
X9529375Y4940000D01*
X9454375Y5015000D02*
X9604375Y5015000D01*
X9996875Y8395000D02*
X9996875Y8245000D01*
X9921875Y8320000D02*
X10071875Y8320000D01*
X9996875Y6995000D02*
X9996875Y6845000D01*
X9921875Y6920000D02*
X10071875Y6920000D01*
X10005625Y4585000D02*
X10005625Y4435000D01*
X9930625Y4510000D02*
X10080625Y4510000D01*
X10005625Y3185000D02*
X10005625Y3035000D01*
X9930625Y3110000D02*
X10080625Y3110000D01*
X10235000Y775000D02*
X10235000Y625000D01*
X10160000Y700000D02*
X10310000Y700000D01*
X10235000Y-625000D02*
X10235000Y-775000D01*
X10160000Y-700000D02*
X10310000Y-700000D01*
X10473125Y2680000D02*
X10473125Y2530000D01*
X10398125Y2605000D02*
X10548125Y2605000D01*
X10473125Y1280000D02*
X10473125Y1130000D01*
X10398125Y1205000D02*
X10548125Y1205000D01*
X10481875Y8395000D02*
X10481875Y8245000D01*
X10406875Y8320000D02*
X10556875Y8320000D01*
X10481875Y6995000D02*
X10481875Y6845000D01*
X10406875Y6920000D02*
X10556875Y6920000D01*
X10949375Y10300000D02*
X10949375Y10150000D01*
X10874375Y10225000D02*
X11024375Y10225000D01*
X10949375Y8900000D02*
X10949375Y8750000D01*
X10874375Y8825000D02*
X11024375Y8825000D01*
X10949375Y6490000D02*
X10949375Y6340000D01*
X10874375Y6415000D02*
X11024375Y6415000D01*
X10949375Y5090000D02*
X10949375Y4940000D01*
X10874375Y5015000D02*
X11024375Y5015000D01*
X10958125Y2680000D02*
X10958125Y2530000D01*
X10883125Y2605000D02*
X11033125Y2605000D01*
X10958125Y1280000D02*
X10958125Y1130000D01*
X10883125Y1205000D02*
X11033125Y1205000D01*
X11196250Y775000D02*
X11196250Y625000D01*
X11121250Y700000D02*
X11271250Y700000D01*
X11196250Y-625000D02*
X11196250Y-775000D01*
X11121250Y-700000D02*
X11271250Y-700000D01*
X11425625Y4585000D02*
X11425625Y4435000D01*
X11350625Y4510000D02*
X11500625Y4510000D01*
X11425625Y3185000D02*
X11425625Y3035000D01*
X11350625Y3110000D02*
X11500625Y3110000D01*
X11434375Y6490000D02*
X11434375Y6340000D01*
X11359375Y6415000D02*
X11509375Y6415000D01*
X11434375Y5090000D02*
X11434375Y4940000D01*
X11359375Y5015000D02*
X11509375Y5015000D01*
X11901875Y8395000D02*
X11901875Y8245000D01*
X11826875Y8320000D02*
X11976875Y8320000D01*
X11901875Y6995000D02*
X11901875Y6845000D01*
X11826875Y6920000D02*
X11976875Y6920000D01*
X11910625Y10300000D02*
X11910625Y10150000D01*
X11835625Y10225000D02*
X11985625Y10225000D01*
X11910625Y8900000D02*
X11910625Y8750000D01*
X11835625Y8825000D02*
X11985625Y8825000D01*
X11910625Y4585000D02*
X11910625Y4435000D01*
X11835625Y4510000D02*
X11985625Y4510000D01*
X11910625Y3185000D02*
X11910625Y3035000D01*
X11835625Y3110000D02*
X11985625Y3110000D01*
X12378125Y2680000D02*
X12378125Y2530000D01*
X12303125Y2605000D02*
X12453125Y2605000D01*
X12378125Y1280000D02*
X12378125Y1130000D01*
X12303125Y1205000D02*
X12453125Y1205000D01*
X12386875Y8395000D02*
X12386875Y8245000D01*
X12311875Y8320000D02*
X12461875Y8320000D01*
X12386875Y6995000D02*
X12386875Y6845000D01*
X12311875Y6920000D02*
X12461875Y6920000D01*
X12616250Y775000D02*
X12616250Y625000D01*
X12541250Y700000D02*
X12691250Y700000D01*
X12616250Y-625000D02*
X12616250Y-775000D01*
X12541250Y-700000D02*
X12691250Y-700000D01*
X12854375Y6490000D02*
X12854375Y6340000D01*
X12779375Y6415000D02*
X12929375Y6415000D01*
X12854375Y5090000D02*
X12854375Y4940000D01*
X12779375Y5015000D02*
X12929375Y5015000D01*
X12863125Y2680000D02*
X12863125Y2530000D01*
X12788125Y2605000D02*
X12938125Y2605000D01*
X12863125Y1280000D02*
X12863125Y1130000D01*
X12788125Y1205000D02*
X12938125Y1205000D01*
X13330625Y10300000D02*
X13330625Y10150000D01*
X13255625Y10225000D02*
X13405625Y10225000D01*
X13330625Y8900000D02*
X13330625Y8750000D01*
X13255625Y8825000D02*
X13405625Y8825000D01*
X13330625Y4585000D02*
X13330625Y4435000D01*
X13255625Y4510000D02*
X13405625Y4510000D01*
X13330625Y3185000D02*
X13330625Y3035000D01*
X13255625Y3110000D02*
X13405625Y3110000D01*
X13339375Y6490000D02*
X13339375Y6340000D01*
X13264375Y6415000D02*
X13414375Y6415000D01*
X13339375Y5090000D02*
X13339375Y4940000D01*
X13264375Y5015000D02*
X13414375Y5015000D01*
X13577500Y775000D02*
X13577500Y625000D01*
X13502500Y700000D02*
X13652500Y700000D01*
X13577500Y-625000D02*
X13577500Y-775000D01*
X13502500Y-700000D02*
X13652500Y-700000D01*
X13806875Y8395000D02*
X13806875Y8245000D01*
X13731875Y8320000D02*
X13881875Y8320000D01*
X13806875Y6995000D02*
X13806875Y6845000D01*
X13731875Y6920000D02*
X13881875Y6920000D01*
X13815625Y10300000D02*
X13815625Y10150000D01*
X13740625Y10225000D02*
X13890625Y10225000D01*
X13815625Y8900000D02*
X13815625Y8750000D01*
X13740625Y8825000D02*
X13890625Y8825000D01*
X13815625Y4585000D02*
X13815625Y4435000D01*
X13740625Y4510000D02*
X13890625Y4510000D01*
X13815625Y3185000D02*
X13815625Y3035000D01*
X13740625Y3110000D02*
X13890625Y3110000D01*
X14283125Y2680000D02*
X14283125Y2530000D01*
X14208125Y2605000D02*
X14358125Y2605000D01*
X14283125Y1280000D02*
X14283125Y1130000D01*
X14208125Y1205000D02*
X14358125Y1205000D01*
X14291875Y8395000D02*
X14291875Y8245000D01*
X14216875Y8320000D02*
X14366875Y8320000D01*
X14291875Y6995000D02*
X14291875Y6845000D01*
X14216875Y6920000D02*
X14366875Y6920000D01*
X14759375Y6490000D02*
X14759375Y6340000D01*
X14684375Y6415000D02*
X14834375Y6415000D01*
X14759375Y5090000D02*
X14759375Y4940000D01*
X14684375Y5015000D02*
X14834375Y5015000D01*
X14768125Y2680000D02*
X14768125Y2530000D01*
X14693125Y2605000D02*
X14843125Y2605000D01*
X14768125Y1280000D02*
X14768125Y1130000D01*
X14693125Y1205000D02*
X14843125Y1205000D01*
X14997500Y775000D02*
X14997500Y625000D01*
X14922500Y700000D02*
X15072500Y700000D01*
X14997500Y-625000D02*
X14997500Y-775000D01*
X14922500Y-700000D02*
X15072500Y-700000D01*
X15235625Y10300000D02*
X15235625Y10150000D01*
X15160625Y10225000D02*
X15310625Y10225000D01*
X15235625Y8900000D02*
X15235625Y8750000D01*
X15160625Y8825000D02*
X15310625Y8825000D01*
X15235625Y4585000D02*
X15235625Y4435000D01*
X15160625Y4510000D02*
X15310625Y4510000D01*
X15235625Y3185000D02*
X15235625Y3035000D01*
X15160625Y3110000D02*
X15310625Y3110000D01*
X15244375Y6490000D02*
X15244375Y6340000D01*
X15169375Y6415000D02*
X15319375Y6415000D01*
X15244375Y5090000D02*
X15244375Y4940000D01*
X15169375Y5015000D02*
X15319375Y5015000D01*
X15711875Y8395000D02*
X15711875Y8245000D01*
X15636875Y8320000D02*
X15786875Y8320000D01*
X15711875Y6995000D02*
X15711875Y6845000D01*
X15636875Y6920000D02*
X15786875Y6920000D01*
X15720625Y10300000D02*
X15720625Y10150000D01*
X15645625Y10225000D02*
X15795625Y10225000D01*
X15720625Y8900000D02*
X15720625Y8750000D01*
X15645625Y8825000D02*
X15795625Y8825000D01*
X15720625Y4585000D02*
X15720625Y4435000D01*
X15645625Y4510000D02*
X15795625Y4510000D01*
X15720625Y3185000D02*
X15720625Y3035000D01*
X15645625Y3110000D02*
X15795625Y3110000D01*
X15958750Y775000D02*
X15958750Y625000D01*
X15883750Y700000D02*
X16033750Y700000D01*
X15958750Y-625000D02*
X15958750Y-775000D01*
X15883750Y-700000D02*
X16033750Y-700000D01*
X16188125Y2680000D02*
X16188125Y2530000D01*
X16113125Y2605000D02*
X16263125Y2605000D01*
X16188125Y1280000D02*
X16188125Y1130000D01*
X16113125Y1205000D02*
X16263125Y1205000D01*
X16196875Y8395000D02*
X16196875Y8245000D01*
X16121875Y8320000D02*
X16271875Y8320000D01*
X16196875Y6995000D02*
X16196875Y6845000D01*
X16121875Y6920000D02*
X16271875Y6920000D01*
X16664375Y6490000D02*
X16664375Y6340000D01*
X16589375Y6415000D02*
X16739375Y6415000D01*
X16664375Y5090000D02*
X16664375Y4940000D01*
X16589375Y5015000D02*
X16739375Y5015000D01*
X16673125Y2680000D02*
X16673125Y2530000D01*
X16598125Y2605000D02*
X16748125Y2605000D01*
X16673125Y1280000D02*
X16673125Y1130000D01*
X16598125Y1205000D02*
X16748125Y1205000D01*
X17140625Y10300000D02*
X17140625Y10150000D01*
X17065625Y10225000D02*
X17215625Y10225000D01*
X17140625Y8900000D02*
X17140625Y8750000D01*
X17065625Y8825000D02*
X17215625Y8825000D01*
X17140625Y4585000D02*
X17140625Y4435000D01*
X17065625Y4510000D02*
X17215625Y4510000D01*
X17140625Y3185000D02*
X17140625Y3035000D01*
X17065625Y3110000D02*
X17215625Y3110000D01*
X17149375Y6490000D02*
X17149375Y6340000D01*
X17074375Y6415000D02*
X17224375Y6415000D01*
X17149375Y5090000D02*
X17149375Y4940000D01*
X17074375Y5015000D02*
X17224375Y5015000D01*
X17378750Y775000D02*
X17378750Y625000D01*
X17303750Y700000D02*
X17453750Y700000D01*
X17378750Y-625000D02*
X17378750Y-775000D01*
X17303750Y-700000D02*
X17453750Y-700000D01*
X17616875Y8395000D02*
X17616875Y8245000D01*
X17541875Y8320000D02*
X17691875Y8320000D01*
X17616875Y6995000D02*
X17616875Y6845000D01*
X17541875Y6920000D02*
X17691875Y6920000D01*
X17625625Y10300000D02*
X17625625Y10150000D01*
X17550625Y10225000D02*
X17700625Y10225000D01*
X17625625Y8900000D02*
X17625625Y8750000D01*
X17550625Y8825000D02*
X17700625Y8825000D01*
X17625625Y4585000D02*
X17625625Y4435000D01*
X17550625Y4510000D02*
X17700625Y4510000D01*
X17625625Y3185000D02*
X17625625Y3035000D01*
X17550625Y3110000D02*
X17700625Y3110000D01*
X18093125Y2680000D02*
X18093125Y2530000D01*
X18018125Y2605000D02*
X18168125Y2605000D01*
X18093125Y1280000D02*
X18093125Y1130000D01*
X18018125Y1205000D02*
X18168125Y1205000D01*
X18101875Y8395000D02*
X18101875Y8245000D01*
X18026875Y8320000D02*
X18176875Y8320000D01*
X18101875Y6995000D02*
X18101875Y6845000D01*
X18026875Y6920000D02*
X18176875Y6920000D01*
X18340000Y775000D02*
X18340000Y625000D01*
X18265000Y700000D02*
X18415000Y700000D01*
X18340000Y-625000D02*
X18340000Y-775000D01*
X18265000Y-700000D02*
X18415000Y-700000D01*
X18569375Y6490000D02*
X18569375Y6340000D01*
X18494375Y6415000D02*
X18644375Y6415000D01*
X18569375Y5090000D02*
X18569375Y4940000D01*
X18494375Y5015000D02*
X18644375Y5015000D01*
X18578125Y2680000D02*
X18578125Y2530000D01*
X18503125Y2605000D02*
X18653125Y2605000D01*
X18578125Y1280000D02*
X18578125Y1130000D01*
X18503125Y1205000D02*
X18653125Y1205000D01*
X19045625Y10300000D02*
X19045625Y10150000D01*
X18970625Y10225000D02*
X19120625Y10225000D01*
X19045625Y8900000D02*
X19045625Y8750000D01*
X18970625Y8825000D02*
X19120625Y8825000D01*
X19045625Y4585000D02*
X19045625Y4435000D01*
X18970625Y4510000D02*
X19120625Y4510000D01*
X19045625Y3185000D02*
X19045625Y3035000D01*
X18970625Y3110000D02*
X19120625Y3110000D01*
X19054375Y6490000D02*
X19054375Y6340000D01*
X18979375Y6415000D02*
X19129375Y6415000D01*
X19054375Y5090000D02*
X19054375Y4940000D01*
X18979375Y5015000D02*
X19129375Y5015000D01*
X19521875Y8395000D02*
X19521875Y8245000D01*
X19446875Y8320000D02*
X19596875Y8320000D01*
X19521875Y6995000D02*
X19521875Y6845000D01*
X19446875Y6920000D02*
X19596875Y6920000D01*
X19530625Y4585000D02*
X19530625Y4435000D01*
X19455625Y4510000D02*
X19605625Y4510000D01*
X19530625Y3185000D02*
X19530625Y3035000D01*
X19455625Y3110000D02*
X19605625Y3110000D01*
X19760000Y775000D02*
X19760000Y625000D01*
X19685000Y700000D02*
X19835000Y700000D01*
X19760000Y-625000D02*
X19760000Y-775000D01*
X19685000Y-700000D02*
X19835000Y-700000D01*
X19998125Y2680000D02*
X19998125Y2530000D01*
X19923125Y2605000D02*
X20073125Y2605000D01*
X19998125Y1280000D02*
X19998125Y1130000D01*
X19923125Y1205000D02*
X20073125Y1205000D01*
X20006875Y10300000D02*
X20006875Y10150000D01*
X19931875Y10225000D02*
X20081875Y10225000D01*
X20006875Y8900000D02*
X20006875Y8750000D01*
X19931875Y8825000D02*
X20081875Y8825000D01*
X20006875Y8395000D02*
X20006875Y8245000D01*
X19931875Y8320000D02*
X20081875Y8320000D01*
X20006875Y6995000D02*
X20006875Y6845000D01*
X19931875Y6920000D02*
X20081875Y6920000D01*
X20474375Y6490000D02*
X20474375Y6340000D01*
X20399375Y6415000D02*
X20549375Y6415000D01*
X20474375Y5090000D02*
X20474375Y4940000D01*
X20399375Y5015000D02*
X20549375Y5015000D01*
X20483125Y2680000D02*
X20483125Y2530000D01*
X20408125Y2605000D02*
X20558125Y2605000D01*
X20483125Y1280000D02*
X20483125Y1130000D01*
X20408125Y1205000D02*
X20558125Y1205000D01*
X20721250Y775000D02*
X20721250Y625000D01*
X20646250Y700000D02*
X20796250Y700000D01*
X20721250Y-625000D02*
X20721250Y-775000D01*
X20646250Y-700000D02*
X20796250Y-700000D01*
X20950625Y4585000D02*
X20950625Y4435000D01*
X20875625Y4510000D02*
X21025625Y4510000D01*
X20950625Y3185000D02*
X20950625Y3035000D01*
X20875625Y3110000D02*
X21025625Y3110000D01*
X20959375Y6490000D02*
X20959375Y6340000D01*
X20884375Y6415000D02*
X21034375Y6415000D01*
X20959375Y5090000D02*
X20959375Y4940000D01*
X20884375Y5015000D02*
X21034375Y5015000D01*
X21426875Y10300000D02*
X21426875Y10150000D01*
X21351875Y10225000D02*
X21501875Y10225000D01*
X21426875Y8900000D02*
X21426875Y8750000D01*
X21351875Y8825000D02*
X21501875Y8825000D01*
X21426875Y8395000D02*
X21426875Y8245000D01*
X21351875Y8320000D02*
X21501875Y8320000D01*
X21426875Y6995000D02*
X21426875Y6845000D01*
X21351875Y6920000D02*
X21501875Y6920000D01*
X21530875Y4600875D02*
X21530875Y4450875D01*
X21455875Y4525875D02*
X21605875Y4525875D01*
X21530875Y3200875D02*
X21530875Y3050875D01*
X21455875Y3125875D02*
X21605875Y3125875D01*
X21903125Y2680000D02*
X21903125Y2530000D01*
X21828125Y2605000D02*
X21978125Y2605000D01*
X21903125Y1280000D02*
X21903125Y1130000D01*
X21828125Y1205000D02*
X21978125Y1205000D01*
X21911875Y10300000D02*
X21911875Y10150000D01*
X21836875Y10225000D02*
X21986875Y10225000D01*
X21911875Y8900000D02*
X21911875Y8750000D01*
X21836875Y8825000D02*
X21986875Y8825000D01*
X21911875Y8395000D02*
X21911875Y8245000D01*
X21836875Y8320000D02*
X21986875Y8320000D01*
X21911875Y6995000D02*
X21911875Y6845000D01*
X21836875Y6920000D02*
X21986875Y6920000D01*
X22141250Y775000D02*
X22141250Y625000D01*
X22066250Y700000D02*
X22216250Y700000D01*
X22141250Y-625000D02*
X22141250Y-775000D01*
X22066250Y-700000D02*
X22216250Y-700000D01*
X22379375Y6490000D02*
X22379375Y6340000D01*
X22304375Y6415000D02*
X22454375Y6415000D01*
X22379375Y5090000D02*
X22379375Y4940000D01*
X22304375Y5015000D02*
X22454375Y5015000D01*
X22388125Y2680000D02*
X22388125Y2530000D01*
X22313125Y2605000D02*
X22463125Y2605000D01*
X22388125Y1280000D02*
X22388125Y1130000D01*
X22313125Y1205000D02*
X22463125Y1205000D01*
X22864375Y6490000D02*
X22864375Y6340000D01*
X22789375Y6415000D02*
X22939375Y6415000D01*
X22864375Y5090000D02*
X22864375Y4940000D01*
X22789375Y5015000D02*
X22939375Y5015000D01*
X22950875Y4600875D02*
X22950875Y4450875D01*
X22875875Y4525875D02*
X23025875Y4525875D01*
X22950875Y3200875D02*
X22950875Y3050875D01*
X22875875Y3125875D02*
X23025875Y3125875D01*
X23102500Y775000D02*
X23102500Y625000D01*
X23027500Y700000D02*
X23177500Y700000D01*
X23102500Y-625000D02*
X23102500Y-775000D01*
X23027500Y-700000D02*
X23177500Y-700000D01*
X23331875Y10300000D02*
X23331875Y10150000D01*
X23256875Y10225000D02*
X23406875Y10225000D01*
X23331875Y8900000D02*
X23331875Y8750000D01*
X23256875Y8825000D02*
X23406875Y8825000D01*
X23331875Y8395000D02*
X23331875Y8245000D01*
X23256875Y8320000D02*
X23406875Y8320000D01*
X23331875Y6995000D02*
X23331875Y6845000D01*
X23256875Y6920000D02*
X23406875Y6920000D01*
X23808125Y2680000D02*
X23808125Y2530000D01*
X23733125Y2605000D02*
X23883125Y2605000D01*
X23808125Y1280000D02*
X23808125Y1130000D01*
X23733125Y1205000D02*
X23883125Y1205000D01*
X23816875Y10300000D02*
X23816875Y10150000D01*
X23741875Y10225000D02*
X23891875Y10225000D01*
X23816875Y8900000D02*
X23816875Y8750000D01*
X23741875Y8825000D02*
X23891875Y8825000D01*
X24284375Y6490000D02*
X24284375Y6340000D01*
X24209375Y6415000D02*
X24359375Y6415000D01*
X24284375Y5090000D02*
X24284375Y4940000D01*
X24209375Y5015000D02*
X24359375Y5015000D01*
X24522500Y775000D02*
X24522500Y625000D01*
X24447500Y700000D02*
X24597500Y700000D01*
X24522500Y-625000D02*
X24522500Y-775000D01*
X24447500Y-700000D02*
X24597500Y-700000D01*
X24531250Y4585000D02*
X24531250Y4435000D01*
X24456250Y4510000D02*
X24606250Y4510000D01*
X24531250Y3185000D02*
X24531250Y3035000D01*
X24456250Y3110000D02*
X24606250Y3110000D01*
X24769375Y8395000D02*
X24769375Y8245000D01*
X24694375Y8320000D02*
X24844375Y8320000D01*
X24769375Y6995000D02*
X24769375Y6845000D01*
X24694375Y6920000D02*
X24844375Y6920000D01*
X25007500Y2680000D02*
X25007500Y2530000D01*
X24932500Y2605000D02*
X25082500Y2605000D01*
X25007500Y1280000D02*
X25007500Y1130000D01*
X24932500Y1205000D02*
X25082500Y1205000D01*
X25236875Y10300000D02*
X25236875Y10150000D01*
X25161875Y10225000D02*
X25311875Y10225000D01*
X25236875Y8900000D02*
X25236875Y8750000D01*
X25161875Y8825000D02*
X25311875Y8825000D01*
X25245625Y6490000D02*
X25245625Y6340000D01*
X25170625Y6415000D02*
X25320625Y6415000D01*
X25245625Y5090000D02*
X25245625Y4940000D01*
X25170625Y5015000D02*
X25320625Y5015000D01*
X25483750Y775000D02*
X25483750Y625000D01*
X25408750Y700000D02*
X25558750Y700000D01*
X25483750Y-625000D02*
X25483750Y-775000D01*
X25408750Y-700000D02*
X25558750Y-700000D01*
X25721875Y10300000D02*
X25721875Y10150000D01*
X25646875Y10225000D02*
X25796875Y10225000D01*
X25721875Y8900000D02*
X25721875Y8750000D01*
X25646875Y8825000D02*
X25796875Y8825000D01*
X25951250Y4585000D02*
X25951250Y4435000D01*
X25876250Y4510000D02*
X26026250Y4510000D01*
X25951250Y3185000D02*
X25951250Y3035000D01*
X25876250Y3110000D02*
X26026250Y3110000D01*
X26189375Y8395000D02*
X26189375Y8245000D01*
X26114375Y8320000D02*
X26264375Y8320000D01*
X26189375Y6995000D02*
X26189375Y6845000D01*
X26114375Y6920000D02*
X26264375Y6920000D01*
X26427500Y2680000D02*
X26427500Y2530000D01*
X26352500Y2605000D02*
X26502500Y2605000D01*
X26427500Y1280000D02*
X26427500Y1130000D01*
X26352500Y1205000D02*
X26502500Y1205000D01*
X26665625Y6490000D02*
X26665625Y6340000D01*
X26590625Y6415000D02*
X26740625Y6415000D01*
X26665625Y5090000D02*
X26665625Y4940000D01*
X26590625Y5015000D02*
X26740625Y5015000D01*
X26903750Y775000D02*
X26903750Y625000D01*
X26828750Y700000D02*
X26978750Y700000D01*
X26903750Y-625000D02*
X26903750Y-775000D01*
X26828750Y-700000D02*
X26978750Y-700000D01*
X27141875Y10300000D02*
X27141875Y10150000D01*
X27066875Y10225000D02*
X27216875Y10225000D01*
X27141875Y8900000D02*
X27141875Y8750000D01*
X27066875Y8825000D02*
X27216875Y8825000D01*
X27626875Y10300000D02*
X27626875Y10150000D01*
X27551875Y10225000D02*
X27701875Y10225000D01*
X27626875Y8900000D02*
X27626875Y8750000D01*
X27551875Y8825000D02*
X27701875Y8825000D01*
X27626875Y8395000D02*
X27626875Y8245000D01*
X27551875Y8320000D02*
X27701875Y8320000D01*
X27626875Y6995000D02*
X27626875Y6845000D01*
X27551875Y6920000D02*
X27701875Y6920000D01*
X27626875Y6490000D02*
X27626875Y6340000D01*
X27551875Y6415000D02*
X27701875Y6415000D01*
X27626875Y5090000D02*
X27626875Y4940000D01*
X27551875Y5015000D02*
X27701875Y5015000D01*
X27626875Y4585000D02*
X27626875Y4435000D01*
X27551875Y4510000D02*
X27701875Y4510000D01*
X27626875Y3185000D02*
X27626875Y3035000D01*
X27551875Y3110000D02*
X27701875Y3110000D01*
X27626875Y2680000D02*
X27626875Y2530000D01*
X27551875Y2605000D02*
X27701875Y2605000D01*
X27626875Y1280000D02*
X27626875Y1130000D01*
X27551875Y1205000D02*
X27701875Y1205000D01*
X27626875Y775000D02*
X27626875Y625000D01*
X27551875Y700000D02*
X27701875Y700000D01*
X27626875Y-625000D02*
X27626875Y-775000D01*
X27551875Y-700000D02*
X27701875Y-700000D01*
X29046875Y10300000D02*
X29046875Y10150000D01*
X28971875Y10225000D02*
X29121875Y10225000D01*
X29046875Y8900000D02*
X29046875Y8750000D01*
X28971875Y8825000D02*
X29121875Y8825000D01*
X29046875Y8395000D02*
X29046875Y8245000D01*
X28971875Y8320000D02*
X29121875Y8320000D01*
X29046875Y6995000D02*
X29046875Y6845000D01*
X28971875Y6920000D02*
X29121875Y6920000D01*
X29046875Y6490000D02*
X29046875Y6340000D01*
X28971875Y6415000D02*
X29121875Y6415000D01*
X29046875Y5090000D02*
X29046875Y4940000D01*
X28971875Y5015000D02*
X29121875Y5015000D01*
X29046875Y4585000D02*
X29046875Y4435000D01*
X28971875Y4510000D02*
X29121875Y4510000D01*
X29046875Y3185000D02*
X29046875Y3035000D01*
X28971875Y3110000D02*
X29121875Y3110000D01*
X29046875Y2680000D02*
X29046875Y2530000D01*
X28971875Y2605000D02*
X29121875Y2605000D01*
X29046875Y1280000D02*
X29046875Y1130000D01*
X28971875Y1205000D02*
X29121875Y1205000D01*
X29046875Y775000D02*
X29046875Y625000D01*
X28971875Y700000D02*
X29121875Y700000D01*
X29046875Y-625000D02*
X29046875Y-775000D01*
X28971875Y-700000D02*
X29121875Y-700000D01*
X29531875Y10300000D02*
X29531875Y10150000D01*
X29456875Y10225000D02*
X29606875Y10225000D01*
X29531875Y8900000D02*
X29531875Y8750000D01*
X29456875Y8825000D02*
X29606875Y8825000D01*
X29531875Y8395000D02*
X29531875Y8245000D01*
X29456875Y8320000D02*
X29606875Y8320000D01*
X29531875Y6995000D02*
X29531875Y6845000D01*
X29456875Y6920000D02*
X29606875Y6920000D01*
X29531875Y6490000D02*
X29531875Y6340000D01*
X29456875Y6415000D02*
X29606875Y6415000D01*
X29531875Y5090000D02*
X29531875Y4940000D01*
X29456875Y5015000D02*
X29606875Y5015000D01*
X29531875Y4585000D02*
X29531875Y4435000D01*
X29456875Y4510000D02*
X29606875Y4510000D01*
X29531875Y3185000D02*
X29531875Y3035000D01*
X29456875Y3110000D02*
X29606875Y3110000D01*
X29531875Y2680000D02*
X29531875Y2530000D01*
X29456875Y2605000D02*
X29606875Y2605000D01*
X29531875Y1280000D02*
X29531875Y1130000D01*
X29456875Y1205000D02*
X29606875Y1205000D01*
X29531875Y775000D02*
X29531875Y625000D01*
X29456875Y700000D02*
X29606875Y700000D01*
X29531875Y-625000D02*
X29531875Y-775000D01*
X29456875Y-700000D02*
X29606875Y-700000D01*
X30951875Y10300000D02*
X30951875Y10150000D01*
X30876875Y10225000D02*
X31026875Y10225000D01*
X30951875Y8900000D02*
X30951875Y8750000D01*
X30876875Y8825000D02*
X31026875Y8825000D01*
X30951875Y8395000D02*
X30951875Y8245000D01*
X30876875Y8320000D02*
X31026875Y8320000D01*
X30951875Y6995000D02*
X30951875Y6845000D01*
X30876875Y6920000D02*
X31026875Y6920000D01*
X30951875Y6490000D02*
X30951875Y6340000D01*
X30876875Y6415000D02*
X31026875Y6415000D01*
X30951875Y5090000D02*
X30951875Y4940000D01*
X30876875Y5015000D02*
X31026875Y5015000D01*
X30951875Y4585000D02*
X30951875Y4435000D01*
X30876875Y4510000D02*
X31026875Y4510000D01*
X30951875Y3185000D02*
X30951875Y3035000D01*
X30876875Y3110000D02*
X31026875Y3110000D01*
X30951875Y2680000D02*
X30951875Y2530000D01*
X30876875Y2605000D02*
X31026875Y2605000D01*
X30951875Y1280000D02*
X30951875Y1130000D01*
X30876875Y1205000D02*
X31026875Y1205000D01*
X30951875Y775000D02*
X30951875Y625000D01*
X30876875Y700000D02*
X31026875Y700000D01*
X30951875Y-625000D02*
X30951875Y-775000D01*
X30876875Y-700000D02*
X31026875Y-700000D01*
X31436875Y10300000D02*
X31436875Y10150000D01*
X31361875Y10225000D02*
X31511875Y10225000D01*
X31436875Y8900000D02*
X31436875Y8750000D01*
X31361875Y8825000D02*
X31511875Y8825000D01*
X31436875Y8395000D02*
X31436875Y8245000D01*
X31361875Y8320000D02*
X31511875Y8320000D01*
X31436875Y6995000D02*
X31436875Y6845000D01*
X31361875Y6920000D02*
X31511875Y6920000D01*
X31436875Y6490000D02*
X31436875Y6340000D01*
X31361875Y6415000D02*
X31511875Y6415000D01*
X31436875Y5090000D02*
X31436875Y4940000D01*
X31361875Y5015000D02*
X31511875Y5015000D01*
X31436875Y4585000D02*
X31436875Y4435000D01*
X31361875Y4510000D02*
X31511875Y4510000D01*
X31436875Y3185000D02*
X31436875Y3035000D01*
X31361875Y3110000D02*
X31511875Y3110000D01*
X31436875Y2680000D02*
X31436875Y2530000D01*
X31361875Y2605000D02*
X31511875Y2605000D01*
X31436875Y1280000D02*
X31436875Y1130000D01*
X31361875Y1205000D02*
X31511875Y1205000D01*
X31436875Y775000D02*
X31436875Y625000D01*
X31361875Y700000D02*
X31511875Y700000D01*
X31436875Y-625000D02*
X31436875Y-775000D01*
X31361875Y-700000D02*
X31511875Y-700000D01*
X32856875Y10300000D02*
X32856875Y10150000D01*
X32781875Y10225000D02*
X32931875Y10225000D01*
X32856875Y8900000D02*
X32856875Y8750000D01*
X32781875Y8825000D02*
X32931875Y8825000D01*
X32856875Y8395000D02*
X32856875Y8245000D01*
X32781875Y8320000D02*
X32931875Y8320000D01*
X32856875Y6995000D02*
X32856875Y6845000D01*
X32781875Y6920000D02*
X32931875Y6920000D01*
X32856875Y6490000D02*
X32856875Y6340000D01*
X32781875Y6415000D02*
X32931875Y6415000D01*
X32856875Y5090000D02*
X32856875Y4940000D01*
X32781875Y5015000D02*
X32931875Y5015000D01*
X32856875Y4585000D02*
X32856875Y4435000D01*
X32781875Y4510000D02*
X32931875Y4510000D01*
X32856875Y3185000D02*
X32856875Y3035000D01*
X32781875Y3110000D02*
X32931875Y3110000D01*
X32856875Y2680000D02*
X32856875Y2530000D01*
X32781875Y2605000D02*
X32931875Y2605000D01*
X32856875Y1280000D02*
X32856875Y1130000D01*
X32781875Y1205000D02*
X32931875Y1205000D01*
X32856875Y775000D02*
X32856875Y625000D01*
X32781875Y700000D02*
X32931875Y700000D01*
X32856875Y-625000D02*
X32856875Y-775000D01*
X32781875Y-700000D02*
X32931875Y-700000D01*
D11*
X-943506Y-1265524D02*
X-943506Y-1065524D01*
X-943506Y-1065524D02*
X-895887Y-1065524D01*
X-895887Y-1065524D02*
X-867315Y-1075048D01*
X-867315Y-1075048D02*
X-848268Y-1094095D01*
X-848268Y-1094095D02*
X-838744Y-1113143D01*
X-838744Y-1113143D02*
X-829220Y-1151238D01*
X-829220Y-1151238D02*
X-829220Y-1179810D01*
X-829220Y-1179810D02*
X-838744Y-1217905D01*
X-838744Y-1217905D02*
X-848268Y-1236952D01*
X-848268Y-1236952D02*
X-867315Y-1256000D01*
X-867315Y-1256000D02*
X-895887Y-1265524D01*
X-895887Y-1265524D02*
X-943506Y-1265524D01*
X-743506Y-1265524D02*
X-743506Y-1132190D01*
X-743506Y-1170286D02*
X-733982Y-1151238D01*
X-733982Y-1151238D02*
X-724458Y-1141714D01*
X-724458Y-1141714D02*
X-705411Y-1132190D01*
X-705411Y-1132190D02*
X-686363Y-1132190D01*
X-619696Y-1265524D02*
X-619696Y-1132190D01*
X-619696Y-1065524D02*
X-629220Y-1075048D01*
X-629220Y-1075048D02*
X-619696Y-1084571D01*
X-619696Y-1084571D02*
X-610173Y-1075048D01*
X-610173Y-1075048D02*
X-619696Y-1065524D01*
X-619696Y-1065524D02*
X-619696Y-1084571D01*
X-495887Y-1265524D02*
X-514934Y-1256000D01*
X-514934Y-1256000D02*
X-524458Y-1236952D01*
X-524458Y-1236952D02*
X-524458Y-1065524D01*
X-391125Y-1265524D02*
X-410173Y-1256000D01*
X-410173Y-1256000D02*
X-419696Y-1236952D01*
X-419696Y-1236952D02*
X-419696Y-1065524D01*
X-162554Y-1265524D02*
X-162554Y-1065524D01*
X-162554Y-1065524D02*
X-95887Y-1208381D01*
X-95887Y-1208381D02*
X-29220Y-1065524D01*
X-29220Y-1065524D02*
X-29220Y-1265524D01*
X151732Y-1265524D02*
X151732Y-1160762D01*
X151732Y-1160762D02*
X142208Y-1141714D01*
X142208Y-1141714D02*
X123161Y-1132190D01*
X123161Y-1132190D02*
X85065Y-1132190D01*
X85065Y-1132190D02*
X66018Y-1141714D01*
X151732Y-1256000D02*
X132685Y-1265524D01*
X132685Y-1265524D02*
X85065Y-1265524D01*
X85065Y-1265524D02*
X66018Y-1256000D01*
X66018Y-1256000D02*
X56494Y-1236952D01*
X56494Y-1236952D02*
X56494Y-1217905D01*
X56494Y-1217905D02*
X66018Y-1198857D01*
X66018Y-1198857D02*
X85065Y-1189333D01*
X85065Y-1189333D02*
X132685Y-1189333D01*
X132685Y-1189333D02*
X151732Y-1179810D01*
X246970Y-1132190D02*
X246970Y-1332190D01*
X246970Y-1141714D02*
X266018Y-1132190D01*
X266018Y-1132190D02*
X304113Y-1132190D01*
X304113Y-1132190D02*
X323161Y-1141714D01*
X323161Y-1141714D02*
X332685Y-1151238D01*
X332685Y-1151238D02*
X342208Y-1170286D01*
X342208Y-1170286D02*
X342208Y-1227429D01*
X342208Y-1227429D02*
X332685Y-1246476D01*
X332685Y-1246476D02*
X323161Y-1256000D01*
X323161Y-1256000D02*
X304113Y-1265524D01*
X304113Y-1265524D02*
X266018Y-1265524D01*
X266018Y-1265524D02*
X246970Y-1256000D01*
X427923Y-1246476D02*
X437446Y-1256000D01*
X437446Y-1256000D02*
X427923Y-1265524D01*
X427923Y-1265524D02*
X418399Y-1256000D01*
X418399Y-1256000D02*
X427923Y-1246476D01*
X427923Y-1246476D02*
X427923Y-1265524D01*
X427923Y-1141714D02*
X437446Y-1151238D01*
X437446Y-1151238D02*
X427923Y-1160762D01*
X427923Y-1160762D02*
X418399Y-1151238D01*
X418399Y-1151238D02*
X427923Y-1141714D01*
X427923Y-1141714D02*
X427923Y-1160762D01*
D12*
X-1231125Y-1573000D02*
X-1191125Y-1613000D01*
X-1191125Y-1573000D02*
X-1231125Y-1613000D01*
D11*
X-905411Y-1485524D02*
X-886363Y-1485524D01*
X-886363Y-1485524D02*
X-867315Y-1495048D01*
X-867315Y-1495048D02*
X-857792Y-1504571D01*
X-857792Y-1504571D02*
X-848268Y-1523619D01*
X-848268Y-1523619D02*
X-838744Y-1561714D01*
X-838744Y-1561714D02*
X-838744Y-1609333D01*
X-838744Y-1609333D02*
X-848268Y-1647428D01*
X-848268Y-1647428D02*
X-857792Y-1666476D01*
X-857792Y-1666476D02*
X-867315Y-1676000D01*
X-867315Y-1676000D02*
X-886363Y-1685524D01*
X-886363Y-1685524D02*
X-905411Y-1685524D01*
X-905411Y-1685524D02*
X-924458Y-1676000D01*
X-924458Y-1676000D02*
X-933982Y-1666476D01*
X-933982Y-1666476D02*
X-943506Y-1647428D01*
X-943506Y-1647428D02*
X-953030Y-1609333D01*
X-953030Y-1609333D02*
X-953030Y-1561714D01*
X-953030Y-1561714D02*
X-943506Y-1523619D01*
X-943506Y-1523619D02*
X-933982Y-1504571D01*
X-933982Y-1504571D02*
X-924458Y-1495048D01*
X-924458Y-1495048D02*
X-905411Y-1485524D01*
X-753030Y-1666476D02*
X-743506Y-1676000D01*
X-743506Y-1676000D02*
X-753030Y-1685524D01*
X-753030Y-1685524D02*
X-762553Y-1676000D01*
X-762553Y-1676000D02*
X-753030Y-1666476D01*
X-753030Y-1666476D02*
X-753030Y-1685524D01*
X-572077Y-1552190D02*
X-572077Y-1685524D01*
X-619696Y-1476000D02*
X-667315Y-1618857D01*
X-667315Y-1618857D02*
X-543506Y-1618857D01*
X-429220Y-1485524D02*
X-410172Y-1485524D01*
X-410172Y-1485524D02*
X-391125Y-1495048D01*
X-391125Y-1495048D02*
X-381601Y-1504571D01*
X-381601Y-1504571D02*
X-372077Y-1523619D01*
X-372077Y-1523619D02*
X-362553Y-1561714D01*
X-362553Y-1561714D02*
X-362553Y-1609333D01*
X-362553Y-1609333D02*
X-372077Y-1647428D01*
X-372077Y-1647428D02*
X-381601Y-1666476D01*
X-381601Y-1666476D02*
X-391125Y-1676000D01*
X-391125Y-1676000D02*
X-410172Y-1685524D01*
X-410172Y-1685524D02*
X-429220Y-1685524D01*
X-429220Y-1685524D02*
X-448268Y-1676000D01*
X-448268Y-1676000D02*
X-457792Y-1666476D01*
X-457792Y-1666476D02*
X-467315Y-1647428D01*
X-467315Y-1647428D02*
X-476839Y-1609333D01*
X-476839Y-1609333D02*
X-476839Y-1561714D01*
X-476839Y-1561714D02*
X-467315Y-1523619D01*
X-467315Y-1523619D02*
X-457792Y-1504571D01*
X-457792Y-1504571D02*
X-448268Y-1495048D01*
X-448268Y-1495048D02*
X-429220Y-1485524D01*
X-238744Y-1485524D02*
X-219696Y-1485524D01*
X-219696Y-1485524D02*
X-200649Y-1495048D01*
X-200649Y-1495048D02*
X-191125Y-1504571D01*
X-191125Y-1504571D02*
X-181601Y-1523619D01*
X-181601Y-1523619D02*
X-172077Y-1561714D01*
X-172077Y-1561714D02*
X-172077Y-1609333D01*
X-172077Y-1609333D02*
X-181601Y-1647428D01*
X-181601Y-1647428D02*
X-191125Y-1666476D01*
X-191125Y-1666476D02*
X-200649Y-1676000D01*
X-200649Y-1676000D02*
X-219696Y-1685524D01*
X-219696Y-1685524D02*
X-238744Y-1685524D01*
X-238744Y-1685524D02*
X-257792Y-1676000D01*
X-257792Y-1676000D02*
X-267315Y-1666476D01*
X-267315Y-1666476D02*
X-276839Y-1647428D01*
X-276839Y-1647428D02*
X-286363Y-1609333D01*
X-286363Y-1609333D02*
X-286363Y-1561714D01*
X-286363Y-1561714D02*
X-276839Y-1523619D01*
X-276839Y-1523619D02*
X-267315Y-1504571D01*
X-267315Y-1504571D02*
X-257792Y-1495048D01*
X-257792Y-1495048D02*
X-238744Y-1485524D01*
X-86363Y-1685524D02*
X-86363Y-1552190D01*
X-86363Y-1571238D02*
X-76839Y-1561714D01*
X-76839Y-1561714D02*
X-57792Y-1552190D01*
X-57792Y-1552190D02*
X-29220Y-1552190D01*
X-29220Y-1552190D02*
X-10173Y-1561714D01*
X-10173Y-1561714D02*
X-649Y-1580762D01*
X-649Y-1580762D02*
X-649Y-1685524D01*
X-649Y-1580762D02*
X8875Y-1561714D01*
X8875Y-1561714D02*
X27923Y-1552190D01*
X27923Y-1552190D02*
X56494Y-1552190D01*
X56494Y-1552190D02*
X75542Y-1561714D01*
X75542Y-1561714D02*
X85066Y-1580762D01*
X85066Y-1580762D02*
X85066Y-1685524D01*
X180304Y-1685524D02*
X180304Y-1552190D01*
X180304Y-1571238D02*
X189827Y-1561714D01*
X189827Y-1561714D02*
X208875Y-1552190D01*
X208875Y-1552190D02*
X237446Y-1552190D01*
X237446Y-1552190D02*
X256494Y-1561714D01*
X256494Y-1561714D02*
X266018Y-1580762D01*
X266018Y-1580762D02*
X266018Y-1685524D01*
X266018Y-1580762D02*
X275542Y-1561714D01*
X275542Y-1561714D02*
X294589Y-1552190D01*
X294589Y-1552190D02*
X323161Y-1552190D01*
X323161Y-1552190D02*
X342208Y-1561714D01*
X342208Y-1561714D02*
X351732Y-1580762D01*
X351732Y-1580762D02*
X351732Y-1685524D01*
X742208Y-1476000D02*
X570780Y-1733143D01*
X999351Y-1485524D02*
X1018399Y-1485524D01*
X1018399Y-1485524D02*
X1037447Y-1495048D01*
X1037447Y-1495048D02*
X1046970Y-1504571D01*
X1046970Y-1504571D02*
X1056494Y-1523619D01*
X1056494Y-1523619D02*
X1066018Y-1561714D01*
X1066018Y-1561714D02*
X1066018Y-1609333D01*
X1066018Y-1609333D02*
X1056494Y-1647428D01*
X1056494Y-1647428D02*
X1046970Y-1666476D01*
X1046970Y-1666476D02*
X1037447Y-1676000D01*
X1037447Y-1676000D02*
X1018399Y-1685524D01*
X1018399Y-1685524D02*
X999351Y-1685524D01*
X999351Y-1685524D02*
X980304Y-1676000D01*
X980304Y-1676000D02*
X970780Y-1666476D01*
X970780Y-1666476D02*
X961256Y-1647428D01*
X961256Y-1647428D02*
X951732Y-1609333D01*
X951732Y-1609333D02*
X951732Y-1561714D01*
X951732Y-1561714D02*
X961256Y-1523619D01*
X961256Y-1523619D02*
X970780Y-1504571D01*
X970780Y-1504571D02*
X980304Y-1495048D01*
X980304Y-1495048D02*
X999351Y-1485524D01*
X1151732Y-1666476D02*
X1161256Y-1676000D01*
X1161256Y-1676000D02*
X1151732Y-1685524D01*
X1151732Y-1685524D02*
X1142209Y-1676000D01*
X1142209Y-1676000D02*
X1151732Y-1666476D01*
X1151732Y-1666476D02*
X1151732Y-1685524D01*
X1285066Y-1485524D02*
X1304113Y-1485524D01*
X1304113Y-1485524D02*
X1323161Y-1495048D01*
X1323161Y-1495048D02*
X1332685Y-1504571D01*
X1332685Y-1504571D02*
X1342209Y-1523619D01*
X1342209Y-1523619D02*
X1351732Y-1561714D01*
X1351732Y-1561714D02*
X1351732Y-1609333D01*
X1351732Y-1609333D02*
X1342209Y-1647428D01*
X1342209Y-1647428D02*
X1332685Y-1666476D01*
X1332685Y-1666476D02*
X1323161Y-1676000D01*
X1323161Y-1676000D02*
X1304113Y-1685524D01*
X1304113Y-1685524D02*
X1285066Y-1685524D01*
X1285066Y-1685524D02*
X1266018Y-1676000D01*
X1266018Y-1676000D02*
X1256494Y-1666476D01*
X1256494Y-1666476D02*
X1246970Y-1647428D01*
X1246970Y-1647428D02*
X1237447Y-1609333D01*
X1237447Y-1609333D02*
X1237447Y-1561714D01*
X1237447Y-1561714D02*
X1246970Y-1523619D01*
X1246970Y-1523619D02*
X1256494Y-1504571D01*
X1256494Y-1504571D02*
X1266018Y-1495048D01*
X1266018Y-1495048D02*
X1285066Y-1485524D01*
X1542208Y-1685524D02*
X1427923Y-1685524D01*
X1485066Y-1685524D02*
X1485066Y-1485524D01*
X1485066Y-1485524D02*
X1466018Y-1514095D01*
X1466018Y-1514095D02*
X1446970Y-1533143D01*
X1446970Y-1533143D02*
X1427923Y-1542667D01*
X1723161Y-1485524D02*
X1627923Y-1485524D01*
X1627923Y-1485524D02*
X1618399Y-1580762D01*
X1618399Y-1580762D02*
X1627923Y-1571238D01*
X1627923Y-1571238D02*
X1646970Y-1561714D01*
X1646970Y-1561714D02*
X1694589Y-1561714D01*
X1694589Y-1561714D02*
X1713637Y-1571238D01*
X1713637Y-1571238D02*
X1723161Y-1580762D01*
X1723161Y-1580762D02*
X1732685Y-1599809D01*
X1732685Y-1599809D02*
X1732685Y-1647428D01*
X1732685Y-1647428D02*
X1723161Y-1666476D01*
X1723161Y-1666476D02*
X1713637Y-1676000D01*
X1713637Y-1676000D02*
X1694589Y-1685524D01*
X1694589Y-1685524D02*
X1646970Y-1685524D01*
X1646970Y-1685524D02*
X1627923Y-1676000D01*
X1627923Y-1676000D02*
X1618399Y-1666476D01*
X1799351Y-1485524D02*
X1932685Y-1485524D01*
X1932685Y-1485524D02*
X1846970Y-1685524D01*
X1999351Y-1485524D02*
X1999351Y-1523619D01*
X2075542Y-1485524D02*
X2075542Y-1523619D01*
X2370780Y-1761714D02*
X2361256Y-1752190D01*
X2361256Y-1752190D02*
X2342209Y-1723619D01*
X2342209Y-1723619D02*
X2332685Y-1704571D01*
X2332685Y-1704571D02*
X2323161Y-1676000D01*
X2323161Y-1676000D02*
X2313637Y-1628381D01*
X2313637Y-1628381D02*
X2313637Y-1590286D01*
X2313637Y-1590286D02*
X2323161Y-1542667D01*
X2323161Y-1542667D02*
X2332685Y-1514095D01*
X2332685Y-1514095D02*
X2342209Y-1495048D01*
X2342209Y-1495048D02*
X2361256Y-1466476D01*
X2361256Y-1466476D02*
X2370780Y-1456952D01*
X2427923Y-1485524D02*
X2561256Y-1485524D01*
X2561256Y-1485524D02*
X2475542Y-1685524D01*
X2789828Y-1685524D02*
X2789828Y-1485524D01*
X2875542Y-1685524D02*
X2875542Y-1580762D01*
X2875542Y-1580762D02*
X2866018Y-1561714D01*
X2866018Y-1561714D02*
X2846971Y-1552190D01*
X2846971Y-1552190D02*
X2818399Y-1552190D01*
X2818399Y-1552190D02*
X2799351Y-1561714D01*
X2799351Y-1561714D02*
X2789828Y-1571238D01*
X2999351Y-1685524D02*
X2980304Y-1676000D01*
X2980304Y-1676000D02*
X2970780Y-1666476D01*
X2970780Y-1666476D02*
X2961256Y-1647428D01*
X2961256Y-1647428D02*
X2961256Y-1590286D01*
X2961256Y-1590286D02*
X2970780Y-1571238D01*
X2970780Y-1571238D02*
X2980304Y-1561714D01*
X2980304Y-1561714D02*
X2999351Y-1552190D01*
X2999351Y-1552190D02*
X3027923Y-1552190D01*
X3027923Y-1552190D02*
X3046971Y-1561714D01*
X3046971Y-1561714D02*
X3056494Y-1571238D01*
X3056494Y-1571238D02*
X3066018Y-1590286D01*
X3066018Y-1590286D02*
X3066018Y-1647428D01*
X3066018Y-1647428D02*
X3056494Y-1666476D01*
X3056494Y-1666476D02*
X3046971Y-1676000D01*
X3046971Y-1676000D02*
X3027923Y-1685524D01*
X3027923Y-1685524D02*
X2999351Y-1685524D01*
X3180304Y-1685524D02*
X3161256Y-1676000D01*
X3161256Y-1676000D02*
X3151732Y-1656952D01*
X3151732Y-1656952D02*
X3151732Y-1485524D01*
X3332685Y-1676000D02*
X3313637Y-1685524D01*
X3313637Y-1685524D02*
X3275542Y-1685524D01*
X3275542Y-1685524D02*
X3256494Y-1676000D01*
X3256494Y-1676000D02*
X3246971Y-1656952D01*
X3246971Y-1656952D02*
X3246971Y-1580762D01*
X3246971Y-1580762D02*
X3256494Y-1561714D01*
X3256494Y-1561714D02*
X3275542Y-1552190D01*
X3275542Y-1552190D02*
X3313637Y-1552190D01*
X3313637Y-1552190D02*
X3332685Y-1561714D01*
X3332685Y-1561714D02*
X3342209Y-1580762D01*
X3342209Y-1580762D02*
X3342209Y-1599809D01*
X3342209Y-1599809D02*
X3246971Y-1618857D01*
X3418399Y-1676000D02*
X3437447Y-1685524D01*
X3437447Y-1685524D02*
X3475542Y-1685524D01*
X3475542Y-1685524D02*
X3494590Y-1676000D01*
X3494590Y-1676000D02*
X3504113Y-1656952D01*
X3504113Y-1656952D02*
X3504113Y-1647428D01*
X3504113Y-1647428D02*
X3494590Y-1628381D01*
X3494590Y-1628381D02*
X3475542Y-1618857D01*
X3475542Y-1618857D02*
X3446971Y-1618857D01*
X3446971Y-1618857D02*
X3427923Y-1609333D01*
X3427923Y-1609333D02*
X3418399Y-1590286D01*
X3418399Y-1590286D02*
X3418399Y-1580762D01*
X3418399Y-1580762D02*
X3427923Y-1561714D01*
X3427923Y-1561714D02*
X3446971Y-1552190D01*
X3446971Y-1552190D02*
X3475542Y-1552190D01*
X3475542Y-1552190D02*
X3494590Y-1561714D01*
X3570780Y-1761714D02*
X3580304Y-1752190D01*
X3580304Y-1752190D02*
X3599352Y-1723619D01*
X3599352Y-1723619D02*
X3608875Y-1704571D01*
X3608875Y-1704571D02*
X3618399Y-1676000D01*
X3618399Y-1676000D02*
X3627923Y-1628381D01*
X3627923Y-1628381D02*
X3627923Y-1590286D01*
X3627923Y-1590286D02*
X3618399Y-1542667D01*
X3618399Y-1542667D02*
X3608875Y-1514095D01*
X3608875Y-1514095D02*
X3599352Y-1495048D01*
X3599352Y-1495048D02*
X3580304Y-1466476D01*
X3580304Y-1466476D02*
X3570780Y-1456952D01*
D13*
X-1191125Y-1857000D02*
G75*
G03*
X-1191125Y-1857000I-50000J0D01*
G01*
D11*
X-838744Y-1949524D02*
X-953030Y-1949524D01*
X-895887Y-1949524D02*
X-895887Y-1749524D01*
X-895887Y-1749524D02*
X-914934Y-1778095D01*
X-914934Y-1778095D02*
X-933982Y-1797143D01*
X-933982Y-1797143D02*
X-953030Y-1806667D01*
X-753030Y-1930476D02*
X-743506Y-1940000D01*
X-743506Y-1940000D02*
X-753030Y-1949524D01*
X-753030Y-1949524D02*
X-762553Y-1940000D01*
X-762553Y-1940000D02*
X-753030Y-1930476D01*
X-753030Y-1930476D02*
X-753030Y-1949524D01*
X-619696Y-1749524D02*
X-600649Y-1749524D01*
X-600649Y-1749524D02*
X-581601Y-1759048D01*
X-581601Y-1759048D02*
X-572077Y-1768571D01*
X-572077Y-1768571D02*
X-562554Y-1787619D01*
X-562554Y-1787619D02*
X-553030Y-1825714D01*
X-553030Y-1825714D02*
X-553030Y-1873333D01*
X-553030Y-1873333D02*
X-562554Y-1911428D01*
X-562554Y-1911428D02*
X-572077Y-1930476D01*
X-572077Y-1930476D02*
X-581601Y-1940000D01*
X-581601Y-1940000D02*
X-600649Y-1949524D01*
X-600649Y-1949524D02*
X-619696Y-1949524D01*
X-619696Y-1949524D02*
X-638744Y-1940000D01*
X-638744Y-1940000D02*
X-648268Y-1930476D01*
X-648268Y-1930476D02*
X-657792Y-1911428D01*
X-657792Y-1911428D02*
X-667315Y-1873333D01*
X-667315Y-1873333D02*
X-667315Y-1825714D01*
X-667315Y-1825714D02*
X-657792Y-1787619D01*
X-657792Y-1787619D02*
X-648268Y-1768571D01*
X-648268Y-1768571D02*
X-638744Y-1759048D01*
X-638744Y-1759048D02*
X-619696Y-1749524D01*
X-429220Y-1749524D02*
X-410172Y-1749524D01*
X-410172Y-1749524D02*
X-391125Y-1759048D01*
X-391125Y-1759048D02*
X-381601Y-1768571D01*
X-381601Y-1768571D02*
X-372077Y-1787619D01*
X-372077Y-1787619D02*
X-362553Y-1825714D01*
X-362553Y-1825714D02*
X-362553Y-1873333D01*
X-362553Y-1873333D02*
X-372077Y-1911428D01*
X-372077Y-1911428D02*
X-381601Y-1930476D01*
X-381601Y-1930476D02*
X-391125Y-1940000D01*
X-391125Y-1940000D02*
X-410172Y-1949524D01*
X-410172Y-1949524D02*
X-429220Y-1949524D01*
X-429220Y-1949524D02*
X-448268Y-1940000D01*
X-448268Y-1940000D02*
X-457792Y-1930476D01*
X-457792Y-1930476D02*
X-467315Y-1911428D01*
X-467315Y-1911428D02*
X-476839Y-1873333D01*
X-476839Y-1873333D02*
X-476839Y-1825714D01*
X-476839Y-1825714D02*
X-467315Y-1787619D01*
X-467315Y-1787619D02*
X-457792Y-1768571D01*
X-457792Y-1768571D02*
X-448268Y-1759048D01*
X-448268Y-1759048D02*
X-429220Y-1749524D01*
X-238744Y-1749524D02*
X-219696Y-1749524D01*
X-219696Y-1749524D02*
X-200649Y-1759048D01*
X-200649Y-1759048D02*
X-191125Y-1768571D01*
X-191125Y-1768571D02*
X-181601Y-1787619D01*
X-181601Y-1787619D02*
X-172077Y-1825714D01*
X-172077Y-1825714D02*
X-172077Y-1873333D01*
X-172077Y-1873333D02*
X-181601Y-1911428D01*
X-181601Y-1911428D02*
X-191125Y-1930476D01*
X-191125Y-1930476D02*
X-200649Y-1940000D01*
X-200649Y-1940000D02*
X-219696Y-1949524D01*
X-219696Y-1949524D02*
X-238744Y-1949524D01*
X-238744Y-1949524D02*
X-257792Y-1940000D01*
X-257792Y-1940000D02*
X-267315Y-1930476D01*
X-267315Y-1930476D02*
X-276839Y-1911428D01*
X-276839Y-1911428D02*
X-286363Y-1873333D01*
X-286363Y-1873333D02*
X-286363Y-1825714D01*
X-286363Y-1825714D02*
X-276839Y-1787619D01*
X-276839Y-1787619D02*
X-267315Y-1768571D01*
X-267315Y-1768571D02*
X-257792Y-1759048D01*
X-257792Y-1759048D02*
X-238744Y-1749524D01*
X-86363Y-1949524D02*
X-86363Y-1816190D01*
X-86363Y-1835238D02*
X-76839Y-1825714D01*
X-76839Y-1825714D02*
X-57792Y-1816190D01*
X-57792Y-1816190D02*
X-29220Y-1816190D01*
X-29220Y-1816190D02*
X-10173Y-1825714D01*
X-10173Y-1825714D02*
X-649Y-1844762D01*
X-649Y-1844762D02*
X-649Y-1949524D01*
X-649Y-1844762D02*
X8875Y-1825714D01*
X8875Y-1825714D02*
X27923Y-1816190D01*
X27923Y-1816190D02*
X56494Y-1816190D01*
X56494Y-1816190D02*
X75542Y-1825714D01*
X75542Y-1825714D02*
X85066Y-1844762D01*
X85066Y-1844762D02*
X85066Y-1949524D01*
X180304Y-1949524D02*
X180304Y-1816190D01*
X180304Y-1835238D02*
X189827Y-1825714D01*
X189827Y-1825714D02*
X208875Y-1816190D01*
X208875Y-1816190D02*
X237446Y-1816190D01*
X237446Y-1816190D02*
X256494Y-1825714D01*
X256494Y-1825714D02*
X266018Y-1844762D01*
X266018Y-1844762D02*
X266018Y-1949524D01*
X266018Y-1844762D02*
X275542Y-1825714D01*
X275542Y-1825714D02*
X294589Y-1816190D01*
X294589Y-1816190D02*
X323161Y-1816190D01*
X323161Y-1816190D02*
X342208Y-1825714D01*
X342208Y-1825714D02*
X351732Y-1844762D01*
X351732Y-1844762D02*
X351732Y-1949524D01*
X742208Y-1740000D02*
X570780Y-1997143D01*
X999351Y-1749524D02*
X1018399Y-1749524D01*
X1018399Y-1749524D02*
X1037447Y-1759048D01*
X1037447Y-1759048D02*
X1046970Y-1768571D01*
X1046970Y-1768571D02*
X1056494Y-1787619D01*
X1056494Y-1787619D02*
X1066018Y-1825714D01*
X1066018Y-1825714D02*
X1066018Y-1873333D01*
X1066018Y-1873333D02*
X1056494Y-1911428D01*
X1056494Y-1911428D02*
X1046970Y-1930476D01*
X1046970Y-1930476D02*
X1037447Y-1940000D01*
X1037447Y-1940000D02*
X1018399Y-1949524D01*
X1018399Y-1949524D02*
X999351Y-1949524D01*
X999351Y-1949524D02*
X980304Y-1940000D01*
X980304Y-1940000D02*
X970780Y-1930476D01*
X970780Y-1930476D02*
X961256Y-1911428D01*
X961256Y-1911428D02*
X951732Y-1873333D01*
X951732Y-1873333D02*
X951732Y-1825714D01*
X951732Y-1825714D02*
X961256Y-1787619D01*
X961256Y-1787619D02*
X970780Y-1768571D01*
X970780Y-1768571D02*
X980304Y-1759048D01*
X980304Y-1759048D02*
X999351Y-1749524D01*
X1151732Y-1930476D02*
X1161256Y-1940000D01*
X1161256Y-1940000D02*
X1151732Y-1949524D01*
X1151732Y-1949524D02*
X1142209Y-1940000D01*
X1142209Y-1940000D02*
X1151732Y-1930476D01*
X1151732Y-1930476D02*
X1151732Y-1949524D01*
X1285066Y-1749524D02*
X1304113Y-1749524D01*
X1304113Y-1749524D02*
X1323161Y-1759048D01*
X1323161Y-1759048D02*
X1332685Y-1768571D01*
X1332685Y-1768571D02*
X1342209Y-1787619D01*
X1342209Y-1787619D02*
X1351732Y-1825714D01*
X1351732Y-1825714D02*
X1351732Y-1873333D01*
X1351732Y-1873333D02*
X1342209Y-1911428D01*
X1342209Y-1911428D02*
X1332685Y-1930476D01*
X1332685Y-1930476D02*
X1323161Y-1940000D01*
X1323161Y-1940000D02*
X1304113Y-1949524D01*
X1304113Y-1949524D02*
X1285066Y-1949524D01*
X1285066Y-1949524D02*
X1266018Y-1940000D01*
X1266018Y-1940000D02*
X1256494Y-1930476D01*
X1256494Y-1930476D02*
X1246970Y-1911428D01*
X1246970Y-1911428D02*
X1237447Y-1873333D01*
X1237447Y-1873333D02*
X1237447Y-1825714D01*
X1237447Y-1825714D02*
X1246970Y-1787619D01*
X1246970Y-1787619D02*
X1256494Y-1768571D01*
X1256494Y-1768571D02*
X1266018Y-1759048D01*
X1266018Y-1759048D02*
X1285066Y-1749524D01*
X1418399Y-1749524D02*
X1542208Y-1749524D01*
X1542208Y-1749524D02*
X1475542Y-1825714D01*
X1475542Y-1825714D02*
X1504113Y-1825714D01*
X1504113Y-1825714D02*
X1523161Y-1835238D01*
X1523161Y-1835238D02*
X1532685Y-1844762D01*
X1532685Y-1844762D02*
X1542208Y-1863809D01*
X1542208Y-1863809D02*
X1542208Y-1911428D01*
X1542208Y-1911428D02*
X1532685Y-1930476D01*
X1532685Y-1930476D02*
X1523161Y-1940000D01*
X1523161Y-1940000D02*
X1504113Y-1949524D01*
X1504113Y-1949524D02*
X1446970Y-1949524D01*
X1446970Y-1949524D02*
X1427923Y-1940000D01*
X1427923Y-1940000D02*
X1418399Y-1930476D01*
X1637447Y-1949524D02*
X1675542Y-1949524D01*
X1675542Y-1949524D02*
X1694589Y-1940000D01*
X1694589Y-1940000D02*
X1704113Y-1930476D01*
X1704113Y-1930476D02*
X1723161Y-1901905D01*
X1723161Y-1901905D02*
X1732685Y-1863809D01*
X1732685Y-1863809D02*
X1732685Y-1787619D01*
X1732685Y-1787619D02*
X1723161Y-1768571D01*
X1723161Y-1768571D02*
X1713637Y-1759048D01*
X1713637Y-1759048D02*
X1694589Y-1749524D01*
X1694589Y-1749524D02*
X1656494Y-1749524D01*
X1656494Y-1749524D02*
X1637447Y-1759048D01*
X1637447Y-1759048D02*
X1627923Y-1768571D01*
X1627923Y-1768571D02*
X1618399Y-1787619D01*
X1618399Y-1787619D02*
X1618399Y-1835238D01*
X1618399Y-1835238D02*
X1627923Y-1854286D01*
X1627923Y-1854286D02*
X1637447Y-1863809D01*
X1637447Y-1863809D02*
X1656494Y-1873333D01*
X1656494Y-1873333D02*
X1694589Y-1873333D01*
X1694589Y-1873333D02*
X1713637Y-1863809D01*
X1713637Y-1863809D02*
X1723161Y-1854286D01*
X1723161Y-1854286D02*
X1732685Y-1835238D01*
X1904113Y-1816190D02*
X1904113Y-1949524D01*
X1856494Y-1740000D02*
X1808875Y-1882857D01*
X1808875Y-1882857D02*
X1932685Y-1882857D01*
X1999351Y-1749524D02*
X1999351Y-1787619D01*
X2075542Y-1749524D02*
X2075542Y-1787619D01*
X2370780Y-2025714D02*
X2361256Y-2016190D01*
X2361256Y-2016190D02*
X2342209Y-1987619D01*
X2342209Y-1987619D02*
X2332685Y-1968571D01*
X2332685Y-1968571D02*
X2323161Y-1940000D01*
X2323161Y-1940000D02*
X2313637Y-1892381D01*
X2313637Y-1892381D02*
X2313637Y-1854286D01*
X2313637Y-1854286D02*
X2323161Y-1806667D01*
X2323161Y-1806667D02*
X2332685Y-1778095D01*
X2332685Y-1778095D02*
X2342209Y-1759048D01*
X2342209Y-1759048D02*
X2361256Y-1730476D01*
X2361256Y-1730476D02*
X2370780Y-1720952D01*
X2551732Y-1949524D02*
X2437447Y-1949524D01*
X2494590Y-1949524D02*
X2494590Y-1749524D01*
X2494590Y-1749524D02*
X2475542Y-1778095D01*
X2475542Y-1778095D02*
X2456494Y-1797143D01*
X2456494Y-1797143D02*
X2437447Y-1806667D01*
X2742209Y-1949524D02*
X2627923Y-1949524D01*
X2685066Y-1949524D02*
X2685066Y-1749524D01*
X2685066Y-1749524D02*
X2666018Y-1778095D01*
X2666018Y-1778095D02*
X2646971Y-1797143D01*
X2646971Y-1797143D02*
X2627923Y-1806667D01*
X2856494Y-1835238D02*
X2837447Y-1825714D01*
X2837447Y-1825714D02*
X2827923Y-1816190D01*
X2827923Y-1816190D02*
X2818399Y-1797143D01*
X2818399Y-1797143D02*
X2818399Y-1787619D01*
X2818399Y-1787619D02*
X2827923Y-1768571D01*
X2827923Y-1768571D02*
X2837447Y-1759048D01*
X2837447Y-1759048D02*
X2856494Y-1749524D01*
X2856494Y-1749524D02*
X2894590Y-1749524D01*
X2894590Y-1749524D02*
X2913637Y-1759048D01*
X2913637Y-1759048D02*
X2923161Y-1768571D01*
X2923161Y-1768571D02*
X2932685Y-1787619D01*
X2932685Y-1787619D02*
X2932685Y-1797143D01*
X2932685Y-1797143D02*
X2923161Y-1816190D01*
X2923161Y-1816190D02*
X2913637Y-1825714D01*
X2913637Y-1825714D02*
X2894590Y-1835238D01*
X2894590Y-1835238D02*
X2856494Y-1835238D01*
X2856494Y-1835238D02*
X2837447Y-1844762D01*
X2837447Y-1844762D02*
X2827923Y-1854286D01*
X2827923Y-1854286D02*
X2818399Y-1873333D01*
X2818399Y-1873333D02*
X2818399Y-1911428D01*
X2818399Y-1911428D02*
X2827923Y-1930476D01*
X2827923Y-1930476D02*
X2837447Y-1940000D01*
X2837447Y-1940000D02*
X2856494Y-1949524D01*
X2856494Y-1949524D02*
X2894590Y-1949524D01*
X2894590Y-1949524D02*
X2913637Y-1940000D01*
X2913637Y-1940000D02*
X2923161Y-1930476D01*
X2923161Y-1930476D02*
X2932685Y-1911428D01*
X2932685Y-1911428D02*
X2932685Y-1873333D01*
X2932685Y-1873333D02*
X2923161Y-1854286D01*
X2923161Y-1854286D02*
X2913637Y-1844762D01*
X2913637Y-1844762D02*
X2894590Y-1835238D01*
X2999351Y-1749524D02*
X3132685Y-1749524D01*
X3132685Y-1749524D02*
X3046970Y-1949524D01*
X3361256Y-1949524D02*
X3361256Y-1749524D01*
X3446971Y-1949524D02*
X3446971Y-1844762D01*
X3446971Y-1844762D02*
X3437447Y-1825714D01*
X3437447Y-1825714D02*
X3418399Y-1816190D01*
X3418399Y-1816190D02*
X3389828Y-1816190D01*
X3389828Y-1816190D02*
X3370780Y-1825714D01*
X3370780Y-1825714D02*
X3361256Y-1835238D01*
X3570780Y-1949524D02*
X3551732Y-1940000D01*
X3551732Y-1940000D02*
X3542209Y-1930476D01*
X3542209Y-1930476D02*
X3532685Y-1911428D01*
X3532685Y-1911428D02*
X3532685Y-1854286D01*
X3532685Y-1854286D02*
X3542209Y-1835238D01*
X3542209Y-1835238D02*
X3551732Y-1825714D01*
X3551732Y-1825714D02*
X3570780Y-1816190D01*
X3570780Y-1816190D02*
X3599352Y-1816190D01*
X3599352Y-1816190D02*
X3618399Y-1825714D01*
X3618399Y-1825714D02*
X3627923Y-1835238D01*
X3627923Y-1835238D02*
X3637447Y-1854286D01*
X3637447Y-1854286D02*
X3637447Y-1911428D01*
X3637447Y-1911428D02*
X3627923Y-1930476D01*
X3627923Y-1930476D02*
X3618399Y-1940000D01*
X3618399Y-1940000D02*
X3599352Y-1949524D01*
X3599352Y-1949524D02*
X3570780Y-1949524D01*
X3751732Y-1949524D02*
X3732685Y-1940000D01*
X3732685Y-1940000D02*
X3723161Y-1920952D01*
X3723161Y-1920952D02*
X3723161Y-1749524D01*
X3904113Y-1940000D02*
X3885066Y-1949524D01*
X3885066Y-1949524D02*
X3846971Y-1949524D01*
X3846971Y-1949524D02*
X3827923Y-1940000D01*
X3827923Y-1940000D02*
X3818399Y-1920952D01*
X3818399Y-1920952D02*
X3818399Y-1844762D01*
X3818399Y-1844762D02*
X3827923Y-1825714D01*
X3827923Y-1825714D02*
X3846971Y-1816190D01*
X3846971Y-1816190D02*
X3885066Y-1816190D01*
X3885066Y-1816190D02*
X3904113Y-1825714D01*
X3904113Y-1825714D02*
X3913637Y-1844762D01*
X3913637Y-1844762D02*
X3913637Y-1863809D01*
X3913637Y-1863809D02*
X3818399Y-1882857D01*
X3989828Y-1940000D02*
X4008875Y-1949524D01*
X4008875Y-1949524D02*
X4046971Y-1949524D01*
X4046971Y-1949524D02*
X4066018Y-1940000D01*
X4066018Y-1940000D02*
X4075542Y-1920952D01*
X4075542Y-1920952D02*
X4075542Y-1911428D01*
X4075542Y-1911428D02*
X4066018Y-1892381D01*
X4066018Y-1892381D02*
X4046971Y-1882857D01*
X4046971Y-1882857D02*
X4018399Y-1882857D01*
X4018399Y-1882857D02*
X3999352Y-1873333D01*
X3999352Y-1873333D02*
X3989828Y-1854286D01*
X3989828Y-1854286D02*
X3989828Y-1844762D01*
X3989828Y-1844762D02*
X3999352Y-1825714D01*
X3999352Y-1825714D02*
X4018399Y-1816190D01*
X4018399Y-1816190D02*
X4046971Y-1816190D01*
X4046971Y-1816190D02*
X4066018Y-1825714D01*
X4142209Y-2025714D02*
X4151733Y-2016190D01*
X4151733Y-2016190D02*
X4170780Y-1987619D01*
X4170780Y-1987619D02*
X4180304Y-1968571D01*
X4180304Y-1968571D02*
X4189828Y-1940000D01*
X4189828Y-1940000D02*
X4199352Y-1892381D01*
X4199352Y-1892381D02*
X4199352Y-1854286D01*
X4199352Y-1854286D02*
X4189828Y-1806667D01*
X4189828Y-1806667D02*
X4180304Y-1778095D01*
X4180304Y-1778095D02*
X4170780Y-1759048D01*
X4170780Y-1759048D02*
X4151733Y-1730476D01*
X4151733Y-1730476D02*
X4142209Y-1720952D01*
D14*
X-1266125Y-2046000D02*
X-1266125Y-2196000D01*
X-1341125Y-2121000D02*
X-1191125Y-2121000D01*
D11*
X-838744Y-2213524D02*
X-953030Y-2213524D01*
X-895887Y-2213524D02*
X-895887Y-2013524D01*
X-895887Y-2013524D02*
X-914934Y-2042095D01*
X-914934Y-2042095D02*
X-933982Y-2061143D01*
X-933982Y-2061143D02*
X-953030Y-2070667D01*
X-753030Y-2194476D02*
X-743506Y-2204000D01*
X-743506Y-2204000D02*
X-753030Y-2213524D01*
X-753030Y-2213524D02*
X-762553Y-2204000D01*
X-762553Y-2204000D02*
X-753030Y-2194476D01*
X-753030Y-2194476D02*
X-753030Y-2213524D01*
X-562554Y-2013524D02*
X-657792Y-2013524D01*
X-657792Y-2013524D02*
X-667315Y-2108762D01*
X-667315Y-2108762D02*
X-657792Y-2099238D01*
X-657792Y-2099238D02*
X-638744Y-2089714D01*
X-638744Y-2089714D02*
X-591125Y-2089714D01*
X-591125Y-2089714D02*
X-572077Y-2099238D01*
X-572077Y-2099238D02*
X-562554Y-2108762D01*
X-562554Y-2108762D02*
X-553030Y-2127810D01*
X-553030Y-2127810D02*
X-553030Y-2175429D01*
X-553030Y-2175429D02*
X-562554Y-2194476D01*
X-562554Y-2194476D02*
X-572077Y-2204000D01*
X-572077Y-2204000D02*
X-591125Y-2213524D01*
X-591125Y-2213524D02*
X-638744Y-2213524D01*
X-638744Y-2213524D02*
X-657792Y-2204000D01*
X-657792Y-2204000D02*
X-667315Y-2194476D01*
X-429220Y-2013524D02*
X-410172Y-2013524D01*
X-410172Y-2013524D02*
X-391125Y-2023048D01*
X-391125Y-2023048D02*
X-381601Y-2032571D01*
X-381601Y-2032571D02*
X-372077Y-2051619D01*
X-372077Y-2051619D02*
X-362553Y-2089714D01*
X-362553Y-2089714D02*
X-362553Y-2137333D01*
X-362553Y-2137333D02*
X-372077Y-2175429D01*
X-372077Y-2175429D02*
X-381601Y-2194476D01*
X-381601Y-2194476D02*
X-391125Y-2204000D01*
X-391125Y-2204000D02*
X-410172Y-2213524D01*
X-410172Y-2213524D02*
X-429220Y-2213524D01*
X-429220Y-2213524D02*
X-448268Y-2204000D01*
X-448268Y-2204000D02*
X-457792Y-2194476D01*
X-457792Y-2194476D02*
X-467315Y-2175429D01*
X-467315Y-2175429D02*
X-476839Y-2137333D01*
X-476839Y-2137333D02*
X-476839Y-2089714D01*
X-476839Y-2089714D02*
X-467315Y-2051619D01*
X-467315Y-2051619D02*
X-457792Y-2032571D01*
X-457792Y-2032571D02*
X-448268Y-2023048D01*
X-448268Y-2023048D02*
X-429220Y-2013524D01*
X-238744Y-2013524D02*
X-219696Y-2013524D01*
X-219696Y-2013524D02*
X-200649Y-2023048D01*
X-200649Y-2023048D02*
X-191125Y-2032571D01*
X-191125Y-2032571D02*
X-181601Y-2051619D01*
X-181601Y-2051619D02*
X-172077Y-2089714D01*
X-172077Y-2089714D02*
X-172077Y-2137333D01*
X-172077Y-2137333D02*
X-181601Y-2175429D01*
X-181601Y-2175429D02*
X-191125Y-2194476D01*
X-191125Y-2194476D02*
X-200649Y-2204000D01*
X-200649Y-2204000D02*
X-219696Y-2213524D01*
X-219696Y-2213524D02*
X-238744Y-2213524D01*
X-238744Y-2213524D02*
X-257792Y-2204000D01*
X-257792Y-2204000D02*
X-267315Y-2194476D01*
X-267315Y-2194476D02*
X-276839Y-2175429D01*
X-276839Y-2175429D02*
X-286363Y-2137333D01*
X-286363Y-2137333D02*
X-286363Y-2089714D01*
X-286363Y-2089714D02*
X-276839Y-2051619D01*
X-276839Y-2051619D02*
X-267315Y-2032571D01*
X-267315Y-2032571D02*
X-257792Y-2023048D01*
X-257792Y-2023048D02*
X-238744Y-2013524D01*
X-86363Y-2213524D02*
X-86363Y-2080190D01*
X-86363Y-2099238D02*
X-76839Y-2089714D01*
X-76839Y-2089714D02*
X-57792Y-2080190D01*
X-57792Y-2080190D02*
X-29220Y-2080190D01*
X-29220Y-2080190D02*
X-10173Y-2089714D01*
X-10173Y-2089714D02*
X-649Y-2108762D01*
X-649Y-2108762D02*
X-649Y-2213524D01*
X-649Y-2108762D02*
X8875Y-2089714D01*
X8875Y-2089714D02*
X27923Y-2080190D01*
X27923Y-2080190D02*
X56494Y-2080190D01*
X56494Y-2080190D02*
X75542Y-2089714D01*
X75542Y-2089714D02*
X85066Y-2108762D01*
X85066Y-2108762D02*
X85066Y-2213524D01*
X180304Y-2213524D02*
X180304Y-2080190D01*
X180304Y-2099238D02*
X189827Y-2089714D01*
X189827Y-2089714D02*
X208875Y-2080190D01*
X208875Y-2080190D02*
X237446Y-2080190D01*
X237446Y-2080190D02*
X256494Y-2089714D01*
X256494Y-2089714D02*
X266018Y-2108762D01*
X266018Y-2108762D02*
X266018Y-2213524D01*
X266018Y-2108762D02*
X275542Y-2089714D01*
X275542Y-2089714D02*
X294589Y-2080190D01*
X294589Y-2080190D02*
X323161Y-2080190D01*
X323161Y-2080190D02*
X342208Y-2089714D01*
X342208Y-2089714D02*
X351732Y-2108762D01*
X351732Y-2108762D02*
X351732Y-2213524D01*
X742208Y-2004000D02*
X570780Y-2261143D01*
X999351Y-2013524D02*
X1018399Y-2013524D01*
X1018399Y-2013524D02*
X1037447Y-2023048D01*
X1037447Y-2023048D02*
X1046970Y-2032571D01*
X1046970Y-2032571D02*
X1056494Y-2051619D01*
X1056494Y-2051619D02*
X1066018Y-2089714D01*
X1066018Y-2089714D02*
X1066018Y-2137333D01*
X1066018Y-2137333D02*
X1056494Y-2175429D01*
X1056494Y-2175429D02*
X1046970Y-2194476D01*
X1046970Y-2194476D02*
X1037447Y-2204000D01*
X1037447Y-2204000D02*
X1018399Y-2213524D01*
X1018399Y-2213524D02*
X999351Y-2213524D01*
X999351Y-2213524D02*
X980304Y-2204000D01*
X980304Y-2204000D02*
X970780Y-2194476D01*
X970780Y-2194476D02*
X961256Y-2175429D01*
X961256Y-2175429D02*
X951732Y-2137333D01*
X951732Y-2137333D02*
X951732Y-2089714D01*
X951732Y-2089714D02*
X961256Y-2051619D01*
X961256Y-2051619D02*
X970780Y-2032571D01*
X970780Y-2032571D02*
X980304Y-2023048D01*
X980304Y-2023048D02*
X999351Y-2013524D01*
X1151732Y-2194476D02*
X1161256Y-2204000D01*
X1161256Y-2204000D02*
X1151732Y-2213524D01*
X1151732Y-2213524D02*
X1142209Y-2204000D01*
X1142209Y-2204000D02*
X1151732Y-2194476D01*
X1151732Y-2194476D02*
X1151732Y-2213524D01*
X1285066Y-2013524D02*
X1304113Y-2013524D01*
X1304113Y-2013524D02*
X1323161Y-2023048D01*
X1323161Y-2023048D02*
X1332685Y-2032571D01*
X1332685Y-2032571D02*
X1342209Y-2051619D01*
X1342209Y-2051619D02*
X1351732Y-2089714D01*
X1351732Y-2089714D02*
X1351732Y-2137333D01*
X1351732Y-2137333D02*
X1342209Y-2175429D01*
X1342209Y-2175429D02*
X1332685Y-2194476D01*
X1332685Y-2194476D02*
X1323161Y-2204000D01*
X1323161Y-2204000D02*
X1304113Y-2213524D01*
X1304113Y-2213524D02*
X1285066Y-2213524D01*
X1285066Y-2213524D02*
X1266018Y-2204000D01*
X1266018Y-2204000D02*
X1256494Y-2194476D01*
X1256494Y-2194476D02*
X1246970Y-2175429D01*
X1246970Y-2175429D02*
X1237447Y-2137333D01*
X1237447Y-2137333D02*
X1237447Y-2089714D01*
X1237447Y-2089714D02*
X1246970Y-2051619D01*
X1246970Y-2051619D02*
X1256494Y-2032571D01*
X1256494Y-2032571D02*
X1266018Y-2023048D01*
X1266018Y-2023048D02*
X1285066Y-2013524D01*
X1532685Y-2013524D02*
X1437447Y-2013524D01*
X1437447Y-2013524D02*
X1427923Y-2108762D01*
X1427923Y-2108762D02*
X1437447Y-2099238D01*
X1437447Y-2099238D02*
X1456494Y-2089714D01*
X1456494Y-2089714D02*
X1504113Y-2089714D01*
X1504113Y-2089714D02*
X1523161Y-2099238D01*
X1523161Y-2099238D02*
X1532685Y-2108762D01*
X1532685Y-2108762D02*
X1542208Y-2127810D01*
X1542208Y-2127810D02*
X1542208Y-2175429D01*
X1542208Y-2175429D02*
X1532685Y-2194476D01*
X1532685Y-2194476D02*
X1523161Y-2204000D01*
X1523161Y-2204000D02*
X1504113Y-2213524D01*
X1504113Y-2213524D02*
X1456494Y-2213524D01*
X1456494Y-2213524D02*
X1437447Y-2204000D01*
X1437447Y-2204000D02*
X1427923Y-2194476D01*
X1637447Y-2213524D02*
X1675542Y-2213524D01*
X1675542Y-2213524D02*
X1694589Y-2204000D01*
X1694589Y-2204000D02*
X1704113Y-2194476D01*
X1704113Y-2194476D02*
X1723161Y-2165905D01*
X1723161Y-2165905D02*
X1732685Y-2127810D01*
X1732685Y-2127810D02*
X1732685Y-2051619D01*
X1732685Y-2051619D02*
X1723161Y-2032571D01*
X1723161Y-2032571D02*
X1713637Y-2023048D01*
X1713637Y-2023048D02*
X1694589Y-2013524D01*
X1694589Y-2013524D02*
X1656494Y-2013524D01*
X1656494Y-2013524D02*
X1637447Y-2023048D01*
X1637447Y-2023048D02*
X1627923Y-2032571D01*
X1627923Y-2032571D02*
X1618399Y-2051619D01*
X1618399Y-2051619D02*
X1618399Y-2099238D01*
X1618399Y-2099238D02*
X1627923Y-2118286D01*
X1627923Y-2118286D02*
X1637447Y-2127810D01*
X1637447Y-2127810D02*
X1656494Y-2137333D01*
X1656494Y-2137333D02*
X1694589Y-2137333D01*
X1694589Y-2137333D02*
X1713637Y-2127810D01*
X1713637Y-2127810D02*
X1723161Y-2118286D01*
X1723161Y-2118286D02*
X1732685Y-2099238D01*
X1923161Y-2213524D02*
X1808875Y-2213524D01*
X1866018Y-2213524D02*
X1866018Y-2013524D01*
X1866018Y-2013524D02*
X1846970Y-2042095D01*
X1846970Y-2042095D02*
X1827923Y-2061143D01*
X1827923Y-2061143D02*
X1808875Y-2070667D01*
X1999351Y-2013524D02*
X1999351Y-2051619D01*
X2075542Y-2013524D02*
X2075542Y-2051619D01*
X2370780Y-2289714D02*
X2361256Y-2280190D01*
X2361256Y-2280190D02*
X2342209Y-2251619D01*
X2342209Y-2251619D02*
X2332685Y-2232571D01*
X2332685Y-2232571D02*
X2323161Y-2204000D01*
X2323161Y-2204000D02*
X2313637Y-2156381D01*
X2313637Y-2156381D02*
X2313637Y-2118286D01*
X2313637Y-2118286D02*
X2323161Y-2070667D01*
X2323161Y-2070667D02*
X2332685Y-2042095D01*
X2332685Y-2042095D02*
X2342209Y-2023048D01*
X2342209Y-2023048D02*
X2361256Y-1994476D01*
X2361256Y-1994476D02*
X2370780Y-1984952D01*
X2427923Y-2013524D02*
X2551732Y-2013524D01*
X2551732Y-2013524D02*
X2485066Y-2089714D01*
X2485066Y-2089714D02*
X2513637Y-2089714D01*
X2513637Y-2089714D02*
X2532685Y-2099238D01*
X2532685Y-2099238D02*
X2542209Y-2108762D01*
X2542209Y-2108762D02*
X2551732Y-2127810D01*
X2551732Y-2127810D02*
X2551732Y-2175429D01*
X2551732Y-2175429D02*
X2542209Y-2194476D01*
X2542209Y-2194476D02*
X2532685Y-2204000D01*
X2532685Y-2204000D02*
X2513637Y-2213524D01*
X2513637Y-2213524D02*
X2456494Y-2213524D01*
X2456494Y-2213524D02*
X2437447Y-2204000D01*
X2437447Y-2204000D02*
X2427923Y-2194476D01*
X2666018Y-2099238D02*
X2646971Y-2089714D01*
X2646971Y-2089714D02*
X2637447Y-2080190D01*
X2637447Y-2080190D02*
X2627923Y-2061143D01*
X2627923Y-2061143D02*
X2627923Y-2051619D01*
X2627923Y-2051619D02*
X2637447Y-2032571D01*
X2637447Y-2032571D02*
X2646971Y-2023048D01*
X2646971Y-2023048D02*
X2666018Y-2013524D01*
X2666018Y-2013524D02*
X2704113Y-2013524D01*
X2704113Y-2013524D02*
X2723161Y-2023048D01*
X2723161Y-2023048D02*
X2732685Y-2032571D01*
X2732685Y-2032571D02*
X2742209Y-2051619D01*
X2742209Y-2051619D02*
X2742209Y-2061143D01*
X2742209Y-2061143D02*
X2732685Y-2080190D01*
X2732685Y-2080190D02*
X2723161Y-2089714D01*
X2723161Y-2089714D02*
X2704113Y-2099238D01*
X2704113Y-2099238D02*
X2666018Y-2099238D01*
X2666018Y-2099238D02*
X2646971Y-2108762D01*
X2646971Y-2108762D02*
X2637447Y-2118286D01*
X2637447Y-2118286D02*
X2627923Y-2137333D01*
X2627923Y-2137333D02*
X2627923Y-2175429D01*
X2627923Y-2175429D02*
X2637447Y-2194476D01*
X2637447Y-2194476D02*
X2646971Y-2204000D01*
X2646971Y-2204000D02*
X2666018Y-2213524D01*
X2666018Y-2213524D02*
X2704113Y-2213524D01*
X2704113Y-2213524D02*
X2723161Y-2204000D01*
X2723161Y-2204000D02*
X2732685Y-2194476D01*
X2732685Y-2194476D02*
X2742209Y-2175429D01*
X2742209Y-2175429D02*
X2742209Y-2137333D01*
X2742209Y-2137333D02*
X2732685Y-2118286D01*
X2732685Y-2118286D02*
X2723161Y-2108762D01*
X2723161Y-2108762D02*
X2704113Y-2099238D01*
X2856494Y-2099238D02*
X2837447Y-2089714D01*
X2837447Y-2089714D02*
X2827923Y-2080190D01*
X2827923Y-2080190D02*
X2818399Y-2061143D01*
X2818399Y-2061143D02*
X2818399Y-2051619D01*
X2818399Y-2051619D02*
X2827923Y-2032571D01*
X2827923Y-2032571D02*
X2837447Y-2023048D01*
X2837447Y-2023048D02*
X2856494Y-2013524D01*
X2856494Y-2013524D02*
X2894590Y-2013524D01*
X2894590Y-2013524D02*
X2913637Y-2023048D01*
X2913637Y-2023048D02*
X2923161Y-2032571D01*
X2923161Y-2032571D02*
X2932685Y-2051619D01*
X2932685Y-2051619D02*
X2932685Y-2061143D01*
X2932685Y-2061143D02*
X2923161Y-2080190D01*
X2923161Y-2080190D02*
X2913637Y-2089714D01*
X2913637Y-2089714D02*
X2894590Y-2099238D01*
X2894590Y-2099238D02*
X2856494Y-2099238D01*
X2856494Y-2099238D02*
X2837447Y-2108762D01*
X2837447Y-2108762D02*
X2827923Y-2118286D01*
X2827923Y-2118286D02*
X2818399Y-2137333D01*
X2818399Y-2137333D02*
X2818399Y-2175429D01*
X2818399Y-2175429D02*
X2827923Y-2194476D01*
X2827923Y-2194476D02*
X2837447Y-2204000D01*
X2837447Y-2204000D02*
X2856494Y-2213524D01*
X2856494Y-2213524D02*
X2894590Y-2213524D01*
X2894590Y-2213524D02*
X2913637Y-2204000D01*
X2913637Y-2204000D02*
X2923161Y-2194476D01*
X2923161Y-2194476D02*
X2932685Y-2175429D01*
X2932685Y-2175429D02*
X2932685Y-2137333D01*
X2932685Y-2137333D02*
X2923161Y-2118286D01*
X2923161Y-2118286D02*
X2913637Y-2108762D01*
X2913637Y-2108762D02*
X2894590Y-2099238D01*
X3170780Y-2213524D02*
X3170780Y-2013524D01*
X3256494Y-2213524D02*
X3256494Y-2108762D01*
X3256494Y-2108762D02*
X3246971Y-2089714D01*
X3246971Y-2089714D02*
X3227923Y-2080190D01*
X3227923Y-2080190D02*
X3199351Y-2080190D01*
X3199351Y-2080190D02*
X3180304Y-2089714D01*
X3180304Y-2089714D02*
X3170780Y-2099238D01*
X3380304Y-2213524D02*
X3361256Y-2204000D01*
X3361256Y-2204000D02*
X3351732Y-2194476D01*
X3351732Y-2194476D02*
X3342209Y-2175429D01*
X3342209Y-2175429D02*
X3342209Y-2118286D01*
X3342209Y-2118286D02*
X3351732Y-2099238D01*
X3351732Y-2099238D02*
X3361256Y-2089714D01*
X3361256Y-2089714D02*
X3380304Y-2080190D01*
X3380304Y-2080190D02*
X3408875Y-2080190D01*
X3408875Y-2080190D02*
X3427923Y-2089714D01*
X3427923Y-2089714D02*
X3437447Y-2099238D01*
X3437447Y-2099238D02*
X3446971Y-2118286D01*
X3446971Y-2118286D02*
X3446971Y-2175429D01*
X3446971Y-2175429D02*
X3437447Y-2194476D01*
X3437447Y-2194476D02*
X3427923Y-2204000D01*
X3427923Y-2204000D02*
X3408875Y-2213524D01*
X3408875Y-2213524D02*
X3380304Y-2213524D01*
X3561256Y-2213524D02*
X3542209Y-2204000D01*
X3542209Y-2204000D02*
X3532685Y-2184952D01*
X3532685Y-2184952D02*
X3532685Y-2013524D01*
X3713637Y-2204000D02*
X3694590Y-2213524D01*
X3694590Y-2213524D02*
X3656494Y-2213524D01*
X3656494Y-2213524D02*
X3637447Y-2204000D01*
X3637447Y-2204000D02*
X3627923Y-2184952D01*
X3627923Y-2184952D02*
X3627923Y-2108762D01*
X3627923Y-2108762D02*
X3637447Y-2089714D01*
X3637447Y-2089714D02*
X3656494Y-2080190D01*
X3656494Y-2080190D02*
X3694590Y-2080190D01*
X3694590Y-2080190D02*
X3713637Y-2089714D01*
X3713637Y-2089714D02*
X3723161Y-2108762D01*
X3723161Y-2108762D02*
X3723161Y-2127810D01*
X3723161Y-2127810D02*
X3627923Y-2146857D01*
X3799352Y-2204000D02*
X3818399Y-2213524D01*
X3818399Y-2213524D02*
X3856494Y-2213524D01*
X3856494Y-2213524D02*
X3875542Y-2204000D01*
X3875542Y-2204000D02*
X3885066Y-2184952D01*
X3885066Y-2184952D02*
X3885066Y-2175429D01*
X3885066Y-2175429D02*
X3875542Y-2156381D01*
X3875542Y-2156381D02*
X3856494Y-2146857D01*
X3856494Y-2146857D02*
X3827923Y-2146857D01*
X3827923Y-2146857D02*
X3808875Y-2137333D01*
X3808875Y-2137333D02*
X3799352Y-2118286D01*
X3799352Y-2118286D02*
X3799352Y-2108762D01*
X3799352Y-2108762D02*
X3808875Y-2089714D01*
X3808875Y-2089714D02*
X3827923Y-2080190D01*
X3827923Y-2080190D02*
X3856494Y-2080190D01*
X3856494Y-2080190D02*
X3875542Y-2089714D01*
X3951733Y-2289714D02*
X3961256Y-2280190D01*
X3961256Y-2280190D02*
X3980304Y-2251619D01*
X3980304Y-2251619D02*
X3989828Y-2232571D01*
X3989828Y-2232571D02*
X3999352Y-2204000D01*
X3999352Y-2204000D02*
X4008875Y-2156381D01*
X4008875Y-2156381D02*
X4008875Y-2118286D01*
X4008875Y-2118286D02*
X3999352Y-2070667D01*
X3999352Y-2070667D02*
X3989828Y-2042095D01*
X3989828Y-2042095D02*
X3980304Y-2023048D01*
X3980304Y-2023048D02*
X3961256Y-1994476D01*
X3961256Y-1994476D02*
X3951733Y-1984952D01*
M02*
